<?xml version="1.0" encoding="utf-8"?>
<!-- Generator: Adobe Illustrator 18.0.0, SVG Export Plug-In . SVG Version: 6.00 Build 0)  -->
<!DOCTYPE svg PUBLIC "-//W3C//DTD SVG 1.1//EN" "http://www.w3.org/Graphics/SVG/1.1/DTD/svg11.dtd">
<svg version="1.1" id="Layer_1" xmlns="http://www.w3.org/2000/svg" xmlns:xlink="http://www.w3.org/1999/xlink" x="0px" y="0px"
	 viewBox="0 0 45 45" enable-background="new 0 0 45 45" xml:space="preserve">
	<style type="text/css">
			@import "../default/default/svg.css";
	</style>
	 <script type="text/javascript">
         <![CDATA[
             if(window.parent && window.parent.Wincor && window.parent.Wincor.UI && window.parent.Wincor.UI.Content) {
                 let styleRes = window.parent.Wincor.UI.Content.StyleResourceResolver;
                 if(styleRes) {
                 	let style = document.getElementsByTagName("style")[0];
                   	style.innerHTML = style.innerHTML.replace("default/svg.css", styleRes.type() + "svg.css");
                    styleRes = null;
                 }
             }
         ]]>
    </script>
<g class="shadowGroup1">
	<rect x="24.6" y="19" width="2" height="11"/>
	<rect x="24.6" y="31" width="2" height="2"/>
	<polygon fill="none" stroke="#000000" stroke-miterlimit="10"  points="25.8,37.5 10.1,37.5 18,24
		25.8,10.5 33.6,24 41.3,37.5 	"/>
</g>
<g class="shadowGroup2">
	<rect x="23.6" y="18" width="2" height="11"/>
	<rect x="23.6" y="30" width="2" height="2"/>
	<polygon fill="none" stroke="#000000" stroke-miterlimit="10"  points="24.8,36.5 9.1,36.5 17,23
		24.8,9.5 32.6,23 40.3,36.5 	"/>
</g>
<g class="shadowGroup3">
	<rect x="22.6" y="17" width="2" height="11"/>
	<rect x="22.6" y="29" width="2" height="2"/>
	<polygon fill="none" stroke="#000000" stroke-miterlimit="10"  points="23.8,35.5 8.1,35.5 15.9,22
		23.8,8.5 31.6,22 39.3,35.5 	"/>
</g>
<g opacity="0.3">
	<polygon class="fillColor07"  points="22.2,34.5 6.7,34.5 14.4,21 22.2,7.5 30.1,21 37.8,34.5 	"/>
</g>
<g>
	<rect x="21.6" y="16" class="fillColor07" width="2" height="11"/>
	<rect x="21.6" y="28" class="fillColor07" width="2" height="2"/>
	<polygon class="strokeColor07" stroke-miterlimit="10" points="22.8,34.5 7.2,34.5 14.9,21 22.8,7.5 30.6,21 38.3,34.5 	"/>
</g>
</svg>
