<?xml version="1.0" encoding="utf-8"?>
<!-- Generator: Adobe Illustrator 18.0.0, SVG Export Plug-In . SVG Version: 6.00 Build 0)  -->
<!DOCTYPE svg PUBLIC "-//W3C//DTD SVG 1.1//EN" "http://www.w3.org/Graphics/SVG/1.1/DTD/svg11.dtd">
<svg version="1.1" xmlns="http://www.w3.org/2000/svg" xmlns:xlink="http://www.w3.org/1999/xlink" x="0px" y="0px"
	 viewBox="0 0 280 100" enable-background="new 0 0 280 100" xml:space="preserve">
<g id="Ebene_2">
	<rect fill="#FFFFFF" width="280" height="100"/>
</g>
<g id="Ebene_1">
	<g>
		<polygon points="90.218,8.625 95.51,8.729 95.51,91.375 90.218,91.271 		"/>
		<polygon points="108.564,8.625 113.856,8.729 113.856,91.375 108.564,91.271 		"/>
		<polygon points="162.014,8.625 167.306,8.729 167.306,91.375 162.014,91.271 		"/>
		<polygon points="199.235,8.625 204.527,8.729 204.527,91.375 199.235,91.271 		"/>
		<polygon points="217.228,8.625 222.52,8.729 222.52,91.375 217.228,91.271 		"/>
		<polygon points="22.126,8.625 26.36,8.708 26.36,91.354 22.126,91.271 		"/>
		<polygon points="123.911,8.625 128.144,8.708 128.144,91.354 123.911,91.271 		"/>
		<polygon points="133.26,8.625 137.494,8.708 137.494,91.354 133.26,91.271 		"/>
		<polygon points="243.689,8.625 247.922,8.708 247.922,91.354 243.689,91.271 		"/>
		<polygon points="261.976,8.625 266.21,8.708 266.21,91.354 261.976,91.271 		"/>
		<polygon points="270.502,8.625 273.361,8.681 273.361,91.327 270.502,91.271 		"/>
		<polygon points="254.997,8.625 257.856,8.681 257.856,91.327 254.997,91.271 		"/>
		<polygon points="249.352,8.625 252.211,8.681 252.211,91.327 249.352,91.271 		"/>
		<polygon points="227.654,8.625 230.513,8.681 230.513,91.327 227.654,91.271 		"/>
		<polygon points="188.669,8.625 191.528,8.681 191.528,91.327 188.669,91.271 		"/>
		<polygon points="153.036,8.625 155.895,8.681 155.895,91.327 153.036,91.271 		"/>
		<polygon points="141.569,8.625 144.428,8.681 144.428,91.327 141.569,91.271 		"/>
		<polygon points="119.46,8.625 122.319,8.681 122.319,91.327 119.46,91.271 		"/>
		<polygon points="79.122,8.625 81.982,8.681 81.982,91.327 79.122,91.271 		"/>
		<polygon points="53.015,8.625 55.874,8.681 55.874,91.327 53.015,91.271 		"/>
		<polygon points="44.018,8.625 46.877,8.681 46.877,91.327 44.018,91.271 		"/>
		<polygon points="33.081,8.625 35.94,8.681 35.94,91.327 33.081,91.271 		"/>
		<polygon points="6.639,8.625 9.498,8.681 9.498,91.327 6.639,91.271 		"/>
		<polygon points="15.011,8.625 16.305,8.65 16.305,91.296 15.011,91.271 		"/>
		<polygon points="27.712,8.625 29.006,8.65 29.006,91.296 27.712,91.271 		"/>
		<polygon points="37.414,8.625 38.708,8.65 38.708,91.296 37.414,91.271 		"/>
		<polygon points="61.67,8.625 62.963,8.65 62.963,91.296 61.67,91.271 		"/>
		<polygon points="64.595,8.625 65.889,8.65 65.889,91.296 64.595,91.271 		"/>
		<polygon points="68.814,8.625 70.108,8.65 70.108,91.296 68.814,91.271 		"/>
		<polygon points="75.753,8.625 77.223,8.654 77.223,91.3 75.753,91.271 		"/>
		<polygon points="84.22,8.625 85.69,8.654 85.69,91.3 84.22,91.271 		"/>
		<polygon points="96.862,8.625 98.332,8.654 98.332,91.3 96.862,91.271 		"/>
		<polygon points="99.786,8.625 101.178,8.652 101.178,91.298 99.786,91.271 		"/>
		<polygon points="104.079,8.625 105.47,8.652 105.47,91.298 104.079,91.271 		"/>
		<polygon points="115.369,8.625 116.76,8.652 116.76,91.298 115.369,91.271 		"/>
		<polygon points="130.892,8.625 132.284,8.652 132.284,91.298 130.892,91.271 		"/>
		<polygon points="146.181,8.625 147.572,8.652 147.572,91.298 146.181,91.271 		"/>
		<polygon points="157.553,8.625 158.912,8.652 158.912,91.297 157.553,91.271 		"/>
		<polygon points="170.422,8.625 171.814,8.652 171.814,91.298 170.422,91.271 		"/>
		<polygon points="174.597,8.625 175.989,8.652 175.989,91.298 174.597,91.271 		"/>
		<polygon points="184.476,8.625 185.867,8.652 185.867,91.298 184.476,91.271 		"/>
		<polygon points="192.943,8.625 194.335,8.652 194.335,91.298 192.943,91.271 		"/>
		<polygon points="205.664,8.625 207.056,8.652 207.056,91.298 205.664,91.271 		"/>
		<polygon points="208.487,8.625 209.878,8.652 209.878,91.298 208.487,91.271 		"/>
		<polygon points="212.779,8.625 214.171,8.652 214.171,91.298 212.779,91.271 		"/>
		<polygon points="235.241,8.625 236.633,8.652 236.633,91.298 235.241,91.271 		"/>
		<polygon points="239.475,8.625 240.866,8.652 240.866,91.298 239.475,91.271 		"/>
		<polygon points="267.758,8.625 269.15,8.652 269.15,91.298 267.758,91.271 		"/>
		<polygon points="223.91,8.625 225.546,8.657 225.546,91.303 223.91,91.271 		"/>
		<polygon points="177.434,8.625 178.983,8.656 178.983,91.301 177.434,91.271 		"/>
		<polygon points="10.483,8.625 11.777,8.65 11.777,91.296 10.483,91.271 		"/>
	</g>
</g>
</svg>
