<?xml version="1.0" encoding="utf-8"?>
<!-- Generator: Adobe Illustrator 18.0.0, SVG Export Plug-In . SVG Version: 6.00 Build 0)  -->
<!DOCTYPE svg PUBLIC "-//W3C//DTD SVG 1.1//EN" "http://www.w3.org/Graphics/SVG/1.1/DTD/svg11.dtd">
<svg version="1.1" id="Ebene_1" xmlns="http://www.w3.org/2000/svg" xmlns:xlink="http://www.w3.org/1999/xlink" x="0px" y="0px"
	 viewBox="0 0 45 45" enable-background="new 0 0 45 45" xml:space="preserve"><style type="text/css">
			@import "../default/default/svg.css";
	</style>
		 <script type="text/javascript">
         <![CDATA[
             if(window.parent && window.parent.Wincor && window.parent.Wincor.UI && window.parent.Wincor.UI.Content) {
                 let styleRes = window.parent.Wincor.UI.Content.StyleResourceResolver;
                 if(styleRes) {
                 	let style = document.getElementsByTagName("style")[0];
                   	style.innerHTML = style.innerHTML.replace("default/svg.css", styleRes.type() + "svg.css");
                    styleRes = null;
                 }
             }
         ]]>
    </script>
<g class="shadowGroup1">
	<polygon points="30.985,31.346 30.985,43.346 9.985,43.346 9.985,4.346 30.985,4.346 30.985,13.346 31.985,13.346 31.985,3.346 
		8.985,3.346 8.985,44.346 31.985,44.346 31.985,31.346 	"/>
	<path fill="none" stroke="#000000" stroke-width="0.5"  d="M29.394,21.681
		c-0.128,0.281-0.456,0.4-0.724,0.262l-4.154-2.093c-0.27-0.135-0.383-0.477-0.254-0.755l1.583-3.413
		c0.13-0.279,0.456-0.397,0.724-0.261l4.153,2.091c0.272,0.137,0.387,0.477,0.257,0.757L29.394,21.681z"/>
	<path fill="none" stroke="#000000" stroke-width="0.25"  d="M28.335,17.043l0.998,0.503l0.122,0.209
		l1.376,0.691l0.077-0.17l-1.321-0.667l-0.128-0.21l-0.785-0.395l0.178-0.382l-0.491-0.247l-0.177,0.382l-0.663-0.335l-0.038,0.013
		c-0.049,0.026-0.126,0.04-0.145,0.039c-0.062-0.042-0.38-0.202-1.244-0.625c-0.137-0.07-0.25-0.128-0.302-0.153l-0.08,0.17
		c0.052,0.025,0.166,0.081,0.304,0.153c0.376,0.19,1.164,0.577,1.226,0.618c0.067,0.046,0.179,0.028,0.276-0.006l0.25,0.128
		c-0.421,0.06-0.713,0.361-0.76,0.463l-0.148,0.323l-1.558-0.787l-0.081,0.169l1.551,0.784l-0.009,0.018
		c-0.045,0.099-0.015,0.209,0.013,0.319c0.029,0.096,0.054,0.193,0.019,0.269c-0.031,0.068-0.093,0.09-0.175,0.12
		c-0.087,0.03-0.182,0.065-0.245,0.159l-1.56-0.787l-0.08,0.171l1.553,0.781l-0.118,0.255c-0.129,0.279-0.092,0.653,0.114,0.975
		l-0.273-0.135c-0.031-0.1-0.09-0.2-0.162-0.23c-0.064-0.021-0.852-0.43-1.228-0.617c-0.138-0.071-0.253-0.128-0.303-0.152
		l-0.078,0.168c0.048,0.026,0.164,0.083,0.302,0.154c0.856,0.44,1.17,0.601,1.244,0.624c0.019,0.021,0.046,0.088,0.063,0.147
		l0.013,0.038l0.662,0.334l-0.22,0.476l0.49,0.248l0.218-0.476l0.785,0.396l0.235-0.029l1.323,0.667l0.08-0.169l-1.363-0.686
		l-0.237,0.026l-0.366-0.185c0.388-0.054,0.691-0.298,0.774-0.477l0.139-0.296l1.476,0.746l0.081-0.169l-1.493-0.754
		c0.032-0.139-0.002-0.282-0.022-0.387c-0.012-0.045-0.029-0.118-0.026-0.126c0.05-0.11,0.108-0.124,0.181-0.15
		c0.079-0.022,0.189-0.052,0.28-0.215l1.481,0.747l0.079-0.171l-1.637-0.822l-0.038,0.084c-0.076,0.16-0.133,0.175-0.212,0.196
		c-0.096,0.026-0.198,0.057-0.295,0.239c-0.035,0.077-0.011,0.161,0.014,0.258c0.026,0.116,0.057,0.249,0.01,0.349l-0.18,0.38
		c-0.082,0.179-0.611,0.56-1.166,0.281c-0.598-0.301-0.717-0.894-0.57-1.206l0.18-0.382c0.026-0.058,0.07-0.076,0.165-0.103
		c0.096-0.034,0.219-0.079,0.283-0.222c0.066-0.144,0.023-0.291-0.003-0.409c-0.016-0.072-0.037-0.148-0.021-0.189l0.234-0.509
		C27.222,17.203,27.725,16.732,28.335,17.043z"/>
	<path fill="none" stroke="#000000" stroke-width="1.25"  d="M23.823,13.03l0.21-0.443
		c0.385-0.819,1.338-1.153,2.125-0.749L42.3,20.104c0.789,0.405,1.115,1.396,0.731,2.212l-4.19,8.884
		c-0.385,0.82-1.338,1.157-2.124,0.751l-16.145-8.269c-0.788-0.403-1.115-1.393-0.728-2.211l1.652-3.504"/>
	<g>
		<g>
			<rect x="10.34" y="6.696" width="18.122" height="1"/>
		</g>
	</g>
	<g>
		<g>
			<rect x="10.34" y="30.946" width="18.122" height="1"/>
		</g>
	</g>
	<g>
		<g>
			<rect x="10.34" y="10.737" width="11.086" height="1"/>
		</g>
	</g>
	<g>
		<g>
			<rect x="10.499" y="35.022" width="18.122" height="1"/>
		</g>
	</g>
	<g>
		<g>
			<rect x="10.34" y="14.779" width="8.81" height="1"/>
		</g>
	</g>
	<g>
		<g>
			<rect x="10.34" y="18.821" width="7.378" height="1"/>
		</g>
	</g>
	<g>
		<g>
			<rect x="10.031" y="22.862" width="7.346" height="1"/>
		</g>
	</g>
	<g>
		<g>
			<rect x="9.633" y="26.904" width="11.793" height="1"/>
		</g>
	</g>
</g>
<g class="shadowGroup2">
	<polygon points="30.06,30.411 30.06,42.411 9.06,42.411 9.06,3.411 30.06,3.411 30.06,12.411 31.06,12.411 31.06,2.411 8.06,2.411 
		8.06,43.411 31.06,43.411 31.06,30.411 	"/>
	<path fill="none" stroke="#000000" stroke-width="0.5"  d="M29.031,21.259
		c-0.128,0.281-0.456,0.4-0.724,0.262l-4.154-2.093c-0.27-0.135-0.383-0.477-0.254-0.755l1.583-3.413
		c0.13-0.279,0.456-0.397,0.724-0.261l4.153,2.091c0.272,0.137,0.387,0.477,0.257,0.757L29.031,21.259z"/>
	<path fill="none" stroke="#000000" stroke-width="0.25"  d="M27.972,16.621l0.998,0.503l0.122,0.209
		l1.376,0.691l0.077-0.17l-1.321-0.667l-0.128-0.21l-0.785-0.395l0.178-0.382l-0.491-0.247l-0.177,0.382l-0.663-0.335l-0.038,0.013
		c-0.049,0.026-0.126,0.04-0.145,0.039c-0.062-0.042-0.38-0.202-1.244-0.625c-0.137-0.07-0.25-0.128-0.302-0.153l-0.08,0.17
		c0.052,0.025,0.166,0.081,0.304,0.153c0.376,0.19,1.164,0.577,1.226,0.618c0.067,0.046,0.179,0.028,0.276-0.006l0.25,0.128
		c-0.421,0.06-0.713,0.361-0.76,0.463l-0.148,0.323l-1.558-0.787l-0.081,0.169l1.551,0.784l-0.009,0.018
		c-0.045,0.099-0.015,0.209,0.013,0.319c0.029,0.096,0.054,0.193,0.019,0.269c-0.031,0.068-0.093,0.09-0.175,0.12
		c-0.087,0.03-0.182,0.065-0.245,0.159l-1.56-0.787l-0.08,0.171l1.553,0.781l-0.118,0.255c-0.129,0.279-0.092,0.653,0.114,0.975
		l-0.273-0.135c-0.031-0.1-0.09-0.2-0.162-0.23c-0.064-0.021-0.852-0.43-1.228-0.617c-0.138-0.071-0.253-0.128-0.303-0.152
		l-0.078,0.168c0.048,0.026,0.164,0.083,0.302,0.154c0.856,0.44,1.17,0.601,1.244,0.624c0.019,0.021,0.046,0.088,0.063,0.147
		l0.013,0.038l0.662,0.334l-0.22,0.476l0.49,0.248l0.218-0.476l0.785,0.396l0.235-0.029l1.323,0.667l0.08-0.169l-1.363-0.686
		l-0.237,0.026l-0.366-0.185c0.388-0.054,0.691-0.298,0.774-0.477l0.139-0.296l1.476,0.746l0.081-0.169l-1.493-0.754
		c0.032-0.139-0.002-0.282-0.022-0.387c-0.012-0.045-0.029-0.118-0.026-0.126c0.05-0.11,0.108-0.124,0.181-0.15
		c0.079-0.022,0.189-0.052,0.28-0.215l1.481,0.747l0.079-0.171l-1.637-0.822l-0.038,0.084c-0.076,0.16-0.133,0.175-0.212,0.196
		c-0.096,0.026-0.198,0.057-0.295,0.239c-0.035,0.077-0.011,0.161,0.014,0.258c0.026,0.116,0.057,0.249,0.01,0.349l-0.18,0.38
		c-0.082,0.179-0.611,0.56-1.166,0.281c-0.598-0.301-0.717-0.894-0.57-1.206l0.18-0.382c0.026-0.058,0.07-0.076,0.165-0.103
		c0.096-0.034,0.219-0.079,0.283-0.222c0.066-0.144,0.023-0.291-0.003-0.409c-0.016-0.072-0.037-0.148-0.021-0.189l0.234-0.509
		C26.859,16.781,27.362,16.31,27.972,16.621z"/>
	<path fill="none" stroke="#000000" stroke-width="1.25"  d="M23.344,12.578l0.21-0.443
		c0.385-0.819,1.338-1.153,2.125-0.749l16.142,8.266c0.789,0.405,1.115,1.396,0.731,2.212l-4.19,8.884
		c-0.385,0.82-1.338,1.157-2.124,0.751L20.093,23.23c-0.788-0.403-1.115-1.393-0.728-2.211l1.652-3.504"/>
	<g>
		<g>
			<rect x="9.66" y="6.226" width="18.122" height="1"/>
		</g>
	</g>
	<g>
		<g>
			<rect x="9.66" y="30.476" width="18.122" height="1"/>
		</g>
	</g>
	<g>
		<g>
			<rect x="9.66" y="10.267" width="11.086" height="1"/>
		</g>
	</g>
	<g>
		<g>
			<rect x="9.66" y="14.309" width="8.81" height="1"/>
		</g>
	</g>
	<g>
		<g>
			<rect x="9.66" y="18.351" width="7.378" height="1"/>
		</g>
	</g>
	<g>
		<g>
			<rect x="9.66" y="34.522" width="18.122" height="1"/>
		</g>
	</g>
	<g>
		<g>
			<rect x="9.454" y="22.392" width="7.346" height="1"/>
		</g>
	</g>
	<g>
		<g>
			<rect x="9.19" y="26.434" width="11.793" height="1"/>
		</g>
	</g>
</g>
<g class="shadowGroup3">
	<polygon points="29.06,29.474 29.06,41.474 8.06,41.474 8.06,2.474 29.06,2.474 29.06,11.474 30.06,11.474 30.06,1.474 7.06,1.474 
		7.06,42.474 30.06,42.474 30.06,29.474 	"/>
	<path fill="none" stroke="#000000" stroke-width="0.5"  d="M28.626,20.77
		c-0.128,0.281-0.456,0.4-0.724,0.262l-4.154-2.093c-0.27-0.135-0.383-0.477-0.254-0.755l1.583-3.413
		c0.13-0.279,0.456-0.397,0.724-0.261l4.153,2.091c0.272,0.137,0.387,0.477,0.257,0.757L28.626,20.77z"/>
	<path fill="none" stroke="#000000" stroke-width="0.25"  d="M27.567,16.132l0.998,0.503l0.122,0.209
		l1.376,0.691l0.077-0.17l-1.321-0.667l-0.128-0.21l-0.785-0.395l0.178-0.382l-0.491-0.247l-0.177,0.382l-0.663-0.335l-0.038,0.013
		c-0.049,0.026-0.126,0.04-0.145,0.039c-0.062-0.042-0.38-0.202-1.244-0.625c-0.137-0.07-0.25-0.128-0.302-0.153l-0.08,0.17
		c0.052,0.025,0.166,0.081,0.304,0.153c0.376,0.19,1.164,0.577,1.226,0.618c0.067,0.046,0.179,0.028,0.276-0.006l0.25,0.128
		c-0.421,0.06-0.713,0.361-0.76,0.463l-0.148,0.323l-1.558-0.787l-0.081,0.169l1.551,0.784l-0.009,0.018
		c-0.045,0.099-0.015,0.209,0.013,0.319c0.029,0.096,0.054,0.193,0.019,0.269c-0.031,0.068-0.093,0.09-0.175,0.12
		c-0.087,0.03-0.182,0.065-0.245,0.159l-1.56-0.787l-0.08,0.171l1.553,0.781l-0.118,0.255c-0.129,0.279-0.092,0.653,0.114,0.975
		l-0.273-0.135c-0.031-0.1-0.09-0.2-0.162-0.23c-0.064-0.021-0.852-0.43-1.228-0.617c-0.138-0.071-0.253-0.128-0.303-0.152
		l-0.078,0.168c0.048,0.026,0.164,0.083,0.302,0.154c0.856,0.44,1.17,0.601,1.244,0.624c0.019,0.021,0.046,0.088,0.063,0.147
		l0.013,0.038l0.662,0.334l-0.22,0.476l0.49,0.248l0.218-0.476l0.785,0.396l0.235-0.029l1.323,0.667l0.08-0.169l-1.363-0.686
		l-0.237,0.026L26.7,19.676c0.388-0.054,0.691-0.298,0.774-0.477l0.139-0.296l1.476,0.746l0.081-0.169l-1.493-0.754
		c0.032-0.139-0.002-0.282-0.022-0.387c-0.012-0.045-0.029-0.118-0.026-0.126c0.05-0.11,0.108-0.124,0.181-0.15
		c0.079-0.022,0.189-0.052,0.28-0.215l1.481,0.747l0.079-0.171L28.013,17.6l-0.038,0.084c-0.076,0.16-0.133,0.175-0.212,0.196
		c-0.096,0.026-0.198,0.057-0.295,0.239c-0.035,0.077-0.011,0.161,0.014,0.258c0.026,0.116,0.057,0.249,0.01,0.349l-0.18,0.38
		c-0.082,0.179-0.611,0.56-1.166,0.281c-0.598-0.301-0.717-0.894-0.57-1.206l0.18-0.382c0.026-0.058,0.07-0.076,0.165-0.103
		c0.096-0.034,0.219-0.079,0.283-0.222c0.066-0.144,0.023-0.291-0.003-0.409c-0.016-0.072-0.037-0.148-0.021-0.189l0.234-0.509
		C26.454,16.292,26.956,15.821,27.567,16.132z"/>
	<path fill="none" stroke="#000000" stroke-width="1.25"  d="M22.83,12.095l0.21-0.443
		c0.385-0.819,1.338-1.153,2.125-0.749l16.142,8.266c0.789,0.405,1.115,1.396,0.731,2.212l-4.19,8.884
		c-0.385,0.82-1.338,1.157-2.124,0.751l-16.145-8.269c-0.788-0.403-1.115-1.393-0.728-2.211l1.652-3.504"/>
	<g>
		<g>
			<rect x="8.972" y="5.726" width="18.122" height="1"/>
		</g>
	</g>
	<g>
		<g>
			<rect x="8.972" y="29.976" width="18.122" height="1"/>
		</g>
	</g>
	<g>
		<g>
			<rect x="8.972" y="9.767" width="11.086" height="1"/>
		</g>
	</g>
	<g>
		<g>
			<rect x="8.972" y="13.809" width="8.81" height="1"/>
		</g>
	</g>
	<g>
		<g>
			<rect x="8.972" y="34.022" width="18.122" height="1"/>
		</g>
	</g>
	<g>
		<g>
			<rect x="8.972" y="17.851" width="7.378" height="1"/>
		</g>
	</g>
	<g>
		<g>
			<rect x="8.872" y="21.892" width="7.346" height="1"/>
		</g>
	</g>
	<g>
		<g>
			<rect x="8.743" y="25.934" width="11.793" height="1"/>
		</g>
	</g>
</g>
<g>
	<polygon class="fillColor" points="28.158,28.655 28.158,40.655 7.158,40.655 7.158,1.655 28.158,1.655 28.158,10.655 29.158,10.655 29.158,0.655 
		6.158,0.655 6.158,41.655 29.158,41.655 29.158,28.655 	"/>
	<path fill="none" class="strokeColor" stroke="#000000" stroke-width="0.5" d="M28.131,20.491c-0.128,0.28-0.456,0.399-0.723,0.261l-4.153-2.092
		c-0.271-0.137-0.384-0.476-0.255-0.756l1.583-3.412c0.132-0.279,0.457-0.398,0.724-0.261l4.154,2.091
		c0.272,0.136,0.385,0.477,0.257,0.756L28.131,20.491z"/>
	<path fill="none" class="strokeColor" stroke="#000000" stroke-width="0.25" d="M27.073,15.852l0.997,0.501l0.124,0.209l1.375,0.691l0.076-0.17
		l-1.321-0.668l-0.126-0.21l-0.787-0.395l0.179-0.381l-0.492-0.247l-0.176,0.381l-0.662-0.334l-0.038,0.013
		c-0.05,0.026-0.127,0.04-0.147,0.039c-0.061-0.042-0.38-0.202-1.243-0.625c-0.139-0.07-0.251-0.127-0.302-0.152l-0.08,0.17
		c0.051,0.025,0.167,0.081,0.303,0.153c0.377,0.191,1.164,0.577,1.226,0.618c0.067,0.046,0.179,0.028,0.276-0.006l0.251,0.127
		c-0.421,0.061-0.714,0.362-0.762,0.464l-0.147,0.323l-1.558-0.787l-0.081,0.169l1.551,0.783l-0.007,0.018
		c-0.046,0.1-0.015,0.209,0.012,0.319c0.027,0.096,0.053,0.192,0.019,0.268c-0.032,0.069-0.095,0.091-0.176,0.119
		c-0.088,0.03-0.182,0.067-0.245,0.159l-1.561-0.787l-0.079,0.171l1.553,0.781l-0.117,0.254c-0.13,0.28-0.092,0.655,0.114,0.976
		l-0.273-0.136c-0.032-0.1-0.09-0.2-0.164-0.23c-0.063-0.02-0.851-0.428-1.227-0.617c-0.138-0.071-0.253-0.128-0.302-0.152
		l-0.078,0.168c0.048,0.025,0.164,0.083,0.302,0.153c0.856,0.441,1.171,0.601,1.243,0.624c0.021,0.021,0.046,0.089,0.065,0.147
		l0.012,0.038l0.662,0.334l-0.22,0.475l0.49,0.248l0.217-0.475l0.786,0.396l0.235-0.029l1.324,0.667l0.078-0.169l-1.363-0.686
		l-0.235,0.027l-0.367-0.185c0.39-0.055,0.693-0.299,0.776-0.477l0.14-0.296l1.476,0.746l0.08-0.17l-1.494-0.755
		c0.033-0.139,0-0.282-0.022-0.387c-0.011-0.046-0.028-0.118-0.026-0.126c0.052-0.112,0.109-0.124,0.182-0.15
		c0.08-0.023,0.189-0.052,0.28-0.214l1.481,0.746l0.079-0.17l-1.637-0.824l-0.037,0.084c-0.076,0.16-0.133,0.175-0.214,0.196
		c-0.095,0.026-0.196,0.058-0.293,0.24c-0.034,0.077-0.012,0.161,0.013,0.257c0.026,0.116,0.057,0.248,0.01,0.35l-0.179,0.38
		c-0.084,0.178-0.611,0.56-1.166,0.28c-0.598-0.301-0.716-0.893-0.571-1.206l0.18-0.382c0.026-0.059,0.072-0.076,0.166-0.103
		c0.097-0.035,0.219-0.079,0.284-0.222c0.066-0.145,0.022-0.291-0.004-0.409c-0.015-0.072-0.037-0.147-0.02-0.189l0.234-0.509
		C25.96,16.012,26.462,15.54,27.073,15.852z"/>
	<path fill="none" class="strokeColor" stroke="#000000" stroke-width="1.25" d="M22.292,11.817l0.21-0.443c0.386-0.819,1.337-1.153,2.126-0.749
		l16.142,8.266c0.787,0.405,1.114,1.395,0.729,2.212l-4.188,8.885c-0.386,0.821-1.337,1.157-2.126,0.75l-16.144-8.27
		c-0.788-0.401-1.115-1.392-0.728-2.21l1.651-3.504"/>
	<g>
		<g>
			<rect class="fillColor" x="8.315" y="5.397" width="18.122" height="1"/>
		</g>
	</g>
	<g>
		<g>
			<rect class="fillColor" x="8.315" y="29.504" width="18.122" height="1"/>
		</g>
	</g>
	<g>
		<g>
			<rect class="fillColor" x="8.315" y="33.522" width="18.122" height="1"/>
		</g>
	</g>
	<g>
		<g>
			<rect class="fillColor" x="8.315" y="9.414" width="11.086" height="1"/>
		</g>
	</g>
	<g>
		<g>
			<rect class="fillColor" x="8.315" y="13.432" width="8.81" height="1"/>
		</g>
	</g>
	<g>
		<g>
			<rect class="fillColor" x="8.315" y="17.45" width="7.378" height="1"/>
		</g>
	</g>
	<g>
		<g>
			<rect class="fillColor" x="8.315" y="21.468" width="7.346" height="1"/>
		</g>
	</g>
	<g>
		<g>
			<rect class="fillColor" x="8.315" y="25.486" width="11.133" height="1"/>
		</g>
	</g>
</g>
</svg>
