<?xml version="1.0" encoding="utf-8"?>
<!-- Generator: Adobe Illustrator 18.0.0, SVG Export Plug-In . SVG Version: 6.00 Build 0)  -->
<!DOCTYPE svg PUBLIC "-//W3C//DTD SVG 1.1//EN" "http://www.w3.org/Graphics/SVG/1.1/DTD/svg11.dtd">
<svg version="1.1" id="Ebene_1" xmlns="http://www.w3.org/2000/svg" xmlns:xlink="http://www.w3.org/1999/xlink" x="0px" y="0px"
	 viewBox="0 0 45 45" enable-background="new 0 0 45 45" xml:space="preserve">
	 <style type="text/css">
			@import "../default/default/svg.css";
	</style>
	 <script type="text/javascript">
         <![CDATA[
             if(window.parent && window.parent.Wincor && window.parent.Wincor.UI && window.parent.Wincor.UI.Content) {
                 let styleRes = window.parent.Wincor.UI.Content.StyleResourceResolver;
                 if(styleRes) {
                 	let style = document.getElementsByTagName("style")[0];
                 	if(style.innerHTML) {
                    	style.innerHTML = style.innerHTML.replace("default/svg.css", styleRes.type() + "svg.css");
                    }
                    else {
                    	style.textContent = style.textContent.replace("default/svg.css", styleRes.type() + "svg.css");
                    }
                    styleRes = null;
                 }
             }
         ]]>
    </script>	
<g class="shadowGroup1">
	<path fill="#010101" d="M22.7,6.3c1.3,0,2.2,1.1,2.2,2.2c0,1.2-1.1,2.2-2.2,2.2c-1.3,0-2.2-1.1-2.2-2.2S21.5,6.3,22.7,6.3
		 M22.7,5.7c-1.6,0-2.8,1.3-2.8,2.8c0,1.6,1.3,2.8,2.8,2.8c1.6,0,2.8-1.3,2.8-2.8S24.3,5.7,22.7,5.7L22.7,5.7z"/>
	<polyline fill="#010101" points="15.9,14.9 15.9,14.1 10.3,14.1 10.3,3.4 34.1,3.4 34.1,7.9 35,7.9 35,2.6 9.4,2.6 9.4,14.9 	"/>
	<line fill="none" x1="16.8" y1="13.7" x2="16.8" y2="13"/>
	<polyline fill="#010101" points="10.3,14.1 10.3,3.4 34.1,3.4 34.1,7.9 35,7.9 35,2.6 9.4,2.6 9.4,14.9 	"/>
	<path fill="#010101" d="M13.7,12.6c0.2-0.2,0.3-0.5,0.3-0.9c0-0.9-0.8-1.5-1.5-1.5c-0.3,0-0.7,0.1-0.9,0.3V6.9
		c0.2,0.1,0.5,0.2,0.8,0.2c0.9,0,1.5-0.8,1.5-1.5c0-0.2-0.1-0.5-0.2-0.8h16.9c-0.2,0.2-0.3,0.5-0.3,0.9c0,0.9,0.8,1.5,1.5,1.5
		c0.3,0,0.7-0.1,0.9-0.3V8h0.9V4H11.1v9.2H16v-0.7"/>
	<path fill="#010101" d="M18.3,14.9h9.5v-0.8h-9.5V14.9z"/>
	<path fill="#010101" d="M18.3,13.3h9.5v-0.7h-9.5V13.3z"/>
	<path fill="#010101" d="M33.4,18.7c-2.6,0-4.8-2.1-4.8-4.8s2.1-4.8,4.8-4.8s4.8,2.1,4.8,4.8C38.2,16.5,36.1,18.7,33.4,18.7z
		 M33.4,9.9c-2.1,0-3.9,1.7-3.9,3.9s1.7,3.9,3.9,3.9s3.9-1.7,3.9-3.9S35.7,9.9,33.4,9.9z"/>
	<path fill="#010101" d="M36.8,21.1c-1.8,0-3.6-1.2-4.5-2.8l0.9-0.4c0.7,1.5,2.1,2.3,3.6,2.3c2.1,0,3.9-1.7,3.9-3.9
		c0-2-1.5-3.6-3.3-3.8l0.2-0.9c2.3,0.3,4.1,2.3,4.1,4.7C41.7,19,39.5,21.1,36.8,21.1z"/>
	<circle fill="#010101" cx="33.4" cy="13.9" r="2.2"/>
	<path fill="#010101" d="M35,17.8c-0.9,0,1.3,1,2.1,1c1.5,0,2.6-1.2,2.6-2.6c0-1.2-0.8-2.1-1.7-2.4C37.8,15.9,36.8,17.7,35,17.8z"/>
	<path fill="#010101" d="M22.7,29.7c1.3,0,2.2,1.1,2.2,2.2c0,1.2-1.1,2.2-2.2,2.2c-1.3,0-2.2-1.1-2.2-2.2
		C20.4,30.8,21.5,29.7,22.7,29.7 M22.7,29c-1.6,0-2.8,1.3-2.8,2.8c0,1.6,1.3,2.8,2.8,2.8s2.8-1.3,2.8-2.8S24.3,29,22.7,29L22.7,29z"
		/>
	<path fill="#010101" d="M33.4,42.1c-2.6,0-4.8-2.1-4.8-4.8s2.1-4.8,4.8-4.8c2.6,0,4.8,2.1,4.8,4.8S36.1,42.1,33.4,42.1z M33.4,33.3
		c-2.1,0-3.9,1.7-3.9,3.9s1.7,3.9,3.9,3.9s3.9-1.7,3.9-3.9C37.3,35,35.7,33.3,33.4,33.3z"/>
	<path fill="#010101" d="M36.8,44.6c-1.8,0-3.6-1.2-4.5-2.8l0.9-0.4c0.7,1.5,2.1,2.3,3.6,2.3c2.1,0,3.9-1.7,3.9-3.9
		c0-2-1.5-3.6-3.3-3.8l0.2-1c2.3,0.3,4.1,2.3,4.1,4.7C41.7,42.4,39.5,44.6,36.8,44.6z"/>
	<circle fill="#010101" cx="33.4" cy="37.3" r="2.2"/>
	<path fill="#010101" d="M35,41.2c-0.9,0,1.3,1,2.1,1c1.5,0,2.6-1.2,2.6-2.6c0-1.2-0.8-2.1-1.7-2.4C37.8,39.3,36.8,41.2,35,41.2z"/>
	<polyline fill="none" stroke="#010101" stroke-miterlimit="10" points="13,17.8 17,21.9 21.1,17.8 	"/>
	<polyline fill="none" stroke="#010101" stroke-miterlimit="10" points="31.6,23 27.7,18.9 23.5,23.1 	"/>
	<rect x="27.1" y="19.5" fill="#010101" width="1" height="8.9"/>
	<rect x="16.5" y="12.6" fill="#010101" width="1" height="8.9"/>
	<g>
		<polygon fill="#010101" points="10.3,26.7 26.5,26.7 26.5,26 9.4,26 9.4,38.3 27.6,38.3 27.6,37.5 10.3,37.5 		"/>
		<polygon fill="#010101" points="28.6,26 28.6,26.7 34.1,26.7 34.1,31.4 35,31.4 35,26 		"/>
	</g>
	<g>
		<path fill="#010101" d="M11,27.5v9.2h16.5V36H13.7c0.2-0.2,0.3-0.5,0.3-0.9c0-0.9-0.8-1.5-1.5-1.5c-0.3,0-0.7,0.1-0.9,0.3v-3.7
			c0.2,0.1,0.5,0.2,0.8,0.2c0.9,0,1.5-0.8,1.5-1.5c0-0.2-0.1-0.5-0.2-0.8h12.7v-0.9L11,27.5z"/>
		<path fill="#010101" d="M30.6,28.4c-0.2,0.2-0.3,0.5-0.3,0.9c0,0.9,0.8,1.5,1.5,1.5c0.3,0,0.7-0.1,0.9-0.3v1.2h0.9v-4h-4.8v0.9
			L30.6,28.4z"/>
		<polygon fill="#010101" points="28.8,26 28.6,26 28.6,26.7 28.8,26.7 34.1,26.7 34.1,31.4 35,31.4 35,26 		"/>
		<polygon fill="#010101" points="9.4,26 9.4,38.3 10.3,37.5 10.3,26.7 26.5,26.7 26.5,26 		"/>
	</g>
</g>
<g class="shadowGroup2">
	<path fill="#010101" d="M21.8,5.3c1.3,0,2.2,1.1,2.2,2.2c0,1.2-1.1,2.2-2.2,2.2c-1.3,0-2.2-1.1-2.2-2.2S20.6,5.3,21.8,5.3
		 M21.8,4.7C20.2,4.7,19,6,19,7.5c0,1.6,1.3,2.8,2.8,2.8c1.6,0,2.8-1.3,2.8-2.8C24.6,6,23.4,4.7,21.8,4.7L21.8,4.7z"/>
	<polyline fill="#010101" points="15,13.9 15,13.2 9.4,13.2 9.4,2.4 33.2,2.4 33.2,7 34.1,7 34.1,1.6 8.5,1.6 8.5,13.9 	"/>
	<line fill="none" x1="15.9" y1="12.7" x2="15.9" y2="12"/>
	<polyline fill="#010101" points="9.4,13.2 9.4,2.4 33.2,2.4 33.2,7 34.1,7 34.1,1.6 8.5,1.6 8.5,13.9 	"/>
	<path fill="#010101" d="M12.9,11.7c0.2-0.2,0.3-0.5,0.3-0.9c0-0.9-0.8-1.5-1.5-1.5c-0.3,0-0.7,0.1-0.9,0.3V5.9
		C11,6,11.4,6.1,11.6,6.1c0.9,0,1.5-0.8,1.5-1.5c0-0.2-0.1-0.5-0.2-0.8h16.9c-0.2,0.2-0.3,0.5-0.3,0.9c0,0.9,0.8,1.5,1.5,1.5
		c0.3,0,0.7-0.1,0.9-0.3v1.2h0.9v-4H10.3v9.2h4.9v-0.7"/>
	<path fill="#010101" d="M17.4,13.9h9.5v-0.8h-9.5V13.9z"/>
	<path fill="#010101" d="M17.4,12.3h9.5v-0.7h-9.5V12.3z"/>
	<path fill="#010101" d="M32.6,17.7c-2.6,0-4.8-2.1-4.8-4.8s2.1-4.8,4.8-4.8s4.8,2.1,4.8,4.8C37.3,15.6,35.3,17.7,32.6,17.7z
		 M32.6,8.9c-2.1,0-3.9,1.7-3.9,3.9s1.7,3.9,3.9,3.9s3.9-1.7,3.9-3.9S34.8,8.9,32.6,8.9z"/>
	<path fill="#010101" d="M35.9,20.1c-1.8,0-3.6-1.2-4.5-2.8l0.9-0.4c0.7,1.5,2.1,2.3,3.6,2.3c2.1,0,3.9-1.7,3.9-3.9
		c0-2-1.5-3.6-3.3-3.8l0.2-0.9c2.3,0.3,4.1,2.3,4.1,4.7C40.8,18.1,38.7,20.1,35.9,20.1z"/>
	<circle fill="#010101" cx="32.6" cy="13" r="2.2"/>
	<path fill="#010101" d="M34.1,16.9c-0.9,0,1.3,1,2.1,1c1.5,0,2.6-1.2,2.6-2.6c0-1.2-0.8-2.1-1.7-2.4C36.9,14.9,35.9,16.8,34.1,16.9
		z"/>
	<path fill="#010101" d="M21.8,28.7c1.3,0,2.2,1.1,2.2,2.2c0,1.2-1.1,2.2-2.2,2.2c-1.3,0-2.2-1.1-2.2-2.2
		C19.5,29.8,20.6,28.7,21.8,28.7 M21.8,28c-1.6,0-2.8,1.3-2.8,2.8c0,1.6,1.3,2.8,2.8,2.8s2.8-1.3,2.8-2.8S23.4,28,21.8,28L21.8,28z"
		/>
	
	<path fill="#010101" d="M32.6,41.1c-2.6,0-4.8-2.1-4.8-4.8s2.1-4.8,4.8-4.8c2.6,0,4.8,2.1,4.8,4.8S35.3,41.1,32.6,41.1z M32.6,32.3
		c-2.1,0-3.9,1.7-3.9,3.9s1.7,3.9,3.9,3.9s3.9-1.7,3.9-3.9S34.8,32.3,32.6,32.3z"/>
	<path fill="#010101" d="M35.9,43.6c-1.8,0-3.6-1.2-4.5-2.8l0.9-0.4c0.7,1.5,2.1,2.3,3.6,2.3c2.1,0,3.9-1.7,3.9-3.9
		c0-2-1.5-3.6-3.3-3.8l0.2-1c2.3,0.3,4.1,2.3,4.1,4.7C40.8,41.4,38.7,43.6,35.9,43.6z"/>
	<circle fill="#010101" cx="32.6" cy="36.3" r="2.2"/>
	<path fill="#010101" d="M34.1,40.2c-0.9,0,1.3,1,2.1,1c1.5,0,2.6-1.2,2.6-2.6c0-1.2-0.8-2.1-1.7-2.4C36.9,38.4,35.9,40.2,34.1,40.2
		z"/>
	<polyline fill="none" stroke="#010101" stroke-miterlimit="10" points="12.1,16.8 16.2,21 20.2,16.8 	"/>
	<polyline fill="none" stroke="#010101" stroke-miterlimit="10" points="30.7,22 26.8,17.9 22.7,22.1 	"/>
	<rect x="26.2" y="18.5" fill="#010101" width="1" height="8.9"/>
	<rect x="15.7" y="11.7" fill="#010101" width="1" height="8.9"/>
	<g>
		<polygon fill="#010101" points="9.4,25.8 25.6,25.8 25.6,25 8.5,25 8.5,37.3 26.7,37.3 26.7,36.5 9.4,36.5 		"/>
		<polygon fill="#010101" points="27.8,25 27.8,25.8 33.2,25.8 33.2,30.4 34.1,30.4 34.1,25 		"/>
	</g>
	<g>
		<path fill="#010101" d="M10.2,26.5v9.2h16.5V35H12.9c0.2-0.2,0.3-0.5,0.3-0.9c0-0.9-0.8-1.5-1.5-1.5c-0.3,0-0.7,0.1-0.9,0.3v-3.7
			c0.2,0.1,0.5,0.2,0.8,0.2c0.9,0,1.5-0.8,1.5-1.5c0-0.2-0.1-0.5-0.2-0.8h12.7v-0.9L10.2,26.5z"/>
		<path fill="#010101" d="M29.7,27.4c-0.2,0.2-0.3,0.5-0.3,0.9c0,0.9,0.8,1.5,1.5,1.5c0.3,0,0.7-0.1,0.9-0.3v1.2h0.9v-4h-4.8v0.9
			L29.7,27.4z"/>
		<polygon fill="#010101" points="27.9,25 27.8,25 27.8,25.8 27.9,25.8 33.2,25.8 33.2,30.4 34.1,30.4 34.1,25 		"/>
		<polygon fill="#010101" points="8.5,25 8.5,37.3 9.4,36.5 9.4,25.8 25.6,25.8 25.6,25 		"/>
	</g>
</g>
<g class="shadowGroup3">
	<path fill="#010101" d="M20.9,4.5c1.3,0,2.2,1.1,2.2,2.2c0,1.2-1.1,2.2-2.2,2.2c-1.3,0-2.2-1.1-2.2-2.2S19.7,4.5,20.9,4.5
		 M20.9,3.9c-1.6,0-2.8,1.3-2.8,2.8c0,1.6,1.3,2.8,2.8,2.8c1.6,0,2.8-1.3,2.8-2.8C23.7,5.2,22.6,3.9,20.9,3.9L20.9,3.9z"/>
	<polyline fill="#010101" points="14.2,13.1 14.2,12.4 8.5,12.4 8.5,1.6 32.3,1.6 32.3,6.2 33.2,6.2 33.2,0.8 7.7,0.8 7.7,13.1 	"/>
	<line fill="none" x1="15" y1="11.9" x2="15" y2="11.2"/>
	<polyline fill="#010101" points="8.5,12.4 8.5,1.6 32.3,1.6 32.3,6.2 33.2,6.2 33.2,0.8 7.7,0.8 7.7,13.1 	"/>
	<path fill="#010101" d="M12,10.9c0.2-0.2,0.3-0.5,0.3-0.9c0-0.9-0.8-1.5-1.5-1.5c-0.3,0-0.7,0.1-0.9,0.3V5.1
		c0.2,0.1,0.5,0.2,0.8,0.2c0.9,0,1.5-0.8,1.5-1.5c0-0.2-0.1-0.5-0.2-0.8h16.9c-0.2,0.2-0.3,0.5-0.3,0.9c0,0.9,0.8,1.5,1.5,1.5
		c0.3,0,0.7-0.1,0.9-0.3v1.2h0.9v-4H9.4v9.2h4.9v-0.7"/>
	<path fill="#010101" d="M16.6,13.1H26v-0.8h-9.5v0.8H16.6z"/>
	<path fill="#010101" d="M16.6,11.5H26v-0.7h-9.5v0.7H16.6z"/>
	<path fill="#010101" d="M31.7,16.9c-2.6,0-4.8-2.1-4.8-4.8s2.1-4.8,4.8-4.8s4.8,2.1,4.8,4.8S34.4,16.9,31.7,16.9z M31.7,8.1
		c-2.1,0-3.9,1.7-3.9,3.9s1.7,3.9,3.9,3.9s3.9-1.7,3.9-3.9S34,8.1,31.7,8.1z"/>
	<path fill="#010101" d="M35.1,19.3c-1.8,0-3.6-1.2-4.5-2.8l0.9-0.4c0.7,1.5,2.1,2.3,3.6,2.3c2.1,0,3.9-1.7,3.9-3.9
		c0-2-1.5-3.6-3.3-3.8l0.2-0.9c2.3,0.3,4.1,2.3,4.1,4.7C40,17.3,37.8,19.3,35.1,19.3z"/>
	<circle fill="#010101" cx="31.7" cy="12.2" r="2.2"/>
	<path fill="#010101" d="M33.2,16.1c-0.9,0,1.3,1,2.1,1c1.5,0,2.6-1.2,2.6-2.6c0-1.2-0.8-2.1-1.7-2.4C36,14.1,35.1,16,33.2,16.1z"/>
	<path fill="#010101" d="M20.9,27.9c1.3,0,2.2,1.1,2.2,2.2c0,1.2-1.1,2.2-2.2,2.2c-1.3,0-2.2-1.1-2.2-2.2
		C18.6,29,19.7,27.9,20.9,27.9 M20.9,27.2c-1.6,0-2.8,1.3-2.8,2.8c0,1.6,1.3,2.8,2.8,2.8s2.8-1.3,2.8-2.8
		C23.7,28.6,22.6,27.2,20.9,27.2L20.9,27.2z"/>
	
	<path fill="#010101" d="M31.7,40.3c-2.6,0-4.8-2.1-4.8-4.8s2.1-4.8,4.8-4.8c2.6,0,4.8,2.1,4.8,4.8S34.4,40.3,31.7,40.3z M31.7,31.5
		c-2.1,0-3.9,1.7-3.9,3.9s1.7,3.9,3.9,3.9s3.9-1.7,3.9-3.9C35.6,33.2,34,31.5,31.7,31.5z"/>
	<path fill="#010101" d="M35.1,42.8c-1.8,0-3.6-1.2-4.5-2.8l0.9-0.4c0.7,1.5,2.1,2.3,3.6,2.3c2.1,0,3.9-1.7,3.9-3.9
		c0-2-1.5-3.6-3.3-3.8l0.2-1c2.3,0.3,4.1,2.3,4.1,4.7C40,40.6,37.8,42.8,35.1,42.8z"/>
	<circle fill="#010101" cx="31.7" cy="35.5" r="2.2"/>
	<path fill="#010101" d="M33.2,39.4c-0.9,0,1.3,1,2.1,1c1.5,0,2.6-1.2,2.6-2.6c0-1.2-0.8-2.1-1.7-2.4C36,37.6,35.1,39.4,33.2,39.4z"
		/>
	<polyline fill="none" stroke="#010101" stroke-miterlimit="10" points="11.3,16 15.3,20.2 19.3,16 	"/>
	<polyline fill="none" stroke="#010101" stroke-miterlimit="10" points="29.9,21.2 25.9,17.1 21.8,21.3 	"/>
	<rect x="25.3" y="17.7" fill="#010101" width="1" height="8.9"/>
	<rect x="14.8" y="10.9" fill="#010101" width="1" height="8.9"/>
	<g>
		<polygon fill="#010101" points="8.5,25 24.7,25 24.7,24.2 7.7,24.2 7.7,36.5 25.8,36.5 25.8,35.7 8.5,35.7 		"/>
		<polygon fill="#010101" points="26.9,24.2 26.9,25 32.3,25 32.3,29.6 33.2,29.6 33.2,24.2 		"/>
	</g>
	<g>
		<path fill="#010101" d="M9.3,25.7V35h16.5v-0.7H12c0.2-0.2,0.3-0.5,0.3-0.9c0-0.9-0.8-1.5-1.5-1.5c-0.3,0-0.7,0.1-0.9,0.3v-3.7
			c0.2,0.1,0.5,0.2,0.8,0.2c0.9,0,1.5-0.8,1.5-1.5c0-0.2-0.1-0.5-0.2-0.8h12.7v-0.9L9.3,25.7z"/>
		<path fill="#010101" d="M28.9,26.6c-0.2,0.2-0.3,0.5-0.3,0.9c0,0.9,0.8,1.5,1.5,1.5c0.3,0,0.7-0.1,0.9-0.3v1.2h0.9v-4H27v0.9
			L28.9,26.6z"/>
		<polygon fill="#010101" points="27,24.2 26.9,24.2 26.9,25 27,25 32.3,25 32.3,29.6 33.2,29.6 33.2,24.2 		"/>
		<polygon fill="#010101" points="7.7,24.2 7.7,36.5 8.5,35.7 8.5,25 24.7,25 24.7,24.2 		"/>
	</g>
</g>
<g>
	<path class="fillColor" d="M20.1,3.9c1.3,0,2.2,1.1,2.2,2.2c0,1.2-1.1,2.2-2.2,2.2c-1.3,0-2.2-1.1-2.2-2.2S18.9,3.9,20.1,3.9 M20.1,3.3
		c-1.6,0-2.8,1.3-2.8,2.8c0,1.6,1.3,2.8,2.8,2.8c1.6,0,2.8-1.3,2.8-2.8S21.7,3.3,20.1,3.3L20.1,3.3z"/>
	<polyline class="fillColor" points="13.3,12.5 13.3,11.8 7.7,11.8 7.7,1 31.5,1 31.5,5.6 32.3,5.6 32.3,0.2 6.8,0.2 6.8,12.5 	"/>
	<line class="strokeColor" fill="none" x1="14.1" y1="11.3" x2="14.1" y2="10.6"/>
	<polyline class="fillColor" points="7.7,11.8 7.7,1 31.5,1 31.5,5.6 32.3,5.6 32.3,0.2 6.8,0.2 6.8,12.5 	"/>
	<path class="fillColor" d="M11.1,10.2c0.2-0.2,0.3-0.5,0.3-0.9c0-0.9-0.8-1.5-1.5-1.5C9.6,7.8,9.3,8,9.1,8.2V4.5c0.2,0.1,0.5,0.2,0.8,0.2
		c0.9,0,1.5-0.8,1.5-1.5c0-0.2-0.1-0.5-0.2-0.8H28c-0.2,0.2-0.3,0.5-0.3,0.9c0,0.9,0.8,1.5,1.5,1.5c0.3,0,0.7-0.1,0.9-0.3v1.2H31v-4
		H8.5v9.2h4.9v-0.7"/>
	<path class="fillColor" d="M15.7,12.5h9.5v-0.8h-9.5C15.7,11.7,15.7,12.5,15.7,12.5z"/>
	<path class="fillColor" d="M15.7,10.9h9.5v-0.7h-9.5C15.7,10.2,15.7,10.9,15.7,10.9z"/>
	<path class="fillColor" d="M30.8,16.3c-2.6,0-4.8-2.1-4.8-4.8s2.1-4.8,4.8-4.8s4.8,2.1,4.8,4.8S33.5,16.3,30.8,16.3z M30.8,7.5
		c-2.1,0-3.9,1.7-3.9,3.9s1.7,3.9,3.9,3.9s3.9-1.7,3.9-3.9S33.1,7.5,30.8,7.5z"/>
	<path class="fillColor" d="M34.2,18.7c-1.8,0-3.6-1.2-4.5-2.8l0.9-0.4c0.7,1.5,2.1,2.3,3.6,2.3c2.1,0,3.9-1.7,3.9-3.9c0-2-1.5-3.6-3.3-3.8L35,9.2
		c2.3,0.3,4.1,2.3,4.1,4.7C39.1,16.7,36.9,18.7,34.2,18.7z"/>
	<circle class="fillColor" cx="30.8" cy="11.5" r="2.2"/>
	<path class="fillColor" d="M32.3,15.5c-0.9,0,1.3,1,2.1,1c1.5,0,2.6-1.2,2.6-2.6c0-1.2-0.8-2.1-1.7-2.4C35.2,13.5,34.2,15.4,32.3,15.5z"/>
	<path class="fillColor" d="M20.1,27.3c1.3,0,2.2,1.1,2.2,2.2c0,1.2-1.1,2.2-2.2,2.2c-1.3,0-2.2-1.1-2.2-2.2C17.8,28.4,18.9,27.3,20.1,27.3 M20.1,26.6
		c-1.6,0-2.8,1.3-2.8,2.8c0,1.6,1.3,2.8,2.8,2.8s2.8-1.3,2.8-2.8C22.9,27.9,21.7,26.6,20.1,26.6L20.1,26.6z"/>
	
	<path class="fillColor" d="M30.8,39.7c-2.6,0-4.8-2.1-4.8-4.8s2.1-4.8,4.8-4.8c2.6,0,4.8,2.1,4.8,4.8S33.5,39.7,30.8,39.7z M30.8,30.9
		c-2.1,0-3.9,1.7-3.9,3.9s1.7,3.9,3.9,3.9s3.9-1.7,3.9-3.9S33.1,30.9,30.8,30.9z"/>
	<path class="fillColor" d="M34.2,42.2c-1.8,0-3.6-1.2-4.5-2.8l0.9-0.4c0.7,1.5,2.1,2.3,3.6,2.3c2.1,0,3.9-1.7,3.9-3.9c0-2-1.5-3.6-3.3-3.8l0.2-1
		c2.3,0.3,4.1,2.3,4.1,4.7C39.1,40,36.9,42.2,34.2,42.2z"/>
	<circle class="fillColor" cx="30.8" cy="34.9" r="2.2"/>
	<path class="fillColor" d="M32.3,38.8c-0.9,0,1.3,1,2.1,1c1.5,0,2.6-1.2,2.6-2.6c0-1.2-0.8-2.1-1.7-2.4C35.2,37,34.2,38.8,32.3,38.8z"/>
	<polyline class="strokeColor" fill="none" stroke="#010101" stroke-miterlimit="10" points="10.4,15.4 14.4,19.6 18.5,15.4 	"/>
	<polyline class="strokeColor" fill="none" stroke="#010101" stroke-miterlimit="10" points="29,20.6 25.1,16.5 20.9,20.7 	"/>
	<rect class="fillColor" x="24.5" y="17.1" fill="#010101" width="1" height="8.9"/>
	<rect class="fillColor" x="13.9" y="10.2" fill="#010101" width="1" height="8.9"/>
	<g>
		<polygon class="fillColor" points="7.7,24.3 23.9,24.3 23.9,23.6 6.8,23.6 6.8,35.9 24.9,35.9 24.9,35.1 7.7,35.1 		"/>
		<polygon class="fillColor" points="26,23.6 26,24.3 31.5,24.3 31.5,29 32.3,29 32.3,23.6 		"/>
	</g>
	<g>
		<path class="fillColor" d="M8.4,25.1v9.2h16.5v-0.7H11.1c0.2-0.2,0.3-0.5,0.3-0.9c0-0.9-0.8-1.5-1.5-1.5c-0.3,0-0.7,0.1-0.9,0.3v-3.7
			C9.2,27.9,9.5,28,9.8,28c0.9,0,1.5-0.8,1.5-1.5c0-0.2-0.1-0.5-0.2-0.8h12.7V25L8.4,25.1z"/>
		<path class="fillColor" d="M28,26c-0.2,0.2-0.3,0.5-0.3,0.9c0,0.9,0.8,1.5,1.5,1.5c0.3,0,0.7-0.1,0.9-0.3v1.2H31v-4h-4.8v0.9L28,26z"/>
		<polygon class="fillColor" points="26.1,23.6 26,23.6 26,24.3 26.1,24.3 31.5,24.3 31.5,29 32.3,29 32.3,23.6 		"/>
		<polygon class="fillColor" points="6.8,23.6 6.8,35.9 7.7,35.1 7.7,24.3 23.9,24.3 23.9,23.6 		"/>
	</g>
</g>
</svg>
