<?xml version="1.0" encoding="utf-8"?>
<!-- Generator: Adobe Illustrator 18.0.0, SVG Export Plug-In . SVG Version: 6.00 Build 0)  -->
<!DOCTYPE svg PUBLIC "-//W3C//DTD SVG 1.1//EN" "http://www.w3.org/Graphics/SVG/1.1/DTD/svg11.dtd">
<svg version="1.1" id="Ebene_1" xmlns="http://www.w3.org/2000/svg" xmlns:xlink="http://www.w3.org/1999/xlink" x="0px" y="0px"
	 viewBox="0 0 45 45" enable-background="new 0 0 45 45" xml:space="preserve">
	 <style type="text/css">
			@import "../default/default/svg.css";
	</style>
	 <script type="text/javascript">
         <![CDATA[
             if(window.parent && window.parent.Wincor && window.parent.Wincor.UI && window.parent.Wincor.UI.Content) {
                 let styleRes = window.parent.Wincor.UI.Content.StyleResourceResolver;
                 if(styleRes) {
                 	let style = document.getElementsByTagName("style")[0];
                 	if(style.innerHTML) {
                    	style.innerHTML = style.innerHTML.replace("default/svg.css", styleRes.type() + "svg.css");
                    }
                    else {
                    	style.textContent = style.textContent.replace("default/svg.css", styleRes.type() + "svg.css");
                    }
                    styleRes = null;
                 }
             }
         ]]>
    </script>	
<g class="shadowGroup1">
	<path d="M19,36.5c0,2,1.5,3.7,3.5,3.7c1.9,0,3.5-1.6,3.5-3.7s-1.5-3.7-3.5-3.7C20.8,32.8,19,34.4,19,36.5z M25.3,36.5
		c0,1.6-1.2,2.8-2.7,2.8s-2.7-1.3-2.7-2.8s1.2-2.8,2.7-2.8C24.1,33.6,25.3,34.9,25.3,36.5z"/>
	<path d="M9.1,30.4v12.2h15.5v-0.8H12.4c0.2-0.3,0.3-0.7,0.3-1.1c0-1.1-0.8-1.9-1.9-1.9c-0.4,0-0.7,0.2-1.1,0.3v-5.3
		c0.3,0.2,0.7,0.3,1.1,0.3c1.1,0,1.9-0.8,1.9-1.9c0-0.4-0.2-0.7-0.3-1.1h19.7c-0.2,0.3-0.3,0.7-0.3,1.1c0,1.1,0.8,1.9,1.8,1.9
		c0.6,0,1.1-0.3,1.5-0.8v6.3c-0.3-0.5-0.9-0.8-1.5-0.8c-1,0-1.8,0.8-1.8,1.9c0,0.4,0.1,0.7,0.3,1.1h-8.5v0.8h12.2V30.4H9.1z"/>
	<polygon points="7.4,28.7 7.4,44.2 24.5,44.2 24.5,43.4 8.3,43.4 8.3,29.5 36.6,29.5 36.6,43.4 23.6,43.4 23.6,44.2 37.5,44.2 
		37.5,28.7 	"/>
	<path d="M28.8,21.4L23,26.3V13.5h-1l0,12.8l-6-4.9l-0.7,0.8l7.2,6.1l6.8-6.1L28.8,21.4z"/>
	<rect x="10" y="8.5" width="25.1" height="0.8"/>
	<rect x="10" y="11" width="25.1" height="0.8"/>
	<rect x="10" y="5.2" width="5.7" height="0.8"/>
	<rect x="29.4" y="5.2" width="5.7" height="0.8"/>
	<rect x="26.2" y="15.1" width="8.9" height="0.8"/>
	<polygon points="7.6,2.7 7.6,18.4 21.3,18.4 21.3,17.6 8.4,17.6 8.4,3.6 36.7,3.6 36.7,17.6 23.8,17.6 23.8,18.4 37.5,18.4 
		37.5,2.7 	"/>
</g>
<g class="shadowGroup2">
	<path d="M18.3,35.9c0,2,1.5,3.7,3.5,3.7c1.9,0,3.5-1.6,3.5-3.7s-1.5-3.7-3.5-3.7C20,32.2,18.3,33.8,18.3,35.9z M24.5,35.9
		c0,1.6-1.2,2.8-2.7,2.8s-2.7-1.3-2.7-2.8s1.2-2.8,2.7-2.8C23.4,33,24.5,34.3,24.5,35.9z"/>
	<path d="M8.3,29.8V42h15.5v-0.8H11.7c0.2-0.3,0.3-0.7,0.3-1.1c0-1.1-0.8-1.9-1.9-1.9c-0.4,0-0.7,0.2-1.1,0.3v-5.3
		c0.3,0.2,0.7,0.3,1.1,0.3c1.1,0,1.9-0.8,1.9-1.9c0-0.4-0.2-0.7-0.3-1.1h19.7c-0.2,0.3-0.3,0.7-0.3,1.1c0,1.1,0.8,1.9,1.8,1.9
		c0.6,0,1.1-0.3,1.5-0.8V39c-0.3-0.5-0.9-0.8-1.5-0.8c-1,0-1.8,0.8-1.8,1.9c0,0.4,0.1,0.7,0.3,1.1h-8.5V42h12.2V29.8H8.3z"/>
	<polygon points="6.7,28.1 6.7,43.6 23.8,43.6 23.8,42.8 7.5,42.8 7.5,28.9 35.9,28.9 35.9,42.8 22.9,42.8 22.9,43.6 36.7,43.6 
		36.7,28.1 	"/>
	<path d="M28,20.8l-5.7,4.9V12.8h-1l0,12.8l-6-4.9l-0.7,0.8l7.2,6.1l6.8-6.1L28,20.8z"/>
	<rect x="9.2" y="7.9" width="25.1" height="0.8"/>
	<rect x="9.2" y="10.4" width="25.1" height="0.8"/>
	<rect x="9.2" y="4.6" width="5.7" height="0.8"/>
	<rect x="28.7" y="4.6" width="5.7" height="0.8"/>
	<rect x="25.4" y="14.5" width="8.9" height="0.8"/>
	<polygon points="6.8,2.1 6.8,17.8 20.5,17.8 20.5,17 7.6,17 7.6,2.9 36,2.9 36,17 23,17 23,17.8 36.8,17.8 36.8,2.1 	"/>
</g>
<g class="shadowGroup3">
	<path d="M17.6,35.3c0,2,1.5,3.7,3.5,3.7c1.9,0,3.5-1.6,3.5-3.7s-1.5-3.7-3.5-3.7C19.3,31.6,17.6,33.2,17.6,35.3z M23.8,35.3
		c0,1.6-1.2,2.8-2.7,2.8s-2.7-1.3-2.7-2.8s1.2-2.8,2.7-2.8C22.7,32.4,23.8,33.7,23.8,35.3z"/>
	<path d="M7.6,29.2v12.2h15.5v-0.8H11c0.2-0.3,0.3-0.7,0.3-1.1c0-1.1-0.8-1.9-1.9-1.9c-0.4,0-0.7,0.2-1.1,0.3v-5.3
		c0.3,0.2,0.7,0.3,1.1,0.3c1.1,0,1.9-0.8,1.9-1.9c0-0.4-0.2-0.7-0.3-1.1h19.7c-0.2,0.3-0.3,0.7-0.3,1.1c0,1.1,0.8,1.9,1.8,1.9
		c0.6,0,1.1-0.3,1.5-0.8v6.3c-0.3-0.5-0.9-0.8-1.5-0.8c-1,0-1.8,0.8-1.8,1.9c0,0.4,0.1,0.7,0.3,1.1h-8.5v0.8h12.2V29.2H7.6z"/>
	<polygon points="6,27.5 6,43 23.1,43 23.1,42.2 6.8,42.2 6.8,28.3 35.2,28.3 35.2,42.2 22.2,42.2 22.2,43 36,43 36,27.5 	"/>
	<path d="M27.3,20.1L21.6,25V12.2h-1V25l-6-4.9l-0.7,0.8l7.2,6.1l6.8-6.1L27.3,20.1z"/>
	<rect x="8.6" y="7.2" width="25.1" height="0.8"/>
	<rect x="8.6" y="9.7" width="25.1" height="0.8"/>
	<rect x="8.6" y="3.9" width="5.7" height="0.8"/>
	<rect x="28" y="3.9" width="5.7" height="0.8"/>
	<rect x="24.8" y="13.8" width="8.9" height="0.8"/>
	<polygon points="6.1,1.5 6.1,17.2 19.9,17.2 19.9,16.3 6.9,16.3 6.9,2.3 35.3,2.3 35.3,16.3 22.3,16.3 22.3,17.2 36.1,17.2 
		36.1,1.5 	"/>
</g>
<g>
	<path class="fillColor" d="M17,34.7c0,2,1.5,3.7,3.5,3.7c1.9,0,3.5-1.6,3.5-3.7S22.5,31,20.5,31C18.7,31,17,32.6,17,34.7z M23.2,34.7
		c0,1.6-1.2,2.8-2.7,2.8s-2.7-1.3-2.7-2.8s1.2-2.8,2.7-2.8C22.1,31.8,23.2,33.1,23.2,34.7z"/>
	<path class="fillColor" d="M7,28.6v12.2h15.5V40H10.4c0.2-0.3,0.3-0.7,0.3-1.1c0-1.1-0.8-1.9-1.9-1.9c-0.4,0-0.7,0.2-1.1,0.3V32
		c0.3,0.2,0.7,0.3,1.1,0.3c1.1,0,1.9-0.8,1.9-1.9c0-0.4-0.2-0.7-0.3-1.1h19.7c-0.2,0.3-0.3,0.7-0.3,1.1c0,1.1,0.8,1.9,1.8,1.9
		c0.6,0,1.1-0.3,1.5-0.8v6.3c-0.3-0.5-0.9-0.8-1.5-0.8c-1,0-1.8,0.8-1.8,1.9c0,0.4,0.1,0.7,0.3,1.1h-8.5v0.8h12.2V28.6H7z"/>
	<polygon class="fillColor" points="5.4,26.9 5.4,42.4 22.5,42.4 22.5,41.6 6.2,41.6 6.2,27.7 34.6,27.7 34.6,41.6 21.6,41.6 21.6,42.4 35.4,42.4 
		35.4,26.9 	"/>
	<path class="fillColor" d="M26.7,19.6L21,24.5V11.6h-1v12.8l-6-4.9l-0.7,0.8l7.2,6.1l6.8-6.1L26.7,19.6z"/>
	<rect class="fillColor" x="7.9" y="6.7" width="25.1" height="0.8"/>
	<rect class="fillColor" x="7.9" y="9.2" width="25.1" height="0.8"/>
	<rect class="fillColor" x="7.9" y="3.4" width="5.7" height="0.8"/>
	<rect class="fillColor" x="27.4" y="3.4" width="5.7" height="0.8"/>
	<rect class="fillColor" x="24.1" y="13.3" width="8.9" height="0.8"/>
	<polygon class="fillColor" points="5.5,0.9 5.5,16.6 19.3,16.6 19.3,15.8 6.3,15.8 6.3,1.7 34.7,1.7 34.7,15.8 21.7,15.8 21.7,16.6 35.5,16.6 
		35.5,0.9 	"/>
</g>
</svg>
