<?xml version="1.0" encoding="utf-8"?>
<!-- Generator: Adobe Illustrator 18.0.0, SVG Export Plug-In . SVG Version: 6.00 Build 0)  -->
<!DOCTYPE svg PUBLIC "-//W3C//DTD SVG 1.1//EN" "http://www.w3.org/Graphics/SVG/1.1/DTD/svg11.dtd">
<svg version="1.1" id="Calque_1" xmlns="http://www.w3.org/2000/svg" xmlns:xlink="http://www.w3.org/1999/xlink" x="0px" y="0px"
	 viewBox="0 0 45 45" enable-background="new 0 0 45 45" xml:space="preserve">
	 
	 <style type="text/css">
			@import "../default/default/svg.css";
	</style>
	 <script type="text/javascript">
         <![CDATA[
             if(window.parent && window.parent.Wincor && window.parent.Wincor.UI && window.parent.Wincor.UI.Content) {
                 let styleRes = window.parent.Wincor.UI.Content.StyleResourceResolver;
                 if(styleRes) {
                 	let style = document.getElementsByTagName("style")[0];
                   	style.innerHTML = style.innerHTML.replace("default/svg.css", styleRes.type() + "svg.css");
                    styleRes = null;
                 }
             }
         ]]>
    </script>
	
	
<g class="shadowGroup3">
	<rect x="4.907" y="12.42" fill="none" stroke="#000000" width="36.654" height="19.794"/>
	<line fill="none" stroke="#000000" x1="7.21" y1="15.641" x2="13.913" y2="15.641"/>
	<line fill="none" stroke="#000000" x1="32.242" y1="15.641" x2="38.945" y2="15.641"/>
	<line fill="none" stroke="#000000" x1="28.785" y1="28.731" x2="38.945" y2="28.731"/>
	<line fill="none" stroke="#000000" x1="7.21" y1="21.191" x2="38.945" y2="21.191"/>
	<line fill="none" stroke="#000000" x1="7.21" y1="23.915" x2="38.945" y2="23.915"/>
</g>

<g class="shadowGroup2">
	<rect x="4.42" y="11.934" fill="none" stroke="#000000" width="36.655" height="19.795"/>
	<line fill="none" stroke="#000000" x1="6.724" y1="15.155" x2="13.427" y2="15.155"/>
	<line fill="none" stroke="#000000" x1="31.757" y1="15.155" x2="38.46" y2="15.155"/>
	<line fill="none" stroke="#000000" x1="28.299" y1="28.247" x2="38.46" y2="28.247"/>
	<line fill="none" stroke="#000000" x1="6.724" y1="20.706" x2="38.46" y2="20.706"/>
	<line fill="none" stroke="#000000" x1="6.724" y1="23.429" x2="38.46" y2="23.429"/>
</g>

<g class="shadowGroup1">
	<rect x="3.973" y="11.486" fill="none" stroke="#000000" width="36.654" height="19.795"/>
	<line fill="none" stroke="#000000" x1="6.276" y1="14.708" x2="12.979" y2="14.708"/>
	<line fill="none" stroke="#000000" x1="31.309" y1="14.708" x2="38.012" y2="14.708"/>
	<line fill="none" stroke="#000000" x1="27.852" y1="27.799" x2="38.012" y2="27.799"/>
	<line fill="none" stroke="#000000" x1="6.276" y1="20.258" x2="38.012" y2="20.258"/>
	<line fill="none" stroke="#000000" x1="6.276" y1="22.98" x2="38.012" y2="22.98"/>
</g>

	<rect x="3.533" y="11.046" fill="none" class="strokeColor" stroke="#000000" width="36.655" height="19.794"/>
	<line fill="none" class="strokeColor" stroke="#000000" x1="5.836" y1="14.268" x2="12.54" y2="14.268"/>
	<line fill="none" class="strokeColor" stroke="#000000" x1="30.869" y1="14.268" x2="37.572" y2="14.268"/>
	<line fill="none" class="strokeColor" stroke="#000000" x1="27.411" y1="27.359" x2="37.572" y2="27.359"/>
	<line fill="none" class="strokeColor" stroke="#000000" x1="5.836" y1="19.818" x2="37.572" y2="19.818"/>
	<line fill="none" class="strokeColor" stroke="#000000" x1="5.836" y1="22.542" x2="37.572" y2="22.542"/>

</svg>
