<?xml version="1.0" encoding="utf-8"?>
<!-- Generator: Adobe Illustrator 18.0.0, SVG Export Plug-In . SVG Version: 6.00 Build 0)  -->
<!DOCTYPE svg PUBLIC "-//W3C//DTD SVG 1.1//EN" "http://www.w3.org/Graphics/SVG/1.1/DTD/svg11.dtd">
<svg version="1.1" id="Ebene_1" xmlns="http://www.w3.org/2000/svg" xmlns:xlink="http://www.w3.org/1999/xlink" x="0px" y="0px"
	 viewBox="0 0 45 45" enable-background="new 0 0 45 45" xml:space="preserve">
<style type="text/css">
			@import "../default/default/svg.css";
	</style>
	 <script type="text/javascript">
         <![CDATA[
             if(window.parent && window.parent.Wincor && window.parent.Wincor.UI && window.parent.Wincor.UI.Content) {
                 let styleRes = window.parent.Wincor.UI.Content.StyleResourceResolver;
                 if(styleRes) {
                 	let style = document.getElementsByTagName("style")[0];
                 	if(style.innerHTML) {
                    	style.innerHTML = style.innerHTML.replace("default/svg.css", styleRes.type() + "svg.css");
                    }
                    else {
                    	style.textContent = style.textContent.replace("default/svg.css", styleRes.type() + "svg.css");
                    }
                    styleRes = null;
                 }
             }
         ]]>
    </script>	
<g class="shadowGroup1">
	<g>
		<path fill="none" stroke="#000000" stroke-width="0.75" stroke-miterlimit="10" d="M36.9,41.8c0,1.3-1,2.3-2.3,2.3H15
			c-1.3,0-2.3-1-2.3-2.3V26.2c0-1.3,1-2.3,2.3-2.3h19.6c1.3,0,2.3,1,2.3,2.3C36.9,26.2,36.9,41.8,36.9,41.8z"/>
		<path d="M24.8,26.7h4.8l0.8,0.6h6.4v-0.8h-6.3l-0.8-0.6h-3.8v-1.7h-2.3v1.7h-3.1L20.4,26c-0.1,0.2-0.3,0.3-0.6,0.3s-1.8,0-6,0
			c-0.7,0-1.1,0-1.4,0v0.8c0.2,0,0.8,0,1.4,0c1.8,0,5.5,0,5.8,0s0.8-0.2,1-0.6h1.1c-1.6,1-2.1,2.7-2.1,3.1V31h-7.3v0.8h7.3V32
			c0,0.6,0.2,0.8,0.7,1.1c0.2,0.2,0.6,0.7,0.6,0.9s-0.1,0.6-0.6,0.8c-0.2,0.2-0.6,0.7-0.7,1h-7.3v0.8h7.3v1.1c0,1.3,0.8,2.5,2.2,3.3
			h-1.3c-0.2-0.2-0.7-0.6-1-0.6c-0.2,0-4,0-5.8,0c-0.7,0-1.1,0-1.4,0v0.8c0.2,0,0.8,0,1.4,0c4,0,5.5,0,6,0c0.1,0,0.3,0.2,0.6,0.3
			l0.1,0.1h3.1v2.2h2.3v-2.2h3.8l0.9-0.6h6.3v-0.8h-6.4l-0.9,0.6h-1.7c1.4-0.9,2.1-2.4,2.1-3.2v-1.3h7v-0.8h-7.1
			c-0.1-0.6-0.6-1-0.8-1.4c-0.1-0.1-0.2-0.3-0.2-0.3c0-0.6,0.1-0.7,0.3-0.9c0.2-0.2,0.7-0.6,0.7-1.3h7v-0.8H29v0.3
			c0,0.8-0.1,0.9-0.6,1.1c-0.2,0.2-0.7,0.7-0.7,1.4c0,0.3,0.2,0.7,0.6,0.9c0.2,0.3,0.7,0.8,0.7,1.3v1.7c0,0.8-1.3,3.2-4,3.2
			c-2.9,0-4.4-1.9-4.4-3.3v-1.7c0-0.2,0.1-0.3,0.6-0.7c0.2-0.2,0.7-0.7,0.7-1.4s-0.3-1.1-0.8-1.6c-0.2-0.2-0.3-0.6-0.3-0.7V29
			C20.8,29.3,22,26.7,24.8,26.7z"/>
	</g>
	<polyline fill="none" stroke="#000000" stroke-miterlimit="10" points="17.1,13.9 24.4,21.6 32,13.7 	"/>
	<line fill="none" stroke="#000000" stroke-miterlimit="10" x1="24.5" y1="2.7" x2="24.5" y2="21"/>
</g>
<g class="shadowGroup2">
	<g>
		<path fill="none" stroke="#000000" stroke-width="0.75" stroke-miterlimit="10" d="M36.3,41.4c0,1.3-1,2.3-2.3,2.3H14.3
			c-1.3,0-2.3-1-2.3-2.3V25.8c0-1.3,1-2.3,2.3-2.3H34c1.3,0,2.3,1,2.3,2.3V41.4z"/>
		<path d="M24.2,26.2H29l0.8,0.6h6.4V26h-6.3l-0.8-0.6h-3.8v-1.7H23v1.7h-3.1l-0.1,0.1c-0.1,0.2-0.3,0.3-0.6,0.3s-1.8,0-6,0
			c-0.7,0-1.1,0-1.4,0v0.8c0.2,0,0.8,0,1.4,0c1.8,0,5.5,0,5.8,0c0.3,0,0.8-0.2,1-0.6h1.1c-1.6,1-2.1,2.7-2.1,3.1v1.4h-7.3v0.8H19
			v0.1c0,0.6,0.2,0.8,0.7,1.1c0.2,0.2,0.6,0.7,0.6,0.9s-0.1,0.6-0.6,0.8c-0.2,0.2-0.6,0.7-0.7,1h-7.3V36H19v1.1
			c0,1.3,0.8,2.5,2.2,3.3h-1.3c-0.2-0.2-0.7-0.6-1-0.6c-0.2,0-4,0-5.8,0c-0.7,0-1.1,0-1.4,0v0.8c0.2,0,0.8,0,1.4,0c4,0,5.5,0,6,0
			c0.1,0,0.3,0.2,0.6,0.3l0.1,0.1h3.1v2.2h2.3V41H29l0.9-0.6h6.3v-0.8h-6.4l-0.9,0.6h-1.7c1.4-0.9,2.1-2.4,2.1-3.2v-1.3h7v-0.8h-7.1
			c-0.1-0.6-0.6-1-0.8-1.4c-0.1-0.1-0.2-0.3-0.2-0.3c0-0.6,0.1-0.7,0.3-0.9c0.2-0.2,0.7-0.6,0.7-1.3h7v-0.8h-7.8v0.3
			c0,0.8-0.1,0.9-0.6,1.1c-0.2,0.2-0.7,0.7-0.7,1.4c0,0.3,0.2,0.7,0.6,0.9c0.2,0.3,0.7,0.8,0.7,1.3v1.7c0,0.8-1.3,3.2-4,3.2
			c-2.9,0-4.4-1.9-4.4-3.3v-1.7c0-0.2,0.1-0.3,0.6-0.7c0.2-0.2,0.7-0.7,0.7-1.4s-0.3-1.1-0.8-1.6c-0.2-0.2-0.3-0.6-0.3-0.7v-2.3
			C20.2,28.9,21.3,26.2,24.2,26.2z"/>
	</g>
	<polyline fill="none" stroke="#000000" stroke-miterlimit="10" points="16.4,13.4 23.8,21.1 31.4,13.2 	"/>
	<line fill="none" stroke="#000000" stroke-miterlimit="10" x1="23.9" y1="2.2" x2="23.9" y2="20.5"/>
</g>
<g class="shadowGroup3">
	<g>
		<path fill="none" stroke="#000000" stroke-width="0.75" stroke-miterlimit="10" d="M35.6,40.6c0,1.3-1,2.3-2.3,2.3H13.7
			c-1.3,0-2.3-1-2.3-2.3V25c0-1.3,1-2.3,2.3-2.3h19.6c1.3,0,2.3,1,2.3,2.3V40.6z"/>
		<path d="M23.5,25.4h4.8l0.8,0.6h6.4v-0.8h-6.3l-0.8-0.6h-3.8V23h-2.3v1.7h-3.1l-0.1,0.1c-0.1,0.2-0.3,0.3-0.6,0.3
			c-0.2,0-1.8,0-6,0c-0.7,0-1.1,0-1.4,0v0.8c0.2,0,0.8,0,1.4,0c1.8,0,5.5,0,5.8,0c0.3,0,0.8-0.2,1-0.6h1.1c-1.6,1-2.1,2.7-2.1,3.1
			v1.4H11v0.8h7.3v0.1c0,0.6,0.2,0.8,0.7,1.1c0.2,0.2,0.6,0.7,0.6,0.9s-0.1,0.6-0.6,0.8c-0.2,0.2-0.6,0.7-0.7,1H11v0.8h7.3v1.1
			c0,1.3,0.8,2.5,2.2,3.3h-1.3c-0.2-0.2-0.7-0.6-1-0.6c-0.2,0-4,0-5.8,0c-0.7,0-1.1,0-1.4,0v0.8c0.2,0,0.8,0,1.4,0c4,0,5.5,0,6,0
			c0.1,0,0.3,0.2,0.6,0.3l0.1,0.1h3.1v2.2h2.3v-2.2h3.8l0.9-0.6h6.3V39h-6.4l-0.9,0.6h-1.7c1.4-0.9,2.1-2.4,2.1-3.2V35h7v-0.8h-7.1
			c-0.1-0.6-0.6-1-0.8-1.4c-0.1-0.1-0.2-0.3-0.2-0.3c0-0.6,0.1-0.7,0.3-0.9s0.7-0.6,0.7-1.3h7v-0.8h-7.8v0.3c0,0.8-0.1,0.9-0.6,1.1
			c-0.2,0.2-0.7,0.7-0.7,1.4c0,0.3,0.2,0.7,0.6,0.9c0.2,0.3,0.7,0.8,0.7,1.3v1.7c0,0.8-1.3,3.2-4,3.2c-2.9,0-4.4-1.9-4.4-3.3v-1.7
			c0-0.2,0.1-0.3,0.6-0.7c0.2-0.2,0.7-0.7,0.7-1.4s-0.3-1.1-0.8-1.6c-0.2-0.2-0.3-0.6-0.3-0.7v-2.3C19.5,28.1,20.6,25.4,23.5,25.4z"
			/>
	</g>
	<polyline fill="none" stroke="#000000" stroke-miterlimit="10" points="15.7,12.7 23.1,20.3 30.7,12.4 	"/>
	<line fill="none" stroke="#000000" stroke-miterlimit="10" x1="23.2" y1="1.4" x2="23.2" y2="19.7"/>
</g>
<g>
	<g>
		<path class="strokeColor" fill="none" stroke="#000000" stroke-width="0.75" stroke-miterlimit="10" d="M34.8,39.8c0,1.3-1,2.3-2.3,2.3H12.8
			c-1.3,0-2.3-1-2.3-2.3V24.2c0-1.3,1-2.3,2.3-2.3h19.6c1.3,0,2.3,1,2.3,2.3L34.8,39.8L34.8,39.8z"/>
		<path class="fillColor" d="M22.7,24.6h4.8l0.8,0.6h6.4v-0.8h-6.3l-0.8-0.6h-3.8v-1.7h-2.3v1.7h-3.1l-0.1,0.1c-0.1,0.2-0.3,0.3-0.6,0.3
			c-0.2,0-1.8,0-6,0c-0.7,0-1.1,0-1.4,0V25c0.2,0,0.8,0,1.4,0c1.8,0,5.5,0,5.8,0c0.3,0,0.8-0.2,1-0.6h1.1c-1.6,1-2.1,2.7-2.1,3.1V29
			h-7.3v0.8h7.3v0.1c0,0.6,0.2,0.8,0.7,1.1c0.2,0.2,0.6,0.7,0.6,0.9s-0.1,0.6-0.6,0.8c-0.2,0.2-0.6,0.7-0.7,1h-7.3v0.8h7.3v1.1
			c0,1.3,0.8,2.5,2.2,3.3h-1.3c-0.2-0.2-0.7-0.6-1-0.6c-0.2,0-4,0-5.8,0c-0.7,0-1.1,0-1.4,0v0.8c0.2,0,0.8,0,1.4,0c4,0,5.5,0,6,0
			c0.1,0,0.3,0.2,0.6,0.3l0.1,0.1h3.1v2.2h2.3v-2.2h3.8l0.9-0.6h6.3v-0.8h-6.4l-0.9,0.6h-1.7c1.4-0.9,2.1-2.4,2.1-3.2v-1.3h7v-0.8
			h-7.1c-0.1-0.6-0.6-1-0.8-1.4c-0.1-0.1-0.2-0.3-0.2-0.3c0-0.6,0.1-0.7,0.3-0.9s0.7-0.6,0.7-1.3h7v-0.8h-7.8V29
			c0,0.8-0.1,0.9-0.6,1.1c-0.2,0.2-0.7,0.7-0.7,1.4c0,0.3,0.2,0.7,0.6,0.9c0.2,0.3,0.7,0.8,0.7,1.3v1.7c0,0.8-1.3,3.2-4,3.2
			c-2.9,0-4.4-1.9-4.4-3.3v-1.7c0-0.2,0.1-0.3,0.6-0.7c0.2-0.2,0.7-0.7,0.7-1.4c0-0.7-0.3-1.1-0.8-1.6c-0.2-0.2-0.3-0.6-0.3-0.7V27
			C18.7,27.3,19.8,24.6,22.7,24.6z"/>
	</g>
	<polyline class="strokeColor" fill="none" stroke="#000000" stroke-miterlimit="10" points="14.9,11.9 22.2,19.5 29.9,11.6 	"/>
	<line class="strokeColor" fill="none" stroke="#000000" stroke-miterlimit="10" x1="22.4" y1="0.6" x2="22.4" y2="18.9"/>
</g>
</svg>
