<?xml version="1.0" encoding="utf-8"?>
<!-- Generator: Adobe Illustrator 18.0.0, SVG Export Plug-In . SVG Version: 6.00 Build 0)  -->
<!DOCTYPE svg PUBLIC "-//W3C//DTD SVG 1.1//EN" "http://www.w3.org/Graphics/SVG/1.1/DTD/svg11.dtd">
<svg version="1.1" id="Ebene_1" xmlns="http://www.w3.org/2000/svg" xmlns:xlink="http://www.w3.org/1999/xlink" x="0px" y="0px"
	 viewBox="0 0 45 45" enable-background="new 0 0 45 45" xml:space="preserve">
 <style type="text/css">
			@import "../default/default/svg.css";
	</style>
	 <script type="text/javascript">
         <![CDATA[
             if(window.parent && window.parent.Wincor && window.parent.Wincor.UI && window.parent.Wincor.UI.Content) {
                 let styleRes = window.parent.Wincor.UI.Content.StyleResourceResolver;
                 if(styleRes) {
                 	let style = document.getElementsByTagName("style")[0];
                 	if(style.innerHTML) {
                    	style.innerHTML = style.innerHTML.replace("default/svg.css", styleRes.type() + "svg.css");
                    }
                    else {
                    	style.textContent = style.textContent.replace("default/svg.css", styleRes.type() + "svg.css");
                    }
                    styleRes = null;
                 }
             }
         ]]>
    </script>	
<g class="shadowGroup1">
	<g>
		<polyline fill="none" stroke="#000000" stroke-miterlimit="10" points="16.8,36.7 24.1,44.3 31.7,36.4 		"/>
		<line fill="none" stroke="#000000" stroke-miterlimit="10" x1="24.3" y1="25.4" x2="24.3" y2="43.7"/>
	</g>
	<g>
		<path fill="none" stroke="#000000" stroke-miterlimit="10" d="M36.4,22.6H12.1c-1.1,0-2-0.9-2-2V6.4c0-1.1,0.9-2,2-2h24.3
			c1.1,0,2,0.9,2,2v14.2C38.4,21.7,37.5,22.6,36.4,22.6z M38.4,10.3H27.9c-0.5,0-0.9-0.4-0.9-0.9v-5h-4.7v5c0,0.5-0.4,0.9-0.9,0.9
			H10.1v5.6h11.2c0.5,0,0.9,0.4,0.9,0.9v5.8H27v-5.8c0-0.5,0.4-0.9,0.9-0.9h10.5V10.3z M27.1,14.7v-3.1c0-0.4-0.3-0.7-0.7-0.7h-3.6
			c-0.4,0-0.7,0.3-0.7,0.7v3.1c0,0.4,0.3,0.7,0.7,0.7h3.6C26.8,15.4,27.1,15.1,27.1,14.7z"/>
	</g>
</g>
<g class="shadowGroup2">
	<g>
		<polyline fill="none" stroke="#000000" stroke-miterlimit="10" points="16.1,36.2 23.4,43.8 31,36 		"/>
		<line fill="none" stroke="#000000" stroke-miterlimit="10" x1="23.6" y1="25" x2="23.6" y2="43.3"/>
	</g>
	<g>
		<path fill="none" stroke="#000000" stroke-miterlimit="10" d="M35.7,22.1H11.4c-1.1,0-2-0.9-2-2V5.9c0-1.1,0.9-2,2-2h24.3
			c1.1,0,2,0.9,2,2v14.2C37.7,21.2,36.8,22.1,35.7,22.1z M37.7,9.8H27.2c-0.5,0-0.9-0.4-0.9-0.9v-5h-4.7v5c0,0.5-0.4,0.9-0.9,0.9
			H9.4v5.6h11.2c0.5,0,0.9,0.4,0.9,0.9v5.8h4.7v-5.8c0-0.5,0.4-0.9,0.9-0.9h10.5V9.8z M26.4,14.2v-3.1c0-0.4-0.3-0.7-0.7-0.7h-3.6
			c-0.4,0-0.7,0.3-0.7,0.7v3.1c0,0.4,0.3,0.7,0.7,0.7h3.6C26.1,14.9,26.4,14.6,26.4,14.2z"/>
	</g>
</g>
<g class="shadowGroup3">
	<g>
		<polyline fill="none" stroke="#000000" stroke-miterlimit="10" points="15.6,35.6 22.9,43.2 30.5,35.4 		"/>
		<line fill="none" stroke="#000000" stroke-miterlimit="10" x1="23.1" y1="24.3" x2="23.1" y2="42.6"/>
	</g>
	<g>
		<path fill="none" stroke="#000000" stroke-miterlimit="10" d="M35.2,21.5H10.9c-1.1,0-2-0.9-2-2V5.3c0-1.1,0.9-2,2-2h24.3
			c1.1,0,2,0.9,2,2v14.2C37.2,20.6,36.3,21.5,35.2,21.5z M37.2,9.2H26.7c-0.5,0-0.9-0.4-0.9-0.9v-5h-4.7v5c0,0.5-0.4,0.9-0.9,0.9
			H8.9v5.6h11.2c0.5,0,0.9,0.4,0.9,0.9v5.8h4.7v-5.8c0-0.5,0.4-0.9,0.9-0.9h10.5V9.2z M25.9,13.6v-3.1c0-0.4-0.3-0.7-0.7-0.7h-3.6
			c-0.4,0-0.7,0.3-0.7,0.7v3.1c0,0.4,0.3,0.7,0.7,0.7h3.6C25.6,14.3,25.9,14,25.9,13.6z"/>
	</g>
</g>
<g>
	<g>
		<polyline class="strokeColor" fill="none" stroke="#000000" stroke-miterlimit="10" points="15,34.8 22.3,42.5 30,34.6 		"/>
		<line class="strokeColor" fill="none" stroke="#000000" stroke-miterlimit="10" x1="22.5" y1="23.6" x2="22.5" y2="41.9"/>
	</g>
	<g>
		<path class="strokeColor" fill="none" stroke="#000000" stroke-miterlimit="10" d="M34.7,20.8H10.3c-1.1,0-2-0.9-2-2V4.5c0-1.1,0.9-2,2-2h24.3
			c1.1,0,2,0.9,2,2v14.2C36.7,19.9,35.8,20.8,34.7,20.8z M36.7,8.5H26.2c-0.5,0-0.9-0.4-0.9-0.9v-5h-4.7v5c0,0.5-0.4,0.9-0.9,0.9
			H8.3V14h11.2c0.5,0,0.9,0.4,0.9,0.9v5.8h4.7V15c0-0.5,0.4-0.9,0.9-0.9h10.5V8.5z M25.4,12.8V9.7C25.4,9.3,25,9,24.6,9h-3.6
			c-0.4,0-0.7,0.3-0.7,0.7v3.1c0,0.4,0.3,0.7,0.7,0.7h3.6C25,13.5,25.4,13.2,25.4,12.8z"/>
	</g>
</g>
</svg>
