<?xml version="1.0" encoding="utf-8"?>
<!-- Generator: Adobe Illustrator 18.0.0, SVG Export Plug-In . SVG Version: 6.00 Build 0)  -->
<!DOCTYPE svg PUBLIC "-//W3C//DTD SVG 1.1//EN" "http://www.w3.org/Graphics/SVG/1.1/DTD/svg11.dtd">
<svg version="1.1" id="Ebene_1" xmlns="http://www.w3.org/2000/svg" xmlns:xlink="http://www.w3.org/1999/xlink" x="0px" y="0px"
	 viewBox="0 0 45 45" enable-background="new 0 0 45 45" xml:space="preserve">
	 <style type="text/css">
			@import "../default/default/svg.css";
	</style>
	 <script type="text/javascript">
         <![CDATA[
             if(window.parent && window.parent.Wincor && window.parent.Wincor.UI && window.parent.Wincor.UI.Content) {
                 let styleRes = window.parent.Wincor.UI.Content.StyleResourceResolver;
                 if(styleRes) {
                 	let style = document.getElementsByTagName("style")[0];
                 	if(style.innerHTML) {
                    	style.innerHTML = style.innerHTML.replace("default/svg.css", styleRes.type() + "svg.css");
                    }
                    else {
                    	style.textContent = style.textContent.replace("default/svg.css", styleRes.type() + "svg.css");
                    }
                    styleRes = null;
                 }
             }
         ]]>
    </script>
<g class="shadowGroup1">
<path fill="none" stroke="#000000" stroke-miterlimit="10" d="M40.601,37.18H6.233c-1.571,0-2.844-1.273-2.844-2.844V14.221
	c0-1.571,1.273-2.844,2.844-2.844h34.368c1.571,0,2.844,1.273,2.844,2.844v20.115C43.445,35.907,42.171,37.18,40.601,37.18z
	 M43.445,19.785H28.586c-0.735,0-1.33-0.596-1.33-1.33v-7.077h-6.627v7.07c0,0.738-0.598,1.337-1.337,1.337H3.389v7.882h15.902
	c0.738,0,1.337,0.598,1.337,1.337v8.177h6.627v-8.183c0-0.735,0.596-1.33,1.33-1.33h14.859V19.785z M27.47,25.961v-4.364
	c0-0.561-0.455-1.016-1.016-1.016h-5.041c-0.561,0-1.016,0.455-1.016,1.016v4.364c0,0.561,0.455,1.016,1.016,1.016h5.041
	C27.015,26.976,27.47,26.522,27.47,25.961z"/>
</g>
<g class="shadowGroup2">
<path fill="none" stroke="#231F20" stroke-miterlimit="10" d="M40.101,36.597H5.733c-1.571,0-2.844-1.273-2.844-2.844V13.638
	c0-1.571,1.273-2.844,2.844-2.844h34.368c1.571,0,2.844,1.273,2.844,2.844v20.115C42.945,35.324,41.671,36.597,40.101,36.597z
	 M42.945,19.201H28.086c-0.735,0-1.33-0.596-1.33-1.33v-7.077h-6.627v7.07c0,0.738-0.598,1.337-1.337,1.337H2.889v7.882h15.902
	c0.738,0,1.337,0.598,1.337,1.337v8.177h6.627v-8.183c0-0.735,0.596-1.33,1.33-1.33h14.859V19.201z M26.97,25.377v-4.364
	c0-0.561-0.455-1.016-1.016-1.016h-5.041c-0.561,0-1.016,0.455-1.016,1.016v4.364c0,0.561,0.455,1.016,1.016,1.016h5.041
	C26.515,26.393,26.97,25.938,26.97,25.377z"/>
</g>
<g class="shadowGroup3">
<path fill="none" stroke="#231F20" stroke-miterlimit="10" d="M39.684,36.18H5.316c-1.571,0-2.844-1.273-2.844-2.844V13.221
	c0-1.571,1.273-2.844,2.844-2.844h34.368c1.571,0,2.844,1.273,2.844,2.844v20.115C42.528,34.907,41.255,36.18,39.684,36.18z
	 M42.528,18.785H27.669c-0.735,0-1.33-0.596-1.33-1.33v-7.077h-6.627v7.07c0,0.738-0.598,1.337-1.337,1.337H2.472v7.882h15.902
	c0.738,0,1.337,0.598,1.337,1.337v8.177h6.627v-8.183c0-0.735,0.596-1.33,1.33-1.33h14.859V18.785z M26.553,24.961v-4.364
	c0-0.561-0.455-1.016-1.016-1.016h-5.041c-0.561,0-1.016,0.455-1.016,1.016v4.364c0,0.561,0.455,1.016,1.016,1.016h5.041
	C26.099,25.976,26.553,25.522,26.553,24.961z"/>
</g>
<g>
<path class="strokeColor" fill="none" stroke="#231F20" stroke-miterlimit="10" d="M39.497,35.776H5.128c-1.571,0-2.844-1.273-2.844-2.844V12.817
	c0-1.571,1.273-2.844,2.844-2.844h34.368c1.571,0,2.844,1.273,2.844,2.844v20.115C42.34,34.503,41.067,35.776,39.497,35.776z
	 M42.34,18.381H27.481c-0.735,0-1.33-0.596-1.33-1.33V9.974h-6.627v7.07c0,0.738-0.598,1.337-1.337,1.337H2.285v7.882h15.902
	c0.738,0,1.337,0.598,1.337,1.337v8.177h6.627v-8.183c0-0.735,0.596-1.33,1.33-1.33H42.34V18.381z M26.366,24.557v-4.364
	c0-0.561-0.455-1.016-1.016-1.016h-5.041c-0.561,0-1.016,0.455-1.016,1.016v4.364c0,0.561,0.455,1.016,1.016,1.016h5.041
	C25.911,25.573,26.366,25.118,26.366,24.557z"/>
</g>
</svg>
