<?xml version="1.0" encoding="utf-8"?>
<!-- Generator: Adobe Illustrator 18.0.0, SVG Export Plug-In . SVG Version: 6.00 Build 0)  -->
<!DOCTYPE svg PUBLIC "-//W3C//DTD SVG 1.1//EN" "http://www.w3.org/Graphics/SVG/1.1/DTD/svg11.dtd">
<svg version="1.1" id="Ebene_1" xmlns="http://www.w3.org/2000/svg" xmlns:xlink="http://www.w3.org/1999/xlink" x="0px" y="0px"
	 viewBox="0 0 45 45" enable-background="new 0 0 45 45" xml:space="preserve">
<style type="text/css">
			@import "../default/default/svg.css";
	</style>
	 <script type="text/javascript">
         <![CDATA[
             if(window.parent && window.parent.Wincor && window.parent.Wincor.UI && window.parent.Wincor.UI.Content) {
                 let styleRes = window.parent.Wincor.UI.Content.StyleResourceResolver;
                 if(styleRes) {
                 	let style = document.getElementsByTagName("style")[0];
                 	if(style.innerHTML) {
                    	style.innerHTML = style.innerHTML.replace("default/svg.css", styleRes.type() + "svg.css");
                    }
                    else {
                    	style.textContent = style.textContent.replace("default/svg.css", styleRes.type() + "svg.css");
                    }
                    styleRes = null;
                 }
             }
         ]]>
    </script>	
<g class="shadowGroup1">
	<path fill="none" stroke="#000000" stroke-miterlimit="10" d="M37,41.7H12.6c-1.1,0-2-0.9-2-2V25.4c0-1.1,0.9-2,2-2h24.3
		c1.1,0,2,0.9,2,2v14.2C39,40.8,38.1,41.7,37,41.7z M39,29.4H28.5c-0.5,0-0.9-0.4-0.9-0.9v-5h-4.7v5c0,0.5-0.4,0.9-0.9,0.9H10.6v5.5
		h11.2c0.5,0,0.9,0.4,0.9,0.9v5.8h4.7v-5.7c0-0.5,0.4-0.9,0.9-0.9h10.5v-5.6H39z M27.7,33.7v-3.1c0-0.4-0.4-0.7-0.8-0.7h-3.6
		c-0.4,0-0.7,0.3-0.7,0.7v3.1c0,0.4,0.3,0.7,0.7,0.7h3.6C27.3,34.4,27.7,34.1,27.7,33.7z"/>
	<g>
		<g>
			<g>
				<polygon points="38.3,13 29.5,13 29.5,14 38.3,14 				"/>
				<polygon points="30.2,4.7 18.7,21.6 19.8,22.4 31.2,5.4 				"/>
				<polygon points="20.2,13 16.4,13 16.4,9.4 15.4,9.4 15.4,13 11.4,13 11.4,14.2 15.4,14.2 15.4,17.7 16.4,17.7 16.4,14.2 
					20.2,14.2 				"/>
			</g>
		</g>
	</g>
</g>
<g class="shadowGroup2">
	<path fill="none" stroke="#000000" stroke-miterlimit="10" d="M36.2,41H11.8c-1.1,0-2-0.9-2-2V24.7c0-1.1,0.9-2,2-2h24.3
		c1.1,0,2,0.9,2,2v14.2C38.2,40.1,37.3,41,36.2,41z M38.2,28.7H27.7c-0.5,0-0.9-0.4-0.9-0.9v-5h-4.7v5c0,0.5-0.4,0.9-0.9,0.9H9.8
		v5.5H21c0.5,0,0.9,0.4,0.9,0.9v5.8h4.7v-5.7c0-0.5,0.4-0.9,0.9-0.9H38v-5.6H38.2z M26.9,33v-3.1c0-0.4-0.4-0.7-0.8-0.7h-3.6
		c-0.4,0-0.7,0.3-0.7,0.7V33c0,0.4,0.3,0.7,0.7,0.7h3.6C26.5,33.7,26.9,33.4,26.9,33z"/>
	<g>
		<g>
			<g>
				<polygon points="37.5,12.3 28.7,12.3 28.7,13.3 37.5,13.3 				"/>
				<polygon points="29.4,4 17.9,20.9 19,21.7 30.4,4.7 				"/>
				<polygon points="19.4,12.3 15.6,12.3 15.6,8.7 14.6,8.7 14.6,12.3 10.6,12.3 10.6,13.5 14.6,13.5 14.6,17 15.6,17 15.6,13.5 
					19.4,13.5 				"/>
			</g>
		</g>
	</g>
</g>
<g class="shadowGroup3">
	<path fill="none" stroke="#000000" stroke-miterlimit="10" d="M35.5,40.4H11.1c-1.1,0-2-0.9-2-2V24.1c0-1.1,0.9-2,2-2h24.3
		c1.1,0,2,0.9,2,2v14.2C37.5,39.5,36.6,40.4,35.5,40.4z M37.5,28.1H27c-0.5,0-0.9-0.4-0.9-0.9v-5h-4.7v5c0,0.5-0.4,0.9-0.9,0.9H9.1
		v5.5h11.2c0.5,0,0.9,0.4,0.9,0.9v5.8h4.7v-5.7c0-0.5,0.4-0.9,0.9-0.9h10.5v-5.6H37.5z M26.2,32.4v-3.1c0-0.4-0.4-0.7-0.8-0.7h-3.6
		c-0.4,0-0.7,0.3-0.7,0.7v3.1c0,0.4,0.3,0.7,0.7,0.7h3.6C25.8,33.1,26.2,32.8,26.2,32.4z"/>
	<g>
		<g>
			<g>
				<polygon points="36.8,11.6 28,11.6 28,12.6 36.8,12.6 				"/>
				<polygon points="28.6,3.3 17.1,20.3 18.3,21.1 29.6,4.1 				"/>
				<polygon points="18.7,11.6 14.8,11.6 14.8,8.1 13.8,8.1 13.8,11.6 9.8,11.6 9.8,12.9 13.8,12.9 13.8,16.3 14.8,16.3 14.8,12.9 
					18.7,12.9 				"/>
			</g>
		</g>
	</g>
</g>
<g>
	<path class="strokeColor" fill="none" stroke="#000000" stroke-miterlimit="10" d="M34.7,39.7H10.3c-1.1,0-2-0.9-2-2V23.4c0-1.1,0.9-2,2-2h24.3
		c1.1,0,2,0.9,2,2v14.2C36.7,38.8,35.8,39.7,34.7,39.7z M36.7,27.4H26.2c-0.5,0-0.9-0.4-0.9-0.9v-5h-4.7v5c0,0.5-0.4,0.9-0.9,0.9
		H8.3v5.5h11.2c0.5,0,0.9,0.4,0.9,0.9v5.8h4.7v-5.7c0-0.5,0.4-0.9,0.9-0.9h10.5v-5.6H36.7z M25.4,31.7v-3.1c0-0.4-0.4-0.7-0.8-0.7
		H21c-0.4,0-0.7,0.3-0.7,0.7v3.1c0,0.4,0.3,0.7,0.7,0.7h3.6C25,32.4,25.4,32.1,25.4,31.7z"/>
	<g>
		<g>
			<g>
				<polygon class="fillColor" points="36,10.9 27.2,10.9 27.2,12 36,12 				"/>
				<polygon class="fillColor" points="27.8,2.6 16.3,19.6 17.5,20.4 28.9,3.4 				"/>
				<polygon class="fillColor" points="17.9,10.9 14.1,10.9 14.1,7.4 13,7.4 13,10.9 9.1,10.9 9.1,12.2 13,12.2 13,15.7 14.1,15.7 14.1,12.2 
					17.9,12.2 				"/>
			</g>
		</g>
	</g>
</g>
</svg>
