<?xml version="1.0" encoding="utf-8"?>
<!-- Generator: Adobe Illustrator 17.1.0, SVG Export Plug-In . SVG Version: 6.00 Build 0)  -->
<!DOCTYPE svg PUBLIC "-//W3C//DTD SVG 1.1//EN" "http://www.w3.org/Graphics/SVG/1.1/DTD/svg11.dtd">
<svg version="1.1" id="Layer_1" xmlns="http://www.w3.org/2000/svg" xmlns:xlink="http://www.w3.org/1999/xlink" x="0px" y="0px"
	 viewBox="0 0 300 498" enable-background="new 0 0 300 498" xml:space="preserve">
<path fill="#C1C1C1" d="M14.9,498C6.7,498,0,491.3,0,483.1V14.9C0,6.7,6.6,0,14.9,0h270.3c8.2,0,14.9,6.7,14.9,14.9v468.1
	c0,8.2-6.6,14.9-14.9,14.9H14.9z"/>
<rect x="77.5" y="39.2" fill="#676767" width="20" height="271.8"/>
<rect x="219" y="39.2" fill="#676767" width="43.6" height="84.8"/>
<g>
	<path fill="#FAE63C" d="M136.7,101.8c-3.3,0-6-2.7-6-6V45c0-3.3,2.7-6,6-6H177c3.3,0,6,2.7,6,6v50.8c0,3.3-2.7,6-6,6
		C177,101.8,136.7,101.8,136.7,101.8z"/>
	<path fill="#DEC221" d="M176.4,70.4v12.2l-1.4,2.2v16.8h2V85.4l1.4-2.2v-9.6h4.5v-6h-4.5v-8.1l-0.3-0.3c-0.5-0.4-1-1.1-1.1-1.3
		c0.1-0.8,0.1-4.7,0-15.2c0-1.7,0-3.1,0-3.7h-2c0,0.6,0,2,0,3.7c0,4.6,0.1,14.2,0,15c-0.1,0.9,0.6,1.9,1.4,2.7v3.1
		c-2.6-3.9-6.9-5.4-8.1-5.4h-3.8V39h-2v19h-0.2c-1.2,0-2.1,0.8-3,1.6c-0.8,0.7-1.6,1.4-2.5,1.4c-0.8,0-1.3-0.5-2-1.2
		c-0.7-0.7-1.5-1.5-2.7-1.7V39h-2v19h-3c-3.3,0-6.7,2.1-8.8,5.6v-3.3c0.8-0.8,1.5-1.8,1.4-2.7c-0.1-0.7,0-10.4,0-15
		c0-1.7,0-3.1,0-3.7h-2c0,0.6,0,2,0,3.7c-0.1,10.5-0.1,14.4,0,15.2c-0.1,0.3-0.6,0.9-1.1,1.3l-0.3,0.3v8.1h-5.6v6h5.6v9.6l1.4,2.2
		v16.2h2V84.8l-1.4-2.2v-4.5c2.4,3.6,6.2,5.5,8.3,5.5h3.5v18.1h2V83.4c1.5-0.3,2.7-1.3,3.6-2c0.4-0.3,1-0.8,1.1-0.8
		c1.3,0,1.7,0.5,2.3,1.1c0.6,0.7,1.4,1.6,3.4,1.8v18.1h2V81.6h-1c-1.9,0-2.3-0.5-2.9-1.2c-0.7-0.8-1.5-1.7-3.7-1.8
		c-0.9,0-1.6,0.6-2.4,1.3c-1,0.8-2.1,1.7-3.3,1.7h-4.5c-2.1,0-8.3-3.5-8.3-10.3c0-7.3,5.1-11.2,8.8-11.2h4.5c0.7,0,1.1,0.4,1.8,1.2
		c0.8,0.8,1.8,1.8,3.5,1.8c1.7,0,2.9-1.1,3.9-1.9c0.6-0.5,1.2-1.1,1.7-1.1h6C169.5,60.1,176.4,62.9,176.4,70.4z"/>
</g>
<g>
	<path fill="#676767" d="M49.9,49L49.9,49l-2.1-3.9l2.3-0.6l2.6,4.8v2.5H30.6V49L49.9,49L49.9,49z"/>
	<path fill="#676767" d="M30.6,60h1.8l2.3,2.3c5.4,5.6,8.2,8.2,11.6,8.2c2.2,0,4.3-1.1,4.3-4.4c0-2-1-3.7-1.9-4.7l2.1-1
		c1.3,1.5,2.2,3.7,2.2,6.3c0,4.8-3.3,6.8-6.4,6.8c-4.1,0-7.4-3-11.9-7.6l-1.6-1.8h-0.1v9.9h-2.5L30.6,60L30.6,60z"/>
	<path fill="#676767" d="M34,78.1c-0.5,0.8-1.4,2.8-1.4,4.9c0,3.8,2.4,5,4.3,5c3.1,0,4.4-2.8,4.4-5.7v-1.7h2.2v1.7
		c0,2.2,1.1,4.9,3.7,4.9c1.8,0,3.3-1.1,3.3-3.9c0-1.8-0.8-3.5-1.5-4.4l2.2-0.8c0.9,1.2,1.7,3.4,1.7,5.8c0,4.4-2.6,6.3-5.3,6.3
		c-2.3,0-4.2-1.4-5.2-4.1h-0.1c-0.5,2.7-2.6,4.9-5.7,4.9c-3.5,0-6.6-2.8-6.6-8.1c0-2.5,0.8-4.7,1.5-5.7L34,78.1z"/>
	<path fill="#676767" d="M30.6,104.1h6V93.8h2l14.1,9.9v3.2H39v3.1h-2.3v-3.1h-6V104.1z M39,104.1h7.4c1.2,0,2.3,0,3.5,0.1v-0.1
		c-1.3-0.7-2.2-1.2-3.3-1.8L39,96.9H39L39,104.1L39,104.1z"/>
	<path fill="#676767" d="M50.2,139.9v-8.4l-5.7-0.9c0.1,0.5,0.1,1,0.1,1.8c0,1.7-0.4,3.4-1.2,4.8c-1,1.7-2.9,3.2-5.7,3.2
		c-4.3,0-7.5-3.4-7.5-8.2c0-2.4,0.7-4.5,1.4-5.5l2.3,0.7c-0.5,0.9-1.2,2.7-1.2,4.7c0,2.8,1.8,5.2,4.8,5.2c2.9,0,4.9-1.9,4.9-6.4
		c0-1.3-0.1-2.2-0.2-3.1l10.6,1.4v10.6L50.2,139.9L50.2,139.9z"/>
	<path fill="#676767" d="M50.6,156.8c0-0.6,0-1.4-0.1-2.2c-0.8-4.7-4.2-7.2-7.9-7.7v0.1c1.4,1.1,2.6,2.9,2.6,5.3
		c0,3.9-2.8,6.7-7.1,6.7c-4,0-7.8-2.8-7.8-7.3c0-4.7,3.7-7.8,9.4-7.8c4.4,0,7.8,1.6,10,3.7c1.8,1.8,2.9,4.3,3.3,7.1
		c0.1,0.9,0.2,1.6,0.2,2.2L50.6,156.8L50.6,156.8z M37.9,155.9c3.2,0,5.1-1.8,5.1-4.6c0-1.8-1.1-3.5-2.7-4.3
		c-0.3-0.2-0.8-0.3-1.3-0.3c-3.6,0.1-6.3,1.7-6.3,4.9C32.5,154.2,34.7,155.9,37.9,155.9z"/>
	<path fill="#676767" d="M52.7,175.9h-2l-20.1-9.6v-3.1l19.5,9.6h0.1V162h2.5L52.7,175.9L52.7,175.9z"/>
	<path fill="#676767" d="M36.2,178.8c2.8,0,4.8,1.7,5.9,4.4l0.1,0c1.2-2.4,3.1-3.5,5-3.5c3.5,0,5.9,3,5.9,6.8c0,4.3-2.7,6.4-5.4,6.4
		c-1.9,0-3.9-0.9-5.2-3.6h-0.1c-1.1,2.8-3,4.5-5.7,4.5c-3.8,0-6.4-3.3-6.4-7.5C30.2,181.6,33,178.8,36.2,178.8z M36.4,190.7
		c2.7,0,4-1.9,4.8-4.9c-0.7-2.6-2.4-4-4.6-4c-2.2-0.1-4.2,1.6-4.2,4.4C32.4,188.9,34.1,190.7,36.4,190.7z M47.4,182.4
		c-2.2,0-3.4,1.7-4.1,4.2c0.6,1.9,2,3.4,4,3.4c1.8,0,3.6-1.1,3.6-3.7C50.9,183.8,49.3,182.4,47.4,182.4z"/>
	<path fill="#676767" d="M32.7,212.6c-0.1,0.6,0,1.4,0.1,2.4c0.2,1.7,1,3.4,2.1,4.6c1.3,1.5,3.3,2.5,5.9,2.9v-0.1
		c-1.5-1.2-2.4-3-2.4-5.2c0-4,3-6.5,6.8-6.5c4.2,0,7.9,3,7.9,7.5c0,4.5-3.7,7.3-9.3,7.3c-4.9,0-8.3-1.6-10.4-3.8
		c-1.7-1.7-2.7-4-3-6.4c-0.2-1.1-0.2-2-0.2-2.8L32.7,212.6L32.7,212.6L32.7,212.6z M45.4,213.7c-2.8,0-4.7,1.7-4.7,4.2
		c0,2,1,3.6,2.3,4.4c0.3,0.2,0.6,0.3,1.1,0.3c3.8,0,6.7-1.4,6.7-4.5C50.8,215.5,48.6,213.7,45.4,213.7z"/>
	<path fill="#676767" d="M49.9,234.8L49.9,234.8l-2.1-3.9l2.3-0.6l2.6,4.8v2.6H30.6v-2.9L49.9,234.8L49.9,234.8z"/>
	<path fill="#676767" d="M30.6,245.8h1.8l2.3,2.3c5.4,5.6,8.2,8.2,11.6,8.2c2.2,0,4.3-1.1,4.3-4.4c0-2-1-3.7-1.9-4.7l2.1-1
		c1.3,1.5,2.2,3.7,2.2,6.3c0,4.8-3.3,6.8-6.4,6.8c-4.1,0-7.4-3-11.9-7.6l-1.6-1.8h-0.1v9.9h-2.5L30.6,245.8L30.6,245.8z"/>
	<path fill="#676767" d="M34,263.9c-0.5,0.9-1.4,2.8-1.4,4.9c0,3.8,2.4,5,4.3,5c3.1,0,4.4-2.8,4.4-5.7v-1.7h2.2v1.7
		c0,2.2,1.1,4.9,3.7,4.9c1.8,0,3.3-1.1,3.3-3.9c0-1.8-0.8-3.5-1.5-4.4l2.2-0.8c0.9,1.2,1.7,3.4,1.7,5.8c0,4.4-2.6,6.3-5.3,6.3
		c-2.3,0-4.2-1.4-5.2-4.1h-0.1c-0.5,2.7-2.6,4.9-5.7,4.9c-3.5,0-6.6-2.8-6.6-8.1c0-2.5,0.8-4.7,1.5-5.7L34,263.9z"/>
</g>
<g>
	<path fill="#676767" d="M228.4,293.9c-0.5-1.1-1.1-3.3-1.1-6.1c0-6.5,4.1-11.3,11.6-11.3c7.2,0,12,4.9,12,12c0,2.9-0.6,4.7-1,5.4
		l-2.4-0.7c0.5-1.1,1-2.7,1-4.6c0-5.4-3.4-8.9-9.5-8.9c-5.6,0-9.2,3.2-9.2,8.8c0,1.8,0.4,3.6,1,4.8L228.4,293.9z"/>
	<path fill="#676767" d="M250.2,297.6c0.3,1.5,0.5,3.6,0.5,5.7c0,3.2-0.6,5.2-1.9,6.6c-1,1.2-2.6,1.8-4.4,1.8c-3,0-5-1.9-5.8-4.3
		h-0.1c-0.6,1.8-2.2,2.8-4.6,3.4c-3.2,0.7-5.4,1.3-6.3,1.8v-3.1c0.6-0.4,2.6-0.9,5.5-1.5c3.2-0.7,4.4-1.9,4.5-4.6v-2.8h-9.9v-3
		L250.2,297.6L250.2,297.6z M239.8,300.5v3c0,3.2,1.7,5.2,4.4,5.2c3,0,4.2-2.1,4.3-5.3c0-1.4-0.1-2.4-0.3-2.9L239.8,300.5
		L239.8,300.5z"/>
	<path fill="#676767" d="M238.4,327.7v-8.9h-8.3v9.9h-2.5v-12.9h22.9v12.4H248v-9.4h-7.2v8.9H238.4z"/>
	<path fill="#676767" d="M250.2,332.6c0.3,1.8,0.5,3.9,0.5,6.3c0,4.2-1,7.3-2.9,9.3c-1.9,2-4.5,3.2-8.2,3.2c-3.7,0-6.8-1.2-8.9-3.3
		c-2.1-2.1-3.3-5.7-3.3-10.1c0-2.1,0.1-3.9,0.3-5.4L250.2,332.6L250.2,332.6z M230,335.6c-0.1,0.7-0.2,1.8-0.2,3
		c0,6.3,3.5,9.8,9.7,9.8c5.4,0,8.8-3,8.8-9.3c0-1.5-0.1-2.7-0.3-3.5H230L230,335.6z"/>
	<path fill="#676767" d="M250.5,358.2h-22.9v-3h22.9V358.2z"/>
	<path fill="#676767" d="M248,367.7v-7h2.5v17H248v-7h-20.4v-3H248z"/>
	<path fill="#676767" d="M228.4,403.5c-0.5-1.1-1.1-3.3-1.1-6.1c0-6.5,4.1-11.3,11.6-11.3c7.2,0,12,4.9,12,12c0,2.9-0.6,4.7-1,5.4
		l-2.4-0.7c0.5-1.1,1-2.7,1-4.6c0-5.4-3.4-8.9-9.5-8.9c-5.6,0-9.2,3.2-9.2,8.8c0,1.8,0.4,3.6,1,4.8L228.4,403.5z"/>
	<path fill="#676767" d="M234.8,411l-7.2-2.4v-3.1l22.9,7.8v3.6l-22.9,7.8v-3.2l7.2-2.4V411z M237.1,418.6l6.6-2.2
		c1.5-0.5,2.9-0.9,4.2-1.2v-0.1c-1.4-0.3-2.8-0.7-4.1-1.2l-6.6-2.2L237.1,418.6L237.1,418.6z"/>
	<path fill="#676767" d="M250.2,428.1c0.3,1.5,0.5,3.6,0.5,5.7c0,3.2-0.6,5.2-1.9,6.6c-1,1.2-2.6,1.8-4.4,1.8c-3,0-5-1.9-5.8-4.3
		h-0.1c-0.6,1.8-2.2,2.8-4.6,3.4c-3.2,0.7-5.4,1.3-6.3,1.8V440c0.6-0.4,2.6-0.9,5.5-1.5c3.2-0.7,4.4-1.9,4.5-4.6v-2.8h-9.9v-3
		L250.2,428.1L250.2,428.1z M239.8,431.1v3c0,3.2,1.7,5.2,4.4,5.2c3,0,4.2-2.1,4.3-5.3c0-1.4-0.1-2.4-0.3-2.9L239.8,431.1
		L239.8,431.1z"/>
	<path fill="#676767" d="M250.2,446.4c0.3,1.8,0.5,3.9,0.5,6.3c0,4.2-1,7.3-2.9,9.3c-1.9,2-4.5,3.2-8.2,3.2c-3.7,0-6.8-1.2-8.9-3.3
		c-2.1-2.1-3.3-5.7-3.3-10.1c0-2.1,0.1-3.9,0.3-5.4L250.2,446.4L250.2,446.4z M230,449.4c-0.1,0.7-0.2,1.8-0.2,3
		c0,6.3,3.5,9.8,9.7,9.8c5.4,0,8.8-3,8.8-9.3c0-1.5-0.1-2.7-0.3-3.5H230L230,449.4z"/>
</g>
<linearGradient id="SVGID_1_" gradientUnits="userSpaceOnUse" x1="168.289" y1="459" x2="545.499" y2="459" gradientTransform="matrix(0 1 -1 0 609 -47.5)">
	<stop  offset="0" style="stop-color:#FFFFFF"/>
	<stop  offset="1" style="stop-color:#000000"/>
</linearGradient>
<path opacity="0.31" fill="url(#SVGID_1_)"  d="M300,483.1V228.3L0,120.8v362.3
	c0,8.2,6.6,14.9,14.9,14.9h270.3C293.4,498,300,491.3,300,483.1z"/>
<g>
</g>
<g>
</g>
<g>
</g>
<g>
</g>
<g>
</g>
<g>
</g>
</svg>
