<?xml version="1.0" encoding="utf-8"?>
<!-- Generator: Adobe Illustrator 18.0.0, SVG Export Plug-In . SVG Version: 6.00 Build 0)  -->
<!DOCTYPE svg PUBLIC "-//W3C//DTD SVG 1.1//EN" "http://www.w3.org/Graphics/SVG/1.1/DTD/svg11.dtd">
<svg version="1.1" id="Layer_1" xmlns="http://www.w3.org/2000/svg" xmlns:xlink="http://www.w3.org/1999/xlink" x="0px" y="0px"
	 viewBox="0 0 45 45" enable-background="new 0 0 45 45" xml:space="preserve">
	<style type="text/css">
			@import "../default/default/svg.css";
	</style>
	 <script type="text/javascript">
         <![CDATA[
             if(window.parent && window.parent.Wincor && window.parent.Wincor.UI && window.parent.Wincor.UI.Content) {
                 let styleRes = window.parent.Wincor.UI.Content.StyleResourceResolver;
                 if(styleRes) {
                 	let style = document.getElementsByTagName("style")[0];
                   	style.innerHTML = style.innerHTML.replace("default/svg.css", styleRes.type() + "svg.css");
                    styleRes = null;
                 }
             }
         ]]>
    </script>
<g class="shadowGroup1">
	<path  d="M35.7,30.3L26,40.1V15.5h-1V40l-9.7-9.7L14.6,31l10.9,11l10.9-10.9L35.7,30.3z"/>
	<rect x="20" y="19" width="4" height="1"/>
	<rect x="27" y="19" width="4" height="1"/>
	<path d="M30,13.5C30,11,28,9,25.5,9S21,11,21,13.5c0,2,1.2,3.6,3,4.2v-1.1c-1.2-0.6-2-1.8-2-3.1c0-1.9,1.6-3.5,3.5-3.5
		s3.5,1.6,3.5,3.5c0,1.4-0.8,2.6-2,3.1v1.1C28.8,17.1,30,15.5,30,13.5z"/>
	<path d="M9,7v15h15v-1H13.2c0.3-0.4,0.4-0.8,0.4-1.3c0-1.3-1-2.3-2.3-2.3c-0.5,0-0.9,0.2-1.3,0.4v-6.6c0.4,0.3,0.8,0.4,1.3,0.4
		c1.3,0,2.3-1,2.3-2.3c0-0.5-0.2-0.9-0.4-1.3h24.2C37.1,8.4,37,8.8,37,9.3c0,1.3,1,2.3,2.2,2.3c0.7,0,1.4-0.4,1.8-1v7.8
		c-0.4-0.6-1.1-1-1.8-1c-1.2,0-2.2,1-2.2,2.3c0,0.5,0.1,0.9,0.4,1.3H27v1h15V7H9z"/>
	<polygon points="7,5 7,24 24,24 24,23 8,23 8,6 43,6 43,23 27,23 27,24 44,24 44,5 	"/>
</g>
<g class="shadowGroup2">
	<path  d="M34.7,29.3L25,39.1V14.5h-1V39l-9.7-9.7L13.6,30l10.9,11l10.9-10.9L34.7,29.3z"/>
	<rect x="19" y="18" width="4" height="1"/>
	<rect x="26" y="18" width="4" height="1"/>
	<path d="M29,12.5C29,10,27,8,24.5,8S20,10,20,12.5c0,2,1.2,3.6,3,4.2v-1.1c-1.2-0.6-2-1.8-2-3.1c0-1.9,1.6-3.5,3.5-3.5
		s3.5,1.6,3.5,3.5c0,1.4-0.8,2.6-2,3.1v1.1C27.8,16.1,29,14.5,29,12.5z"/>
	<path d="M8,6v15h15v-1H12.2c0.3-0.4,0.4-0.8,0.4-1.3c0-1.3-1-2.3-2.3-2.3c-0.5,0-0.9,0.2-1.3,0.4v-6.6c0.4,0.3,0.8,0.4,1.3,0.4
		c1.3,0,2.3-1,2.3-2.3c0-0.5-0.2-0.9-0.4-1.3h24.2C36.1,7.4,36,7.8,36,8.3c0,1.3,1,2.3,2.2,2.3c0.7,0,1.4-0.4,1.8-1v7.8
		c-0.4-0.6-1.1-1-1.8-1c-1.2,0-2.2,1-2.2,2.3c0,0.5,0.1,0.9,0.4,1.3H26v1h15V6H8z"/>
	<polygon points="6,4 6,23 23,23 23,22 7,22 7,5 42,5 42,22 26,22 26,23 43,23 43,4 	"/>
</g>
<g class="shadowGroup3">
	<path  d="M33.7,28.3L24,38.1V13.5h-1V38l-9.7-9.7L12.6,29l10.9,11l10.9-10.9L33.7,28.3z"/>
	<rect x="18" y="17" width="4" height="1"/>
	<rect x="25" y="17" width="4" height="1"/>
	<path d="M28,11.5C28,9,26,7,23.5,7S19,9,19,11.5c0,2,1.2,3.6,3,4.2v-1.1c-1.2-0.6-2-1.8-2-3.1C20,9.6,21.6,8,23.5,8S27,9.6,27,11.5
		c0,1.4-0.8,2.6-2,3.1v1.1C26.8,15.1,28,13.5,28,11.5z"/>
	<path d="M7,5v15h15v-1H11.2c0.3-0.4,0.4-0.8,0.4-1.3c0-1.3-1-2.3-2.3-2.3c-0.5,0-0.9,0.2-1.3,0.4V9.2c0.4,0.3,0.8,0.4,1.3,0.4
		c1.3,0,2.3-1,2.3-2.3c0-0.5-0.2-0.9-0.4-1.3h24.2C35.1,6.4,35,6.8,35,7.3c0,1.3,1,2.3,2.2,2.3c0.7,0,1.4-0.4,1.8-1v7.8
		c-0.4-0.6-1.1-1-1.8-1c-1.2,0-2.2,1-2.2,2.3c0,0.5,0.1,0.9,0.4,1.3H25v1h15V5H7z"/>
	<polygon points="5,3 5,22 22,22 22,21 6,21 6,4 41,4 41,21 25,21 25,22 42,22 42,3 	"/>
</g>
<g>
	<path class="fillColor" d="M32.7,27.3L23,37.1V12.5h-1V37l-9.7-9.7L11.6,28l10.9,11l10.9-10.9L32.7,27.3z"/>
	<rect x="17" y="16" class="fillColor" width="4" height="1"/>
	<rect x="24" y="16" class="fillColor" width="4" height="1"/>
	<path class="fillColor" d="M27,10.5C27,8,25,6,22.5,6S18,8,18,10.5c0,2,1.2,3.6,3,4.2v-1.1c-1.2-0.6-2-1.8-2-3.1C19,8.6,20.6,7,22.5,7
		S26,8.6,26,10.5c0,1.4-0.8,2.6-2,3.1v1.1C25.8,14.1,27,12.5,27,10.5z"/>
	<path class="fillColor" d="M6,4v15h15v-1H10.2c0.3-0.4,0.4-0.8,0.4-1.3c0-1.3-1-2.3-2.3-2.3c-0.5,0-0.9,0.2-1.3,0.4V8.2
		c0.4,0.3,0.8,0.4,1.3,0.4c1.3,0,2.3-1,2.3-2.3c0-0.5-0.2-0.9-0.4-1.3h24.2C34.1,5.4,34,5.8,34,6.3c0,1.3,1,2.3,2.2,2.3
		c0.7,0,1.4-0.4,1.8-1v7.8c-0.4-0.6-1.1-1-1.8-1c-1.2,0-2.2,1-2.2,2.3c0,0.5,0.1,0.9,0.4,1.3H24v1h15V4H6z"/>
	<polygon class="fillColor" points="4,2 4,21 21,21 21,20 5,20 5,3 40,3 40,20 24,20 24,21 41,21 41,2 	"/>
</g>
</svg>
