<?xml version="1.0" encoding="utf-8"?>
<!-- Generator: Adobe Illustrator 18.0.0, SVG Export Plug-In . SVG Version: 6.00 Build 0)  -->
<!DOCTYPE svg PUBLIC "-//W3C//DTD SVG 1.1//EN" "http://www.w3.org/Graphics/SVG/1.1/DTD/svg11.dtd">
<svg version="1.1" id="Ebene_1" xmlns="http://www.w3.org/2000/svg" xmlns:xlink="http://www.w3.org/1999/xlink" x="0px" y="0px"
	 viewBox="0 0 45 45" enable-background="new 0 0 45 45" xml:space="preserve">
	 <style type="text/css">
			@import "../default/default/svg.css";
	</style>
	 <script type="text/javascript">
         <![CDATA[
             if(window.parent && window.parent.Wincor && window.parent.Wincor.UI && window.parent.Wincor.UI.Content) {
                 let styleRes = window.parent.Wincor.UI.Content.StyleResourceResolver;
                 if(styleRes) {
                 	let style = document.getElementsByTagName("style")[0];
                 	if(style.innerHTML) {
                    	style.innerHTML = style.innerHTML.replace("default/svg.css", styleRes.type() + "svg.css");
                    }
                    else {
                    	style.textContent = style.textContent.replace("default/svg.css", styleRes.type() + "svg.css");
                    }
                    styleRes = null;
                 }
             }
         ]]>
    </script>	
<g class="shadowGroup1">
	<rect x="13.4" y="14" width="5.7" height="0.8"/>
	<rect x="18.9" y="14" width="3.1" height="0.8"/>
	<path d="M4.8,4.6v11.7h11.7v-0.8H8.1c0.2-0.3,0.3-0.6,0.3-1c0-1-0.8-1.8-1.8-1.8c-0.4,0-0.7,0.2-1,0.3V7.9c0.3,0.2,0.6,0.3,1,0.3
		c1,0,1.8-0.8,1.8-1.8c0-0.4-0.2-0.7-0.3-1H27c-0.2,0.3-0.3,0.6-0.3,1c0,1,0.8,1.8,1.7,1.8c0.5,0,1.1-0.3,1.4-0.8v6.1
		c-0.3-0.5-0.9-0.8-1.4-0.8c-0.9,0-1.7,0.8-1.7,1.8c0,0.4,0.1,0.7,0.3,1l3.6,0V4.6H4.8z"/>
	<polygon points="3.2,3.1 3.2,17.9 16.5,17.9 16.5,17.1 4,17.1 4,3.8 31.3,3.8 31.3,15.5 32.1,15.5 32.1,3.1 	"/>
	<path d="M31.8,35.5l-6.9,7l0-15.8h-0.7l0,15.8l-6.9-6.9L16.7,36l7.8,7.8l7.8-7.8L31.8,35.5z"/>
	<rect x="19.5" y="21" width="22.2" height="0.7"/>
	<rect x="19.5" y="23.1" width="22.2" height="0.7"/>
	<rect x="19.5" y="18.1" width="5" height="0.7"/>
	<rect x="36.6" y="18.1" width="5" height="0.7"/>
	<rect x="33.8" y="26.7" width="7.9" height="0.7"/>
	<polygon points="17.3,16 17.3,29.5 22.9,29.5 22.9,28.8 18.1,28.8 18.1,16.7 43.1,16.7 43.1,28.8 25.8,28.8 25.8,29.5 43.8,29.5 
		43.8,16 	"/>
	<circle fill="none" stroke="#000000" stroke-width="0.75" cx="17.7" cy="9.7" r="3.5"/>
</g>
<g class="shadowGroup2">
	<rect x="12.7" y="13.4" width="5.7" height="0.8"/>
	<rect x="18.1" y="13.4" width="3.1" height="0.8"/>
	<path d="M4.1,4.1v11.7h11.7V15H7.4c0.2-0.3,0.3-0.6,0.3-1c0-1-0.8-1.8-1.8-1.8c-0.4,0-0.7,0.2-1,0.3V7.4c0.3,0.2,0.6,0.3,1,0.3
		c1,0,1.8-0.8,1.8-1.8c0-0.4-0.2-0.7-0.3-1h18.9C26,5.2,26,5.5,26,5.9c0,1,0.8,1.8,1.7,1.8c0.5,0,1.1-0.3,1.4-0.8V13
		c-0.3-0.5-0.9-0.8-1.4-0.8C26.7,12.2,26,13,26,14c0,0.4,0.1,0.7,0.3,1l3.6,0V4.1H4.1z"/>
	<polygon points="2.5,2.5 2.5,17.4 15.8,17.4 15.8,16.6 3.3,16.6 3.3,3.3 30.6,3.3 30.6,15 31.4,15 31.4,2.5 	"/>
	<path d="M31.1,34.9l-6.9,7l0-15.8l-0.7,0l0,15.8L16.5,35L16,35.5l7.8,7.8l7.8-7.8L31.1,34.9z"/>
	<rect x="18.8" y="20.4" width="22.2" height="0.7"/>
	<rect x="18.8" y="22.6" width="22.2" height="0.7"/>
	<rect x="18.8" y="17.6" width="5" height="0.7"/>
	<rect x="35.9" y="17.6" width="5" height="0.7"/>
	<rect x="33.1" y="26.1" width="7.9" height="0.7"/>
	<polygon points="16.6,15.4 16.6,29 22.2,29 22.2,28.3 17.3,28.3 17.3,16.1 42.4,16.1 42.4,28.3 25.1,28.3 25.1,29 43.1,29 
		43.1,15.4 	"/>
	<circle fill="none" stroke="#000000" stroke-width="0.75" cx="17" cy="9.1" r="3.5"/>
</g>
<g class="shadowGroup3">
	<rect x="12" y="12.8" width="5.7" height="0.8"/>
	<rect x="17.5" y="12.8" width="3.1" height="0.8"/>
	<path d="M3.4,3.4v11.7h11.7v-0.8H6.7C6.9,14,7,13.7,7,13.3c0-1-0.8-1.8-1.8-1.8c-0.4,0-0.7,0.2-1,0.3V6.7C4.5,6.9,4.8,7,5.2,7
		C6.2,7,7,6.2,7,5.2c0-0.4-0.2-0.7-0.3-1h18.9c-0.2,0.3-0.3,0.6-0.3,1c0,1,0.8,1.8,1.7,1.8c0.5,0,1.1-0.3,1.4-0.8v6.1
		c-0.3-0.5-0.9-0.8-1.4-0.8c-0.9,0-1.7,0.8-1.7,1.8c0,0.4,0.1,0.7,0.3,1l3.6,0V3.4H3.4z"/>
	<polygon points="1.9,1.9 1.9,16.7 15.1,16.7 15.1,15.9 2.6,15.9 2.6,2.6 30,2.6 30,14.3 30.7,14.3 30.7,1.9 	"/>
	<path d="M30.4,34.3l-6.9,7l0-15.8h-0.7l0,15.8l-6.9-6.9l-0.5,0.5l7.8,7.8l7.8-7.8L30.4,34.3z"/>
	<rect x="18.1" y="19.8" width="22.2" height="0.7"/>
	<rect x="18.1" y="21.9" width="22.2" height="0.7"/>
	<rect x="18.1" y="16.9" width="5" height="0.7"/>
	<rect x="35.3" y="16.9" width="5" height="0.7"/>
	<rect x="32.4" y="25.5" width="7.9" height="0.7"/>
	<polygon points="16,14.8 16,28.3 21.5,28.3 21.5,27.6 16.7,27.6 16.7,15.5 41.7,15.5 41.7,27.6 24.5,27.6 24.5,28.3 42.4,28.3 
		42.4,14.8 	"/>
	<circle fill="none" stroke="#000000" stroke-width="0.75" cx="16.3" cy="8.5" r="3.5"/>
</g>
<g>
	<rect class="fillColor" x="11.3" y="12.1" width="5.7" height="0.8"/>
	<rect class="fillColor" x="16.8" y="12.1" width="3.1" height="0.8"/>
	<path class="fillColor" d="M2.7,2.7v11.7h11.7v-0.8H6c0.2-0.3,0.3-0.6,0.3-1c0-1-0.8-1.8-1.8-1.8c-0.4,0-0.7,0.2-1,0.3V6c0.3,0.2,0.6,0.3,1,0.3
		c1,0,1.8-0.8,1.8-1.8c0-0.4-0.2-0.7-0.3-1h18.9c-0.2,0.3-0.3,0.6-0.3,1c0,1,0.8,1.8,1.7,1.8c0.5,0,1.1-0.3,1.4-0.8v6.1
		c-0.3-0.5-0.9-0.8-1.4-0.8c-0.9,0-1.7,0.8-1.7,1.8c0,0.4,0.1,0.7,0.3,1l3.6,0V2.7H2.7z"/>
	<polygon class="fillColor" points="1.2,1.2 1.2,16 14.4,16 14.4,15.2 1.9,15.2 1.9,2 29.3,2 29.3,13.6 30,13.6 30,1.2 	"/>
	<path class="fillColor" d="M29.7,33.6l-6.9,7l0-15.8H22l0,15.8l-6.9-6.9l-0.5,0.5l7.8,7.8l7.8-7.8L29.7,33.6z"/>
	<rect class="fillColor" x="17.4" y="19.1" width="22.2" height="0.7"/>
	<rect class="fillColor" x="17.4" y="21.2" width="22.2" height="0.7"/>
	<rect class="fillColor" x="17.4" y="16.2" width="5" height="0.7"/>
	<rect class="fillColor" x="34.6" y="16.2" width="5" height="0.7"/>
	<rect class="fillColor" x="31.7" y="24.8" width="7.9" height="0.7"/>
	<polygon class="fillColor" points="15.3,14.1 15.3,27.7 20.8,27.7 20.8,27 16,27 16,14.8 41,14.8 41,27 23.7,27 23.7,27.7 41.7,27.7 41.7,14.1 	"/>
	<circle class="strokeColor" fill="none" stroke="#000000" stroke-width="0.75" cx="15.6" cy="7.8" r="3.5"/>
</g>
</svg>
