<?xml version="1.0" encoding="utf-8"?>
<!-- Generator: Adobe Illustrator 18.0.0, SVG Export Plug-In . SVG Version: 6.00 Build 0)  -->
<!DOCTYPE svg PUBLIC "-//W3C//DTD SVG 1.1//EN" "http://www.w3.org/Graphics/SVG/1.1/DTD/svg11.dtd">
<svg version="1.1" id="Layer_1" xmlns="http://www.w3.org/2000/svg" xmlns:xlink="http://www.w3.org/1999/xlink" x="0px" y="0px"
	 viewBox="0 0 45 45" enable-background="new 0 0 45 45" xml:space="preserve">
	  <style type="text/css">
			@import "../default/default/svg.css";
	</style>
	 <script type="text/javascript">
         <![CDATA[
             if(window.parent && window.parent.Wincor && window.parent.Wincor.UI && window.parent.Wincor.UI.Content) {
                 let styleRes = window.parent.Wincor.UI.Content.StyleResourceResolver;
                 if(styleRes) {
                 	let style = document.getElementsByTagName("style")[0];
                 	if(style.innerHTML) {
                    	style.innerHTML = style.innerHTML.replace("default/svg.css", styleRes.type() + "svg.css");
                    }
                    else {
                    	style.textContent = style.textContent.replace("default/svg.css", styleRes.type() + "svg.css");
                    }
                    styleRes = null;
                 }
             }
         ]]>
    </script>	
<g class="shadowGroup1">
	<path d="M31.7,33.3L22,43.1V22h-1v21l-9.7-9.7L10.6,34l10.9,11l10.9-10.9L31.7,33.3z"/>
	<path fill="none" stroke="#000000" stroke-width="0.25" stroke-miterlimit="10" d="M34.5,19.3c0,3.7-3,6.7-6.7,6.7
		c-1.3,0-3.6-0.9-4.8-1.6l0,2c1.4,1.1,3.2,1.7,5.1,1.7c4.7,0,8.5-4,8.5-8.7c0-3.7-2.4-7-6-8.1c0.2,0.6,0.3,1.3,0.3,2
		C33,14.6,34.5,16.8,34.5,19.3z"/>
	<path fill="none" stroke="#000000" stroke-width="0.25" stroke-miterlimit="10" d="M29,14.1c0-4.7-3.8-8.5-8.5-8.5S12,9.4,12,14.1
		c0,4.5,3.6,8.2,8,8.5V21h2.9v1.2C26.4,21.2,29,17.9,29,14.1z M20.5,20.8c-3.7,0-6.7-3-6.7-6.7s3-6.7,6.7-6.7s6.7,3,6.7,6.7
		S24.2,20.8,20.5,20.8z"/>
	<circle cx="20.5" cy="14.1" r="6.7"/>
	<path d="M34.5,19.3c0-2.5-1.4-4.7-3.5-5.9c0,0.2,0,0.4,0,0.7c0,4.9-3.4,9.1-8,10.2v0.1c1.2,0.7,3.6,1.6,4.8,1.6
		C31.5,26,34.5,23,34.5,19.3z"/>
	<path d="M20,23v-0.4c-4.5-0.2-8-3.9-8-8.5c0-4.7,3.8-8.5,8.5-8.5S29,9.4,29,14.1c0,3.8-2.5,7.1-6,8.1v2.1c4.6-1.1,8-5.3,8-10.2
		c0-0.2,0-0.4,0-0.7c0-0.7-0.2-1.4-0.3-2c-0.4-0.1-0.9-0.3-1.4-0.3l0.3-2c0.1,0,0.1,0,0.2,0c-1.8-3.3-5.3-5.6-9.3-5.6
		C14.7,3.6,10,8.3,10,14.1c0,5.2,3.8,9.6,8.8,10.4c-0.1-0.2-0.3-0.5-0.4-0.8L20,23z"/>
	<path d="M29.7,9.2c-0.1,0-0.1,0-0.2,0l-0.3,2c0.5,0.1,0.9,0.2,1.4,0.3c3.5,1.1,6,4.3,6,8.1c0,4.7-3.8,8.5-8.5,8.5
		c-1.9,0-3.7-0.7-5.1-1.7v2.4c1.5,0.9,3.3,1.3,5.1,1.3c5.8,0,10.5-4.7,10.5-10.5C38.6,14.3,34.8,10,29.7,9.2z"/>
	<path d="M20,23l-1.6,0.7c0.1,0.3,0.2,0.5,0.4,0.8c0.3,0.6,0.7,1.2,1.2,1.8V23z"/>
</g>
<g class="shadowGroup2">
	<path d="M30.7,32.3L21,42.1V21h-1v21l-9.7-9.7L9.6,33l10.9,11l10.9-10.9L30.7,32.3z"/>
	<path fill="none" stroke="#000000" stroke-width="0.25" stroke-miterlimit="10" d="M28,13.1c0-4.7-3.8-8.5-8.5-8.5S11,8.4,11,13.1
		c0,4.5,3.6,8.2,8,8.5V20h2.9v1.2C25.4,20.2,28,16.9,28,13.1z M19.5,19.8c-3.7,0-6.7-3-6.7-6.7s3-6.7,6.7-6.7s6.7,3,6.7,6.7
		S23.2,19.8,19.5,19.8z"/>
	<path fill="none" stroke="#000000" stroke-width="0.25" stroke-miterlimit="10" d="M33.5,18.3c0,3.7-3,6.7-6.7,6.7
		c-1.3,0-3.6-0.9-4.8-1.6v1.8c1.4,1.1,3.2,1.9,5.1,1.9c4.7,0,8.5-4,8.5-8.7c0-3.7-2.4-7-6-8.1c0.2,0.6,0.3,1.3,0.3,2
		C32,13.6,33.5,15.8,33.5,18.3z"/>
	<circle cx="19.5" cy="13.1" r="6.7"/>
	<path d="M33.5,18.3c0-2.5-1.4-4.7-3.5-5.9c0,0.2,0,0.4,0,0.7c0,4.9-3.4,9.1-8,10.2v0.1c1.2,0.7,3.6,1.6,4.8,1.6
		C30.5,25,33.5,22,33.5,18.3z"/>
	<path d="M19,22v-0.4c-4.5-0.2-8-3.9-8-8.5c0-4.7,3.8-8.5,8.5-8.5S28,8.4,28,13.1c0,3.8-2.5,7.1-6,8.1v2.1c4.6-1.1,8-5.3,8-10.2
		c0-0.2,0-0.4,0-0.7c0-0.7-0.2-1.4-0.3-2c-0.4-0.1-0.9-0.3-1.4-0.3l0.3-2c0.1,0,0.1,0,0.2,0c-1.8-3.3-5.3-5.6-9.3-5.6
		C13.7,2.6,9,7.3,9,13.1c0,5.2,3.8,9.6,8.8,10.4c-0.1-0.2-0.3-0.5-0.4-0.8L19,22z"/>
	<path d="M28.7,8.2c-0.1,0-0.1,0-0.2,0l-0.3,2c0.5,0.1,0.9,0.2,1.4,0.3c3.5,1.1,6,4.3,6,8.1c0,4.7-3.8,8.5-8.5,8.5
		c-1.9,0-3.7-0.7-5.1-1.7v2.4c1.5,0.9,3.3,1.3,5.1,1.3c5.8,0,10.5-4.7,10.5-10.5C37.6,13.3,33.8,9,28.7,8.2z"/>
	<path d="M19,22l-1.6,0.7c0.1,0.3,0.2,0.5,0.4,0.8c0.3,0.6,0.7,1.2,1.2,1.8V22z"/>
</g>
<g class="shadowGroup3">
	<path d="M29.7,31.3L20,41.1V20h-1v21l-9.7-9.7L8.6,32l10.9,11l10.9-10.9L29.7,31.3z"/>
	<path fill="none" stroke="#000000" stroke-width="0.25" stroke-miterlimit="10" d="M27,12.1c0-4.7-3.8-8.5-8.5-8.5S10,7.4,10,12.1
		c0,4.5,3.6,8.2,8,8.5V19h2.9v1.2C24.4,19.2,27,15.9,27,12.1z M18.5,18.8c-3.7,0-6.7-3-6.7-6.7s3-6.7,6.7-6.7s6.7,3,6.7,6.7
		S22.2,18.8,18.5,18.8z"/>
	<path fill="none" stroke="#000000" stroke-width="0.25" stroke-miterlimit="10" d="M32.5,17.3c0,3.7-3,6.7-6.7,6.7
		c-1.3,0-3.6-0.9-4.8-1.6v1.8c1.4,1.1,3.2,1.7,5.1,1.7c4.7,0,8.5-3.8,8.5-8.5c0-3.7-2.4-7-6-8.1c0.2,0.6,0.3,1.3,0.3,2
		C31,12.6,32.5,14.8,32.5,17.3z"/>
	<circle cx="18.5" cy="12.1" r="6.7"/>
	<path d="M32.5,17.3c0-2.5-1.4-4.7-3.5-5.9c0,0.2,0,0.4,0,0.7c0,4.9-3.4,9.1-8,10.2v0.1c1.2,0.7,3.6,1.6,4.8,1.6
		C29.5,24,32.5,21,32.5,17.3z"/>
	<path d="M18,21v-0.4c-4.5-0.2-8-3.9-8-8.5c0-4.7,3.8-8.5,8.5-8.5S27,7.4,27,12.1c0,3.8-2.5,7.1-6,8.1v2.1c4.6-1.1,8-5.3,8-10.2
		c0-0.2,0-0.4,0-0.7c0-0.7-0.2-1.4-0.3-2c-0.4-0.1-0.9-0.3-1.4-0.3l0.3-2c0.1,0,0.1,0,0.2,0c-1.8-3.3-5.3-5.6-9.3-5.6
		C12.7,1.6,8,6.3,8,12.1c0,5.2,3.8,9.6,8.8,10.4c-0.1-0.2-0.3-0.5-0.4-0.8L18,21z"/>
	<path d="M27.7,7.2c-0.1,0-0.1,0-0.2,0l-0.3,2c0.5,0.1,0.9,0.2,1.4,0.3c3.5,1.1,6,4.3,6,8.1c0,4.7-3.8,8.5-8.5,8.5
		c-1.9,0-3.7-0.7-5.1-1.7v2.4c1.5,0.9,3.3,1.3,5.1,1.3c5.8,0,10.5-4.7,10.5-10.5C36.6,12.3,32.8,8,27.7,7.2z"/>
	<path d="M18,21l-1.6,0.7c0.1,0.3,0.2,0.5,0.4,0.8c0.3,0.6,0.7,1.2,1.2,1.8V21z"/>
</g>
<g>
	<path class="fillColor" d="M28.7,30.3L19,40.1V19h-1v21l-9.7-9.7L7.6,31l10.9,11l10.9-10.9L28.7,30.3z"/>
	<path class="strokeColor" fill="none" stroke="#000000" stroke-width="0.25" stroke-miterlimit="10" d="M26,11.1c0-4.7-3.8-8.5-8.5-8.5S9,6.4,9,11.1
		c0,4.5,3.6,8.2,8,8.5V18h2.9v1.2C23.4,18.2,26,14.9,26,11.1z M17.5,17.8c-3.7,0-6.7-3-6.7-6.7s3-6.7,6.7-6.7s6.7,3,6.7,6.7
		S21.2,17.8,17.5,17.8z"/>
	<path class="strokeColor" fill="none" stroke="#000000" stroke-width="0.25" stroke-miterlimit="10" d="M31.5,16.3c0,3.7-3,6.7-6.7,6.7
		c-1.3,0-3.6-0.9-4.8-1.6l0,2c1.4,1.1,3.4,1.7,5.3,1.7c4.7,0,8.3-4,8.3-8.7c0-3.7-2.4-7-6-8.1c0.2,0.6,0.3,1.3,0.3,2
		C30,11.6,31.5,13.8,31.5,16.3z"/>
	<circle class="fillColor" cx="17.5" cy="11.1" r="6.7"/>
	<path class="fillColor" d="M31.5,16.3c0-2.5-1.5-4.8-3.6-6c0,0.2,0,0.4,0,0.7c0,4.9-3.4,9.1-8,10.2l0.1,0.2c1.2,0.7,3.6,1.6,4.8,1.6
		C28.5,23,31.5,20,31.5,16.3z"/>
	<path class="fillColor" d="M17,20v-0.4c-4.5-0.2-8-3.9-8-8.5c0-4.7,3.8-8.5,8.5-8.5S26,6.4,26,11.1c0,3.8-2.5,7.1-6,8.1v2.1c4.6-1.1,8-5.3,8-10.2
		c0-0.2,0-0.4,0-0.7c0-0.7-0.2-1.4-0.3-2c-0.4-0.1-0.9-0.3-1.4-0.3l0.3-2c0.1,0,0.1,0,0.2,0c-1.8-3.3-5.3-5.6-9.3-5.6
		C11.7,0.6,7,5.3,7,11.1c0,5.2,3.8,9.6,8.8,10.4c-0.1-0.2-0.3-0.5-0.4-0.8L17,20z"/>
	<path class="fillColor" d="M26.7,6.2c-0.1,0-0.1,0-0.2,0l-0.3,2c0.5,0.1,0.9,0.2,1.4,0.3c3.5,1.1,6,4.3,6,8.1c0,4.7-3.8,8.5-8.5,8.5
		c-1.9,0-3.7-0.7-5.1-1.7v2.4c1.5,0.9,3.3,1.3,5.1,1.3c5.8,0,10.5-4.7,10.5-10.5C35.6,11.3,31.8,7,26.7,6.2z"/>
	<path class="fillColor" d="M17,20l-1.6,0.7c0.1,0.3,0.2,0.5,0.4,0.8c0.3,0.6,0.7,1.2,1.2,1.8V20z"/>
</g>
</svg>
