<?xml version="1.0" encoding="utf-8"?>
<!-- Generator: Adobe Illustrator 18.0.0, SVG Export Plug-In . SVG Version: 6.00 Build 0)  -->
<!DOCTYPE svg PUBLIC "-//W3C//DTD SVG 1.1//EN" "http://www.w3.org/Graphics/SVG/1.1/DTD/svg11.dtd">
<svg version="1.1" id="Layer_1" xmlns="http://www.w3.org/2000/svg" xmlns:xlink="http://www.w3.org/1999/xlink" x="0px" y="0px"
	 viewBox="0 0 45 45" enable-background="new 0 0 45 45" xml:space="preserve">
	 <style type="text/css">
             @import "../default/default/svg.css";
     </style>
	 <script type="text/javascript">
         <![CDATA[
             if(window.parent && window.parent.Wincor && window.parent.Wincor.UI && window.parent.Wincor.UI.Content) {
                 let styleRes = window.parent.Wincor.UI.Content.StyleResourceResolver;
                 if(styleRes) {
                 	let style = document.getElementsByTagName("style")[0];
                   	style.innerHTML = style.innerHTML.replace("default/svg.css", styleRes.type() + "svg.css");
                    styleRes = null;
                 }
             }
         ]]>
    </script>

<g class="shadowGroup1">
	<path d="M35.7,30.3L26,40.1V18h-1v22.1l-9.7-9.7l-0.7,0.7L25.5,42l10.9-10.9L35.7,30.3z"/>
	<rect x="10" y="12" width="31" height="1"/>
	<rect x="10" y="15" width="31" height="1"/>
	<rect x="10" y="8" width="7" height="1"/>
	<rect x="34" y="8" width="7" height="1"/>
	<rect x="30" y="20" width="11" height="1"/>
	<polygon points="7,5 7,24 24,24 24,23 8,23 8,6 43,6 43,23 27,23 27,24 44,24 44,5 	"/>
</g>
<g class="shadowGroup2">
	<path d="M34.7,29.3L25,39.1V17h-1v22.1l-9.7-9.7l-0.7,0.7L24.5,41l10.9-10.9L34.7,29.3z"/>
	<rect x="9" y="11" width="31" height="1"/>
	<rect x="9" y="14" width="31" height="1"/>
	<rect x="9" y="7" width="7" height="1"/>
	<rect x="33" y="7" width="7" height="1"/>
	<rect x="29" y="19" width="11" height="1"/>
	<polygon points="6,4 6,23 23,23 23,22 7,22 7,5 42,5 42,22 26,22 26,23 43,23 43,4 	"/>
</g>
<g class="shadowGroup3">
	<path d="M33.7,28.3L24,38.1V16h-1v22.1l-9.7-9.7l-0.7,0.7L23.5,40l10.9-10.9L33.7,28.3z"/>
	<rect x="8" y="10" width="31" height="1"/>
	<rect x="8" y="13" width="31" height="1"/>
	<rect x="8" y="6" width="7" height="1"/>
	<rect x="32" y="6" width="7" height="1"/>
	<rect x="28" y="18" width="11" height="1"/>
	<polygon points="5,3 5,22 22,22 22,21 6,21 6,4 41,4 41,21 25,21 25,22 42,22 42,3 	"/>
</g>
<g>
	<path class="fillColor" d="M32.7,27.3L23,37.1V15h-1v22.1l-9.7-9.7l-0.7,0.7L22.5,39l10.9-10.9L32.7,27.3z"/>
	<rect class="fillColor" x="7" y="9" width="31" height="1"/>
	<rect class="fillColor" x="7" y="12" width="31" height="1"/>
	<rect class="fillColor" x="7" y="5" width="7" height="1"/>
	<rect class="fillColor" x="31" y="5" width="7" height="1"/>
	<rect class="fillColor" x="27" y="17" width="11" height="1"/>
	<polygon class="fillColor" points="4,2 4,21 21,21 21,20 5,20 5,3 40,3 40,20 24,20 24,21 41,21 41,2 	"/>
</g>
</svg>
