<?xml version="1.0" encoding="utf-8"?>
<!-- Generator: Adobe Illustrator 17.1.0, SVG Export Plug-In . SVG Version: 6.00 Build 0)  -->
<!DOCTYPE svg PUBLIC "-//W3C//DTD SVG 1.1//EN" "http://www.w3.org/Graphics/SVG/1.1/DTD/svg11.dtd">
<svg version="1.1" id="Layer_1" xmlns="http://www.w3.org/2000/svg" xmlns:xlink="http://www.w3.org/1999/xlink" x="0px" y="0px"
	 viewBox="0 0 200 200" enable-background="new 0 0 200 200" xml:space="preserve">
	<style type="text/css">
			@import "../default/default/svg.css";
	</style>
	 <script type="text/javascript">
         <![CDATA[
             if(window.parent && window.parent.Wincor && window.parent.Wincor.UI && window.parent.Wincor.UI.Content) {
                 let styleRes = window.parent.Wincor.UI.Content.StyleResourceResolver;
                 if(styleRes) {
                 	let style = document.getElementsByTagName("style")[0];
                   	style.innerHTML = style.innerHTML.replace("default/svg.css", styleRes.type() + "svg.css");
                    styleRes = null;
                 }
             }
         ]]>
    </script>
<path class="deviceOutOfServiceColor" d="M100,0C45,0,0.3,44.7,0.3,99.7c0,55,44.7,99.7,99.7,99.7c55,0,99.7-44.7,99.7-99.7C199.7,44.7,155,0,100,0z
	 M179.7,99.7c0,18.4-6.3,35.3-16.8,48.8L51.2,36.8C64.7,26.3,81.6,20,100,20C144,20,179.7,55.8,179.7,99.7z M20.3,99.7
	c0-18.4,6.3-35.3,16.8-48.8l111.8,111.8c-13.5,10.5-30.4,16.8-48.8,16.8C56,179.4,20.3,143.7,20.3,99.7z"/>
</svg>
