<?xml version="1.0" encoding="utf-8"?>
<!-- Generator: Adobe Illustrator 22.1.0, SVG Export Plug-In . SVG Version: 6.00 Build 0)  -->
<svg version="1.1" id="Layer_1" xmlns="http://www.w3.org/2000/svg" xmlns:xlink="http://www.w3.org/1999/xlink" x="0px" y="0px"
	 viewBox="0 0 513.8 394.6" style="enable-background:new 0 0 513.8 394.6;" xml:space="preserve">
<path d="M366.6,0c-44,0.4-83.2,20.7-109.8,52.7C230,20.5,190.2,0,145.8,0H0v298.9h145.8c28,0,54-8.2,76.2-22.1v22.1h69.6V149.4
	c0-43.9,35.4-79.3,78.6-78.1c41.4,1.2,74,37.3,74,79.7v147.8h69.6v-147C513.6,69.1,447.4-0.6,366.6,0z M145.8,227.6H69.6V71.3h76.2
	c42,0,76.2,35.1,76.2,78.1C222,192.5,187.8,227.6,145.8,227.6z"/>
<g>
	<g>
		<path d="M127.8,352.4c-5.6,0-10.4,2.5-14.2,7.6v-23h-6.8v56.6h6.8v-6.4c3.8,4.7,8.4,7.2,14.2,7.2c9.2,0,18.8-7.4,18.8-21.1v-0.2
			C146.6,359.8,137,352.4,127.8,352.4z M139.8,373.5c0,8.6-5.4,14.6-13,14.6c-6.6,0-13.4-5.5-13.4-14.6v-0.2c0-7,5-14.6,13.4-14.6
			C134.2,358.8,139.8,364.9,139.8,373.5L139.8,373.5z M52.2,393.6H59v-38.9h-6.8V393.6z M83.6,352.4c-10.8,0-19,9-19,21.1
			c0,12.1,8.4,21.1,19.6,21.1c6.6,0,11.6-2.3,16.2-7.6l0.4-0.4l-4.4-4.1l-0.4,0.4c-3.4,3.7-7.2,5.3-11.8,5.3
			c-6.8,0-12-4.7-12.8-11.9h30.4V376c0-1,0-1.6,0-2.1C102,361,94.6,352.4,83.6,352.4z M71.6,370.6c1-7.2,5.8-12.1,11.8-12.1
			c7.4,0,10.8,6.1,11.6,12.1H71.6z M18.6,339.3H0v54.3h18.6c16.4,0,28.2-11.5,28.2-27.3v-0.2C46.8,350.8,35,339.3,18.6,339.3z
			 M39.6,366.7c0,11.9-8.6,20.3-21,20.3H7v-41h11.6C31,346,39.6,354.4,39.6,366.7L39.6,366.7z M170.8,352.4
			c-11.6,0-20.6,9.2-20.6,21.1v0.2c0,11.7,9,20.9,20.4,20.9c11.6,0,20.6-9.2,20.6-21.1v-0.2C191.4,361.6,182.4,352.4,170.8,352.4z
			 M184.4,373.7c0,8.4-5.8,14.6-13.6,14.6c-7.6,0-13.6-6.6-13.6-14.8v-0.2c0-8.4,5.8-14.6,13.4-14.6
			C178.4,358.8,184.4,365.1,184.4,373.7L184.4,373.7z M323.4,393.6h6.8v-40.4h-6.8V393.6z M468,361.6v-8.4h-6.8v40.4h6.8v-16.2
			c0-10.7,5.8-17.4,14.6-17.4h1v-7.4H483C476.8,352.4,471.4,355.7,468,361.6z M436.4,352.4c-11.6,0-20.6,9.2-20.6,21.1v0.2
			c0,11.7,9,20.9,20.4,20.9c11.6,0,20.6-9.2,20.6-21.1v-0.2C457,361.6,448,352.4,436.4,352.4z M450,373.7c0,8.4-5.8,14.6-13.6,14.6
			c-7.6,0-13.6-6.6-13.6-14.8v-0.2c0-8.4,5.8-14.6,13.4-14.6S450,365.1,450,373.7L450,373.7z M194.8,393.6h6.8V337h-6.8V393.6z
			 M507.2,343c1.8,0,3.2,0.4,5.4,1l0.6,0.2V338l-0.4-0.2c-2-0.8-3.8-1-6.4-1c-3.6,0-6.6,1-8.6,3.3c-2.2,2.3-3.4,5.9-3.4,10.5v2.9
			h-5.2v6.1h5.2v34.2h6.8v-34.2h12v-6.1H501v-2.7C501,345.4,503,343,507.2,343z M405,359.6c-3.8-4.7-8.4-7.2-14.2-7.2
			c-9.2,0-18.8,7.4-18.8,21.1v0.2c0,13.5,9.8,20.9,18.8,20.9c5.6,0,10.4-2.5,14.2-7.6v6.8h6.8v-56.6H405V359.6z M405.2,373.5
			c0,7-5,14.6-13.4,14.6c-7.6,0-13-6.1-13-14.6v-0.2c0-8.6,5.4-14.6,13-14.6C398.4,358.8,405.2,364.3,405.2,373.5L405.2,373.5z
			 M373.4,353.2h-7.8l-11,14.8l-11-14.8h-7.8l14.8,19.9l-15.4,20.5h7.8l11.6-15.8l11.6,15.8h8l-15.6-20.7L373.4,353.2z M307.2,380.9
			l-32-41.6H269v54.3h6.8V351l32.6,42.4l0.2,0.2h5.4v-54.3h-6.8V380.9z M239.2,359.6c-3.8-4.7-8.4-7.2-14.2-7.2
			c-9.2,0-18.8,7.4-18.8,21.1v0.2c0,13.5,9.8,20.9,18.8,20.9c5.6,0,10.4-2.5,14.2-7.6v6.8h6.8v-56.6h-6.8V359.6z M239.4,373.5
			c0,7-5,14.6-13.4,14.6c-7.6,0-13-6.1-13-14.6v-0.2c0-8.6,5.4-14.6,13-14.6C232.6,358.8,239.4,364.3,239.4,373.5L239.4,373.5z
			 M55.6,339.9c-2.4,0-4.2,1.8-4.2,4.3s1.8,4.3,4.2,4.3s4.2-1.8,4.2-4.3S58,339.9,55.6,339.9z M327,339.9c-2.4,0-4.2,1.8-4.2,4.3
			s1.8,4.3,4.2,4.3s4.2-1.8,4.2-4.3S329.4,339.9,327,339.9z"/>
	</g>
</g>
</svg>
