<?xml version="1.0" encoding="utf-8"?>
<!-- Generator: Adobe Illustrator 21.1.0, SVG Export Plug-In . SVG Version: 6.00 Build 0)  -->
<svg version="1.1" id="dn-wordmark-logo-pms" xmlns="http://www.w3.org/2000/svg" xmlns:xlink="http://www.w3.org/1999/xlink" x="0px" y="0px"
	 viewBox="0 0 450 187" style="enable-background:new 0 0 450 187;" xml:space="preserve">
<title>DN_Wordmark_logo_PMS</title>
<rect x="2.1" y="90.9" fill="#AC162C" width="446.4" height="6.3"/>
<g>
	<path fill="#014986" d="M28.4,2.2H2.3v73.1h26.1c23.1,0,40-15.4,40-36.6v-0.2C68.4,17.5,51.5,2.2,28.4,2.2z M59.2,38.7V39
		c0,16.8-12.7,28.5-30.8,28.5H11V10.1h17.4C46.5,10.1,59.2,21.9,59.2,38.7z M80.4,2.2h8.7v73.1h-8.7V2.2z M159.2,67.6H113V42.4h40.9
		v-7.8H113V10h45.7V2.2h-54.4v73.1h54.9V67.6z M230.9,55.3v-0.2c0-8.6-5.2-14.4-15.8-17.6c5.4-2.4,11.6-7.2,11.6-16.9v-0.2
		c0.1-4.4-1.7-8.6-4.9-11.8c-4.4-4.2-11.4-6.5-19.7-6.5h-32v73.1h33.4C220.5,75.3,230.9,67.6,230.9,55.3z M222.1,54.8
		c0,7.9-7,12.9-18.2,12.9h-25V42.3h23.5c12.8,0,19.8,4.4,19.8,12.3V54.8z M217.9,21.8c0,7.9-6.5,12.9-17.1,12.9h-22V9.9h22.6
		c10.3,0,16.4,4.4,16.4,11.8V21.8z M275.2,76.6c21.6,0,38.4-16.6,38.4-37.8v-0.2c0-7.8-2.3-15.6-6.8-22
		c-4.4-6.2-10.7-10.8-17.8-13.4c-15.1-5.3-32.8-1.1-43.3,11.2c-5.7,6.8-8.8,15.5-8.8,24.3V39C237,60.4,253.4,76.6,275.2,76.6z
		 M246.1,38.7v-0.2c0-12.2,7.1-23.6,18.7-27.9c11.7-4.3,25.2-0.8,33.1,8.9c4.4,5.4,6.7,12.3,6.7,19.3V39c0,12.2-7.1,23.6-18.7,27.9
		c-11.7,4.3-25.2,0.8-33.1-8.9C248.4,52.6,246.1,45.7,246.1,38.7z M373.9,67.4h-41.7V2.2h-8.8v73.1h50.5V67.4z M410,2.2h-26.1v73.1
		H410c23.2,0,40-15.4,40-36.6v-0.2C450,17.5,433.1,2.2,410,2.2z M440.9,38.7V39c0,16.8-12.7,28.5-30.8,28.5h-17.4V10.1H410
		C428.2,10.1,440.9,21.9,440.9,38.7z"/>
</g>
<g>
	<path fill="#014986" d="M57.3,170.7l-47-58.1H2.3v73.2h8.5v-59.5l47.9,59.2l0.3,0.3h6.9v-73.2h-8.5V170.7z M80.4,112.7h8.7v73.1h-8.7
		V112.7z M164.6,112.7h-10.3l-22.7,29.7l-22.9-29.7H98.4l27.8,35.8l-28.9,37.3h10.1l23.9-31.3l23.9,31.3h10.4l-28.9-37.4
		L164.6,112.7z M197.8,112.7h-26.1v73.1h26.1c23.2,0,40-15.4,40-36.6v-0.2C237.7,128,220.9,112.7,197.8,112.7z M228.7,149.2v0.2
		c0,16.8-12.7,28.5-30.8,28.5h-17.4v-57.3h17.4C216,120.6,228.7,132.4,228.7,149.2L228.7,149.2z M281.9,111.4
		c-21.6,0-38.4,16.6-38.4,37.8v0.2c0,7.8,2.3,15.6,6.8,22c4.4,6.2,10.7,10.8,17.8,13.4c15.1,5.3,32.8,1.1,43.3-11.2
		c5.7-6.8,8.8-15.4,8.8-24.3V149C320.1,127.6,303.7,111.4,281.9,111.4z M311,149.2v0.2c0,12.2-7.1,23.6-18.7,27.9
		c-11.7,4.3-25.2,0.8-33.1-8.9c-4.4-5.4-6.7-12.3-6.7-19.3V149c0-12.2,7.1-23.6,18.7-27.9c11.7-4.3,25.2-0.8,33.1,8.9
		C308.7,135.4,311,142.3,311,149.2z M386.2,134.7v-0.2c0.2-5.4-2-10.6-5.9-14.5c-4.8-4.7-12.4-7.3-21.4-7.3h-32.4v73.1h8.7v-28.3
		h21.1l21.7,28.3H389L366,156C378.8,153.6,386.2,145.8,386.2,134.7z M377.3,134.7v0.2c0,9-7.5,14.9-19.1,14.9h-22.8v-29.3h22.9
		C370.2,120.6,377.4,125.9,377.3,134.7L377.3,134.7z M394.3,185.8h8.8V154h40.5v-7.8h-40.5v-25.7h45.3v-7.9h-54.1V185.8z"/>
</g>
</svg>
