<?xml version="1.0" encoding="utf-8"?>
<!-- Generator: Adobe Illustrator 23.0.2, SVG Export Plug-In . SVG Version: 6.00 Build 0)  -->
<svg version="1.1" id="driving-license-back" xmlns="http://www.w3.org/2000/svg" xmlns:xlink="http://www.w3.org/1999/xlink" x="0px" y="0px"
	 viewBox="0 0 539.1 350.4" enable-background="new 0 0 539.1 350.4" xml:space="preserve">
<rect x="97.4" y="176.5" fill="#FFFFFF" width="30.5" height="3.7"/>
<polygon fill="#FFFFFF" points="145.8,162.9 138.5,140.6 85.7,140.6 78.5,162.9 "/>
<path fill="#FFFFFF" d="M148.7,178c0-4-3.3-7.4-7.2-7.4s-7.2,3.4-7.2,7.4s3.4,7.4,7.2,7.4S148.7,182,148.7,178z"/>
<path fill="#FFFFFF" d="M76.8,178c0,4,3.4,7.4,7.2,7.4s7.2-3.4,7.2-7.4s-3.3-7.4-7.2-7.4S76.8,174,76.8,178z"/>
<path fill-rule="evenodd" clip-rule="evenodd" fill="#FFFFFF" stroke="#FFFFFF" stroke-miterlimit="10" d="M286.4,142
	c0-8.2,4.6-14.9,10.1-14.9h127.1c5.6,0,10.1,6.7,10.1,14.9v10.1h-0.1c0,8.2-4.6,14.9-10.1,14.9h-127c-5.6,0-10.1-6.7-10.1-14.9V142z
	 M502.4,76.9c0-8.2-6.7-14.9-14.9-14.9h-187c-8.2,0-14.9,6.7-14.9,14.9v10.2c0,8.2,6.7,14.9,14.9,14.9h187c8.2,0,14.9-6.7,14.9-14.9
	V76.9z M502.5,215v-10.2c0-8.2-6.7-14.9-14.9-14.9H300.4c-8.2,0-14.9,6.7-14.9,14.9V215c0,8.2,6.7,14.9,14.9,14.9h187.2
	C495.8,229.9,502.5,223.2,502.5,215z M286.7,268.3c0-8.2,4.5-14.9,10-14.9H422c5.5,0,10,6.7,10,14.9v10.2c0,8.2-4.5,14.9-10,14.9
	H296.7c-5.5,0-10-6.7-10-14.9V268.3z M539.1,26.2v298.1c0,14.5-11.7,26.2-26.2,26.2H26.2C11.7,350.4,0,338.7,0,324.2v-298
	C0,11.7,11.7,0,26.2,0H513C527.4,0,539.1,11.7,539.1,26.2z M216.8,77.4h9V41.7h-9V77.4z M216.8,126.1h9V90.4h-9V126.1z M216.8,174.8
	h9v-35.7h-9V174.8z M216.8,223.6h9v-35.7h-9V223.6z M216.8,272.3h9v-35.7h-9V272.3z M216.8,321h9v-35.7h-9V321z M153.7,161
	c0-1.3-0.3-2.6-0.9-3.7l-9-16.1c-2.1-3.8-5.5-6-9.1-6H89.3c-4,0-7.6,2.8-9.5,7.4L71.4,163c-0.4,0.9-0.6,1.9-0.6,3v28.6
	c0,3.5,2.3,6.4,5,6.4h7.7c2.8,0,5-2.9,5-6.4s0-6.4,5-6.4h38.9c2.8,0,5,2.9,5,6.4s2.3,6.4,5,6.4h6c2.8,0,5-2.9,5-6.4L153.7,161
	L153.7,161z"/>
</svg>
