<?xml version="1.0" encoding="utf-8"?>
<!-- Generator: Adobe Illustrator 23.0.2, SVG Export Plug-In . SVG Version: 6.00 Build 0)  -->
<svg version="1.1" id="driving-license-front" xmlns="http://www.w3.org/2000/svg" xmlns:xlink="http://www.w3.org/1999/xlink" x="0px" y="0px"
	 viewBox="0 0 539.1 350.4" enable-background="new 0 0 539.1 350.4" xml:space="preserve">
<ellipse fill="#FFFFFF" cx="145.9" cy="104.2" rx="31.4" ry="26.8"/>
<rect x="115" y="277.6" fill="#FFFFFF" width="54" height="6.6"/>
<polygon fill="#FFFFFF" points="200.7,253.4 187.9,213.8 94.4,213.8 81.6,253.4 "/>
<path fill="#FFFFFF" d="M205.9,280.2c0-7.1-5.9-13.2-12.8-13.2c-6.9,0-12.8,6.1-12.8,13.2s6,13.2,12.8,13.2
	C199.9,293.4,205.9,287.3,205.9,280.2z"/>
<path fill="#FFFFFF" d="M78.6,280.2c0,7.1,6,13.2,12.8,13.2s12.8-6.1,12.8-13.2S98.3,267,91.4,267S78.6,273.1,78.6,280.2z"/>
<path fill-rule="evenodd" clip-rule="evenodd" fill="#FFFFFF" d="M286.4,142c0-8.2,4.6-14.9,10.1-14.9h127.1
	c5.6,0,10.1,6.7,10.1,14.9v10.1h-0.1c0,8.2-4.6,14.9-10.1,14.9h-127c-5.6,0-10.1-6.7-10.1-14.9V142z M502.4,76.9
	c0-8.2-6.7-14.9-14.9-14.9h-187c-8.2,0-14.9,6.7-14.9,14.9v10.2c0,8.2,6.7,14.9,14.9,14.9h187c8.2,0,14.9-6.7,14.9-14.9V76.9z
	 M502.5,215v-10.2c0-8.2-6.7-14.9-14.9-14.9H300.4c-8.2,0-14.9,6.7-14.9,14.9V215c0,8.2,6.7,14.9,14.9,14.9h187.2
	C495.8,229.9,502.5,223.2,502.5,215z M286.7,268.3c0-8.2,4.5-14.9,10-14.9H422c5.5,0,10,6.7,10,14.9v10.2c0,8.2-4.5,14.9-10,14.9
	H296.7c-5.5,0-10-6.7-10-14.9V268.3z M207.9,179.2l-0.1-108c0-5.3-5.8-9.8-13.1-9.8H97.2c-8.6,0-15.7,5.4-15.7,11.9v103.8
	c0,6.6,7,11.9,15.7,11.9c1.6,0,2.7-0.9,2.7-2c-0.1-4.8-0.1-16.3-0.1-16.3c0-11,11.8-19.7,26.2-19.7h37.2c14.5,0,26.2,8.8,26.2,19.7
	c0,0,0,11.6,0,16.3c0,1.1,1.3,2,2.7,2h2.7C202,189,207.9,184.6,207.9,179.2z M539.1,26.2v298.1c0,14.5-11.7,26.2-26.2,26.2H26.2
	C11.7,350.4,0,338.7,0,324.2v-298C0,11.7,11.7,0,26.2,0H513C527.4,0,539.1,11.7,539.1,26.2z M214.7,250c0-2.4-0.6-4.7-1.6-6.6
	l-15.9-28.7c-3.7-6.7-9.8-10.7-16.2-10.7h-80.3c-7.1,0-13.5,5-16.8,13.1L69,253.4c-0.7,1.6-1,3.4-1,5.3v50.9c0,6.3,4,11.4,8.9,11.4
	h13.7c4.9,0,8.9-5.1,8.9-11.4s0-11.4,8.9-11.4h68.9c4.9,0,8.9,5.1,8.9,11.4s4,11.4,8.9,11.4h10.7c4.9,0,8.9-5.1,8.9-11.4L214.7,250
	L214.7,250z"/>
</svg>
