<?xml version="1.0" encoding="utf-8"?>
<!-- Generator: Adobe Illustrator 18.0.0, SVG Export Plug-In . SVG Version: 6.00 Build 0)  -->
<!DOCTYPE svg PUBLIC "-//W3C//DTD SVG 1.1//EN" "http://www.w3.org/Graphics/SVG/1.1/DTD/svg11.dtd">
<svg version="1.1" id="Layer_1" xmlns="http://www.w3.org/2000/svg" xmlns:xlink="http://www.w3.org/1999/xlink" x="0px" y="0px"
	 viewBox="0 0 300 498" enable-background="new 0 0 300 498" xml:space="preserve">

<polygon fill="#FFFFFF" stroke="#275C68" points="292.543,3.543 145.333,192.313 6.813,2.625 "/>
<polygon fill="#FFFFFF" stroke="#275C68" points="293.374,495.484 143.307,300.889 6.728,495.337 "/>
<path display="none" opacity="0.5" fill="none" stroke="#275C68"  d="M7.085,3.229
	c0,0,141.636,191.116,158.671,216.385c13.992,18.681,13.256,34.521,1.039,49.517c-12.209,15.021-147.922,213.16-159.71,225.535"/>
<path fill="#FFFFFF" stroke="#275C68" d="M6.469,3.229c0,0,142.252,192.892,159.287,218.161
	c13.199,18.393,13.262,31.516,1.039,46.514C154.586,282.926,18.043,482.291,6.267,494.666L6.469,3.229z"/>
<polyline display="none" opacity="0.5" fill="none" stroke="#275C68"  points="292.432,3.499
	86.084,247.145 293.412,494.934 "/>
<polygon fill="#FFFFFF" stroke="#275C68" points="293.117,3.248 87.316,247.145 293.809,494.666 "/>
<rect x="6.191" y="3.341" display="none" fill="none" stroke="#275C68" width="287.057" height="491.917"/>
</svg>
