<?xml version="1.0" encoding="utf-8"?>
<!-- Generator: Adobe Illustrator 23.0.6, SVG Export Plug-In . SVG Version: 6.00 Build 0)  -->
<svg version="1.1" id="Layer_1" xmlns="http://www.w3.org/2000/svg" xmlns:xlink="http://www.w3.org/1999/xlink" x="0px" y="0px"
	 viewBox="0 0 498 300" style="enable-background:new 0 0 498 300;" xml:space="preserve">
<style type="text/css">
	.st0{fill:#FFFFFF;stroke:#275C68;stroke-miterlimit:10;}
	.st1{opacity:0.5;fill:none;stroke:#275C68;enable-background:new    ;}
	.st2{fill:#FFFFFF;stroke:#275C68;}
	.st3{fill:none;stroke:#275C68;}
	.st4{fill:#FFFFFF;}
	.st5{opacity:0.1;fill:#FFAA44;enable-background:new    ;}
	.st6{opacity:0.7;fill:#FFAA44;enable-background:new    ;}
	.st7{opacity:0.5;}
	.st8{fill:none;stroke:#FFFFFF;stroke-width:4.5;stroke-miterlimit:10;stroke-dasharray:10.4088,10.4088;}
	.st9{fill:#333333;}
	.st10{font-family:'ArialMT';}
	.st11{font-size:36px;}
	.st12{font-size:18px;}
	.st13{font-size:52.5px;}
	.st14{fill:#AA5500;}
	.st15{fill:#436EB3;}
	.st16{opacity:0.1;fill:#4C7B47;enable-background:new    ;}
	.st17{opacity:0.7;fill:#4C7B47;enable-background:new    ;}
	.st18{fill:#4C7B47;}
	.st19{opacity:0.1;fill:#EEEE00;enable-background:new    ;}
	.st20{opacity:0.7;fill:#EEEE00;enable-background:new    ;}
	.st21{fill:#AAAA00;}
	.st22{fill:#DAE8ED;}
	.st23{fill:#DA542E;}
	.st24{opacity:0.6;clip-path:url(#SVGID_2_);}
	.st25{fill:none;stroke:#DA542E;stroke-width:0.4;stroke-miterlimit:10;}
	.st26{fill:none;stroke:#000000;stroke-width:0.6;stroke-miterlimit:10;}
	.st27{fill:#0000B3;}
	.st28{fill:#95BDD4;}
	.st29{opacity:0.6;clip-path:url(#SVGID_4_);}
	.st30{fill:none;stroke:#95BDD4;stroke-width:0.4;stroke-miterlimit:10;}
</style>
<g>
	<polygon class="st0" points="244.7,3.8 61.8,127.1 61.6,295.8 430.4,295.8 430.6,127 	"/>
</g>
<polyline class="st1" points="61.8,127.1 244.6,3.5 430.6,127 "/>
<polyline class="st2" points="61.6,127.1 244.7,3.8 430.8,127.1 "/>
<g id="Ebene_3">
	<line class="st3" x1="62.5" y1="126.5" x2="429.8" y2="126.4"/>
</g>
<g>
	<rect id="BG_7_" x="113.8" y="34.9" class="st4" width="265.5" height="153"/>
	<rect id="BG_6_" x="113.8" y="34.9" class="st5" width="265.5" height="153"/>
	<rect id="noteColor_3_" x="170.9" y="34.9" class="st6" width="150" height="153"/>
	<g class="st7">
		<circle class="st8" cx="247.4" cy="112.9" r="49.6"/>
	</g>
	<g>
		<text id="valueLeft_3_" transform="matrix(1 0 0 1 113.8543 182.1764)" class="st9 st10 st11">50</text>
	</g>
	<g>
		<text id="currencyText_3_" transform="matrix(1 0 0 1 173.8543 167.6334)" class="st9 st10 st12">euro</text>
	</g>
	<g>
		<text id="valueRight_3_" transform="matrix(1 0 0 1 320.5506 79.3272)" class="st9 st10 st13">50</text>
	</g>
	<rect id="stripe_3_" x="173.9" y="169.9" class="st14" width="120" height="6"/>
	<rect x="122.8" y="46.9" class="st15" width="31.5" height="19.5"/>
</g>
<g>
	<rect id="BG_10_" x="114.3" y="67.1" class="st4" width="265.5" height="153"/>
	<rect id="BG_9_" x="114.3" y="67.1" class="st16" width="265.5" height="153"/>
	<rect id="noteColor_4_" x="171.3" y="67.1" class="st17" width="150" height="153"/>
	<g class="st7">
		<circle class="st8" cx="247.8" cy="145.1" r="49.6"/>
	</g>
	<g>
		<text id="valueLeft_4_" transform="matrix(1 0 0 1 114.3247 214.2614)" class="st9 st10 st11">100</text>
	</g>
	<g>
		<text id="currencyText_4_" transform="matrix(1 0 0 1 174.3247 199.7184)" class="st9 st10 st12">euro</text>
	</g>
	<g>
		<text id="valueRight_4_" transform="matrix(1 0 0 1 291.0211 111.4121)" class="st9 st10 st13">100</text>
	</g>
	<rect id="stripe_4_" x="174.3" y="202.1" class="st18" width="120" height="6"/>
	<rect x="123.3" y="79.1" class="st15" width="31.5" height="19.5"/>
</g>
<g>
	<rect id="BG_12_" x="114.2" y="97.3" class="st4" width="265.5" height="153"/>
	<rect id="BG_11_" x="114.2" y="97.3" class="st19" width="265.5" height="153"/>
	<rect id="noteColor_5_" x="171.3" y="97.3" class="st20" width="150" height="153"/>
	<g class="st7">
		<circle class="st8" cx="247.8" cy="175.3" r="49.6"/>
	</g>
	<g>
		<text id="valueLeft_5_" transform="matrix(1 0 0 1 114.2792 244.5979)" class="st9 st10 st11">200</text>
	</g>
	<g>
		<text id="currencyText_5_" transform="matrix(1 0 0 1 174.2792 230.0549)" class="st9 st10 st12">euro</text>
	</g>
	<g>
		<text id="valueRight_5_" transform="matrix(1 0 0 1 290.9755 141.7487)" class="st9 st10 st13">200</text>
	</g>
	<rect id="stripe_5_" x="174.3" y="232.3" class="st21" width="120" height="6"/>
	<rect x="123.2" y="109.3" class="st15" width="31.5" height="19.5"/>
</g>
<g>
	<g>
		<rect x="91.9" y="122" class="st22" width="308" height="132"/>
		<path id="valueColor01_1_" class="st23" d="M397.9,124v128h-304V124H397.9 M401.9,120h-312v136h312V120L401.9,120z"/>
	</g>
	<rect id="valueColor02_1_" x="89.9" y="243.3" class="st23" width="312" height="12.6"/>
	<g>
		<g>
			<g>
				<defs>
					<polygon id="SVGID_1_" points="401.9,256 89.9,255.9 89.9,120 401.9,120 					"/>
				</defs>
				<clipPath id="SVGID_2_">
					<use xlink:href="#SVGID_1_"  style="overflow:visible;"/>
				</clipPath>
				<g class="st24">
					<polyline class="st25" points="81,125.2 81,125.2 99.2,107 117.3,125.2 117.3,125.2 135.5,107 153.6,125.2 153.6,125.2 
						171.7,107 189.9,125.2 189.9,125.2 208,107 226.2,125.2 226.2,125.2 244.4,107 262.5,125.2 262.5,125.2 280.7,107 298.8,125.2 
						298.8,125.2 317,107 335.2,125.2 335.2,125.2 353.3,107 371.5,125.2 371.5,125.2 389.6,107 407.8,125.2 407.8,125.2 					"/>
					<polyline class="st25" points="81,130.3 81,130.3 99.2,112.2 117.3,130.3 117.3,130.3 135.5,112.2 153.6,130.3 153.6,130.3 
						171.7,112.2 189.9,130.3 189.9,130.3 208,112.2 226.2,130.3 226.2,130.3 244.4,112.2 262.5,130.3 262.5,130.3 280.7,112.2 
						298.8,130.3 298.8,130.3 317,112.2 335.2,130.3 335.2,130.3 353.3,112.2 371.5,130.3 371.5,130.3 389.6,112.2 407.8,130.3 
						407.8,130.3 					"/>
					<polyline class="st25" points="81,135.5 81,135.5 99.2,117.4 117.3,135.5 117.3,135.5 135.5,117.4 153.6,135.5 153.6,135.5 
						171.7,117.4 189.9,135.5 189.9,135.5 208,117.4 226.2,135.5 226.2,135.5 244.4,117.4 262.5,135.5 262.5,135.5 280.7,117.4 
						298.8,135.5 298.8,135.5 317,117.4 335.2,135.5 335.2,135.5 353.3,117.4 371.5,135.5 371.5,135.5 389.6,117.4 407.8,135.5 
						407.8,135.5 					"/>
					<polyline class="st25" points="81,140.7 81,140.7 99.2,122.6 117.3,140.7 117.3,140.7 135.5,122.6 153.6,140.7 153.6,140.7 
						171.7,122.6 189.9,140.7 189.9,140.7 208,122.6 226.2,140.7 226.2,140.7 244.4,122.6 262.5,140.7 262.5,140.7 280.7,122.6 
						298.8,140.7 298.8,140.7 317,122.6 335.2,140.7 335.2,140.7 353.3,122.6 371.5,140.7 371.5,140.7 389.6,122.6 407.8,140.7 
						407.8,140.7 					"/>
					<polyline class="st25" points="81,145.8 81,145.8 99.2,127.7 117.3,145.8 117.3,145.8 135.5,127.7 153.6,145.8 153.6,145.8 
						171.7,127.7 189.9,145.8 189.9,145.8 208,127.7 226.2,145.8 226.2,145.8 244.4,127.7 262.5,145.8 262.5,145.8 280.7,127.7 
						298.8,145.8 298.8,145.8 317,127.7 335.2,145.8 335.2,145.8 353.3,127.7 371.5,145.8 371.5,145.8 389.6,127.7 407.8,145.8 
						407.8,145.8 					"/>
					<polyline class="st25" points="81,151 81,151 99.2,132.9 117.3,151 117.3,151 135.5,132.9 153.6,151 153.6,151 171.7,132.9 
						189.9,151 189.9,151 208,132.9 226.2,151 226.2,151 244.4,132.9 262.5,151 262.5,151 280.7,132.9 298.8,151 298.8,151 
						317,132.9 335.2,151 335.2,151 353.3,132.9 371.5,151 371.5,151 389.6,132.9 407.8,151 407.8,151 					"/>
					<polyline class="st25" points="81,156.2 81,156.2 99.2,138 117.3,156.2 117.3,156.2 135.5,138 153.6,156.2 153.6,156.2 
						171.7,138 189.9,156.2 189.9,156.2 208,138 226.2,156.2 226.2,156.2 244.4,138 262.5,156.2 262.5,156.2 280.7,138 298.8,156.2 
						298.8,156.2 317,138 335.2,156.2 335.2,156.2 353.3,138 371.5,156.2 371.5,156.2 389.6,138 407.8,156.2 407.8,156.2 					"/>
					<polyline class="st25" points="81,161.4 81,161.4 99.2,143.2 117.3,161.4 117.3,161.4 135.5,143.2 153.6,161.4 153.6,161.4 
						171.7,143.2 189.9,161.4 189.9,161.4 208,143.2 226.2,161.4 226.2,161.4 244.4,143.2 262.5,161.4 262.5,161.4 280.7,143.2 
						298.8,161.4 298.8,161.4 317,143.2 335.2,161.4 335.2,161.4 353.3,143.2 371.5,161.4 371.5,161.4 389.6,143.2 407.8,161.4 
						407.8,161.4 					"/>
					<polyline class="st25" points="81,166.6 81,166.6 99.2,148.4 117.3,166.6 117.3,166.6 135.5,148.4 153.6,166.6 153.6,166.6 
						171.7,148.4 189.9,166.6 189.9,166.6 208,148.4 226.2,166.6 226.2,166.6 244.4,148.4 262.5,166.6 262.5,166.6 280.7,148.4 
						298.8,166.6 298.8,166.6 317,148.4 335.2,166.6 335.2,166.6 353.3,148.4 371.5,166.6 371.5,166.6 389.6,148.4 407.8,166.6 
						407.8,166.6 					"/>
					<polyline class="st25" points="81,171.7 81,171.7 99.2,153.5 117.3,171.7 117.3,171.7 135.5,153.5 153.6,171.7 153.6,171.7 
						171.7,153.5 189.9,171.7 189.9,171.7 208,153.5 226.2,171.7 226.2,171.7 244.4,153.5 262.5,171.7 262.5,171.7 280.7,153.5 
						298.8,171.7 298.8,171.7 317,153.5 335.2,171.7 335.2,171.7 353.3,153.5 371.5,171.7 371.5,171.7 389.6,153.5 407.8,171.7 
						407.8,171.7 					"/>
					<polyline class="st25" points="81,176.9 81,176.9 99.2,158.7 117.3,176.9 117.3,176.9 135.5,158.7 153.6,176.9 153.6,176.9 
						171.7,158.7 189.9,176.9 189.9,176.9 208,158.7 226.2,176.9 226.2,176.9 244.4,158.7 262.5,176.9 262.5,176.9 280.7,158.7 
						298.8,176.9 298.8,176.9 317,158.7 335.2,176.9 335.2,176.9 353.3,158.7 371.5,176.9 371.5,176.9 389.6,158.7 407.8,176.9 
						407.8,176.9 					"/>
					<polyline class="st25" points="81,182 81,182 99.2,163.8 117.3,182 117.3,182 135.5,163.8 153.6,182 153.6,182 171.7,163.8 
						189.9,182 189.9,182 208,163.8 226.2,182 226.2,182 244.4,163.8 262.5,182 262.5,182 280.7,163.8 298.8,182 298.8,182 
						317,163.8 335.2,182 335.2,182 353.3,163.8 371.5,182 371.5,182 389.6,163.8 407.8,182 407.8,182 					"/>
					<polyline class="st25" points="81,187.2 81,187.2 99.2,169 117.3,187.2 117.3,187.2 135.5,169 153.6,187.2 153.6,187.2 
						171.7,169 189.9,187.2 189.9,187.2 208,169 226.2,187.2 226.2,187.2 244.4,169 262.5,187.2 262.5,187.2 280.7,169 298.8,187.2 
						298.8,187.2 317,169 335.2,187.2 335.2,187.2 353.3,169 371.5,187.2 371.5,187.2 389.6,169 407.8,187.2 407.8,187.2 					"/>
					<polyline class="st25" points="81,192.4 81,192.4 99.2,174.2 117.3,192.4 117.3,192.4 135.5,174.2 153.6,192.4 153.6,192.4 
						171.7,174.2 189.9,192.4 189.9,192.4 208,174.2 226.2,192.4 226.2,192.4 244.4,174.2 262.5,192.4 262.5,192.4 280.7,174.2 
						298.8,192.4 298.8,192.4 317,174.2 335.2,192.4 335.2,192.4 353.3,174.2 371.5,192.4 371.5,192.4 389.6,174.2 407.8,192.4 
						407.8,192.4 					"/>
					<polyline class="st25" points="81,197.5 81,197.5 99.2,179.4 117.3,197.5 117.3,197.5 135.5,179.4 153.6,197.5 153.6,197.5 
						171.7,179.4 189.9,197.5 189.9,197.5 208,179.4 226.2,197.5 226.2,197.5 244.4,179.4 262.5,197.5 262.5,197.5 280.7,179.4 
						298.8,197.5 298.8,197.5 317,179.4 335.2,197.5 335.2,197.5 353.3,179.4 371.5,197.5 371.5,197.5 389.6,179.4 407.8,197.5 
						407.8,197.5 					"/>
					<polyline class="st25" points="81,202.7 81,202.7 99.2,184.6 117.3,202.7 117.3,202.7 135.5,184.6 153.6,202.7 153.6,202.7 
						171.7,184.6 189.9,202.7 189.9,202.7 208,184.6 226.2,202.7 226.2,202.7 244.4,184.6 262.5,202.7 262.5,202.7 280.7,184.6 
						298.8,202.7 298.8,202.7 317,184.6 335.2,202.7 335.2,202.7 353.3,184.6 371.5,202.7 371.5,202.7 389.6,184.6 407.8,202.7 
						407.8,202.7 					"/>
					<polyline class="st25" points="81,207.8 81,207.8 99.2,189.7 117.3,207.8 117.3,207.8 135.5,189.7 153.6,207.8 153.6,207.8 
						171.7,189.7 189.9,207.8 189.9,207.8 208,189.7 226.2,207.8 226.2,207.8 244.4,189.7 262.5,207.8 262.5,207.8 280.7,189.7 
						298.8,207.8 298.8,207.8 317,189.7 335.2,207.8 335.2,207.8 353.3,189.7 371.5,207.8 371.5,207.8 389.6,189.7 407.8,207.8 
						407.8,207.8 					"/>
					<polyline class="st25" points="81,213 81,213 99.2,194.9 117.3,213 117.3,213 135.5,194.9 153.6,213 153.6,213 171.7,194.9 
						189.9,213 189.9,213 208,194.9 226.2,213 226.2,213 244.4,194.9 262.5,213 262.5,213 280.7,194.9 298.8,213 298.8,213 
						317,194.9 335.2,213 335.2,213 353.3,194.9 371.5,213 371.5,213 389.6,194.9 407.8,213 407.8,213 					"/>
					<polyline class="st25" points="81,218.2 81,218.2 99.2,200.1 117.3,218.2 117.3,218.2 135.5,200.1 153.6,218.2 153.6,218.2 
						171.7,200.1 189.9,218.2 189.9,218.2 208,200.1 226.2,218.2 226.2,218.2 244.4,200.1 262.5,218.2 262.5,218.2 280.7,200.1 
						298.8,218.2 298.8,218.2 317,200.1 335.2,218.2 335.2,218.2 353.3,200.1 371.5,218.2 371.5,218.2 389.6,200.1 407.8,218.2 
						407.8,218.2 					"/>
					<polyline class="st25" points="81,223.4 81,223.4 99.2,205.2 117.3,223.4 117.3,223.4 135.5,205.2 153.6,223.4 153.6,223.4 
						171.7,205.2 189.9,223.4 189.9,223.4 208,205.2 226.2,223.4 226.2,223.4 244.4,205.2 262.5,223.4 262.5,223.4 280.7,205.2 
						298.8,223.4 298.8,223.4 317,205.2 335.2,223.4 335.2,223.4 353.3,205.2 371.5,223.4 371.5,223.4 389.6,205.2 407.8,223.4 
						407.8,223.4 					"/>
					<polyline class="st25" points="81,228.6 81,228.6 99.2,210.4 117.3,228.6 117.3,228.6 135.5,210.4 153.6,228.6 153.6,228.6 
						171.7,210.4 189.9,228.6 189.9,228.6 208,210.4 226.2,228.6 226.2,228.6 244.4,210.4 262.5,228.6 262.5,228.6 280.7,210.4 
						298.8,228.6 298.8,228.6 317,210.4 335.2,228.6 335.2,228.6 353.3,210.4 371.5,228.6 371.5,228.6 389.6,210.4 407.8,228.6 
						407.8,228.6 					"/>
					<polyline class="st25" points="81,233.7 81,233.7 99.2,215.5 117.3,233.7 117.3,233.7 135.5,215.5 153.6,233.7 153.6,233.7 
						171.7,215.5 189.9,233.7 189.9,233.7 208,215.5 226.2,233.7 226.2,233.7 244.4,215.5 262.5,233.7 262.5,233.7 280.7,215.5 
						298.8,233.7 298.8,233.7 317,215.5 335.2,233.7 335.2,233.7 353.3,215.5 371.5,233.7 371.5,233.7 389.6,215.5 407.8,233.7 
						407.8,233.7 					"/>
					<polyline class="st25" points="81,238.9 81,238.9 99.2,220.7 117.3,238.9 117.3,238.9 135.5,220.7 153.6,238.9 153.6,238.9 
						171.7,220.7 189.9,238.9 189.9,238.9 208,220.7 226.2,238.9 226.2,238.9 244.4,220.7 262.5,238.9 262.5,238.9 280.7,220.7 
						298.8,238.9 298.8,238.9 317,220.7 335.2,238.9 335.2,238.9 353.3,220.7 371.5,238.9 371.5,238.9 389.6,220.7 407.8,238.9 
						407.8,238.9 					"/>
					<polyline class="st25" points="81,244.1 81,244.1 99.2,225.9 117.3,244.1 117.3,244.1 135.5,225.9 153.6,244.1 153.6,244.1 
						171.7,225.9 189.9,244.1 189.9,244.1 208,225.9 226.2,244.1 226.2,244.1 244.4,225.9 262.5,244.1 262.5,244.1 280.7,225.9 
						298.8,244.1 298.8,244.1 317,225.9 335.2,244.1 335.2,244.1 353.3,225.9 371.5,244.1 371.5,244.1 389.6,225.9 407.8,244.1 
						407.8,244.1 					"/>
					<polyline class="st25" points="81,249.2 81,249.2 99.2,231 117.3,249.2 117.3,249.2 135.5,231 153.6,249.2 153.6,249.2 
						171.7,231 189.9,249.2 189.9,249.2 208,231 226.2,249.2 226.2,249.2 244.4,231 262.5,249.2 262.5,249.2 280.7,231 298.8,249.2 
						298.8,249.2 317,231 335.2,249.2 335.2,249.2 353.3,231 371.5,249.2 371.5,249.2 389.6,231 407.8,249.2 407.8,249.2 					"/>
					<polyline class="st25" points="81,254.4 81,254.4 99.2,236.2 117.3,254.4 117.3,254.4 135.5,236.2 153.6,254.4 153.6,254.4 
						171.7,236.2 189.9,254.4 189.9,254.4 208,236.2 226.2,254.4 226.2,254.4 244.4,236.2 262.5,254.4 262.5,254.4 280.7,236.2 
						298.8,254.4 298.8,254.4 317,236.2 335.2,254.4 335.2,254.4 353.3,236.2 371.5,254.4 371.5,254.4 389.6,236.2 407.8,254.4 
						407.8,254.4 					"/>
					<polyline class="st25" points="81,259.5 81,259.5 99.2,241.4 117.3,259.5 117.3,259.5 135.5,241.4 153.6,259.5 153.6,259.5 
						171.7,241.4 189.9,259.5 189.9,259.5 208,241.4 226.2,259.5 226.2,259.5 244.4,241.4 262.5,259.5 262.5,259.5 280.7,241.4 
						298.8,259.5 298.8,259.5 317,241.4 335.2,259.5 335.2,259.5 353.3,241.4 371.5,259.5 371.5,259.5 389.6,241.4 407.8,259.5 
						407.8,259.5 					"/>
					<polyline class="st25" points="81,264.7 81,264.7 99.2,246.6 117.3,264.7 117.3,264.7 135.5,246.6 153.6,264.7 153.6,264.7 
						171.7,246.6 189.9,264.7 189.9,264.7 208,246.6 226.2,264.7 226.2,264.7 244.4,246.6 262.5,264.7 262.5,264.7 280.7,246.6 
						298.8,264.7 298.8,264.7 317,246.6 335.2,264.7 335.2,264.7 353.3,246.6 371.5,264.7 371.5,264.7 389.6,246.6 407.8,264.7 
						407.8,264.7 					"/>
					<polyline class="st25" points="81,269.9 81,269.9 99.2,251.8 117.3,269.9 117.3,269.9 135.5,251.8 153.6,269.9 153.6,269.9 
						171.7,251.8 189.9,269.9 189.9,269.9 208,251.8 226.2,269.9 226.2,269.9 244.4,251.8 262.5,269.9 262.5,269.9 280.7,251.8 
						298.8,269.9 298.8,269.9 317,251.8 335.2,269.9 335.2,269.9 353.3,251.8 371.5,269.9 371.5,269.9 389.6,251.8 407.8,269.9 
						407.8,269.9 					"/>
				</g>
			</g>
		</g>
	</g>
	<path d="M105.4,246.1l-1.2,6.5h-0.3l0.4-2.4h-1l0.1-0.3h1l0.2-1.1h-1l0.1-0.3h1l0.4-2.3L105.4,246.1L105.4,246.1z M105.2,252.6
		l1.2-6.5h0.2l-0.4,2.3h1l-0.1,0.3h-1l-0.2,1.1h1l-0.1,0.3h-1L105.2,252.6L105.2,252.6L105.2,252.6z"/>
	<path d="M115.3,249.5c0,0.8,0.2,2.5-1.4,2.5c-1.4,0-1.4-1.6-1.4-2.5c0-1.1-0.1-2.5,1.4-2.5C115.5,247,115.3,249,115.3,249.5z
		 M113.2,249.5c0,1.9,0.3,2,0.8,2c0.6,0,0.8-0.2,0.8-2s-0.3-2-0.8-2C113.1,247.4,113.2,248.6,113.2,249.5z"/>
	<path d="M118.1,247.7l-0.9,0.3l-0.2-0.4l1.5-0.6v4.5h1v0.4h-2.7v-0.4h1.2L118.1,247.7L118.1,247.7z"/>
	<path d="M121.2,251.4l1.8-2.3c0.2-0.3,0.4-0.5,0.4-0.9c0-0.5-0.3-0.8-0.8-0.8c-0.6,0-0.9,0.5-1,1l-0.5-0.1c0.1-0.8,0.6-1.4,1.4-1.4
		c0.7,0,1.3,0.5,1.3,1.2c0,0.5-0.2,0.8-0.5,1.2l-1.6,2h2.1v0.4h-2.6C121.2,251.7,121.2,251.4,121.2,251.4z"/>
	<path d="M126.1,249l1.4-1.4h-2v-0.4h2.6v0.4l-1.4,1.4c0.7,0,1.4,0.4,1.4,1.2c0,0.6-0.3,1.1-0.9,1.4c-0.4,0.2-0.9,0.4-1.8,0.4v-0.5
		c0.8,0,1.1-0.1,1.4-0.2c0.4-0.2,0.8-0.6,0.8-1.1c0-0.6-0.6-0.8-1-0.8c-0.2,0-0.4,0-0.6,0.1V249H126.1z"/>
	<path d="M129.9,250.7l0.7-3.7l0.5,0.2l-0.6,3.1h1.3v-2.5h0.6v2.5h0.4v0.4h-0.4v1.2h-0.5v-1.2H129.9L129.9,250.7z"/>
	<path d="M134.4,247.1h2.5v0.4h-2v1.4c0.2-0.1,0.5-0.2,0.7-0.2c0.7,0,1.3,0.5,1.3,1.3c0,0.6-0.3,1.1-0.9,1.4
		c-0.4,0.2-0.9,0.4-1.8,0.4v-0.5c0.6,0,1.1,0,1.4-0.2c0.4-0.2,0.7-0.6,0.7-1.2c0-0.5-0.3-0.8-0.9-0.8c-0.3,0-0.6,0.1-0.8,0.2h-0.3
		L134.4,247.1L134.4,247.1z"/>
	<path d="M140.8,247.8c-0.2-0.2-0.5-0.4-0.8-0.4c-0.9,0-1,1.1-1,1.8c0.3-0.2,0.6-0.4,1-0.4c0.9,0,1.2,0.7,1.2,1.5
		c0,0.9-0.5,1.6-1.4,1.6c-1.2,0-1.3-1.5-1.3-2.4c0-1,0.2-2.6,1.4-2.6c0.4,0,0.8,0.2,1,0.4L140.8,247.8z M139.9,251.5
		c0.6,0,0.9-0.5,0.9-1.1s-0.2-1.1-0.8-1.1c-0.3,0-0.6,0.2-0.9,0.5C139.1,251.3,139.5,251.5,139.9,251.5z"/>
	<path d="M145.1,247.5h-2v-0.4h2.6l-2.2,4.9l-0.4-0.2L145.1,247.5z"/>
	<path d="M149.9,250.6c0,0.8-0.6,1.3-1.4,1.3c-0.8,0-1.4-0.5-1.4-1.3c0-0.6,0.4-1,1-1.3c-0.4-0.2-0.8-0.6-0.8-1.2
		c0-0.7,0.5-1.2,1.2-1.2s1.2,0.6,1.2,1.2c0,0.6-0.4,0.9-0.8,1.2C149.5,249.7,149.9,250,149.9,250.6z M147.6,250.7
		c0,0.5,0.4,0.8,0.9,0.8s0.9-0.3,0.9-0.8c0-0.6-0.5-0.8-0.9-1C148.1,249.9,147.6,250.1,147.6,250.7z M149.2,248.2
		c0-0.4-0.2-0.8-0.7-0.8s-0.7,0.3-0.7,0.8s0.4,0.6,0.7,0.9C148.8,248.9,149.2,248.7,149.2,248.2z"/>
	<path d="M152,251.1c0.2,0.2,0.5,0.4,0.8,0.4c0.9,0,1-1.1,1-1.8c-0.3,0.2-0.6,0.4-1,0.4c-0.9,0-1.2-0.7-1.2-1.5
		c0-0.9,0.5-1.6,1.4-1.6c1.3,0,1.3,1.5,1.3,2.4c0,1-0.2,2.6-1.4,2.6c-0.4,0-0.8-0.2-1-0.4L152,251.1z M152.8,247.4
		c-0.6,0-0.9,0.5-0.9,1.1s0.2,1.1,0.8,1.1c0.3,0,0.6-0.2,0.9-0.5C153.7,247.8,153.3,247.4,152.8,247.4z"/>
	<path d="M180,249.5c0,0.8,0.2,2.5-1.4,2.5c-1.4,0-1.4-1.6-1.4-2.5c0-1.1-0.1-2.5,1.4-2.5C180.1,247,180,249,180,249.5z
		 M177.8,249.5c0,1.9,0.3,2,0.8,2c0.6,0,0.8-0.2,0.8-2s-0.3-2-0.8-2C177.7,247.4,177.8,248.6,177.8,249.5z"/>
	<path d="M182.8,247.7l-0.9,0.3l-0.2-0.4l1.5-0.6v4.5h1v0.4h-2.7v-0.4h1.2C182.8,251.5,182.8,247.7,182.8,247.7z"/>
	<path d="M185.9,251.4l1.8-2.3c0.2-0.3,0.4-0.5,0.4-0.9c0-0.5-0.3-0.8-0.8-0.8c-0.6,0-0.9,0.5-1,1l-0.5-0.1c0.1-0.8,0.6-1.4,1.4-1.4
		c0.7,0,1.3,0.5,1.3,1.2c0,0.5-0.2,0.8-0.5,1.2l-1.6,2h2.1v0.4h-2.6L185.9,251.4L185.9,251.4z"/>
	<path d="M190.8,249l1.4-1.4h-2v-0.4h2.6v0.4l-1.4,1.4c0.7,0,1.4,0.4,1.4,1.2c0,0.6-0.3,1.1-0.9,1.4c-0.4,0.2-0.9,0.4-1.8,0.4v-0.5
		c0.8,0,1.1-0.1,1.4-0.2c0.4-0.2,0.8-0.6,0.8-1.1c0-0.6-0.6-0.8-1-0.8c-0.2,0-0.4,0-0.6,0.1C190.8,249.4,190.8,249,190.8,249z"/>
	<path d="M194.5,250.7l0.7-3.7l0.5,0.2l-0.6,3.1h1.3v-2.5h0.5v2.5h0.4v0.4h-0.4v1.2h-0.5v-1.2H194.5L194.5,250.7z"/>
	<path d="M199,247.1h2.5v0.4h-2v1.4c0.2-0.1,0.5-0.2,0.7-0.2c0.7,0,1.3,0.5,1.3,1.3c0,0.6-0.3,1.1-0.9,1.4c-0.4,0.2-0.9,0.4-1.8,0.4
		v-0.5c0.6,0,1.1,0,1.4-0.2c0.4-0.2,0.7-0.6,0.7-1.2c0-0.5-0.3-0.8-0.9-0.8c-0.3,0-0.6,0.1-0.8,0.2h-0.3L199,247.1L199,247.1z"/>
	<path d="M205.4,247.8c-0.2-0.2-0.5-0.4-0.8-0.4c-0.9,0-1,1.1-1,1.8c0.3-0.2,0.6-0.4,1-0.4c0.9,0,1.2,0.7,1.2,1.5
		c0,0.9-0.5,1.6-1.4,1.6c-1.2,0-1.3-1.5-1.3-2.4c0-1,0.2-2.6,1.4-2.6c0.4,0,0.8,0.2,1,0.4L205.4,247.8z M204.5,251.5
		c0.6,0,0.9-0.5,0.9-1.1s-0.2-1.1-0.8-1.1c-0.3,0-0.6,0.2-0.9,0.5C203.7,251.3,204.1,251.5,204.5,251.5z"/>
	<path d="M209.7,247.5h-2v-0.4h2.6l-2.2,4.9l-0.4-0.2L209.7,247.5z"/>
	<path d="M214.5,250.6c0,0.8-0.6,1.3-1.4,1.3c-0.8,0-1.4-0.5-1.4-1.3c0-0.6,0.4-1,1-1.3c-0.4-0.2-0.8-0.6-0.8-1.2
		c0-0.7,0.5-1.2,1.2-1.2s1.2,0.6,1.2,1.2c0,0.6-0.4,0.9-0.8,1.2C214.1,249.7,214.5,250,214.5,250.6z M212.3,250.7
		c0,0.5,0.4,0.8,0.9,0.8s0.9-0.3,0.9-0.8c0-0.6-0.5-0.8-0.9-1C212.8,249.9,212.3,250.1,212.3,250.7z M213.9,248.2
		c0-0.4-0.2-0.8-0.7-0.8s-0.7,0.3-0.7,0.8s0.4,0.6,0.7,0.9C213.6,248.9,213.9,248.7,213.9,248.2z"/>
	<path d="M216.6,251.1c0.2,0.2,0.5,0.4,0.8,0.4c0.9,0,1-1.1,1-1.8c-0.3,0.2-0.6,0.4-1,0.4c-0.9,0-1.2-0.7-1.2-1.5
		c0-0.9,0.5-1.6,1.4-1.6c1.3,0,1.3,1.5,1.3,2.4c0,1-0.2,2.6-1.4,2.6c-0.4,0-0.8-0.2-1-0.4L216.6,251.1z M217.5,247.4
		c-0.6,0-0.9,0.5-0.9,1.1s0.2,1.1,0.8,1.1c0.3,0,0.6-0.2,0.9-0.5C218.4,247.8,218,247.4,217.5,247.4z"/>
	<path d="M223.2,249.5c0,0.8,0.2,2.5-1.4,2.5c-1.4,0-1.4-1.6-1.4-2.5c0-1.1-0.1-2.5,1.4-2.5C223.3,247,223.2,249,223.2,249.5z
		 M221,249.5c0,1.9,0.3,2,0.8,2c0.6,0,0.8-0.2,0.8-2s-0.3-2-0.8-2C220.9,247.4,221,248.6,221,249.5z"/>
	<path d="M226,247.7l-0.9,0.3l-0.2-0.4l1.5-0.6v4.5h1v0.4h-2.7v-0.4h1.2L226,247.7L226,247.7z"/>
	<path d="M229.1,251.4l1.8-2.3c0.2-0.3,0.4-0.5,0.4-0.9c0-0.5-0.3-0.8-0.8-0.8c-0.6,0-0.9,0.5-1,1l-0.5-0.1c0.1-0.8,0.6-1.4,1.4-1.4
		c0.7,0,1.3,0.5,1.3,1.2c0,0.5-0.2,0.8-0.5,1.2l-1.6,2h2.1v0.4h-2.6L229.1,251.4L229.1,251.4z"/>
	<path d="M234,249l1.4-1.4h-2v-0.4h2.6v0.4l-1.4,1.4c0.7,0,1.4,0.4,1.4,1.2c0,0.6-0.3,1.1-0.9,1.4c-0.4,0.2-0.9,0.4-1.8,0.4v-0.5
		c0.8,0,1.1-0.1,1.4-0.2c0.4-0.2,0.8-0.6,0.8-1.1c0-0.6-0.6-0.8-1-0.8c-0.2,0-0.4,0-0.6,0.1V249H234z"/>
	<path d="M237.7,250.7l0.7-3.7l0.5,0.2l-0.6,3.1h1.3v-2.5h0.5v2.5h0.4v0.4h-0.4v1.2h-0.5v-1.2H237.7L237.7,250.7z"/>
	<path d="M274.9,249.5c0,0.8,0.2,2.5-1.4,2.5c-1.4,0-1.4-1.6-1.4-2.5c0-1.1-0.1-2.5,1.4-2.5C275.2,247,274.9,249,274.9,249.5z
		 M272.8,249.5c0,1.9,0.3,2,0.8,2c0.6,0,0.8-0.2,0.8-2s-0.3-2-0.8-2C272.7,247.4,272.8,248.6,272.8,249.5z"/>
	<path d="M277.8,247.7l-0.9,0.3l-0.2-0.4l1.5-0.6v4.5h1v0.4h-2.7v-0.4h1.2v-3.8H277.8z"/>
	<path d="M280.9,251.4l1.8-2.3c0.2-0.3,0.4-0.5,0.4-0.9c0-0.5-0.3-0.8-0.8-0.8c-0.6,0-0.9,0.5-1,1l-0.5-0.1c0.1-0.8,0.6-1.4,1.4-1.4
		c0.7,0,1.3,0.5,1.3,1.2c0,0.5-0.2,0.8-0.5,1.2l-1.6,2h2.1v0.4h-2.6L280.9,251.4L280.9,251.4z"/>
	<path d="M285.8,249l1.4-1.4h-2v-0.4h2.6v0.4l-1.4,1.4c0.7,0,1.4,0.4,1.4,1.2c0,0.6-0.3,1.1-0.9,1.4c-0.4,0.2-0.9,0.4-1.8,0.4v-0.5
		c0.8,0,1.1-0.1,1.4-0.2c0.4-0.2,0.8-0.6,0.8-1.1c0-0.6-0.6-0.8-1-0.8c-0.2,0-0.4,0-0.6,0.1V249H285.8z"/>
	<path d="M104.8,147.6h0.5l0.1,3.8h-0.3l-0.1-3.1l0,0l-0.6,1.8l-0.6-1.8l0,0l-0.1,3.1h-0.4l0.1-3.8h0.5l0.6,1.6L104.8,147.6z"/>
	<path d="M107.2,150.6l-0.2,0.9l-0.4-0.2l0.9-2.9h0.5l0.9,2.9l-0.4,0.2l-0.2-0.9H107.2z M107.7,148.9l-0.4,1.4h0.8L107.7,148.9z"/>
	<path d="M110.3,151.4l-0.3-0.2l0.9-1.4l-0.8-1.3l0.3-0.2l0.7,1.1l0.7-1.1l0.3,0.2l-0.8,1.3l0.9,1.4l-0.3,0.2l-0.8-1.3L110.3,151.4z
		"/>
	<path d="M118.3,147.6h0.5l0.1,3.8h-0.5l-0.1-3.1l0,0l-0.6,1.8l-0.6-1.8l0,0v3.1h-0.4l0.1-3.8h0.5l0.6,1.6L118.3,147.6z"/>
	<path d="M120.6,148.4v2c0,0.4,0.2,0.6,0.5,0.6c0.5,0,0.6-0.2,0.6-0.6v-2h0.4v2.2c0,0.4-0.2,0.8-0.9,0.8s-0.9-0.4-0.9-0.8v-2.2
		H120.6z"/>
	<path d="M123.9,150.4c0.1,0.3,0.2,0.6,0.6,0.6c0.3,0,0.6-0.2,0.6-0.5s-0.3-0.5-0.6-0.6c-0.4-0.2-0.8-0.3-0.8-0.9
		c0-0.5,0.4-0.8,0.9-0.8s0.8,0.3,0.9,0.7l-0.3,0.1c-0.1-0.3-0.2-0.5-0.6-0.5c-0.2,0-0.5,0.2-0.5,0.4c0,0.2,0.2,0.3,0.4,0.5l0.6,0.2
		c0.2,0.2,0.4,0.4,0.4,0.7c0,0.6-0.4,0.9-1,0.9s-0.9-0.3-1-0.9L123.9,150.4z"/>
	<path d="M127.6,148.8h-0.8v-0.3h2v0.3H128v2.6h-0.4V148.8z"/>
	<path d="M130.4,148.4h1.8v0.4h-1.4v0.9h1.2v0.3h-1.2v1h1.4v0.3h-1.8V148.4z"/>
	<path d="M133.7,148.4h1c0.5,0,0.9,0.2,0.9,0.8c0,0.3-0.2,0.7-0.6,0.8l0.7,1.2l-0.3,0.2l-0.7-1.3h-0.6v1.3h-0.4L133.7,148.4
		L133.7,148.4z M134.6,149.8c0.4,0,0.6-0.2,0.6-0.6c0-0.2-0.2-0.5-0.5-0.5h-0.6v1L134.6,149.8L134.6,149.8z"/>
	<path d="M137.2,149L137.2,149l-0.1,2.4h-0.4l0.1-2.9h0.5l0.6,1.3l0.6-1.3h0.5l0.1,2.9h-0.3l-0.1-2.4l0,0l-0.6,1.5L137.2,149z"/>
	<path d="M140.8,150.6l-0.2,0.9l-0.4-0.2l0.9-2.9h0.5l0.9,2.9l-0.4,0.2l-0.2-0.9H140.8z M141.3,148.9l-0.4,1.4h0.8L141.3,148.9z"/>
	<path d="M143.6,148.4h0.5l1.1,2.5l0,0v-0.7v-1.7h0.4v2.9h-0.5l-1.1-2.5l0,0v0.8v1.7h-0.4V148.4z"/>
	<path d="M147,148.4h0.5l1.1,2.5l0,0v-0.7v-1.7h0.4v2.9h-0.5l-1.1-2.5l0,0v0.8v1.7H147V148.4z"/>
	<path d="M103.4,154.3h0.4v1.6h1.1v-1.6h0.4v3.8h-0.4v-1.8h-1.1v1.8h-0.4V154.3z"/>
	<path d="M106.9,155.1h1.8v0.3h-1.4v0.9h1.2v0.3h-1.2v1h1.4v0.3h-1.8V155.1z"/>
	<path d="M110.4,157.8h0.4v-2.2h-0.4v-0.3h1.2v0.3h-0.4v2.2h0.4v0.3h-1.2V157.8z"/>
	<path d="M113.4,155.1h0.5l1.1,2.5l0,0v-0.7v-1.7h0.4v2.9h-0.5l-1.1-2.5l0,0v0.8v1.7h-0.4V155.1z"/>
	<path d="M118.2,155.5h-1.4v-0.3h2l-1.5,2.6h1.6v0.3h-2.2L118.2,155.5z"/>
	<path d="M120.5,156.4h1.3v0.4h-1.3V156.4z"/>
	<path d="M123.5,154.3h0.5l1.1,3.1l0,0v-0.8v-2.3h0.4v3.8H125l-1.1-3.1l0,0v0.9v2.3h-0.4V154.3z"/>
	<path d="M127.2,157.8h0.4v-2.2h-0.4v-0.3h1.2v0.3H128v2.2h0.4v0.3h-1.2V157.8z"/>
	<path d="M130.4,158.2l-0.3-0.2l0.9-1.4l-0.8-1.3l0.3-0.2l0.7,1.1l0.7-1.1l0.3,0.2l-0.8,1.3l0.9,1.4l-0.3,0.2l-0.8-1.3L130.4,158.2z
		"/>
	<path d="M133.6,155.1h1c0.8,0,1.2,0.3,1.2,1.4c0,0.9-0.2,1.5-1.2,1.5h-1v-0.3h0.3v-2.2h-0.3V155.1z M134.2,157.8h0.4
		c0.5,0,0.7-0.3,0.7-1.1c0-0.9-0.2-1.1-0.7-1.1h-0.4V157.8z"/>
	<path d="M139,156.6c0,0.2,0,1.5-1,1.5c-0.5,0-1-0.3-1-1.5s0.6-1.5,1-1.5S139,155.4,139,156.6z M137.3,156.6c0,0.4,0.1,1.1,0.6,1.1
		s0.6-0.7,0.6-1.1c0-0.4-0.1-1.1-0.6-1.1S137.3,156.2,137.3,156.6z"/>
	<path d="M140.4,155.1h1c0.5,0,0.9,0.2,0.9,0.8c0,0.3-0.2,0.7-0.6,0.8l0.7,1.2l-0.3,0.2l-0.8-1.3h-0.6v1.3h-0.3V155.1L140.4,155.1z
		 M141.3,156.5c0.4,0,0.6-0.2,0.6-0.6c0-0.2-0.2-0.5-0.5-0.5h-0.6v1L141.3,156.5L141.3,156.5z"/>
	<path d="M144,155.1h1.8v0.3h-1.4v0.9h1.2v0.3h-1.2v1.4H144V155.1z"/>
	<path d="M147.4,156.4h1.3v0.4h-1.3V156.4z"/>
	<path d="M150.6,154.3h1c0.4,0,0.8,0.3,0.8,1c0,0.5-0.2,0.9-0.6,1l0.8,1.6l-0.3,0.2l-0.9-1.8H151v1.7h-0.4L150.6,154.3L150.6,154.3z
		 M151,156.1h0.5c0.3,0,0.6-0.2,0.6-0.7s-0.2-0.6-0.6-0.6H151V156.1L151,156.1z"/>
	<path d="M154.1,157.8h0.4v-2.2h-0.4v-0.3h1.2v0.3h-0.4v2.2h0.4v0.3h-1.2V157.8z"/>
	<path d="M157.1,155.1h0.5l1.1,2.5l0,0v-0.7v-1.7h0.4v2.9h-0.5l-1.1-2.5l0,0v0.8v1.7h-0.4V155.1z"/>
	<path d="M162.4,157.8c-0.2,0.2-0.6,0.3-0.9,0.3c-0.9,0-1.1-0.8-1.1-1.5s0.2-1.5,1.1-1.5c0.4,0,0.7,0.2,1,0.6l-0.3,0.2
		c-0.2-0.2-0.3-0.4-0.6-0.4c-0.6,0-0.6,0.7-0.6,1.2s0.1,1.1,0.7,1.1c0.2,0,0.4-0.1,0.6-0.2v-0.8h-0.7v-0.3h1L162.4,157.8
		L162.4,157.8z"/>
	<path d="M168,154.8l-0.7,0.2l-0.1-0.3l1.2-0.5v3.4h0.8v0.3h-2.1v-0.2h1L168,154.8L168,154.8z"/>
	<path d="M103.3,161.4v-0.3h1c0.7,0,1.2,0.3,1.2,1.8c0,0.8-0.1,1.8-1.2,1.8h-1v-0.3h0.3v-3C103.6,161.4,103.3,161.4,103.3,161.4z
		 M104,164.5h0.3c0.5,0,0.8-0.1,0.8-1.5c0-1.4-0.4-1.5-0.7-1.5H104C104,161.5,104,164.5,104,164.5z"/>
	<path d="M107.1,163.1h1.2v0.3H107L107.1,163.1L107.1,163.1z"/>
	<path d="M110.4,162.6l1.1-1.1H110v-0.3h2.1v0.3l-1,1c0.6,0,1.1,0.3,1.1,1c0,0.5-0.2,0.9-0.6,1.1c-0.3,0.2-0.6,0.3-1.4,0.3v-0.3
		c0.6,0,0.9-0.1,1-0.2c0.3-0.2,0.6-0.5,0.6-0.9c0-0.5-0.4-0.6-0.8-0.6c-0.2,0-0.3,0-0.4,0.1v-0.4H110.4z"/>
	<path d="M113.8,162.6l1.1-1.1h-1.5v-0.3h2.1v0.3l-1,1c0.6,0,1.1,0.3,1.1,1c0,0.5-0.2,0.9-0.6,1.1c-0.3,0.2-0.6,0.3-1.4,0.3v-0.3
		c0.6,0,0.9-0.1,1-0.2c0.3-0.2,0.6-0.5,0.6-0.9c0-0.5-0.4-0.6-0.8-0.6c-0.2,0-0.3,0-0.4,0.1v-0.4H113.8z"/>
	<path d="M117.6,161.5l-0.7,0.2l-0.1-0.3l1.2-0.5v3.4h0.8v0.4h-2.1v-0.3h1L117.6,161.5L117.6,161.5z"/>
	<path d="M122.2,163c0,0.6,0.1,1.9-1,1.9s-1-1.3-1-1.9c0-0.9-0.1-1.9,1-1.9C122.3,161,122.2,162.5,122.2,163z M120.4,163
		c0,1.4,0.2,1.6,0.6,1.6s0.6-0.2,0.6-1.6c0-1.4-0.2-1.6-0.6-1.6C120.4,161.4,120.4,162.2,120.4,163z"/>
	<path d="M125.2,161.7c-0.2-0.2-0.3-0.2-0.6-0.2c-0.6,0-0.7,0.9-0.7,1.4c0.2-0.2,0.5-0.3,0.7-0.3c0.7,0,1,0.6,1,1.2
		c0,0.6-0.3,1.2-1,1.2c-1,0-1-1.2-1-1.8c0-0.8,0.1-2,1.1-2c0.3,0,0.6,0.1,0.8,0.3L125.2,161.7z M124.5,164.5c0.5,0,0.6-0.4,0.6-0.9
		c0-0.4-0.2-0.9-0.6-0.9c-0.2,0-0.5,0.2-0.7,0.4C123.8,164.3,124.1,164.5,124.5,164.5z"/>
	<path d="M130.8,164.8h-0.4V161h0.8c0.6,0,1,0.3,1,1s-0.4,1.1-0.9,1.1h-0.6L130.8,164.8L130.8,164.8z M130.8,162.8h0.6
		c0.3,0,0.6-0.2,0.6-0.7s-0.2-0.6-0.6-0.6H131L130.8,162.8L130.8,162.8z"/>
	<path d="M134,164l-0.2,0.9l-0.4-0.2l0.9-2.9h0.5l0.9,2.9l-0.4,0.2l-0.2-0.9C135.1,164,134,164,134,164z M134.6,162.3l-0.4,1.4h0.8
		L134.6,162.3z"/>
	<path d="M136.9,161.8h1c0.8,0,1.2,0.3,1.2,1.4c0,0.9-0.2,1.5-1.2,1.5h-1v-0.3h0.3v-2.2h-0.3V161.8z M137.6,164.5h0.4
		c0.5,0,0.7-0.3,0.7-1.1c0-0.9-0.2-1.1-0.7-1.1h-0.4V164.5z"/>
	<path d="M140.3,161.8h1c0.8,0,1.2,0.3,1.2,1.4c0,0.9-0.2,1.5-1.2,1.5h-1v-0.3h0.3v-2.2h-0.3V161.8z M140.9,164.5h0.4
		c0.5,0,0.7-0.3,0.7-1.1c0-0.9-0.2-1.1-0.7-1.1h-0.4C140.9,162.2,140.9,164.5,140.9,164.5z"/>
	<path d="M143.9,161.8h1.8v0.3h-1.4v0.9h1.2v0.3h-1.2v1h1.4v0.4h-1.8V161.8z"/>
	<path d="M147.2,161.8h1c0.5,0,0.9,0.2,0.9,0.8c0,0.3-0.2,0.7-0.6,0.8l0.7,1.2l-0.3,0.2l-0.7-1.4h-0.6v1.4h-0.4L147.2,161.8
		L147.2,161.8z M148,163.2c0.4,0,0.6-0.2,0.6-0.6c0-0.2-0.2-0.5-0.5-0.5h-0.6v1h0.5V163.2z"/>
	<path d="M150.4,164.8v-0.3h0.3v-2.2h-0.3V162h0.9c0.7,0,1,0.3,1,0.8c0,0.2-0.1,0.5-0.3,0.6c0.3,0.1,0.5,0.4,0.5,0.7
		c0,0.6-0.3,0.8-1,0.8L150.4,164.8L150.4,164.8z M151.5,163.1c0.3,0,0.5-0.2,0.5-0.5s-0.2-0.5-0.5-0.5h-0.4v0.9L151.5,163.1
		L151.5,163.1z M151.5,164.5c0.3,0,0.6-0.1,0.6-0.5c0-0.3-0.2-0.6-0.6-0.6h-0.6v1L151.5,164.5L151.5,164.5z"/>
	<path d="M155.8,163.4c0,0.2,0,1.5-1,1.5c-0.5,0-1-0.3-1-1.5s0.6-1.5,1-1.5C155.2,161.8,155.8,162.2,155.8,163.4z M154.1,163.4
		c0,0.4,0.1,1.1,0.6,1.1c0.6,0,0.6-0.7,0.6-1.1c0-0.4-0.1-1.1-0.6-1.1C154.2,162.2,154.1,162.9,154.1,163.4z"/>
	<path d="M157.2,161.8h1c0.5,0,0.9,0.2,0.9,0.8c0,0.3-0.2,0.7-0.6,0.8l0.7,1.2l-0.3,0.2l-0.7-1.4h-0.6v1.4h-0.4L157.2,161.8
		L157.2,161.8z M158.1,163.2c0.4,0,0.6-0.2,0.6-0.6c0-0.2-0.2-0.5-0.5-0.5h-0.6v1h0.5V163.2z"/>
	<path d="M160.4,161.8h0.5l1.1,2.5l0,0v-0.7v-1.7h0.4v2.9h-0.5l-1.1-2.5l0,0v0.8v1.7h-0.4V161.8z"/>
	<path d="M374,133.4c0,0.8,0.2,2.5-1.4,2.5s-1.4-1.6-1.4-2.5c0-1.1-0.1-2.5,1.4-2.5C374.2,131,374,132.9,374,133.4z M371.9,133.4
		c0,1.9,0.3,2,0.8,2c0.6,0,0.8-0.2,0.8-2s-0.3-2-0.8-2C371.8,131.4,371.9,132.5,371.9,133.4z"/>
	<path d="M376.8,131.6l-0.9,0.3l-0.2-0.4l1.5-0.6v4.5h1v0.4h-2.7v-0.4h1.2v-3.8H376.8z"/>
	<path d="M380,135.4l1.8-2.3c0.2-0.3,0.4-0.5,0.4-0.9c0-0.5-0.3-0.8-0.8-0.8c-0.6,0-0.9,0.5-1,1l-0.5-0.1c0.1-0.8,0.6-1.4,1.4-1.4
		c0.7,0,1.3,0.5,1.3,1.2c0,0.5-0.2,0.8-0.5,1.2l-1.6,2h2.1v0.4H380L380,135.4L380,135.4z"/>
	<path d="M384.8,132.9l1.4-1.4h-2v-0.4h2.6v0.4l-1.4,1.4c0.7,0,1.4,0.4,1.4,1.2c0,0.6-0.3,1.1-0.9,1.4c-0.4,0.2-0.9,0.4-1.8,0.4
		v-0.5c0.8,0,1.1-0.1,1.4-0.2c0.4-0.2,0.8-0.6,0.8-1.1c0-0.6-0.6-0.8-1-0.8c-0.2,0-0.4,0-0.6,0.1v-0.5H384.8z"/>
	<line class="st26" x1="258.7" y1="154.3" x2="326.6" y2="154.3"/>
	<line class="st26" x1="103.1" y1="183.7" x2="308.6" y2="183.7"/>
	<line class="st26" x1="103.1" y1="199.7" x2="387.8" y2="199.7"/>
	<line class="st26" x1="103.1" y1="231.4" x2="387.8" y2="231.4"/>
	<g>
		<g>
			<path class="st27" d="M266,147.5c-4.7-3.7,5.4-9.5,7.8-11.8c-1.7,1.5-1.8,4.6-2.2,6.8c-0.6,3.4-0.9,6.8-1.6,10.2
				c-0.4,2-2.2,8.9-5,6.5c-2-1.7-0.4-4.6,0.7-6.2c2.9-4.2,7.3-7.1,11.2-10.2c0.3-0.2,0-0.5-0.3-0.4c-3,0.9-4.4,3.8-5,6.6
				c-0.1,0.3,0.5,0.2,0.6,0.1c1.4-0.9,2.6-1.8,3.5-3.2c0.2-0.3,0.5-0.6,0.6-1c0.9-0.9,1-1.2,0.1-0.9c-0.6,1.6-0.7,3.3-1,5
				c-0.1,0.4,0.6,0.2,0.7,0.1c1.6-1.3,2.7-2.8,3.8-4.5c0.6-0.9,1.4-3.2,1.2-0.6c-0.1,1.7-0.5,3.4-0.8,5c-0.1,0.4,0.6,0.2,0.7,0
				c0.7-1,1.4-2,2-3c1.5-2.4,1.4-2.5,1.4-1c0.1,1.8,0.3,3.7,1.4,5.3c1.4,2.1,4.1-0.5,5-1.5c0.3-0.3-0.4-0.4-0.6-0.2
				c-4.4,4.9-5.1-2.5-5-5.3c0-0.3-0.6-0.2-0.7-0.1c-1.5,1.4-2.5,3.1-3.6,4.8c1-1.6,1-4.4,0.8-6.2c0-0.3-0.6-0.1-0.7,0.1
				c-1.4,1.8-2.6,3.8-3.9,5.5c-1.4,1.8-0.7,0-0.6-1c0.2-1.2,0.6-2.3,1-3.5c0.1-0.3-0.6-0.2-0.7,0c-0.8,1.4-1.6,2.6-2.6,3.8
				c-1,1.1-2.5,2.8-1.2-0.4c0.6-1.4,1.7-2.6,2.9-3.6c-0.4,0.3-0.8,0.6-1.3,1c-2.5,1.9-5,3.9-7.2,6.2c-3,3-7,8.1-1.6,10.8
				c0.2,0.1,0.5,0,0.6-0.1c6.8-6.2,4.2-17.4,7.5-25.4c0.2-0.4-0.6-0.2-0.6-0.1c-2.4,2.6-13.5,8.6-8.2,12.7
				C265.7,148.1,266.4,147.8,266,147.5L266,147.5z"/>
		</g>
	</g>
	<g>
		<g>
			<path class="st27" d="M299.2,140.2c3.2-3.3,3.3,3.4,2.8,5.1c-0.6,2.2-2.2,3.8-4.5,4.2c-2.2,0.4,0.6-0.1,0.7-0.1
				c1.3-0.2,2.6-0.1,3.8,0.2c2.2,0.3,4.2,1.4,6.1,2.5c0.2,0.2,0.9-0.2,0.7-0.3c-3.9-2.4-8.4-3.6-12.9-2.2c-0.2,0.1-0.6,0.3-0.1,0.3
				c4.3,0,7.2-3,7.3-7.3c0.1-3.3-2.2-5-4.6-2.5C298.3,140.5,299.1,140.4,299.2,140.2L299.2,140.2z"/>
		</g>
	</g>
	<g>
		<g>
			<path class="st27" d="M309.5,139.8c-1.4,3-2.3,7.9,0.4,10.5c0.2,0.2,0.5,0.1,0.6-0.1c2-1.8,3-4.2,2.8-7c-0.1-1.1-0.2-2.2-1.4-2.4
				c-0.8-0.2-1.6,0.2-2.3,0.6c-0.5,0.2-0.1,0.6,0.3,0.4c2.7-1.3,2.6,1.7,2.5,3.4c-0.2,1.9-1.3,3.6-2.6,4.9c0.2,0,0.5-0.1,0.6-0.1
				c-2.6-2.5-1.8-7.2-0.3-10.1C310.4,139.5,309.6,139.6,309.5,139.8L309.5,139.8z"/>
		</g>
	</g>
	<g>
		<g>
			<path class="st27" d="M315.9,135.6c-0.6,2-1,4.1-0.7,6.2c0.1,0.3,0.5,0.2,0.6,0.1c1.7-1.2,2.6-2.4,3-4.5c0.1-0.4-0.7-0.2-0.8,0.1
				c-0.3,1.2-0.4,2.4-0.7,3.5c-0.1,0.4,0.6,0.2,0.7,0.1c0.6-0.7,1.5-1.6,2.6-1.3c0.8,0.2,1.4,1.3,1.7,2c0.2,0.3,1,0.2,0.8-0.2
				c-0.5-1-1.1-2.2-2.3-2.4c-1.4-0.2-2.5,0.7-3.4,1.7c0.2,0,0.5,0.1,0.7,0.1c0.3-1.2,0.4-2.4,0.7-3.5c-0.2,0-0.6,0-0.8,0.1
				c-0.3,1.9-1.2,3-2.7,4.1c0.2,0,0.4,0.1,0.6,0.1c-0.3-2,0.1-4,0.7-5.9C316.8,135.3,316,135.3,315.9,135.6L315.9,135.6z"/>
		</g>
	</g>
	<g>
		<g>
			<path class="st27" d="M313.5,137.7c4.5-0.8,8.8-2.1,13.2-3.2c0.5-0.2,0.3-0.7-0.2-0.6c-4.4,1.1-8.7,2.4-13.2,3.2
				C312.8,137.2,313,137.8,313.5,137.7L313.5,137.7z"/>
		</g>
	</g>
	<g>
		<g>
			<path class="st27" d="M247.2,228.7c-0.2,0-0.6,0-0.9,0.2c0.6-1,1.3-1.9,2.2-2.6c0.9-0.9,1.9-1.5,3-2c2.4-1.1,4.2,0,4.2,2.2
				c0,2.1-2.2,3.9-3.6,5.1c-0.7,0.6,0.3-0.7,0.6-1.3c0.6-1.3,1.4-2.5,2.1-3.7c0.9-1.4,1.9-2.6,3.2-3.5c3.8-2.9,4.4,2.4,4,4.1
				c-0.6,2.6-2.6,4.9-4.3,6.7c-2.5,2.6-1.3-1.8-0.9-3.4c1.6-5.4,7.6-13.8,14-12.4c4.2,0.9,5.4,5.3,3.8,8.7c-1.9,4-5.9,7.1-9.4,9.8
				c-5.9,4.6-12.6,8.7-19.3,12c-0.5,0.2-0.1,0.6,0.3,0.4c5.7-2.8,11.1-6.1,16.2-9.8c5-3.5,11.8-8.2,13.5-14.4c1.4-5.1-5-8.7-9.3-7
				c-5.5,2.3-13.1,11-11,17.4c0.1,0.2,0.5,0.1,0.6,0c3.5-2,9.8-10.1,4.6-13.2c-4.5-2.6-9,7.5-10.1,10.1c-0.2,0.3,0.5,0.2,0.6,0.2
				c2.2-1.5,7.4-6.2,3.7-8.8c-3.4-2.4-8.2,3.2-9.9,5.4c-0.1,0.1,0,0.2,0.1,0.2c1.1,0.5,0.6,0,1.8,0
				C247.4,229.1,247.6,228.6,247.2,228.7L247.2,228.7z"/>
		</g>
	</g>
	<g>
		<g>
			<path class="st27" d="M281,228.5c-0.2-0.3,2-0.6,2.3-0.6c1-0.2,2.1-0.2,3.1-0.5c0.3-0.1,0.6-0.5,0.2-0.3c-1.7,0.3-3.3,0.5-5,0.8
				c-0.3,0.1-1.8,0.4-1.4,1C280.4,229,281.2,228.6,281,228.5L281,228.5z"/>
		</g>
	</g>
	<g>
		<g>
			<path class="st27" d="M290,227c1.3-3.1,3.1-5.6,5.8-7.8c3-2.2,2.2,3.4,2.1,4.1c-0.2,1.1-0.7,2.3-1.1,3.4
				c-0.1,0.2,0.6,0.1,0.7-0.1c0.7-1,1.4-1.9,2-3c0.8-1.2,3.5-3.6,2.9-0.5c-0.3,1.5-1.1,2.9-2,4.1c0-0.7,0.2-1.4,0.4-2.2
				c0.3-1,0.9-1.8,1.5-2.6c2.5-3.4,7.8-3.2,9.4,0.6c0.6,1.4,0.2,3.2-0.3,4.6c-2.2,6.7-8.6,12.8-13.8,17.4c-0.3,0.2,0.5,0.2,0.6,0.1
				c5.6-5,13.6-12.2,14.6-20.1c0.4-3.1-2.6-5.9-5.8-5.5c-4.3,0.6-7.4,4.3-7.4,8.6c0,0.2,0.6-0.1,0.7-0.1c2.3-2.4,3.2-5.2,3.2-8.6
				c0-0.2-0.6,0-0.6,0c-2.5,1.5-3.8,3.8-5.4,6.2c1.5-2.3,2.2-5.4,0.4-7.9c-0.1-0.2-0.5,0-0.6,0.1c-3.8,2.1-6.5,5.1-8.1,9.2
				C289.2,227.3,290,227.2,290,227L290,227z"/>
		</g>
	</g>
	<g>
		<g>
			<path class="st27" d="M316.6,226.4c5.6-2.1,14-5.6,15.1-12.3c0-0.2-0.2-0.2-0.2-0.2c-3.8,0.1-10.5,5.6-5.3,8.6
				c1.8,1.1,4.6-0.2,6.2-1.3c1.5-1.1,3-2.4,4.2-3.8c0.7-0.7,1-2.1,0.2-0.6c-0.5,1-0.2,2.3-0.5,3.4c0,0.2,0.2,0.2,0.2,0.2
				c13.8,1,27.7,0,41.4,1.3c0.2,0,0.9-0.3,0.5-0.4c-7.8-0.7-15.5-0.8-23.3-0.8c-4.1,0-8.2-0.1-12.2-0.2c-0.5,0-5.8,0-5.7-0.8
				c0.3-1.4,0.2-2.5,0.9-3.8c0.2-0.2-0.6-0.1-0.7,0.1c-1.9,2.2-3.9,4.2-6.4,5.8c-2.6,1.7-6.6,0.6-5.8-2.7c0.4-1.8,2.7-3.4,4.3-4.2
				c2.6-1.3,0.1,3-0.2,3.4c-1.1,1.6-2.8,2.8-4.3,3.8c-2.6,1.8-5.6,3-8.6,4.2C315.8,226.2,316.3,226.5,316.6,226.4L316.6,226.4z"/>
		</g>
	</g>
	<g>
		<g>
			<path class="st27" d="M329.1,215.9c9.8-2.3,19.8-2.5,29.7-3.3c0.2,0,0.8-0.4,0.3-0.3c-10.1,0.8-20.2,1-30.1,3.4
				C328.5,215.8,328.6,216.1,329.1,215.9L329.1,215.9z"/>
		</g>
	</g>
	<g>
		<g>
			<path class="st27" d="M320.3,180.4c1.2-4,3.4-7.5,5.7-11c-0.2,0-0.5,0-0.7,0c-0.1,4-1.4,7.8-2.2,11.8c-0.1,0.4,0.7,0.2,0.8-0.1
				c0.7-3.9,2.1-7.8,2.2-11.8c0-0.4-0.6-0.2-0.7,0c-2.3,3.5-4.6,7-5.7,11.1C319.3,180.8,320.1,180.7,320.3,180.4L320.3,180.4z"/>
		</g>
	</g>
	<g>
		<g>
			<path class="st27" d="M335.6,170c-1-2-2.8-1.5-4.2-0.2c-1.9,1.9-2.9,4.4-2.6,7c0.2,1.8,1.4,2.6,3.1,1.7c2.1-1.2,3.4-3.8,4-6
				c0.1-0.2-0.7-0.2-0.8,0.1c-0.6,1.8-1.4,3.4-2.6,4.8c-0.4,0.5-1,1.1-1.7,1.1s-1-1-1.1-1.6c-0.4-2,0.2-3.7,1.1-5.4
				c0.4-0.7,1-1.4,1.6-2c1-1,1.8-0.6,2.4,0.6C334.9,170.5,335.6,170.2,335.6,170L335.6,170z"/>
		</g>
	</g>
	<g>
		<g>
			<path class="st27" d="M342.3,170c-3.3-3.4-7.8,5.4-5.3,8.2c1,1.2,2.6,0,3.4-0.9c1.5-1.7,2.7-4.1,3-6.3c0-0.1-0.7,0-0.8,0.2
				c-0.2,1.3-2.9,8.6-4.8,6.8c-1.2-1.1-0.9-3.5-0.4-4.9c0.6-1.4,2.4-4.8,4.2-3C341.7,170.4,342.4,170.2,342.3,170L342.3,170z"/>
		</g>
	</g>
	<g>
		<g>
			<path class="st27" d="M343.3,176.5c-0.8,2.2-1.8,4.3-2.9,6.4c-0.2,0.4,0.6,0.4,0.7,0.1c1-2.1,2.1-4.2,2.9-6.4
				C344.2,176.2,343.4,176.2,343.3,176.5L343.3,176.5z"/>
		</g>
	</g>
	<g>
		<g>
			<path class="st27" d="M348,170.6c-0.2,0.7-0.6,1.4-0.3,2.2c0.1,0.2,0.4,0.1,0.6,0c1-0.3,2.1-1,2.3-2.1c0.2-1-1-1.7-1.8-1.8
				c0,0.1,0,0.2,0,0.2c-0.2,0.2,0.3,0,0.4,0c0.4-0.1,0.7-0.1,1.1-0.2c0.5-0.1,0.6-0.1,0.9,0.5c0.2,0.4,0.2,0.6,0.6,0.9
				c0.2,0.1,0.4,0,0.6-0.1c1.1-0.6,1.4-0.8,1.9-1.9v-0.1c-0.2-0.2-0.5-0.6-0.8-0.6s-0.7,0.2-1,0.2c-0.2-0.1-0.9,0.2-0.6,0.3
				c0.5,0.2,1.1-0.2,1.5,0.1c0.3,0.2-0.2,1-0.3,1.2c-0.2,0.3-0.8,0.5-1.1,0.6c0.2,0,0.4-0.1,0.6-0.1c-0.6-0.4-0.6-1-1-1.4
				c-0.2-0.2-0.6,0-0.8,0c-0.7,0.1-1.7,0.1-2.2,0.4c-0.2,0.1-0.2,0.2,0,0.2c0.7,0.1,1.4,0.5,1.6,1.2c0.2,1-1,1.8-1.8,2.1
				c0.2,0,0.3,0,0.6,0c-0.3-0.7,0.1-1.4,0.3-2.1C348.8,170.2,348,170.3,348,170.6L348,170.6z"/>
		</g>
	</g>
	<g>
		<g>
			<path class="st27" d="M347.6,175c3.7-0.6,7.4-1.4,11-1.8c0.4,0,0.6-0.5,0.1-0.4c-3.7,0.4-7.4,1.1-11,1.8
				C347.3,174.6,347,175,347.6,175L347.6,175z"/>
		</g>
	</g>
	<g>
		<g>
			<path class="st27" d="M135.3,190.9c-1.1,1-3,3.8-1.8,5.4c1,1.4,2.8,1,3.9,0c1-0.8,2.2-2.8,1.1-3.9c-0.5-0.6-1.4-0.4-2.1-0.3
				c0.1,0.2,0.2,0.3,0.3,0.2c0.8-0.2,1.6-0.6,2.4-0.8s2.2-0.6,2.2,0.6c0.1,0.9,0,1.4-0.3,2.1c-0.1,0.2,0.6,0,0.7-0.1
				c1.1-1.1,2.2-2.4,3.6-3.1c-0.2,0-0.4,0-0.6,0c-0.7,5,4.6,3.4,5.4-0.1c0.1-0.2-0.6-0.1-0.6,0c-1.4,0.9-2.5,2.2-0.7,3.3
				c1.4,0.9,3.5,0.6,4.9-0.2c0.5-0.2-0.2-0.3-0.5-0.2c-2.2,1.1-6.8-0.5-3.3-2.7c-0.2,0-0.4,0-0.6,0c-0.2,1.1-0.8,2-1.8,2.6
				c-2.2,1.4-2.2-1.7-2.1-2.8c0-0.2-0.6-0.1-0.6,0c-1.6,0.7-2.7,2.1-3.9,3.3c0.2,0,0.5-0.1,0.7-0.1c0.5-1,0.3-2.1,0.3-3.2
				c0-0.1-0.2-0.1-0.2-0.1c-2.1,0.1-4,0.9-6,1.4c-0.3,0.1-0.5,0.4,0,0.3c3.2-0.6,2.5,2.3,1,3.8c-1.9,1.8-3-0.6-2.7-2.2
				c0.2-1.2,1-2.4,1.8-3.2C136.3,190.6,135.5,190.7,135.3,190.9L135.3,190.9z"/>
		</g>
	</g>
	<g>
		<g>
			<path class="st27" d="M168.2,182.3c0.1-0.6,0.2-1,0-1.5c0-0.1-0.1-0.1-0.2-0.1c-2.4,0.2-3.6,1.9-4.5,4c-1.4,3.3-1.5,6.9-2.8,10.2
				c-0.1,0.1,0.6,0,0.8-0.2c0.9-1.9,2.2-3.4,4.2-4.5c-0.2,0-0.5,0.1-0.6,0.1c-0.1,2.8-1.1,5.4-1.5,8.2c0,0.2,0.6-0.1,0.6-0.1
				c2.5-1.6,3.4-4.6,5-7c-0.2,0.1-0.5,0.1-0.8,0.2c-0.2,0.8-2.2,6.1,0.4,5.4c2.2-0.6,3.1-3.6,3.4-5.5c0-0.1-0.7,0-0.8,0.2
				c-0.9,1.6-1.2,3.1-0.6,4.9c0.1,0.2,0.6-0.1,0.7-0.2c1.8-1.4,2.9-3.4,4.2-5.2c-0.2,0.1-0.5,0.1-0.8,0.2c0.3,1.8,0.2,3.4-0.3,5.1
				c-0.1,0.2,0.7,0,0.8-0.2c0.8-1.6,1.7-3.1,3.2-4.2c-0.2,0-0.5,0.1-0.6,0.1c-0.2,1.4,0.5,2.8,0.3,4.2c0,0.1,0.5,0,0.5,0
				c1.2-0.4,2-1,3-1.9c0.2-0.2-0.6-0.1-0.7,0.1c-0.8,0.8-1.4,1.4-2.5,1.7c0.2,0,0.3,0,0.5,0c0.2-1.4-0.5-2.8-0.3-4.2
				c0-0.2-0.6,0.1-0.6,0.1c-1.6,1.1-2.6,2.6-3.4,4.3c0.2-0.1,0.5-0.1,0.8-0.2c0.5-1.8,0.6-3.4,0.3-5.2c0-0.2-0.7,0.1-0.8,0.2
				c-1.4,1.8-2.4,3.8-4.2,5.1c0.2-0.1,0.5-0.1,0.7-0.2c-0.6-1.7-0.2-3.2,0.6-4.8c-0.2,0.1-0.5,0.1-0.8,0.2c-0.3,1.8-0.9,3.7-2.3,5
				c-0.7,0.6-0.9-0.9-0.9-1.2c0-1.3,0.5-2.6,1-3.9c0.1-0.2-0.6,0-0.8,0.2c-1.4,2.3-2.4,5.4-4.7,6.9c0.2,0,0.5-0.1,0.6-0.1
				c0.4-2.7,1.4-5.4,1.5-8.2c0-0.2-0.6,0.1-0.6,0.1c-2,1-3.4,2.6-4.3,4.6c0.2-0.1,0.5-0.1,0.8-0.2c0.9-2.3,1.3-4.9,1.9-7.2
				c0.3-1.4,0.8-2.7,1.4-4c0.6-1.1,2.9-3.7,2.6-1C167.4,182.6,168.1,182.6,168.2,182.3L168.2,182.3z"/>
		</g>
	</g>
	<g>
		<g>
			<path class="st27" d="M185.7,192.1c0.2-1.7-0.4-2-1.8-1.1c-2,1.2-2.7,3.9-2.2,6.1c0,0.2,0.4,0.1,0.6,0.1c5-2.4,6.7-9.6,8.1-14.4
				c0.1-0.3-0.6-0.1-0.7,0.1c-2.2,3.6-4.5,8.2-3,12.5c0.1,0.2,0.4,0.1,0.6,0.1c2.6-1.2,3.5-3.9,4.2-6.6c-0.2,0.1-0.5,0.1-0.8,0.2
				c1,1.8,0,4,0.6,6.1c0.1,0.2,0.3,0.1,0.4,0.1c2.3-0.5,3.5-2.2,3.7-4.5c0-0.3-0.6-0.2-0.7,0c-1.6,1.7-2.6,3.6-1.9,5.9
				c0,0.1,0.2,0.1,0.2,0.1c2.2-0.1,4-1,5.6-2.6c0.3-0.3-0.4-0.3-0.6-0.2c-0.6,0.6-4.1,3.4-4.6,1.8c-0.6-1.8,0.8-3.8,1.9-5
				c-0.2,0-0.5,0-0.7,0c-0.1,1.9-1,3.5-3,4c0.2,0,0.3,0.1,0.4,0.1c-0.6-2,0.4-4.2-0.6-6.1c-0.2-0.2-0.7-0.1-0.8,0.2
				c-0.6,2.3-1.3,5-3.7,6.2c0.2,0,0.3,0,0.6,0.1c-1.4-4.2,0.8-8.7,3-12.2c-0.2,0-0.5,0-0.7,0.1c-1.3,4.6-2.9,11.8-7.6,14
				c0.2,0,0.3,0,0.6,0.1c-0.2-1.2-0.2-2.3,0.2-3.4c0.3-0.9,2.6-3.4,2.2-1.2C184.8,192.5,185.6,192.3,185.7,192.1L185.7,192.1z"/>
		</g>
	</g>
	<g>
		<g>
			<path class="st27" d="M200.8,191.6c-1.6-0.1-4.1,1.4-4.1,3.2c0,1.7,1.9,1.9,3,1.1c1.9-1.4,2.9-4,3.8-6.1c0.8-1.9,1.9-4.3,2-6.5
				c0-0.3-0.6-0.1-0.7,0c-5.9,4.6-5.2,13.1-5.8,19.8c0,0.3,0.7,0.2,0.8-0.1c0.6-6.6-0.2-15,5.7-19.5c-0.2,0-0.5,0-0.7,0
				c-0.1,2.4-1.4,5-2.3,7.2c-0.6,1.4-1.4,3-2.4,4.2c-0.6,0.8-1.8,1.7-2.6,0.3s1.9-3.2,3-3.1C200.8,192.1,201.4,191.6,200.8,191.6
				L200.8,191.6z"/>
		</g>
	</g>
	<g>
		<g>
			<path class="st27" d="M211.1,195c2-0.6,3.6-2,4.3-4c0.1-0.2-0.3-0.2-0.4-0.2c-1.8,0.6-5.8,4.6-2.7,5.8c2.7,1.2,5.5-3.9,6.5-5.6
				c0.2-0.3-0.6-0.2-0.6-0.1c-1.5,1.7-2.8,3.7-2.1,6c0.1,0.2,0.5,0.1,0.6,0c2.3-1.3,3.8-3.5,5.2-5.7c0.2-0.3-0.6-0.2-0.6-0.1
				c-1.3,1.4-2.3,2.9-1.6,4.7c0.1,0.2,0.5,0.1,0.6,0c2.2-1.4,3.3-3.7,5.4-5c-0.2,0-0.4-0.1-0.6-0.1c-0.4,1-0.3,2.2-0.5,3.3
				c-0.1,0.3,0.5,0.1,0.6,0.1c1.5-0.8,2.8-1.8,4.2-2.9c-0.2,0-0.5-0.1-0.6-0.1c-0.7,1.4-1,2.7,0.6,3.5c0.2,0.1,0.5,0,0.6-0.2
				c1.6-1.5,2.2-4.7-0.9-3.8c-0.1,0-0.6,0.2-0.2,0.4c1.5,0.6,2.9,0.3,4.4-0.1c0.6-0.2,1.2-0.3,1.8-0.5c1.2-0.3,0.6,1,0.4,1.4
				c-0.5,1.5-1.7,2.7-2.9,3.7c0.2,0,0.5,0.1,0.6,0.1c4-5.9,12.7-2.4,18.2-1c0.2,0.1,0.9-0.3,0.5-0.4c-5.9-1.4-15.1-4.9-19.4,1.4
				c-0.2,0.3,0.6,0.2,0.6,0.1c1.8-1.4,3.2-3.3,3.4-5.7c0-0.2-0.2-0.2-0.3-0.2c-2.2,0.3-4.6,1.7-6.9,0.8c-0.1,0.2-0.2,0.2-0.2,0.4
				c1.9-0.6,1.5,1.2,1,2.2c-0.2,0.3-0.4,1-1,0.6c-0.8-0.6-0.1-2,0.2-2.6c0.2-0.3-0.6-0.2-0.6-0.1c-1.3,1-2.6,2-4,2.7
				c0.2,0,0.4,0.1,0.6,0.1c0.2-1.1,0.1-2.2,0.5-3.3c0.1-0.2-0.6-0.1-0.6-0.1c-2.1,1.4-3.2,3.8-5.4,5c0.2,0,0.4,0,0.6,0
				c-0.6-1.8,0.3-3.2,1.4-4.4c-0.2,0-0.5-0.1-0.6-0.1c-1.3,2.1-2.7,4.2-5,5.4c0.2,0,0.4,0,0.6,0c-0.6-2.2,0.5-4.1,1.9-5.7
				c-0.2,0-0.5-0.1-0.6-0.1c-0.9,1.8-2,3.4-3.5,4.7c-1.3,1-2.2,0.6-2.6-0.4c-0.2-0.6,0.3-1.4,0.6-1.8c0.6-0.9,1.5-2,2.6-2.2
				c-0.2-0.1-0.3-0.1-0.4-0.2c-0.6,1.8-2,3-3.8,3.6C210.2,194.8,210.7,195,211.1,195L211.1,195z"/>
		</g>
	</g>
	<g>
		<g>
			<path class="st27" d="M259,195.1c9.6,0.6,19.2-0.6,28.7-1.6c10.8-1.1,21.8-1.3,32.6-1.4c11.6-0.2,23.3,0,34.9,0.4
				c10.3,0.4,20.6,1.4,31,0.7c0.6-0.1,0.9-0.9,0.1-0.9c-10.7,0.7-21.4-0.4-32.2-0.8c-10.2-0.3-20.3-0.4-30.6-0.3
				c-10.5,0.1-21,0.2-31.4,1c-10.9,0.9-21.7,2.8-32.6,2C258.8,194.2,258.2,195.1,259,195.1L259,195.1z"/>
		</g>
	</g>
	<g>
		<g>
			<path class="st27" d="M100.4,192.6c8.9-0.2,17.8-1.8,26.6-0.2c0.3,0.1,1.4-0.4,0.7-0.5c-8.9-1.6-17.8,0.1-26.8,0.2
				C100.6,192.2,99.6,192.6,100.4,192.6L100.4,192.6z"/>
		</g>
	</g>
	<rect id="valueColor03_1_" x="102.7" y="132.8" class="st23" width="28.2" height="13"/>
	<rect id="valueColor04_1_" x="132.9" y="132.8" class="st23" width="46.6" height="13"/>
	<g>
		<g>
			<path class="st27" d="M179.4,178.9c-1.6-1-4.7-2.2-1.5-4.4c1-0.7,2.3-1.2,3.4-1.8c1.8-1,3.4-2,4.5-3.8c0.2-0.3-0.6-0.2-0.6-0.1
				c-1.3,1-1.9,3-2.6,4.4c-1.4,3-2.6,6.2-4.2,9c-1.9,3.4-5,6.6-8.3,2.8c-2.8-3,2.6-5.2,4.8-6.3c2-1,5.7-3.4,6.7-0.3
				c1.8,5,4.6-2.6,2.5-2.5c4.3-0.2,14.1-3,14-8.5c0-0.2-0.4-0.1-0.4-0.1c-5.2,1-6.8,7.1-9,11.2c-0.2,0.3,0.6,0.2,0.7,0
				c0.8-1,6.3-5.3,4.8-1.5c-0.5,1.3-0.6,2.1-0.5,3.4c0,0.2,0.3,0.1,0.4,0.1c1-0.3,1.8-0.7,2.6-1.4c0.3-0.2,2-2.1,2-2.1
				c0.8-0.8-0.3,2.5-0.5,2.9c-0.1,0.3,0.6,0.1,0.6,0.1c1-0.6,1.7-1.1,2.5-1.9c1.5-1.4,1.4-2.2,1.1-0.1c-0.2,1.3,0.9,2.1,1.8,2.6
				c2.6,1.4,6.7,0.8,9.5,0.2c0.5-0.1,0.4-0.5-0.1-0.4c-3.6,0.8-12.6,1.4-9.8-4.7c0.2-0.3-0.6-0.1-0.7,0c-1.1,1-2.2,2-3.2,3
				c-1.4,1.3,0.2-2.7,0.3-3c0.1-0.2-0.6-0.1-0.6-0.1c-0.9,0.6-1.6,1.2-2.3,2c-0.7,1.6-1.7,1.8-2.9,0.4c0.2-1.1,0.9-2.2,1.2-3.4
				c0.1-0.2-0.2-0.2-0.2-0.2c-1.7-0.1-3.1,0.3-4.4,1.4c-0.6,0.5-1.2,1-1.8,1.7c-0.2,0.2-0.1,0.2,0.3,0.2c0.7-1.4,1.4-2.8,2.1-4.2
				c0.6-1.2,1.3-2.2,2-3.4c0.7-1.4,1.8-1.8,3.4-1.5c-0.2,1.1-1.3,2-2.1,2.6c-2.9,2.5-7.6,3.9-11.4,4c-0.1,0-0.7,0.2-0.5,0.4
				c0.9,0.6,0.9,1.4,0.8,2.4c-0.4,3.1-2.2-1.8-2.3-2.4c0-0.2-0.3-0.2-0.4-0.1c-4.6,1.6-10.2,3.4-13.4,7.4c-0.1,0.1,0,0.1,0,0.2
				c4.2,6.4,8.4,4.1,11.6-1.7c1.8-3.3,3-6.8,4.6-10.2c0.3-0.6,0.6-1.3,1-1.9c0.2-0.2,0.3-0.4,0.5-0.6c-1.1,1-2.6,2.2-3.8,2.9
				c-2.3,1.4-4.7,2.2-6.6,4.3c0,0.1,0,0.1,0,0.2c1,1.2,2.3,2,3.6,2.9C179,179.4,179.7,179,179.4,178.9L179.4,178.9z"/>
		</g>
	</g>
	<g>
		<g>
			<path class="st27" d="M225.3,165.7c-3.9,3.9-5.8,9.3-7.3,14.5c-0.2,0.6,1,0.6,1.1,0.2c1.4-5.1,3.3-10.5,7.1-14.3
				C226.8,165.5,225.6,165.3,225.3,165.7L225.3,165.7z"/>
		</g>
	</g>
	<g>
		<g>
			<path class="st27" d="M221.2,167.7c8.5-3,8.4,5.7,5.4,10.8c-2,3.4-5.6,5.8-9.7,5.2c-4.6-0.6-8.6-5-0.2-6.5
				c3.3-0.6,6.7-0.8,10-0.9c1,0,5.9-0.6,5,1c-0.6,1-1,2.1-1.1,3.2c-0.2,1.2,0.7,1.6,1.8,1.3c2.6-0.7,4.5-6.7,1.5-4.9
				c-0.4,0.2,0.2,0.3,0.4,0.2c3.6-1.4,7.5-0.4,11-2.1c0.1,0,0.3-0.2,0.2-0.2c-4.4-3.4-12.2,3.1-5.9,6.6c3.1,1.7,7.8,0.3,10.9-0.6
				c3.9-1.1,7.7-2.8,11.3-4.6c0.5-0.2-0.2-0.3-0.5-0.2c-5.4,2.8-17.2,9.2-22.6,4.1c-1-0.9-1-2-0.7-3.1c0.6-0.6,1.2-1.2,1.8-1.8
				c3.4-1.4,4.1-1.2,2.2,0.8c-1.9,0.3-4,0.1-5.9,0.5c-1.7,0.4-1.1-0.1-1.3,2.1c-0.1,0.4-2.5,5.2-3.4,2.6c-0.5-1.4,1-3.7,1.8-4.6
				c0.1-0.2-0.1-0.2-0.2-0.2c-5-0.2-10,0-15,0.6c-2.4,0.3-5.8,0.7-7,3.2c-1.2,2.6,3.9,3.9,5.4,4.2c2.2,0.4,4.3-0.2,6.2-1
				c4.2-2.1,6.9-7.4,6.7-12c-0.2-4.9-5-4.9-8.5-3.7C220.4,167.6,220.9,167.8,221.2,167.7L221.2,167.7z"/>
		</g>
	</g>
	<script  type="text/javascript">
		<![CDATA[
            let id = this.frameElement.id;
            let color;
            switch(id) {
                case "1": color = "#DA542E"; break;
                case "2": color = "#a9c783"; break;
                case "3": color = "#28a5e1"; break;
                case "4": color = "#DA542E"; break;
            }
            document.getElementById("valueColor01").setAttribute("fill", color);
            document.getElementById("valueColor02").setAttribute("fill", color);
            document.getElementById("valueColor03").setAttribute("fill", color);
            document.getElementById("valueColor04").setAttribute("fill", color);
        
			
			]]>
	</script>
</g>
<g>
	<g>
		<rect x="92.6" y="150" class="st22" width="308" height="132"/>
		<path id="valueColor01_2_" class="st28" d="M398.6,152v128h-304V152L398.6,152 M402.6,148h-312v136h312V148L402.6,148z"/>
	</g>
	<rect id="valueColor02_2_" x="90.6" y="271.3" class="st28" width="312" height="12.6"/>
	<g>
		<g>
			<g>
				<defs>
					<rect id="SVGID_3_" x="90.6" y="148" width="312" height="136"/>
				</defs>
				<clipPath id="SVGID_4_">
					<use xlink:href="#SVGID_3_"  style="overflow:visible;"/>
				</clipPath>
				<g class="st29">
					<polyline class="st30" points="81.7,153.2 81.7,153.2 99.9,135.1 118,153.2 118,153.2 136.2,135.1 154.3,153.2 154.3,153.2 
						172.4,135.1 190.6,153.2 190.6,153.2 208.7,135.1 226.9,153.2 226.9,153.2 245.1,135.1 263.2,153.2 263.2,153.2 281.4,135.1 
						299.5,153.2 299.5,153.2 317.7,135.1 335.9,153.2 335.9,153.2 354,135.1 372.2,153.2 372.2,153.2 390.3,135.1 408.5,153.2 
						408.5,153.2 					"/>
					<polyline class="st30" points="81.7,158.4 81.7,158.4 99.9,140.2 118,158.4 118,158.4 136.2,140.2 154.3,158.4 154.3,158.4 
						172.4,140.2 190.6,158.4 190.6,158.4 208.7,140.2 226.9,158.4 226.9,158.4 245.1,140.2 263.2,158.4 263.2,158.4 281.4,140.2 
						299.5,158.4 299.5,158.4 317.7,140.2 335.9,158.4 335.9,158.4 354,140.2 372.2,158.4 372.2,158.4 390.3,140.2 408.5,158.4 
						408.5,158.4 					"/>
					<polyline class="st30" points="81.7,163.6 81.7,163.6 99.9,145.4 118,163.6 118,163.6 136.2,145.4 154.3,163.6 154.3,163.6 
						172.4,145.4 190.6,163.6 190.6,163.6 208.7,145.4 226.9,163.6 226.9,163.6 245.1,145.4 263.2,163.6 263.2,163.6 281.4,145.4 
						299.5,163.6 299.5,163.6 317.7,145.4 335.9,163.6 335.9,163.6 354,145.4 372.2,163.6 372.2,163.6 390.3,145.4 408.5,163.6 
						408.5,163.6 					"/>
					<polyline class="st30" points="81.7,168.8 81.7,168.8 99.9,150.6 118,168.8 118,168.8 136.2,150.6 154.3,168.8 154.3,168.8 
						172.4,150.6 190.6,168.8 190.6,168.8 208.7,150.6 226.9,168.8 226.9,168.8 245.1,150.6 263.2,168.8 263.2,168.8 281.4,150.6 
						299.5,168.8 299.5,168.8 317.7,150.6 335.9,168.8 335.9,168.8 354,150.6 372.2,168.8 372.2,168.8 390.3,150.6 408.5,168.8 
						408.5,168.8 					"/>
					<polyline class="st30" points="81.7,173.9 81.7,173.9 99.9,155.7 118,173.9 118,173.9 136.2,155.7 154.3,173.9 154.3,173.9 
						172.4,155.7 190.6,173.9 190.6,173.9 208.7,155.7 226.9,173.9 226.9,173.9 245.1,155.7 263.2,173.9 263.2,173.9 281.4,155.7 
						299.5,173.9 299.5,173.9 317.7,155.7 335.9,173.9 335.9,173.9 354,155.7 372.2,173.9 372.2,173.9 390.3,155.7 408.5,173.9 
						408.5,173.9 					"/>
					<polyline class="st30" points="81.7,179.1 81.7,179.1 99.9,160.9 118,179.1 118,179.1 136.2,160.9 154.3,179.1 154.3,179.1 
						172.4,160.9 190.6,179.1 190.6,179.1 208.7,160.9 226.9,179.1 226.9,179.1 245.1,160.9 263.2,179.1 263.2,179.1 281.4,160.9 
						299.5,179.1 299.5,179.1 317.7,160.9 335.9,179.1 335.9,179.1 354,160.9 372.2,179.1 372.2,179.1 390.3,160.9 408.5,179.1 
						408.5,179.1 					"/>
					<polyline class="st30" points="81.7,184.2 81.7,184.2 99.9,166 118,184.2 118,184.2 136.2,166 154.3,184.2 154.3,184.2 
						172.4,166 190.6,184.2 190.6,184.2 208.7,166 226.9,184.2 226.9,184.2 245.1,166 263.2,184.2 263.2,184.2 281.4,166 
						299.5,184.2 299.5,184.2 317.7,166 335.9,184.2 335.9,184.2 354,166 372.2,184.2 372.2,184.2 390.3,166 408.5,184.2 
						408.5,184.2 					"/>
					<polyline class="st30" points="81.7,189.4 81.7,189.4 99.9,171.2 118,189.4 118,189.4 136.2,171.2 154.3,189.4 154.3,189.4 
						172.4,171.2 190.6,189.4 190.6,189.4 208.7,171.2 226.9,189.4 226.9,189.4 245.1,171.2 263.2,189.4 263.2,189.4 281.4,171.2 
						299.5,189.4 299.5,189.4 317.7,171.2 335.9,189.4 335.9,189.4 354,171.2 372.2,189.4 372.2,189.4 390.3,171.2 408.5,189.4 
						408.5,189.4 					"/>
					<polyline class="st30" points="81.7,194.6 81.7,194.6 99.9,176.4 118,194.6 118,194.6 136.2,176.4 154.3,194.6 154.3,194.6 
						172.4,176.4 190.6,194.6 190.6,194.6 208.7,176.4 226.9,194.6 226.9,194.6 245.1,176.4 263.2,194.6 263.2,194.6 281.4,176.4 
						299.5,194.6 299.5,194.6 317.7,176.4 335.9,194.6 335.9,194.6 354,176.4 372.2,194.6 372.2,194.6 390.3,176.4 408.5,194.6 
						408.5,194.6 					"/>
					<polyline class="st30" points="81.7,199.7 81.7,199.7 99.9,181.6 118,199.7 118,199.7 136.2,181.6 154.3,199.7 154.3,199.7 
						172.4,181.6 190.6,199.7 190.6,199.7 208.7,181.6 226.9,199.7 226.9,199.7 245.1,181.6 263.2,199.7 263.2,199.7 281.4,181.6 
						299.5,199.7 299.5,199.7 317.7,181.6 335.9,199.7 335.9,199.7 354,181.6 372.2,199.7 372.2,199.7 390.3,181.6 408.5,199.7 
						408.5,199.7 					"/>
					<polyline class="st30" points="81.7,204.9 81.7,204.9 99.9,186.8 118,204.9 118,204.9 136.2,186.8 154.3,204.9 154.3,204.9 
						172.4,186.8 190.6,204.9 190.6,204.9 208.7,186.8 226.9,204.9 226.9,204.9 245.1,186.8 263.2,204.9 263.2,204.9 281.4,186.8 
						299.5,204.9 299.5,204.9 317.7,186.8 335.9,204.9 335.9,204.9 354,186.8 372.2,204.9 372.2,204.9 390.3,186.8 408.5,204.9 
						408.5,204.9 					"/>
					<polyline class="st30" points="81.7,210 81.7,210 99.9,191.9 118,210 118,210 136.2,191.9 154.3,210 154.3,210 172.4,191.9 
						190.6,210 190.6,210 208.7,191.9 226.9,210 226.9,210 245.1,191.9 263.2,210 263.2,210 281.4,191.9 299.5,210 299.5,210 
						317.7,191.9 335.9,210 335.9,210 354,191.9 372.2,210 372.2,210 390.3,191.9 408.5,210 408.5,210 					"/>
					<polyline class="st30" points="81.7,215.2 81.7,215.2 99.9,197.1 118,215.2 118,215.2 136.2,197.1 154.3,215.2 154.3,215.2 
						172.4,197.1 190.6,215.2 190.6,215.2 208.7,197.1 226.9,215.2 226.9,215.2 245.1,197.1 263.2,215.2 263.2,215.2 281.4,197.1 
						299.5,215.2 299.5,215.2 317.7,197.1 335.9,215.2 335.9,215.2 354,197.1 372.2,215.2 372.2,215.2 390.3,197.1 408.5,215.2 
						408.5,215.2 					"/>
					<polyline class="st30" points="81.7,220.4 81.7,220.4 99.9,202.3 118,220.4 118,220.4 136.2,202.3 154.3,220.4 154.3,220.4 
						172.4,202.3 190.6,220.4 190.6,220.4 208.7,202.3 226.9,220.4 226.9,220.4 245.1,202.3 263.2,220.4 263.2,220.4 281.4,202.3 
						299.5,220.4 299.5,220.4 317.7,202.3 335.9,220.4 335.9,220.4 354,202.3 372.2,220.4 372.2,220.4 390.3,202.3 408.5,220.4 
						408.5,220.4 					"/>
					<polyline class="st30" points="81.7,225.6 81.7,225.6 99.9,207.4 118,225.6 118,225.6 136.2,207.4 154.3,225.6 154.3,225.6 
						172.4,207.4 190.6,225.6 190.6,225.6 208.7,207.4 226.9,225.6 226.9,225.6 245.1,207.4 263.2,225.6 263.2,225.6 281.4,207.4 
						299.5,225.6 299.5,225.6 317.7,207.4 335.9,225.6 335.9,225.6 354,207.4 372.2,225.6 372.2,225.6 390.3,207.4 408.5,225.6 
						408.5,225.6 					"/>
					<polyline class="st30" points="81.7,230.8 81.7,230.8 99.9,212.6 118,230.8 118,230.8 136.2,212.6 154.3,230.8 154.3,230.8 
						172.4,212.6 190.6,230.8 190.6,230.8 208.7,212.6 226.9,230.8 226.9,230.8 245.1,212.6 263.2,230.8 263.2,230.8 281.4,212.6 
						299.5,230.8 299.5,230.8 317.7,212.6 335.9,230.8 335.9,230.8 354,212.6 372.2,230.8 372.2,230.8 390.3,212.6 408.5,230.8 
						408.5,230.8 					"/>
					<polyline class="st30" points="81.7,235.9 81.7,235.9 99.9,217.7 118,235.9 118,235.9 136.2,217.7 154.3,235.9 154.3,235.9 
						172.4,217.7 190.6,235.9 190.6,235.9 208.7,217.7 226.9,235.9 226.9,235.9 245.1,217.7 263.2,235.9 263.2,235.9 281.4,217.7 
						299.5,235.9 299.5,235.9 317.7,217.7 335.9,235.9 335.9,235.9 354,217.7 372.2,235.9 372.2,235.9 390.3,217.7 408.5,235.9 
						408.5,235.9 					"/>
					<polyline class="st30" points="81.7,241.1 81.7,241.1 99.9,222.9 118,241.1 118,241.1 136.2,222.9 154.3,241.1 154.3,241.1 
						172.4,222.9 190.6,241.1 190.6,241.1 208.7,222.9 226.9,241.1 226.9,241.1 245.1,222.9 263.2,241.1 263.2,241.1 281.4,222.9 
						299.5,241.1 299.5,241.1 317.7,222.9 335.9,241.1 335.9,241.1 354,222.9 372.2,241.1 372.2,241.1 390.3,222.9 408.5,241.1 
						408.5,241.1 					"/>
					<polyline class="st30" points="81.7,246.3 81.7,246.3 99.9,228.1 118,246.3 118,246.3 136.2,228.1 154.3,246.3 154.3,246.3 
						172.4,228.1 190.6,246.3 190.6,246.3 208.7,228.1 226.9,246.3 226.9,246.3 245.1,228.1 263.2,246.3 263.2,246.3 281.4,228.1 
						299.5,246.3 299.5,246.3 317.7,228.1 335.9,246.3 335.9,246.3 354,228.1 372.2,246.3 372.2,246.3 390.3,228.1 408.5,246.3 
						408.5,246.3 					"/>
					<polyline class="st30" points="81.7,251.4 81.7,251.4 99.9,233.2 118,251.4 118,251.4 136.2,233.2 154.3,251.4 154.3,251.4 
						172.4,233.2 190.6,251.4 190.6,251.4 208.7,233.2 226.9,251.4 226.9,251.4 245.1,233.2 263.2,251.4 263.2,251.4 281.4,233.2 
						299.5,251.4 299.5,251.4 317.7,233.2 335.9,251.4 335.9,251.4 354,233.2 372.2,251.4 372.2,251.4 390.3,233.2 408.5,251.4 
						408.5,251.4 					"/>
					<polyline class="st30" points="81.7,256.6 81.7,256.6 99.9,238.4 118,256.6 118,256.6 136.2,238.4 154.3,256.6 154.3,256.6 
						172.4,238.4 190.6,256.6 190.6,256.6 208.7,238.4 226.9,256.6 226.9,256.6 245.1,238.4 263.2,256.6 263.2,256.6 281.4,238.4 
						299.5,256.6 299.5,256.6 317.7,238.4 335.9,256.6 335.9,256.6 354,238.4 372.2,256.6 372.2,256.6 390.3,238.4 408.5,256.6 
						408.5,256.6 					"/>
					<polyline class="st30" points="81.7,261.7 81.7,261.7 99.9,243.6 118,261.7 118,261.7 136.2,243.6 154.3,261.7 154.3,261.7 
						172.4,243.6 190.6,261.7 190.6,261.7 208.7,243.6 226.9,261.7 226.9,261.7 245.1,243.6 263.2,261.7 263.2,261.7 281.4,243.6 
						299.5,261.7 299.5,261.7 317.7,243.6 335.9,261.7 335.9,261.7 354,243.6 372.2,261.7 372.2,261.7 390.3,243.6 408.5,261.7 
						408.5,261.7 					"/>
					<polyline class="st30" points="81.7,266.9 81.7,266.9 99.9,248.8 118,266.9 118,266.9 136.2,248.8 154.3,266.9 154.3,266.9 
						172.4,248.8 190.6,266.9 190.6,266.9 208.7,248.8 226.9,266.9 226.9,266.9 245.1,248.8 263.2,266.9 263.2,266.9 281.4,248.8 
						299.5,266.9 299.5,266.9 317.7,248.8 335.9,266.9 335.9,266.9 354,248.8 372.2,266.9 372.2,266.9 390.3,248.8 408.5,266.9 
						408.5,266.9 					"/>
					<polyline class="st30" points="81.7,272.1 81.7,272.1 99.9,254 118,272.1 118,272.1 136.2,254 154.3,272.1 154.3,272.1 
						172.4,254 190.6,272.1 190.6,272.1 208.7,254 226.9,272.1 226.9,272.1 245.1,254 263.2,272.1 263.2,272.1 281.4,254 
						299.5,272.1 299.5,272.1 317.7,254 335.9,272.1 335.9,272.1 354,254 372.2,272.1 372.2,272.1 390.3,254 408.5,272.1 
						408.5,272.1 					"/>
					<polyline class="st30" points="81.7,277.2 81.7,277.2 99.9,259.1 118,277.2 118,277.2 136.2,259.1 154.3,277.2 154.3,277.2 
						172.4,259.1 190.6,277.2 190.6,277.2 208.7,259.1 226.9,277.2 226.9,277.2 245.1,259.1 263.2,277.2 263.2,277.2 281.4,259.1 
						299.5,277.2 299.5,277.2 317.7,259.1 335.9,277.2 335.9,277.2 354,259.1 372.2,277.2 372.2,277.2 390.3,259.1 408.5,277.2 
						408.5,277.2 					"/>
					<polyline class="st30" points="81.7,282.4 81.7,282.4 99.9,264.3 118,282.4 118,282.4 136.2,264.3 154.3,282.4 154.3,282.4 
						172.4,264.3 190.6,282.4 190.6,282.4 208.7,264.3 226.9,282.4 226.9,282.4 245.1,264.3 263.2,282.4 263.2,282.4 281.4,264.3 
						299.5,282.4 299.5,282.4 317.7,264.3 335.9,282.4 335.9,282.4 354,264.3 372.2,282.4 372.2,282.4 390.3,264.3 408.5,282.4 
						408.5,282.4 					"/>
					<polyline class="st30" points="81.7,287.6 81.7,287.6 99.9,269.4 118,287.6 118,287.6 136.2,269.4 154.3,287.6 154.3,287.6 
						172.4,269.4 190.6,287.6 190.6,287.6 208.7,269.4 226.9,287.6 226.9,287.6 245.1,269.4 263.2,287.6 263.2,287.6 281.4,269.4 
						299.5,287.6 299.5,287.6 317.7,269.4 335.9,287.6 335.9,287.6 354,269.4 372.2,287.6 372.2,287.6 390.3,269.4 408.5,287.6 
						408.5,287.6 					"/>
					<polyline class="st30" points="81.7,292.8 81.7,292.8 99.9,274.6 118,292.8 118,292.8 136.2,274.6 154.3,292.8 154.3,292.8 
						172.4,274.6 190.6,292.8 190.6,292.8 208.7,274.6 226.9,292.8 226.9,292.8 245.1,274.6 263.2,292.8 263.2,292.8 281.4,274.6 
						299.5,292.8 299.5,292.8 317.7,274.6 335.9,292.8 335.9,292.8 354,274.6 372.2,292.8 372.2,292.8 390.3,274.6 408.5,292.8 
						408.5,292.8 					"/>
					<polyline class="st30" points="81.7,298 81.7,298 99.9,279.8 118,298 118,298 136.2,279.8 154.3,298 154.3,298 172.4,279.8 
						190.6,298 190.6,298 208.7,279.8 226.9,298 226.9,298 245.1,279.8 263.2,298 263.2,298 281.4,279.8 299.5,298 299.5,298 
						317.7,279.8 335.9,298 335.9,298 354,279.8 372.2,298 372.2,298 390.3,279.8 408.5,298 408.5,298 					"/>
				</g>
			</g>
		</g>
	</g>
	<path d="M106.1,274.1l-1.2,6.5h-0.3l0.4-2.4h-1l0.1-0.3h1l0.2-1.1h-1l0.1-0.3h1l0.4-2.3L106.1,274.1L106.1,274.1z M105.9,280.6
		l1.2-6.5h0.2l-0.4,2.3h1l-0.1,0.3h-1l-0.2,1.1h1l-0.1,0.3h-1L105.9,280.6L105.9,280.6L105.9,280.6z"/>
	<path d="M116,277.6c0,0.8,0.2,2.5-1.4,2.5c-1.4,0-1.4-1.6-1.4-2.5c0-1.1-0.1-2.5,1.4-2.5C116.2,275.1,116,277,116,277.6z
		 M113.9,277.6c0,1.9,0.3,2,0.8,2c0.6,0,0.8-0.2,0.8-2c0-1.8-0.3-2-0.8-2C113.8,275.5,113.9,276.6,113.9,277.6z"/>
	<path d="M118.8,275.7l-0.9,0.3l-0.2-0.4l1.5-0.6v4.5h1v0.4h-2.7v-0.4h1.2L118.8,275.7L118.8,275.7z"/>
	<path d="M121.9,279.5l1.8-2.3c0.2-0.3,0.4-0.5,0.4-0.9c0-0.5-0.3-0.8-0.8-0.8c-0.6,0-0.9,0.5-1,1l-0.5-0.1c0.1-0.8,0.6-1.4,1.4-1.4
		c0.7,0,1.3,0.5,1.3,1.2c0,0.5-0.2,0.8-0.5,1.2l-1.6,2h2.1v0.4h-2.6C121.9,279.8,121.9,279.5,121.9,279.5z"/>
	<path d="M126.8,277l1.4-1.4h-2v-0.4h2.6v0.4l-1.4,1.4c0.7,0,1.4,0.4,1.4,1.2c0,0.6-0.3,1.1-0.9,1.4c-0.4,0.2-0.9,0.4-1.8,0.4v-0.5
		c0.8,0,1.1-0.1,1.4-0.2c0.4-0.2,0.8-0.6,0.8-1.1c0-0.6-0.6-0.8-1-0.8c-0.2,0-0.4,0-0.6,0.1V277H126.8z"/>
	<path d="M130.6,278.8l0.7-3.7l0.5,0.2l-0.6,3.1h1.3v-2.5h0.6v2.5h0.4v0.4h-0.4v1.2h-0.5v-1.2H130.6L130.6,278.8z"/>
	<path d="M135.1,275.2h2.5v0.4h-2v1.4c0.2-0.1,0.5-0.2,0.7-0.2c0.7,0,1.3,0.5,1.3,1.3c0,0.6-0.3,1.1-0.9,1.4
		c-0.4,0.2-0.9,0.4-1.8,0.4v-0.5c0.6,0,1.1,0,1.4-0.2c0.4-0.2,0.7-0.6,0.7-1.2c0-0.5-0.3-0.8-0.9-0.8c-0.3,0-0.6,0.1-0.8,0.2H135
		L135.1,275.2L135.1,275.2z"/>
	<path d="M141.5,275.9c-0.2-0.2-0.5-0.4-0.8-0.4c-0.9,0-1,1.1-1,1.8c0.3-0.2,0.6-0.4,1-0.4c0.9,0,1.2,0.7,1.2,1.5
		c0,0.9-0.5,1.6-1.4,1.6c-1.2,0-1.3-1.5-1.3-2.4c0-1,0.2-2.6,1.4-2.6c0.4,0,0.8,0.2,1,0.4L141.5,275.9z M140.6,279.6
		c0.6,0,0.9-0.5,0.9-1.1s-0.2-1.1-0.8-1.1c-0.3,0-0.6,0.2-0.9,0.5C139.8,279.3,140.2,279.6,140.6,279.6z"/>
	<path d="M145.8,275.6h-2v-0.4h2.6l-2.2,4.9l-0.4-0.2L145.8,275.6z"/>
	<path d="M150.6,278.7c0,0.8-0.6,1.3-1.4,1.3c-0.8,0-1.4-0.5-1.4-1.3c0-0.6,0.4-1,1-1.3c-0.4-0.2-0.8-0.6-0.8-1.2
		c0-0.7,0.5-1.2,1.2-1.2s1.2,0.6,1.2,1.2c0,0.6-0.4,0.9-0.8,1.2C150.2,277.7,150.6,278,150.6,278.7z M148.3,278.8
		c0,0.5,0.4,0.8,0.9,0.8s0.9-0.3,0.9-0.8c0-0.6-0.5-0.8-0.9-1C148.8,278,148.3,278.1,148.3,278.8z M149.9,276.3
		c0-0.4-0.2-0.8-0.7-0.8s-0.7,0.3-0.7,0.8s0.4,0.6,0.7,0.9C149.5,276.9,149.9,276.8,149.9,276.3z"/>
	<path d="M152.7,279.2c0.2,0.2,0.5,0.4,0.8,0.4c0.9,0,1-1.1,1-1.8c-0.3,0.2-0.6,0.4-1,0.4c-0.9,0-1.2-0.7-1.2-1.5
		c0-0.9,0.5-1.6,1.4-1.6c1.3,0,1.3,1.5,1.3,2.4c0,1-0.2,2.6-1.4,2.6c-0.4,0-0.8-0.2-1-0.4L152.7,279.2z M153.5,275.5
		c-0.6,0-0.9,0.5-0.9,1.1s0.2,1.1,0.8,1.1c0.3,0,0.6-0.2,0.9-0.5C154.4,275.8,154,275.5,153.5,275.5z"/>
	<path d="M180.7,277.6c0,0.8,0.2,2.5-1.4,2.5c-1.4,0-1.4-1.6-1.4-2.5c0-1.1-0.1-2.5,1.4-2.5C180.8,275.1,180.7,277,180.7,277.6z
		 M178.5,277.6c0,1.9,0.3,2,0.8,2c0.6,0,0.8-0.2,0.8-2c0-1.8-0.3-2-0.8-2C178.4,275.5,178.5,276.6,178.5,277.6z"/>
	<path d="M183.5,275.7l-0.9,0.3l-0.2-0.4l1.5-0.6v4.5h1v0.4h-2.7v-0.4h1.2C183.5,279.6,183.5,275.7,183.5,275.7z"/>
	<path d="M186.6,279.5l1.8-2.3c0.2-0.3,0.4-0.5,0.4-0.9c0-0.5-0.3-0.8-0.8-0.8c-0.6,0-0.9,0.5-1,1l-0.5-0.1c0.1-0.8,0.6-1.4,1.4-1.4
		c0.7,0,1.3,0.5,1.3,1.2c0,0.5-0.2,0.8-0.5,1.2l-1.6,2h2.1v0.4h-2.6L186.6,279.5L186.6,279.5z"/>
	<path d="M191.5,277l1.4-1.4h-2v-0.4h2.6v0.4l-1.4,1.4c0.7,0,1.4,0.4,1.4,1.2c0,0.6-0.3,1.1-0.9,1.4c-0.4,0.2-0.9,0.4-1.8,0.4v-0.5
		c0.8,0,1.1-0.1,1.4-0.2c0.4-0.2,0.8-0.6,0.8-1.1c0-0.6-0.6-0.8-1-0.8c-0.2,0-0.4,0-0.6,0.1C191.5,277.4,191.5,277,191.5,277z"/>
	<path d="M195.2,278.8l0.7-3.7l0.5,0.2l-0.6,3.1h1.3v-2.5h0.5v2.5h0.4v0.4h-0.4v1.2h-0.5v-1.2H195.2L195.2,278.8z"/>
	<path d="M199.7,275.2h2.5v0.4h-2v1.4c0.2-0.1,0.5-0.2,0.7-0.2c0.7,0,1.3,0.5,1.3,1.3c0,0.6-0.3,1.1-0.9,1.4
		c-0.4,0.2-0.9,0.4-1.8,0.4v-0.5c0.6,0,1.1,0,1.4-0.2c0.4-0.2,0.7-0.6,0.7-1.2c0-0.5-0.3-0.8-0.9-0.8c-0.3,0-0.6,0.1-0.8,0.2h-0.3
		L199.7,275.2L199.7,275.2z"/>
	<path d="M206.1,275.9c-0.2-0.2-0.5-0.4-0.8-0.4c-0.9,0-1,1.1-1,1.8c0.3-0.2,0.6-0.4,1-0.4c0.9,0,1.2,0.7,1.2,1.5
		c0,0.9-0.5,1.6-1.4,1.6c-1.2,0-1.3-1.5-1.3-2.4c0-1,0.2-2.6,1.4-2.6c0.4,0,0.8,0.2,1,0.4L206.1,275.9z M205.2,279.6
		c0.6,0,0.9-0.5,0.9-1.1s-0.2-1.1-0.8-1.1c-0.3,0-0.6,0.2-0.9,0.5C204.4,279.3,204.8,279.6,205.2,279.6z"/>
	<path d="M210.4,275.6h-2v-0.4h2.6l-2.2,4.9l-0.4-0.2L210.4,275.6z"/>
	<path d="M215.2,278.7c0,0.8-0.6,1.3-1.4,1.3c-0.8,0-1.4-0.5-1.4-1.3c0-0.6,0.4-1,1-1.3c-0.4-0.2-0.8-0.6-0.8-1.2
		c0-0.7,0.5-1.2,1.2-1.2s1.2,0.6,1.2,1.2c0,0.6-0.4,0.9-0.8,1.2C214.8,277.7,215.2,278,215.2,278.7z M213,278.8
		c0,0.5,0.4,0.8,0.9,0.8s0.9-0.3,0.9-0.8c0-0.6-0.5-0.8-0.9-1C213.5,278,213,278.1,213,278.8z M214.6,276.3c0-0.4-0.2-0.8-0.7-0.8
		s-0.7,0.3-0.7,0.8s0.4,0.6,0.7,0.9C214.3,276.9,214.6,276.8,214.6,276.3z"/>
	<path d="M217.3,279.2c0.2,0.2,0.5,0.4,0.8,0.4c0.9,0,1-1.1,1-1.8c-0.3,0.2-0.6,0.4-1,0.4c-0.9,0-1.2-0.7-1.2-1.5
		c0-0.9,0.5-1.6,1.4-1.6c1.3,0,1.3,1.5,1.3,2.4c0,1-0.2,2.6-1.4,2.6c-0.4,0-0.8-0.2-1-0.4L217.3,279.2z M218.2,275.5
		c-0.6,0-0.9,0.5-0.9,1.1s0.2,1.1,0.8,1.1c0.3,0,0.6-0.2,0.9-0.5C219.1,275.8,218.7,275.5,218.2,275.5z"/>
	<path d="M223.9,277.6c0,0.8,0.2,2.5-1.4,2.5c-1.4,0-1.4-1.6-1.4-2.5c0-1.1-0.1-2.5,1.4-2.5C224,275.1,223.9,277,223.9,277.6z
		 M221.7,277.6c0,1.9,0.3,2,0.8,2c0.6,0,0.8-0.2,0.8-2c0-1.8-0.3-2-0.8-2C221.6,275.5,221.7,276.6,221.7,277.6z"/>
	<path d="M226.7,275.7l-0.9,0.3l-0.2-0.4l1.5-0.6v4.5h1v0.4h-2.7v-0.4h1.2L226.7,275.7L226.7,275.7z"/>
	<path d="M229.8,279.5l1.8-2.3c0.2-0.3,0.4-0.5,0.4-0.9c0-0.5-0.3-0.8-0.8-0.8c-0.6,0-0.9,0.5-1,1l-0.5-0.1c0.1-0.8,0.6-1.4,1.4-1.4
		c0.7,0,1.3,0.5,1.3,1.2c0,0.5-0.2,0.8-0.5,1.2l-1.6,2h2.1v0.4h-2.6L229.8,279.5L229.8,279.5z"/>
	<path d="M234.7,277l1.4-1.4h-2v-0.4h2.6v0.4l-1.4,1.4c0.7,0,1.4,0.4,1.4,1.2c0,0.6-0.3,1.1-0.9,1.4c-0.4,0.2-0.9,0.4-1.8,0.4v-0.5
		c0.8,0,1.1-0.1,1.4-0.2c0.4-0.2,0.8-0.6,0.8-1.1c0-0.6-0.6-0.8-1-0.8c-0.2,0-0.4,0-0.6,0.1V277H234.7z"/>
	<path d="M238.4,278.8l0.7-3.7l0.5,0.2l-0.6,3.1h1.3v-2.5h0.5v2.5h0.4v0.4h-0.4v1.2h-0.5v-1.2H238.4L238.4,278.8z"/>
	<path d="M275.6,277.6c0,0.8,0.2,2.5-1.4,2.5c-1.4,0-1.4-1.6-1.4-2.5c0-1.1-0.1-2.5,1.4-2.5C275.9,275.1,275.6,277,275.6,277.6z
		 M273.5,277.6c0,1.9,0.3,2,0.8,2c0.6,0,0.8-0.2,0.8-2c0-1.8-0.3-2-0.8-2C273.4,275.5,273.5,276.6,273.5,277.6z"/>
	<path d="M278.5,275.7l-0.9,0.3l-0.2-0.4l1.5-0.6v4.5h1v0.4h-2.7v-0.4h1.2v-3.8H278.5z"/>
	<path d="M281.6,279.5l1.8-2.3c0.2-0.3,0.4-0.5,0.4-0.9c0-0.5-0.3-0.8-0.8-0.8c-0.6,0-0.9,0.5-1,1l-0.5-0.1c0.1-0.8,0.6-1.4,1.4-1.4
		c0.7,0,1.3,0.5,1.3,1.2c0,0.5-0.2,0.8-0.5,1.2l-1.6,2h2.1v0.4h-2.6L281.6,279.5L281.6,279.5z"/>
	<path d="M286.5,277l1.4-1.4h-2v-0.4h2.6v0.4l-1.4,1.4c0.7,0,1.4,0.4,1.4,1.2c0,0.6-0.3,1.1-0.9,1.4c-0.4,0.2-0.9,0.4-1.8,0.4v-0.5
		c0.8,0,1.1-0.1,1.4-0.2c0.4-0.2,0.8-0.6,0.8-1.1c0-0.6-0.6-0.8-1-0.8c-0.2,0-0.4,0-0.6,0.1V277H286.5z"/>
	<path d="M105.5,175.6h0.5l0.1,3.8h-0.3l-0.1-3.1l0,0l-0.6,1.8l-0.6-1.8l0,0l-0.1,3.1H104l0.1-3.8h0.5l0.6,1.6L105.5,175.6z"/>
	<path d="M107.9,178.6l-0.2,0.9l-0.4-0.2l0.9-2.9h0.5l0.9,2.9l-0.4,0.2l-0.2-0.9H107.9z M108.4,176.9l-0.4,1.4h0.8L108.4,176.9z"/>
	<path d="M111,179.5l-0.3-0.2l0.9-1.4l-0.8-1.3l0.3-0.2l0.7,1.1l0.7-1.1l0.3,0.2l-0.8,1.3l0.9,1.4l-0.3,0.2l-0.8-1.3L111,179.5z"/>
	<path d="M119,175.6h0.5l0.1,3.8h-0.5l-0.1-3.1l0,0l-0.6,1.8l-0.6-1.8l0,0v3.1h-0.4l0.1-3.8h0.5l0.6,1.6L119,175.6z"/>
	<path d="M121.3,176.4v2c0,0.4,0.2,0.6,0.5,0.6c0.5,0,0.6-0.2,0.6-0.6v-2h0.4v2.2c0,0.4-0.2,0.8-0.9,0.8s-0.9-0.4-0.9-0.8v-2.2
		H121.3z"/>
	<path d="M124.6,178.4c0.1,0.3,0.2,0.6,0.6,0.6c0.3,0,0.6-0.2,0.6-0.5s-0.3-0.5-0.6-0.6c-0.4-0.2-0.8-0.3-0.8-0.9
		c0-0.5,0.4-0.8,0.9-0.8s0.8,0.3,0.9,0.7l-0.3,0.1c-0.1-0.3-0.2-0.5-0.6-0.5c-0.2,0-0.5,0.2-0.5,0.4s0.2,0.3,0.4,0.5l0.6,0.2
		c0.2,0.2,0.4,0.4,0.4,0.7c0,0.6-0.4,0.9-1,0.9s-0.9-0.3-1-0.9L124.6,178.4z"/>
	<path d="M128.3,176.8h-0.8v-0.3h2v0.3h-0.8v2.6h-0.4V176.8z"/>
	<path d="M131.1,176.4h1.8v0.4h-1.4v0.9h1.2v0.3h-1.2v1h1.4v0.3h-1.8V176.4z"/>
	<path d="M134.4,176.4h1c0.5,0,0.9,0.2,0.9,0.8c0,0.3-0.2,0.7-0.6,0.8l0.7,1.2l-0.3,0.2l-0.7-1.3h-0.6v1.3h-0.4L134.4,176.4
		L134.4,176.4z M135.3,177.8c0.4,0,0.6-0.2,0.6-0.6c0-0.2-0.2-0.5-0.5-0.5h-0.6v1L135.3,177.8L135.3,177.8z"/>
	<path d="M137.9,177L137.9,177l-0.1,2.4h-0.4l0.1-2.9h0.5l0.6,1.3l0.6-1.3h0.5l0.1,2.9h-0.3l-0.1-2.4l0,0l-0.6,1.5L137.9,177z"/>
	<path d="M141.5,178.6l-0.2,0.9l-0.4-0.2l0.9-2.9h0.5l0.9,2.9l-0.4,0.2l-0.2-0.9H141.5z M142,176.9l-0.4,1.4h0.8L142,176.9z"/>
	<path d="M144.3,176.4h0.5l1.1,2.5l0,0v-0.7v-1.7h0.4v2.9h-0.5l-1.1-2.5l0,0v0.8v1.7h-0.4V176.4z"/>
	<path d="M147.7,176.4h0.5l1.1,2.5l0,0v-0.7v-1.7h0.4v2.9h-0.5l-1.1-2.5l0,0v0.8v1.7h-0.4V176.4z"/>
	<path d="M104.1,182.4h0.4v1.6h1.1v-1.6h0.4v3.8h-0.4v-1.8h-1.1v1.8h-0.4V182.4z"/>
	<path d="M107.6,183.2h1.8v0.3H108v0.9h1.2v0.3H108v1h1.4v0.3h-1.8V183.2z"/>
	<path d="M111.1,185.8h0.4v-2.2h-0.4v-0.3h1.2v0.3h-0.4v2.2h0.4v0.3h-1.2V185.8z"/>
	<path d="M114.1,183.2h0.5l1.1,2.5l0,0v-0.8v-1.7h0.4v2.9h-0.5l-1.1-2.5l0,0v0.8v1.7h-0.4V183.2z"/>
	<path d="M118.9,183.6h-1.4v-0.3h2l-1.5,2.6h1.6v0.3h-2.2L118.9,183.6z"/>
	<path d="M121.2,184.4h1.3v0.4h-1.3V184.4z"/>
	<path d="M124.2,182.4h0.5l1.1,3.1l0,0v-0.8v-2.3h0.4v3.8h-0.5l-1.1-3.1l0,0v0.9v2.3h-0.4V182.4z"/>
	<path d="M127.9,185.8h0.4v-2.2h-0.4v-0.3h1.2v0.3h-0.4v2.2h0.4v0.3h-1.2V185.8z"/>
	<path d="M131.1,186.2l-0.3-0.2l0.9-1.4l-0.8-1.3l0.3-0.2l0.7,1.1l0.7-1.1l0.3,0.2l-0.8,1.3l0.9,1.4l-0.3,0.2l-0.8-1.3L131.1,186.2z
		"/>
	<path d="M134.3,183.2h1c0.8,0,1.2,0.3,1.2,1.4c0,0.9-0.2,1.5-1.2,1.5h-1v-0.3h0.3v-2.2h-0.3V183.2z M134.9,185.8h0.4
		c0.5,0,0.7-0.3,0.7-1.1c0-0.9-0.2-1.1-0.7-1.1h-0.4V185.8z"/>
	<path d="M139.7,184.7c0,0.2,0,1.5-1,1.5c-0.5,0-1-0.3-1-1.5s0.6-1.5,1-1.5S139.7,183.5,139.7,184.7z M138,184.7
		c0,0.4,0.1,1.1,0.6,1.1s0.6-0.7,0.6-1.1c0-0.4-0.1-1.1-0.6-1.1S138,184.2,138,184.7z"/>
	<path d="M141.1,183.2h1c0.5,0,0.9,0.2,0.9,0.8c0,0.3-0.2,0.7-0.6,0.8l0.7,1.2l-0.3,0.2l-0.8-1.3h-0.6v1.3h-0.3V183.2L141.1,183.2z
		 M142,184.5c0.4,0,0.6-0.2,0.6-0.6c0-0.2-0.2-0.5-0.5-0.5h-0.6v1L142,184.5L142,184.5z"/>
	<path d="M144.7,183.2h1.8v0.3h-1.4v0.9h1.2v0.3h-1.2v1.4h-0.4V183.2z"/>
	<path d="M148.1,184.4h1.3v0.4h-1.3V184.4z"/>
	<path d="M151.3,182.4h1c0.4,0,0.8,0.3,0.8,1c0,0.5-0.2,0.9-0.6,1l0.8,1.6l-0.3,0.2l-0.9-1.8h-0.4v1.7h-0.4L151.3,182.4L151.3,182.4
		z M151.7,184.1h0.5c0.3,0,0.6-0.2,0.6-0.7s-0.2-0.6-0.6-0.6h-0.5V184.1L151.7,184.1z"/>
	<path d="M154.8,185.8h0.4v-2.2h-0.4v-0.3h1.2v0.3h-0.4v2.2h0.4v0.3h-1.2V185.8z"/>
	<path d="M157.8,183.2h0.5l1.1,2.5l0,0v-0.8v-1.7h0.4v2.9h-0.5l-1.1-2.5l0,0v0.8v1.7h-0.4V183.2z"/>
	<path d="M163.1,185.9c-0.2,0.2-0.6,0.3-0.9,0.3c-0.9,0-1.1-0.8-1.1-1.5s0.2-1.5,1.1-1.5c0.4,0,0.7,0.2,1,0.6l-0.3,0.2
		c-0.2-0.2-0.3-0.4-0.6-0.4c-0.6,0-0.6,0.7-0.6,1.2s0.1,1.1,0.7,1.1c0.2,0,0.4-0.1,0.6-0.2v-0.8h-0.7v-0.3h1L163.1,185.9
		L163.1,185.9z"/>
	<path d="M168.7,182.8L168,183l-0.1-0.3l1.2-0.5v3.4h0.8v0.3h-2.1v-0.3h1L168.7,182.8L168.7,182.8z"/>
	<path d="M104,189.4v-0.3h1c0.7,0,1.2,0.3,1.2,1.8c0,0.8-0.1,1.8-1.2,1.8h-1v-0.3h0.3v-3C104.3,189.4,104,189.4,104,189.4z
		 M104.7,192.5h0.3c0.5,0,0.8-0.1,0.8-1.5s-0.4-1.5-0.7-1.5h-0.4C104.7,189.5,104.7,192.5,104.7,192.5z"/>
	<path d="M107.8,191.2h1.2v0.3h-1.3L107.8,191.2L107.8,191.2z"/>
	<path d="M111.1,190.6l1.1-1.1h-1.5v-0.3h2.1v0.3l-1,1c0.6,0,1.1,0.3,1.1,1c0,0.5-0.2,0.9-0.6,1.1c-0.3,0.2-0.6,0.3-1.4,0.3v-0.3
		c0.6,0,0.9-0.1,1-0.2c0.3-0.2,0.6-0.5,0.6-0.9c0-0.5-0.4-0.6-0.8-0.6c-0.2,0-0.3,0-0.4,0.1v-0.4L111.1,190.6L111.1,190.6z"/>
	<path d="M114.5,190.6l1.1-1.1h-1.5v-0.3h2.1v0.3l-1,1c0.6,0,1.1,0.3,1.1,1c0,0.5-0.2,0.9-0.6,1.1c-0.3,0.2-0.6,0.3-1.4,0.3v-0.3
		c0.6,0,0.9-0.1,1-0.2c0.3-0.2,0.6-0.5,0.6-0.9c0-0.5-0.4-0.6-0.8-0.6c-0.2,0-0.3,0-0.4,0.1v-0.4L114.5,190.6L114.5,190.6z"/>
	<path d="M118.3,189.6l-0.7,0.2l-0.1-0.3l1.2-0.5v3.4h0.8v0.4h-2.1v-0.3h1L118.3,189.6L118.3,189.6z"/>
	<path d="M122.9,191c0,0.6,0.1,1.9-1,1.9s-1-1.3-1-1.9c0-0.9-0.1-1.9,1-1.9C123,189.1,122.9,190.5,122.9,191z M121.1,191
		c0,1.4,0.2,1.6,0.6,1.6s0.6-0.2,0.6-1.6s-0.2-1.6-0.6-1.6C121.1,189.4,121.1,190.2,121.1,191z"/>
	<path d="M125.9,189.7c-0.2-0.2-0.3-0.2-0.6-0.2c-0.6,0-0.7,0.9-0.7,1.4c0.2-0.2,0.5-0.3,0.7-0.3c0.7,0,1,0.6,1,1.2s-0.3,1.2-1,1.2
		c-1,0-1-1.2-1-1.8c0-0.8,0.1-2,1.1-2c0.3,0,0.6,0.1,0.8,0.3L125.9,189.7z M125.2,192.5c0.5,0,0.6-0.4,0.6-0.9
		c0-0.4-0.2-0.9-0.6-0.9c-0.2,0-0.5,0.2-0.7,0.4C124.5,192.4,124.8,192.5,125.2,192.5z"/>
	<path d="M131.5,192.8h-0.4V189h0.8c0.6,0,1,0.3,1,1s-0.4,1.1-0.9,1.1h-0.6L131.5,192.8L131.5,192.8z M131.5,190.8h0.6
		c0.3,0,0.6-0.2,0.6-0.7s-0.2-0.6-0.6-0.6h-0.4L131.5,190.8L131.5,190.8z"/>
	<path d="M134.7,192l-0.2,0.9l-0.4-0.2l0.9-2.9h0.5l0.9,2.9l-0.4,0.2l-0.2-0.9H134.7z M135.3,190.4l-0.4,1.4h0.8L135.3,190.4z"/>
	<path d="M137.6,189.9h1c0.8,0,1.2,0.3,1.2,1.4c0,0.9-0.2,1.5-1.2,1.5h-1v-0.3h0.3v-2.2h-0.3V189.9z M138.3,192.5h0.4
		c0.5,0,0.7-0.3,0.7-1.1c0-0.9-0.2-1.1-0.7-1.1h-0.4V192.5z"/>
	<path d="M141,189.9h1c0.8,0,1.2,0.3,1.2,1.4c0,0.9-0.2,1.5-1.2,1.5h-1v-0.3h0.3v-2.2H141V189.9z M141.6,192.5h0.4
		c0.5,0,0.7-0.3,0.7-1.1c0-0.9-0.2-1.1-0.7-1.1h-0.4V192.5z"/>
	<path d="M144.6,189.9h1.8v0.3H145v0.9h1.2v0.3H145v1h1.4v0.4h-1.8V189.9z"/>
	<path d="M147.9,189.9h1c0.5,0,0.9,0.2,0.9,0.8c0,0.3-0.2,0.7-0.6,0.8l0.7,1.2l-0.3,0.2l-0.7-1.4h-0.6v1.4h-0.4L147.9,189.9
		L147.9,189.9z M148.7,191.2c0.4,0,0.6-0.2,0.6-0.6c0-0.2-0.2-0.5-0.5-0.5h-0.6v1h0.5V191.2z"/>
	<path d="M151.1,192.8v-0.3h0.3v-2.2h-0.3V190h0.9c0.7,0,1,0.3,1,0.8c0,0.2-0.1,0.5-0.3,0.6c0.3,0.1,0.5,0.4,0.5,0.7
		c0,0.6-0.3,0.8-1,0.8L151.1,192.8L151.1,192.8z M152.2,191.2c0.3,0,0.5-0.2,0.5-0.5s-0.2-0.5-0.5-0.5h-0.4v0.9L152.2,191.2
		L152.2,191.2z M152.2,192.5c0.3,0,0.6-0.1,0.6-0.5c0-0.3-0.2-0.6-0.6-0.6h-0.6v1L152.2,192.5L152.2,192.5z"/>
	<path d="M156.5,191.4c0,0.2,0,1.5-1,1.5c-0.5,0-1-0.3-1-1.5s0.6-1.5,1-1.5C155.9,189.9,156.5,190.2,156.5,191.4z M154.8,191.4
		c0,0.4,0.1,1.1,0.6,1.1c0.6,0,0.6-0.7,0.6-1.1c0-0.4-0.1-1.1-0.6-1.1S154.8,190.9,154.8,191.4z"/>
	<path d="M157.9,189.9h1c0.5,0,0.9,0.2,0.9,0.8c0,0.3-0.2,0.7-0.6,0.8l0.7,1.2l-0.3,0.2l-0.7-1.4h-0.6v1.4h-0.4L157.9,189.9
		L157.9,189.9z M158.8,191.2c0.4,0,0.6-0.2,0.6-0.6c0-0.2-0.2-0.5-0.5-0.5h-0.6v1h0.5V191.2z"/>
	<path d="M161.1,189.9h0.5l1.1,2.5l0,0v-0.7V190h0.4v2.9h-0.5l-1.1-2.5l0,0v0.8v1.7h-0.4V189.9z"/>
	<path d="M374.7,161.5c0,0.8,0.2,2.5-1.4,2.5s-1.4-1.6-1.4-2.5c0-1.1-0.1-2.5,1.4-2.5C374.9,159,374.7,160.9,374.7,161.5z
		 M372.6,161.5c0,1.9,0.3,2,0.8,2c0.6,0,0.8-0.2,0.8-2s-0.3-2-0.8-2C372.5,159.5,372.6,160.5,372.6,161.5z"/>
	<path d="M377.5,159.6l-0.9,0.3l-0.2-0.4l1.5-0.6v4.5h1v0.4h-2.7v-0.4h1.2v-3.8H377.5z"/>
	<path d="M380.7,163.4l1.8-2.3c0.2-0.3,0.4-0.5,0.4-0.9c0-0.5-0.3-0.8-0.8-0.8c-0.6,0-0.9,0.5-1,1l-0.5-0.1c0.1-0.8,0.6-1.4,1.4-1.4
		c0.7,0,1.3,0.5,1.3,1.2c0,0.5-0.2,0.8-0.5,1.2l-1.6,2h2.1v0.4h-2.6L380.7,163.4L380.7,163.4z"/>
	<path d="M385.5,160.9l1.4-1.4h-2v-0.4h2.6v0.4l-1.4,1.4c0.7,0,1.4,0.4,1.4,1.2c0,0.6-0.3,1.1-0.9,1.4c-0.4,0.2-0.9,0.4-1.8,0.4
		v-0.5c0.8,0,1.1-0.1,1.4-0.2c0.4-0.2,0.8-0.6,0.8-1.1c0-0.6-0.6-0.8-1-0.8c-0.2,0-0.4,0-0.6,0.1v-0.5H385.5z"/>
	<line class="st26" x1="259.4" y1="182.4" x2="327.3" y2="182.4"/>
	<line class="st26" x1="103.8" y1="211.7" x2="309.3" y2="211.7"/>
	<line class="st26" x1="103.8" y1="227.7" x2="388.5" y2="227.7"/>
	<line class="st26" x1="103.8" y1="259.4" x2="388.5" y2="259.4"/>
	<g>
		<g>
			<path class="st27" d="M266.7,175.6c-4.7-3.7,5.4-9.5,7.8-11.8c-1.7,1.5-1.8,4.6-2.2,6.8c-0.6,3.4-0.9,6.8-1.6,10.2
				c-0.4,2-2.2,8.9-5,6.5c-2-1.7-0.4-4.6,0.7-6.2c2.9-4.2,7.3-7.1,11.2-10.2c0.3-0.2,0-0.5-0.3-0.4c-3,0.9-4.4,3.8-5,6.6
				c-0.1,0.3,0.5,0.2,0.6,0.1c1.4-0.9,2.6-1.8,3.5-3.2c0.2-0.3,0.5-0.6,0.6-1c0.9-0.9,1-1.2,0.1-0.9c-0.6,1.6-0.7,3.3-1,5
				c-0.1,0.4,0.6,0.2,0.7,0.1c1.6-1.3,2.7-2.8,3.8-4.5c0.6-0.9,1.4-3.2,1.2-0.6c-0.1,1.7-0.5,3.4-0.8,5c-0.1,0.4,0.6,0.2,0.7,0
				c0.7-1,1.4-2,2-3c1.5-2.4,1.4-2.5,1.4-1c0.1,1.8,0.3,3.7,1.4,5.3c1.4,2.1,4.1-0.5,5-1.5c0.3-0.3-0.4-0.4-0.6-0.2
				c-4.4,4.9-5.1-2.5-5-5.3c0-0.3-0.6-0.2-0.7-0.1c-1.5,1.4-2.5,3.1-3.6,4.8c1-1.6,1-4.4,0.8-6.2c0-0.3-0.6-0.1-0.7,0.1
				c-1.4,1.8-2.6,3.8-3.9,5.5c-1.4,1.8-0.7,0-0.6-1c0.2-1.2,0.6-2.3,1-3.5c0.1-0.3-0.6-0.2-0.7,0c-0.8,1.4-1.6,2.6-2.6,3.8
				c-1,1.1-2.5,2.8-1.2-0.4c0.6-1.4,1.7-2.6,2.9-3.6c-0.4,0.3-0.8,0.6-1.3,1c-2.5,1.9-5,3.9-7.2,6.2c-3,3-7,8.1-1.6,10.8
				c0.2,0.1,0.5,0,0.6-0.1c6.8-6.2,4.2-17.4,7.5-25.4c0.2-0.4-0.6-0.2-0.6-0.1c-2.4,2.6-13.5,8.6-8.2,12.7
				C266.4,176.1,267.1,175.8,266.7,175.6L266.7,175.6z"/>
		</g>
	</g>
	<g>
		<g>
			<path class="st27" d="M299.9,168.3c3.2-3.3,3.3,3.4,2.8,5.1c-0.6,2.2-2.2,3.8-4.5,4.2c-2.2,0.4,0.6-0.1,0.7-0.1
				c1.3-0.2,2.6-0.1,3.8,0.2c2.2,0.3,4.2,1.4,6.1,2.5c0.2,0.2,0.9-0.2,0.7-0.3c-3.9-2.4-8.4-3.6-12.9-2.2c-0.2,0.1-0.6,0.3-0.1,0.3
				c4.3,0,7.2-3,7.3-7.3c0.1-3.3-2.2-5-4.6-2.5C299,168.5,299.8,168.4,299.9,168.3L299.9,168.3z"/>
		</g>
	</g>
	<g>
		<g>
			<path class="st27" d="M310.2,167.9c-1.4,3-2.3,7.9,0.4,10.5c0.2,0.2,0.5,0.1,0.6-0.1c2-1.8,3-4.2,2.8-7c-0.1-1.1-0.2-2.2-1.4-2.4
				c-0.8-0.2-1.6,0.2-2.3,0.6c-0.5,0.2-0.1,0.6,0.3,0.4c2.7-1.3,2.6,1.7,2.5,3.4c-0.2,1.9-1.3,3.6-2.6,4.9c0.2,0,0.5-0.1,0.6-0.1
				c-2.6-2.5-1.8-7.2-0.3-10.1C311.1,167.6,310.3,167.6,310.2,167.9L310.2,167.9z"/>
		</g>
	</g>
	<g>
		<g>
			<path class="st27" d="M316.6,163.6c-0.6,2-1,4.1-0.7,6.2c0.1,0.3,0.5,0.2,0.6,0.1c1.7-1.2,2.6-2.4,3-4.5c0.1-0.4-0.7-0.2-0.8,0.1
				c-0.3,1.2-0.4,2.4-0.7,3.5c-0.1,0.4,0.6,0.2,0.7,0.1c0.6-0.7,1.5-1.6,2.6-1.3c0.8,0.2,1.4,1.3,1.7,2c0.2,0.3,1,0.2,0.8-0.2
				c-0.5-1-1.1-2.2-2.3-2.4c-1.4-0.2-2.5,0.7-3.4,1.7c0.2,0,0.5,0.1,0.7,0.1c0.3-1.2,0.4-2.4,0.7-3.5c-0.2,0-0.6,0-0.8,0.1
				c-0.3,1.9-1.2,3-2.7,4.1c0.2,0,0.4,0.1,0.6,0.1c-0.3-2,0.1-4,0.7-5.9C317.5,163.3,316.7,163.3,316.6,163.6L316.6,163.6z"/>
		</g>
	</g>
	<g>
		<g>
			<path class="st27" d="M314.2,165.7c4.5-0.8,8.8-2.1,13.2-3.2c0.5-0.2,0.3-0.7-0.2-0.6c-4.4,1.1-8.7,2.4-13.2,3.2
				C313.5,165.2,313.7,165.8,314.2,165.7L314.2,165.7z"/>
		</g>
	</g>
	<g>
		<g>
			<path class="st27" d="M247.9,256.8c-0.2,0-0.6,0-0.9,0.2c0.6-1,1.3-1.9,2.2-2.6c0.9-0.9,1.9-1.5,3-2c2.4-1.1,4.2,0,4.2,2.2
				c0,2.1-2.2,3.9-3.6,5.1c-0.7,0.6,0.3-0.7,0.6-1.3c0.6-1.3,1.4-2.5,2.1-3.7c0.9-1.4,1.9-2.6,3.2-3.5c3.8-2.9,4.4,2.4,4,4.1
				c-0.6,2.6-2.6,4.9-4.3,6.7c-2.5,2.6-1.3-1.8-0.9-3.4c1.6-5.4,7.6-13.8,14-12.4c4.2,0.9,5.4,5.3,3.8,8.7c-1.9,4-5.9,7.1-9.4,9.8
				c-5.9,4.6-12.6,8.7-19.3,12c-0.5,0.2-0.1,0.6,0.3,0.4c5.7-2.8,11.1-6.1,16.2-9.8c5-3.5,11.8-8.2,13.5-14.4c1.4-5.1-5-8.7-9.3-7
				c-5.5,2.3-13.1,11-11,17.4c0.1,0.2,0.5,0.1,0.6,0c3.5-2,9.8-10.1,4.6-13.2c-4.5-2.6-9,7.5-10.1,10.1c-0.2,0.3,0.5,0.2,0.6,0.2
				c2.2-1.5,7.4-6.2,3.7-8.8c-3.4-2.4-8.2,3.2-9.9,5.4c-0.1,0.1,0,0.2,0.1,0.2c1.1,0.5,0.6,0,1.8,0
				C248.1,257.2,248.3,256.7,247.9,256.8L247.9,256.8z"/>
		</g>
	</g>
	<g>
		<g>
			<path class="st27" d="M281.7,256.5c-0.2-0.3,2-0.6,2.3-0.6c1-0.2,2.1-0.2,3.1-0.5c0.3-0.1,0.6-0.5,0.2-0.3
				c-1.7,0.3-3.3,0.5-5,0.8c-0.3,0.1-1.8,0.4-1.4,1C281.1,257,281.9,256.7,281.7,256.5L281.7,256.5z"/>
		</g>
	</g>
	<g>
		<g>
			<path class="st27" d="M290.7,255c1.3-3.1,3.1-5.6,5.8-7.8c3-2.2,2.2,3.4,2.1,4.1c-0.2,1.1-0.7,2.3-1.1,3.4
				c-0.1,0.2,0.6,0.1,0.7-0.1c0.7-1,1.4-1.9,2-3c0.8-1.2,3.5-3.6,2.9-0.5c-0.3,1.5-1.1,2.9-2,4.1c0-0.7,0.2-1.4,0.4-2.2
				c0.3-1,0.9-1.8,1.5-2.6c2.5-3.4,7.8-3.2,9.4,0.6c0.6,1.4,0.2,3.2-0.3,4.6c-2.2,6.7-8.6,12.8-13.8,17.4c-0.3,0.2,0.5,0.2,0.6,0.1
				c5.6-5,13.6-12.2,14.6-20.1c0.4-3.1-2.6-5.9-5.8-5.5c-4.3,0.6-7.4,4.3-7.4,8.6c0,0.2,0.6-0.1,0.7-0.1c2.3-2.4,3.2-5.2,3.2-8.6
				c0-0.2-0.6,0-0.6,0c-2.5,1.5-3.8,3.8-5.4,6.2c1.5-2.3,2.2-5.4,0.4-7.9c-0.1-0.2-0.5,0-0.6,0.1c-3.8,2.1-6.5,5.1-8.1,9.2
				C289.9,255.3,290.7,255.2,290.7,255L290.7,255z"/>
		</g>
	</g>
	<g>
		<g>
			<path class="st27" d="M317.3,254.4c5.6-2.1,14-5.6,15.1-12.3c0-0.2-0.2-0.2-0.2-0.2c-3.8,0.1-10.5,5.6-5.3,8.6
				c1.8,1.1,4.6-0.2,6.2-1.3c1.5-1.1,3-2.4,4.2-3.8c0.7-0.7,1-2.1,0.2-0.6c-0.5,1-0.2,2.3-0.5,3.4c0,0.2,0.2,0.2,0.2,0.2
				c13.8,1,27.7,0,41.4,1.3c0.2,0,0.9-0.3,0.5-0.4c-7.8-0.7-15.5-0.8-23.3-0.8c-4.1,0-8.2-0.1-12.2-0.2c-0.5,0-5.8,0-5.7-0.8
				c0.3-1.4,0.2-2.5,0.9-3.8c0.2-0.2-0.6-0.1-0.7,0.1c-1.9,2.2-3.9,4.2-6.4,5.8c-2.6,1.7-6.6,0.6-5.8-2.7c0.4-1.8,2.7-3.4,4.3-4.2
				c2.6-1.3,0.1,3-0.2,3.4c-1.1,1.6-2.8,2.8-4.3,3.8c-2.6,1.8-5.6,3-8.6,4.2C316.5,254.3,317,254.5,317.3,254.4L317.3,254.4z"/>
		</g>
	</g>
	<g>
		<g>
			<path class="st27" d="M329.8,244c9.8-2.3,19.8-2.5,29.7-3.3c0.2,0,0.8-0.4,0.3-0.3c-10.1,0.8-20.2,1-30.1,3.4
				C329.2,243.8,329.3,244.1,329.8,244L329.8,244z"/>
		</g>
	</g>
	<g>
		<g>
			<path class="st27" d="M321,208.4c1.2-4,3.4-7.5,5.7-11c-0.2,0-0.5,0-0.7,0c-0.1,4-1.4,7.8-2.2,11.8c-0.1,0.4,0.7,0.2,0.8-0.1
				c0.7-3.9,2.1-7.8,2.2-11.8c0-0.4-0.6-0.2-0.7,0c-2.3,3.5-4.6,7-5.7,11.1C320,208.8,320.8,208.8,321,208.4L321,208.4z"/>
		</g>
	</g>
	<g>
		<g>
			<path class="st27" d="M336.3,198c-1-2-2.8-1.5-4.2-0.2c-1.9,1.9-2.9,4.4-2.6,7c0.2,1.8,1.4,2.6,3.1,1.7c2.1-1.2,3.4-3.8,4-6
				c0.1-0.2-0.7-0.2-0.8,0.1c-0.6,1.8-1.4,3.4-2.6,4.8c-0.4,0.5-1,1.1-1.7,1.1s-1-1-1.1-1.6c-0.4-2,0.2-3.7,1.1-5.4
				c0.4-0.7,1-1.4,1.6-2c1-1,1.8-0.6,2.4,0.6C335.6,198.5,336.3,198.3,336.3,198L336.3,198z"/>
		</g>
	</g>
	<g>
		<g>
			<path class="st27" d="M343,198c-3.3-3.4-7.8,5.4-5.3,8.2c1,1.2,2.6,0,3.4-0.9c1.5-1.7,2.7-4.1,3-6.3c0-0.1-0.7,0-0.8,0.2
				c-0.2,1.3-2.9,8.6-4.8,6.8c-1.2-1.1-0.9-3.5-0.4-4.9c0.6-1.4,2.4-4.8,4.2-3C342.4,198.4,343.1,198.2,343,198L343,198z"/>
		</g>
	</g>
	<g>
		<g>
			<path class="st27" d="M344,204.5c-0.8,2.2-1.8,4.3-2.9,6.4c-0.2,0.4,0.6,0.4,0.7,0.1c1-2.1,2.1-4.2,2.9-6.4
				C344.9,204.2,344.1,204.2,344,204.5L344,204.5z"/>
		</g>
	</g>
	<g>
		<g>
			<path class="st27" d="M348.7,198.6c-0.2,0.7-0.6,1.4-0.3,2.2c0.1,0.2,0.4,0.1,0.6,0c1-0.3,2.1-1,2.3-2.1c0.2-1-1-1.7-1.8-1.8
				c0,0.1,0,0.2,0,0.2c-0.2,0.2,0.3,0,0.4,0c0.4-0.1,0.7-0.1,1.1-0.2c0.5-0.1,0.6-0.1,0.9,0.5c0.2,0.4,0.2,0.6,0.6,0.9
				c0.2,0.1,0.4,0,0.6-0.1c1.1-0.6,1.4-0.8,1.9-1.9v-0.1c-0.2-0.2-0.5-0.6-0.8-0.6s-0.7,0.2-1,0.2c-0.2-0.1-0.9,0.2-0.6,0.3
				c0.5,0.2,1.1-0.2,1.5,0.1c0.3,0.2-0.2,1-0.3,1.2c-0.2,0.3-0.8,0.5-1.1,0.6c0.2,0,0.4-0.1,0.6-0.1c-0.6-0.4-0.6-1-1-1.4
				c-0.2-0.2-0.6,0-0.8,0c-0.7,0.1-1.7,0.1-2.2,0.4c-0.2,0.1-0.2,0.2,0,0.2c0.7,0.1,1.4,0.5,1.6,1.2c0.2,1-1,1.8-1.8,2.1
				c0.2,0,0.3,0,0.6,0c-0.3-0.7,0.1-1.4,0.3-2.1C349.5,198.3,348.7,198.4,348.7,198.6L348.7,198.6z"/>
		</g>
	</g>
	<g>
		<g>
			<path class="st27" d="M348.3,203c3.7-0.6,7.4-1.4,11-1.8c0.4,0,0.6-0.5,0.1-0.4c-3.7,0.4-7.4,1.1-11,1.8
				C348,202.7,347.7,203.1,348.3,203L348.3,203z"/>
		</g>
	</g>
	<g>
		<g>
			<path class="st27" d="M136,218.9c-1.1,1-3,3.8-1.8,5.4c1,1.4,2.8,1,3.9,0c1-0.8,2.2-2.8,1.1-3.9c-0.5-0.6-1.4-0.4-2.1-0.3
				c0.1,0.2,0.2,0.3,0.3,0.2c0.8-0.2,1.6-0.6,2.4-0.8c0.8-0.2,2.2-0.6,2.2,0.6c0.1,0.9,0,1.4-0.3,2.1c-0.1,0.2,0.6,0,0.7-0.1
				c1.1-1.1,2.2-2.4,3.6-3.1c-0.2,0-0.4,0-0.6,0c-0.7,5,4.6,3.4,5.4-0.1c0.1-0.2-0.6-0.1-0.6,0c-1.4,0.9-2.5,2.2-0.7,3.3
				c1.4,0.9,3.5,0.6,4.9-0.2c0.5-0.2-0.2-0.3-0.5-0.2c-2.2,1.1-6.8-0.5-3.3-2.7c-0.2,0-0.4,0-0.6,0c-0.2,1.1-0.8,2-1.8,2.6
				c-2.2,1.4-2.2-1.7-2.1-2.8c0-0.2-0.6-0.1-0.6,0c-1.6,0.7-2.7,2.1-3.9,3.3c0.2,0,0.5-0.1,0.7-0.1c0.5-1,0.3-2.1,0.3-3.2
				c0-0.1-0.2-0.1-0.2-0.1c-2.1,0.1-4,0.9-6,1.4c-0.3,0.1-0.5,0.4,0,0.3c3.2-0.6,2.5,2.3,1,3.8c-1.9,1.8-3-0.6-2.7-2.2
				c0.2-1.2,1-2.4,1.8-3.2C137,218.7,136.2,218.8,136,218.9L136,218.9z"/>
		</g>
	</g>
	<g>
		<g>
			<path class="st27" d="M168.9,210.4c0.1-0.6,0.2-1,0-1.5c0-0.1-0.1-0.1-0.2-0.1c-2.4,0.2-3.6,1.9-4.5,4c-1.4,3.3-1.5,6.9-2.8,10.2
				c-0.1,0.1,0.6,0,0.8-0.2c0.9-1.9,2.2-3.4,4.2-4.5c-0.2,0-0.5,0.1-0.6,0.1c-0.1,2.8-1.1,5.4-1.5,8.2c0,0.2,0.6-0.1,0.6-0.1
				c2.5-1.6,3.4-4.6,5-7c-0.2,0.1-0.5,0.1-0.8,0.2c-0.2,0.8-2.2,6.1,0.4,5.4c2.2-0.6,3.1-3.6,3.4-5.5c0-0.1-0.7,0-0.8,0.2
				c-0.9,1.6-1.2,3.1-0.6,4.9c0.1,0.2,0.6-0.1,0.7-0.2c1.8-1.4,2.9-3.4,4.2-5.2c-0.2,0.1-0.5,0.1-0.8,0.2c0.3,1.8,0.2,3.4-0.3,5.1
				c-0.1,0.2,0.7,0,0.8-0.2c0.8-1.6,1.7-3.1,3.2-4.2c-0.2,0-0.5,0.1-0.6,0.1c-0.2,1.4,0.5,2.8,0.3,4.2c0,0.1,0.5,0,0.5,0
				c1.2-0.4,2-1,3-1.9c0.2-0.2-0.6-0.1-0.7,0.1c-0.8,0.8-1.4,1.4-2.5,1.7c0.2,0,0.3,0,0.5,0c0.2-1.4-0.5-2.8-0.3-4.2
				c0-0.2-0.6,0.1-0.6,0.1c-1.6,1.1-2.6,2.6-3.4,4.3c0.2-0.1,0.5-0.1,0.8-0.2c0.5-1.8,0.6-3.4,0.3-5.2c0-0.2-0.7,0.1-0.8,0.2
				c-1.4,1.8-2.4,3.8-4.2,5.1c0.2-0.1,0.5-0.1,0.7-0.2c-0.6-1.7-0.2-3.2,0.6-4.8c-0.2,0.1-0.5,0.1-0.8,0.2c-0.3,1.8-0.9,3.7-2.3,5
				c-0.7,0.6-0.9-0.9-0.9-1.2c0-1.3,0.5-2.6,1-3.9c0.1-0.2-0.6,0-0.8,0.2c-1.4,2.3-2.4,5.4-4.7,6.9c0.2,0,0.5-0.1,0.6-0.1
				c0.4-2.7,1.4-5.4,1.5-8.2c0-0.2-0.6,0.1-0.6,0.1c-2,1-3.4,2.6-4.3,4.6c0.2-0.1,0.5-0.1,0.8-0.2c0.9-2.3,1.3-4.9,1.9-7.2
				c0.3-1.4,0.8-2.7,1.4-4c0.6-1.1,2.9-3.7,2.6-1C168.1,210.7,168.8,210.6,168.9,210.4L168.9,210.4z"/>
		</g>
	</g>
	<g>
		<g>
			<path class="st27" d="M186.4,220.1c0.2-1.7-0.4-2-1.8-1.1c-2,1.2-2.7,3.9-2.2,6.1c0,0.2,0.4,0.1,0.6,0.1c5-2.4,6.7-9.6,8.1-14.4
				c0.1-0.3-0.6-0.1-0.7,0.1c-2.2,3.6-4.5,8.2-3,12.5c0.1,0.2,0.4,0.1,0.6,0.1c2.6-1.2,3.5-3.9,4.2-6.6c-0.2,0.1-0.5,0.1-0.8,0.2
				c1,1.8,0,4,0.6,6.1c0.1,0.2,0.3,0.1,0.4,0.1c2.3-0.5,3.5-2.2,3.7-4.5c0-0.3-0.6-0.2-0.7,0c-1.6,1.7-2.6,3.6-1.9,5.9
				c0,0.1,0.2,0.1,0.2,0.1c2.2-0.1,4-1,5.6-2.6c0.3-0.3-0.4-0.3-0.6-0.2c-0.6,0.6-4.1,3.4-4.6,1.8c-0.6-1.8,0.8-3.8,1.9-5
				c-0.2,0-0.5,0-0.7,0c-0.1,1.9-1,3.5-3,4c0.2,0,0.3,0.1,0.4,0.1c-0.6-2,0.4-4.2-0.6-6.1c-0.2-0.2-0.7-0.1-0.8,0.2
				c-0.6,2.3-1.3,5-3.7,6.2c0.2,0,0.3,0,0.6,0.1c-1.4-4.2,0.8-8.7,3-12.2c-0.2,0-0.5,0-0.7,0.1c-1.3,4.6-2.9,11.8-7.6,14
				c0.2,0,0.3,0,0.6,0.1c-0.2-1.2-0.2-2.3,0.2-3.4c0.3-0.9,2.6-3.4,2.2-1.2C185.5,220.5,186.3,220.4,186.4,220.1L186.4,220.1z"/>
		</g>
	</g>
	<g>
		<g>
			<path class="st27" d="M201.5,219.6c-1.6-0.1-4.1,1.4-4.1,3.2c0,1.7,1.9,1.9,3,1.1c1.9-1.4,2.9-4,3.8-6.1c0.8-1.9,1.9-4.3,2-6.5
				c0-0.3-0.6-0.1-0.7,0c-5.9,4.6-5.2,13.1-5.8,19.8c0,0.3,0.7,0.2,0.8-0.1c0.6-6.6-0.2-15,5.7-19.5c-0.2,0-0.5,0-0.7,0
				c-0.1,2.4-1.4,5-2.3,7.2c-0.6,1.4-1.4,3-2.4,4.2c-0.6,0.8-1.8,1.7-2.6,0.3s1.9-3.2,3-3.1C201.5,220.1,202.1,219.6,201.5,219.6
				L201.5,219.6z"/>
		</g>
	</g>
	<g>
		<g>
			<path class="st27" d="M211.8,223c2-0.6,3.6-2,4.3-4c0.1-0.2-0.3-0.2-0.4-0.2c-1.8,0.6-5.8,4.6-2.7,5.8c2.7,1.2,5.5-3.9,6.5-5.6
				c0.2-0.3-0.6-0.2-0.6-0.1c-1.5,1.7-2.8,3.7-2.1,6c0.1,0.2,0.5,0.1,0.6,0c2.3-1.3,3.8-3.5,5.2-5.7c0.2-0.3-0.6-0.2-0.6-0.1
				c-1.3,1.4-2.3,2.9-1.6,4.7c0.1,0.2,0.5,0.1,0.6,0c2.2-1.4,3.3-3.7,5.4-5c-0.2,0-0.4-0.1-0.6-0.1c-0.4,1-0.3,2.2-0.5,3.3
				c-0.1,0.3,0.5,0.1,0.6,0.1c1.5-0.8,2.8-1.8,4.2-2.9c-0.2,0-0.5-0.1-0.6-0.1c-0.7,1.4-1,2.7,0.6,3.5c0.2,0.1,0.5,0,0.6-0.2
				c1.6-1.5,2.2-4.7-0.9-3.8c-0.1,0-0.6,0.2-0.2,0.4c1.5,0.6,2.9,0.3,4.4-0.1c0.6-0.2,1.2-0.3,1.8-0.5c1.2-0.3,0.6,1,0.4,1.4
				c-0.5,1.5-1.7,2.7-2.9,3.7c0.2,0,0.5,0.1,0.6,0.1c4-5.9,12.7-2.4,18.2-1c0.2,0.1,0.9-0.3,0.5-0.4c-5.9-1.4-15.1-4.9-19.4,1.4
				c-0.2,0.3,0.6,0.2,0.6,0.1c1.8-1.4,3.2-3.3,3.4-5.7c0-0.2-0.2-0.2-0.3-0.2c-2.2,0.3-4.6,1.7-6.9,0.8c-0.1,0.2-0.2,0.2-0.2,0.4
				c1.9-0.6,1.5,1.2,1,2.2c-0.2,0.3-0.4,1-1,0.6c-0.8-0.6-0.1-2,0.2-2.6c0.2-0.3-0.6-0.2-0.6-0.1c-1.3,1-2.6,2-4,2.7
				c0.2,0,0.4,0.1,0.6,0.1c0.2-1.1,0.1-2.2,0.5-3.3c0.1-0.2-0.6-0.1-0.6-0.1c-2.1,1.4-3.2,3.8-5.4,5c0.2,0,0.4,0,0.6,0
				c-0.6-1.8,0.3-3.2,1.4-4.4c-0.2,0-0.5-0.1-0.6-0.1c-1.3,2.1-2.7,4.2-5,5.4c0.2,0,0.4,0,0.6,0c-0.6-2.2,0.5-4.1,1.9-5.7
				c-0.2,0-0.5-0.1-0.6-0.1c-0.9,1.8-2,3.4-3.5,4.7c-1.3,1-2.2,0.6-2.6-0.4c-0.2-0.6,0.3-1.4,0.6-1.8c0.6-0.9,1.5-2,2.6-2.2
				c-0.2-0.1-0.3-0.1-0.4-0.2c-0.6,1.8-2,3-3.8,3.6C210.9,222.8,211.4,223.1,211.8,223L211.8,223z"/>
		</g>
	</g>
	<g>
		<g>
			<path class="st27" d="M259.7,223.2c9.6,0.6,19.2-0.6,28.7-1.6c10.8-1.1,21.8-1.3,32.6-1.4c11.6-0.2,23.3,0,34.9,0.4
				c10.3,0.4,20.6,1.4,31,0.7c0.6-0.1,0.9-0.9,0.1-0.9c-10.7,0.7-21.4-0.4-32.2-0.8c-10.2-0.3-20.3-0.4-30.6-0.3
				c-10.5,0.1-21,0.2-31.4,1c-10.9,0.9-21.7,2.8-32.6,2C259.5,222.3,258.9,223.2,259.7,223.2L259.7,223.2z"/>
		</g>
	</g>
	<g>
		<g>
			<path class="st27" d="M101.1,220.7c8.9-0.2,17.8-1.8,26.6-0.2c0.3,0.1,1.4-0.4,0.7-0.5c-8.9-1.6-17.8,0.1-26.8,0.2
				C101.3,220.2,100.3,220.7,101.1,220.7L101.1,220.7z"/>
		</g>
	</g>
	<rect id="valueColor03_2_" x="103.4" y="160.8" class="st28" width="28.2" height="13"/>
	<rect id="valueColor04_2_" x="133.6" y="160.8" class="st28" width="46.6" height="13"/>
	<g>
		<g>
			<path class="st27" d="M180.1,206.9c-1.6-1-4.7-2.2-1.5-4.4c1-0.7,2.3-1.2,3.4-1.8c1.8-1,3.4-2,4.5-3.8c0.2-0.3-0.6-0.2-0.6-0.1
				c-1.3,1-1.9,3-2.6,4.4c-1.4,3-2.6,6.2-4.2,9c-1.9,3.4-5,6.6-8.3,2.8c-2.8-3,2.6-5.2,4.8-6.3c2-1,5.7-3.4,6.7-0.3
				c1.8,5,4.6-2.6,2.5-2.5c4.3-0.2,14.1-3,14-8.5c0-0.2-0.4-0.1-0.4-0.1c-5.2,1-6.8,7.1-9,11.2c-0.2,0.3,0.6,0.2,0.7,0
				c0.8-1,6.3-5.3,4.8-1.5c-0.5,1.3-0.6,2.1-0.5,3.4c0,0.2,0.3,0.1,0.4,0.1c1-0.3,1.8-0.7,2.6-1.4c0.3-0.2,2-2.1,2-2.1
				c0.8-0.8-0.3,2.5-0.5,2.9c-0.1,0.3,0.6,0.1,0.6,0.1c1-0.6,1.7-1.1,2.5-1.9c1.5-1.4,1.4-2.2,1.1-0.1c-0.2,1.3,0.9,2.1,1.8,2.6
				c2.6,1.4,6.7,0.8,9.5,0.2c0.5-0.1,0.4-0.5-0.1-0.4c-3.6,0.8-12.6,1.4-9.8-4.7c0.2-0.3-0.6-0.1-0.7,0c-1.1,1-2.2,2-3.2,3
				c-1.4,1.3,0.2-2.7,0.3-3s-0.6-0.1-0.6-0.1c-0.9,0.6-1.6,1.2-2.3,2c-0.7,1.6-1.7,1.8-2.9,0.4c0.2-1.1,0.9-2.2,1.2-3.4
				c0.1-0.2-0.2-0.2-0.2-0.2c-1.7-0.1-3.1,0.3-4.4,1.4c-0.6,0.5-1.2,1-1.8,1.7c-0.2,0.2-0.1,0.2,0.3,0.2c0.7-1.4,1.4-2.8,2.1-4.2
				c0.6-1.2,1.3-2.2,2-3.4c0.7-1.4,1.8-1.8,3.4-1.5c-0.2,1.1-1.3,2-2.1,2.6c-2.9,2.5-7.6,3.9-11.4,4c-0.1,0-0.7,0.2-0.5,0.4
				c0.9,0.6,0.9,1.4,0.8,2.4c-0.4,3.1-2.2-1.8-2.3-2.4c0-0.2-0.3-0.2-0.4-0.1c-4.6,1.6-10.2,3.4-13.4,7.4c-0.1,0.1,0,0.1,0,0.2
				c4.2,6.4,8.4,4.1,11.6-1.7c1.8-3.3,3-6.8,4.6-10.2c0.3-0.6,0.6-1.3,1-1.9c0.2-0.2,0.3-0.4,0.5-0.6c-1.1,1-2.6,2.2-3.8,2.9
				c-2.3,1.4-4.7,2.2-6.6,4.3c0,0.1,0,0.1,0,0.2c1,1.2,2.3,2,3.6,2.9C179.7,207.4,180.4,207.1,180.1,206.9L180.1,206.9z"/>
		</g>
	</g>
	<g>
		<g>
			<path class="st27" d="M226,193.7c-3.9,3.9-5.8,9.3-7.3,14.5c-0.2,0.6,1,0.6,1.1,0.2c1.4-5.1,3.3-10.5,7.1-14.3
				C227.5,193.6,226.3,193.3,226,193.7L226,193.7z"/>
		</g>
	</g>
	<g>
		<g>
			<path class="st27" d="M221.9,195.7c8.5-3,8.4,5.7,5.4,10.8c-2,3.4-5.6,5.8-9.7,5.2c-4.6-0.6-8.6-5-0.2-6.5
				c3.3-0.6,6.7-0.8,10-0.9c1,0,5.9-0.6,5,1c-0.6,1-1,2.1-1.1,3.2c-0.2,1.2,0.7,1.6,1.8,1.3c2.6-0.7,4.5-6.7,1.5-4.9
				c-0.4,0.2,0.2,0.3,0.4,0.2c3.6-1.4,7.5-0.4,11-2.1c0.1,0,0.3-0.2,0.2-0.2c-4.4-3.4-12.2,3.1-5.9,6.6c3.1,1.7,7.8,0.3,10.9-0.6
				c3.9-1.1,7.7-2.8,11.3-4.6c0.5-0.2-0.2-0.3-0.5-0.2c-5.4,2.8-17.2,9.2-22.6,4.1c-1-0.9-1-2-0.7-3.1c0.6-0.6,1.2-1.2,1.8-1.8
				c3.4-1.4,4.1-1.2,2.2,0.8c-1.9,0.3-4,0.1-5.9,0.5c-1.7,0.4-1.1-0.1-1.3,2.1c-0.1,0.4-2.5,5.2-3.4,2.6c-0.5-1.4,1-3.7,1.8-4.6
				c0.1-0.2-0.1-0.2-0.2-0.2c-5-0.2-10,0-15,0.6c-2.4,0.3-5.8,0.7-7,3.2c-1.2,2.6,3.9,3.9,5.4,4.2c2.2,0.4,4.3-0.2,6.2-1
				c4.2-2.1,6.9-7.4,6.7-12c-0.2-4.9-5-4.9-8.5-3.7C221.1,195.6,221.6,195.8,221.9,195.7L221.9,195.7z"/>
		</g>
	</g>
	<script  type="text/javascript">
		<![CDATA[
            let id = this.frameElement.id;
            let color;
            switch(id) {
                case "1": color = "#DA542E"; break;
                case "2": color = "#a9c783"; break;
                case "3": color = "#28a5e1"; break;
                case "4": color = "#95BDD4"; break;
            }
            document.getElementById("valueColor01").setAttribute("fill", color);
            document.getElementById("valueColor02").setAttribute("fill", color);
            document.getElementById("valueColor03").setAttribute("fill", color);
            document.getElementById("valueColor04").setAttribute("fill", color);
        
			
			]]>
	</script>
</g>
<polyline class="st2" points="63,126.6 219.4,214.8 63.6,295.8 "/>
<polyline class="st2" points="429.8,126.4 280.8,216.6 429,295.8 "/>
<path class="st2" d="M61.6,294c0,0,144.2-82.4,163.1-92.6c13.8-7.9,23.7-7.9,34.9-0.6c11.3,7.3,159.4,86.6,169.6,93.2"/>
</svg>
