<?xml version="1.0" encoding="utf-8"?>
<!-- Generator: Adobe Illustrator 17.1.0, SVG Export Plug-In . SVG Version: 6.00 Build 0)  -->
<!DOCTYPE svg PUBLIC "-//W3C//DTD SVG 1.1//EN" "http://www.w3.org/Graphics/SVG/1.1/DTD/svg11.dtd">
<svg version="1.1" id="Layer_1" xmlns="http://www.w3.org/2000/svg" xmlns:xlink="http://www.w3.org/1999/xlink" x="0px" y="0px"
	 viewBox="0 0 70 45" enable-background="new 0 0 70 45" xml:space="preserve">
<rect x="1.1" y="1" fill="#CD001E" width="67.9" height="42"/>
<rect x="1" y="10" fill="#FFC81E" width="67.9" height="24"/>
<path fill="#754C28" d="M14.5,19.2c0,0,1.6-1,1.6-1.7s-3.2-1.6-3.7-1.6c-0.5,0-3.6,0.8-3.6,1.6s1.8,1.8,1.8,1.8v0.8H8.4v6.2
	c0,0,1,2.8,4.1,2.8c3.3,0,3.9-3.3,3.9-3.3V20h-1.9L14.5,19.2z"/>
<path fill="#754C28" d="M7.3,20.4c0,0,0.3-0.8,0.3-1.3S7,17.9,6.9,17.9c-0.1,0-0.8,0.5-0.8,1.2c0,0.6,0.4,1.4,0.4,1.4V21H6v4.7
	c0,0,0.2,2.2,0.9,2.2c0.8,0,0.9-2.6,0.9-2.6v-4.4H7.3L7.3,20.4z"/>
<path fill="#754C28" d="M18.6,20.4c0,0,0.3-0.8,0.3-1.3s-0.6-1.2-0.8-1.2s-0.8,0.5-0.8,1.2c0,0.6,0.4,1.4,0.4,1.4V21h-0.5v4.7
	c0,0,0.2,2.2,0.9,2.2c0.8,0,0.9-2.6,0.9-2.6v-4.4h-0.4L18.6,20.4z"/>
</svg>
