<?xml version="1.0" encoding="utf-8"?>
<!-- Generator: Adobe Illustrator 17.1.0, SVG Export Plug-In . SVG Version: 6.00 Build 0)  -->
<!DOCTYPE svg PUBLIC "-//W3C//DTD SVG 1.1//EN" "http://www.w3.org/Graphics/SVG/1.1/DTD/svg11.dtd">
<svg version="1.1" id="Layer_1" xmlns="http://www.w3.org/2000/svg" xmlns:xlink="http://www.w3.org/1999/xlink" x="0px" y="0px"
	 viewBox="0 0 70 45" enable-background="new 0 0 70 45" xml:space="preserve">
<rect x="1" y="1" fill="#CD001E" width="68" height="3.2"/>
<rect x="1" y="7.5" fill="#CD001E" width="68" height="3.2"/>
<rect x="1" y="4.2" fill="#FFFFFF" width="68" height="3.2"/>
<rect x="1" y="10.7" fill="#FFFFFF" width="68" height="3.2"/>
<rect x="1" y="13.9" fill="#CD001E" width="68" height="3.2"/>
<rect x="1" y="17.2" fill="#FFFFFF" width="68" height="3.2"/>
<rect x="1" y="20.4" fill="#CD001E" width="68" height="3.2"/>
<rect x="1" y="26.8" fill="#CD001E" width="68" height="3.2"/>
<rect x="1" y="23.6" fill="#FFFFFF" width="68" height="3.2"/>
<rect x="1" y="30.1" fill="#FFFFFF" width="68" height="3.2"/>
<rect x="1" y="33.3" fill="#CD001E" width="68" height="3.2"/>
<rect x="1" y="39.8" fill="#CD001E" width="68" height="3.2"/>
<rect x="1" y="36.5" fill="#FFFFFF" width="68" height="3.2"/>
<rect x="1" y="1" fill="#2A3560" width="29.1" height="22.6"/>
<polygon fill="#FFFFFF" points="4.7,3.2 4.9,4 5.9,4 5.1,4.6 5.4,5.5 4.7,5 3.9,5.5 4.1,4.6 3.4,4 4.3,4 "/>
<polygon fill="#FFFFFF" points="4.7,7.1 4.9,8 5.9,8 5.1,8.5 5.4,9.4 4.7,8.9 3.9,9.4 4.1,8.5 3.4,8 4.3,8 "/>
<polygon fill="#FFFFFF" points="4.7,11 4.9,11.9 5.9,11.9 5.1,12.5 5.4,13.4 4.7,12.8 3.9,13.4 4.1,12.5 3.4,11.9 4.3,11.9 "/>
<polygon fill="#FFFFFF" points="4.7,15 4.9,15.9 5.9,15.9 5.1,16.4 5.4,17.3 4.7,16.7 3.9,17.3 4.1,16.4 3.4,15.9 4.3,15.9 "/>
<polygon fill="#FFFFFF" points="4.7,18.9 4.9,19.8 5.9,19.8 5.1,20.4 5.4,21.2 4.7,20.7 3.9,21.2 4.1,20.4 3.4,19.8 4.3,19.8 "/>
<polygon fill="#FFFFFF" points="7.4,5.2 7.7,6.2 8.6,6.2 7.8,6.7 8.1,7.6 7.4,7 6.6,7.6 6.9,6.7 6.2,6.2 7,6.2 "/>
<polygon fill="#FFFFFF" points="7.4,9.2 7.7,10 8.6,10 7.8,10.6 8.1,11.4 7.4,10.9 6.6,11.4 6.9,10.6 6.2,10 7,10 "/>
<polygon fill="#FFFFFF" points="7.4,13.1 7.7,14 8.6,14 7.8,14.6 8.1,15.4 7.4,14.9 6.6,15.4 6.9,14.6 6.2,14 7,14 "/>
<polygon fill="#FFFFFF" points="7.4,17 7.7,17.9 8.6,17.9 7.8,18.4 8.1,19.4 7.4,18.8 6.6,19.4 6.9,18.4 6.2,17.9 7,17.9 "/>
<polygon fill="#FFFFFF" points="10.2,3.2 10.5,4 11.4,4 10.6,4.6 10.9,5.5 10.2,5 9.4,5.5 9.7,4.6 8.9,4 9.9,4 "/>
<polygon fill="#FFFFFF" points="10.2,7.1 10.5,8 11.4,8 10.6,8.5 10.9,9.4 10.2,8.9 9.4,9.4 9.7,8.5 8.9,8 9.9,8 "/>
<polygon fill="#FFFFFF" points="10.2,11 10.5,11.9 11.4,11.9 10.6,12.5 10.9,13.4 10.2,12.8 9.4,13.4 9.7,12.5 8.9,11.9 9.9,11.9 
	"/>
<polygon fill="#FFFFFF" points="10.2,15 10.5,15.9 11.4,15.9 10.6,16.4 10.9,17.3 10.2,16.7 9.4,17.3 9.7,16.4 8.9,15.9 9.9,15.9 
	"/>
<polygon fill="#FFFFFF" points="10.2,18.9 10.5,19.8 11.4,19.8 10.6,20.4 10.9,21.2 10.2,20.7 9.4,21.2 9.7,20.4 8.9,19.8 9.9,19.8 
	"/>
<polygon fill="#FFFFFF" points="12.9,5.2 13.2,6.2 14.2,6.2 13.4,6.7 13.6,7.6 12.9,7 12.1,7.6 12.4,6.7 11.7,6.2 12.7,6.2 "/>
<polygon fill="#FFFFFF" points="12.9,9.2 13.2,10 14.2,10 13.4,10.6 13.6,11.4 12.9,10.9 12.1,11.4 12.4,10.6 11.7,10 12.7,10 "/>
<polygon fill="#FFFFFF" points="12.9,13.1 13.2,14 14.2,14 13.4,14.6 13.6,15.4 12.9,14.9 12.1,15.4 12.4,14.6 11.7,14 12.7,14 "/>
<polygon fill="#FFFFFF" points="12.9,17 13.2,17.9 14.2,17.9 13.4,18.4 13.6,19.4 12.9,18.8 12.1,19.4 12.4,18.4 11.7,17.9 
	12.7,17.9 "/>
<polygon fill="#FFFFFF" points="15.7,3.2 16,4 17,4 16.1,4.6 16.4,5.5 15.7,5 14.9,5.5 15.2,4.6 14.5,4 15.4,4 "/>
<polygon fill="#FFFFFF" points="15.7,7.1 16,8 17,8 16.1,8.5 16.4,9.4 15.7,8.9 14.9,9.4 15.2,8.5 14.5,8 15.4,8 "/>
<polygon fill="#FFFFFF" points="15.7,11 16,11.9 17,11.9 16.1,12.5 16.4,13.4 15.7,12.8 14.9,13.4 15.2,12.5 14.5,11.9 15.4,11.9 
	"/>
<polygon fill="#FFFFFF" points="15.7,15 16,15.9 17,15.9 16.1,16.4 16.4,17.3 15.7,16.7 14.9,17.3 15.2,16.4 14.5,15.9 15.4,15.9 
	"/>
<polygon fill="#FFFFFF" points="15.7,18.9 16,19.8 17,19.8 16.1,20.4 16.4,21.2 15.7,20.7 14.9,21.2 15.2,20.4 14.5,19.8 15.4,19.8 
	"/>
<polygon fill="#FFFFFF" points="18.5,5.2 18.7,6.2 19.7,6.2 18.9,6.7 19.2,7.6 18.5,7 17.7,7.6 17.9,6.7 17.2,6.2 18.2,6.2 "/>
<polygon fill="#FFFFFF" points="18.5,9.2 18.7,10 19.7,10 18.9,10.6 19.2,11.4 18.5,10.9 17.7,11.4 17.9,10.6 17.2,10 18.2,10 "/>
<polygon fill="#FFFFFF" points="18.5,13.1 18.7,14 19.7,14 18.9,14.6 19.2,15.4 18.5,14.9 17.7,15.4 17.9,14.6 17.2,14 18.2,14 "/>
<polygon fill="#FFFFFF" points="18.5,17 18.7,17.9 19.7,17.9 18.9,18.4 19.2,19.4 18.5,18.8 17.7,19.4 17.9,18.4 17.2,17.9 
	18.2,17.9 "/>
<polygon fill="#FFFFFF" points="21.2,3.2 21.5,4 22.5,4 21.7,4.6 21.9,5.5 21.2,5 20.4,5.5 20.8,4.6 20,4 21,4 "/>
<polygon fill="#FFFFFF" points="21.2,7.1 21.5,8 22.5,8 21.7,8.5 21.9,9.4 21.2,8.9 20.4,9.4 20.8,8.5 20,8 21,8 "/>
<polygon fill="#FFFFFF" points="21.2,11 21.5,11.9 22.5,11.9 21.7,12.5 21.9,13.4 21.2,12.8 20.4,13.4 20.8,12.5 20,11.9 21,11.9 
	"/>
<polygon fill="#FFFFFF" points="21.2,15 21.5,15.9 22.5,15.9 21.7,16.4 21.9,17.3 21.2,16.7 20.4,17.3 20.8,16.4 20,15.9 21,15.9 
	"/>
<polygon fill="#FFFFFF" points="21.2,18.9 21.5,19.8 22.5,19.8 21.7,20.4 21.9,21.2 21.2,20.7 20.4,21.2 20.8,20.4 20,19.8 21,19.8 
	"/>
<polygon fill="#FFFFFF" points="24,5.2 24.3,6.2 25.2,6.2 24.4,6.7 24.7,7.6 24,7 23.2,7.6 23.5,6.7 22.7,6.2 23.7,6.2 "/>
<polygon fill="#FFFFFF" points="24,9.2 24.3,10 25.2,10 24.4,10.6 24.7,11.4 24,10.9 23.2,11.4 23.5,10.6 22.7,10 23.7,10 "/>
<polygon fill="#FFFFFF" points="24,13.1 24.3,14 25.2,14 24.4,14.6 24.7,15.4 24,14.9 23.2,15.4 23.5,14.6 22.7,14 23.7,14 "/>
<polygon fill="#FFFFFF" points="24,17 24.3,17.9 25.2,17.9 24.4,18.4 24.7,19.4 24,18.8 23.2,19.4 23.5,18.4 22.7,17.9 23.7,17.9 
	"/>
<polygon fill="#FFFFFF" points="26.8,3.2 27,4 28,4 27.2,4.6 27.6,5.5 26.8,5 26,5.5 26.3,4.6 25.5,4 26.5,4 "/>
<polygon fill="#FFFFFF" points="26.8,7.1 27,8 28,8 27.2,8.5 27.6,9.4 26.8,8.9 26,9.4 26.3,8.5 25.5,8 26.5,8 "/>
<polygon fill="#FFFFFF" points="26.8,11 27,11.9 28,11.9 27.2,12.5 27.6,13.4 26.8,12.8 26,13.4 26.3,12.5 25.5,11.9 26.5,11.9 "/>
<polygon fill="#FFFFFF" points="26.8,15 27,15.9 28,15.9 27.2,16.4 27.6,17.3 26.8,16.7 26,17.3 26.3,16.4 25.5,15.9 26.5,15.9 "/>
<polygon fill="#FFFFFF" points="26.8,18.9 27,19.8 28,19.8 27.2,20.4 27.6,21.2 26.8,20.7 26,21.2 26.3,20.4 25.5,19.8 26.5,19.8 
	"/>
</svg>
