<?xml version="1.0" encoding="utf-8"?>
<!-- Generator: Adobe Illustrator 18.0.0, SVG Export Plug-In . SVG Version: 6.00 Build 0)  -->
<!DOCTYPE svg PUBLIC "-//W3C//DTD SVG 1.1//EN" "http://www.w3.org/Graphics/SVG/1.1/DTD/svg11.dtd">
<svg version="1.1" id="Layer_1" xmlns="http://www.w3.org/2000/svg" xmlns:xlink="http://www.w3.org/1999/xlink" x="0px" y="0px"
	 viewBox="0 0 45 45" enable-background="new 0 0 45 45" xml:space="preserve">
	<style type="text/css">
			@import "../default/default/svg.css";
	</style>
	 <script type="text/javascript">
         <![CDATA[
             if(window.parent && window.parent.Wincor && window.parent.Wincor.UI && window.parent.Wincor.UI.Content) {
                 let styleRes = window.parent.Wincor.UI.Content.StyleResourceResolver;
                 if(styleRes) {
                 	let style = document.getElementsByTagName("style")[0];
                   	style.innerHTML = style.innerHTML.replace("default/svg.css", styleRes.type() + "svg.css");
                    styleRes = null;
                 }
             }
         ]]>
    </script>
<g class="shadowGroup1">
	<polygon fill="none" stroke="#000000" stroke-miterlimit="10"  points="23.9,27.3 44,27.3 44,37.3
		23.9,37.4 	"/>
	<path d="M29.6,35.8h-3.5v-0.7h1.3v-4.4H26v-0.6c0.2,0,0.4,0,0.6,0S27,30,27.1,30c0.1-0.1,0.2-0.2,0.3-0.3c0.1-0.1,0.1-0.3,0.1-0.5
		h0.7v5.9h1.3L29.6,35.8L29.6,35.8L29.6,35.8z"/>
	<path d="M35.2,32.3c0,1.2-0.2,2-0.6,2.6c-0.4,0.5-1,0.8-1.8,0.8c-0.8,0-1.5-0.3-1.9-0.8c-0.4-0.6-0.6-1.4-0.6-2.6
		c0-1.2,0.2-2,0.6-2.6c0.4-0.6,1-0.8,1.8-0.8s1.5,0.3,1.9,0.8C35,30.3,35.2,31.2,35.2,32.3z M34,34.3c0.1-0.2,0.2-0.5,0.2-0.8
		s0.1-0.7,0.1-1.2c0-0.4,0-0.8-0.1-1.2c0-0.3-0.1-0.6-0.2-0.8c-0.1-0.2-0.3-0.4-0.5-0.5c-0.2-0.1-0.4-0.2-0.7-0.2
		c-0.3,0-0.5,0.1-0.7,0.2c-0.2,0.1-0.3,0.3-0.5,0.5c-0.1,0.3-0.2,0.5-0.2,0.9c0,0.3-0.1,0.7-0.1,1.1c0,0.5,0,0.8,0.1,1.1
		c0,0.3,0.1,0.6,0.2,0.8c0.1,0.2,0.3,0.4,0.4,0.5c0.2,0.1,0.4,0.2,0.8,0.2c0.3,0,0.5-0.1,0.7-0.2C33.7,34.7,33.9,34.6,34,34.3z"/>
	<path d="M41.3,32.3c0,1.2-0.2,2-0.6,2.6c-0.4,0.5-1,0.8-1.8,0.8s-1.5-0.3-1.9-0.8c-0.4-0.6-0.6-1.4-0.6-2.6c0-1.2,0.2-2,0.6-2.6
		c0.4-0.6,1-0.8,1.8-0.8c0.8,0,1.5,0.3,1.9,0.8C41.2,30.3,41.3,31.2,41.3,32.3z M40.1,34.3c0.1-0.2,0.2-0.5,0.2-0.8s0.1-0.7,0.1-1.2
		c0-0.4,0-0.8-0.1-1.2c0-0.3-0.1-0.6-0.2-0.8c-0.1-0.2-0.3-0.4-0.5-0.5s-0.4-0.2-0.7-0.2s-0.5,0.1-0.7,0.2s-0.3,0.3-0.5,0.5
		c-0.1,0.2-0.2,0.5-0.2,0.8s-0.1,0.7-0.1,1.1c0,0.5,0,0.8,0.1,1.1c0,0.3,0.1,0.6,0.2,0.8c0.1,0.2,0.3,0.4,0.4,0.5
		c0.2,0.1,0.4,0.2,0.8,0.2c0.3,0,0.5-0.1,0.7-0.2C39.8,34.7,40,34.6,40.1,34.3z"/>
	<path fill="none" stroke="#000000" stroke-miterlimit="10" d="M28.9,24.7h6c0-2.4-0.6-4.7-1.7-7.1h-5.6
		C28.3,19.9,28.9,22.1,28.9,24.7z"/>
	<path fill="none" stroke="#000000" stroke-miterlimit="10" d="M13.8,17.7h7.1v-7.2c-0.5,0-0.8,0-1.1,0
		C19.3,10.9,15.8,13.5,13.8,17.7z"/>
	<line fill="none" stroke="#000000" stroke-miterlimit="10" x1="34.9" y1="24.7" x2="28.9" y2="24.7"/>
	<path fill="none" stroke="#000000" stroke-miterlimit="10" d="M27.5,17.7c-2-4.7-5.6-6.8-6.1-7.2c-0.3-0.1-0.6,0-0.6,0v7.2H27.5
		L27.5,17.7z"/>
	<polyline fill="none" stroke="#000000" stroke-miterlimit="10" points="28.9,24.7 20.9,24.7 20.9,31.4 	"/>
	<path fill="none" stroke="#000000" stroke-miterlimit="10" d="M20.9,17.7h-7.1c-0.8,2.2-1.4,4.4-1.4,7h8.5V17.7z"/>
	<path fill="none" stroke="#000000" stroke-miterlimit="10" d="M28.9,24.7c0-2.6-0.5-4.8-1.3-7.1H21v7L28.9,24.7z"/>
	<path fill="none" stroke="#000000" stroke-miterlimit="10" d="M12.4,24.7c0,2.6,0.5,4.9,1.3,7h7.2v-7H12.4z"/>
	<path fill="none" stroke="#000000" stroke-miterlimit="10" d="M27.5,17.7h5.6c-2.2-3.8-6.6-6.8-11.7-7.1
		C22,10.9,25.6,13.3,27.5,17.7z"/>
	<line fill="none" stroke="#000000" stroke-miterlimit="10" x1="20.9" y1="31.4" x2="20.9" y2="38.9"/>
	<path fill="none" stroke="#000000" stroke-miterlimit="10" d="M13.7,31.5c2,4.7,5.6,7.1,6.1,7.4c0.3,0,0.5,0,1.1,0v-7.1h-7.2V31.5z
		"/>
	<path fill="none" stroke="#000000" stroke-miterlimit="10" d="M13.7,31.7H8.1c2.2,3.9,6.6,6.9,11.7,7.1
		C18.4,37.9,15.7,36.2,13.7,31.7z"/>
	<path fill="none" stroke="#000000" stroke-miterlimit="10" d="M12.4,24.7h-6c0,2.4,0.6,4.7,1.7,7h5.6
		C12.9,29.6,12.4,27.3,12.4,24.7z"/>
	<path fill="none" stroke="#000000" stroke-miterlimit="10" d="M13.8,17.7H8.1c-1.1,2.3-1.7,4.6-1.7,7h6
		C12.4,22.1,12.9,19.9,13.8,17.7z"/>
	<path fill="none" stroke="#000000" stroke-miterlimit="10" d="M19.8,10.6c-5.1,0.3-9.4,3.2-11.7,7.1h5.7
		C15.8,13.5,19.3,10.9,19.8,10.6z"/>
</g>
<g class="shadowGroup2">
	<polygon fill="none" stroke="#000000" stroke-miterlimit="10"  points="23.2,26.3 43.3,26.3 43.3,36.3
		23.2,36.4 	"/>
	<path d="M28.9,34.8h-3.5v-0.7h1.3v-4.4h-1.4v-0.6c0.2,0,0.4,0,0.6,0s0.4-0.1,0.5-0.1c0.1-0.1,0.2-0.2,0.3-0.3
		c0.1-0.1,0.1-0.3,0.1-0.5h0.7v5.9h1.3L28.9,34.8L28.9,34.8L28.9,34.8z"/>
	<path d="M34.5,31.3c0,1.2-0.2,2-0.6,2.6c-0.4,0.5-1,0.8-1.8,0.8c-0.8,0-1.5-0.3-1.9-0.8c-0.4-0.6-0.6-1.4-0.6-2.6
		c0-1.2,0.2-2,0.6-2.6c0.4-0.6,1-0.8,1.8-0.8s1.5,0.3,1.9,0.8C34.3,29.3,34.5,30.2,34.5,31.3z M33.3,33.3c0.1-0.2,0.2-0.5,0.2-0.8
		s0.1-0.7,0.1-1.2c0-0.4,0-0.8-0.1-1.2c0-0.3-0.1-0.6-0.2-0.8c-0.1-0.2-0.3-0.4-0.5-0.5c-0.2-0.1-0.4-0.2-0.7-0.2
		c-0.3,0-0.5,0.1-0.7,0.2s-0.3,0.3-0.5,0.5c-0.1,0.3-0.2,0.5-0.2,0.9c0,0.3-0.1,0.7-0.1,1.1c0,0.5,0,0.8,0.1,1.1
		c0,0.3,0.1,0.6,0.2,0.8c0.1,0.2,0.3,0.4,0.4,0.5c0.2,0.1,0.4,0.2,0.8,0.2c0.3,0,0.5-0.1,0.7-0.2C33,33.7,33.2,33.6,33.3,33.3z"/>
	<path d="M40.6,31.3c0,1.2-0.2,2-0.6,2.6c-0.4,0.5-1,0.8-1.8,0.8s-1.5-0.3-1.9-0.8c-0.4-0.6-0.6-1.4-0.6-2.6c0-1.2,0.2-2,0.6-2.6
		c0.4-0.6,1-0.8,1.8-0.8c0.8,0,1.5,0.3,1.9,0.8C40.5,29.3,40.6,30.2,40.6,31.3z M39.4,33.3c0.1-0.2,0.2-0.5,0.2-0.8s0.1-0.7,0.1-1.2
		c0-0.4,0-0.8-0.1-1.2c0-0.3-0.1-0.6-0.2-0.8c-0.1-0.2-0.3-0.4-0.5-0.5s-0.4-0.2-0.7-0.2s-0.5,0.1-0.7,0.2s-0.3,0.3-0.5,0.5
		c-0.1,0.2-0.2,0.5-0.2,0.8s-0.1,0.7-0.1,1.1c0,0.5,0,0.8,0.1,1.1c0,0.3,0.1,0.6,0.2,0.8c0.1,0.2,0.3,0.4,0.4,0.5
		c0.2,0.1,0.4,0.2,0.8,0.2c0.3,0,0.5-0.1,0.7-0.2C39.1,33.7,39.3,33.6,39.4,33.3z"/>
	<path fill="none" stroke="#000000" stroke-miterlimit="10" d="M28.2,23.1h6c0-2.4-0.6-4.7-1.7-7.1h-5.6
		C27.6,18.3,28.2,20.5,28.2,23.1z"/>
	<path fill="none" stroke="#000000" stroke-miterlimit="10" d="M13.1,16.1h7.1V8.9c-0.5,0-0.8,0-1.1,0C18.6,9.3,15.1,11.9,13.1,16.1
		z"/>
	<line fill="none" stroke="#000000" stroke-miterlimit="10" x1="34.2" y1="23.1" x2="28.2" y2="23.1"/>
	<path fill="none" stroke="#000000" stroke-miterlimit="10" d="M26.8,16.1c-2-4.7-5.6-6.8-6.1-7.2c-0.3-0.1-0.6,0-0.6,0v7.2H26.8
		L26.8,16.1z"/>
	<polyline fill="none" stroke="#000000" stroke-miterlimit="10" points="28.2,23.1 20.2,23.1 20.2,29.8 	"/>
	<path fill="none" stroke="#000000" stroke-miterlimit="10" d="M20.2,16.1h-7.1c-0.8,2.2-1.4,4.4-1.4,7h8.5V16.1z"/>
	<path fill="none" stroke="#000000" stroke-miterlimit="10" d="M28.2,23.1c0-2.6-0.5-4.8-1.3-7.1h-6.6v7L28.2,23.1z"/>
	<path fill="none" stroke="#000000" stroke-miterlimit="10" d="M11.7,23.1c0,2.6,0.5,4.9,1.3,7h7.2v-7H11.7z"/>
	<path fill="none" stroke="#000000" stroke-miterlimit="10" d="M26.8,16.1h5.6c-2.2-3.8-6.6-6.8-11.7-7.1
		C21.3,9.3,24.9,11.7,26.8,16.1z"/>
	<line fill="none" stroke="#000000" stroke-miterlimit="10" x1="20.2" y1="29.8" x2="20.2" y2="37.3"/>
	<path fill="none" stroke="#000000" stroke-miterlimit="10" d="M13,29.9c2,4.7,5.6,7.1,6.1,7.4c0.3,0,0.5,0,1.1,0v-7.1H13V29.9z"/>
	<path fill="none" stroke="#000000" stroke-miterlimit="10" d="M13,30.1H7.4C9.6,34,14,37,19.1,37.2C17.7,36.3,15,34.6,13,30.1z"/>
	<path fill="none" stroke="#000000" stroke-miterlimit="10" d="M11.7,23.1h-6c0,2.4,0.6,4.7,1.7,7H13C12.2,28,11.7,25.7,11.7,23.1z"
		/>
	<path fill="none" stroke="#000000" stroke-miterlimit="10" d="M13.1,16.1H7.4c-1.1,2.3-1.7,4.6-1.7,7h6
		C11.7,20.5,12.2,18.3,13.1,16.1z"/>
	<path fill="none" stroke="#000000" stroke-miterlimit="10" d="M19.1,9C14,9.3,9.7,12.2,7.4,16.1h5.7C15.1,11.9,18.6,9.3,19.1,9z"/>
</g>
<g class="shadowGroup3">
	<polygon fill="none" stroke="#000000" stroke-miterlimit="10"  points="22.2,25.4 42.3,25.4 42.3,35.4
		22.2,35.5 	"/>
	<path d="M27.9,33.8h-3.5v-0.7h1.3v-4.4h-1.4v-0.6c0.2,0,0.4,0,0.6,0s0.4-0.1,0.5-0.1c0.1-0.1,0.2-0.2,0.3-0.3
		c0.1-0.1,0.1-0.3,0.1-0.5h0.7v5.9h1.3L27.9,33.8L27.9,33.8L27.9,33.8z"/>
	<path d="M33.5,30.3c0,1.2-0.2,2-0.6,2.6c-0.4,0.5-1,0.8-1.8,0.8c-0.8,0-1.5-0.3-1.9-0.8c-0.4-0.6-0.6-1.4-0.6-2.6s0.2-2,0.6-2.6
		c0.4-0.6,1-0.8,1.8-0.8s1.5,0.3,1.9,0.8C33.3,28.3,33.5,29.2,33.5,30.3z M32.3,32.3c0.1-0.2,0.2-0.5,0.2-0.8s0.1-0.7,0.1-1.2
		c0-0.4,0-0.8-0.1-1.2c0-0.3-0.1-0.6-0.2-0.8c-0.1-0.2-0.3-0.4-0.5-0.5c-0.2-0.1-0.4-0.2-0.7-0.2c-0.3,0-0.5,0.1-0.7,0.2
		s-0.3,0.3-0.5,0.5c-0.1,0.3-0.2,0.5-0.2,0.9c0,0.3-0.1,0.7-0.1,1.1c0,0.5,0,0.8,0.1,1.1c0,0.3,0.1,0.6,0.2,0.8
		c0.1,0.2,0.3,0.4,0.4,0.5c0.2,0.1,0.4,0.2,0.8,0.2c0.3,0,0.5-0.1,0.7-0.2C32,32.7,32.2,32.6,32.3,32.3z"/>
	<path d="M39.6,30.3c0,1.2-0.2,2-0.6,2.6c-0.4,0.5-1,0.8-1.8,0.8s-1.5-0.3-1.9-0.8c-0.4-0.6-0.6-1.4-0.6-2.6s0.2-2,0.6-2.6
		c0.4-0.6,1-0.8,1.8-0.8c0.8,0,1.5,0.3,1.9,0.8C39.5,28.3,39.6,29.2,39.6,30.3z M38.4,32.3c0.1-0.2,0.2-0.5,0.2-0.8s0.1-0.7,0.1-1.2
		c0-0.4,0-0.8-0.1-1.2c0-0.3-0.1-0.6-0.2-0.8c-0.1-0.2-0.3-0.4-0.5-0.5s-0.4-0.2-0.7-0.2s-0.5,0.1-0.7,0.2s-0.3,0.3-0.5,0.5
		c-0.1,0.2-0.2,0.5-0.2,0.8s-0.1,0.7-0.1,1.1c0,0.5,0,0.8,0.1,1.1c0,0.3,0.1,0.6,0.2,0.8c0.1,0.2,0.3,0.4,0.4,0.5
		c0.2,0.1,0.4,0.2,0.8,0.2c0.3,0,0.5-0.1,0.7-0.2C38.1,32.7,38.3,32.6,38.4,32.3z"/>
	<path fill="none" stroke="#000000" stroke-miterlimit="10" d="M27.2,21.7h6c0-2.4-0.6-4.7-1.7-7.1h-5.6
		C26.6,16.9,27.2,19.1,27.2,21.7z"/>
	<path fill="none" stroke="#000000" stroke-miterlimit="10" d="M12.1,14.7h7.1V7.5c-0.5,0-0.8,0-1.1,0C17.6,7.9,14.1,10.5,12.1,14.7
		z"/>
	<line fill="none" stroke="#000000" stroke-miterlimit="10" x1="33.2" y1="21.7" x2="27.2" y2="21.7"/>
	<path fill="none" stroke="#000000" stroke-miterlimit="10" d="M25.8,14.7c-2-4.7-5.6-6.8-6.1-7.2c-0.3-0.1-0.6,0-0.6,0v7.2H25.8
		L25.8,14.7z"/>
	<polyline fill="none" stroke="#000000" stroke-miterlimit="10" points="27.2,21.7 19.2,21.7 19.2,28.4 	"/>
	<path fill="none" stroke="#000000" stroke-miterlimit="10" d="M19.2,14.7h-7.1c-0.8,2.2-1.4,4.4-1.4,7h8.5V14.7z"/>
	<path fill="none" stroke="#000000" stroke-miterlimit="10" d="M27.2,21.7c0-2.6-0.5-4.8-1.3-7.1h-6.6v7L27.2,21.7z"/>
	<path fill="none" stroke="#000000" stroke-miterlimit="10" d="M10.7,21.7c0,2.6,0.5,4.9,1.3,7h7.2v-7H10.7z"/>
	<path fill="none" stroke="#000000" stroke-miterlimit="10" d="M25.8,14.7h5.6c-2.2-3.8-6.6-6.8-11.7-7.1
		C20.3,7.9,23.9,10.3,25.8,14.7z"/>
	<line fill="none" stroke="#000000" stroke-miterlimit="10" x1="19.2" y1="28.4" x2="19.2" y2="35.9"/>
	<path fill="none" stroke="#000000" stroke-miterlimit="10" d="M12,28.5c2,4.7,5.6,7.1,6.1,7.4c0.3,0,0.5,0,1.1,0v-7.1H12V28.5z"/>
	<path fill="none" stroke="#000000" stroke-miterlimit="10" d="M12,28.7H6.4c2.2,3.9,6.6,6.9,11.7,7.1C16.7,34.9,14,33.2,12,28.7z"
		/>
	<path fill="none" stroke="#000000" stroke-miterlimit="10" d="M10.7,21.7h-6c0,2.4,0.6,4.7,1.7,7H12C11.2,26.6,10.7,24.3,10.7,21.7
		z"/>
	<path fill="none" stroke="#000000" stroke-miterlimit="10" d="M12.1,14.7H6.4c-1.1,2.3-1.7,4.6-1.7,7h6
		C10.7,19.1,11.2,16.9,12.1,14.7z"/>
	<path fill="none" stroke="#000000" stroke-miterlimit="10" d="M18.1,7.6C13,7.9,8.7,10.8,6.4,14.7h5.7C14.1,10.5,17.6,7.9,18.1,7.6
		z"/>
</g>
<g>
	<polygon class="strokeColor" stroke-miterlimit="10" points="21.2,24.4 41.3,24.4 41.3,34.4 21.2,34.5 	"/>
	<path class="fillColor" d="M26.9,32.9h-3.5v-0.7h1.3v-4.4h-1.4v-0.6c0.2,0,0.4,0,0.6,0s0.4-0.1,0.5-0.1c0.1-0.1,0.2-0.2,0.3-0.3
		c0.1-0.1,0.1-0.3,0.1-0.5h0.7v5.9h1.3L26.9,32.9L26.9,32.9L26.9,32.9z"/>
	<path class="fillColor" d="M32.5,29.4c0,1.2-0.2,2-0.6,2.6c-0.4,0.5-1,0.8-1.8,0.8c-0.8,0-1.5-0.3-1.9-0.8c-0.4-0.6-0.6-1.4-0.6-2.6
		s0.2-2,0.6-2.6c0.4-0.6,1-0.8,1.8-0.8s1.5,0.3,1.9,0.8C32.3,27.4,32.5,28.3,32.5,29.4z M31.3,31.4c0.1-0.2,0.2-0.5,0.2-0.8
		s0.1-0.7,0.1-1.2c0-0.4,0-0.8-0.1-1.2c0-0.3-0.1-0.6-0.2-0.8c-0.1-0.2-0.3-0.4-0.5-0.5c-0.2-0.1-0.4-0.2-0.7-0.2
		c-0.3,0-0.5,0.1-0.7,0.2s-0.3,0.3-0.5,0.5c-0.1,0.3-0.2,0.5-0.2,0.9c0,0.3-0.1,0.7-0.1,1.1c0,0.5,0,0.8,0.1,1.1
		c0,0.3,0.1,0.6,0.2,0.8c0.1,0.2,0.3,0.4,0.4,0.5c0.2,0.1,0.4,0.2,0.8,0.2c0.3,0,0.5-0.1,0.7-0.2C31,31.8,31.2,31.7,31.3,31.4z"/>
	<path class="fillColor" d="M38.6,29.4c0,1.2-0.2,2-0.6,2.6c-0.4,0.5-1,0.8-1.8,0.8s-1.5-0.3-1.9-0.8c-0.4-0.6-0.6-1.4-0.6-2.6
		s0.2-2,0.6-2.6c0.4-0.6,1-0.8,1.8-0.8c0.8,0,1.5,0.3,1.9,0.8C38.5,27.4,38.6,28.3,38.6,29.4z M37.4,31.4c0.1-0.2,0.2-0.5,0.2-0.8
		s0.1-0.7,0.1-1.2c0-0.4,0-0.8-0.1-1.2c0-0.3-0.1-0.6-0.2-0.8c-0.1-0.2-0.3-0.4-0.5-0.5s-0.4-0.2-0.7-0.2s-0.5,0.1-0.7,0.2
		s-0.3,0.3-0.5,0.5c-0.1,0.2-0.2,0.5-0.2,0.8s-0.1,0.7-0.1,1.1c0,0.5,0,0.8,0.1,1.1c0,0.3,0.1,0.6,0.2,0.8c0.1,0.2,0.3,0.4,0.4,0.5
		c0.2,0.1,0.4,0.2,0.8,0.2c0.3,0,0.5-0.1,0.7-0.2C37.1,31.8,37.3,31.7,37.4,31.4z"/>
	<path class="strokeColor" stroke-miterlimit="10" d="M26.2,20.4h6c0-2.4-0.6-4.7-1.7-7.1h-5.6
		C25.6,15.6,26.2,17.8,26.2,20.4z"/>
	<path class="strokeColor" stroke-miterlimit="10" d="M11.1,13.4h7.1V6.2c-0.5,0-0.8,0-1.1,0C16.6,6.6,13.1,9.2,11.1,13.4z
		"/>
	<line class="strokeColor" stroke-miterlimit="10" x1="32.2" y1="20.4" x2="26.2" y2="20.4"/>
	<path class="strokeColor" stroke-miterlimit="10" d="M24.8,13.4c-2-4.7-5.6-6.8-6.1-7.2c-0.3-0.1-0.6,0-0.6,0v7.2H24.8
		L24.8,13.4z"/>
	<polyline class="strokeColor" stroke-miterlimit="10" points="26.2,20.4 18.2,20.4 18.2,27.1 	"/>
	<path class="strokeColor" stroke-miterlimit="10" d="M18.2,13.4h-7.1c-0.8,2.2-1.4,4.4-1.4,7h8.5V13.4z"/>
	<path class="strokeColor" stroke-miterlimit="10" d="M26.2,20.4c0-2.6-0.5-4.8-1.3-7.1h-6.6v7L26.2,20.4z"/>
	<path class="strokeColor" stroke-miterlimit="10" d="M9.7,20.4c0,2.6,0.5,4.9,1.3,7h7.2v-7H9.7z"/>
	<path class="strokeColor" stroke-miterlimit="10" d="M24.8,13.4h5.6c-2.2-3.8-6.6-6.8-11.7-7.1C19.3,6.6,22.9,9,24.8,13.4
		z"/>
	<line class="strokeColor" stroke-miterlimit="10" x1="18.2" y1="27.1" x2="18.2" y2="34.6"/>
	<path class="strokeColor" stroke-miterlimit="10" d="M11,27.2c2,4.7,5.6,7.1,6.1,7.4c0.3,0,0.5,0,1.1,0v-7.1H11V27.2z"/>
	<path class="strokeColor" stroke-miterlimit="10" d="M11,27.4H5.4c2.2,3.9,6.6,6.9,11.7,7.1C15.7,33.6,13,31.9,11,27.4z"
		/>
	<path class="strokeColor" stroke-miterlimit="10" d="M9.7,20.4h-6c0,2.4,0.6,4.7,1.7,7H11C10.2,25.3,9.7,23,9.7,20.4z"/>
	<path class="strokeColor" stroke-miterlimit="10" d="M11.1,13.4H5.4c-1.1,2.3-1.7,4.6-1.7,7h6
		C9.7,17.8,10.2,15.6,11.1,13.4z"/>
	<path class="strokeColor" stroke-miterlimit="10" d="M17.1,6.3C12,6.6,7.7,9.5,5.4,13.4h5.7C13.1,9.2,16.6,6.6,17.1,6.3z"
		/>
</g>
</svg>
