<?xml version="1.0" encoding="utf-8"?>
<!-- Generator: Adobe Illustrator 22.0.1, SVG Export Plug-In . SVG Version: 6.00 Build 0)  -->
<svg version="1.1" id="gesture-swipe-vertical-to-turn" xmlns="http://www.w3.org/2000/svg" xmlns:xlink="http://www.w3.org/1999/xlink" x="0px" y="0px"
	 viewBox="0 0 45 45" style="enable-background:new 0 0 45 45;" xml:space="preserve">

	<style type="text/css">
		@import "../default/default/svg.css";
	</style>

	<script  type="text/javascript">
		<![CDATA[
				 if(window.parent && window.parent.Wincor && window.parent.Wincor.UI && window.parent.Wincor.UI.Content) {
					 let styleRes = window.parent.Wincor.UI.Content.StyleResourceResolver;
					 if(styleRes) {
						let style = document.getElementsByTagName("style")[0];
						style.innerHTML = style.innerHTML.replace("default/svg.css", styleRes.type() + "svg.css");
						styleRes = null;
					 }
				 }

			]]>
	</script>
<g class="shadowGroup1">
	<path d="M29.9,14.7c-0.3,0.3-0.4,0.7-0.5,1.1c-1.2-1.2-2.8-1.3-3.7-0.2c-0.5,0.5-0.7,1.2-0.6,2C24,16.9,22.7,17,22,17.8
		c-0.5,0.5-0.7,1.3-0.6,2.1l-7.7-7.6c-2-2-3.2-1.2-3.7-0.6c-0.9,1.1-0.7,2.9,0.6,4.4L23,29.8c0.2,0.3,0.6,0.3,0.8,0.1
		c0.2-0.2,0.1-0.7-0.1-0.9L11.2,15.2c-0.6-0.8-1-1.8-0.4-2.6c0.2-0.2,0.7-0.9,2.2,0.6l9.4,9.3c0.2,0.2,0.6,0.3,0.8,0
		c0.2-0.2,0.1-0.6-0.1-0.9c-0.7-0.8-0.8-2.1-0.2-2.8c0.6-0.7,1.6-0.6,2.4,0.3l0.9,1c0.2,0.3,0.6,0.3,0.8,0.1
		c0.2-0.2,0.2-0.6-0.1-0.9c-0.7-0.8-0.8-2.1-0.2-2.8c0.6-0.7,1.6-0.6,2.4,0.3l1.3,1.5c0.2,0.3,0.6,0.3,0.8,0.1
		c0.2-0.2,0.2-0.6-0.1-0.9c-0.5-0.5-0.5-1.4-0.2-1.8c0.4-0.4,1.1-0.3,1.6,0.2l5.6,6.6c1.9,2.2,2.5,3.7,3.2,5.3c0.5,1.2,1,2.4,2,3.9
		l-7.9,9.2c-2.5-2-5.9-3.9-10.2-5.7c-0.5-0.2-0.9-0.4-1.4-0.6c-1.2-0.5-2.2-1.6-2.6-2.8c-0.2-0.5-0.3-1.3,0.3-1.9
		c0.2-0.2,0.2-0.6-0.1-0.9c-0.2-0.3-0.6-0.3-0.8-0.1c-0.7,0.8-0.8,1.9-0.5,3.2c0.5,1.7,1.9,3.2,3.5,3.8c0.4,0.2,0.9,0.4,1.4,0.5
		c4.4,1.8,7.9,3.8,10.3,5.8c0.2,0.2,0.5,0.2,0.7,0l8.5-9.9c0.2-0.2,0.2-0.6,0-0.8c-1.1-1.6-1.6-2.9-2.1-4.1
		c-0.7-1.6-1.4-3.3-3.4-5.7L33,15C32.1,14,30.6,13.8,29.9,14.7z"/>
	<path class="strokeColor04" style="stroke-linecap:round;stroke-miterlimit:10;" d="M4.4,24.9C1.6,16,8.3,8.6,11.1,6.3"/>
	<polygon style="stroke-linecap:round;stroke-miterlimit:10;" points="7,21.8 6.9,29.9 1,25.8 	"/>
</g>
<g class="shadowGroup2">
	<path d="M29.9,12.6c-0.3,0.3-0.4,0.7-0.5,1.1c-1.2-1.2-2.8-1.3-3.7-0.2c-0.5,0.5-0.7,1.2-0.6,2c-1.1-0.7-2.3-0.6-3.1,0.3
		c-0.5,0.5-0.7,1.3-0.6,2.1l-7.7-7.6c-2-2-3.2-1.2-3.7-0.6c-1,0.9-0.7,2.8,0.5,4.3L23,27.7c0.2,0.3,0.6,0.3,0.8,0.1
		c0.2-0.2,0.1-0.7-0.1-0.9L11.2,13.1c-0.6-0.8-1-1.8-0.4-2.6c0.2-0.2,0.7-0.9,2.2,0.6l9.4,9.3c0.2,0.2,0.6,0.3,0.8,0
		c0.2-0.2,0.1-0.6-0.1-0.9c-0.7-0.8-0.8-2.1-0.2-2.8c0.6-0.7,1.6-0.6,2.4,0.3l0.9,1c0.2,0.3,0.6,0.3,0.8,0.1
		c0.2-0.2,0.2-0.6-0.1-0.9c-0.7-0.8-0.8-2.1-0.2-2.8c0.6-0.7,1.6-0.6,2.4,0.3l1.3,1.5c0.2,0.3,0.6,0.3,0.8,0.1
		c0.2-0.2,0.2-0.6-0.1-0.9c-0.5-0.5-0.5-1.4-0.2-1.8c0.4-0.4,1.1-0.3,1.6,0.2l5.6,6.6c1.9,2.2,2.5,3.7,3.2,5.3c0.5,1.2,1,2.4,2,3.9
		l-7.9,9.2c-2.5-2-5.9-3.9-10.2-5.7c-0.5-0.2-0.9-0.4-1.4-0.6c-1.2-0.5-2.2-1.6-2.6-2.8c-0.2-0.5-0.3-1.3,0.3-1.9
		c0.2-0.2,0.2-0.6-0.1-0.9c-0.2-0.3-0.6-0.3-0.8-0.1c-0.7,0.8-0.8,1.9-0.5,3.2c0.5,1.7,1.9,3.2,3.5,3.8c0.4,0.2,0.9,0.4,1.4,0.5
		c4.4,1.8,7.9,3.8,10.3,5.8c0.2,0.2,0.5,0.2,0.7,0l8.5-9.9c0.2-0.2,0.2-0.6,0-0.8c-1.1-1.6-1.6-2.9-2.1-4.1C41.7,23.7,41,22,39,19.6
		L33,13C32.1,11.9,30.6,11.7,29.9,12.6z"/>
	<path class="strokeColor04" style="stroke-linecap:round;stroke-miterlimit:10;" d="M4.4,22.8C1.6,13.9,8.3,6.6,11.1,4.2"/>
	<polygon style="stroke-linecap:round;stroke-miterlimit:10;" points="7,19.7 6.9,27.8 1,23.7 	"/>
</g>
<g class="shadowGroup3">
	<path d="M29.9,10.5c-0.3,0.3-0.4,0.7-0.5,1.1c-1.2-1.2-2.8-1.3-3.7-0.2c-0.5,0.5-0.7,1.2-0.6,2c-1.1-0.7-2.3-0.6-3.1,0.3
		c-0.5,0.5-0.7,1.3-0.6,2.1l-7.7-7.6c-2-2-3.2-1.2-3.7-0.6c-0.9,1.1-0.7,2.9,0.6,4.4L23,25.6c0.2,0.3,0.6,0.3,0.8,0.1
		c0.2-0.2,0.1-0.7-0.1-0.9L11.2,11.1c-0.6-0.8-1-1.8-0.4-2.6C11,8.3,11.5,7.6,13,9.1l9.4,9.3c0.2,0.2,0.6,0.3,0.8,0
		c0.2-0.2,0.1-0.6-0.1-0.9c-0.7-0.8-0.8-2.1-0.2-2.8c0.6-0.7,1.6-0.6,2.4,0.3l0.9,1c0.2,0.3,0.6,0.3,0.8,0.1
		c0.2-0.2,0.2-0.6-0.1-0.9c-0.7-0.8-0.8-2.1-0.2-2.8c0.6-0.7,1.6-0.6,2.4,0.3l1.3,1.5c0.2,0.3,0.6,0.3,0.8,0.1
		c0.2-0.2,0.2-0.6-0.1-0.9c-0.5-0.5-0.5-1.4-0.2-1.8c0.4-0.4,1.1-0.3,1.6,0.2l5.6,6.6c1.9,2.2,2.5,3.7,3.2,5.3c0.5,1.2,1,2.4,2,3.9
		l-7.9,9.2c-2.5-2-5.9-3.9-10.2-5.7c-0.5-0.2-0.9-0.4-1.4-0.6c-1.2-0.5-2.2-1.6-2.6-2.8c-0.2-0.5-0.3-1.3,0.3-1.9
		c0.2-0.2,0.2-0.6-0.1-0.9c-0.2-0.3-0.6-0.3-0.8-0.1c-0.7,0.8-0.8,1.9-0.5,3.2c0.5,1.7,1.9,3.2,3.5,3.8c0.4,0.2,0.9,0.4,1.4,0.5
		c4.2,1.8,7.6,3.7,10,5.7c0.2,0.2,0.5,0.2,0.7,0l8.5-9.9c0.2-0.2,0.2-0.6,0-0.8c-1.1-1.6-1.6-2.9-2.1-4.1c-0.7-1.6-1.4-3.3-3.4-5.7
		L33,10.9C32.1,9.8,30.6,9.7,29.9,10.5z"/>
	<path class="strokeColor04" style="stroke-linecap:round;stroke-miterlimit:10;" d="M4.4,20.7C1.6,11.8,8.3,4.5,11.1,2.2"/>
	<polygon style="stroke-linecap:round;stroke-miterlimit:10;" points="7,17.7 6.9,25.7 1,21.6 	"/>
</g>
<g>
	<path class="fillColor" d="M29.9,8.5c-0.3,0.3-0.4,0.7-0.5,1.1c-1.2-1.2-2.8-1.3-3.7-0.2c-0.5,0.5-0.7,1.2-0.6,2c-1.1-0.7-2.3-0.6-3.1,0.3
		c-0.5,0.5-0.7,1.3-0.6,2.1L13.7,6c-2-2-3.2-1.2-3.7-0.6c-1,1.1-0.7,2.9,0.5,4.4L23,23.6c0.2,0.3,0.6,0.3,0.8,0.1
		c0.2-0.2,0.1-0.7-0.1-0.9L11.2,9c-0.6-0.8-1-1.8-0.4-2.6C11,6.2,11.6,5.6,13.1,7l9.4,9.3c0.2,0.2,0.6,0.3,0.8,0
		c0.2-0.2,0.1-0.6-0.1-0.9c-0.7-0.8-0.8-2.1-0.2-2.8c0.6-0.7,1.6-0.6,2.4,0.3l0.9,1c0.2,0.3,0.6,0.3,0.8,0.1
		c0.2-0.2,0.2-0.6-0.1-0.9c-0.7-0.8-0.8-2.1-0.2-2.8c0.6-0.7,1.6-0.6,2.4,0.3l1.3,1.5c0.2,0.3,0.6,0.3,0.8,0.1
		c0.2-0.2,0.2-0.6-0.1-0.9c-0.5-0.5-0.5-1.4-0.2-1.8c0.4-0.4,1.1-0.3,1.6,0.2l5.6,6.6c1.9,2.2,2.5,3.7,3.2,5.3c0.5,1.2,1,2.4,2,3.9
		l-7.9,9.2c-2.5-2-5.9-3.9-10.2-5.7c-0.5-0.2-0.9-0.4-1.4-0.6c-1.2-0.5-2.2-1.6-2.6-2.8c-0.2-0.5-0.3-1.3,0.3-1.9
		c0.2-0.2,0.2-0.6-0.1-0.9c-0.2-0.3-0.6-0.3-0.8-0.1c-0.7,0.8-0.8,1.9-0.5,3.2c0.5,1.7,1.9,3.2,3.5,3.8c0.4,0.2,0.9,0.4,1.4,0.5
		C29.2,32,32.6,34,35,36c0.2,0.2,0.5,0.2,0.7,0l8.5-9.9c0.2-0.2,0.2-0.6,0-0.8c-1.1-1.6-1.6-2.9-2.1-4.1c-0.7-1.6-1.4-3.3-3.4-5.7
		L33,8.8C32.1,7.8,30.6,7.6,29.9,8.5z"/>
	<path class="strokeColor" style="stroke-linecap:round;stroke-miterlimit:10;" d="M4.4,18.7C1.6,9.8,8.3,2.4,11.1,0.1"/>
	<polygon class="color01" points="7,15.6 6.9,23.7 1,19.5 	"/>
</g>
</svg>
