<?xml version="1.0" encoding="utf-8"?>
<!-- Generator: Adobe Illustrator 17.1.0, SVG Export Plug-In . SVG Version: 6.00 Build 0)  -->
<!DOCTYPE svg PUBLIC "-//W3C//DTD SVG 1.1//EN" "http://www.w3.org/Graphics/SVG/1.1/DTD/svg11.dtd">
<svg version="1.1" id="Layer_1" xmlns="http://www.w3.org/2000/svg" xmlns:xlink="http://www.w3.org/1999/xlink" x="0px" y="0px"
	 viewBox="0 0 45 45" enable-background="new 0 0 45 45" xml:space="preserve">
	 	<style type="text/css">
     			@import "../default/default/svg.css";
     	</style>
     	 <script type="text/javascript">
              <![CDATA[
                  if(window.parent && window.parent.Wincor && window.parent.Wincor.UI && window.parent.Wincor.UI.Content) {
                  	  let styleRes = window.parent.Wincor.UI.Content.StyleResourceResolver;
                      if(styleRes) {
                          let style = document.getElementsByTagName("style")[0];
                      	  if(style.innerHTML) {
                             style.innerHTML = style.innerHTML.replace("default/svg.css", styleRes.type() + "svg.css");
                          }
                          else {
                          	style.textContent = style.textContent.replace("default/svg.css", styleRes.type() + "svg.css");
                          }
                          styleRes = null;
                      }
                  }
              ]]>
         </script>

<g class="shadowGroup1">
	<path d="M27.9,23.9c-2.6,1.7-3.1,2.8-3.1,5.9h-2c0-4,1-5.5,4.3-7.7c1.8-1.2,2.7-2.8,2.7-4.9c0-3.2-2.3-5.1-5.5-5.1
		c-3.9,0-6.2,2.2-6.2,6h-2.1c0-4.9,3.3-8,8.2-8c2.3,0,4.3,0.8,5.7,2.2c1.2,1.3,1.9,2.8,1.9,4.7C31.9,20.3,30.3,22.4,27.9,23.9z
		 M22.3,37.8v-3h3v3H22.3z"/>
</g>
<g class="shadowGroup2">
	<path d="M26.9,22.9c-2.6,1.7-3.1,2.8-3.1,5.9h-2c0-4,1-5.5,4.3-7.7c1.8-1.2,2.7-2.8,2.7-4.9c0-3.2-2.3-5.1-5.5-5.1
		c-3.9,0-6.2,2.2-6.2,6h-2.1c0-4.9,3.3-8,8.2-8c2.3,0,4.3,0.8,5.7,2.2c1.2,1.3,1.9,2.8,1.9,4.7C30.9,19.3,29.3,21.4,26.9,22.9z
		 M21.3,36.8v-3h3v3H21.3z"/>
</g>
<g class="shadowGroup3">
	<path d="M25.9,21.9c-2.6,1.7-3.1,2.8-3.1,5.9h-2c0-4,1-5.5,4.3-7.7c1.8-1.2,2.7-2.8,2.7-4.9c0-3.2-2.3-5.1-5.5-5.1
		c-3.9,0-6.2,2.2-6.2,6h-2.1c0-4.9,3.3-8,8.2-8c2.3,0,4.3,0.8,5.7,2.2c1.2,1.3,1.9,2.8,1.9,4.7C29.9,18.3,28.3,20.4,25.9,21.9z
		 M20.3,35.8v-3h3v3H20.3z"/>
</g>
<g>
	<path class="fillColor" d="M24.9,20.9c-2.6,1.7-3.1,2.8-3.1,5.9h-2c0-4,1-5.5,4.3-7.7c1.8-1.2,2.7-2.8,2.7-4.9c0-3.2-2.3-5.1-5.5-5.1
		c-3.9,0-6.2,2.2-6.2,6h-2.1c0-4.9,3.3-8,8.2-8c2.3,0,4.3,0.8,5.7,2.2c1.2,1.3,1.9,2.8,1.9,4.7C28.9,17.3,27.3,19.4,24.9,20.9z
		 M19.3,34.8v-3h3v3H19.3z"/>
</g>
</svg>
