<?xml version="1.0" encoding="utf-8"?>
<!-- Generator: Adobe Illustrator 18.0.0, SVG Export Plug-In . SVG Version: 6.00 Build 0)  -->
<!DOCTYPE svg PUBLIC "-//W3C//DTD SVG 1.1//EN" "http://www.w3.org/Graphics/SVG/1.1/DTD/svg11.dtd">
<svg version="1.1" id="Layer_1" xmlns="http://www.w3.org/2000/svg" xmlns:xlink="http://www.w3.org/1999/xlink" x="0px" y="0px"
	 viewBox="0 0 45 45" enable-background="new 0 0 45 45" xml:space="preserve">
	<style type="text/css">
			@import "../default/default/svg.css";
	</style>
	 <script type="text/javascript">
         <![CDATA[
             if(window.parent && window.parent.Wincor && window.parent.Wincor.UI && window.parent.Wincor.UI.Content) {
                 let styleRes = window.parent.Wincor.UI.Content.StyleResourceResolver;
                 if(styleRes) {
                 	let style = document.getElementsByTagName("style")[0];
                   	style.innerHTML = style.innerHTML.replace("default/svg.css", styleRes.type() + "svg.css");
                    styleRes = null;
                 }
             }
         ]]>
    </script>
<g>
	<path class="fillColor" d="M44,1v43H1V1H44 M45,0H0v45h45V0L45,0z"/>
	<path class="fillColor" d="M8.9,18.3h1.5v8.3H8.9V18.3z"/>
	<path class="fillColor" d="M16.1,26.8c-0.6,0-1.2-0.1-1.7-0.3c-0.5-0.2-0.9-0.5-1.3-0.8c-0.3-0.4-0.6-0.8-0.8-1.4S12,23.1,12,22.5
		c0-0.7,0.1-1.3,0.3-1.8s0.5-1,0.9-1.4s0.8-0.7,1.3-0.8c0.5-0.2,1-0.3,1.6-0.3c0.3,0,0.7,0,0.9,0.1c0.3,0.1,0.5,0.1,0.7,0.2
		s0.4,0.1,0.5,0.2s0.2,0.1,0.3,0.2L18.2,20c-0.2-0.1-0.5-0.2-0.8-0.3c-0.4-0.1-0.7-0.2-1.2-0.2c-0.4,0-0.7,0.1-1,0.2
		s-0.6,0.3-0.8,0.6s-0.4,0.6-0.5,0.9s-0.2,0.8-0.2,1.3c0,0.4,0,0.8,0.1,1.2c0.1,0.4,0.3,0.7,0.5,1s0.5,0.5,0.8,0.6s0.7,0.2,1.2,0.2
		s1-0.1,1.3-0.2s0.6-0.2,0.8-0.3l0.4,1.2c-0.1,0.1-0.2,0.1-0.4,0.2c-0.2,0.1-0.4,0.1-0.6,0.2s-0.5,0.1-0.8,0.1
		C16.7,26.8,16.4,26.8,16.1,26.8z"/>
	<path class="fillColor" d="M27.6,22.5c0,0.7-0.1,1.3-0.3,1.9s-0.5,1-0.9,1.4s-0.8,0.6-1.3,0.8c-0.5,0.2-1,0.3-1.6,0.3
		s-1.1-0.1-1.6-0.3s-0.9-0.5-1.3-0.8c-0.4-0.4-0.7-0.8-0.9-1.4c-0.2-0.5-0.3-1.2-0.3-1.9c0-0.7,0.1-1.3,0.3-1.9
		c0.2-0.5,0.5-1,0.9-1.4s0.8-0.6,1.3-0.8c0.5-0.2,1-0.3,1.5-0.3s1.1,0.1,1.5,0.3s0.9,0.5,1.3,0.8c0.4,0.4,0.7,0.8,0.9,1.4
		C27.5,21.2,27.6,21.8,27.6,22.5z M21.1,22.5c0,0.5,0.1,0.9,0.2,1.2c0.1,0.4,0.3,0.7,0.5,0.9c0.2,0.3,0.5,0.5,0.8,0.6s0.6,0.2,1,0.2
		s0.7-0.1,1-0.2s0.6-0.3,0.8-0.6c0.2-0.3,0.4-0.6,0.5-0.9c0.1-0.4,0.2-0.8,0.2-1.2s-0.1-0.9-0.2-1.2c-0.1-0.4-0.3-0.7-0.5-0.9
		c-0.2-0.3-0.5-0.5-0.8-0.6s-0.6-0.2-1-0.2s-0.7,0.1-1,0.2s-0.6,0.3-0.8,0.6c-0.2,0.3-0.4,0.6-0.5,0.9C21.1,21.6,21.1,22,21.1,22.5z
		"/>
	<path class="fillColor" d="M34.8,26.7c-0.3-0.5-0.6-0.9-0.9-1.5c-0.3-0.5-0.7-1.1-1-1.6c-0.4-0.5-0.7-1-1.1-1.5s-0.7-0.9-1.1-1.4v6
		h-1.5v-8.3h1.2c0.3,0.3,0.7,0.7,1,1.2s0.7,0.9,1.1,1.4s0.7,1,1.1,1.5s0.7,1,0.9,1.4v-5.5H36v8.3H34.8z"/>
</g>
</svg>
