<?xml version="1.0" encoding="utf-8"?>
<!-- Generator: Adobe Illustrator 17.1.0, SVG Export Plug-In . SVG Version: 6.00 Build 0)  -->
<!DOCTYPE svg PUBLIC "-//W3C//DTD SVG 1.1//EN" "http://www.w3.org/Graphics/SVG/1.1/DTD/svg11.dtd">
<svg version="1.1" id="Layer_1" xmlns="http://www.w3.org/2000/svg" xmlns:xlink="http://www.w3.org/1999/xlink" x="0px" y="0px"
	 viewBox="0 0 44 44" enable-background="new 0 0 44 44" xml:space="preserve">
<path fill="#FFFFFF" d="M43.5,1v42h-43V1H43.5 M44,0H0v44h44V0L44,0z"/>
<g>
	<path fill="#FFFFFF" d="M12.3,18.9h0.6v6.2h-0.6V18.9z"/>
	<path fill="#FFFFFF" d="M17.1,25.3c-0.4,0-0.8-0.1-1.1-0.2c-0.3-0.1-0.6-0.4-0.9-0.6s-0.5-0.6-0.6-1c-0.1-0.4-0.2-0.9-0.2-1.4
		s0.1-1,0.2-1.4c0.2-0.4,0.4-0.7,0.6-1c0.3-0.3,0.6-0.5,0.9-0.6c0.3-0.1,0.7-0.2,1.1-0.2c0.2,0,0.4,0,0.6,0c0.2,0,0.4,0.1,0.5,0.1
		s0.3,0.1,0.4,0.1c0.1,0,0.2,0.1,0.2,0.1l-0.2,0.5c-0.1-0.1-0.3-0.2-0.6-0.3s-0.5-0.1-0.9-0.1c-0.4,0-0.7,0.1-1,0.2
		c-0.3,0.1-0.5,0.3-0.7,0.6c-0.2,0.2-0.3,0.5-0.4,0.9s-0.1,0.7-0.1,1.1c0,0.4,0,0.8,0.1,1.1s0.2,0.6,0.4,0.9s0.4,0.4,0.7,0.5
		c0.3,0.1,0.6,0.2,1,0.2c0.4,0,0.7,0,1-0.1c0.3-0.1,0.5-0.2,0.6-0.2l0.2,0.5c0,0-0.1,0.1-0.2,0.1c-0.1,0-0.2,0.1-0.4,0.1
		c-0.2,0-0.3,0.1-0.5,0.1C17.6,25.2,17.4,25.3,17.1,25.3z"/>
	<path fill="#FFFFFF" d="M25.6,22c0,0.5-0.1,1-0.2,1.4s-0.4,0.7-0.6,1s-0.6,0.5-0.9,0.6c-0.4,0.1-0.7,0.2-1.1,0.2s-0.8-0.1-1.1-0.2
		c-0.4-0.1-0.7-0.3-0.9-0.6c-0.3-0.3-0.5-0.6-0.6-1c-0.2-0.4-0.2-0.9-0.2-1.4c0-0.5,0.1-1,0.2-1.4c0.2-0.4,0.4-0.7,0.6-1
		c0.3-0.3,0.6-0.5,0.9-0.6c0.4-0.1,0.7-0.2,1.1-0.2s0.8,0.1,1.1,0.2c0.4,0.1,0.7,0.3,0.9,0.6s0.5,0.6,0.6,1
		C25.5,21,25.6,21.5,25.6,22z M24.9,22c0-0.4-0.1-0.8-0.2-1.1s-0.3-0.6-0.5-0.9c-0.2-0.2-0.4-0.4-0.7-0.5c-0.3-0.1-0.6-0.2-0.9-0.2
		s-0.7,0.1-0.9,0.2c-0.3,0.1-0.5,0.3-0.7,0.5c-0.2,0.2-0.4,0.5-0.5,0.9c-0.1,0.3-0.2,0.7-0.2,1.1s0.1,0.8,0.2,1.1
		c0.1,0.3,0.3,0.6,0.5,0.9c0.2,0.2,0.4,0.4,0.7,0.5s0.6,0.2,0.9,0.2s0.7-0.1,0.9-0.2c0.3-0.1,0.5-0.3,0.7-0.5
		c0.2-0.2,0.4-0.5,0.5-0.9S24.9,22.4,24.9,22z"/>
	<path fill="#FFFFFF" d="M31.2,25.1c-0.1-0.2-0.3-0.5-0.4-0.7c-0.2-0.3-0.4-0.6-0.6-0.9c-0.2-0.3-0.4-0.6-0.7-1
		c-0.2-0.3-0.5-0.7-0.7-1c-0.2-0.3-0.5-0.6-0.7-0.9c-0.2-0.3-0.4-0.5-0.6-0.7v5.3h-0.6v-6.2h0.5c0.3,0.3,0.6,0.7,1,1.2
		s0.7,0.9,1,1.4s0.7,0.9,0.9,1.4s0.5,0.8,0.7,1.2v-5.1h0.6v6.2H31.2z"/>
</g>
<g>
</g>
<g>
</g>
<g>
</g>
<g>
</g>
<g>
</g>
<g>
</g>
</svg>
