<?xml version="1.0" encoding="utf-8"?>
<!-- Generator: Adobe Illustrator 17.1.0, SVG Export Plug-In . SVG Version: 6.00 Build 0)  -->
<!DOCTYPE svg PUBLIC "-//W3C//DTD SVG 1.1//EN" "http://www.w3.org/Graphics/SVG/1.1/DTD/svg11.dtd">
<svg version="1.1" id="Layer_1" xmlns="http://www.w3.org/2000/svg" xmlns:xlink="http://www.w3.org/1999/xlink" x="0px" y="0px"
	 viewBox="0 0 60 45" enable-background="new 0 0 60 45" xml:space="preserve">
<linearGradient id="SVGID_1_" gradientUnits="userSpaceOnUse" x1="5.0836" y1="22.5" x2="52.6346" y2="22.5">
	<stop  offset="5.102041e-03" style="stop-color:#00FFFF"/>
	<stop  offset="1" style="stop-color:#FFFF00"/>
</linearGradient>
<polygon fill="url(#SVGID_1_)" points="5.1,43.1 28.9,1.9 52.6,43.1 "/>
<g>
	<path d="M16.4,18.9l-2.5,0.3c-0.1-0.5-0.2-0.9-0.5-1.1c-0.3-0.2-0.6-0.4-1-0.4c-0.5,0-1,0.2-1.4,0.7s-0.6,1.5-0.7,3
		c0.6-0.7,1.4-1.1,2.4-1.1c1.1,0,2,0.4,2.7,1.2s1.1,1.8,1.1,3.1c0,1.4-0.4,2.4-1.2,3.3s-1.8,1.2-3.1,1.2c-1.3,0-2.4-0.5-3.3-1.6
		c-0.9-1-1.3-2.7-1.3-5.1c0-2.4,0.4-4.2,1.3-5.2s2.1-1.6,3.5-1.6c1,0,1.8,0.3,2.5,0.8C15.8,17,16.2,17.8,16.4,18.9z M10.6,24.4
		c0,0.8,0.2,1.5,0.6,1.9c0.4,0.4,0.8,0.7,1.3,0.7c0.5,0,0.9-0.2,1.2-0.5c0.3-0.4,0.5-1,0.5-1.8c0-0.9-0.2-1.5-0.5-1.9
		c-0.3-0.4-0.8-0.6-1.3-0.6c-0.5,0-0.9,0.2-1.2,0.6C10.8,23.1,10.6,23.7,10.6,24.4z"/>
	<path d="M22.3,15.6c1.3,0,2.3,0.5,3,1.4c0.9,1.1,1.3,2.9,1.3,5.4c0,2.5-0.4,4.3-1.3,5.4c-0.7,0.9-1.7,1.4-3,1.4
		c-1.3,0-2.3-0.5-3.1-1.5S18,24.9,18,22.3c0-2.5,0.4-4.3,1.3-5.4C20.1,16.1,21.1,15.6,22.3,15.6z M22.3,17.7c-0.3,0-0.6,0.1-0.8,0.3
		c-0.2,0.2-0.4,0.5-0.6,1.1c-0.2,0.7-0.3,1.8-0.3,3.3s0.1,2.6,0.2,3.2c0.2,0.6,0.4,1,0.6,1.2S22,27,22.3,27c0.3,0,0.6-0.1,0.8-0.3
		c0.2-0.2,0.4-0.5,0.6-1c0.2-0.6,0.3-1.8,0.3-3.3s-0.1-2.6-0.2-3.2s-0.4-1-0.6-1.2C22.9,17.8,22.6,17.7,22.3,17.7z"/>
	<path d="M33.9,19.3h2.4v1.4c0.3-0.5,0.7-0.9,1.2-1.2c0.5-0.3,1.1-0.5,1.7-0.5c1.1,0,2.1,0.4,2.8,1.3s1.2,2.1,1.2,3.6
		c0,1.6-0.4,2.8-1.2,3.7s-1.7,1.3-2.8,1.3c-0.5,0-1-0.1-1.4-0.3c-0.4-0.2-0.9-0.6-1.4-1.1v4.8h-2.5V19.3z M36.4,23.9
		c0,1.1,0.2,1.9,0.6,2.4s0.9,0.8,1.6,0.8c0.6,0,1.1-0.2,1.5-0.7s0.6-1.2,0.6-2.3c0-1-0.2-1.7-0.6-2.2c-0.4-0.5-0.9-0.7-1.5-0.7
		c-0.6,0-1.1,0.2-1.5,0.7C36.6,22.3,36.4,23,36.4,23.9z"/>
	<path d="M44.1,28.9l3.5-4.9l-3.3-4.6h3.1l1.7,2.6l1.8-2.6h3l-3.2,4.5l3.5,5h-3.1l-1.9-3l-2,3H44.1z"/>
</g>
<g>
	<path fill="#FFFFFF" d="M15.7,17.7L13.2,18c-0.1-0.5-0.2-0.9-0.5-1.1c-0.3-0.2-0.6-0.4-1-0.4c-0.5,0-1,0.2-1.4,0.7s-0.6,1.5-0.7,3
		c0.6-0.7,1.4-1.1,2.4-1.1c1.1,0,2,0.4,2.7,1.2s1.1,1.8,1.1,3.1c0,1.4-0.4,2.4-1.2,3.3s-1.8,1.2-3.1,1.2c-1.3,0-2.4-0.5-3.3-1.6
		c-0.9-1-1.3-2.7-1.3-5.1c0-2.4,0.4-4.2,1.3-5.2s2.1-1.6,3.5-1.6c1,0,1.8,0.3,2.5,0.8C15.1,15.9,15.5,16.7,15.7,17.7z M10,23.3
		c0,0.8,0.2,1.5,0.6,1.9c0.4,0.4,0.8,0.7,1.3,0.7c0.5,0,0.9-0.2,1.2-0.5c0.3-0.4,0.5-1,0.5-1.8c0-0.9-0.2-1.5-0.5-1.9
		c-0.3-0.4-0.8-0.6-1.3-0.6c-0.5,0-0.9,0.2-1.2,0.6C10.1,22,10,22.5,10,23.3z"/>
	<path fill="#FFFFFF" d="M21.7,14.4c1.3,0,2.3,0.5,3,1.4c0.9,1.1,1.3,2.9,1.3,5.4c0,2.5-0.4,4.3-1.3,5.4c-0.7,0.9-1.7,1.4-3,1.4
		c-1.3,0-2.3-0.5-3.1-1.5s-1.2-2.8-1.2-5.3c0-2.5,0.4-4.3,1.3-5.4C19.4,14.9,20.4,14.4,21.7,14.4z M21.7,16.6
		c-0.3,0-0.6,0.1-0.8,0.3c-0.2,0.2-0.4,0.5-0.6,1.1c-0.2,0.7-0.3,1.8-0.3,3.3s0.1,2.6,0.2,3.2c0.2,0.6,0.4,1,0.6,1.2
		s0.5,0.3,0.8,0.3c0.3,0,0.6-0.1,0.8-0.3c0.2-0.2,0.4-0.5,0.6-1c0.2-0.6,0.3-1.8,0.3-3.3s-0.1-2.6-0.2-3.2s-0.4-1-0.6-1.2
		C22.2,16.6,22,16.6,21.7,16.6z"/>
	<path fill="#FFFFFF" d="M33.3,18.1h2.4v1.4c0.3-0.5,0.7-0.9,1.2-1.2c0.5-0.3,1.1-0.5,1.7-0.5c1.1,0,2.1,0.4,2.8,1.3
		s1.2,2.1,1.2,3.6c0,1.6-0.4,2.8-1.2,3.7s-1.7,1.3-2.8,1.3c-0.5,0-1-0.1-1.4-0.3c-0.4-0.2-0.9-0.6-1.4-1.1v4.8h-2.5V18.1z
		 M35.8,22.8c0,1.1,0.2,1.9,0.6,2.4s0.9,0.8,1.6,0.8c0.6,0,1.1-0.2,1.5-0.7S40,24,40,22.9c0-1-0.2-1.7-0.6-2.2
		c-0.4-0.5-0.9-0.7-1.5-0.7c-0.6,0-1.1,0.2-1.5,0.7C36,21.1,35.8,21.8,35.8,22.8z"/>
	<path fill="#FFFFFF" d="M43.4,27.7l3.5-4.9l-3.3-4.6h3.1l1.7,2.6l1.8-2.6h3l-3.2,4.5l3.5,5h-3.1l-1.9-3l-2,3H43.4z"/>
</g>
</svg>
