<?xml version="1.0" encoding="utf-8"?>
<!-- Generator: Adobe Illustrator 23.0.2, SVG Export Plug-In . SVG Version: 6.00 Build 0)  -->
<svg version="1.1" id="Capa_1" xmlns="http://www.w3.org/2000/svg" xmlns:xlink="http://www.w3.org/1999/xlink" x="0px" y="0px"
	 viewBox="0 0 46 62" enable-background="new 0 0 46 62" xml:space="preserve">
	<style type="text/css">
			@import "../default/default/svg.css";
	</style>
	<script type="text/javascript">
		<![CDATA[
			 if(window.parent && window.parent.Wincor && window.parent.Wincor.UI && window.parent.Wincor.UI.Content) {
				 let styleRes = window.parent.Wincor.UI.Content.StyleResourceResolver;
				 if(styleRes) {
					let style = document.getElementsByTagName("style")[0];
					style.innerHTML = style.innerHTML.replace("default/svg.css", styleRes.type() + "svg.css");
					styleRes = null;
				 }
			 }
		]]>
	</script>
	<g class="shadowGroup1">
		<path stroke="#000000" d="M22,1.5c-10.9,0-19.7,9.9-19.7,22.2c0,4.7,1.3,9.1,3.7,12.9l0.5,0.8l14.1,22.5c0.3,0.5,0.8,0.7,1.3,0.7
			s1-0.3,1.3-0.7l14-22.2l0.7-1.1c2.4-3.8,3.7-8.3,3.7-12.9C41.7,11.4,32.8,1.5,22,1.5z M22,31.1c-3.6,0-6.6-3.3-6.6-7.4
			s2.9-7.4,6.6-7.4c3.6,0,6.6,3.3,6.6,7.4S25.6,31.1,22,31.1z"/>
	</g>
	<g class="shadowGroup2">
		<path stroke="#000000" d="M26.1,2.7c-10.8,0-19.7,9.9-19.7,22.2c0,4.7,1.3,9.1,3.7,12.9l0.5,0.8l14.1,22.5c0.3,0.5,0.8,0.7,1.3,0.7
			s1-0.3,1.3-0.7l14-22.2l0.7-1.1c2.4-3.8,3.7-8.3,3.7-12.9C45.8,12.6,37.1,2.7,26.1,2.7z M26.1,32.3c-3.6,0-6.6-3.3-6.6-7.4
			s2.9-7.4,6.6-7.4c3.6,0,6.6,3.3,6.6,7.4S29.8,32.3,26.1,32.3z"/>
	</g>
	<g class="shadowGroup3">
		<path stroke="#000000" d="M24.1,2.3c-10.8,0-19.7,9.9-19.7,22.2c0,4.7,1.3,9.1,3.7,12.9l0.5,0.8l14.1,22.5c0.3,0.5,0.8,0.7,1.3,0.7
			s1-0.3,1.3-0.7l14.1-22.2l0.7-1.1c2.4-3.8,3.7-8.3,3.7-12.9C43.8,12.2,34.9,2.3,24.1,2.3z M24.1,31.9c-3.6,0-6.6-3.3-6.6-7.4
			s2.9-7.4,6.6-7.4c3.6,0,6.6,3.3,6.6,7.4S27.6,31.9,24.1,31.9z"/>
	</g>
	<g>
		<path class="fillColor02" d="M19.9,0.3C9,0.3,0.1,10.3,0.1,22.5c0,4.7,1.3,9.1,3.7,12.9l0.5,0.8l14.1,22.5c0.3,0.5,0.8,0.7,1.3,0.7s1-0.3,1.3-0.7
			l14-22.2l0.7-1.1c2.4-3.8,3.7-8.3,3.7-12.9C39.6,10.2,30.8,0.3,19.9,0.3z M19.9,29.8c-3.6,0-6.6-3.3-6.6-7.4s2.9-7.4,6.6-7.4
			c3.6,0,6.6,3.3,6.6,7.4S23.5,29.8,19.9,29.8z"/>
	</g>
</svg>
