<?xml version="1.0" encoding="utf-8"?>
<!-- Generator: Adobe Illustrator 18.0.0, SVG Export Plug-In . SVG Version: 6.00 Build 0)  -->
<!DOCTYPE svg PUBLIC "-//W3C//DTD SVG 1.1//EN" "http://www.w3.org/Graphics/SVG/1.1/DTD/svg11.dtd">
<svg version="1.1" id="Layer_2" xmlns="http://www.w3.org/2000/svg" xmlns:xlink="http://www.w3.org/1999/xlink" x="0px" y="0px"
	 viewBox="0 0 45 45" enable-background="new 0 0 45 45" xml:space="preserve">
	<style type="text/css">
			@import "../default/default/svg.css";
	</style>
	 <script type="text/javascript">
         <![CDATA[
             if(window.parent && window.parent.Wincor && window.parent.Wincor.UI && window.parent.Wincor.UI.Content) {
                 let styleRes = window.parent.Wincor.UI.Content.StyleResourceResolver;
                 if(styleRes) {
                 	let style = document.getElementsByTagName("style")[0];
                   	style.innerHTML = style.innerHTML.replace("default/svg.css", styleRes.type() + "svg.css");
                    styleRes = null;
                 }
             }
         ]]>
    </script>
<g class="shadowGroup1">
	<rect x="26.6" y="15.5" fill="none" stroke="#000000" stroke-miterlimit="10" width="18" height="8"/>
	<rect x="26.6" y="26.5" fill="none" stroke="#000000" stroke-miterlimit="10" width="18" height="8"/>
	<path fill="none" stroke="#000000" stroke-miterlimit="10" d="M9.9,15.5c0,1.8-0.9,3.2-3.2,3.4v15.6h18v-19H9.9z"/>
	<line fill="none" stroke="#000000" stroke-miterlimit="10" x1="5.1" y1="15.7" x2="8.1" y2="15.7"/>
	<line fill="none" stroke="#000000" stroke-miterlimit="10" x1="6.6" y1="17.2" x2="6.6" y2="14.2"/>
	<circle fill="none" stroke="#000000" stroke-miterlimit="10" cx="6.7" cy="15.7" r="3.2"/>
</g>
<g class="shadowGroup2">
	<rect x="25.6" y="14.5" fill="none" stroke="#000000" stroke-miterlimit="10" width="18" height="8"/>
	<rect x="25.6" y="25.5" fill="none" stroke="#000000" stroke-miterlimit="10" width="18" height="8"/>
	<path fill="none" stroke="#000000" stroke-miterlimit="10" d="M8.9,14.5c0,1.8-0.9,3.2-3.2,3.4v15.6h18v-19H8.9z"/>
	<line fill="none" stroke="#000000" stroke-miterlimit="10" x1="4.1" y1="14.7" x2="7.1" y2="14.7"/>
	<line fill="none" stroke="#000000" stroke-miterlimit="10" x1="5.6" y1="16.2" x2="5.6" y2="13.2"/>
	<circle fill="none" stroke="#000000" stroke-miterlimit="10" cx="5.7" cy="14.7" r="3.2"/>
</g>
<g class="shadowGroup3">
	<rect x="25.1" y="13.5" fill="none" stroke="#000000" stroke-miterlimit="10" width="18" height="8"/>
	<rect x="25.1" y="24.5" fill="none" stroke="#000000" stroke-miterlimit="10" width="18" height="8"/>
	<path fill="none" stroke="#000000" stroke-miterlimit="10" d="M8.4,13.5c0,1.8-0.9,3.2-3.2,3.4v15.6h18v-19H8.4z"/>
	<line fill="none" stroke="#000000" stroke-miterlimit="10" x1="3.6" y1="13.7" x2="6.6" y2="13.7"/>
	<line fill="none" stroke="#000000" stroke-miterlimit="10" x1="5.1" y1="15.2" x2="5.1" y2="12.2"/>
	<circle fill="none" stroke="#000000" stroke-miterlimit="10" cx="5.2" cy="13.7" r="3.2"/>
</g>
<g>
	<rect x="24.1" y="12.5" class="strokeColor" stroke-miterlimit="10" width="18" height="8"/>
	<rect x="24.1" y="23.5" class="strokeColor" stroke-miterlimit="10" width="18" height="8"/>
	<path class="strokeColor" stroke-miterlimit="10" d="M7.4,12.5c0,1.8-0.9,3.2-3.2,3.4v15.6h18v-19H7.4z"/>
	<line class="strokeColor" stroke-miterlimit="10" x1="2.6" y1="12.7" x2="5.6" y2="12.7"/>
	<line class="strokeColor" stroke-miterlimit="10" x1="4.1" y1="14.2" x2="4.1" y2="11.2"/>
	<circle class="strokeColor" stroke-miterlimit="10" cx="4.2" cy="12.7" r="3.2"/>
</g>
</svg>
