<?xml version="1.0" encoding="utf-8"?>
<!-- Generator: Adobe Illustrator 23.0.2, SVG Export Plug-In . SVG Version: 6.00 Build 0)  -->
<svg version="1.1" id="Ebene_1" xmlns="http://www.w3.org/2000/svg" xmlns:xlink="http://www.w3.org/1999/xlink" x="0px" y="0px"
	 viewBox="0 0 46.7 62.4" enable-background="new 0 0 46.7 62.4" xml:space="preserve">
<g>
	<g opacity="0.77">
		<path stroke="#000000" stroke-miterlimit="10" d="M24.8,1.5c-12.7,0-23,10.4-23,23.1c0,4.9,1.5,9.5,4.3,13.4l0.6,0.8l16.4,23.4
			c0.3,0.5,0.9,0.7,1.5,0.7s1.2-0.3,1.5-0.7l16.3-23.1l0.8-1.1c2.8-4,4.3-8.6,4.3-13.4C47.7,11.8,37.5,1.5,24.8,1.5z M25,42.3
			c-10.4,0-19-8.2-19-18.5S14.3,5.3,25,5.3c10.4,0,19,8.2,19,18.5S35.3,42.3,25,42.3z"/>
	</g>
	<path fill="#E50A1A" stroke="#FFFFFF" stroke-miterlimit="10" d="M23.8,0.5c-12.7,0-23,10.4-23,23.1c0,4.9,1.5,9.5,4.3,13.4
		l0.6,0.8l16.4,23.4c0.3,0.5,0.9,0.7,1.5,0.7s1.2-0.3,1.5-0.7l16.3-23.1l0.8-1.1c2.8-4,4.3-8.6,4.3-13.4
		C46.7,10.8,36.5,0.5,23.8,0.5z M24,41.3c-10.4,0-19-8.2-19-18.5S13.3,4.3,24,4.3c10.4,0,19,8.2,19,18.5S34.3,41.3,24,41.3z"/>
</g>
<g>
	<g opacity="0.95">
		<rect x="13.3" y="9.9" fill="none" width="23.8" height="28.3"/>
		<text transform="matrix(1 0 0 1 13.325 35.5096)" font-size="36px">€</text>
		
			<text transform="matrix(1 0 0 1 13.325 35.5096)" fill="none" stroke="#000000" stroke-miterlimit="10" font-size="36px">€</text>
	</g>
	<rect x="12.3" y="8.9" fill="none" width="23.8" height="28.3"/>
	<text transform="matrix(1 0 0 1 12.325 34.5096)" fill="#E50A1A" font-size="36px">€</text>
	
		<text transform="matrix(1 0 0 1 12.325 34.5096)" fill="none" stroke="#E50A1A" stroke-miterlimit="10" font-size="36px">€</text>
</g>
</svg>
