<?xml version="1.0" encoding="utf-8"?>
<!-- Generator: Adobe Illustrator 23.0.6, SVG Export Plug-In . SVG Version: 6.00 Build 0)  -->
<svg version="1.1" id="Layer_1" xmlns="http://www.w3.org/2000/svg" xmlns:xlink="http://www.w3.org/1999/xlink" x="0px" y="0px"
	 viewBox="0 0 300 498" style="enable-background:new 0 0 300 498;" xml:space="preserve">
<style type="text/css">
	.st0{fill:#E0E0E0;stroke: var(--color01);stroke-width:2.0013;stroke-miterlimit:10;}
	.st1{fill:#909090;}
	.st2{fill:none;}
	.st3{fill:none;stroke:#000000;stroke-miterlimit:10;}
</style>
<path class="st0" d="M14.9,498C6.7,498,0,491.3,0,483.1V14.9C0,6.7,6.6,0,14.9,0h270.2c8.2,0,14.9,6.7,14.9,14.9v468.2
	c0,8.2-6.6,14.9-14.9,14.9L14.9,498L14.9,498z"/>
<rect x="26.5" y="65.3" class="st1" width="247" height="340.1"/>
<g>
	<path class="st1" d="M123,23.8c0-3.6,4.3-6.5,9.6-6.5h36.8c5.3,0,9.6,2.9,9.6,6.5s-4.3,6.5-9.6,6.5h-36.8
		C127.3,30.3,123,27.4,123,23.8z"/>
</g>
<path class="st2" d="M77,178.3c0,58,58.6,105,131,105"/>
<path class="st2" d="M113,246.6c0-17.4,14.6-31.6,32.7-31.6"/>
<path class="st2" d="M155,223.3c0-20.6-20.6-37.5-46-37.5"/>
<path class="st2" d="M67,223.3c0-44.2,29.7-80,66.5-80"/>
<path class="st2" d="M208,223.3c0-41.5-33.3-75-74.5-75"/>
<path class="st2" d="M67,237.2c0-35.4,4.5-64,10-64"/>
<line class="st3" x1="137.2" y1="266.7" x2="137.2" y2="266.7"/>
<path class="st2" d="M113.3,170.5c0,55.3,45,100,100.7,100"/>
<path class="st2" d="M265.7,266.7c0-44.7-41.7-80.9-93.3-80.9"/>
<g>
	<g>
		<path class="fillColor" d="M121.4,237.2c-0.9,0-1.9-0.5-2.3-0.9c-0.9-1.4-0.9-3.3,0.5-4.2c3.3-2.8,5.1-7,5.1-11.2s-1.9-8.4-5.1-11.2
			c-1.4-0.9-1.4-3.3-0.5-4.2c0.9-1.4,3.3-1.4,4.2-0.5c4.7,4.2,7.5,9.8,7.5,15.9c0,6.1-2.8,11.7-7.5,15.9
			C122.8,236.8,121.8,237.2,121.4,237.2z"/>
		<path class="fillColor" d="M134.5,244.2c-0.9,0-1.9-0.5-2.3-0.9c-0.9-1.4-0.9-3.3,0-4.2c4.2-4.2,7-10.8,7-17.8c0-6.6-2.3-13.6-6.6-17.3
			c-1.4-1.4-1.4-3.3,0-4.2c1.4-1.4,3.3-1.4,4.2,0c5.1,5.1,8.4,13.6,8.4,22c0,8.9-3.3,17.3-8.9,22.5
			C135.9,243.8,134.9,244.2,134.5,244.2z"/>
		<path class="fillColor" d="M148,250.8c-0.9,0-1.9-0.5-2.3-0.9c-0.9-1.4-0.9-3.3,0-4.2c5.1-5.1,8.4-14.5,8.4-24.8c0-9.8-2.8-18.7-7.5-23.9
			c-0.9-1.4-0.9-3.3,0-4.2c1.4-0.9,3.3-0.9,4.2,0c6.1,6.6,9.4,16.8,9.4,28.5c0,12.2-4.2,23.4-10.8,29.5
			C149.9,250.8,149,250.8,148,250.8z"/>
		<path class="fillColor" d="M162.1,258.3c-0.9,0-1.9-0.5-2.3-0.9c-0.9-1.4-0.9-3.3,0.5-4.2c6.1-5.1,10.3-17.8,10.3-31.8c0-12.6-3.3-24.3-8.9-30.4
			c-1.4-1.4-0.9-3.3,0-4.2c1.4-1.4,3.3-0.9,4.2,0c6.6,7,10.8,20.6,10.8,34.6c0,15.9-5.1,30.4-12.6,36.5
			C163.5,257.8,162.5,258.3,162.1,258.3z"/>
	</g>
</g>
<circle class="st1" cx="150" cy="466.5" r="21.8"/>
</svg>
