<?xml version="1.0" encoding="utf-8"?>
<!-- Generator: Adobe Illustrator 18.0.0, SVG Export Plug-In . SVG Version: 6.00 Build 0)  -->
<!DOCTYPE svg PUBLIC "-//W3C//DTD SVG 1.1//EN" "http://www.w3.org/Graphics/SVG/1.1/DTD/svg11.dtd">
<svg version="1.1" id="Layer_1" xmlns="http://www.w3.org/2000/svg" xmlns:xlink="http://www.w3.org/1999/xlink" x="0px" y="0px"
	 viewBox="0 0 45 45" enable-background="new 0 0 45 45" xml:space="preserve">
	<style type="text/css">
			@import "../default/default/svg.css";
	</style>
	 <script type="text/javascript">
         <![CDATA[
             if(window.parent && window.parent.Wincor && window.parent.Wincor.UI && window.parent.Wincor.UI.Content) {
                 let styleRes = window.parent.Wincor.UI.Content.StyleResourceResolver;
                 if(styleRes) {
                 	let style = document.getElementsByTagName("style")[0];
                   	style.innerHTML = style.innerHTML.replace("default/svg.css", styleRes.type() + "svg.css");
                    styleRes = null;
                 }
             }
         ]]>
    </script>
<g class="shadowGroup1">
	<path d="M43,16v13H15V16H43 M44,15H14v15h30V15L44,15z"/>
	<path d="M29.5,19.8c1.5,0,2.7,1.2,2.7,2.7s-1.2,2.7-2.7,2.7s-2.7-1.2-2.7-2.7S28,19.8,29.5,19.8 M29.5,19c-1.9,0-3.5,1.6-3.5,3.5
		s1.6,3.5,3.5,3.5s3.5-1.6,3.5-3.5S31.4,19,29.5,19L29.5,19z"/>
	<path d="M16,17v11h26V17H16z M40.2,24.4c-1,0-1.8,0.8-1.8,1.8c0,0.3,0.1,0.6,0.2,0.8H19.4c0.1-0.2,0.2-0.5,0.2-0.8
		c0-1-0.8-1.8-1.8-1.8c-0.3,0-0.6,0.1-0.8,0.2v-4.2c0.2,0.1,0.5,0.2,0.8,0.2c1,0,1.8-0.8,1.8-1.8c0-0.3-0.1-0.6-0.2-0.8h19.2
		c-0.1,0.2-0.2,0.5-0.2,0.8c0,1,0.8,1.8,1.8,1.8c0.3,0,0.6-0.1,0.8-0.2v4.2C40.8,24.5,40.5,24.4,40.2,24.4z"/>
	<g>
		<rect x="17" y="39" width="3" height="3"/>
		<polygon points="27,32 27,37 10,37 10,7 27,7 27,14 28,14 28,6 9,6 9,38 28,38 28,32 		"/>
		<polygon points="29,32 29,44 8,44 8,5 29,5 29,14 30,14 30,4 7,4 7,45 30,45 30,32 		"/>
	</g>
</g>
<g class="shadowGroup2">
	<path d="M42,15v13H14V15H42 M43,14H13v15h30V14L43,14z"/>
	<path d="M28.5,18.8c1.5,0,2.7,1.2,2.7,2.7s-1.2,2.7-2.7,2.7s-2.7-1.2-2.7-2.7S27,18.8,28.5,18.8 M28.5,18c-1.9,0-3.5,1.6-3.5,3.5
		s1.6,3.5,3.5,3.5s3.5-1.6,3.5-3.5S30.4,18,28.5,18L28.5,18z"/>
	<path d="M15,16v11h26V16H15z M39.2,23.4c-1,0-1.8,0.8-1.8,1.8c0,0.3,0.1,0.6,0.2,0.8H18.4c0.1-0.2,0.2-0.5,0.2-0.8
		c0-1-0.8-1.8-1.8-1.8c-0.3,0-0.6,0.1-0.8,0.2v-4.2c0.2,0.1,0.5,0.2,0.8,0.2c1,0,1.8-0.8,1.8-1.8c0-0.3-0.1-0.6-0.2-0.8h19.2
		c-0.1,0.2-0.2,0.5-0.2,0.8c0,1,0.8,1.8,1.8,1.8c0.3,0,0.6-0.1,0.8-0.2v4.2C39.8,23.5,39.5,23.4,39.2,23.4z"/>
	<g>
		<rect x="16" y="38" width="3" height="3"/>
		<polygon points="26,31 26,36 9,36 9,6 26,6 26,13 27,13 27,5 8,5 8,37 27,37 27,31 		"/>
		<polygon points="28,31 28,43 7,43 7,4 28,4 28,13 29,13 29,3 6,3 6,44 29,44 29,31 		"/>
	</g>
</g>
<g class="shadowGroup3">
	<path d="M41,14v13H13V14H41 M42,13H12v15h30V13L42,13z"/>
	<path d="M27.5,17.8c1.5,0,2.7,1.2,2.7,2.7s-1.2,2.7-2.7,2.7s-2.7-1.2-2.7-2.7S26,17.8,27.5,17.8 M27.5,17c-1.9,0-3.5,1.6-3.5,3.5
		s1.6,3.5,3.5,3.5s3.5-1.6,3.5-3.5S29.4,17,27.5,17L27.5,17z"/>
	<path d="M14,15v11h26V15H14z M38.2,22.4c-1,0-1.8,0.8-1.8,1.8c0,0.3,0.1,0.6,0.2,0.8H17.4c0.1-0.2,0.2-0.5,0.2-0.8
		c0-1-0.8-1.8-1.8-1.8c-0.3,0-0.6,0.1-0.8,0.2v-4.2c0.2,0.1,0.5,0.2,0.8,0.2c1,0,1.8-0.8,1.8-1.8c0-0.3-0.1-0.6-0.2-0.8h19.2
		c-0.1,0.2-0.2,0.5-0.2,0.8c0,1,0.8,1.8,1.8,1.8c0.3,0,0.6-0.1,0.8-0.2v4.2C38.8,22.5,38.5,22.4,38.2,22.4z"/>
	<g>
		<rect x="15" y="37" width="3" height="3"/>
		<polygon points="25,30 25,35 8,35 8,5 25,5 25,12 26,12 26,4 7,4 7,36 26,36 26,30 		"/>
		<polygon points="27,30 27,42 6,42 6,3 27,3 27,12 28,12 28,2 5,2 5,43 28,43 28,30 		"/>
	</g>
</g>
<g>
	<path class="fillColor" d="M40,13v13H12V13H40 M41,12H11v15h30V12L41,12z"/>
	<path class="fillColor" d="M26.5,16.8c1.5,0,2.7,1.2,2.7,2.7s-1.2,2.7-2.7,2.7s-2.7-1.2-2.7-2.7S25,16.8,26.5,16.8 M26.5,16
		c-1.9,0-3.5,1.6-3.5,3.5s1.6,3.5,3.5,3.5s3.5-1.6,3.5-3.5S28.4,16,26.5,16L26.5,16z"/>
	<path class="fillColor" d="M13,14v11h26V14H13z M37.2,21.4c-1,0-1.8,0.8-1.8,1.8c0,0.3,0.1,0.6,0.2,0.8H16.4c0.1-0.2,0.2-0.5,0.2-0.8
		c0-1-0.8-1.8-1.8-1.8c-0.3,0-0.6,0.1-0.8,0.2v-4.2c0.2,0.1,0.5,0.2,0.8,0.2c1,0,1.8-0.8,1.8-1.8c0-0.3-0.1-0.6-0.2-0.8h19.2
		c-0.1,0.2-0.2,0.5-0.2,0.8c0,1,0.8,1.8,1.8,1.8c0.3,0,0.6-0.1,0.8-0.2v4.2C37.8,21.5,37.5,21.4,37.2,21.4z"/>
	<g>
		<rect x="14" y="36" class="fillColor" width="3" height="3"/>
		<polygon class="fillColor" points="24,29 24,34 7,34 7,4 24,4 24,11 25,11 25,3 6,3 6,35 25,35 25,29 		"/>
		<polygon class="fillColor" points="26,29 26,41 5,41 5,2 26,2 26,11 27,11 27,1 4,1 4,42 27,42 27,29 		"/>
	</g>
</g>
</svg>
