<?xml version="1.0" encoding="utf-8"?>
<!-- Generator: Adobe Illustrator 21.1.0, SVG Export Plug-In . SVG Version: 6.00 Build 0)  -->
<svg version="1.1" id="monitor-swap" xmlns="http://www.w3.org/2000/svg" xmlns:xlink="http://www.w3.org/1999/xlink" x="0px" y="0px"
	 viewBox="0 0 45 45" style="enable-background:new 0 0 45 45;" xml:space="preserve">
<style type="text/css">
    @import "../default/default/svg.css";
</style>
<script  type="text/javascript">
	<![CDATA[
             if(window.parent && window.parent.Wincor && window.parent.Wincor.UI && window.parent.Wincor.UI.Content) {
                 let styleRes = window.parent.Wincor.UI.Content.StyleResourceResolver;
                 if(styleRes) {
                 	let style = document.getElementsByTagName("style")[0];
                   	style.innerHTML = style.innerHTML.replace("default/svg.css", styleRes.type() + "svg.css");
                    styleRes = null;
                 }
             }
         
		
		]]>
</script>
<g class="shadowGroup1">
	<line style="fill:none;stroke:#000000;stroke-miterlimit:10;" x1="15" y1="19.5" x2="15" y2="22.7"/>
	<line class="strokeColor" x1="11.8" y1="22.7" x2="18.3" y2="22.7"/>
	<path style="fill:none;stroke:#000000;stroke-miterlimit:10;" d="M23.2,27.2v11.2c0,0.8,0.6,1.4,1.5,1.4h16.4c0.9,0,1.5-0.7,1.5-1.4V27.2c0-0.8-0.6-1.4-1.5-1.4H24.7
		C23.9,25.7,23.2,26.3,23.2,27.2z"/>
	<line style="fill:none;stroke:#000000;stroke-miterlimit:10;" x1="33.4" y1="39.8" x2="33.4" y2="42.6"/>
	<line style="fill:none;stroke:#000000;stroke-miterlimit:10;" x1="30.1" y1="42.6" x2="36.6" y2="42.6"/>
	<path style="fill:none;stroke:#000000;stroke-miterlimit:10;" d="M5.3,6.8v11.3c0,0.8,0.6,1.4,1.5,1.4h16.4c0.9,0,1.5-0.7,1.5-1.4V6.8c0-0.8-0.6-1.4-1.5-1.4H6.9
		C6,5.4,5.3,5.9,5.3,6.8z"/>
	<line style="fill:none;stroke:#000000;stroke-miterlimit:10;" x1="8.1" y1="25.5" x2="8.1" y2="32.9"/>
	<line style="fill:none;stroke:#000000;stroke-miterlimit:10;" x1="7.6" y1="32.9" x2="15.7" y2="32.9"/>
	<rect x="6.9" y="23.1" style="fill:none;stroke:#000000;stroke-miterlimit:10;" width="2.3" height="2.3"/>
	<polygon style="fill:none;stroke:#000000;stroke-miterlimit:10;" points="21.5,32.9 18.6,34.5 15.7,36.2 15.7,32.9 15.7,29.5 18.6,31.2 	"/>
	<line style="fill:none;stroke:#000000;stroke-miterlimit:10;" x1="40.1" y1="11.9" x2="40.1" y2="20.1"/>
	<line style="fill:none;stroke:#000000;stroke-miterlimit:10;" x1="32.1" y1="11.9" x2="40.6" y2="11.9"/>
	<rect x="38.9" y="20.1" style="fill:none;stroke:#000000;stroke-miterlimit:10;" width="2.3" height="2.3"/>
	<polygon style="fill:none;stroke:#000000;stroke-miterlimit:10;" points="26.7,11.9 29.6,10.2 32.5,8.5 32.5,11.9 32.5,15.2 29.6,13.5 	"/>
</g>
<g class="shadowGroup2">
	<line style="fill:none;stroke:#000000;stroke-miterlimit:10;" x1="14" y1="18.5" x2="14" y2="21.7"/>
	<line style="fill:none;stroke:#000000;stroke-miterlimit:10;" x1="10.8" y1="21.7" x2="17.3" y2="21.7"/>
	<path style="fill:none;stroke:#000000;stroke-miterlimit:10;" d="M22.2,26.2v11.2c0,0.8,0.6,1.4,1.5,1.4h16.4c0.9,0,1.5-0.7,1.5-1.4V26.2c0-0.8-0.6-1.4-1.5-1.4H23.7
		C22.9,24.7,22.2,25.3,22.2,26.2z"/>
	<line style="fill:none;stroke:#000000;stroke-miterlimit:10;" x1="32.4" y1="38.8" x2="32.4" y2="41.6"/>
	<line style="fill:none;stroke:#000000;stroke-miterlimit:10;" x1="29.1" y1="41.6" x2="35.6" y2="41.6"/>
	<path style="fill:none;stroke:#000000;stroke-miterlimit:10;" d="M4.3,5.8v11.3c0,0.8,0.6,1.4,1.5,1.4h16.4c0.9,0,1.5-0.7,1.5-1.4V5.8c0-0.8-0.6-1.4-1.5-1.4H5.9
		C5,4.4,4.3,4.9,4.3,5.8z"/>
	<line style="fill:none;stroke:#000000;stroke-miterlimit:10;" x1="7.1" y1="24.5" x2="7.1" y2="31.9"/>
	<line style="fill:none;stroke:#000000;stroke-miterlimit:10;" x1="6.6" y1="31.9" x2="14.7" y2="31.9"/>
	<rect x="5.9" y="22.1" style="fill:none;stroke:#000000;stroke-miterlimit:10;" width="2.3" height="2.3"/>
	<polygon style="fill:none;stroke:#000000;stroke-miterlimit:10;" points="20.5,31.9 17.6,33.5 14.7,35.2 14.7,31.9 14.7,28.5 17.6,30.2 	"/>
	<line style="fill:none;stroke:#000000;stroke-miterlimit:10;" x1="39.1" y1="10.9" x2="39.1" y2="19.1"/>
	<line style="fill:none;stroke:#000000;stroke-miterlimit:10;" x1="31.1" y1="10.9" x2="39.6" y2="10.9"/>
	<rect x="37.9" y="19.1" style="fill:none;stroke:#000000;stroke-miterlimit:10;" width="2.3" height="2.3"/>
	<polygon style="fill:none;stroke:#000000;stroke-miterlimit:10;" points="25.7,10.9 28.6,9.2 31.5,7.5 31.5,10.9 31.5,14.2 28.6,12.5 	"/>
</g>
<g class="shadowGroup3">
	<line style="fill:none;stroke:#000000;stroke-miterlimit:10;" x1="13" y1="17.5" x2="13" y2="20.7"/>
	<line style="fill:none;stroke:#000000;stroke-miterlimit:10;" x1="9.8" y1="20.7" x2="16.3" y2="20.7"/>
	<path style="fill:none;stroke:#000000;stroke-miterlimit:10;" d="M21.2,25.2v11.2c0,0.8,0.6,1.4,1.5,1.4h16.4c0.9,0,1.5-0.7,1.5-1.4V25.2c0-0.8-0.6-1.4-1.5-1.4H22.7
		C21.9,23.7,21.2,24.3,21.2,25.2z"/>
	<line style="fill:none;stroke:#000000;stroke-miterlimit:10;" x1="31.4" y1="37.8" x2="31.4" y2="40.6"/>
	<line style="fill:none;stroke:#000000;stroke-miterlimit:10;" x1="28.1" y1="40.6" x2="34.6" y2="40.6"/>
	<path style="fill:none;stroke:#000000;stroke-miterlimit:10;" d="M3.3,4.8v11.3c0,0.8,0.6,1.4,1.5,1.4h16.4c0.9,0,1.5-0.7,1.5-1.4V4.8c0-0.8-0.6-1.4-1.5-1.4H4.9
		C4,3.4,3.3,3.9,3.3,4.8z"/>
	<line style="fill:none;stroke:#000000;stroke-miterlimit:10;" x1="6.1" y1="23.5" x2="6.1" y2="30.9"/>
	<line style="fill:none;stroke:#000000;stroke-miterlimit:10;" x1="5.6" y1="30.9" x2="13.7" y2="30.9"/>
	<rect x="4.9" y="21.1" style="fill:none;stroke:#000000;stroke-miterlimit:10;" width="2.3" height="2.3"/>
	<polygon style="fill:none;stroke:#000000;stroke-miterlimit:10;" points="19.5,30.9 16.6,32.5 13.7,34.2 13.7,30.9 13.7,27.5 16.6,29.2 	"/>
	<line style="fill:none;stroke:#000000;stroke-miterlimit:10;" x1="38.1" y1="9.9" x2="38.1" y2="18.1"/>
	<line style="fill:none;stroke:#000000;stroke-miterlimit:10;" x1="30.1" y1="9.9" x2="38.6" y2="9.9"/>
	<rect x="36.9" y="18.1" style="fill:none;stroke:#000000;stroke-miterlimit:10;" width="2.3" height="2.3"/>
	<polygon style="fill:none;stroke:#000000;stroke-miterlimit:10;" points="24.7,9.9 27.6,8.2 30.5,6.5 30.5,9.9 30.5,13.2 27.6,11.5 	"/>
</g>
<g>
	<line class="strokeColor" x1="11.9" y1="16.7" x2="11.9" y2="19.9"/>
	<line class="strokeColor" x1="8.8" y1="19.9" x2="15.2" y2="19.9"/>
	<path class="strokeColor" d="M20.2,24.4v11.2c0,0.8,0.6,1.4,1.5,1.4h16.4c0.9,0,1.5-0.7,1.5-1.4V24.4c0-0.8-0.6-1.4-1.5-1.4H21.7
		C20.8,22.9,20.2,23.5,20.2,24.4z"/>
	<line class="strokeColor" x1="30.3" y1="37" x2="30.3" y2="39.8"/>
	<line class="strokeColor" x1="27.1" y1="39.8" x2="33.6" y2="39.8"/>
	<path class="strokeColor" d="M2.3,4v11.3c0,0.8,0.6,1.4,1.5,1.4h16.4c0.9,0,1.5-0.7,1.5-1.4V4c0-0.8-0.6-1.4-1.5-1.4H3.8
		C2.9,2.6,2.3,3.1,2.3,4z"/>
	<line class="strokeColor" x1="5.1" y1="22.7" x2="5.1" y2="30.1"/>
	<line class="strokeColor" x1="4.6" y1="30.1" x2="12.6" y2="30.1"/>
	<rect x="3.8" y="20.3" class="strokeColor" width="2.3" height="2.3"/>
	<polygon class="strokeColor" points="18.4,30.1 15.5,31.8 12.6,33.4 12.6,30.1 12.6,26.7 15.5,28.4 	"/>
	<line class="strokeColor" x1="37.1" y1="9.1" x2="37.1" y2="17.3"/>
	<line class="strokeColor" x1="29.1" y1="9.1" x2="37.6" y2="9.1"/>
	<rect x="35.8" y="17.3" class="strokeColor" width="2.3" height="2.3"/>
	<polygon class="strokeColor" points="23.6,9.1 26.5,7.4 29.4,5.7 29.4,9.1 29.4,12.4 26.5,10.8 	"/>
</g>
</svg>
