<?xml version="1.0" encoding="utf-8"?>
<!-- Generator: Adobe Illustrator 18.0.0, SVG Export Plug-In . SVG Version: 6.00 Build 0)  -->
<!DOCTYPE svg PUBLIC "-//W3C//DTD SVG 1.1//EN" "http://www.w3.org/Graphics/SVG/1.1/DTD/svg11.dtd">
<svg version="1.1" id="Layer_1" xmlns="http://www.w3.org/2000/svg" xmlns:xlink="http://www.w3.org/1999/xlink" x="0px" y="0px"
	 viewBox="0 0 45 45" enable-background="new 0 0 45 45" xml:space="preserve">
	<style type="text/css">
			@import "../default/default/svg.css";
	</style>
	 <script type="text/javascript">
         <![CDATA[
             if(window.parent && window.parent.Wincor && window.parent.Wincor.UI && window.parent.Wincor.UI.Content) {
                 let styleRes = window.parent.Wincor.UI.Content.StyleResourceResolver;
                 if(styleRes) {
                 	let style = document.getElementsByTagName("style")[0];
                   	style.innerHTML = style.innerHTML.replace("default/svg.css", styleRes.type() + "svg.css");
                    styleRes = null;
                 }
             }
         ]]>
    </script>
<g class="shadowGroup1">
	<path  d="M16.4,27.6c-0.2,0-0.4-0.1-0.5-0.2c-0.2-0.3-0.2-0.7,0.1-0.9c0.7-0.6,1.1-1.5,1.1-2.4
		c0-0.9-0.4-1.8-1.1-2.4c-0.3-0.2-0.3-0.7-0.1-0.9c0.2-0.3,0.7-0.3,0.9-0.1c1,0.9,1.6,2.1,1.6,3.4c0,1.3-0.6,2.5-1.6,3.4
		C16.7,27.5,16.5,27.6,16.4,27.6z"/>
	<path  d="M19.2,29.1c-0.2,0-0.4-0.1-0.5-0.2c-0.2-0.3-0.2-0.7,0-0.9c0.9-0.9,1.5-2.3,1.5-3.8
		c0-1.4-0.5-2.9-1.4-3.7c-0.3-0.3-0.3-0.7,0-0.9c0.3-0.3,0.7-0.3,0.9,0c1.1,1.1,1.8,2.9,1.8,4.7c0,1.9-0.7,3.7-1.9,4.8
		C19.5,29,19.3,29.1,19.2,29.1z"/>
	<path  d="M22.1,30.5c-0.2,0-0.4-0.1-0.5-0.2c-0.2-0.3-0.2-0.7,0-0.9c1.1-1.1,1.8-3.1,1.8-5.3
		c0-2.1-0.6-4-1.6-5.1c-0.2-0.3-0.2-0.7,0-0.9c0.3-0.2,0.7-0.2,0.9,0c1.3,1.4,2,3.6,2,6.1c0,2.6-0.9,5-2.3,6.3
		C22.5,30.5,22.3,30.5,22.1,30.5z"/>
	<path  d="M25.1,32.1c-0.2,0-0.4-0.1-0.5-0.2c-0.2-0.3-0.2-0.7,0.1-0.9c1.3-1.1,2.2-3.8,2.2-6.8
		c0-2.7-0.7-5.2-1.9-6.5c-0.3-0.3-0.2-0.7,0-0.9c0.3-0.3,0.7-0.2,0.9,0c1.4,1.5,2.3,4.4,2.3,7.4c0,3.4-1.1,6.5-2.7,7.8
		C25.4,32,25.2,32.1,25.1,32.1z"/>
	<path  d="M41.2,26.4c0,0-2-2.9-2.5-3.8c-0.6-1-1.1-1.6-2.3-1.7c-0.2,0-0.3,0-0.5,0
		c-0.9-2.4-3-4.5-5.7-6.1c-2.9-1.6-6.4-2.5-10.1-2.5c-9,0-16.4,5.2-16.4,11.7c0,6.5,7.3,11.7,16.4,11.7c5.7,0,10.8-2,13.9-5.5
		c0.3,0,0.7,0,1,0c0.2,0,0.4,0,0.7,0c0.4,0.8,1.3,1.7,3.4,2c0,0,0,0,0,0c0.2,0,0.3-0.1,0.3-0.3c0-0.2-0.1-0.3-0.3-0.3
		c-2.5-0.4-3-1.8-3.2-2.5c0,0,0-0.1,0-0.2c-0.1-0.3-0.3-0.7-0.5-1l0,0c-0.2-0.3-0.4-0.5-0.6-0.7c-0.2-0.2-1.6-1.4-3.5-3
		c-0.8-0.7-1.6-1.3-1.7-1.4c-0.1-0.1-0.4-0.3,0-1c0.3-0.5,0.9-0.5,1.2-0.3c0.5,0.3,5.6,3.2,5.7,3.2c0.2,0.1,0.3,0,0.4-0.1
		c0.1-0.2,0-0.3-0.1-0.4c0,0-2-1.1-3.6-2.1l0.2-0.9c0.2,0,2,0.1,3,0.1c0.9,0,1.2,0.4,1.8,1.4c0.6,1,2.5,3.7,2.5,3.8
		c0,0.1,0.2,0.1,0.2,0.1c0,0,0.1,0,0.2,0C41.2,26.8,41.3,26.6,41.2,26.4z M20.1,35.1c-8.7,0-15.8-5-15.8-11.1c0-6.1,7.1-11,15.8-11
		c3.6,0,7,0.8,9.7,2.4c2.5,1.4,4.4,3.4,5.4,5.5c-0.8,0-1.6,0-1.8-0.1c0-0.8-0.6-1.6-1.4-1.7l-2.7-0.5c-0.5-0.1-0.9,0-1.3,0.3
		c-0.4,0.2-0.6,0.7-0.7,1.1l-0.5,2.7c-0.1,0.5,0,0.9,0.3,1.3c0.2,0.4,0.7,0.6,1.1,0.7l2.3,0.4c-0.3,0.3-0.4,0.6-0.4,0.9
		c0,0.2,0.1,0.5,0.2,0.6c0.1,0.1,0.5,0.4,1,0.8c-0.3,0.2-0.5,0.4-0.5,0.7c-0.1,0.4,0,0.9,0.2,1.1l0,0c0.2,0.2,0.6,0.4,1.3,0.8
		c0.2,0.1,0.5,0.2,0.8,0.3C30.3,33.2,25.5,35.1,20.1,35.1z M32.7,29.3c-0.7-0.3-1-0.6-1.2-0.7v0c0-0.1-0.1-0.3,0-0.5
		c0.1-0.2,0.2-0.2,0.5-0.3c0.5,0.4,1.1,0.8,1.2,0.9c0.1,0.1,0.3,0.1,0.5,0.1c0.3,0,0.7-0.1,1-0.2c0.1,0,0.2,0,0.2,0
		c0.2,0.2,0.3,0.5,0.3,0.7c0,0,0,0.1,0,0.1c0,0.1,0,0.2,0.1,0.3C34.3,29.7,33.3,29.6,32.7,29.3z M34.5,28c-0.3,0.1-0.9,0.2-1,0.1
		c-0.3-0.2-2.4-1.8-2.7-2C30.7,26,30.7,26,30.7,26c0-0.1,0.1-0.3,0.5-0.7c1.3,1.1,2.9,2.4,3,2.5C34.4,27.8,34.4,27.9,34.5,28z
		 M31.1,21.1c-0.6-0.3-1.5-0.3-2,0.5c-0.6,0.9-0.3,1.5,0,1.8c0.1,0.1,0.5,0.5,1.1,0.9L28.4,24c-0.3,0-0.5-0.2-0.7-0.4
		c-0.2-0.2-0.2-0.5-0.2-0.8l0.4-2.7c0-0.3,0.2-0.5,0.4-0.7c0.2-0.2,0.5-0.2,0.8-0.2l2.7,0.5c0.6,0.1,0.9,0.7,0.9,1.2l-0.2,1.1
		C31.9,21.6,31.3,21.3,31.1,21.1z"/>
</g>
<g class="shadowGroup2">
	<path  d="M15.4,26.6c-0.2,0-0.4-0.1-0.5-0.2c-0.2-0.3-0.2-0.7,0.1-0.9c0.7-0.6,1.1-1.5,1.1-2.4
		c0-0.9-0.4-1.8-1.1-2.4c-0.3-0.2-0.3-0.7-0.1-0.9c0.2-0.3,0.7-0.3,0.9-0.1c1,0.9,1.6,2.1,1.6,3.4c0,1.3-0.6,2.5-1.6,3.4
		C15.7,26.5,15.5,26.6,15.4,26.6z"/>
	<path  d="M18.2,28.1c-0.2,0-0.4-0.1-0.5-0.2c-0.2-0.3-0.2-0.7,0-0.9c0.9-0.9,1.5-2.3,1.5-3.8
		c0-1.4-0.5-2.9-1.4-3.7c-0.3-0.3-0.3-0.7,0-0.9c0.3-0.3,0.7-0.3,0.9,0c1.1,1.1,1.8,2.9,1.8,4.7c0,1.9-0.7,3.7-1.9,4.8
		C18.5,28,18.3,28.1,18.2,28.1z"/>
	<path  d="M21.1,29.5c-0.2,0-0.4-0.1-0.5-0.2c-0.2-0.3-0.2-0.7,0-0.9c1.1-1.1,1.8-3.1,1.8-5.3
		c0-2.1-0.6-4-1.6-5.1c-0.2-0.3-0.2-0.7,0-0.9c0.3-0.2,0.7-0.2,0.9,0c1.3,1.4,2,3.6,2,6.1c0,2.6-0.9,5-2.3,6.3
		C21.5,29.5,21.3,29.5,21.1,29.5z"/>
	<path  d="M24.1,31.1c-0.2,0-0.4-0.1-0.5-0.2c-0.2-0.3-0.2-0.7,0.1-0.9c1.3-1.1,2.2-3.8,2.2-6.8
		c0-2.7-0.7-5.2-1.9-6.5c-0.3-0.3-0.2-0.7,0-0.9c0.3-0.3,0.7-0.2,0.9,0c1.4,1.5,2.3,4.4,2.3,7.4c0,3.4-1.1,6.5-2.7,7.8
		C24.4,31,24.2,31.1,24.1,31.1z"/>
	<path  d="M41.2,25.4c0,0-2-2.9-2.5-3.8c-0.6-1-1.1-1.6-2.3-1.7c-0.2,0-0.3,0-0.5,0
		c-0.9-2.4-3-4.5-5.7-6.1c-2.9-1.6-6.4-2.5-10.1-2.5c-9,0-16.4,5.2-16.4,11.7c0,6.5,7.3,11.7,16.4,11.7c5.7,0,10.8-2,13.9-5.5
		c0.3,0,0.7,0,1,0c0.2,0,0.4,0,0.7,0c0.4,0.8,1.3,1.7,3.4,2c0,0,0,0,0,0c0.2,0,0.3-0.1,0.3-0.3c0-0.2-0.1-0.3-0.3-0.3
		c-2.5-0.4-3-1.8-3.2-2.5c0,0,0-0.1,0-0.2c-0.1-0.3-0.3-0.7-0.5-1l0,0c-0.2-0.3-0.4-0.5-0.6-0.7c-0.2-0.2-1.6-1.4-3.5-3
		c-0.8-0.7-1.6-1.3-1.7-1.4c-0.1-0.1-0.4-0.3,0-1c0.3-0.5,0.9-0.5,1.2-0.3c0.5,0.3,5.6,3.2,5.7,3.2c0.2,0.1,0.3,0,0.4-0.1
		c0.1-0.2,0-0.3-0.1-0.4c0,0-2-1.1-3.6-2.1l0.2-0.9c0.2,0,2,0.1,3,0.1c0.9,0,1.2,0.4,1.8,1.4c0.6,1,2.5,3.7,2.5,3.8
		c0,0.1,0.2,0.1,0.2,0.1c0,0,0.1,0,0.2,0C41.2,25.8,41.3,25.6,41.2,25.4z M20.1,34.1c-8.7,0-15.8-5-15.8-11.1c0-6.1,7.1-11,15.8-11
		c3.6,0,7,0.8,9.7,2.4c2.5,1.4,4.4,3.4,5.4,5.5c-0.8,0-1.6,0-1.8-0.1c0-0.8-0.6-1.6-1.4-1.7l-2.7-0.5c-0.5-0.1-0.9,0-1.3,0.3
		c-0.4,0.2-0.6,0.7-0.7,1.1l-0.5,2.7c-0.1,0.5,0,0.9,0.3,1.3c0.2,0.4,0.7,0.6,1.1,0.7l2.3,0.4c-0.3,0.3-0.4,0.6-0.4,0.9
		c0,0.2,0.1,0.5,0.2,0.6c0.1,0.1,0.5,0.4,1,0.8c-0.3,0.2-0.5,0.4-0.5,0.7c-0.1,0.4,0,0.9,0.2,1.1l0,0c0.2,0.2,0.6,0.4,1.3,0.8
		c0.2,0.1,0.5,0.2,0.8,0.3C30.3,32.2,25.5,34.1,20.1,34.1z M32.7,28.3c-0.7-0.3-1-0.6-1.2-0.7v0c0-0.1-0.1-0.3,0-0.5
		c0.1-0.2,0.2-0.2,0.5-0.3c0.5,0.4,1.1,0.8,1.2,0.9c0.1,0.1,0.3,0.1,0.5,0.1c0.3,0,0.7-0.1,1-0.2c0.1,0,0.2,0,0.2,0
		c0.2,0.2,0.3,0.5,0.3,0.7c0,0,0,0.1,0,0.1c0,0.1,0,0.2,0.1,0.3C34.3,28.7,33.3,28.6,32.7,28.3z M34.5,27c-0.3,0.1-0.9,0.2-1,0.1
		c-0.3-0.2-2.4-1.8-2.7-2C30.7,25,30.7,25,30.7,25c0-0.1,0.1-0.3,0.5-0.7c1.3,1.1,2.9,2.4,3,2.5C34.4,26.8,34.4,26.9,34.5,27z
		 M31.1,20.1c-0.6-0.3-1.5-0.3-2,0.5c-0.6,0.9-0.3,1.5,0,1.8c0.1,0.1,0.5,0.5,1.1,0.9L28.4,23c-0.3,0-0.5-0.2-0.7-0.4
		c-0.2-0.2-0.2-0.5-0.2-0.8l0.4-2.7c0-0.3,0.2-0.5,0.4-0.7c0.2-0.2,0.5-0.2,0.8-0.2l2.7,0.5c0.6,0.1,0.9,0.7,0.9,1.2l-0.2,1.1
		C31.9,20.6,31.3,20.3,31.1,20.1z"/>
</g>
<g class="shadowGroup3">
	<path  d="M14.4,25.6c-0.2,0-0.4-0.1-0.5-0.2c-0.2-0.3-0.2-0.7,0.1-0.9c0.7-0.6,1.1-1.5,1.1-2.4
		s-0.4-1.8-1.1-2.4c-0.3-0.2-0.3-0.7-0.1-0.9c0.2-0.3,0.7-0.3,0.9-0.1c1,0.9,1.6,2.1,1.6,3.4s-0.6,2.5-1.6,3.4
		C14.7,25.5,14.5,25.6,14.4,25.6z"/>
	<path  d="M17.2,27.1c-0.2,0-0.4-0.1-0.5-0.2c-0.2-0.3-0.2-0.7,0-0.9c0.9-0.9,1.5-2.3,1.5-3.8
		c0-1.4-0.5-2.9-1.4-3.7c-0.3-0.3-0.3-0.7,0-0.9c0.3-0.3,0.7-0.3,0.9,0c1.1,1.1,1.8,2.9,1.8,4.7c0,1.9-0.7,3.7-1.9,4.8
		C17.5,27,17.3,27.1,17.2,27.1z"/>
	<path  d="M20.1,28.5c-0.2,0-0.4-0.1-0.5-0.2c-0.2-0.3-0.2-0.7,0-0.9c1.1-1.1,1.8-3.1,1.8-5.3
		c0-2.1-0.6-4-1.6-5.1c-0.2-0.3-0.2-0.7,0-0.9c0.3-0.2,0.7-0.2,0.9,0c1.3,1.4,2,3.6,2,6.1c0,2.6-0.9,5-2.3,6.3
		C20.5,28.5,20.3,28.5,20.1,28.5z"/>
	<path  d="M23.1,30.1c-0.2,0-0.4-0.1-0.5-0.2c-0.2-0.3-0.2-0.7,0.1-0.9c1.3-1.1,2.2-3.8,2.2-6.8
		c0-2.7-0.7-5.2-1.9-6.5c-0.3-0.3-0.2-0.7,0-0.9c0.3-0.3,0.7-0.2,0.9,0c1.4,1.5,2.3,4.4,2.3,7.4c0,3.4-1.1,6.5-2.7,7.8
		C23.4,30,23.2,30.1,23.1,30.1z"/>
	<path  d="M41.2,24.4c0,0-2-2.9-2.5-3.8c-0.6-1-1.1-1.6-2.3-1.7c-0.2,0-0.3,0-0.5,0
		c-0.9-2.4-3-4.5-5.7-6.1c-2.9-1.6-6.4-2.5-10.1-2.5c-9,0-16.4,5.2-16.4,11.7c0,6.5,7.3,11.7,16.4,11.7c5.7,0,10.8-2,13.9-5.5
		c0.3,0,0.7,0,1,0c0.2,0,0.4,0,0.7,0c0.4,0.8,1.3,1.7,3.4,2c0,0,0,0,0,0c0.2,0,0.3-0.1,0.3-0.3c0-0.2-0.1-0.3-0.3-0.3
		c-2.5-0.4-3-1.8-3.2-2.5c0,0,0-0.1,0-0.2c-0.1-0.3-0.3-0.7-0.5-1l0,0c-0.2-0.3-0.4-0.5-0.6-0.7c-0.2-0.2-1.6-1.4-3.5-3
		c-0.8-0.7-1.6-1.3-1.7-1.4s-0.4-0.3,0-1c0.3-0.5,0.9-0.5,1.2-0.3c0.5,0.3,5.6,3.2,5.7,3.2c0.2,0.1,0.3,0,0.4-0.1
		c0.1-0.2,0-0.3-0.1-0.4c0,0-2-1.1-3.6-2.1l0.2-0.9c0.2,0,2,0.1,3,0.1c0.9,0,1.2,0.4,1.8,1.4c0.6,1,2.5,3.7,2.5,3.8
		c0,0.1,0.2,0.1,0.2,0.1c0,0,0.1,0,0.2,0C41.2,24.8,41.3,24.6,41.2,24.4z M20.1,33.1c-8.7,0-15.8-5-15.8-11.1c0-6.1,7.1-11,15.8-11
		c3.6,0,7,0.8,9.7,2.4c2.5,1.4,4.4,3.4,5.4,5.5c-0.8,0-1.6,0-1.8-0.1c0-0.8-0.6-1.6-1.4-1.7l-2.7-0.5c-0.5-0.1-0.9,0-1.3,0.3
		c-0.4,0.2-0.6,0.7-0.7,1.1l-0.5,2.7c-0.1,0.5,0,0.9,0.3,1.3c0.2,0.4,0.7,0.6,1.1,0.7l2.3,0.4c-0.3,0.3-0.4,0.6-0.4,0.9
		c0,0.2,0.1,0.5,0.2,0.6c0.1,0.1,0.5,0.4,1,0.8c-0.3,0.2-0.5,0.4-0.5,0.7c-0.1,0.4,0,0.9,0.2,1.1l0,0c0.2,0.2,0.6,0.4,1.3,0.8
		c0.2,0.1,0.5,0.2,0.8,0.3C30.3,31.2,25.5,33.1,20.1,33.1z M32.7,27.3c-0.7-0.3-1-0.6-1.2-0.7v0c0-0.1-0.1-0.3,0-0.5
		c0.1-0.2,0.2-0.2,0.5-0.3c0.5,0.4,1.1,0.8,1.2,0.9c0.1,0.1,0.3,0.1,0.5,0.1c0.3,0,0.7-0.1,1-0.2c0.1,0,0.2,0,0.2,0
		c0.2,0.2,0.3,0.5,0.3,0.7c0,0,0,0.1,0,0.1c0,0.1,0,0.2,0.1,0.3C34.3,27.7,33.3,27.6,32.7,27.3z M34.5,26c-0.3,0.1-0.9,0.2-1,0.1
		c-0.3-0.2-2.4-1.8-2.7-2C30.7,24,30.7,24,30.7,24c0-0.1,0.1-0.3,0.5-0.7c1.3,1.1,2.9,2.4,3,2.5C34.4,25.8,34.4,25.9,34.5,26z
		 M31.1,19.1c-0.6-0.3-1.5-0.3-2,0.5c-0.6,0.9-0.3,1.5,0,1.8c0.1,0.1,0.5,0.5,1.1,0.9L28.4,22c-0.3,0-0.5-0.2-0.7-0.4
		c-0.2-0.2-0.2-0.5-0.2-0.8l0.4-2.7c0-0.3,0.2-0.5,0.4-0.7c0.2-0.2,0.5-0.2,0.8-0.2l2.7,0.5c0.6,0.1,0.9,0.7,0.9,1.2l-0.2,1.1
		C31.9,19.6,31.3,19.3,31.1,19.1z"/>
</g>
<g>
	<path class="fillColor" d="M13.4,24.6c-0.2,0-0.4-0.1-0.5-0.2c-0.2-0.3-0.2-0.7,0.1-0.9c0.7-0.6,1.1-1.5,1.1-2.4s-0.4-1.8-1.1-2.4
		c-0.3-0.2-0.3-0.7-0.1-0.9c0.2-0.3,0.7-0.3,0.9-0.1c1,0.9,1.6,2.1,1.6,3.4s-0.6,2.5-1.6,3.4C13.7,24.5,13.5,24.6,13.4,24.6z"/>
	<path class="fillColor" d="M16.2,26.1c-0.2,0-0.4-0.1-0.5-0.2c-0.2-0.3-0.2-0.7,0-0.9c0.9-0.9,1.5-2.3,1.5-3.8c0-1.4-0.5-2.9-1.4-3.7
		c-0.3-0.3-0.3-0.7,0-0.9c0.3-0.3,0.7-0.3,0.9,0c1.1,1.1,1.8,2.9,1.8,4.7c0,1.9-0.7,3.7-1.9,4.8C16.5,26,16.3,26.1,16.2,26.1z"/>
	<path class="fillColor" d="M19.1,27.5c-0.2,0-0.4-0.1-0.5-0.2c-0.2-0.3-0.2-0.7,0-0.9c1.1-1.1,1.8-3.1,1.8-5.3c0-2.1-0.6-4-1.6-5.1
		c-0.2-0.3-0.2-0.7,0-0.9c0.3-0.2,0.7-0.2,0.9,0c1.3,1.4,2,3.6,2,6.1c0,2.6-0.9,5-2.3,6.3C19.5,27.5,19.3,27.5,19.1,27.5z"/>
	<path class="fillColor" d="M22.1,29.1c-0.2,0-0.4-0.1-0.5-0.2c-0.2-0.3-0.2-0.7,0.1-0.9c1.3-1.1,2.2-3.8,2.2-6.8
		c0-2.7-0.7-5.2-1.9-6.5c-0.3-0.3-0.2-0.7,0-0.9c0.3-0.3,0.7-0.2,0.9,0c1.4,1.5,2.3,4.4,2.3,7.4c0,3.4-1.1,6.5-2.7,7.8
		C22.4,29,22.2,29.1,22.1,29.1z"/>
	<path class="fillColor" d="M41.2,23.4c0,0-2-2.9-2.5-3.8c-0.6-1-1.1-1.6-2.3-1.7c-0.2,0-0.3,0-0.5,0c-0.9-2.4-3-4.5-5.7-6.1
		c-2.9-1.6-6.4-2.5-10.1-2.5c-9,0-16.4,5.2-16.4,11.7s7.3,11.7,16.4,11.7c5.7,0,10.8-2,13.9-5.5c0.3,0,0.7,0,1,0c0.2,0,0.4,0,0.7,0
		c0.4,0.8,1.3,1.7,3.4,2c0,0,0,0,0,0c0.2,0,0.3-0.1,0.3-0.3c0-0.2-0.1-0.3-0.3-0.3c-2.5-0.4-3-1.8-3.2-2.5c0,0,0-0.1,0-0.2
		c-0.1-0.3-0.3-0.7-0.5-1l0,0c-0.2-0.3-0.4-0.5-0.6-0.7c-0.2-0.2-1.6-1.4-3.5-3c-0.8-0.7-1.6-1.3-1.7-1.4s-0.4-0.3,0-1
		c0.3-0.5,0.9-0.5,1.2-0.3c0.5,0.3,5.6,3.2,5.7,3.2c0.2,0.1,0.3,0,0.4-0.1c0.1-0.2,0-0.3-0.1-0.4c0,0-2-1.1-3.6-2.1l0.2-0.9
		c0.2,0,2,0.1,3,0.1c0.9,0,1.2,0.4,1.8,1.4c0.6,1,2.5,3.7,2.5,3.8c0,0.1,0.2,0.1,0.2,0.1c0,0,0.1,0,0.2,0
		C41.2,23.8,41.3,23.6,41.2,23.4z M20.1,32.1c-8.7,0-15.8-5-15.8-11.1c0-6.1,7.1-11,15.8-11c3.6,0,7,0.8,9.7,2.4
		c2.5,1.4,4.4,3.4,5.4,5.5c-0.8,0-1.6,0-1.8-0.1c0-0.8-0.6-1.6-1.4-1.7l-2.7-0.4c-0.5-0.1-0.9,0-1.3,0.3c-0.4,0.2-0.6,0.7-0.7,1.1
		l-0.5,2.7c-0.1,0.5,0,0.9,0.3,1.3c0.2,0.4,0.7,0.6,1.1,0.7l2.3,0.4c-0.3,0.3-0.4,0.6-0.4,0.9c0,0.2,0.1,0.5,0.2,0.6
		c0.1,0.1,0.5,0.4,1,0.8c-0.3,0.2-0.5,0.4-0.5,0.7c-0.1,0.4,0,0.9,0.2,1.1l0,0c0.2,0.2,0.6,0.4,1.3,0.8c0.2,0.1,0.5,0.2,0.8,0.3
		C30.3,30.2,25.5,32.1,20.1,32.1z M32.7,26.3c-0.7-0.3-1-0.6-1.2-0.7v0c0-0.1-0.1-0.3,0-0.5c0.1-0.2,0.2-0.2,0.5-0.3
		c0.5,0.4,1.1,0.8,1.2,0.9c0.1,0.1,0.3,0.1,0.5,0.1c0.3,0,0.7-0.1,1-0.2c0.1,0,0.2,0,0.2,0c0.2,0.2,0.3,0.5,0.3,0.7c0,0,0,0.1,0,0.1
		c0,0.1,0,0.2,0.1,0.3C34.3,26.7,33.3,26.6,32.7,26.3z M34.5,25c-0.3,0.1-0.9,0.2-1,0.1c-0.3-0.2-2.4-1.8-2.7-2
		C30.7,23,30.7,23,30.7,23c0-0.1,0.1-0.3,0.5-0.7c1.3,1.1,2.9,2.4,3,2.5C34.4,24.8,34.4,24.9,34.5,25z M31.1,18.1
		c-0.6-0.3-1.5-0.3-2,0.5c-0.6,0.9-0.3,1.5,0,1.8c0.1,0.1,0.5,0.5,1.1,0.9L28.4,21c-0.3,0-0.5-0.2-0.7-0.4c-0.2-0.2-0.2-0.5-0.2-0.8
		l0.4-2.7c0-0.3,0.2-0.5,0.4-0.7c0.2-0.2,0.5-0.2,0.8-0.2l2.7,0.5c0.6,0.1,0.9,0.7,0.9,1.2l-0.2,1.1C31.9,18.6,31.3,18.3,31.1,18.1z
		"/>
</g>
</svg>
