<?xml version="1.0" encoding="utf-8"?>
<!-- Generator: Adobe Illustrator 18.0.0, SVG Export Plug-In . SVG Version: 6.00 Build 0)  -->
<!DOCTYPE svg PUBLIC "-//W3C//DTD SVG 1.1//EN" "http://www.w3.org/Graphics/SVG/1.1/DTD/svg11.dtd">
<svg version="1.1" id="Layer_1" xmlns="http://www.w3.org/2000/svg" xmlns:xlink="http://www.w3.org/1999/xlink" x="0px" y="0px"
	 viewBox="0 0 45 45" enable-background="new 0 0 45 45" xml:space="preserve">

<g>
	<path class="fillColor" d="M13.4,24.6c-0.2,0-0.4-0.1-0.5-0.2c-0.2-0.3-0.2-0.7,0.1-0.9c0.7-0.6,1.1-1.5,1.1-2.4s-0.4-1.8-1.1-2.4
		c-0.3-0.2-0.3-0.7-0.1-0.9c0.2-0.3,0.7-0.3,0.9-0.1c1,0.9,1.6,2.1,1.6,3.4s-0.6,2.5-1.6,3.4C13.7,24.5,13.5,24.6,13.4,24.6z"/>
	<path class="fillColor" d="M16.2,26.1c-0.2,0-0.4-0.1-0.5-0.2c-0.2-0.3-0.2-0.7,0-0.9c0.9-0.9,1.5-2.3,1.5-3.8c0-1.4-0.5-2.9-1.4-3.7
		c-0.3-0.3-0.3-0.7,0-0.9c0.3-0.3,0.7-0.3,0.9,0c1.1,1.1,1.8,2.9,1.8,4.7c0,1.9-0.7,3.7-1.9,4.8C16.5,26,16.3,26.1,16.2,26.1z"/>
	<path class="fillColor" d="M19.1,27.5c-0.2,0-0.4-0.1-0.5-0.2c-0.2-0.3-0.2-0.7,0-0.9c1.1-1.1,1.8-3.1,1.8-5.3c0-2.1-0.6-4-1.6-5.1
		c-0.2-0.3-0.2-0.7,0-0.9c0.3-0.2,0.7-0.2,0.9,0c1.3,1.4,2,3.6,2,6.1c0,2.6-0.9,5-2.3,6.3C19.5,27.5,19.3,27.5,19.1,27.5z"/>
	<path class="fillColor" d="M22.1,29.1c-0.2,0-0.4-0.1-0.5-0.2c-0.2-0.3-0.2-0.7,0.1-0.9c1.3-1.1,2.2-3.8,2.2-6.8
		c0-2.7-0.7-5.2-1.9-6.5c-0.3-0.3-0.2-0.7,0-0.9c0.3-0.3,0.7-0.2,0.9,0c1.4,1.5,2.3,4.4,2.3,7.4c0,3.4-1.1,6.5-2.7,7.8
		C22.4,29,22.2,29.1,22.1,29.1z"/>

</g>
</svg>
