<?xml version="1.0" encoding="utf-8"?>
<!-- Generator: Adobe Illustrator 18.0.0, SVG Export Plug-In . SVG Version: 6.00 Build 0)  -->
<!DOCTYPE svg PUBLIC "-//W3C//DTD SVG 1.1//EN" "http://www.w3.org/Graphics/SVG/1.1/DTD/svg11.dtd">
<svg version="1.1" id="Layer_1" xmlns="http://www.w3.org/2000/svg" xmlns:xlink="http://www.w3.org/1999/xlink" x="0px" y="0px"
	 viewBox="0 0 45 45" enable-background="new 0 0 45 45" xml:space="preserve">
	<style type="text/css">
			@import "../default/default/svg.css";
	</style>
	 <script type="text/javascript">
         <![CDATA[
             if(window.parent && window.parent.Wincor && window.parent.Wincor.UI && window.parent.Wincor.UI.Content) {
                 let styleRes = window.parent.Wincor.UI.Content.StyleResourceResolver;
                 if(styleRes) {
                 	let style = document.getElementsByTagName("style")[0];
                   	style.innerHTML = style.innerHTML.replace("default/svg.css", styleRes.type() + "svg.css");
                    styleRes = null;
                 }
             }
         ]]>
    </script>
<g class="shadowGroup1">
	<polygon points="23.6,30 28,30 28,31 23.3,31 	"/>
	<polygon points="28,16 27.7,17 40,17 40,34 22.3,34 22,35 22,35 41,35 41,16 	"/>
	<path d="M25.8,21.3L30,8l-1-0.3L27.7,12H7v19h14.7l-2.9,9.2l1,0.3l3.7-11.8c2.6-0.3,3.8-2.2,3.8-4.2C27.3,23.5,26.9,21.9,25.8,21.3
		z M24,23.6L24,23.6c-1.2-0.6-2-1.8-2-3.1c0-1.9,1.6-3.5,3.5-3.5c0.2,0,0.4,0,0.6,0.1L24,23.6z M8,30V13h19.3L27,14H9v15h13.3
		l0.1-0.2L22,30.1l0-0.1H8z M23.3,26H20v1h2.9l-0.3,1h-9.4c0.3-0.4,0.4-0.8,0.4-1.3c0-1.3-1-2.3-2.3-2.3c-0.5,0-0.9,0.2-1.3,0.4
		v-6.6c0.4,0.3,0.8,0.4,1.3,0.4c1.3,0,2.3-1,2.3-2.3c0-0.5-0.2-0.9-0.4-1.3h13.5l-0.3,1.1C26.1,16,25.8,16,25.5,16
		C23,16,21,18,21,20.5c0,1.9,1.1,3.4,2.7,4.1L23.3,26z M23.9,27.4l1.5-4.8c0.6,0.4,0.9,1.5,0.9,1.9C26.3,25.7,25.5,27.3,23.9,27.4z"
		/>
	<path d="M27.4,18L27,19h7.4c-0.2,0.4-0.4,0.8-0.4,1.3c0,1.3,1,2.3,2.2,2.3c0.7,0,1.4-0.4,1.8-1v7.8c-0.4-0.6-1.1-1-1.8-1
		c-1.2,0-2.2,1-2.2,2.3c0,0.5,0.1,0.9,0.4,1.3H22.9l-0.3,1H39V18H27.4z"/>
</g>
<g class="shadowGroup2">
	<polygon points="22.6,29 27,29 27,30 22.3,30 	"/>
	<polygon points="27,15 26.7,16 39,16 39,33 21.3,33 21,34 21,34 40,34 40,15 	"/>
	<path d="M24.8,20.3L29,7l-1-0.3L26.7,11H6v19h14.7l-2.9,9.2l1,0.3l3.7-11.8c2.6-0.3,3.8-2.2,3.8-4.2C26.3,22.5,25.9,20.9,24.8,20.3
		z M23,22.6L23,22.6c-1.2-0.6-2-1.8-2-3.1c0-1.9,1.6-3.5,3.5-3.5c0.2,0,0.4,0,0.6,0.1L23,22.6z M7,29V12h19.3L26,13H8v15h13.3
		l0.1-0.2L21,29.1l0-0.1H7z M22.3,25H19v1h2.9l-0.3,1h-9.4c0.3-0.4,0.4-0.8,0.4-1.3c0-1.3-1-2.3-2.3-2.3c-0.5,0-0.9,0.2-1.3,0.4
		v-6.6c0.4,0.3,0.8,0.4,1.3,0.4c1.3,0,2.3-1,2.3-2.3c0-0.5-0.2-0.9-0.4-1.3h13.5l-0.3,1.1C25.1,15,24.8,15,24.5,15
		C22,15,20,17,20,19.5c0,1.9,1.1,3.4,2.7,4.1L22.3,25z M22.9,26.4l1.5-4.8c0.6,0.4,0.9,1.5,0.9,1.9C25.3,24.7,24.5,26.3,22.9,26.4z"
		/>
	<path d="M26.4,17L26,18h7.4c-0.2,0.4-0.4,0.8-0.4,1.3c0,1.3,1,2.3,2.2,2.3c0.7,0,1.4-0.4,1.8-1v7.8c-0.4-0.6-1.1-1-1.8-1
		c-1.2,0-2.2,1-2.2,2.3c0,0.5,0.1,0.9,0.4,1.3H21.9l-0.3,1H38V17H26.4z"/>
</g>
<g class="shadowGroup3">
	<polygon points="21.6,28 26,28 26,29 21.3,29 	"/>
	<polygon points="26,14 25.7,15 38,15 38,32 20.3,32 20,33 20,33 39,33 39,14 	"/>
	<path d="M23.8,19.3L28,6l-1-0.3L25.7,10H5v19h14.7l-2.9,9.2l1,0.3l3.7-11.8c2.6-0.3,3.8-2.2,3.8-4.2C25.3,21.5,24.9,19.9,23.8,19.3
		z M22,21.6L22,21.6c-1.2-0.6-2-1.8-2-3.1c0-1.9,1.6-3.5,3.5-3.5c0.2,0,0.4,0,0.6,0.1L22,21.6z M6,28V11h19.3L25,12H7v15h13.3
		l0.1-0.2L20,28.1l0-0.1H6z M21.3,24H18v1h2.9l-0.3,1h-9.4c0.3-0.4,0.4-0.8,0.4-1.3c0-1.3-1-2.3-2.3-2.3c-0.5,0-0.9,0.2-1.3,0.4
		v-6.6c0.4,0.3,0.8,0.4,1.3,0.4c1.3,0,2.3-1,2.3-2.3c0-0.5-0.2-0.9-0.4-1.3h13.5l-0.3,1.1C24.1,14,23.8,14,23.5,14
		C21,14,19,16,19,18.5c0,1.9,1.1,3.4,2.7,4.1L21.3,24z M21.9,25.4l1.5-4.8c0.6,0.4,0.9,1.5,0.9,1.9C24.3,23.7,23.5,25.3,21.9,25.4z"
		/>
	<path d="M25.4,16L25,17h7.4c-0.2,0.4-0.4,0.8-0.4,1.3c0,1.3,1,2.3,2.2,2.3c0.7,0,1.4-0.4,1.8-1v7.8c-0.4-0.6-1.1-1-1.8-1
		c-1.2,0-2.2,1-2.2,2.3c0,0.5,0.1,0.9,0.4,1.3H20.9l-0.3,1H37V16H25.4z"/>
</g>
<g>
	<polygon class="fillColor" points="20.6,27 25,27 25,28 20.3,28 	"/>
	<polygon class="fillColor" points="25,13 24.7,14 37,14 37,31 19.3,31 19,32 19,32 38,32 38,13 	"/>
	<path class="fillColor" d="M22.8,18.3L27,5l-1-0.3L24.7,9H4v19h14.7l-2.9,9.2l1,0.3l3.7-11.8c2.6-0.3,3.8-2.2,3.8-4.2
		C24.3,20.5,23.9,18.9,22.8,18.3z M21,20.6L21,20.6c-1.2-0.6-2-1.8-2-3.1c0-1.9,1.6-3.5,3.5-3.5c0.2,0,0.4,0,0.6,0.1L21,20.6z M5,27
		V10h19.3L24,11H6v15h13.3l0.1-0.2L19,27.1l0-0.1H5z M20.3,23H17v1h2.9l-0.3,1h-9.4c0.3-0.4,0.4-0.8,0.4-1.3c0-1.3-1-2.3-2.3-2.3
		c-0.5,0-0.9,0.2-1.3,0.4v-6.6c0.4,0.3,0.8,0.4,1.3,0.4c1.3,0,2.3-1,2.3-2.3c0-0.5-0.2-0.9-0.4-1.3h13.5l-0.3,1.1
		C23.1,13,22.8,13,22.5,13C20,13,18,15,18,17.5c0,1.9,1.1,3.4,2.7,4.1L20.3,23z M20.9,24.4l1.5-4.8c0.6,0.4,0.9,1.5,0.9,1.9
		C23.3,22.7,22.5,24.3,20.9,24.4z"/>
	<path class="fillColor" d="M24.4,15L24,16h7.4c-0.2,0.4-0.4,0.8-0.4,1.3c0,1.3,1,2.3,2.2,2.3c0.7,0,1.4-0.4,1.8-1v7.8
		c-0.4-0.6-1.1-1-1.8-1c-1.2,0-2.2,1-2.2,2.3c0,0.5,0.1,0.9,0.4,1.3H19.9l-0.3,1H36V15H24.4z"/>
</g>
</svg>
