<?xml version="1.0" encoding="utf-8"?>
<!-- Generator: Adobe Illustrator 18.0.0, SVG Export Plug-In . SVG Version: 6.00 Build 0)  -->
<!DOCTYPE svg PUBLIC "-//W3C//DTD SVG 1.1//EN" "http://www.w3.org/Graphics/SVG/1.1/DTD/svg11.dtd">
<svg version="1.1" id="Ebene_1" xmlns="http://www.w3.org/2000/svg" xmlns:xlink="http://www.w3.org/1999/xlink" x="0px" y="0px"
	 viewBox="0 0 45 45" enable-background="new 0 0 45 45" xml:space="preserve">
	  <style type="text/css">
			@import "../default/default/svg.css";
	</style>
	 <script type="text/javascript">
         <![CDATA[
             if(window.parent && window.parent.Wincor && window.parent.Wincor.UI && window.parent.Wincor.UI.Content) {
                 let styleRes = window.parent.Wincor.UI.Content.StyleResourceResolver;
                 if(styleRes) {
                 	let style = document.getElementsByTagName("style")[0];
                   	style.innerHTML = style.innerHTML.replace("default/svg.css", styleRes.type() + "svg.css");
                    styleRes = null;
                 }
             }
         ]]>
    </script>
<g class="shadowGroup1">
	<g>
		<g>
			<path fill="none" stroke="#000000" stroke-miterlimit="10" d="M40.157,20.752c0,0-4.245,2.403-5.848,3.364
				c0.481,3.605-3.284,3.685-3.284,3.685s-4.646-0.08-6.969,0c-2.403-0.721-3.925-2.403-3.925-2.403s0,0,3.925,0.801
				c0,0,5.046,0.16,7.53,0c2.643-1.121,1.041-2.243,0-2.553c0,0-1.202,0.07-2.964-0.01c-2.243,0.16-5.447-1.682-5.447-1.682
				s-1.041-1.121-3.364-2.563c-2.323-1.442-5.447-0.481-5.447-0.481l-6.328,3.044v6.6c0,0,4.271-2.596,9.532,0.77
				c3.762,2.077,5.692,2.846,6.809,3.284c2.412,1.118,4.646,0,4.646,0s6.969-4.486,13.617-8.891
				c0.561-0.561,1.041-0.961,1.442-2.083C42.56,19.31,40.157,20.752,40.157,20.752z"/>
		</g>
	</g>
	<g>
		<g>
			<rect x="2.218" y="21.553" fill="none" stroke="#000000" stroke-miterlimit="10" width="3.587" height="6.768"/>
		</g>
	</g>
	<g>
		<path fill="none" stroke="#000000" stroke-width="0.5" stroke-miterlimit="10" d="M26.579,15.712
			c-0.07,0.244-0.325,0.385-0.567,0.316l-3.75-1.065c-0.243-0.069-0.386-0.325-0.317-0.569l0.844-2.974
			c0.071-0.244,0.325-0.386,0.571-0.317l3.749,1.065c0.244,0.07,0.385,0.325,0.317,0.569L26.579,15.712z"/>
		<path d="M25.095,12.164l0.9,0.255l0.134,0.148l1.241,0.353l0.04-0.147l-1.194-0.34l-0.134-0.149l-0.71-0.201l0.095-0.333
			l-0.443-0.124l-0.094,0.333l-0.598-0.171l-0.03,0.015c-0.04,0.029-0.103,0.051-0.117,0.054c-0.057-0.025-0.344-0.106-1.123-0.317
			c-0.126-0.036-0.229-0.066-0.274-0.078l-0.042,0.147c0.046,0.013,0.149,0.042,0.274,0.078c0.342,0.096,1.049,0.291,1.108,0.314
			c0.063,0.026,0.154-0.005,0.229-0.047l0.227,0.065c-0.341,0.111-0.542,0.396-0.569,0.485l-0.077,0.28l-1.411-0.4l-0.042,0.147
			l1.402,0.398l-0.003,0.015c-0.026,0.089,0.015,0.172,0.055,0.255c0.036,0.074,0.07,0.147,0.05,0.214
			c-0.016,0.058-0.064,0.086-0.131,0.121c-0.067,0.037-0.141,0.08-0.182,0.164l-1.408-0.4l-0.043,0.148l1.403,0.398l-0.062,0.222
			c-0.071,0.245,0.015,0.54,0.229,0.766l-0.244-0.07c-0.041-0.076-0.102-0.148-0.169-0.16c-0.054-0.007-0.769-0.217-1.108-0.314
			c-0.125-0.036-0.228-0.065-0.272-0.078l-0.041,0.147c0.044,0.012,0.147,0.042,0.271,0.079c0.776,0.227,1.063,0.31,1.123,0.318
			c0.02,0.014,0.054,0.063,0.073,0.108l0.015,0.028l0.598,0.17l-0.117,0.414l0.444,0.126l0.115-0.414l0.712,0.202l0.19-0.057
			l1.196,0.339l0.041-0.148l-1.231-0.349l-0.191,0.058l-0.333-0.095c0.315-0.101,0.536-0.341,0.58-0.497l0.072-0.258l1.335,0.38
			l0.042-0.148l-1.349-0.384c0.008-0.117-0.039-0.226-0.072-0.307c-0.016-0.036-0.037-0.09-0.035-0.098
			c0.025-0.096,0.071-0.115,0.129-0.147c0.063-0.029,0.146-0.069,0.202-0.213l1.336,0.379l0.041-0.148l-1.475-0.419l-0.02,0.074
			c-0.039,0.14-0.084,0.159-0.148,0.188c-0.077,0.036-0.158,0.076-0.211,0.236c-0.019,0.067,0.01,0.13,0.043,0.204
			c0.039,0.09,0.085,0.19,0.058,0.279L25.3,14.59c-0.045,0.156-0.434,0.539-0.935,0.396c-0.539-0.153-0.72-0.611-0.643-0.884
			l0.096-0.333c0.012-0.051,0.05-0.072,0.126-0.108c0.075-0.042,0.17-0.095,0.206-0.22c0.035-0.126-0.021-0.237-0.059-0.327
			c-0.024-0.056-0.055-0.113-0.045-0.149l0.127-0.443C24.189,12.457,24.54,12.006,25.095,12.164z"/>
		<path d="M37.792,13.149L22.192,8.655c-0.328-0.095-0.674,0.097-0.769,0.425l-0.446,1.548c0.029,0.011,0.053,0.026,0.078,0.041
			l0.585,0.168l0.265-0.919c0.095-0.328,0.441-0.52,0.769-0.425l14.177,4.084c0.328,0.095,0.52,0.441,0.425,0.769l-2.289,7.945
			c-0.095,0.328-0.441,0.52-0.769,0.425l-14.177-4.084c-0.328-0.095-0.52-0.441-0.425-0.769l1.145-3.972l-0.658-0.189l0.007-0.024
			l-0.01-0.003l-1.338,4.643c-0.095,0.328,0.097,0.674,0.425,0.769l15.599,4.494c0.328,0.095,0.674-0.097,0.769-0.425l2.661-9.236
			C38.312,13.59,38.12,13.244,37.792,13.149z"/>
	</g>
</g>

<g class="shadowGroup2">
	<g>
		<g>
			<path fill="none" stroke="#000000" stroke-miterlimit="10" d="M39.815,20.1c0,0-4.245,2.403-5.848,3.364
				c0.481,3.605-3.284,3.685-3.284,3.685s-4.646-0.08-6.969,0c-2.403-0.721-3.925-2.403-3.925-2.403s0,0,3.925,0.801
				c0,0,5.046,0.16,7.53,0c2.643-1.121,1.041-2.243,0-2.553c0,0-1.202,0.07-2.964-0.01c-2.243,0.16-5.447-1.682-5.447-1.682
				s-1.041-1.121-3.364-2.563c-2.323-1.442-5.447-0.481-5.447-0.481l-6.328,3.044v6.6c0,0,4.271-2.596,9.532,0.77
				c3.762,2.077,5.692,2.846,6.809,3.284c2.412,1.118,4.646,0,4.646,0s6.969-4.486,13.617-8.891
				c0.561-0.561,1.041-0.961,1.442-2.083C42.218,18.658,39.815,20.1,39.815,20.1z"/>
		</g>
	</g>
	<g>
		<g>
			<rect x="2.56" y="22.205" fill="none" stroke="#000000" stroke-miterlimit="10" width="3.587" height="6.768"/>
		</g>
	</g>
	<g>
		<path fill="none" stroke="#000000" stroke-width="0.5" stroke-miterlimit="10" d="M26.237,15.06
			c-0.07,0.244-0.325,0.385-0.567,0.316l-3.75-1.065c-0.243-0.069-0.386-0.325-0.317-0.569l0.844-2.974
			c0.071-0.244,0.325-0.386,0.571-0.317l3.749,1.065c0.244,0.07,0.385,0.325,0.317,0.569L26.237,15.06z"/>
		<path d="M24.753,11.512l0.9,0.255l0.134,0.148l1.241,0.353l0.04-0.147l-1.194-0.34l-0.134-0.149l-0.71-0.201l0.095-0.333
			l-0.443-0.124l-0.094,0.333l-0.598-0.171l-0.03,0.015c-0.04,0.029-0.103,0.051-0.117,0.054c-0.057-0.025-0.344-0.106-1.123-0.317
			c-0.126-0.036-0.229-0.066-0.274-0.078l-0.042,0.147c0.046,0.013,0.149,0.042,0.274,0.078c0.342,0.096,1.049,0.291,1.108,0.314
			c0.063,0.026,0.154-0.005,0.229-0.047l0.227,0.065c-0.341,0.111-0.542,0.396-0.569,0.485l-0.077,0.28l-1.411-0.4l-0.042,0.147
			l1.402,0.398l-0.003,0.015c-0.026,0.089,0.015,0.172,0.055,0.255c0.036,0.074,0.07,0.147,0.05,0.214
			c-0.016,0.058-0.064,0.086-0.131,0.121c-0.067,0.037-0.141,0.08-0.182,0.164l-1.408-0.4l-0.043,0.148l1.403,0.398l-0.062,0.222
			c-0.071,0.245,0.015,0.54,0.229,0.766l-0.244-0.07c-0.041-0.076-0.102-0.148-0.169-0.16c-0.054-0.007-0.769-0.217-1.108-0.314
			c-0.125-0.036-0.228-0.065-0.272-0.078l-0.041,0.147c0.044,0.012,0.147,0.042,0.271,0.079c0.776,0.227,1.063,0.31,1.123,0.318
			c0.02,0.014,0.054,0.063,0.073,0.108l0.015,0.028l0.598,0.17l-0.117,0.414l0.444,0.126l0.115-0.414l0.712,0.202l0.19-0.057
			l1.196,0.339l0.041-0.148l-1.231-0.349l-0.191,0.058l-0.333-0.095c0.315-0.101,0.536-0.341,0.58-0.497l0.072-0.258l1.335,0.38
			l0.042-0.148l-1.349-0.384c0.008-0.117-0.039-0.226-0.072-0.307c-0.016-0.036-0.037-0.09-0.035-0.098
			c0.025-0.096,0.071-0.115,0.129-0.147c0.063-0.029,0.146-0.069,0.202-0.213l1.336,0.379l0.041-0.148l-1.475-0.419l-0.02,0.074
			c-0.039,0.14-0.084,0.159-0.148,0.188c-0.077,0.036-0.158,0.076-0.211,0.236c-0.019,0.067,0.01,0.13,0.043,0.204
			c0.039,0.09,0.085,0.19,0.058,0.279l-0.093,0.332c-0.045,0.156-0.434,0.539-0.935,0.396c-0.539-0.153-0.72-0.611-0.643-0.884
			l0.096-0.333c0.012-0.051,0.05-0.072,0.126-0.108c0.075-0.042,0.17-0.095,0.206-0.22c0.035-0.126-0.021-0.237-0.059-0.327
			c-0.024-0.056-0.055-0.113-0.045-0.149l0.127-0.443C23.847,11.805,24.199,11.354,24.753,11.512z"/>
		<path d="M37.45,12.497L21.851,8.003c-0.328-0.095-0.674,0.097-0.769,0.425l-0.446,1.548c0.029,0.011,0.053,0.026,0.078,0.041
			l0.585,0.168l0.265-0.919c0.095-0.328,0.441-0.52,0.769-0.425l14.177,4.084c0.328,0.095,0.52,0.441,0.425,0.769l-2.289,7.945
			c-0.095,0.328-0.441,0.52-0.769,0.425L19.699,17.98c-0.328-0.095-0.52-0.441-0.425-0.769l1.145-3.972l-0.658-0.189l0.007-0.024
			l-0.01-0.003l-1.338,4.643c-0.095,0.328,0.097,0.674,0.425,0.769l15.599,4.494c0.328,0.095,0.674-0.097,0.769-0.425l2.661-9.236
			C37.97,12.938,37.779,12.592,37.45,12.497z"/>
	</g>
</g>
<g class="shadowGroup3">
	<g>
		<g>
			<path fill="none" stroke="#000000" stroke-miterlimit="10" d="M39.447,19.584c0,0-4.245,2.403-5.848,3.364
				c0.481,3.605-3.284,3.685-3.284,3.685s-4.646-0.08-6.969,0c-2.403-0.721-3.925-2.403-3.925-2.403s0,0,3.925,0.801
				c0,0,5.047,0.16,7.53,0c2.643-1.121,1.041-2.243,0-2.553c0,0-1.202,0.07-2.964-0.01c-2.243,0.16-5.447-1.682-5.447-1.682
				s-1.041-1.121-3.364-2.563c-2.323-1.442-5.447-0.481-5.447-0.481l-6.328,3.044v6.6c0,0,4.271-2.596,9.532,0.77
				c3.762,2.077,5.692,2.846,6.809,3.284c2.412,1.118,4.646,0,4.646,0s6.969-4.486,13.618-8.891
				c0.561-0.561,1.041-0.961,1.442-2.083C41.85,18.142,39.447,19.584,39.447,19.584z"/>
		</g>
	</g>
	<g>
		<g>
			<rect x="1.849" y="21.037" fill="none" stroke="#000000" stroke-miterlimit="10" width="3.587" height="6.768"/>
		</g>
	</g>
	<g>
		<path fill="none" stroke="#000000" stroke-width="0.5" stroke-miterlimit="10" d="M25.954,14.495
			c-0.07,0.244-0.325,0.385-0.567,0.316l-3.75-1.065c-0.243-0.069-0.386-0.325-0.317-0.569l0.844-2.974
			c0.071-0.244,0.325-0.386,0.571-0.317l3.749,1.065c0.244,0.07,0.385,0.325,0.317,0.569L25.954,14.495z"/>
		<path d="M24.47,10.947l0.9,0.255l0.134,0.148l1.241,0.353l0.04-0.147l-1.194-0.34l-0.134-0.149l-0.71-0.201l0.095-0.333
			l-0.443-0.124l-0.094,0.333l-0.598-0.171l-0.03,0.015c-0.04,0.029-0.103,0.051-0.117,0.054c-0.057-0.025-0.344-0.106-1.123-0.317
			c-0.126-0.036-0.229-0.066-0.274-0.078l-0.042,0.147c0.046,0.013,0.149,0.042,0.274,0.078c0.342,0.096,1.049,0.291,1.108,0.314
			c0.063,0.026,0.154-0.005,0.229-0.047l0.227,0.065c-0.341,0.111-0.542,0.396-0.569,0.485l-0.077,0.28l-1.411-0.4l-0.042,0.147
			l1.402,0.398l-0.003,0.015c-0.026,0.089,0.015,0.172,0.055,0.255c0.036,0.074,0.07,0.147,0.05,0.214
			c-0.016,0.058-0.064,0.086-0.131,0.121c-0.067,0.037-0.141,0.08-0.182,0.164l-1.408-0.4l-0.043,0.148l1.403,0.398l-0.062,0.222
			c-0.071,0.245,0.015,0.54,0.229,0.766l-0.244-0.07c-0.041-0.076-0.102-0.148-0.169-0.16c-0.054-0.007-0.769-0.217-1.108-0.314
			c-0.125-0.036-0.228-0.065-0.272-0.078l-0.041,0.147c0.044,0.012,0.147,0.042,0.271,0.079c0.776,0.227,1.063,0.31,1.123,0.318
			c0.02,0.014,0.054,0.063,0.073,0.108l0.015,0.028l0.598,0.17l-0.117,0.414l0.444,0.126l0.115-0.414l0.712,0.202l0.19-0.057
			l1.196,0.339l0.041-0.148l-1.231-0.349l-0.191,0.058l-0.333-0.095c0.315-0.101,0.536-0.341,0.58-0.497l0.072-0.258l1.335,0.38
			l0.042-0.148l-1.349-0.384c0.008-0.117-0.039-0.226-0.072-0.307c-0.016-0.036-0.037-0.09-0.035-0.098
			c0.025-0.096,0.071-0.115,0.129-0.147c0.063-0.029,0.146-0.069,0.202-0.213l1.336,0.379l0.041-0.148l-1.475-0.419l-0.02,0.074
			c-0.039,0.14-0.084,0.159-0.148,0.188c-0.077,0.036-0.158,0.076-0.211,0.236c-0.019,0.067,0.01,0.13,0.043,0.204
			c0.039,0.09,0.085,0.19,0.058,0.279l-0.093,0.332c-0.045,0.156-0.434,0.539-0.935,0.396c-0.539-0.153-0.72-0.611-0.643-0.884
			l0.096-0.333c0.012-0.051,0.05-0.072,0.126-0.108c0.075-0.042,0.17-0.095,0.206-0.22c0.035-0.126-0.021-0.237-0.059-0.327
			c-0.024-0.056-0.055-0.113-0.045-0.149l0.127-0.443C23.564,11.241,23.915,10.79,24.47,10.947z"/>
		<path d="M37.167,11.933L21.567,7.439c-0.328-0.095-0.674,0.097-0.769,0.425l-0.446,1.548c0.029,0.011,0.053,0.026,0.078,0.041
			l0.585,0.168l0.265-0.919c0.095-0.328,0.441-0.52,0.769-0.425l14.177,4.084c0.328,0.095,0.52,0.441,0.425,0.769l-2.289,7.945
			c-0.095,0.328-0.441,0.52-0.769,0.425l-14.177-4.084c-0.328-0.095-0.52-0.441-0.425-0.769l1.145-3.972l-0.658-0.189l0.007-0.024
			l-0.01-0.003L18.137,17.1c-0.095,0.328,0.097,0.674,0.425,0.769l15.599,4.494c0.328,0.095,0.674-0.097,0.769-0.425l2.661-9.236
			C37.686,12.374,37.495,12.028,37.167,11.933z"/>
	</g>
</g>

<g>
	<g>
		<g>
			<path fill="none" class="strokeColor" stroke="#000000" stroke-miterlimit="10" d="M39.081,18.964c0,0-4.245,2.403-5.848,3.364
				c0.481,3.605-3.284,3.685-3.284,3.685s-4.646-0.08-6.969,0c-2.403-0.721-3.925-2.403-3.925-2.403s0,0,3.925,0.801
				c0,0,5.046,0.16,7.53,0c2.643-1.121,1.041-2.243,0-2.553c0,0-1.202,0.07-2.964-0.01c-2.243,0.16-5.447-1.682-5.447-1.682
				s-1.041-1.121-3.364-2.563c-2.323-1.442-5.447-0.481-5.447-0.481L6.96,20.166v6.6c0,0,4.271-2.596,9.532,0.77
				c3.762,2.077,5.692,2.846,6.809,3.284c2.412,1.118,4.646,0,4.646,0s6.969-4.486,13.617-8.891
				c0.561-0.561,1.041-0.961,1.442-2.083C41.484,17.522,39.081,18.964,39.081,18.964z"/>
		</g>
	</g>
	<g>
		<g>
			<rect x="1.484" y="20.418" fill="none" class="strokeColor" stroke="#000000" stroke-miterlimit="10" width="3.587" height="6.768"/>
		</g>
	</g>
	<g>
		<path fill="none" class="strokeColor" stroke="#000000" stroke-width="0.5" stroke-miterlimit="10" d="M25.659,13.955
			c-0.07,0.244-0.325,0.385-0.567,0.316l-3.75-1.065c-0.243-0.069-0.386-0.325-0.317-0.569l0.844-2.974
			c0.071-0.244,0.325-0.386,0.571-0.317l3.749,1.065c0.244,0.07,0.385,0.325,0.317,0.569L25.659,13.955z"/>
		<path class="fillColor" d="M24.175,10.407l0.9,0.255l0.134,0.148l1.241,0.353l0.04-0.147l-1.194-0.34l-0.134-0.149l-0.71-0.201l0.095-0.333
			l-0.443-0.124l-0.094,0.333l-0.598-0.171l-0.03,0.015c-0.04,0.029-0.103,0.051-0.117,0.054c-0.057-0.025-0.344-0.106-1.123-0.317
			c-0.126-0.036-0.229-0.066-0.274-0.078l-0.042,0.147c0.046,0.013,0.149,0.042,0.274,0.078c0.342,0.096,1.049,0.291,1.108,0.314
			c0.063,0.026,0.154-0.005,0.229-0.047l0.227,0.065c-0.341,0.111-0.542,0.396-0.569,0.485l-0.077,0.28l-1.411-0.4l-0.042,0.147
			l1.402,0.398l-0.003,0.015c-0.026,0.089,0.015,0.172,0.055,0.255c0.036,0.074,0.07,0.147,0.05,0.214
			c-0.016,0.058-0.064,0.086-0.131,0.121c-0.067,0.037-0.141,0.08-0.182,0.164l-1.408-0.4l-0.043,0.148l1.403,0.398l-0.062,0.222
			c-0.071,0.245,0.015,0.54,0.229,0.766l-0.244-0.07c-0.041-0.076-0.102-0.148-0.169-0.16c-0.054-0.007-0.769-0.217-1.108-0.314
			c-0.125-0.036-0.228-0.065-0.272-0.078L21.039,12.6c0.044,0.012,0.147,0.042,0.271,0.079c0.776,0.227,1.063,0.31,1.123,0.318
			c0.02,0.014,0.054,0.063,0.073,0.108l0.015,0.028l0.598,0.17l-0.117,0.414l0.444,0.126l0.115-0.414l0.712,0.202l0.19-0.057
			l1.196,0.339l0.041-0.148l-1.231-0.349l-0.191,0.058l-0.333-0.095c0.315-0.101,0.536-0.341,0.58-0.497l0.072-0.258l1.335,0.38
			l0.042-0.148l-1.349-0.384c0.008-0.117-0.039-0.226-0.072-0.307c-0.016-0.036-0.037-0.09-0.035-0.098
			c0.025-0.096,0.071-0.115,0.129-0.147c0.063-0.029,0.146-0.069,0.202-0.213l1.336,0.379l0.041-0.148l-1.475-0.419l-0.02,0.074
			c-0.039,0.14-0.084,0.159-0.148,0.188c-0.077,0.036-0.158,0.076-0.211,0.236c-0.019,0.067,0.01,0.13,0.043,0.204
			c0.039,0.09,0.085,0.19,0.058,0.279l-0.093,0.332c-0.045,0.156-0.434,0.539-0.935,0.396c-0.539-0.153-0.72-0.611-0.643-0.884
			l0.096-0.333c0.012-0.051,0.05-0.072,0.126-0.108c0.075-0.042,0.17-0.095,0.206-0.22c0.035-0.126-0.021-0.237-0.059-0.327
			c-0.024-0.056-0.055-0.113-0.045-0.149l0.127-0.443C23.269,10.7,23.62,10.249,24.175,10.407z"/>
		<path class="fillColor" d="M36.872,11.392L21.272,6.898c-0.328-0.095-0.674,0.097-0.769,0.425l-0.446,1.548c0.029,0.011,0.053,0.026,0.078,0.041
			L20.72,9.08l0.265-0.919c0.095-0.328,0.441-0.52,0.769-0.425l14.177,4.084c0.328,0.095,0.52,0.441,0.425,0.769l-2.289,7.945
			c-0.095,0.328-0.441,0.52-0.769,0.425l-14.177-4.084c-0.328-0.095-0.52-0.441-0.425-0.769l1.145-3.972l-0.658-0.189l0.007-0.024
			l-0.01-0.003l-1.338,4.643c-0.095,0.328,0.097,0.674,0.425,0.769l15.599,4.494c0.328,0.095,0.674-0.097,0.769-0.425l2.661-9.236
			C37.391,11.833,37.2,11.487,36.872,11.392z"/>
	</g>
</g>
</svg>
