<?xml version="1.0" encoding="utf-8"?>
<!-- Generator: Adobe Illustrator 18.0.0, SVG Export Plug-In . SVG Version: 6.00 Build 0)  -->
<!DOCTYPE svg PUBLIC "-//W3C//DTD SVG 1.1//EN" "http://www.w3.org/Graphics/SVG/1.1/DTD/svg11.dtd">
<svg version="1.1" id="Layer_1" xmlns="http://www.w3.org/2000/svg" xmlns:xlink="http://www.w3.org/1999/xlink" x="0px" y="0px"
	 viewBox="0 0 45 45" enable-background="new 0 0 45 45" xml:space="preserve">
	<style type="text/css">
			@import "../default/default/svg.css";
	</style>
	 <script type="text/javascript">
         <![CDATA[
             if(window.parent && window.parent.Wincor && window.parent.Wincor.UI && window.parent.Wincor.UI.Content) {
                 let styleRes = window.parent.Wincor.UI.Content.StyleResourceResolver;
                 if(styleRes) {
                 	let style = document.getElementsByTagName("style")[0];
                   	style.innerHTML = style.innerHTML.replace("default/svg.css", styleRes.type() + "svg.css");
                    styleRes = null;
                 }
             }
         ]]>
    </script>
<g class="shadowGroup1">
	<rect x="3" y="28.2" width="10" height="2"/>
	<g>
		<path d="M3.1,21.7l0.6-1.8c1.4,0.5,2.4,0.9,3.1,1.3c-0.2-1.6-0.3-2.7-0.3-3.2h1.9c0,0.9-0.1,1.9-0.3,3.2c0.9-0.5,2-0.9,3.2-1.3
			l0.6,1.8c-1.1,0.4-2.3,0.6-3.3,0.7c0.5,0.5,1.3,1.3,2.3,2.5L9.3,26c-0.5-0.7-1.1-1.6-1.8-2.8c-0.7,1.2-1.2,2.2-1.7,2.8l-1.6-1.1
			c1-1.2,1.8-2.1,2.2-2.5C5.2,22.2,4.1,21.9,3.1,21.7z"/>
	</g>
	<g>
		<path d="M14.8,21.7l0.6-1.8c1.4,0.5,2.4,0.9,3.1,1.3c-0.2-1.6-0.3-2.7-0.3-3.2h1.9c0,0.9-0.1,1.9-0.3,3.2c0.9-0.5,2-0.9,3.2-1.3
			l0.6,1.8c-1.1,0.4-2.3,0.6-3.3,0.7c0.5,0.5,1.3,1.3,2.3,2.5L21,26c-0.5-0.7-1.1-1.6-1.8-2.8c-0.7,1.2-1.2,2.2-1.7,2.8l-1.6-1.1
			c1-1.2,1.8-2.1,2.2-2.5C16.9,22.2,15.8,21.9,14.8,21.7z"/>
	</g>
	<g>
		<path d="M25.8,21.7l0.6-1.8c1.4,0.5,2.4,0.9,3.1,1.3c-0.2-1.6-0.3-2.7-0.3-3.2h1.9c0,0.9-0.1,1.9-0.3,3.2c0.9-0.5,2-0.9,3.2-1.3
			l0.6,1.8c-1.1,0.4-2.3,0.6-3.3,0.7c0.5,0.5,1.3,1.3,2.3,2.5L32,26c-0.5-0.7-1.1-1.6-1.8-2.8c-0.7,1.2-1.2,2.2-1.7,2.8l-1.6-1.1
			c1-1.2,1.8-2.1,2.2-2.5C27.9,22.2,26.8,21.9,25.8,21.7z"/>
	</g>
	<g>
		<path d="M37.2,21.7l0.6-1.8c1.4,0.5,2.4,0.9,3.1,1.3c-0.2-1.6-0.3-2.7-0.3-3.2h1.9c0,0.9-0.1,1.9-0.3,3.2c0.9-0.5,2-0.9,3.2-1.3
			l0.6,1.8c-1.1,0.4-2.3,0.6-3.3,0.7c0.5,0.5,1.3,1.3,2.3,2.5L43.4,26c-0.5-0.7-1.1-1.6-1.8-2.8c-0.7,1.2-1.2,2.2-1.7,2.8l-1.6-1.1
			c1-1.2,1.8-2.1,2.2-2.5C39.3,22.2,38.2,21.9,37.2,21.7z"/>
	</g>
</g>
<g class="shadowGroup2">
	<rect x="2" y="27.2" width="10" height="2"/>
	<g>
		<path d="M2.1,20.7l0.6-1.8c1.4,0.5,2.4,0.9,3.1,1.3c-0.2-1.6-0.3-2.7-0.3-3.2h1.9c0,0.9-0.1,1.9-0.3,3.2c0.9-0.5,2-0.9,3.2-1.3
			l0.6,1.8c-1.1,0.4-2.3,0.6-3.3,0.7c0.5,0.5,1.3,1.3,2.3,2.5L8.3,25c-0.5-0.7-1.1-1.6-1.8-2.8c-0.7,1.2-1.2,2.2-1.7,2.8l-1.6-1.1
			c1-1.2,1.8-2.1,2.2-2.5C4.2,21.2,3.1,20.9,2.1,20.7z"/>
	</g>
	<g>
		<path d="M13.8,20.7l0.6-1.8c1.4,0.5,2.4,0.9,3.1,1.3c-0.2-1.6-0.3-2.7-0.3-3.2h1.9c0,0.9-0.1,1.9-0.3,3.2c0.9-0.5,2-0.9,3.2-1.3
			l0.6,1.8c-1.1,0.4-2.3,0.6-3.3,0.7c0.5,0.5,1.3,1.3,2.3,2.5L20,25c-0.5-0.7-1.1-1.6-1.8-2.8c-0.7,1.2-1.2,2.2-1.7,2.8l-1.6-1.1
			c1-1.2,1.8-2.1,2.2-2.5C15.9,21.2,14.8,20.9,13.8,20.7z"/>
	</g>
	<g>
		<path d="M24.8,20.7l0.6-1.8c1.4,0.5,2.4,0.9,3.1,1.3c-0.2-1.6-0.3-2.7-0.3-3.2h1.9c0,0.9-0.1,1.9-0.3,3.2c0.9-0.5,2-0.9,3.2-1.3
			l0.6,1.8c-1.1,0.4-2.3,0.6-3.3,0.7c0.5,0.5,1.3,1.3,2.3,2.5L31,25c-0.5-0.7-1.1-1.6-1.8-2.8c-0.7,1.2-1.2,2.2-1.7,2.8l-1.6-1.1
			c1-1.2,1.8-2.1,2.2-2.5C26.9,21.2,25.8,20.9,24.8,20.7z"/>
	</g>
	<g>
		<path d="M36.2,20.7l0.6-1.8c1.4,0.5,2.4,0.9,3.1,1.3c-0.2-1.6-0.3-2.7-0.3-3.2h1.9c0,0.9-0.1,1.9-0.3,3.2c0.9-0.5,2-0.9,3.2-1.3
			l0.6,1.8c-1.1,0.4-2.3,0.6-3.3,0.7c0.5,0.5,1.3,1.3,2.3,2.5L42.4,25c-0.5-0.7-1.1-1.6-1.8-2.8c-0.7,1.2-1.2,2.2-1.7,2.8l-1.6-1.1
			c1-1.2,1.8-2.1,2.2-2.5C38.3,21.2,37.2,20.9,36.2,20.7z"/>
	</g>
</g>
<g class="shadowGroup3">
	<rect x="1" y="26.2" width="10" height="2"/>
	<g>
		<path d="M1.1,19.7l0.6-1.8c1.4,0.5,2.4,0.9,3.1,1.3c-0.2-1.6-0.3-2.7-0.3-3.2h1.9c0,0.9-0.1,1.9-0.3,3.2c0.9-0.5,2-0.9,3.2-1.3
			l0.6,1.8c-1.1,0.4-2.3,0.6-3.3,0.7c0.5,0.5,1.3,1.3,2.3,2.5L7.3,24c-0.5-0.7-1.1-1.6-1.8-2.8c-0.7,1.2-1.2,2.2-1.7,2.8l-1.6-1.1
			c1-1.2,1.8-2.1,2.2-2.5C3.2,20.2,2.1,19.9,1.1,19.7z"/>
	</g>
	<g>
		<path d="M12.8,19.7l0.6-1.8c1.4,0.5,2.4,0.9,3.1,1.3c-0.2-1.6-0.3-2.7-0.3-3.2h1.9c0,0.9-0.1,1.9-0.3,3.2c0.9-0.5,2-0.9,3.2-1.3
			l0.6,1.8c-1.1,0.4-2.3,0.6-3.3,0.7c0.5,0.5,1.3,1.3,2.3,2.5L19,24c-0.5-0.7-1.1-1.6-1.8-2.8c-0.7,1.2-1.2,2.2-1.7,2.8l-1.6-1.1
			c1-1.2,1.8-2.1,2.2-2.5C14.9,20.2,13.8,19.9,12.8,19.7z"/>
	</g>
	<g>
		<path d="M23.8,19.7l0.6-1.8c1.4,0.5,2.4,0.9,3.1,1.3c-0.2-1.6-0.3-2.7-0.3-3.2h1.9c0,0.9-0.1,1.9-0.3,3.2c0.9-0.5,2-0.9,3.2-1.3
			l0.6,1.8c-1.1,0.4-2.3,0.6-3.3,0.7c0.5,0.5,1.3,1.3,2.3,2.5L30,24c-0.5-0.7-1.1-1.6-1.8-2.8c-0.7,1.2-1.2,2.2-1.7,2.8l-1.6-1.1
			c1-1.2,1.8-2.1,2.2-2.5C25.9,20.2,24.8,19.9,23.8,19.7z"/>
	</g>
	<g>
		<path d="M35.2,19.7l0.6-1.8c1.4,0.5,2.4,0.9,3.1,1.3c-0.2-1.6-0.3-2.7-0.3-3.2h1.9c0,0.9-0.1,1.9-0.3,3.2c0.9-0.5,2-0.9,3.2-1.3
			l0.6,1.8c-1.1,0.4-2.3,0.6-3.3,0.7c0.5,0.5,1.3,1.3,2.3,2.5L41.4,24c-0.5-0.7-1.1-1.6-1.8-2.8c-0.7,1.2-1.2,2.2-1.7,2.8l-1.6-1.1
			c1-1.2,1.8-2.1,2.2-2.5C37.3,20.2,36.2,19.9,35.2,19.7z"/>
	</g>
</g>
<g>
	<rect y="25.2" class="fillColor" width="10" height="2"/>
	<g>
		<path class="fillColor" d="M0.1,18.7l0.6-1.8c1.4,0.5,2.4,0.9,3.1,1.3c-0.2-1.6-0.3-2.7-0.3-3.2h1.9c0,0.9-0.1,1.9-0.3,3.2
			c0.9-0.5,2-0.9,3.2-1.3l0.6,1.8c-1.1,0.4-2.3,0.6-3.3,0.7c0.5,0.5,1.3,1.3,2.3,2.5L6.3,23c-0.5-0.7-1.1-1.6-1.8-2.8
			c-0.7,1.2-1.2,2.2-1.7,2.8l-1.6-1.1c1-1.2,1.8-2.1,2.2-2.5C2.2,19.2,1.1,18.9,0.1,18.7z"/>
	</g>
	<g>
		<path class="fillColor" d="M11.8,18.7l0.6-1.8c1.4,0.5,2.4,0.9,3.1,1.3c-0.2-1.6-0.3-2.7-0.3-3.2h1.9c0,0.9-0.1,1.9-0.3,3.2
			c0.9-0.5,2-0.9,3.2-1.3l0.6,1.8c-1.1,0.4-2.3,0.6-3.3,0.7c0.5,0.5,1.3,1.3,2.3,2.5L18,23c-0.5-0.7-1.1-1.6-1.8-2.8
			c-0.7,1.2-1.2,2.2-1.7,2.8l-1.6-1.1c1-1.2,1.8-2.1,2.2-2.5C13.9,19.2,12.8,18.9,11.8,18.7z"/>
	</g>
	<g>
		<path class="fillColor" d="M22.8,18.7l0.6-1.8c1.4,0.5,2.4,0.9,3.1,1.3c-0.2-1.6-0.3-2.7-0.3-3.2h1.9c0,0.9-0.1,1.9-0.3,3.2
			c0.9-0.5,2-0.9,3.2-1.3l0.6,1.8c-1.1,0.4-2.3,0.6-3.3,0.7c0.5,0.5,1.3,1.3,2.3,2.5L29,23c-0.5-0.7-1.1-1.6-1.8-2.8
			c-0.7,1.2-1.2,2.2-1.7,2.8l-1.6-1.1c1-1.2,1.8-2.1,2.2-2.5C24.9,19.2,23.8,18.9,22.8,18.7z"/>
	</g>
	<g>
		<path class="fillColor" d="M34.2,18.7l0.6-1.8c1.4,0.5,2.4,0.9,3.1,1.3c-0.2-1.6-0.3-2.7-0.3-3.2h1.9c0,0.9-0.1,1.9-0.3,3.2
			c0.9-0.5,2-0.9,3.2-1.3l0.6,1.8c-1.1,0.4-2.3,0.6-3.3,0.7c0.5,0.5,1.3,1.3,2.3,2.5L40.4,23c-0.5-0.7-1.1-1.6-1.8-2.8
			c-0.7,1.2-1.2,2.2-1.7,2.8l-1.6-1.1c1-1.2,1.8-2.1,2.2-2.5C36.3,19.2,35.2,18.9,34.2,18.7z"/>
	</g>
</g>
</svg>
