<?xml version="1.0" encoding="utf-8"?>
<!-- Generator: Adobe Illustrator 17.1.0, SVG Export Plug-In . SVG Version: 6.00 Build 0)  -->
<!DOCTYPE svg PUBLIC "-//W3C//DTD SVG 1.1//EN" "http://www.w3.org/Graphics/SVG/1.1/DTD/svg11.dtd">
<svg version="1.1" id="Layer_1" xmlns="http://www.w3.org/2000/svg" xmlns:xlink="http://www.w3.org/1999/xlink" x="0px" y="0px"
	 viewBox="0 0 45 45" enable-background="new 0 0 45 45" xml:space="preserve">

    <style type="text/css">
                    @import "../default/default/svg.css";
            </style>
             <script type="text/javascript">
                 <![CDATA[
                     if(window.parent && window.parent.Wincor && window.parent.Wincor.UI && window.parent.Wincor.UI.Content) {
                         let styleRes = window.parent.Wincor.UI.Content.StyleResourceResolver;
                         if(styleRes) {
                            let style = document.getElementsByTagName("style")[0];
                            if(style.innerHTML) {
                                style.innerHTML = style.innerHTML.replace("default/svg.css", styleRes.type() + "svg.css");
                            }
                            else {
                                style.textContent = style.textContent.replace("default/svg.css", styleRes.type() + "svg.css");
                            }
                            styleRes = null;
                         }
                     }
                 ]]>
            </script>

<g class="shadowGroup1">
	<path fill="none" stroke="#000000" stroke-miterlimit="10" d="M36.8,23.2l2.6-1.9l2,2l-2,2.5c0.7,1,1.1,2.1,1.4,3.3v0.1l3.2,0.5
		v2.8L40.8,33c-0.2,1.2-0.7,2.3-1.4,3.3v0.1l1.9,2.6l-2,2l-2.5-2c-1,0.7-2.1,1.1-3.3,1.4h-0.1L33,43.6h-2.9l-0.4-3.2
		c-1.2-0.2-2.3-0.7-3.3-1.4h-0.1l-2.6,1.9l-2-2l2-2.5c-0.7-1-1.1-2.1-1.4-3.3V33l-3.2-0.5v-2.9l3.2-0.4c0.2-1.2,0.7-2.3,1.4-3.3
		v-0.1l-1.9-2.5l2-2l2.5,2c1-0.7,2.1-1.1,3.3-1.4h0.1l0.5-3.2h2.8l0.4,3.2C34.7,22.1,35.8,22.6,36.8,23.2L36.8,23.2z"/>
	<circle fill="none" stroke="#000000" stroke-miterlimit="10" cx="31.6" cy="31.1" r="6.6"/>
</g>
<g class="shadowGroup1">
	<rect x="6" y="9" width="7" height="2"/>
	<line fill="none" stroke="#000000" stroke-miterlimit="10" x1="16" y1="14.5" x2="21" y2="14.5"/>
	<line fill="none" stroke="#000000" stroke-miterlimit="10" x1="12" y1="16.5" x2="21" y2="16.5"/>
	<line fill="none" stroke="#000000" stroke-miterlimit="10" x1="7" y1="21.5" x2="17" y2="21.5"/>
	<line fill="none" stroke="#000000" stroke-miterlimit="10" x1="7" y1="23.5" x2="17" y2="23.5"/>
	<line fill="none" stroke="#000000" stroke-miterlimit="10" x1="7" y1="25.5" x2="17" y2="25.5"/>
	<line fill="none" stroke="#000000" stroke-miterlimit="10" x1="7" y1="28.5" x2="17" y2="28.5"/>
	<line fill="none" stroke="#000000" stroke-miterlimit="10" x1="7" y1="30.5" x2="17" y2="30.5"/>
	<polygon points="18,35 17.6,34.4 16.1,37.6 14.5,35.2 13.1,37.6 11.5,36 10,37.6 8.3,35.2 5,37 5,6 25,6 25,21 26,21 26,5 4,5 
		4,39 5.3,38.2 8.1,36.2 9.3,38 9.9,38.8 10.5,38.1 11.5,37.2 12.4,38.1 13.1,38.8 13.6,38 14.5,36.6 15.5,38 16.3,39.2 16.9,38 
		18,36 	"/>
</g>
<g class="shadowGroup2">
	<path fill="none" stroke="#000000" stroke-miterlimit="10" d="M36.2,22.7l2.6-1.9l2,2l-2,2.5c0.7,1,1.1,2.1,1.4,3.3v0.1l3.2,0.5V32
		l-3.2,0.4c-0.2,1.2-0.7,2.3-1.4,3.3v0.1l1.9,2.6l-2,2l-2.5-2c-1,0.7-2.1,1.1-3.3,1.4h-0.1L32.3,43h-2.9L29,39.8
		c-1.2-0.2-2.3-0.7-3.3-1.4h-0.1l-2.6,1.9l-2-2l2-2.5c-0.7-1-1.1-2.1-1.4-3.3v-0.1l-3.2-0.5V29l3.2-0.4c0.2-1.2,0.7-2.3,1.4-3.3
		v-0.1l-1.9-2.5l2-2l2.5,2c1-0.7,2.1-1.1,3.3-1.4h0.1l0.5-3.2h2.8l0.4,3.2C34.1,21.6,35.2,21.9,36.2,22.7L36.2,22.7z"/>
	<circle fill="none" stroke="#000000" stroke-miterlimit="10" cx="31" cy="30.5" r="6.6"/>
</g>
<g class="shadowGroup2">
	<rect x="5" y="8" width="7" height="2"/>
	<line fill="none" stroke="#000000" stroke-miterlimit="10" x1="15" y1="13.5" x2="20" y2="13.5"/>
	<line fill="none" stroke="#000000" stroke-miterlimit="10" x1="11" y1="15.5" x2="20" y2="15.5"/>
	<line fill="none" stroke="#000000" stroke-miterlimit="10" x1="6" y1="20.5" x2="16" y2="20.5"/>
	<line fill="none" stroke="#000000" stroke-miterlimit="10" x1="6" y1="22.5" x2="16" y2="22.5"/>
	<line fill="none" stroke="#000000" stroke-miterlimit="10" x1="6" y1="24.5" x2="16" y2="24.5"/>
	<line fill="none" stroke="#000000" stroke-miterlimit="10" x1="6" y1="27.5" x2="16" y2="27.5"/>
	<line fill="none" stroke="#000000" stroke-miterlimit="10" x1="6" y1="29.5" x2="16" y2="29.5"/>
	<polygon points="17,34 16.6,33.4 15.1,36.6 13.5,34.2 12.1,36.6 10.5,35 9,36.6 7.3,34.2 4,36 4,5 24,5 24,20 25,20 25,4 3,4 3,38 
		4.3,37.2 7.1,35.2 8.3,37 8.9,37.8 9.5,37.1 10.5,36.2 11.4,37.1 12.1,37.8 12.6,37 13.5,35.6 14.5,37 15.3,38.2 15.9,37 17,35 	
		"/>
</g>
<g class="shadowGroup3">
	<path fill="none" stroke="#000000" stroke-miterlimit="10" d="M35.3,22.2l2.6-1.9l2,2l-2,2.5c0.7,1,1.1,2.1,1.4,3.3v0.1l3.2,0.5
		v2.8L39.3,32c-0.2,1.2-0.7,2.3-1.4,3.3v0.1l1.9,2.6l-2,2l-2.5-2c-1,0.7-2.1,1.1-3.3,1.4H32l-0.5,3.2h-2.9l-0.4-3.2
		c-1.2-0.2-2.3-0.7-3.3-1.4h-0.1l-2.6,1.9l-2-2l2-2.5c-0.7-1-1.1-2.1-1.4-3.3v-0.1l-3.2-0.5v-2.9l3.3-0.4c0.2-1.2,0.7-2.3,1.4-3.3
		v-0.1l-1.9-2.5l2-2l2.5,2c1-0.7,2.1-1.1,3.3-1.4h0.1l0.5-3.2h2.8l0.4,3.2C33.2,21.1,34.3,21.5,35.3,22.2L35.3,22.2z"/>
	<circle fill="none" stroke="#000000" stroke-miterlimit="10" cx="30.1" cy="30" r="6.6"/>
</g>
<g class="shadowGroup3">
	<rect x="4" y="7" width="7" height="2"/>
	<line fill="none" stroke="#000000" stroke-miterlimit="10" x1="14" y1="12.5" x2="19" y2="12.5"/>
	<line fill="none" stroke="#000000" stroke-miterlimit="10" x1="10" y1="14.5" x2="19" y2="14.5"/>
	<line fill="none" stroke="#000000" stroke-miterlimit="10" x1="5" y1="19.5" x2="15" y2="19.5"/>
	<line fill="none" stroke="#000000" stroke-miterlimit="10" x1="5" y1="21.5" x2="15" y2="21.5"/>
	<line fill="none" stroke="#000000" stroke-miterlimit="10" x1="5" y1="23.5" x2="15" y2="23.5"/>
	<line fill="none" stroke="#000000" stroke-miterlimit="10" x1="5" y1="26.5" x2="15" y2="26.5"/>
	<line fill="none" stroke="#000000" stroke-miterlimit="10" x1="5" y1="28.5" x2="15" y2="28.5"/>
	<polygon points="16,33 15.6,32.4 14.1,35.6 12.5,33.2 11.1,35.6 9.5,34 8,35.6 6.3,33.2 3,35 3,4 23,4 23,19 24,19 24,3 2,3 2,37 
		3.3,36.2 6.1,34.2 7.3,36 7.9,36.8 8.5,36.1 9.5,35.2 10.4,36.1 11.1,36.8 11.6,36 12.5,34.6 13.5,36 14.3,37.2 14.9,36 16,34 	"/>
</g>
<g>
	<path class="strokeColor" stroke-miterlimit="10" d="M34.7,21.6l2.6-1.9l2,2l-2,2.5c0.7,1,1.1,2.1,1.4,3.3v0.1l3.2,0.5
		v2.8l-3.2,0.4c-0.2,1.2-0.7,2.3-1.4,3.3v0.1l1.9,2.6l-2,2l-2.5-1.9c-1,0.7-2.1,1.1-3.3,1.4h-0.1L30.9,42h-2.9l-0.4-3.2
		c-1.2-0.2-2.3-0.7-3.3-1.4h-0.1l-2.6,1.9l-2-2l2-2.5c-0.7-1-1.1-2.1-1.4-3.3v-0.1l-3.2-0.5v-2.9l3.3-0.4c0.2-1.2,0.7-2.3,1.4-3.3
		v-0.1l-1.9-2.5l2-2l2.5,2c1-0.7,2.1-1.1,3.3-1.4h0.1l0.5-3.2H31l0.4,3.2C32.6,20.5,33.7,20.9,34.7,21.6L34.7,21.6z"/>
	<circle class="strokeColor" stroke-miterlimit="10" cx="29.5" cy="29.5" r="6.6"/>
</g>
<g>
	<rect x="3" y="6" class="fillColor" width="7" height="2"/>
	<line class="strokeColor" stroke-miterlimit="10" x1="13" y1="11.5" x2="18" y2="11.5"/>
	<line class="strokeColor" stroke-miterlimit="10" x1="9" y1="13.5" x2="18" y2="13.5"/>
	<line class="strokeColor" stroke-miterlimit="10" x1="4" y1="18.5" x2="14" y2="18.5"/>
	<line class="strokeColor" stroke-miterlimit="10" x1="4" y1="20.5" x2="14" y2="20.5"/>
	<line class="strokeColor" stroke-miterlimit="10" x1="4" y1="22.5" x2="14" y2="22.5"/>
	<line class="strokeColor" stroke-miterlimit="10" x1="4" y1="25.5" x2="14" y2="25.5"/>
	<line class="strokeColor" stroke-miterlimit="10" x1="4" y1="27.5" x2="14" y2="27.5"/>
	<polygon class="fillColor" points="15,32 14.6,31.4 13.1,34.6 11.5,32.2 10.1,34.6 8.5,33 7,34.6 5.3,32.2 2,34 2,3 22,3 22,18 23,18 
		23,2 1,2 1,36 2.3,35.2 5.1,33.2 6.3,35 6.9,35.8 7.5,35.1 8.5,34.2 9.4,35.1 10.1,35.8 10.6,35 11.5,33.6 12.5,35 13.3,36.2 
		13.9,35 15,33 	"/>
</g>
</svg>
