<?xml version="1.0" encoding="utf-8"?>
<!-- Generator: Adobe Illustrator 17.1.0, SVG Export Plug-In . SVG Version: 6.00 Build 0)  -->
<!DOCTYPE svg PUBLIC "-//W3C//DTD SVG 1.1//EN" "http://www.w3.org/Graphics/SVG/1.1/DTD/svg11.dtd">
<svg version="1.1" id="Layer_1" xmlns="http://www.w3.org/2000/svg" xmlns:xlink="http://www.w3.org/1999/xlink" x="0px" y="0px"
	 viewBox="0 0 45 45" enable-background="new 0 0 45 45" xml:space="preserve">

    <style type="text/css">
                    @import "../default/default/svg.css";
            </style>
             <script type="text/javascript">
                 <![CDATA[
                     if(window.parent && window.parent.Wincor && window.parent.Wincor.UI && window.parent.Wincor.UI.Content) {
                         let styleRes = window.parent.Wincor.UI.Content.StyleResourceResolver;
                         if(styleRes) {
                            let style = document.getElementsByTagName("style")[0];
                            if(style.innerHTML) {
                                style.innerHTML = style.innerHTML.replace("default/svg.css", styleRes.type() + "svg.css");
                            }
                            else {
                                style.textContent = style.textContent.replace("default/svg.css", styleRes.type() + "svg.css");
                            }
                            styleRes = null;
                         }
                     }
                 ]]>
            </script>

<g class="shadowGroup1">
	<rect x="26.6" y="8.5" fill="none" stroke="#000000" stroke-miterlimit="10" width="18" height="7"/>
	<polyline fill="none" stroke="#000000" stroke-miterlimit="10" points="26.6,20 26.6,17.5 44.6,17.5 44.6,21 	"/>
	<path fill="none" stroke="#000000" stroke-miterlimit="10" d="M24.5,20V8.5H9.9c0,1.8-1.1,3.2-3.4,3.4v14.6h11"/>
	<line fill="none" stroke="#000000" stroke-miterlimit="10" x1="5.1" y1="8.7" x2="8.1" y2="8.7"/>
	<line fill="none" stroke="#000000" stroke-miterlimit="10" x1="6.6" y1="10.2" x2="6.6" y2="7.2"/>
	<circle fill="none" stroke="#000000" stroke-miterlimit="10" cx="6.7" cy="8.7" r="3.2"/>
</g>
<g class="shadowGroup1">
	<path fill="none" stroke="#000000" stroke-miterlimit="10" d="M36.8,23.2l2.6-1.9l2,2l-2,2.5c0.7,1,1.1,2.1,1.4,3.3v0.1l3.2,0.5
		v2.8L40.8,33c-0.2,1.2-0.7,2.3-1.4,3.3v0.1l1.9,2.6l-2,2l-2.5-2c-1,0.7-2.1,1.1-3.3,1.4h-0.1L33,43.6h-2.9l-0.4-3.2
		c-1.2-0.2-2.3-0.7-3.3-1.4h-0.1l-2.6,1.9l-2-2l2-2.5c-0.7-1-1.1-2.1-1.4-3.3V33l-3.2-0.5v-2.9l3.2-0.4c0.2-1.2,0.7-2.3,1.4-3.3
		v-0.1l-1.9-2.5l2-2l2.5,2c1-0.7,2.1-1.1,3.3-1.4h0.1l0.5-3.2h2.8l0.4,3.2C34.7,22.1,35.8,22.6,36.8,23.2L36.8,23.2z"/>
	<circle fill="none" stroke="#000000" stroke-miterlimit="10" cx="31.6" cy="31.1" r="6.6"/>
</g>
<g class="shadowGroup2">
	<rect x="25.6" y="7.5" fill="none" stroke="#000000" stroke-miterlimit="10" width="18" height="7"/>
	<polyline fill="none" stroke="#000000" stroke-miterlimit="10" points="25.6,19 25.6,16.5 43.6,16.5 43.6,20 	"/>
	<path fill="none" stroke="#000000" stroke-miterlimit="10" d="M23.5,19V7.5H8.9c0,1.8-1.1,3.2-3.4,3.4v14.6h11"/>
	<line fill="none" stroke="#000000" stroke-miterlimit="10" x1="4.1" y1="7.7" x2="7.1" y2="7.7"/>
	<line fill="none" stroke="#000000" stroke-miterlimit="10" x1="5.6" y1="9.2" x2="5.6" y2="6.2"/>
	<circle fill="none" stroke="#000000" stroke-miterlimit="10" cx="5.7" cy="7.7" r="3.2"/>
</g>
<g class="shadowGroup2">
	<path fill="none" stroke="#000000" stroke-miterlimit="10" d="M36.2,22.7l2.6-1.9l2,2l-2,2.5c0.7,1,1.1,2.1,1.4,3.3v0.1l3.2,0.5V32
		l-3.2,0.4c-0.2,1.2-0.7,2.3-1.4,3.3v0.1l1.9,2.6l-2,2l-2.5-2c-1,0.7-2.1,1.1-3.3,1.4h-0.1L32.3,43h-2.9L29,39.8
		c-1.2-0.2-2.3-0.7-3.3-1.4h-0.1l-2.6,1.9l-2-2l2-2.5c-0.7-1-1.1-2.1-1.4-3.3v-0.1l-3.2-0.5V29l3.2-0.4c0.2-1.2,0.7-2.3,1.4-3.3
		v-0.1l-1.9-2.5l2-2l2.5,2c1-0.7,2.1-1.1,3.3-1.4h0.1l0.5-3.2h2.8l0.4,3.2C34.1,21.6,35.2,21.9,36.2,22.7L36.2,22.7z"/>
	<circle fill="none" stroke="#000000" stroke-miterlimit="10" cx="31" cy="30.5" r="6.6"/>
</g>
<g class="shadowGroup3">
	<rect x="24.6" y="6.5" fill="none" stroke="#000000" stroke-miterlimit="10" width="18" height="7"/>
	<polyline fill="none" stroke="#000000" stroke-miterlimit="10" points="24.6,18 24.6,15.5 42.6,15.5 42.6,19 	"/>
	<path fill="none" stroke="#000000" stroke-miterlimit="10" d="M22.5,18V6.5H7.9c0,1.8-1.1,3.2-3.4,3.4v14.6h11"/>
	<line fill="none" stroke="#000000" stroke-miterlimit="10" x1="3.1" y1="6.7" x2="6.1" y2="6.7"/>
	<line fill="none" stroke="#000000" stroke-miterlimit="10" x1="4.6" y1="8.2" x2="4.6" y2="5.2"/>
	<circle fill="none" stroke="#000000" stroke-miterlimit="10" cx="4.7" cy="6.7" r="3.2"/>
</g>
<g class="shadowGroup3">
	<path fill="none" stroke="#000000" stroke-miterlimit="10" d="M35.3,22.2l2.6-1.9l2,2l-2,2.5c0.7,1,1.1,2.1,1.4,3.3v0.1l3.2,0.5
		v2.8L39.3,32c-0.2,1.2-0.7,2.3-1.4,3.3v0.1l1.9,2.6l-2,2l-2.5-2c-1,0.7-2.1,1.1-3.3,1.4H32l-0.5,3.2h-2.9l-0.4-3.2
		c-1.2-0.2-2.3-0.7-3.3-1.4h-0.1l-2.6,1.9l-2-2l2-2.5c-0.7-1-1.1-2.1-1.4-3.3v-0.1l-3.2-0.5v-2.9l3.3-0.4c0.2-1.2,0.7-2.3,1.4-3.3
		v-0.1l-1.9-2.5l2-2l2.5,2c1-0.7,2.1-1.1,3.3-1.4h0.1l0.5-3.2h2.8l0.4,3.2C33.2,21.1,34.3,21.5,35.3,22.2L35.3,22.2z"/>
	<circle fill="none" stroke="#000000" stroke-miterlimit="10" cx="30.1" cy="30" r="6.6"/>
</g>
<g>
	<rect x="23.6" y="5.5" class="strokeColor" stroke-miterlimit="10" width="18" height="7"/>
	<polyline class="strokeColor" stroke-miterlimit="10" points="23.6,17 23.6,14.5 41.6,14.5 41.6,18 	"/>
	<path class="strokeColor" stroke-miterlimit="10" d="M21.5,17V5.5H6.9c0,1.8-1.1,3.2-3.4,3.4v14.6h11"/>
	<line class="strokeColor" stroke-miterlimit="10" x1="2.1" y1="5.7" x2="5.1" y2="5.7"/>
	<line class="strokeColor" stroke-miterlimit="10" x1="3.6" y1="7.2" x2="3.6" y2="4.2"/>
	<circle class="strokeColor" stroke-miterlimit="10" cx="3.7" cy="5.7" r="3.2"/>
</g>
<g>
	<path class="strokeColor" stroke-miterlimit="10" d="M34.7,21.6l2.6-1.9l2,2l-2,2.5c0.7,1,1.1,2.1,1.4,3.3v0.1l3.2,0.5
		v2.8l-3.2,0.4c-0.2,1.2-0.7,2.3-1.4,3.3v0.1l1.9,2.6l-2,2l-2.5-1.9c-1,0.7-2.1,1.1-3.3,1.4h-0.1L30.9,42h-2.9l-0.4-3.2
		c-1.2-0.2-2.3-0.7-3.3-1.4h-0.1l-2.6,1.9l-2-2l2-2.5c-0.7-1-1.1-2.1-1.4-3.3v-0.1l-3.2-0.5v-2.9l3.3-0.4c0.2-1.2,0.7-2.3,1.4-3.3
		v-0.1l-1.9-2.5l2-2l2.5,2c1-0.7,2.1-1.1,3.3-1.4h0.1l0.5-3.2H31l0.4,3.2C32.6,20.5,33.7,20.9,34.7,21.6L34.7,21.6z"/>
	<circle class="strokeColor" stroke-miterlimit="10" cx="29.5" cy="29.5" r="6.6"/>
</g>
</svg>
