<?xml version="1.0" encoding="utf-8"?>
<!-- Generator: Adobe Illustrator 17.1.0, SVG Export Plug-In . SVG Version: 6.00 Build 0)  -->
<!DOCTYPE svg PUBLIC "-//W3C//DTD SVG 1.1//EN" "http://www.w3.org/Graphics/SVG/1.1/DTD/svg11.dtd">
<svg version="1.1" id="Layer_1" xmlns="http://www.w3.org/2000/svg" xmlns:xlink="http://www.w3.org/1999/xlink" x="0px" y="0px"
	 viewBox="0 0 45 45" enable-background="new 0 0 45 45" xml:space="preserve">

    <style type="text/css">
                @import "../default/default/svg.css";
        </style>
         <script type="text/javascript">
                <![CDATA[
                    if(window.parent && window.parent.Wincor && window.parent.Wincor.UI && window.parent.Wincor.UI.Content) {
                        let styleRes = window.parent.Wincor.UI.Content.StyleResourceResolver;
                        if(styleRes) {
                            let style = document.getElementsByTagName("style")[0];
                            if(style.innerHTML) {
                            style.innerHTML = style.innerHTML.replace("default/svg.css", styleRes.type() + "svg.css");
                           }
                           else {
                            style.textContent = style.textContent.replace("default/svg.css", styleRes.type() + "svg.css");
                           }
                           styleRes = null;
                        }
                    }
                ]]>
           </script>

<g class="shadowGroup1">
	<path fill="none" stroke="#000000" stroke-miterlimit="10" d="M19,33.6c-9.2,0-15.5-6.7-15.5-15.1S10.2,3.5,18.6,3.5
		S33.6,10,33.6,19.1"/>
	<path fill="none" stroke="#000000" stroke-miterlimit="10" d="M17.8,3.5c0,0-7.9,5.2-7.9,15.1c0,10.3,7.9,15.1,7.9,15.1"/>
	<path fill="none" stroke="#000000" stroke-miterlimit="10" d="M27.3,18.6c0-10.3-7.9-15.1-7.9-15.1"/>
	<line fill="none" stroke="#000000" stroke-miterlimit="10" x1="3.5" y1="18.6" x2="33.6" y2="18.6"/>
	<line fill="none" stroke="#000000" stroke-miterlimit="10" x1="5.1" y1="11.4" x2="32" y2="11.4"/>
	<line fill="none" stroke="#000000" stroke-miterlimit="10" x1="5.1" y1="25.7" x2="18.6" y2="25.7"/>
	<line fill="none" stroke="#000000" stroke-miterlimit="10" x1="18.6" y1="3.5" x2="18.6" y2="33.6"/>
</g>
<g class="shadowGroup1">
	<path fill="none" stroke="#000000" stroke-miterlimit="10" d="M36.8,23.2l2.6-1.9l2,2l-2,2.5c0.7,1,1.1,2.1,1.4,3.3v0.1l3.2,0.5
		v2.8L40.8,33c-0.2,1.2-0.7,2.3-1.4,3.3v0.1l1.9,2.6l-2,2l-2.5-2c-1,0.7-2.1,1.1-3.3,1.4h-0.1L33,43.6h-2.9l-0.4-3.2
		c-1.2-0.2-2.3-0.7-3.3-1.4h-0.1l-2.6,1.9l-2-2l2-2.5c-0.7-1-1.1-2.1-1.4-3.3V33l-3.2-0.5v-2.9l3.2-0.4c0.2-1.2,0.7-2.3,1.4-3.3
		v-0.1l-1.9-2.5l2-2l2.5,2c1-0.7,2.1-1.1,3.3-1.4h0.1l0.5-3.2h2.8l0.4,3.2C34.7,22.1,35.8,22.6,36.8,23.2L36.8,23.2z"/>
	<circle fill="none" stroke="#000000" stroke-miterlimit="10" cx="31.6" cy="31.1" r="6.6"/>
</g>
<g class="shadowGroup2">
	<path fill="none" stroke="#000000" stroke-miterlimit="10" d="M18,32.6c-9.2,0-15.5-6.7-15.5-15.1S9.2,2.5,17.6,2.5
		S32.6,9,32.6,18.1"/>
	<path fill="none" stroke="#000000" stroke-miterlimit="10" d="M16.8,2.5c0,0-7.9,5.2-7.9,15.1c0,10.3,7.9,15.1,7.9,15.1"/>
	<path fill="none" stroke="#000000" stroke-miterlimit="10" d="M26.3,17.6c0-10.3-7.9-15.1-7.9-15.1"/>
	<line fill="none" stroke="#000000" stroke-miterlimit="10" x1="2.5" y1="17.6" x2="32.6" y2="17.6"/>
	<line fill="none" stroke="#000000" stroke-miterlimit="10" x1="4.1" y1="10.4" x2="31" y2="10.4"/>
	<line fill="none" stroke="#000000" stroke-miterlimit="10" x1="4.1" y1="24.7" x2="17.6" y2="24.7"/>
	<line fill="none" stroke="#000000" stroke-miterlimit="10" x1="17.6" y1="2.5" x2="17.6" y2="32.6"/>
</g>
<g class="shadowGroup2">
	<path fill="none" stroke="#000000" stroke-miterlimit="10" d="M36.2,22.7l2.6-1.9l2,2l-2,2.5c0.7,1,1.1,2.1,1.4,3.3v0.1l3.2,0.5V32
		l-3.2,0.4c-0.2,1.2-0.7,2.3-1.4,3.3v0.1l1.9,2.6l-2,2l-2.5-2c-1,0.7-2.1,1.1-3.3,1.4h-0.1L32.3,43h-2.9L29,39.8
		c-1.2-0.2-2.3-0.7-3.3-1.4h-0.1l-2.6,1.9l-2-2l2-2.5c-0.7-1-1.1-2.1-1.4-3.3v-0.1l-3.2-0.5V29l3.2-0.4c0.2-1.2,0.7-2.3,1.4-3.3
		v-0.1l-1.9-2.5l2-2l2.5,2c1-0.7,2.1-1.1,3.3-1.4h0.1l0.5-3.2h2.8l0.4,3.2C34.1,21.6,35.2,21.9,36.2,22.7L36.2,22.7z"/>
	<circle fill="none" stroke="#000000" stroke-miterlimit="10" cx="31" cy="30.5" r="6.6"/>
</g>
<g class="shadowGroup3">
	<path fill="none" stroke="#000000" stroke-miterlimit="10" d="M17,31.6c-9.2,0-15.5-6.7-15.5-15.1S8.2,1.5,16.6,1.5
		S31.6,8,31.6,17.1"/>
	<path fill="none" stroke="#000000" stroke-miterlimit="10" d="M15.8,1.5c0,0-7.9,5.2-7.9,15.1c0,10.3,7.9,15.1,7.9,15.1"/>
	<path fill="none" stroke="#000000" stroke-miterlimit="10" d="M25.3,16.6c0-10.3-7.9-15.1-7.9-15.1"/>
	<line fill="none" stroke="#000000" stroke-miterlimit="10" x1="1.5" y1="16.6" x2="31.6" y2="16.6"/>
	<line fill="none" stroke="#000000" stroke-miterlimit="10" x1="3.1" y1="9.4" x2="30" y2="9.4"/>
	<line fill="none" stroke="#000000" stroke-miterlimit="10" x1="3.1" y1="23.7" x2="16.6" y2="23.7"/>
	<line fill="none" stroke="#000000" stroke-miterlimit="10" x1="16.6" y1="1.5" x2="16.6" y2="31.6"/>
</g>
<g class="shadowGroup3">
	<path fill="none" stroke="#000000" stroke-miterlimit="10" d="M35.3,22.2l2.6-1.9l2,2l-2,2.5c0.7,1,1.1,2.1,1.4,3.3v0.1l3.2,0.5
		v2.8L39.3,32c-0.2,1.2-0.7,2.3-1.4,3.3v0.1l1.9,2.6l-2,2l-2.5-2c-1,0.7-2.1,1.1-3.3,1.4H32l-0.5,3.2h-2.9l-0.4-3.2
		c-1.2-0.2-2.3-0.7-3.3-1.4h-0.1l-2.6,1.9l-2-2l2-2.5c-0.7-1-1.1-2.1-1.4-3.3v-0.1l-3.2-0.5v-2.9l3.3-0.4c0.2-1.2,0.7-2.3,1.4-3.3
		v-0.1l-1.9-2.5l2-2l2.5,2c1-0.7,2.1-1.1,3.3-1.4h0.1l0.5-3.2h2.8l0.4,3.2C33.2,21.1,34.3,21.5,35.3,22.2L35.3,22.2z"/>
	<circle fill="none" stroke="#000000" stroke-miterlimit="10" cx="30.1" cy="30" r="6.6"/>
</g>
<g>
	<path class="strokeColor" stroke-miterlimit="10" d="M34.7,21.6l2.6-1.9l2,2l-2,2.5c0.7,1,1.1,2.1,1.4,3.3v0.1l3.2,0.5
		v2.8l-3.2,0.4c-0.2,1.2-0.7,2.3-1.4,3.3v0.1l1.9,2.6l-2,2l-2.5-1.9c-1,0.7-2.1,1.1-3.3,1.4h-0.1L30.9,42h-2.9l-0.4-3.2
		c-1.2-0.2-2.3-0.7-3.3-1.4h-0.1l-2.6,1.9l-2-2l2-2.5c-0.7-1-1.1-2.1-1.4-3.3v-0.1l-3.2-0.5v-2.9l3.3-0.4c0.2-1.2,0.7-2.3,1.4-3.3
		v-0.1l-1.9-2.5l2-2l2.5,2c1-0.7,2.1-1.1,3.3-1.4h0.1l0.5-3.2H31l0.4,3.2C32.6,20.5,33.7,20.9,34.7,21.6L34.7,21.6z"/>
	<circle class="strokeColor" stroke-miterlimit="10" cx="29.5" cy="29.5" r="6.6"/>
</g>
<g>
	<path class="strokeColor" stroke-miterlimit="10" d="M16,30.6c-9.2,0-15.5-6.7-15.5-15.1S7.2,0.5,15.6,0.5
		S30.6,7,30.6,16.1"/>
	<path class="strokeColor" stroke-miterlimit="10" d="M14.8,0.5c0,0-7.9,5.2-7.9,15.1c0,10.3,7.9,15.1,7.9,15.1"/>
	<path class="strokeColor" stroke-miterlimit="10" d="M24.3,15.6c0-10.3-7.9-15.1-7.9-15.1"/>
	<line class="strokeColor" stroke-miterlimit="10" x1="0.5" y1="15.6" x2="30.6" y2="15.6"/>
	<line class="strokeColor" stroke-miterlimit="10" x1="2.1" y1="8.4" x2="29" y2="8.4"/>
	<line class="strokeColor" stroke-miterlimit="10" x1="2.1" y1="22.7" x2="15.6" y2="22.7"/>
	<line class="strokeColor" stroke-miterlimit="10" x1="15.6" y1="0.5" x2="15.6" y2="30.6"/>
</g>
</svg>
