<?xml version="1.0" encoding="utf-8"?>
<!-- Generator: Adobe Illustrator 17.1.0, SVG Export Plug-In . SVG Version: 6.00 Build 0)  -->
<!DOCTYPE svg PUBLIC "-//W3C//DTD SVG 1.1//EN" "http://www.w3.org/Graphics/SVG/1.1/DTD/svg11.dtd">
<svg version="1.1" id="Layer_1" xmlns="http://www.w3.org/2000/svg" xmlns:xlink="http://www.w3.org/1999/xlink" x="0px" y="0px"
	 viewBox="0 0 45 45" enable-background="new 0 0 45 45" xml:space="preserve">

	 	 	 	 	 	 	<style type="text/css">
                              			@import "../default/default/svg.css";
                              	</style>
                              	 <script type="text/javascript">
                                       <![CDATA[
                                           if(window.parent && window.parent.Wincor && window.parent.Wincor.UI && window.parent.Wincor.UI.Content) {
                                               let styleRes = window.parent.Wincor.UI.Content.StyleResourceResolver;
                                               if(styleRes) {
                                               	let style = document.getElementsByTagName("style")[0];
                                               	if(style.innerHTML) {
                                                  	style.innerHTML = style.innerHTML.replace("default/svg.css", styleRes.type() + "svg.css");
                                                  }
                                                  else {
                                                  	style.textContent = style.textContent.replace("default/svg.css", styleRes.type() + "svg.css");
                                                  }
                                                styleRes = null;
                                               }
                                           }
                                       ]]>
                                  </script>

<g class="shadowGroup1">
	<path d="M22,16.9c-1.7-0.3-3-1.7-3-3.4c0-1.9,1.6-3.5,3.5-3.5c0.9,0,1.8,0.4,2.4,1h1.3c-0.8-1.2-2.2-2-3.7-2C20,9,18,11,18,13.5
		c0,2.3,1.7,4.2,4,4.4V16.9z"/>
	<rect x="16" y="19" width="13" height="1"/>
	<rect x="27" y="16" width="15" height="1"/>
	<rect x="23" y="14" width="23" height="1"/>
	<rect x="25" y="12" width="19" height="1"/>
	<polygon points="21,23 4,23 4,6 40,6 40,11 41,11 41,5 3,5 3,24 21,24 	"/>
	<path d="M21,21H9.2c0.2-0.4,0.4-0.8,0.4-1.3c0-1.3-1-2.3-2.3-2.3c-0.5,0-0.9,0.1-1.3,0.4v-6.6c0.4,0.2,0.8,0.4,1.3,0.4
		c1.3,0,2.3-1,2.3-2.3c0-0.5-0.1-0.9-0.4-1.3h25.6c-0.2,0.4-0.4,0.8-0.4,1.3c0,1.3,1,2.3,2.3,2.3c0.6,0,1.2-0.2,1.6-0.6H39V7H5v15
		h16V21z"/>
</g>
<g class="shadowGroup1">
	<path fill="none" stroke="#000000" stroke-miterlimit="10" d="M36.8,23.2l2.6-1.9l2,2l-2,2.5c0.7,1,1.1,2.1,1.4,3.3v0.1l3.2,0.5
		v2.8L40.8,33c-0.2,1.2-0.7,2.3-1.4,3.3v0.1l1.9,2.6l-2,2l-2.5-2c-1,0.7-2.1,1.1-3.3,1.4h-0.1L33,43.6h-2.9l-0.4-3.2
		c-1.2-0.2-2.3-0.7-3.3-1.4h-0.1l-2.6,1.9l-2-2l2-2.5c-0.7-1-1.1-2.1-1.4-3.3V33l-3.2-0.5v-2.9l3.2-0.4c0.2-1.2,0.7-2.3,1.4-3.3
		v-0.1l-1.9-2.5l2-2l2.5,2c1-0.7,2.1-1.1,3.3-1.4h0.1l0.5-3.2h2.8l0.4,3.2C34.7,22.1,35.8,22.6,36.8,23.2L36.8,23.2z"/>
	<circle fill="none" stroke="#000000" stroke-miterlimit="10" cx="31.6" cy="31.1" r="6.6"/>
</g>
<g class="shadowGroup2">
	<path d="M21,15.9c-1.7-0.3-3-1.7-3-3.4c0-1.9,1.6-3.5,3.5-3.5c0.9,0,1.8,0.4,2.4,1h1.3c-0.8-1.2-2.2-2-3.7-2C19,8,17,10,17,12.5
		c0,2.3,1.7,4.2,4,4.4V15.9z"/>
	<rect x="15" y="18" width="13" height="1"/>
	<rect x="26" y="15" width="15" height="1"/>
	<rect x="22" y="13" width="23" height="1"/>
	<rect x="24" y="11" width="19" height="1"/>
	<polygon points="20,22 3,22 3,5 39,5 39,10 40,10 40,4 2,4 2,23 20,23 	"/>
	<path d="M20,20H8.2c0.2-0.4,0.4-0.8,0.4-1.3c0-1.3-1-2.3-2.3-2.3c-0.5,0-0.9,0.1-1.3,0.4v-6.6c0.4,0.2,0.8,0.4,1.3,0.4
		c1.3,0,2.3-1,2.3-2.3c0-0.5-0.1-0.9-0.4-1.3h25.6c-0.2,0.4-0.4,0.8-0.4,1.3c0,1.3,1,2.3,2.3,2.3c0.6,0,1.2-0.2,1.6-0.6H38V6H4v15
		h16V20z"/>
</g>
<g class="shadowGroup2">
	<path fill="none" stroke="#000000" stroke-miterlimit="10" d="M36.2,22.7l2.6-1.9l2,2l-2,2.5c0.7,1,1.1,2.1,1.4,3.3v0.1l3.2,0.5V32
		l-3.2,0.4c-0.2,1.2-0.7,2.3-1.4,3.3v0.1l1.9,2.6l-2,2l-2.5-2c-1,0.7-2.1,1.1-3.3,1.4h-0.1L32.3,43h-2.9L29,39.8
		c-1.2-0.2-2.3-0.7-3.3-1.4h-0.1l-2.6,1.9l-2-2l2-2.5c-0.7-1-1.1-2.1-1.4-3.3v-0.1l-3.2-0.5V29l3.2-0.4c0.2-1.2,0.7-2.3,1.4-3.3
		v-0.1l-1.9-2.5l2-2l2.5,2c1-0.7,2.1-1.1,3.3-1.4h0.1l0.5-3.2h2.8l0.4,3.2C34.1,21.6,35.2,21.9,36.2,22.7L36.2,22.7z"/>
	<circle fill="none" stroke="#000000" stroke-miterlimit="10" cx="31" cy="30.5" r="6.6"/>
</g>
<g class="shadowGroup3">
	<path d="M20,14.9c-1.7-0.3-3-1.7-3-3.4C17,9.6,18.6,8,20.5,8c0.9,0,1.8,0.4,2.4,1h1.3c-0.8-1.2-2.2-2-3.7-2C18,7,16,9,16,11.5
		c0,2.3,1.7,4.2,4,4.4V14.9z"/>
	<rect x="14" y="17" width="13" height="1"/>
	<rect x="25" y="14" width="15" height="1"/>
	<rect x="21" y="12" width="23" height="1"/>
	<rect x="23" y="10" width="19" height="1"/>
	<polygon points="19,21 2,21 2,4 38,4 38,9 39,9 39,3 1,3 1,22 19,22 	"/>
	<path d="M19,19H7.2c0.2-0.4,0.4-0.8,0.4-1.3c0-1.3-1-2.3-2.3-2.3c-0.5,0-0.9,0.1-1.3,0.4V9.2c0.4,0.2,0.8,0.4,1.3,0.4
		c1.3,0,2.3-1,2.3-2.3c0-0.5-0.1-0.9-0.4-1.3h25.6c-0.2,0.4-0.4,0.8-0.4,1.3c0,1.3,1,2.3,2.3,2.3c0.6,0,1.2-0.2,1.6-0.6H37V5H3v15
		h16V19z"/>
</g>
<g class="shadowGroup3">
	<path fill="none" stroke="#000000" stroke-miterlimit="10" d="M35.3,22.2l2.6-1.9l2,2l-2,2.5c0.7,1,1.1,2.1,1.4,3.3v0.1l3.2,0.5
		v2.8L39.3,32c-0.2,1.2-0.7,2.3-1.4,3.3v0.1l1.9,2.6l-2,2l-2.5-2c-1,0.7-2.1,1.1-3.3,1.4H32l-0.5,3.2h-2.9l-0.4-3.2
		c-1.2-0.2-2.3-0.7-3.3-1.4h-0.1l-2.6,1.9l-2-2l2-2.5c-0.7-1-1.1-2.1-1.4-3.3v-0.1l-3.2-0.5v-2.9l3.3-0.4c0.2-1.2,0.7-2.3,1.4-3.3
		v-0.1l-1.9-2.5l2-2l2.5,2c1-0.7,2.1-1.1,3.3-1.4h0.1l0.5-3.2h2.8l0.4,3.2C33.2,21.1,34.3,21.5,35.3,22.2L35.3,22.2z"/>
	<circle fill="none" stroke="#000000" stroke-miterlimit="10" cx="30.1" cy="30" r="6.6"/>
</g>
<g>
	<path class="fillColor" d="M19,13.9c-1.7-0.3-3-1.7-3-3.4C16,8.6,17.6,7,19.5,7c0.9,0,1.8,0.4,2.4,1h1.3c-0.8-1.2-2.2-2-3.7-2
		C17,6,15,8,15,10.5c0,2.3,1.7,4.2,4,4.4V13.9z"/>
	<rect x="13" y="16" class="fillColor" width="13" height="1"/>
	<rect x="24" y="13" class="fillColor" width="15" height="1"/>
	<rect x="20" y="11" class="fillColor" width="23" height="1"/>
	<rect x="22" y="9" class="fillColor" width="19" height="1"/>
	<polygon class="fillColor" points="18,20 1,20 1,3 37,3 37,8 38,8 38,2 0,2 0,21 18,21 	"/>
	<path class="fillColor" d="M18,18H6.2c0.2-0.4,0.4-0.8,0.4-1.3c0-1.3-1-2.3-2.3-2.3c-0.5,0-0.9,0.1-1.3,0.4V8.2
		c0.4,0.2,0.8,0.4,1.3,0.4c1.3,0,2.3-1,2.3-2.3c0-0.5-0.1-0.9-0.4-1.3h25.6c-0.2,0.4-0.4,0.8-0.4,1.3c0,1.3,1,2.3,2.3,2.3
		c0.6,0,1.2-0.2,1.6-0.6H36V4H2v15h16V18z"/>
</g>
<g>
	<path class="strokeColor" stroke-miterlimit="10" d="M34.7,21.6l2.6-1.9l2,2l-2,2.5c0.7,1,1.1,2.1,1.4,3.3v0.1l3.2,0.5
		v2.8l-3.2,0.4c-0.2,1.2-0.7,2.3-1.4,3.3v0.1l1.9,2.6l-2,2l-2.5-1.9c-1,0.7-2.1,1.1-3.3,1.4h-0.1L30.9,42h-2.9l-0.4-3.2
		c-1.2-0.2-2.3-0.7-3.3-1.4h-0.1l-2.6,1.9l-2-2l2-2.5c-0.7-1-1.1-2.1-1.4-3.3v-0.1l-3.2-0.5v-2.9l3.3-0.4c0.2-1.2,0.7-2.3,1.4-3.3
		v-0.1l-1.9-2.5l2-2l2.5,2c1-0.7,2.1-1.1,3.3-1.4h0.1l0.5-3.2H31l0.4,3.2C32.6,20.5,33.7,20.9,34.7,21.6L34.7,21.6z"/>
	<circle class="strokeColor" stroke-miterlimit="10" cx="29.5" cy="29.5" r="6.6"/>
</g>
</svg>
