<?xml version="1.0" encoding="utf-8"?>
<!-- Generator: Adobe Illustrator 18.0.0, SVG Export Plug-In . SVG Version: 6.00 Build 0)  -->
<!DOCTYPE svg PUBLIC "-//W3C//DTD SVG 1.1//EN" "http://www.w3.org/Graphics/SVG/1.1/DTD/svg11.dtd">
<svg version="1.1" id="Layer_2" xmlns="http://www.w3.org/2000/svg" xmlns:xlink="http://www.w3.org/1999/xlink" x="0px" y="0px"
	 viewBox="0 0 45 45" enable-background="new 0 0 45 45" xml:space="preserve">
	<style type="text/css">
			@import "../default/default/svg.css";
	</style>
	 <script type="text/javascript">
         <![CDATA[
             if(window.parent && window.parent.Wincor && window.parent.Wincor.UI && window.parent.Wincor.UI.Content) {
                 let styleRes = window.parent.Wincor.UI.Content.StyleResourceResolver;
                 if(styleRes) {
                 	let style = document.getElementsByTagName("style")[0];
                   	style.innerHTML = style.innerHTML.replace("default/svg.css", styleRes.type() + "svg.css");
                    styleRes = null;
                 }
             }
         ]]>
    </script>
<g class="shadowGroup1">
	<rect x="20" y="39"  width="3" height="3"/>
	<polygon  points="30,30 30,37 13,37 13,7 30,7 30,14 31,14 31,6 12,6 12,38 31,38 31,30 	"/>
	<polygon  points="32,30 32,44 11,44 11,5 32,5 32,14 33,14 33,4 10,4 10,45 33,45 33,30 	"/>
	<text transform="matrix(1 0 0 1 24 29)" font-size="20">€</text>
</g>
<g class="shadowGroup2">
	<rect x="19" y="38"  width="3" height="3"/>
	<polygon  points="29,29 29,36 12,36 12,6 29,6 29,13 30,13 30,5 11,5 11,37 30,37 30,29 	"/>
	<polygon  points="31,29 31,43 10,43 10,4 31,4 31,13 32,13 32,3 9,3 9,44 32,44 32,29 	"/>
	<text transform="matrix(1 0 0 1 23 28)" font-size="20">€</text>
</g>
<g class="shadowGroup3">
	<rect x="18" y="37"  width="3" height="3"/>
	<polygon  points="28,28 28,35 11,35 11,5 28,5 28,12 29,12 29,4 10,4 10,36 29,36 29,28 	"/>
	<polygon  points="30,28 30,42 9,42 9,3 30,3 30,12 31,12 31,2 8,2 8,43 31,43 31,28 	"/>
	<text transform="matrix(1 0 0 1 22 27)" font-size="20">€</text>
</g>
<g>
	<rect x="17" y="36" class="fillColor" width="3" height="3"/>
	<polygon class="fillColor" points="27,27 27,34 10,34 10,4 27,4 27,11 28,11 28,3 9,3 9,35 28,35 28,27 	"/>
	<polygon class="fillColor" points="29,27 29,41 8,41 8,2 29,2 29,11 30,11 30,1 7,1 7,42 30,42 30,27 	"/>
	<text transform="matrix(1 0 0 1 21 26)" class="fillColor" font-size="20">€</text>
</g>
</svg>
