<?xml version="1.0" encoding="utf-8"?>
<!-- Generator: Adobe Illustrator 17.1.0, SVG Export Plug-In . SVG Version: 6.00 Build 0)  -->
<!DOCTYPE svg PUBLIC "-//W3C//DTD SVG 1.1//EN" "http://www.w3.org/Graphics/SVG/1.1/DTD/svg11.dtd">
<svg version="1.1" id="Layer_1" xmlns="http://www.w3.org/2000/svg" xmlns:xlink="http://www.w3.org/1999/xlink" x="0px" y="0px"
	 viewBox="0 0 110 180" enable-background="new 0 0 110 180" xml:space="preserve">
	  <style type="text/css">
                  @import "../default/default/svg.css";
      </style>
<rect id="BG_8_" x="4" y="1" fill="#FFFFFF" width="102" height="177"/>
<rect id="noteColorAll" x="5" y="3" opacity="8.000000e-02" fill="#1264FF"  width="100" height="174"/>
<rect id="noteColorMiddle" x="5" y="39" opacity="0.5" fill="#1264FF"  width="100" height="100"/>
<g opacity="0.3">
	
		<circle fill="none" stroke="#FFFFFF" stroke-width="3" stroke-miterlimit="10" stroke-dasharray="6.9392,6.9392" cx="54" cy="90" r="33.1"/>
</g>
<g>
	<text id="noteCurrencyName" transform="matrix(4.489659e-11 1 -1 4.489659e-11 14.5215 41.0001)">euro</text>
</g>
<rect id="stripe" x="9" y="41" fill="#1264FF" width="4" height="80"/>
<rect id="block" x="85" y="8" fill="#436EB3" width="13" height="21"/>
<rect x="76.4" y="96.8" fill="none" width="27.6" height="81.2"/>
<text id="noteValueRight" class="fillColor05" transform="matrix(4.489659e-11 1 -1 4.489659e-11 75 176.9996)"></text>

<rect x="4" y="1" fill="none" width="19.6" height="47.8"/>
<text id="noteValueLeft" class="fillColor05" transform="matrix(4.489659e-11 1 -1 4.489659e-11 10 4)"></text>
<path opacity="0.3"  d="M107,1H3v178h104V1z M4,178V2h102v176H4z"/>
<path opacity="0.5"  d="M106,2H4v176h102V2z M5,177V3h100v174H5z"/>
<path opacity="0.1"  d="M108,0L2,0v180h106V0z M3,179V1h104v178H3z"/>
<script type="text/javascript">
        <![CDATA[
            let id = this.frameElement.id;
            let noteColorClass = "euroNote_neutral", stripeColorClass = "euroNoteStripe_neutral", blockColorClass = "euroFlag";
            if(id && !isNaN(id)) {
                document.getElementById("noteValueLeft").textContent = id / 100;
                document.getElementById("noteValueRight").textContent = id / 100;
                switch(id) {
                    case "500": noteColorClass = "euroNote_5"; stripeColorClass = "euroNoteStripe_5"; break;
                    case "1000": noteColorClass = "euroNote_10"; stripeColorClass = "euroNoteStripe_10"; break;
                    case "2000": noteColorClass = "euroNote_20"; stripeColorClass = "euroNoteStripe_20"; break;
                    case "5000": noteColorClass = "euroNote_50"; stripeColorClass = "euroNoteStripe_50"; break;
                    case "10000": noteColorClass = "euroNote_100"; stripeColorClass = "euroNoteStripe_100"; break;
                    case "20000": noteColorClass = "euroNote_200"; stripeColorClass = "euroNoteStripe_200"; break;
                    case "50000": noteColorClass = "euroNote_500"; stripeColorClass = "euroNoteStripe_500"; break;
                }
            }
            document.getElementById("noteColorAll").setAttribute("class", noteColorClass);
            document.getElementById("noteColorMiddle").setAttribute("class", noteColorClass);
            document.getElementById("stripe").setAttribute("class", stripeColorClass);
            document.getElementById("block").setAttribute("class", blockColorClass);
        ]]>
    </script>
</svg>
