<?xml version="1.0" encoding="utf-8"?>
<!-- Generator: Adobe Illustrator 18.0.0, SVG Export Plug-In . SVG Version: 6.00 Build 0)  -->
<!DOCTYPE svg PUBLIC "-//W3C//DTD SVG 1.1//EN" "http://www.w3.org/Graphics/SVG/1.1/DTD/svg11.dtd">
<svg version="1.1" id="Layer_1" xmlns="http://www.w3.org/2000/svg" xmlns:xlink="http://www.w3.org/1999/xlink" x="0px" y="0px"
	 viewBox="0 0 45 45" enable-background="new 0 0 45 45" xml:space="preserve">
	<style type="text/css">
			@import "../default/default/svg.css";
	</style>
	 <script type="text/javascript">
         <![CDATA[
             if(window.parent && window.parent.Wincor && window.parent.Wincor.UI && window.parent.Wincor.UI.Content) {
                 let styleRes = window.parent.Wincor.UI.Content.StyleResourceResolver;
                 if(styleRes) {
                 	let style = document.getElementsByTagName("style")[0];
                   	style.innerHTML = style.innerHTML.replace("default/svg.css", styleRes.type() + "svg.css");
                    styleRes = null;
                 }
             }
         ]]>
    </script>
<g class="shadowGroup1">
	<line fill="none" stroke="#000000" stroke-miterlimit="10"  x1="5" y1="19" x2="29" y2="19"/>
	<polyline fill="none" stroke="#000000" stroke-miterlimit="10"  points="13.5,10.5 5,19 13.5,27.5 	"/>
	<line fill="none" stroke="#000000" stroke-miterlimit="10"  x1="44" y1="29" x2="20" y2="29"/>
	<polyline fill="none" stroke="#000000" stroke-miterlimit="10"  points="35.5,37.5 44,29 35.5,20.6
		"/>
</g>
<g class="shadowGroup2">
	<line fill="none" stroke="#000000" stroke-miterlimit="10"  x1="4" y1="18" x2="28" y2="18"/>
	<polyline fill="none" stroke="#000000" stroke-miterlimit="10"  points="12.5,9.5 4,18 12.5,26.5 	"/>
	<line fill="none" stroke="#000000" stroke-miterlimit="10"  x1="43" y1="28" x2="19" y2="28"/>
	<polyline fill="none" stroke="#000000" stroke-miterlimit="10"  points="34.5,36.5 43,28 34.5,19.6
		"/>
</g>
<g class="shadowGroup3">
	<line fill="none" stroke="#000000" stroke-miterlimit="10"  x1="3" y1="17" x2="27" y2="17"/>
	<polyline fill="none" stroke="#000000" stroke-miterlimit="10"  points="11.5,8.5 3,17 11.5,25.5 	"/>
	<line fill="none" stroke="#000000" stroke-miterlimit="10"  x1="42" y1="27" x2="18" y2="27"/>
	<polyline fill="none" stroke="#000000" stroke-miterlimit="10"  points="33.5,35.5 42,27 33.5,18.6
		"/>
</g>
<g>
	<line class="strokeColor" stroke-miterlimit="10" x1="2" y1="16" x2="26" y2="16"/>
	<polyline class="strokeColor" stroke-miterlimit="10" points="10.5,7.5 2,16 10.5,24.5 	"/>
	<line class="strokeColor" stroke-miterlimit="10" x1="41" y1="26" x2="17" y2="26"/>
	<polyline class="strokeColor" stroke-miterlimit="10" points="32.5,34.5 41,26 32.5,17.6 	"/>
</g>
</svg>
