<?xml version="1.0" encoding="utf-8"?>
<!-- Generator: Adobe Illustrator 23.0.2, SVG Export Plug-In . SVG Version: 6.00 Build 0)  -->
<svg version="1.1" id="video-conference" xmlns="http://www.w3.org/2000/svg" xmlns:xlink="http://www.w3.org/1999/xlink" x="0px" y="0px"
	 viewBox="0 0 579 448" enable-background="new 0 0 579 448" xml:space="preserve">
<rect y="1" fill="#FFFFFF" width="579" height="446.7"/>
<path fill="none" stroke="#030304" stroke-width="6" stroke-miterlimit="10" d="M239.9,437.7"/>
<path fill="#FFFFFF" stroke="#000000" stroke-width="18" stroke-miterlimit="10" d="M491.5,346.9H88.4c-6.6,0-11.8-7.6-11.8-16.9
	V78.1c0-9.4,5.3-17,11.8-17h403.1c6.6,0,11.8,7.6,11.8,17v251.7C503.3,339.3,498,346.9,491.5,346.9z"/>
<ellipse fill="#030304" cx="292.1" cy="166.3" rx="48.8" ry="50.1"/>
<path fill="#030304" d="M340.3,346.9H244c-9.5,0-17-7.6-17-16.9v-64.2c0-9.5,7.7-17,17-17h96.3c9.4,0,16.9,7.7,16.9,17V330
	C357.2,339.3,349.7,346.9,340.3,346.9z"/>
<rect x="227" y="287.8" fill="#030304" width="130.2" height="59.1"/>
<path fill="none" d="M224.5,162.1c23.3,0,46.5,0,69.8,0c21.9,0,43.8,0,65.7,0"/>
<path fill="none" stroke="#030304" stroke-width="6" stroke-miterlimit="10" d="M224.5,154.8c3-36,32.3-63.9,66.6-64.4
	c35.5-0.6,66.1,28.2,68.7,65.4"/>
<path fill="none" stroke="#030304" stroke-width="6" stroke-miterlimit="10" d="M316.4,376.8"/>
<path fill="none" stroke="#030304" stroke-width="6" stroke-miterlimit="10" d="M238.4,367.3"/>
<path fill="none" stroke="#030304" stroke-width="6" stroke-miterlimit="10" d="M343.8,357"/>
<path fill="#030304" d="M228.5,191.7h-8.1c-4.7,0-8.6-3.8-8.6-8.6v-27.3c0-4.6,3.8-8.5,8.6-8.5h8.1c4.7,0,8.5,3.8,8.5,8.5v27.3
	C237,187.9,233.2,191.7,228.5,191.7z"/>
<path fill="#030304" d="M363.9,191.7h-8.1c-4.6,0-8.5-3.8-8.5-8.6v-27.3c0-4.6,3.8-8.5,8.5-8.5h8.1c4.6,0,8.6,3.8,8.6,8.5v27.3
	C372.3,187.9,368.6,191.7,363.9,191.7z"/>
<path fill="none" d="M289.5,232.5c8.3,4.3,15.3,5.3,20.3,5.3c78.8,0.8,39.1-42.4,50.1-68.3"/>
<path fill="none" stroke="#030304" stroke-width="4.5" stroke-miterlimit="10" d="M359.9,162.1c0.4,2.7,7.2,41.4-20.1,59.1
	c-18.6,12.2-41.3,7.1-47.3,5.4"/>
<path fill="#030304" d="M309.5,224.5v5.7c0,3.3-3,6-6.8,6h-21.5c-3.6,0-6.8-2.7-6.8-6v-5.7c0-3.3,3-6,6.8-6h21.5
	C306.5,218.5,309.5,221.2,309.5,224.5z"/>
<rect x="272.8" y="288.9" fill="#030304" width="1.8" height="2.7"/>
<path stroke="#000000" stroke-width="9" stroke-miterlimit="10" d="M395.3,421.9H187.8c-2.8,0-5.3-2.4-5.3-5.3v-27.1
	c0-2.9,2.4-5.3,5.3-5.3h207.5c2.9,0,5.3,2.4,5.3,5.3v27.1C400.6,419.5,398.2,421.9,395.3,421.9z"/>
<line fill="none" stroke="#000000" stroke-width="30" stroke-miterlimit="10" x1="290.8" y1="346" x2="290.8" y2="412"/>
</svg>
