<?xml version="1.0" encoding="utf-8"?>
<!-- Generator: Adobe Illustrator 18.0.0, SVG Export Plug-In . SVG Version: 6.00 Build 0)  -->
<!DOCTYPE svg PUBLIC "-//W3C//DTD SVG 1.1//EN" "http://www.w3.org/Graphics/SVG/1.1/DTD/svg11.dtd">
<svg version="1.1" id="Layer_1" xmlns="http://www.w3.org/2000/svg" xmlns:xlink="http://www.w3.org/1999/xlink" x="0px" y="0px"
	 viewBox="0 0 45 45" enable-background="new 0 0 45 45" xml:space="preserve">
	 
	  <style type="text/css">
			@import "../default/default/svg.css";
	</style>
	 <script type="text/javascript">
         <![CDATA[
             if(window.parent && window.parent.Wincor && window.parent.Wincor.UI && window.parent.Wincor.UI.Content) {
                 let styleRes = window.parent.Wincor.UI.Content.StyleResourceResolver;
                 if(styleRes) {
                 	let style = document.getElementsByTagName("style")[0];
                   	style.innerHTML = style.innerHTML.replace("default/svg.css", styleRes.type() + "svg.css");
                    styleRes = null;
                 }
             }
         ]]>
    </script>
	
<g class="shadowGroup1">
	<rect x="3.675" y="12.097" fill="none" stroke="#000000" stroke-miterlimit="10" width="40.18" height="20.223"/>
	<path d="M11.865,15.851c0,0,1.391-1.717,3.303-1.286c0.205,0.833,0.456,2.468,0.437,3.381c-0.29,0.608-0.212,1.04-3.564,0.108
		c0.791,0.619,2.403,2.114,2.839,3.453c-0.576-0.242-1.536-0.438-1.672-0.59c-0.458,0.615-1.03,1.374-1.03,1.374
		c-0.109-0.897,0.03-1.786-1.263-3.007c-0.467,0.863-0.619,2.088-0.619,3.041c-0.39-0.439-1.079-0.636-1.278-1.093
		c-0.377,0.215-1.275,0.532-1.628,0.835c-0.218-1.175,2.118-3.652,2.118-3.652s-2.208,1.634-3.239,1.174
		c-0.69-1.932-0.872-2.677-0.789-3.494c1.147-0.517,2.1-0.489,3.93,0.342C10.223,15.934,11.865,15.851,11.865,15.851z"/>
	<rect x="10.393" y="11.664" width="1.516" height="21.088"/>
	<rect x="3.675" y="17.376" width="40.18" height="1.378"/>
</g>
<g class="shadowGroup2">
	<rect x="3.22" y="11.664" fill="none" stroke="#000000" stroke-miterlimit="10" width="40.18" height="20.223"/>
	<path d="M11.41,15.419c0,0,1.391-1.717,3.303-1.286c0.205,0.833,0.456,2.468,0.437,3.381c-0.29,0.608-0.212,1.04-3.564,0.108
		c0.791,0.619,2.403,2.114,2.839,3.453c-0.576-0.242-1.536-0.438-1.672-0.59c-0.458,0.615-1.03,1.374-1.03,1.374
		c-0.109-0.897,0.03-1.786-1.263-3.007c-0.467,0.863-0.619,2.088-0.619,3.041c-0.39-0.439-1.079-0.636-1.278-1.093
		c-0.377,0.215-1.275,0.532-1.628,0.835c-0.218-1.175,2.118-3.652,2.118-3.652s-2.208,1.634-3.239,1.174
		c-0.69-1.932-0.872-2.677-0.789-3.494c1.147-0.517,2.1-0.489,3.93,0.342C9.768,15.501,11.41,15.419,11.41,15.419z"/>
	<rect x="9.938" y="11.232" width="1.516" height="21.088"/>
	<rect x="3.22" y="16.944" width="40.18" height="1.378"/>
</g>
<g class="shadowGroup3">
	<rect x="2.627" y="11.232" fill="none" stroke="#000000" stroke-miterlimit="10" width="40.18" height="20.223"/>
	<path d="M10.817,14.986c0,0,1.391-1.717,3.303-1.286c0.205,0.833,0.456,2.468,0.437,3.381c-0.29,0.608-0.212,1.04-3.564,0.108
		c0.791,0.619,2.403,2.114,2.839,3.453c-0.576-0.242-1.536-0.438-1.672-0.59c-0.458,0.615-1.03,1.374-1.03,1.374
		c-0.109-0.897,0.03-1.786-1.263-3.007c-0.467,0.863-0.619,2.088-0.619,3.041c-0.39-0.439-1.079-0.636-1.278-1.093
		c-0.377,0.215-1.275,0.532-1.628,0.835c-0.218-1.175,2.118-3.652,2.118-3.652s-2.208,1.634-3.239,1.174
		c-0.69-1.932-0.872-2.677-0.789-3.494c1.147-0.517,2.1-0.489,3.93,0.342C9.175,15.069,10.817,14.986,10.817,14.986z"/>
	<rect x="9.345" y="10.8" width="1.516" height="21.088"/>
	<rect x="2.627" y="16.511" width="40.18" height="1.378"/>
</g>

<g>
	<rect x="1.687" y="10.367" fill="none" class="strokeColor" stroke="#000000" stroke-miterlimit="10" width="40.18" height="20.223"/>
	<path class="fillColor" d="M9.876,14.122c0,0,1.391-1.717,3.303-1.286c0.205,0.833,0.456,2.468,0.437,3.381c-0.29,0.608-0.212,1.04-3.564,0.108
		c0.791,0.619,2.403,2.114,2.839,3.453c-0.576-0.242-1.536-0.438-1.672-0.59c-0.458,0.615-1.03,1.374-1.03,1.374
		c-0.109-0.897,0.03-1.786-1.263-3.007c-0.467,0.863-0.619,2.088-0.619,3.041c-0.39-0.439-1.079-0.636-1.278-1.093
		c-0.377,0.215-1.275,0.532-1.628,0.835c-0.218-1.175,2.118-3.652,2.118-3.652s-2.208,1.634-3.239,1.174
		c-0.69-1.932-0.872-2.677-0.789-3.494c1.147-0.517,2.1-0.489,3.93,0.342C8.235,14.204,9.876,14.122,9.876,14.122z"/>
	<rect class="fillColor" x="8.405" y="9.935" width="1.516" height="21.088"/>
	<rect class="fillColor" x="1.687" y="15.647" width="40.18" height="1.378"/>
</g>
</svg>
