<?xml version="1.0" encoding="utf-8"?>
<!-- Generator: Adobe Illustrator 18.0.0, SVG Export Plug-In . SVG Version: 6.00 Build 0)  -->
<!DOCTYPE svg PUBLIC "-//W3C//DTD SVG 1.1//EN" "http://www.w3.org/Graphics/SVG/1.1/DTD/svg11.dtd">
<svg version="1.1" id="Layer_1" xmlns="http://www.w3.org/2000/svg" xmlns:xlink="http://www.w3.org/1999/xlink" x="0px" y="0px"
	 viewBox="0 0 45 45" enable-background="new 0 0 45 45" xml:space="preserve">
	<style type="text/css">
			@import "../default/default/svg.css";
	</style>
	 <script type="text/javascript">
         <![CDATA[
             if(window.parent && window.parent.Wincor && window.parent.Wincor.UI && window.parent.Wincor.UI.Content) {
                 let styleRes = window.parent.Wincor.UI.Content.StyleResourceResolver;
                 if(styleRes) {
                 	let style = document.getElementsByTagName("style")[0];
                   	style.innerHTML = style.innerHTML.replace("default/svg.css", styleRes.type() + "svg.css");
                    styleRes = null;
                 }
             }
         ]]>
    </script>
<g class="shadowGroup1">
	<path d="M20.3,16.8c1.6,0,2.9,1.3,2.9,2.9s-1.3,2.9-2.9,2.9s-2.9-1.3-2.9-2.9C17.4,18.2,18.8,16.8,20.3,16.8 M20.3,16
		c-2.1,0-3.7,1.6-3.7,3.7s1.6,3.7,3.7,3.7s3.7-1.6,3.7-3.7C24,17.6,22.4,16,20.3,16L20.3,16z"/>
	<polygon points="27.2,27 4.2,27 4.2,13 35.2,13 35.2,19 36.2,19 36.2,12 3.2,12 3.2,27.8 27.2,27.9 	"/>
	<path  d="M34.4,32.8c-3.4,0-6.2-2.8-6.2-6.2c0-3.4,2.8-6.2,6.2-6.2c3.4,0,6.2,2.8,6.2,6.2
		C40.6,30,37.8,32.8,34.4,32.8z M34.4,21.6c-2.8,0-5,2.2-5,5c0,2.8,2.2,5,5,5c2.8,0,5-2.2,5-5C39.4,23.8,37.1,21.6,34.4,21.6z"/>
	<path  d="M38.8,36c-2.4,0-4.7-1.5-5.7-3.7l1.1-0.5c0.8,1.8,2.6,3,4.6,3c2.8,0,5-2.2,5-5
		c0-2.5-1.8-4.6-4.3-4.9l0.2-1.2c3,0.4,5.3,3.1,5.3,6.1C45,33.2,42.2,36,38.8,36z"/>
	<circle  cx="34.4" cy="26.7" r="2.9"/>
	<path d="M5.2,14v12h22v-1v-1h-14v1H8.8c0.2-0.3,0.4-0.7,0.4-1.1c0-1-0.9-1.9-1.9-1.9c-0.4,0-0.8,0.1-1.1,0.4v-4.8
		c0.3,0.1,0.6,0.2,0.9,0.2c1,0,1.9-0.9,1.9-1.9c0-0.3-0.1-0.6-0.2-0.9h21.8c-0.2,0.3-0.4,0.7-0.4,1.1c0,1,0.9,1.9,1.9,1.9
		c0.4,0,0.8-0.1,1.1-0.4V19h1v-5H5.2z"/>
	<path  d="M36.3,31.8c-1,0,1.6,1.2,2.6,1.2c1.9,0,3.4-1.5,3.4-3.4c0-1.5-0.9-2.7-2.2-3.2
		C40,29.3,38.8,31.7,36.3,31.8z"/>
</g>
<g class="shadowGroup2">
	<path d="M19.3,15.8c1.6,0,2.9,1.3,2.9,2.9s-1.3,2.9-2.9,2.9s-2.9-1.3-2.9-2.9C16.4,17.2,17.8,15.8,19.3,15.8 M19.3,15
		c-2.1,0-3.7,1.6-3.7,3.7s1.6,3.7,3.7,3.7s3.7-1.6,3.7-3.7C23,16.6,21.4,15,19.3,15L19.3,15z"/>
	<polygon points="26.2,26 3.2,26 3.2,12 34.2,12 34.2,18 35.2,18 35.2,11 2.2,11 2.2,26.9 26.2,26.9 	"/>
	<path d="M4.2,13v12h22v-1v-1h-14v1H7.8c0.2-0.3,0.4-0.7,0.4-1.1c0-1-0.9-1.9-1.9-1.9c-0.4,0-0.8,0.1-1.1,0.4v-4.8
		c0.3,0.1,0.6,0.2,0.9,0.2c1,0,1.9-0.9,1.9-1.9c0-0.3-0.1-0.6-0.2-0.9h21.8c-0.2,0.3-0.4,0.7-0.4,1.1c0,1,0.9,1.9,1.9,1.9
		c0.4,0,0.8-0.1,1.1-0.4V18h1v-5H4.2z"/>
	<path  d="M33.4,31.8c-3.4,0-6.2-2.8-6.2-6.2c0-3.4,2.8-6.2,6.2-6.2c3.4,0,6.2,2.8,6.2,6.2
		C39.6,29,36.8,31.8,33.4,31.8z M33.4,20.6c-2.8,0-5,2.2-5,5c0,2.8,2.2,5,5,5c2.8,0,5-2.2,5-5C38.4,22.8,36.1,20.6,33.4,20.6z"/>
	<path  d="M37.8,35c-2.4,0-4.7-1.5-5.7-3.7l1.1-0.5c0.8,1.8,2.6,3,4.6,3c2.8,0,5-2.2,5-5
		c0-2.5-1.8-4.6-4.3-4.9l0.2-1.2c3,0.4,5.3,3.1,5.3,6.1C44,32.2,41.2,35,37.8,35z"/>
	<circle  cx="33.4" cy="25.7" r="2.9"/>
	<path  d="M35.3,30.8c-1,0,1.6,1.2,2.6,1.2c1.9,0,3.4-1.5,3.4-3.4c0-1.5-0.9-2.7-2.2-3.2
		C39,28.3,37.8,30.7,35.3,30.8z"/>
</g>
<g class="shadowGroup3">
	<path d="M18.3,14.8c1.6,0,2.9,1.3,2.9,2.9s-1.3,2.9-2.9,2.9s-2.9-1.3-2.9-2.9C15.4,16.2,16.8,14.8,18.3,14.8 M18.3,14
		c-2.1,0-3.7,1.6-3.7,3.7s1.6,3.7,3.7,3.7s3.7-1.6,3.7-3.7C22,15.6,20.4,14,18.3,14L18.3,14z"/>
	<polygon points="25.2,25 2.2,25 2.2,11 33.2,11 33.2,17 34.2,17 34.2,10 1.2,10 1.2,25.9 25.2,25.9 	"/>
	<path d="M3.2,12v12h22v-1v-1h-14v1H6.8c0.2-0.3,0.4-0.7,0.4-1.1c0-1-0.9-1.9-1.9-1.9c-0.4,0-0.8,0.1-1.1,0.4v-4.8
		c0.3,0.1,0.6,0.2,0.9,0.2c1,0,1.9-0.9,1.9-1.9c0-0.3-0.1-0.6-0.2-0.9h21.8c-0.2,0.3-0.4,0.7-0.4,1.1c0,1,0.9,1.9,1.9,1.9
		c0.4,0,0.8-0.1,1.1-0.4V17h1v-5H3.2z"/>
	<path  d="M32.4,30.8c-3.4,0-6.2-2.8-6.2-6.2c0-3.4,2.8-6.2,6.2-6.2c3.4,0,6.2,2.8,6.2,6.2
		C38.6,28,35.8,30.8,32.4,30.8z M32.4,19.6c-2.8,0-5,2.2-5,5c0,2.8,2.2,5,5,5c2.8,0,5-2.2,5-5C37.4,21.8,35.1,19.6,32.4,19.6z"/>
	<path  d="M36.8,34c-2.4,0-4.7-1.5-5.7-3.7l1.1-0.5c0.8,1.8,2.6,3,4.6,3c2.8,0,5-2.2,5-5
		c0-2.5-1.8-4.6-4.3-4.9l0.2-1.2c3,0.4,5.3,3.1,5.3,6.1C43,31.2,40.2,34,36.8,34z"/>
	<circle  cx="32.4" cy="24.7" r="2.9"/>
	<path  d="M34.3,29.8c-1,0,1.6,1.2,2.6,1.2c1.9,0,3.4-1.5,3.4-3.4c0-1.5-0.9-2.7-2.2-3.2
		C38,27.3,36.8,29.7,34.3,29.8z"/>
</g>
<g>
	<path class="fillColor" d="M17.1,13.8c1.6,0,2.9,1.3,2.9,2.9s-1.3,2.9-2.9,2.9s-2.9-1.3-2.9-2.9C14.2,15.2,15.6,13.8,17.1,13.8
		 M17.1,13c-2.1,0-3.7,1.6-3.7,3.7s1.6,3.7,3.7,3.7s3.7-1.6,3.7-3.7C20.8,14.6,19.2,13,17.1,13L17.1,13z"/>
	<polygon class="fillColor" points="24,24 1,24 1,10 32,10 32,16 33,16 33,9 0,9 0,24.9 24,24.9 	"/>
	<path class="fillColor" d="M2,11v12h22v-1v-1H10v1H5.6C5.9,21.7,6,21.3,6,20.9c0-1-0.9-1.9-1.9-1.9c-0.4,0-0.8,0.1-1.1,0.4v-4.8
		c0.3,0.1,0.6,0.2,0.9,0.2c1,0,1.9-0.9,1.9-1.9c0-0.3-0.1-0.6-0.2-0.9h21.8c-0.2,0.3-0.4,0.7-0.4,1.1c0,1,0.9,1.9,1.9,1.9
		c0.4,0,0.8-0.1,1.1-0.4V16h1v-5H2z"/>
	<path class="fillColor" d="M31.2,29.8c-3.4,0-6.2-2.8-6.2-6.2c0-3.4,2.8-6.2,6.2-6.2c3.4,0,6.2,2.8,6.2,6.2
		C37.4,27,34.6,29.8,31.2,29.8z M31.2,18.6c-2.8,0-5,2.2-5,5c0,2.8,2.2,5,5,5c2.8,0,5-2.2,5-5C36.2,20.8,33.9,18.6,31.2,18.6z"/>
	<path class="fillColor" d="M35.6,33c-2.4,0-4.7-1.5-5.7-3.7l1.1-0.5c0.8,1.8,2.6,3,4.6,3c2.8,0,5-2.2,5-5c0-2.5-1.8-4.6-4.3-4.9
		l0.2-1.2c3,0.4,5.3,3.1,5.3,6.1C41.8,30.2,39,33,35.6,33z"/>
	<circle class="fillColor" cx="31.2" cy="23.7" r="2.9"/>
	<path class="fillColor" d="M33.1,28.8c-1,0,1.6,1.2,2.6,1.2c1.9,0,3.4-1.5,3.4-3.4c0-1.5-0.9-2.7-2.2-3.2
		C36.8,26.3,35.6,28.7,33.1,28.8z"/>
</g>
</svg>
