<?xml version="1.0" encoding="utf-8"?>
<!-- Generator: Adobe Illustrator 18.0.0, SVG Export Plug-In . SVG Version: 6.00 Build 0)  -->
<!DOCTYPE svg PUBLIC "-//W3C//DTD SVG 1.1//EN" "http://www.w3.org/Graphics/SVG/1.1/DTD/svg11.dtd">
<svg version="1.1" id="Layer_1" xmlns="http://www.w3.org/2000/svg" xmlns:xlink="http://www.w3.org/1999/xlink" x="0px" y="0px"
	 viewBox="0 0 45 45" enable-background="new 0 0 45 45" xml:space="preserve">
	<style type="text/css">
			@import "../default/default/svg.css";
	</style>
	 <script type="text/javascript">
         <![CDATA[
             if(window.parent && window.parent.Wincor && window.parent.Wincor.UI && window.parent.Wincor.UI.Content) {
                 let styleRes = window.parent.Wincor.UI.Content.StyleResourceResolver;
                 if(styleRes) {
                 	let style = document.getElementsByTagName("style")[0];
                   	style.innerHTML = style.innerHTML.replace("default/svg.css", styleRes.type() + "svg.css");
                    styleRes = null;
                 }
             }
         ]]>
    </script>
<g class="shadowGroup1">
	<circle  cx="21.7" cy="21.3" r="6.7"/>
	<path  d="M23.8,30.7c-2,0.1,3.1,2.5,5.2,2.5c3.7,0,6.7-3,6.7-6.7c0-2.9-1.9-5.4-4.5-6.3
		C31.1,25.8,28.7,30.5,23.8,30.7z"/>
	
		<circle fill="none" stroke="#000000" stroke-width="2" stroke-miterlimit="10"  cx="21.7" cy="21.3" r="9.5"/>
	<path fill="none" stroke="#000000" stroke-width="2" stroke-miterlimit="10"  d="M30.6,17.3
		c4.6,0.7,8.2,4.6,8.2,9.4c0,5.3-4.3,9.5-9.5,9.5c-3.9,0-7.3-2.4-8.7-5.7"/>
</g>
<g class="shadowGroup2">
	<circle  cx="20.7" cy="20.3" r="6.7"/>
	<path  d="M22.8,29.7c-2,0.1,3.1,2.5,5.2,2.5c3.7,0,6.7-3,6.7-6.7c0-2.9-1.9-5.4-4.5-6.3
		C30.1,24.8,27.7,29.5,22.8,29.7z"/>
	
		<circle fill="none" stroke="#000000" stroke-width="2" stroke-miterlimit="10"  cx="20.7" cy="20.3" r="9.5"/>
	<path fill="none" stroke="#000000" stroke-width="2" stroke-miterlimit="10"  d="M29.6,16.3
		c4.6,0.7,8.2,4.6,8.2,9.4c0,5.3-4.3,9.5-9.5,9.5c-3.9,0-7.3-2.4-8.7-5.7"/>
</g>
<g class="shadowGroup3">
	<circle  cx="19.7" cy="19.3" r="6.7"/>
	<path  d="M21.8,28.7c-2,0.1,3.1,2.5,5.2,2.5c3.7,0,6.7-3,6.7-6.7c0-2.9-1.9-5.4-4.5-6.3
		C29.1,23.8,26.7,28.5,21.8,28.7z"/>
	
		<circle fill="none" stroke="#000000" stroke-width="2" stroke-miterlimit="10"  cx="19.7" cy="19.3" r="9.5"/>
	<path fill="none" stroke="#000000" stroke-width="2" stroke-miterlimit="10"  d="M28.6,15.3
		c4.6,0.7,8.2,4.6,8.2,9.4c0,5.3-4.3,9.5-9.5,9.5c-3.9,0-7.3-2.4-8.7-5.7"/>
</g>
<g>
	<circle class="strokeColor" stroke-width="2" stroke-miterlimit="10" cx="18.7" cy="18.3" r="9.5"/>
	<path class="strokeColor" stroke-width="2" stroke-miterlimit="10" d="M27.6,14.3c4.6,0.7,8.2,4.6,8.2,9.4
		c0,5.3-4.3,9.5-9.5,9.5c-3.9,0-7.3-2.4-8.7-5.7"/>
	<circle class="fillColor" cx="18.7" cy="18.3" r="6.7"/>
	<path class="fillColor" d="M20.8,27.7c-2,0.1,3.1,2.5,5.2,2.5c3.7,0,6.7-3,6.7-6.7c0-2.9-1.9-5.4-4.5-6.3
		C28.1,22.8,25.7,27.5,20.8,27.7z"/>
</g>
</svg>
