<?xml version="1.0" encoding="utf-8"?>
<!-- Generator: Adobe Illustrator 21.1.0, SVG Export Plug-In . SVG Version: 6.00 Build 0)  -->
<svg version="1.1" id="Layer_1" xmlns="http://www.w3.org/2000/svg" xmlns:xlink="http://www.w3.org/1999/xlink" x="0px" y="0px"
	 viewBox="0 0 221.7 221.6" style="enable-background:new 0 0 221.7 221.6;" xml:space="preserve">
<style type="text/css">
	@import "../default/default/svg.css";
</style>
<script  type="text/javascript">
	<![CDATA[
             if(window.parent && window.parent.Wincor && window.parent.Wincor.UI && window.parent.Wincor.UI.Content) {
                 let styleRes = window.parent.Wincor.UI.Content.StyleResourceResolver;
                 if(styleRes) {
                 	let style = document.getElementsByTagName("style")[0];
                   	style.innerHTML = style.innerHTML.replace("default/svg.css", styleRes.type() + "svg.css");
                    styleRes = null;
                 }
             }
         
		
		]]>
</script>
<g class="shadowGroup3">
	<path fill="none" stroke="#000000" d="M181,35.2C140.8-5.3,75.4-5.3,35.2,35.2c-40.3,40.2-40.3,105.6,0,145.8c20.1,20.1,46.5,30.2,72.9,30.2
		s52.8-10.1,72.9-30.2C221.2,140.8,221.2,75.3,181,35.2z M40.8,40.8c18.6-18.6,42.9-27.8,67.3-27.8c23.1,0,46.3,8.4,64.5,25.1
		L38,172.3C3.7,135.1,4.6,76.8,40.8,40.8z M175.4,175.3c-36.2,36.2-94.5,37.1-131.8,2.7L178.1,43.5
		C212.5,80.8,211.6,139.1,175.4,175.3z"/>
	<path fill="none" stroke="#000000" d="M96.4,64.5H80.3V48.5c0-2.2-1.8-4-4-4s-4,1.8-4,4v16.1H56.7c-2.2,0-4,1.8-4,4s1.8,4,4,4h15.7v15.6
		c0,2.2,1.8,4,4,4s4-1.8,4-4V72.5h16.1c2.2,0,4-1.8,4-4C100.4,66.3,98.6,64.5,96.4,64.5z"/>
	<path fill="none" stroke="#000000" d="M159.6,139.8H120c-2.2,0-4,1.8-4,4s1.8,4,4,4h39.7c2.2,0,4-1.8,4-4S161.8,139.8,159.6,139.8z"/>
</g>
<g class="shadowGroup2">
	<path class="st0" d="M186,40.2C145.8-0.3,80.4-0.3,40.2,40.2c-40.3,40.2-40.3,105.6,0,145.8c20.1,20.1,46.5,30.2,72.9,30.2
		s52.8-10.1,72.9-30.2C226.2,145.8,226.2,80.3,186,40.2z M45.8,45.8C64.4,27,88.7,18,113.2,18c23.1,0,46.3,8.4,64.5,25.1L43,177.3
		C8.7,140.1,9.6,81.8,45.8,45.8z M180.4,180.3c-36.2,36.2-94.5,37.1-131.8,2.7L183.1,48.5C217.5,85.8,216.6,144.1,180.4,180.3z"/>
	<path fill="none" stroke="#000000" d="M101.4,69.5H85.3V53.5c0-2.2-1.8-4-4-4s-4,1.8-4,4v16.1H61.7c-2.2,0-4,1.8-4,4s1.8,4,4,4h15.7v15.6
		c0,2.2,1.8,4,4,4s4-1.8,4-4V77.5h16.1c2.2,0,4-1.8,4-4C105.4,71.3,103.6,69.5,101.4,69.5z"/>
	<path class="st0" d="M164.6,144.8H125c-2.2,0-4,1.8-4,4s1.8,4,4,4h39.7c2.2,0,4-1.8,4-4S166.8,144.8,164.6,144.8z"/>
</g>
<g class="shadowGroup2">
	<path fill="none" stroke="#000000" d="M191,45.2C150.8,4.9,85.4,4.9,45.2,45.2c-40.3,40.2-40.3,105.6,0,145.8c20.1,20.1,46.5,30.2,72.9,30.2
		s52.8-10.1,72.9-30.2C231.2,150.8,231.2,85.3,191,45.2z M50.8,50.8C69.4,32,93.7,23,118.2,23c23.1,0,46.3,8.4,64.5,25.1L48,182.3
		C13.7,145.1,14.6,86.8,50.8,50.8z M185.4,185.3c-36.2,36.2-94.5,37.1-131.8,2.7L188.1,53.5C222.5,90.8,221.6,149.1,185.4,185.3z"/>
	<path fill="none" stroke="#000000" d="M106.4,74.5H90.3V58.5c0-2.2-1.8-4-4-4s-4,1.8-4,4v16.1H66.7c-2.2,0-4,1.8-4,4s1.8,4,4,4h15.7v15.6
		c0,2.2,1.8,4,4,4s4-1.8,4-4V82.5h16.1c2.2,0,4-1.8,4-4C110.4,76.3,108.6,74.5,106.4,74.5z"/>
	<path fill="none" stroke="#000000" d="M169.6,149.8H130c-2.2,0-4,1.8-4,4s1.8,4,4,4h39.7c2.2,0,4-1.8,4-4S171.8,149.8,169.6,149.8z"/>
</g>
<g>
	<path class="fillColor" d="M176,30.2c-40.2-40.2-105.6-40.2-145.9,0c-40.2,40.2-40.2,105.6,0,145.9c20.1,20.1,46.5,30.2,72.9,30.2
		s52.8-10.1,72.9-30.2C216.2,135.8,216.2,70.3,176,30.2z M35.8,35.8c18.5-18.6,42.9-28,67.3-28c23.1,0,46.3,8.4,64.5,25.1L33,167.3
		C-1.3,130.1-0.4,71.8,35.8,35.8z M170.4,170.3c-36.2,36.2-94.5,37.1-131.8,2.7L173.1,38.5C207.5,75.8,206.6,134.1,170.4,170.3z"/>
	<path class="fillColor" d="M91.4,59.7H75.3V43.5c0-2.2-1.8-4-4-4s-4,1.8-4,4v16.1H51.7c-2.2,0-4,1.8-4,4c0,2.2,1.8,4,4,4h15.7v15.6c0,2.2,1.8,4,4,4
		s4-1.8,4-4V67.5h16.1c2.2,0,4-1.8,4-4C95.4,61.5,93.6,59.7,91.4,59.7z"/>
	<path class="fillColor" d="M154.6,134.8H115c-2.2,0-4,1.8-4,4s1.8,4,4,4h39.7c2.2,0,4-1.8,4-4S156.8,134.8,154.6,134.8z"/>
</g>
</svg>
