<?xml version="1.0" encoding="utf-8"?>
<!-- Generator: Adobe Illustrator 23.0.2, SVG Export Plug-In . SVG Version: 6.00 Build 0)  -->
<svg version="1.1" id="Capa_1" xmlns="http://www.w3.org/2000/svg" xmlns:xlink="http://www.w3.org/1999/xlink" x="0px" y="0px"
	 viewBox="0 0 74.2 74.2" enable-background="new 0 0 74.2 74.2" xml:space="preserve">
<g>
	<path d="M57.7,12.4H55l-1-3.7C53,5.3,50.1,3,46.8,3h-18c-3.3,0-6.2,2.3-7.2,5.8l-1,3.7h-4.2C7.4,12.4,0,20.5,0,30.4v22.5
		c0,9.9,7.4,17.9,16.5,17.9h41.3c9.1,0,16.5-8,16.5-17.9V30.4C74.2,20.5,66.8,12.4,57.7,12.4z M68.2,52.8c0,6.3-4.7,11.4-10.5,11.4
		H16.5C10.7,64.2,6,59.1,6,52.8V30.4C6,24.1,10.7,19,16.5,19h8.6l2.3-8.3c0.2-0.7,0.8-1.1,1.4-1.1h18c0.7,0,1.2,0.5,1.4,1.2l2.3,8.3
		h7.2c5.8,0,10.5,5.1,10.5,11.4L68.2,52.8L68.2,52.8z"/>
	<path d="M37.2,24.1c-8.8,0-16,7.8-16,17.5c0,9.6,7.2,17.5,16,17.5s16-7.8,16-17.5C53.3,32,46.1,24.1,37.2,24.1z M37.2,52.5
		c-5.5,0-10-4.9-10-10.9c0-6,4.5-10.9,10-10.9c5.5,0,10,4.9,10,10.9C47.3,47.6,42.8,52.5,37.2,52.5z"/>
</g>
<circle fill="#F7F5F5" stroke="#000000" stroke-miterlimit="10" cx="37.1" cy="41.6" r="3.1"/>
</svg>
