<?xml version="1.0" encoding="utf-8"?>
<!-- Generator: Adobe Illustrator 23.0.2, SVG Export Plug-In . SVG Version: 6.00 Build 0)  -->
<svg version="1.1" id="Layer_1" xmlns="http://www.w3.org/2000/svg" xmlns:xlink="http://www.w3.org/1999/xlink" x="0px" y="0px"
	 viewBox="0 0 217.4 94" enable-background="new 0 0 217.4 94" xml:space="preserve">
<g opacity="0.3">
	<g>
		<g>
			
				<linearGradient id="SVGID_1_" gradientUnits="userSpaceOnUse" x1="109.05" y1="1512.6746" x2="109.05" y2="1454.7813" gradientTransform="matrix(1 0 0 1 0 -1437.1111)">
				<stop  offset="0" style="stop-color:#FFFFFF"/>
				<stop  offset="1" style="stop-color:#29282C"/>
			</linearGradient>
			<path  class="slotFillColor" d="M17.3,32.2c0-8.3,6.8-15,15-15h153.5c8.3,0,15,6.8,15,15v29.4c0,8.3-6.8,15-15,15H32.3
				c-8.3,0-15-6.8-15-15V32.2z"/>
		</g>
	</g>
</g>
<g>
	<path id="cardFrame" fill="none" stroke="#ffffff" stroke-width="1" stroke-miterlimit="10" d="M81.6,74.6l8.9-23c1-2.6,4.1-4.7,6.8-4.7h22.3
		c2.8,0,5.8,2.1,6.8,4.7l8.9,22.6"/>
</g>

	<linearGradient id="SVGID_2_" gradientUnits="userSpaceOnUse" x1="108.65" y1="1513.4731" x2="108.65" y2="1454.6177" gradientTransform="matrix(1 0 0 1 0 -1437.1111)">
	<stop  offset="0" style="stop-color:#FFFFFF"/>
	<stop  offset="1" style="stop-color:#29282C"/>
</linearGradient>
<polygon opacity="0.2" fill="url(#SVGID_2_)" points="24.8,76.6 62.7,17.2 154.8,17.2 192.5,76.6 "/>
<polygon fill="#000000" points="25.3,77.7 24.8,77.7 24.8,76.8 62.7,17.2 "/>
<polygon fill="#000000" points="191.9,77.7 192.5,77.7 192.5,76.8 154.8,17.2 "/>
<path fill="none" class="slotFrameColor" stroke="#000000" stroke-width="20" stroke-miterlimit="10" d="M191.4,84H26c-8.8,0-16-7.2-16-16V26
	c0-8.8,7.2-16,16-16h165.4c8.8,0,16,7.2,16,16v42C207.4,76.8,200.2,84,191.4,84z"/>
<g opacity="0.75">
	<path fill="none" stroke="#ffffff" stroke-miterlimit="10" d="M122.6,58.7h-8.1c-0.4,0-0.7-0.4-0.7-0.9v-6.3c0-0.5,0.3-0.9,0.7-0.9
		h8.1c0.4,0,0.7,0.4,0.7,0.9v6.3C123.3,58.3,122.9,58.7,122.6,58.7z M123.3,53.3h-3.5c-0.2,0-0.3-0.2-0.3-0.4v-2.2h-1.6v2.2
		c0,0.2-0.1,0.4-0.3,0.4h-3.8v2.5h3.8c0.2,0,0.3,0.2,0.3,0.4v2.6h1.6v-2.6c0-0.2,0.1-0.4,0.3-0.4h3.5V53.3L123.3,53.3z M119.5,55.2
		v-1.4c0-0.2-0.1-0.3-0.2-0.3h-1.2c-0.1,0-0.2,0.1-0.2,0.3v1.4c0,0.2,0.1,0.3,0.2,0.3h1.2C119.4,55.5,119.5,55.4,119.5,55.2z"/>
</g>
<g>
	<path fill="none" stroke="#231F20" stroke-miterlimit="10" d="M122.5,58.5h-8.1c-0.4,0-0.7-0.4-0.7-0.9v-6.3c0-0.5,0.3-0.9,0.7-0.9
		h8.1c0.4,0,0.7,0.4,0.7,0.9v6.3C123.1,58.1,122.8,58.5,122.5,58.5z M123.1,53.1h-3.5c-0.2,0-0.3-0.2-0.3-0.4v-2.2h-1.6v2.2
		c0,0.2-0.1,0.4-0.3,0.4h-3.8v2.4h3.8c0.2,0,0.3,0.2,0.3,0.4v2.6h1.6v-2.6c0-0.2,0.1-0.4,0.3-0.4h3.5V53.1L123.1,53.1z M119.3,55
		v-1.4c0-0.2-0.1-0.3-0.2-0.3h-1.2c-0.1,0-0.2,0.1-0.2,0.3V55c0,0.2,0.1,0.3,0.2,0.3h1.2C119.2,55.3,119.3,55.2,119.3,55z"/>
</g>
<g>
	<path fill="none" stroke="#231F20" stroke-miterlimit="10" d="M122.4,58.4h-8.1c-0.4,0-0.7-0.4-0.7-0.9v-6.3c0-0.5,0.3-0.9,0.7-0.9
		h8.1c0.4,0,0.7,0.4,0.7,0.9v6.3C123,58,122.7,58.4,122.4,58.4z M123,52.9h-3.5c-0.2,0-0.3-0.2-0.3-0.4v-2.2h-1.6v2.2
		c0,0.2-0.1,0.4-0.3,0.4h-3.8v2.5h3.8c0.2,0,0.3,0.2,0.3,0.4v2.6h1.6v-2.6c0-0.2,0.1-0.4,0.3-0.4h3.5V52.9L123,52.9z M119.2,54.9
		v-1.4c0-0.2-0.1-0.3-0.2-0.3h-1.2c-0.1,0-0.2,0.1-0.2,0.3v1.4c0,0.2,0.1,0.3,0.2,0.3h1.2C119.1,55.2,119.2,55.1,119.2,54.9z"/>
</g>
<g>
	<path fill="none" stroke="#231F20" stroke-miterlimit="10" d="M122.3,58.3h-8.1c-0.4,0-0.7-0.4-0.7-0.9v-6.3c0-0.5,0.3-0.9,0.7-0.9
		h8.1c0.4,0,0.7,0.4,0.7,0.9v6.3C123,57.9,122.7,58.3,122.3,58.3z M123,52.8h-3.5c-0.2,0-0.3-0.2-0.3-0.4v-2.2h-1.6v2.2
		c0,0.2-0.1,0.4-0.3,0.4h-3.8v2.5h3.8c0.2,0,0.3,0.2,0.3,0.4v2.6h1.6v-2.6c0-0.2,0.1-0.4,0.3-0.4h3.5V52.8z M119.2,54.8v-1.4
		c0-0.2-0.1-0.3-0.2-0.3h-1.2c-0.1,0-0.2,0.1-0.2,0.3v1.4c0,0.2,0.1,0.3,0.2,0.3h1.2C119.1,55.1,119.2,54.9,119.2,54.8z"/>
</g>
<g>
	<path fill="#3A3838" d="M100.9,50.4L100.9,50.4l-0.3-0.5l0.5,0l0.4,0.6l0,0.2L97,49.6l0-0.2L100.9,50.4L100.9,50.4z"/>
	<path fill="#3A3838" d="M96.7,50.5l0.4,0.1l0.4,0.3c0.9,0.8,1.5,1.2,2.1,1.4c0.5,0.1,0.9,0.1,1-0.2c0-0.2-0.1-0.3-0.3-0.6l0.4,0
		c0.2,0.3,0.4,0.4,0.3,0.7c-0.1,0.5-0.8,0.4-1.4,0.3c-0.9-0.2-1.4-0.7-2.3-1.3L97.3,51l0,0L97,51.8l-0.5-0.1L96.7,50.5L96.7,50.5z"
		/>
	<path fill="#3A3838" d="M97,52.3c-0.1,0.1-0.3,0.1-0.4,0.4c-0.1,0.4,0.4,0.6,0.8,0.7c0.6,0.1,0.9,0,1-0.3l0-0.2l0.5,0.1l0,0.2
		c0,0.2,0.1,0.5,0.7,0.7c0.4,0.1,0.7,0.1,0.8-0.2c0-0.2-0.1-0.3-0.2-0.5l0.5,0c0.2,0.1,0.3,0.4,0.3,0.6c-0.1,0.4-0.6,0.5-1.2,0.3
		c-0.5-0.1-0.8-0.4-1-0.7l0,0c-0.1,0.2-0.6,0.4-1.3,0.2s-1.3-0.5-1.2-1.1c0-0.2,0.3-0.4,0.4-0.4L97,52.3z"/>
	<path fill="#3A3838" d="M95.8,54.5l1.3,0.3l0.2-0.9l0.4,0.1l2.6,1.6l-0.1,0.3l-2.8-0.7l-0.1,0.3l-0.5-0.1l0.1-0.3l-1.3-0.3
		L95.8,54.5L95.8,54.5z M97.5,54.9l1.5,0.4c0.3,0.1,0.5,0.1,0.7,0.2l0,0c-0.3-0.2-0.5-0.2-0.6-0.4l-1.4-0.9l0,0L97.5,54.9L97.5,54.9
		z"/>
	<path fill="#3A3838" d="M98.9,58.8l0.2-0.8L98,57.6c0,0.1,0,0.1,0,0.2c0,0.2-0.2,0.3-0.4,0.4c-0.2,0.1-0.7,0.1-1.2,0
		c-0.9-0.2-1.5-0.7-1.4-1.2c0-0.2,0.2-0.4,0.4-0.4l0.5,0.2c-0.1,0.1-0.3,0.1-0.4,0.4c0,0.2,0.3,0.6,0.8,0.7c0.6,0.1,1,0,1.1-0.3
		c0-0.2,0-0.2,0.1-0.3l2.1,0.7l-0.2,1L98.9,58.8L98.9,58.8z"/>
	<path fill="#3A3838" d="M98.6,60.3c0-0.1,0-0.2,0-0.2c-0.1-0.5-0.7-0.9-1.5-1.1l0,0c0.3,0.2,0.4,0.3,0.4,0.6
		C97.5,60,96.8,60,96,59.8c-0.8-0.2-1.5-0.6-1.4-1.1c0.1-0.5,0.9-0.5,2.1-0.2c0.9,0.2,1.5,0.6,2,0.8c0.3,0.3,0.5,0.5,0.5,0.8
		c0,0.1,0,0.2,0,0.2L98.6,60.3L98.6,60.3z M96,59.6c0.7,0.2,1.1,0.1,1.2-0.2c0-0.2-0.1-0.3-0.5-0.5c-0.1,0-0.2,0-0.3-0.1
		c-0.8-0.2-1.3-0.1-1.4,0.2C95,59.2,95.4,59.5,96,59.6z"/>
	<path fill="#3A3838" d="M98.6,62.1L98.2,62l-3.9-1.9l0.1-0.3l3.8,1.9l0,0l0.2-1l0.5,0.1L98.6,62.1L98.6,62.1z"/>
	<path fill="#3A3838" d="M95.2,61.6c0.6,0.1,0.9,0.4,1.1,0.7l0,0c0.3-0.1,0.7-0.1,1,0c0.7,0.2,1.1,0.6,1,0.9
		c-0.1,0.4-0.7,0.4-1.2,0.3c-0.4-0.1-0.8-0.3-1-0.6l0,0c-0.2,0.1-0.7,0.2-1.3,0.1c-0.8-0.2-1.2-0.6-1.1-1
		C93.9,61.6,94.5,61.4,95.2,61.6z M95,62.7c0.6,0.1,0.8,0,1.1-0.2c0-0.2-0.4-0.5-0.9-0.6c-0.5-0.1-0.9,0-1,0.2
		C94.2,62.4,94.5,62.5,95,62.7z M97.4,62.4c-0.5-0.1-0.7,0-1,0.2c0,0.2,0.3,0.4,0.7,0.5c0.4,0.1,0.8,0.1,0.8-0.1
		C98.1,62.8,97.8,62.5,97.4,62.4z"/>
	<path fill="#3A3838" d="M93.7,64.4c0,0.1,0,0.2,0,0.2c0,0.2,0.1,0.3,0.3,0.6c0.2,0.3,0.6,0.4,1.1,0.5l0,0c-0.3-0.2-0.4-0.4-0.4-0.6
		c0.1-0.4,0.7-0.4,1.5-0.2c0.9,0.2,1.6,0.7,1.5,1.1c-0.1,0.4-0.9,0.5-2,0.2c-1-0.2-1.6-0.6-2-0.9c-0.3-0.3-0.5-0.5-0.4-0.7
		c0-0.1,0-0.2,0-0.2L93.7,64.4L93.7,64.4L93.7,64.4z M96.3,65.2c-0.6-0.1-1,0-1.1,0.1c0,0.2,0.1,0.3,0.4,0.5c0.1,0,0.1,0,0.2,0
		c0.8,0.2,1.4,0.1,1.5,0C97.3,65.7,96.9,65.4,96.3,65.2z"/>
	<path fill="#3A3838" d="M96.7,67.3L96.7,67.3l-0.3-0.5l0.5,0l0.4,0.6l0,0.2l-4.5-1.1l0-0.2L96.7,67.3L96.7,67.3z"/>
	<path fill="#3A3838" d="M92.6,67.3l0.4,0.1l0.4,0.3c0.9,0.8,1.5,1.2,2.1,1.4c0.5,0.1,0.9,0.1,1-0.2c0-0.2-0.1-0.3-0.3-0.6l0.4,0
		c0.2,0.3,0.4,0.4,0.3,0.7c-0.1,0.5-0.8,0.4-1.4,0.3c-0.9-0.2-1.4-0.7-2.3-1.3l-0.2-0.3l0,0l-0.3,1.1l-0.5-0.1L92.6,67.3L92.6,67.3z
		"/>
	<path fill="#3A3838" d="M92.8,69.2c-0.1,0.1-0.3,0.1-0.4,0.4c-0.1,0.4,0.4,0.6,0.8,0.7c0.6,0.1,0.9,0,1-0.3l0-0.2l0.5,0.1l0,0.2
		c0,0.2,0.1,0.5,0.7,0.7c0.4,0.1,0.7,0.1,0.8-0.2c0-0.2-0.1-0.3-0.2-0.5l0.5,0c0.2,0.1,0.3,0.4,0.3,0.6c-0.1,0.4-0.6,0.5-1.2,0.3
		c-0.5-0.1-0.8-0.4-1-0.7l0,0c-0.1,0.2-0.6,0.4-1.3,0.2c-0.7-0.2-1.3-0.5-1.2-1.1c0-0.2,0.3-0.4,0.4-0.4L92.8,69.2z"/>
</g>
</svg>
