<?xml version="1.0" encoding="utf-8"?>
<!-- Generator: Adobe Illustrator 18.0.0, SVG Export Plug-In . SVG Version: 6.00 Build 0)  -->
<!DOCTYPE svg PUBLIC "-//W3C//DTD SVG 1.1//EN" "http://www.w3.org/Graphics/SVG/1.1/DTD/svg11.dtd">
<svg version="1.1" id="Ebene_1" xmlns="http://www.w3.org/2000/svg" xmlns:xlink="http://www.w3.org/1999/xlink" x="0px" y="0px"
	 viewBox="0 0 45 45" enable-background="new 0 0 45 45" xml:space="preserve">
	 <style type="text/css">
			@import "../default/default/svg.css";
	</style>
	 <script type="text/javascript">
         <![CDATA[
             if(window.parent && window.parent.Wincor && window.parent.Wincor.UI && window.parent.Wincor.UI.Content) {
                 let styleRes = window.parent.Wincor.UI.Content.StyleResourceResolver;
                 if(styleRes) {
                 	let style = document.getElementsByTagName("style")[0];
                   	style.innerHTML = style.innerHTML.replace("default/svg.css", styleRes.type() + "svg.css");
                    styleRes = null;
                 }
             }
         ]]>
    </script>
<g class="shadowGroup1">
	<path fill="none" stroke="#231F20" stroke-miterlimit="10" d="M35.908,13.039C25.316,0.022,4.029,8.318,4.478,25.182
		c0.457,17.149,22.769,24.014,32.37,9.878"/>
	<polyline fill="none" stroke="#231F20" stroke-miterlimit="10" points="30.33,14.772 36.714,13.455 36.353,6.432 	"/>
	<path fill="none" stroke="#231F20" stroke-miterlimit="10" d="M38.454,16.043c-0.158-0.421-0.335-0.847-0.531-1.277"/>
	<path fill="none" stroke="#231F20" stroke-miterlimit="10" d="M38.448,17.337"/>
	<path fill="none" stroke="#231F20" stroke-miterlimit="10" d="M38.928,18.488"/>
	<path fill="none" stroke="#231F20" stroke-miterlimit="10" d="M39.719,19.842c-0.084-0.397-0.184-0.8-0.302-1.207
		c-0.12-0.415-0.257-0.834-0.415-1.258"/>
	<path fill="none" stroke="#231F20" stroke-miterlimit="10" d="M40.247,23.873c-0.011-0.406-0.038-0.821-0.08-1.243
		c-0.043-0.43-0.103-0.868-0.182-1.315"/>
	<path fill="none" stroke="#231F20" stroke-miterlimit="10" d="M39.66,20.949"/>
	<path fill="none" stroke="#231F20" stroke-miterlimit="10" d="M39.928,22.537"/>
	<path fill="none" stroke="#231F20" stroke-miterlimit="10" d="M39.928,22.537"/>
	<path fill="none" stroke="#231F20" stroke-miterlimit="10" d="M40.04,24.042"/>
	<path fill="none" stroke="#231F20" stroke-miterlimit="10" d="M40.01,27.418c0.061-0.654,0.086-1.335,0.066-2.041"/>
	<path fill="none" stroke="#231F20" stroke-miterlimit="10" d="M39.973,26.083"/>
	<path fill="none" stroke="#231F20" stroke-miterlimit="10" d="M39.732,27.771"/>
	<path fill="none" stroke="#231F20" stroke-miterlimit="10" d="M39.732,27.771"/>
	<path fill="none" stroke="#231F20" stroke-miterlimit="10" d="M39.282,29.581"/>
	<path fill="none" stroke="#231F20" stroke-miterlimit="10" d="M38.99,30.863c0.213-0.515,0.42-1.083,0.606-1.696"/>
	<path fill="none" stroke="#231F20" stroke-miterlimit="10" d="M38.676,31.278"/>
	<path fill="none" stroke="#231F20" stroke-miterlimit="10" d="M37.877,32.966"/>
	<path fill="none" stroke="#231F20" stroke-miterlimit="10" d="M37.316,34.111c0,0,0.459-0.592,1.029-1.653"/>
	<g>
		<path d="M23.832,25.808l6.098-8.68h1.972v8.459h1.976v1.427h-1.924v3.777h-1.739v-3.803h-6.383V25.808z M30.494,18.768
			L25.85,25.54h4.645V18.768z"/>
		<path d="M15.382,18.219l0.545,1.246c0,0,2.032-1.479,3.721-0.973c0.56,0.078,2.351,0.817,1.806,3.425
			c-0.234,0.778-0.506,1.596-2.063,3.347c-1.518,1.557-4.359,4.398-4.359,4.398v1.131h8.719v-1.52H17.64l3.036-3.036
			c0,0,5.06-4.685,1.557-8.356C21.688,17.207,18.963,15.572,15.382,18.219z"/>
	</g>
</g>
<g class="shadowGroup2">
	<path fill="none" stroke="#231F20" stroke-miterlimit="10" d="M35.908,12.216C25.316-0.802,4.029,7.494,4.478,24.359
		c0.457,17.149,22.769,24.014,32.37,9.878"/>
	<polyline fill="none" stroke="#231F20" stroke-miterlimit="10" points="30.324,13.955 36.708,12.638 36.346,5.615 	"/>
	<path fill="none" stroke="#231F20" stroke-miterlimit="10" d="M38.391,15.274c-0.158-0.421-0.335-0.847-0.531-1.277"/>
	<path fill="none" stroke="#231F20" stroke-miterlimit="10" d="M38.448,16.514"/>
	<path fill="none" stroke="#231F20" stroke-miterlimit="10" d="M38.928,17.665"/>
	<path fill="none" stroke="#231F20" stroke-miterlimit="10" d="M39.657,19.073c-0.084-0.397-0.184-0.8-0.302-1.207
		c-0.12-0.415-0.257-0.834-0.415-1.258"/>
	<path fill="none" stroke="#231F20" stroke-miterlimit="10" d="M40.185,23.104c-0.011-0.406-0.038-0.821-0.08-1.243
		c-0.043-0.43-0.103-0.868-0.181-1.315"/>
	<path fill="none" stroke="#231F20" stroke-miterlimit="10" d="M39.66,20.126"/>
	<path fill="none" stroke="#231F20" stroke-miterlimit="10" d="M39.928,21.714"/>
	<path fill="none" stroke="#231F20" stroke-miterlimit="10" d="M39.928,21.714"/>
	<path fill="none" stroke="#231F20" stroke-miterlimit="10" d="M40.04,23.219"/>
	<path fill="none" stroke="#231F20" stroke-miterlimit="10" d="M40.01,26.595c0.061-0.654,0.086-1.335,0.066-2.041"/>
	<path fill="none" stroke="#231F20" stroke-miterlimit="10" d="M39.973,25.26"/>
	<path fill="none" stroke="#231F20" stroke-miterlimit="10" d="M39.732,26.948"/>
	<path fill="none" stroke="#231F20" stroke-miterlimit="10" d="M39.732,26.948"/>
	<path fill="none" stroke="#231F20" stroke-miterlimit="10" d="M39.282,28.758"/>
	<path fill="none" stroke="#231F20" stroke-miterlimit="10" d="M38.99,30.04c0.213-0.515,0.42-1.083,0.606-1.696"/>
	<path fill="none" stroke="#231F20" stroke-miterlimit="10" d="M38.676,30.454"/>
	<path fill="none" stroke="#231F20" stroke-miterlimit="10" d="M37.877,32.143"/>
	<path fill="none" stroke="#231F20" stroke-miterlimit="10" d="M37.316,33.288c0,0,0.459-0.592,1.029-1.653"/>
	<g>
		<path d="M22.441,24.967l6.098-8.68h1.972v8.459h1.976v1.427h-1.924v3.777h-1.739v-3.803h-6.383V24.967z M29.103,17.926
			l-4.645,6.772h4.645V17.926z"/>
		<path d="M13.991,17.377l0.545,1.246c0,0,2.032-1.479,3.721-0.973c0.56,0.078,2.351,0.817,1.806,3.425
			c-0.234,0.778-0.506,1.596-2.063,3.347c-1.518,1.557-4.359,4.398-4.359,4.398v1.131h8.719v-1.52h-6.111l3.036-3.036
			c0,0,5.06-4.685,1.557-8.356C20.296,16.365,17.572,14.73,13.991,17.377z"/>
	</g>
</g>
<g class="shadowGroup3">
	<path fill="none" stroke="#231F20" stroke-miterlimit="10" d="M35.908,11.507C25.316-1.51,4.029,6.786,4.478,23.65
		c0.457,17.149,22.769,24.014,32.37,9.878"/>
	<polyline fill="none" stroke="#231F20" stroke-miterlimit="10" points="30.319,13.253 36.703,11.936 36.342,4.913 	"/>
	<path fill="none" stroke="#231F20" stroke-miterlimit="10" d="M38.347,14.623c-0.158-0.421-0.335-0.847-0.531-1.277"/>
	<path fill="none" stroke="#231F20" stroke-miterlimit="10" d="M38.448,15.805"/>
	<path fill="none" stroke="#231F20" stroke-miterlimit="10" d="M38.928,16.956"/>
	<path fill="none" stroke="#231F20" stroke-miterlimit="10" d="M39.613,18.422c-0.084-0.397-0.184-0.8-0.302-1.207
		c-0.12-0.415-0.257-0.834-0.415-1.258"/>
	<path fill="none" stroke="#231F20" stroke-miterlimit="10" d="M40.141,22.453c-0.011-0.406-0.038-0.821-0.08-1.243
		c-0.043-0.43-0.103-0.868-0.182-1.315"/>
	<path fill="none" stroke="#231F20" stroke-miterlimit="10" d="M39.66,19.417"/>
	<path fill="none" stroke="#231F20" stroke-miterlimit="10" d="M39.928,21.005"/>
	<path fill="none" stroke="#231F20" stroke-miterlimit="10" d="M39.928,21.005"/>
	<path fill="none" stroke="#231F20" stroke-miterlimit="10" d="M40.04,22.51"/>
	<path fill="none" stroke="#231F20" stroke-miterlimit="10" d="M40.01,25.886c0.061-0.654,0.086-1.335,0.066-2.041"/>
	<path fill="none" stroke="#231F20" stroke-miterlimit="10" d="M39.973,24.551"/>
	<path fill="none" stroke="#231F20" stroke-miterlimit="10" d="M39.732,26.239"/>
	<path fill="none" stroke="#231F20" stroke-miterlimit="10" d="M39.732,26.239"/>
	<path fill="none" stroke="#231F20" stroke-miterlimit="10" d="M39.282,28.049"/>
	<path fill="none" stroke="#231F20" stroke-miterlimit="10" d="M38.99,29.331c0.213-0.515,0.42-1.083,0.606-1.696"/>
	<path fill="none" stroke="#231F20" stroke-miterlimit="10" d="M38.676,29.746"/>
	<path fill="none" stroke="#231F20" stroke-miterlimit="10" d="M37.877,31.434"/>
	<path fill="none" stroke="#231F20" stroke-miterlimit="10" d="M37.316,32.579c0,0,0.459-0.592,1.029-1.653"/>
	<g>
		<path d="M21.152,24.236l6.098-8.68h1.972v8.459h1.976v1.427h-1.924v3.777h-1.739v-3.803h-6.383V24.236z M27.815,17.195
			l-4.645,6.772h4.645V17.195z"/>
		<path d="M12.702,16.646l0.545,1.246c0,0,2.032-1.479,3.721-0.973c0.56,0.078,2.351,0.817,1.806,3.425
			c-0.234,0.778-0.506,1.596-2.063,3.347c-1.518,1.557-4.359,4.398-4.359,4.398v1.131h8.719V27.7H14.96l3.036-3.036
			c0,0,5.06-4.685,1.557-8.356C19.008,15.634,16.283,13.999,12.702,16.646z"/>
	</g>
</g>
<g>
	<path fill="none" class="strokeColor" stroke="#231F20" stroke-miterlimit="10" d="M35.908,10.687C25.316-2.33,4.029,5.965,4.478,22.83
		c0.457,17.149,22.769,24.014,32.37,9.878"/>
	<polyline fill="none" class="strokeColor" stroke="#231F20" stroke-miterlimit="10" points="30.314,12.439 36.698,11.122 36.337,4.099 	"/>
	<path fill="none" class="strokeColor" stroke="#231F20" stroke-miterlimit="10" d="M38.303,13.858c-0.158-0.421-0.335-0.847-0.531-1.277"/>
	<path fill="none" class="strokeColor" stroke="#231F20" stroke-miterlimit="10" d="M38.448,14.985"/>
	<path fill="none" class="strokeColor" stroke="#231F20" stroke-miterlimit="10" d="M38.928,16.136"/>
	<path fill="none" class="strokeColor" stroke="#231F20" stroke-miterlimit="10" d="M39.568,17.657c-0.084-0.397-0.184-0.8-0.302-1.207
		c-0.12-0.415-0.257-0.834-0.415-1.258"/>
	<path fill="none" class="strokeColor" stroke="#231F20" stroke-miterlimit="10" d="M40.096,21.688c-0.011-0.406-0.038-0.821-0.08-1.243
		c-0.043-0.43-0.103-0.868-0.182-1.315"/>
	<path fill="none" class="strokeColor" stroke="#231F20" stroke-miterlimit="10" d="M39.66,18.597"/>
	<path fill="none" class="strokeColor" stroke="#231F20" stroke-miterlimit="10" d="M39.928,20.185"/>
	<path fill="none" class="strokeColor" stroke="#231F20" stroke-miterlimit="10" d="M39.928,20.185"/>
	<path fill="none" class="strokeColor" stroke="#231F20" stroke-miterlimit="10" d="M40.04,21.69"/>
	<path fill="none" class="strokeColor" stroke="#231F20" stroke-miterlimit="10" d="M40.01,25.066c0.061-0.654,0.086-1.335,0.066-2.041"/>
	<path fill="none" class="strokeColor" stroke="#231F20" stroke-miterlimit="10" d="M39.973,23.731"/>
	<path fill="none" class="strokeColor" stroke="#231F20" stroke-miterlimit="10" d="M39.732,25.419"/>
	<path fill="none" class="strokeColor" stroke="#231F20" stroke-miterlimit="10" d="M39.732,25.419"/>
	<path fill="none" class="strokeColor" stroke="#231F20" stroke-miterlimit="10" d="M39.282,27.229"/>
	<path fill="none" class="strokeColor" stroke="#231F20" stroke-miterlimit="10" d="M38.99,28.511c0.213-0.515,0.42-1.083,0.606-1.696"/>
	<path fill="none" class="strokeColor" stroke="#231F20" stroke-miterlimit="10" d="M38.676,28.925"/>
	<path fill="none" class="strokeColor" stroke="#231F20" stroke-miterlimit="10" d="M37.877,30.614"/>
	<path fill="none" class="strokeColor" stroke="#231F20" stroke-miterlimit="10" d="M37.316,31.759c0,0,0.459-0.592,1.029-1.653"/>
	<g>
		<path class="fillColor" d="M20.124,23.401l6.098-8.68h1.972v8.459h1.976v1.427h-1.924v3.777h-1.739v-3.803h-6.383V23.401z M26.786,16.361
			l-4.645,6.772h4.645V16.361z"/>
		<path class="fillColor" d="M11.674,15.811l0.545,1.246c0,0,2.032-1.479,3.721-0.973c0.56,0.078,2.351,0.817,1.806,3.425
			c-0.234,0.778-0.506,1.596-2.063,3.347c-1.518,1.557-4.359,4.398-4.359,4.398v1.131h8.719v-1.52h-6.111l3.036-3.036
			c0,0,5.06-4.685,1.557-8.356C17.98,14.799,15.255,13.165,11.674,15.811z"/>
	</g>
</g>
</svg>
