<?xml version="1.0" encoding="utf-8"?>
<!-- Generator: Adobe Illustrator 18.0.0, SVG Export Plug-In . SVG Version: 6.00 Build 0)  -->
<!DOCTYPE svg PUBLIC "-//W3C//DTD SVG 1.1//EN" "http://www.w3.org/Graphics/SVG/1.1/DTD/svg11.dtd">
<svg version="1.1" id="Layer_1" xmlns="http://www.w3.org/2000/svg" xmlns:xlink="http://www.w3.org/1999/xlink" x="0px" y="0px"
	 viewBox="0 0 45 45" enable-background="new 0 0 45 45" xml:space="preserve">
	<style type="text/css">
			@import "../default/default/svg.css";
	</style>
	 <script type="text/javascript">
         <![CDATA[
             if(window.parent && window.parent.Wincor && window.parent.Wincor.UI && window.parent.Wincor.UI.Content) {
                 let styleRes = window.parent.Wincor.UI.Content.StyleResourceResolver;
                 if(styleRes) {
                 	let style = document.getElementsByTagName("style")[0];
                   	style.innerHTML = style.innerHTML.replace("default/svg.css", styleRes.type() + "svg.css");
                    styleRes = null;
                 }
             }
         ]]>
    </script>
<g class="shadowGroup1">
	<polygon  points="13,11 10,11 10,8 9,8 9,11 6,11 6,12 9,12 9,15 10,15 10,12 13,12 	"/>
	<polygon  points="13,23 6,23 6,24 13,24 	"/>
	<polygon  points="13,35 10,35 10,32 9,32 9,35 6,35 6,36 9,36 9,39 10,39 10,36 13,36 	"/>
	<polygon  points="45,11 16,11 16,12 45,12 	"/>
	<polygon  points="45,23 16,23 16,24 45,24 	"/>
	<polygon  points="45,35 16,35 16,36 45,36 	"/>
</g>
<g class="shadowGroup2">
	<polygon  points="12,10 9,10 9,7 8,7 8,10 5,10 5,11 8,11 8,14 9,14 9,11 12,11 	"/>
	<polygon  points="12,22 5,22 5,23 12,23 	"/>
	<polygon  points="12,34 9,34 9,31 8,31 8,34 5,34 5,35 8,35 8,38 9,38 9,35 12,35 	"/>
	<polygon  points="44,10 15,10 15,11 44,11 	"/>
	<polygon  points="44,22 15,22 15,23 44,23 	"/>
	<polygon  points="44,34 15,34 15,35 44,35 	"/>
</g>
<g class="shadowGroup3">
	<polygon  points="11,9 8,9 8,6 7,6 7,9 4,9 4,10 7,10 7,13 8,13 8,10 11,10 	"/>
	<polygon  points="11,21 4,21 4,22 11,22 	"/>
	<polygon  points="11,33 8,33 8,30 7,30 7,33 4,33 4,34 7,34 7,37 8,37 8,34 11,34 	"/>
	<polygon  points="43,9 14,9 14,10 43,10 	"/>
	<polygon  points="43,21 14,21 14,22 43,22 	"/>
	<polygon  points="43,33 14,33 14,34 43,34 	"/>
</g>
<g>
	<polygon class="fillColor" points="10,8 7,8 7,5 6,5 6,8 3,8 3,9 6,9 6,12 7,12 7,9 10,9 	"/>
	<polygon class="fillColor" points="42,8 13,8 13,9 42,9 	"/>
	<polygon class="fillColor" points="10,20 3,20 3,21 10,21 	"/>
	<polygon class="fillColor" points="42,20 13,20 13,21 42,21 	"/>
	<polygon class="fillColor" points="10,32 7,32 7,29 6,29 6,32 3,32 3,33 6,33 6,36 7,36 7,33 10,33 	"/>
	<polygon class="fillColor" points="42,32 13,32 13,33 42,33 	"/>
</g>
</svg>
