<?xml version="1.0" encoding="utf-8"?>
<!-- Generator: Adobe Illustrator 18.0.0, SVG Export Plug-In . SVG Version: 6.00 Build 0)  -->
<!DOCTYPE svg PUBLIC "-//W3C//DTD SVG 1.1//EN" "http://www.w3.org/Graphics/SVG/1.1/DTD/svg11.dtd">
<svg version="1.1" id="Layer_1" xmlns="http://www.w3.org/2000/svg" xmlns:xlink="http://www.w3.org/1999/xlink" x="0px" y="0px"
	 viewBox="0 0 45 45" enable-background="new 0 0 45 45" xml:space="preserve">
	<style type="text/css">
			@import "../default/default/svg.css";
	</style>
	 <script type="text/javascript">
         <![CDATA[
             if(window.parent && window.parent.Wincor && window.parent.Wincor.UI && window.parent.Wincor.UI.Content) {
                 let styleRes = window.parent.Wincor.UI.Content.StyleResourceResolver;
                 if(styleRes) {
                 	let style = document.getElementsByTagName("style")[0];
                   	style.innerHTML = style.innerHTML.replace("default/svg.css", styleRes.type() + "svg.css");
                    styleRes = null;
                 }
             }
         ]]>
    </script>
<g class="shadowGroup1">
	<polygon  points="43.8,10.6 43.2,10 39.8,13.4 36.4,10 35.8,10.6 39.2,14 35.8,17.4 36.4,18 39.8,14.6
		43.2,18 43.8,17.4 40.4,14 	"/>
	<polygon  points="43.8,31.6 43.2,31 39.8,34.4 36.4,31 35.8,31.6 39.2,35 35.8,38.4 36.4,39 39.8,35.6
		43.2,39 43.8,38.4 40.4,35 	"/>
	<path d="M36,21H5V7h31V21z M4,6v16h33V6H4z"/>
	<path d="M21.1,10.8c1.6,0,2.9,1.3,2.9,2.9s-1.3,2.9-2.9,2.9s-2.9-1.3-2.9-2.9C18.2,12.2,19.6,10.8,21.1,10.8 M21.1,10
		c-2.1,0-3.7,1.6-3.7,3.7s1.6,3.7,3.7,3.7s3.7-1.6,3.7-3.7C24.8,11.6,23.2,10,21.1,10L21.1,10z"/>
	<path d="M6,8v12h29V8H6z M15,18v1H9.6c0.2-0.3,0.4-0.7,0.4-1.1c0-1-0.9-1.9-1.9-1.9c-0.4,0-0.8,0.1-1.1,0.4v-4.8
		c0.3,0.1,0.6,0.2,0.9,0.2c1,0,1.9-0.9,1.9-1.9c0-0.3-0.1-0.6-0.2-0.9h21.8C31.1,9.3,31,9.7,31,10.1c0,1,0.9,1.9,1.9,1.9
		c0.4,0,0.8-0.1,1.1-0.4v4.8c-0.3-0.2-0.6-0.3-1-0.3c-1,0-1.9,0.9-1.9,1.9c0,0.3,0.1,0.6,0.2,0.9H27v-1H15z"/>
	<path d="M36,41H5V27h31V41z M4,26v16h33V26H4z"/>
	<path d="M21.1,30.8c1.6,0,2.9,1.3,2.9,2.9c0,1.6-1.3,2.9-2.9,2.9s-2.9-1.3-2.9-2.9C18.2,32.2,19.6,30.8,21.1,30.8 M21.1,30
		c-2.1,0-3.7,1.6-3.7,3.7s1.6,3.7,3.7,3.7s3.7-1.6,3.7-3.7C24.9,31.6,23.2,30,21.1,30L21.1,30z"/>
	<path d="M6,28v12h29V28H6z M15,38v1H9.6c0.2-0.3,0.4-0.7,0.4-1.1c0-1-0.9-1.9-1.9-1.9c-0.4,0-0.8,0.1-1.1,0.4v-4.8
		c0.3,0.1,0.6,0.2,0.9,0.2c1,0,1.9-0.9,1.9-1.9c0-0.3-0.1-0.6-0.2-0.9h21.8c-0.2,0.3-0.4,0.7-0.4,1.1c0,1,0.9,1.9,1.9,1.9
		c0.4,0,0.8-0.1,1.1-0.4v4.8c-0.3-0.2-0.6-0.3-1-0.3c-1,0-1.9,0.9-1.9,1.9c0,0.3,0.1,0.6,0.2,0.9H27v-1H15z"/>
</g>
<g class="shadowGroup2">
	<polygon  points="43.8,9.6 43.2,9 39.8,12.4 36.4,9 35.8,9.6 39.2,13 35.8,16.4 36.4,17 39.8,13.6
		43.2,17 43.8,16.4 40.4,13 	"/>
	<polygon  points="43.8,30.6 43.2,30 39.8,33.4 36.4,30 35.8,30.6 39.2,34 35.8,37.4 36.4,38 39.8,34.6
		43.2,38 43.8,37.4 40.4,34 	"/>
	<path d="M35,20H4V6h31V20z M3,5v16h33V5H3z"/>
	<path d="M20.1,9.8c1.6,0,2.9,1.3,2.9,2.9s-1.3,2.9-2.9,2.9s-2.9-1.3-2.9-2.9C17.2,11.2,18.6,9.8,20.1,9.8 M20.1,9
		c-2.1,0-3.7,1.6-3.7,3.7s1.6,3.7,3.7,3.7s3.7-1.6,3.7-3.7C23.8,10.6,22.2,9,20.1,9L20.1,9z"/>
	<path d="M5,7v12h29V7H5z M14,17v1H8.6C8.9,17.7,9,17.3,9,16.9c0-1-0.9-1.9-1.9-1.9c-0.4,0-0.8,0.1-1.1,0.4v-4.8
		c0.3,0.1,0.6,0.2,0.9,0.2c1,0,1.9-0.9,1.9-1.9c0-0.3-0.1-0.6-0.2-0.9h21.8C30.1,8.3,30,8.7,30,9.1c0,1,0.9,1.9,1.9,1.9
		c0.4,0,0.8-0.1,1.1-0.4v4.8c-0.3-0.2-0.6-0.3-1-0.3c-1,0-1.9,0.9-1.9,1.9c0,0.3,0.1,0.6,0.2,0.9H26v-1H14z"/>
	<path d="M35,40H4V26h31V40z M3,25v16h33V25H3z"/>
	<path d="M20.1,29.8c1.6,0,2.9,1.3,2.9,2.9c0,1.6-1.3,2.9-2.9,2.9s-2.9-1.3-2.9-2.9C17.2,31.2,18.6,29.8,20.1,29.8 M20.1,29
		c-2.1,0-3.7,1.6-3.7,3.7s1.6,3.7,3.7,3.7s3.7-1.6,3.7-3.7C23.9,30.6,22.2,29,20.1,29L20.1,29z"/>
	<path d="M5,27v12h29V27H5z M14,37v1H8.6C8.9,37.7,9,37.3,9,36.9c0-1-0.9-1.9-1.9-1.9c-0.4,0-0.8,0.1-1.1,0.4v-4.8
		c0.3,0.1,0.6,0.2,0.9,0.2c1,0,1.9-0.9,1.9-1.9c0-0.3-0.1-0.6-0.2-0.9h21.8c-0.2,0.3-0.4,0.7-0.4,1.1c0,1,0.9,1.9,1.9,1.9
		c0.4,0,0.8-0.1,1.1-0.4v4.8c-0.3-0.2-0.6-0.3-1-0.3c-1,0-1.9,0.9-1.9,1.9c0,0.3,0.1,0.6,0.2,0.9H26v-1H14z"/>
</g>
<g class="shadowGroup3">
	<polygon  points="43.8,8.6 43.2,8 39.8,11.4 36.4,8 35.8,8.6 39.2,12 35.8,15.4 36.4,16 39.8,12.6
		43.2,16 43.8,15.4 40.4,12 	"/>
	<polygon  points="43.8,29.6 43.2,29 39.8,32.4 36.4,29 35.8,29.6 39.2,33 35.8,36.4 36.4,37 39.8,33.6
		43.2,37 43.8,36.4 40.4,33 	"/>
	<path d="M34,19H3V5h31V19z M2,4v16h33V4H2z"/>
	<path d="M19.1,8.8c1.6,0,2.9,1.3,2.9,2.9s-1.3,2.9-2.9,2.9s-2.9-1.3-2.9-2.9C16.2,10.2,17.6,8.8,19.1,8.8 M19.1,8
		c-2.1,0-3.7,1.6-3.7,3.7s1.6,3.7,3.7,3.7s3.7-1.6,3.7-3.7C22.8,9.6,21.2,8,19.1,8L19.1,8z"/>
	<path d="M4,6v12h29V6H4z M13,16v1H7.6C7.9,16.7,8,16.3,8,15.9c0-1-0.9-1.9-1.9-1.9c-0.4,0-0.8,0.1-1.1,0.4V9.6
		c0.3,0.1,0.6,0.2,0.9,0.2c1,0,1.9-0.9,1.9-1.9c0-0.3-0.1-0.6-0.2-0.9h21.8C29.1,7.3,29,7.7,29,8.1c0,1,0.9,1.9,1.9,1.9
		c0.4,0,0.8-0.1,1.1-0.4v4.8c-0.3-0.2-0.6-0.3-1-0.3c-1,0-1.9,0.9-1.9,1.9c0,0.3,0.1,0.6,0.2,0.9H25v-1H13z"/>
	<path d="M34,39H3V25h31V39z M2,24v16h33V24H2z"/>
	<path d="M19.1,28.8c1.6,0,2.9,1.3,2.9,2.9s-1.3,2.9-2.9,2.9s-2.9-1.3-2.9-2.9C16.2,30.2,17.6,28.8,19.1,28.8 M19.1,28
		c-2.1,0-3.7,1.6-3.7,3.7s1.6,3.7,3.7,3.7s3.7-1.6,3.7-3.7C22.9,29.6,21.2,28,19.1,28L19.1,28z"/>
	<path d="M4,26v12h29V26H4z M13,36v1H7.6C7.9,36.7,8,36.3,8,35.9c0-1-0.9-1.9-1.9-1.9c-0.4,0-0.8,0.1-1.1,0.4v-4.8
		c0.3,0.1,0.6,0.2,0.9,0.2c1,0,1.9-0.9,1.9-1.9c0-0.3-0.1-0.6-0.2-0.9h21.8c-0.2,0.3-0.4,0.7-0.4,1.1c0,1,0.9,1.9,1.9,1.9
		c0.4,0,0.8-0.1,1.1-0.4v4.8c-0.3-0.2-0.6-0.3-1-0.3c-1,0-1.9,0.9-1.9,1.9c0,0.3,0.1,0.6,0.2,0.9H25v-1H13z"/>
</g>
<g>
	<polygon class="fillColor" points="43.8,7.6 43.2,7 39.8,10.4 36.4,7 35.8,7.6 39.2,11 35.8,14.4 36.4,15 39.8,11.6 43.2,15 
		43.8,14.4 40.4,11 	"/>
	<path class="fillColor" d="M3,5v12h29V5H3z M31,13.5c-0.3-0.2-0.6-0.3-1-0.3c-1,0-1.9,0.9-1.9,1.9c0,0.3,0.1,0.6,0.2,0.9H24v-1H12v1
		H6.6C6.9,15.7,7,15.3,7,14.9c0-1-0.9-1.9-1.9-1.9c-0.4,0-0.8,0.1-1.1,0.4V8.6c0.3,0.1,0.6,0.2,0.9,0.2c1,0,1.9-0.9,1.9-1.9
		c0-0.3-0.1-0.6-0.2-0.9h21.8C28.1,6.3,28,6.7,28,7.1c0,1,0.9,1.9,1.9,1.9c0.4,0,0.8-0.1,1.1-0.4V13.5z"/>
	<polygon class="fillColor" points="43.8,28.6 43.2,28 39.8,31.4 36.4,28 35.8,28.6 39.2,32 35.8,35.4 36.4,36 39.8,32.6 43.2,36 
		43.8,35.4 40.4,32 	"/>
	<path class="fillColor" d="M33,38H2V24h31V38z M1,23v16h33V23H1z"/>
	<path class="fillColor" d="M18.1,27.8c1.6,0,2.9,1.3,2.9,2.9s-1.3,2.9-2.9,2.9s-2.9-1.3-2.9-2.9C15.2,29.2,16.6,27.8,18.1,27.8
		 M18.1,27c-2.1,0-3.7,1.6-3.7,3.7s1.6,3.7,3.7,3.7s3.7-1.6,3.7-3.7C21.9,28.6,20.2,27,18.1,27L18.1,27z"/>
	<path class="fillColor" d="M3,25v12h29V25H3z M12,35v1H6.6C6.9,35.7,7,35.3,7,34.9c0-1-0.9-1.9-1.9-1.9c-0.4,0-0.8,0.1-1.1,0.4v-4.8
		c0.3,0.1,0.6,0.2,0.9,0.2c1,0,1.9-0.9,1.9-1.9c0-0.3-0.1-0.6-0.2-0.9h21.8c-0.2,0.3-0.4,0.7-0.4,1.1c0,1,0.9,1.9,1.9,1.9
		c0.4,0,0.8-0.1,1.1-0.4v4.8c-0.3-0.2-0.6-0.3-1-0.3c-1,0-1.9,0.9-1.9,1.9c0,0.3,0.1,0.6,0.2,0.9H24v-1H12z"/>
	<path class="fillColor" d="M33,18H2V4h31V18z M1,3v16h33V3H1z"/>
	<path class="fillColor" d="M18.1,7.8c1.6,0,2.9,1.3,2.9,2.9s-1.3,2.9-2.9,2.9s-2.9-1.3-2.9-2.9C15.2,9.2,16.6,7.8,18.1,7.8 M18.1,7
		c-2.1,0-3.7,1.6-3.7,3.7s1.6,3.7,3.7,3.7s3.7-1.6,3.7-3.7C21.8,8.6,20.2,7,18.1,7L18.1,7z"/>
</g>
</svg>
