<?xml version="1.0" encoding="utf-8"?>
<!-- Generator: Adobe Illustrator 18.0.0, SVG Export Plug-In . SVG Version: 6.00 Build 0)  -->
<!DOCTYPE svg PUBLIC "-//W3C//DTD SVG 1.1//EN" "http://www.w3.org/Graphics/SVG/1.1/DTD/svg11.dtd">
<svg version="1.1" id="Ebene_1" xmlns="http://www.w3.org/2000/svg" xmlns:xlink="http://www.w3.org/1999/xlink" x="0px" y="0px"
	 viewBox="0 0 45 45" enable-background="new 0 0 45 45" xml:space="preserve">
	 <style type="text/css">
			@import "../default/default/svg.css";
	</style>
	 <script type="text/javascript">
         <![CDATA[
             if(window.parent && window.parent.Wincor && window.parent.Wincor.UI && window.parent.Wincor.UI.Content) {
                 let styleRes = window.parent.Wincor.UI.Content.StyleResourceResolver;
                 if(styleRes) {
                 	let style = document.getElementsByTagName("style")[0];
                 	if(style.innerHTML) {
                    	style.innerHTML = style.innerHTML.replace("default/svg.css", styleRes.type() + "svg.css");
                    }
                    else {
                    	style.textContent = style.textContent.replace("default/svg.css", styleRes.type() + "svg.css");
                    }
                    styleRes = null;
                 }
             }
         ]]>
    </script>	
<g class="shadowGroup1">
	<path d="M6,9.8h1.5v2.1l2.4-0.8l0.4,1l-2.5,1.1l1.4,2.7l-1.4,0.7l-1.1-2.3l-1,2.3l-1.3-0.8l1.3-2.6l-2.5-0.9l0.3-1.1l2.3,0.6L6,9.8
		z"/>
	<path d="M13.7,9.8h1.5v2.1l2.4-0.8l0.4,1l-2.5,1.1l1.4,2.7l-1.4,0.7l-1.1-2.3l-1,2.3l-1.3-0.8l1.3-2.6L11,12.3l0.3-1.1l2.3,0.6
		L13.7,9.8z"/>
	<path d="M21.4,9.8h1.5v2.1l2.4-0.8l0.4,1l-2.5,1.1l1.4,2.7l-1.4,0.7l-1.1-2.3l-1,2.3l-1.3-0.8l1.3-2.6l-2.5-0.9l0.3-1.1l2.3,0.6
		L21.4,9.8z"/>
	<rect x="3.3" y="17.1" width="7" height="0.8"/>
	<rect x="25.1" y="26" width="8.6" height="0.8"/>
	<rect x="28.2" y="16.3" width="14.9" height="0.8"/>
	<path d="M43.1,28.6l0-11.6h-3.5c-0.2,0.3-0.4,0.8-0.4,1.2c0,1.1,0.8,1.9,1.9,1.9c0.4,0,0.7-0.2,1.1-0.3v5.3
		c-0.3-0.2-0.7-0.3-1.1-0.3c-1.1,0-1.9,0.8-1.9,1.9c0,0.4,0.2,0.7,0.3,1.1H19.7c0.2-0.3,0.3-0.7,0.3-1.1c0-1.1-0.8-1.9-1.8-1.9
		c-0.6,0-1.2,0.3-1.5,0.8l0-6.4c0.3,0.5,0.9,0.8,1.5,0.8c1,0,1.8-0.8,1.8-1.9c0-0.4-0.1-0.7-0.3-1.1h-3.8l0,11.5L43.1,28.6z"/>
	<polygon points="44.7,30.1 44.7,14.6 26.3,14.6 26.3,15.3 43.9,15.4 43.9,29.4 15.2,29.4 15.2,17 14.3,17 14.3,30.1 	"/>
	<circle fill="none" stroke="#000000" stroke-width="0.75" cx="29.2" cy="21.6" r="3.7"/>
</g>
<g class="shadowGroup2">
	<path d="M4.9,9.2h1.5v2.1l2.4-0.8l0.4,1l-2.5,1.1l1.4,2.7L6.8,16l-1.1-2.3l-1,2.3l-1.3-0.8l1.3-2.6l-2.5-0.9l0.3-1.1l2.3,0.6
		L4.9,9.2z"/>
	<path d="M12.6,9.2h1.5v2.1l2.4-0.8l0.4,1l-2.5,1.1l1.4,2.7L14.5,16l-1.1-2.3l-1,2.3l-1.3-0.8l1.3-2.6L10,11.7l0.3-1.1l2.3,0.6
		L12.6,9.2z"/>
	<path d="M20.3,9.2h1.5v2.1l2.4-0.8l0.4,1l-2.5,1.1l1.4,2.7L22.2,16l-1.1-2.3l-1,2.3l-1.3-0.8l1.3-2.6l-2.5-0.9l0.3-1.1l2.3,0.6
		L20.3,9.2z"/>
	<rect x="2.3" y="16.4" width="7" height="0.8"/>
	<rect x="24" y="25.4" width="8.6" height="0.8"/>
	<rect x="27.1" y="15.6" width="14.9" height="0.8"/>
	<path d="M42,27.9V16.4l-3.5,0c-0.2,0.3-0.4,0.8-0.4,1.2c0,1.1,0.8,1.9,1.9,1.9c0.4,0,0.7-0.2,1.1-0.3v5.3c-0.3-0.2-0.7-0.3-1.1-0.3
		c-1.1,0-1.9,0.8-1.9,1.9c0,0.4,0.2,0.7,0.3,1.1H18.6c0.2-0.3,0.3-0.7,0.3-1.1c0-1.1-0.8-1.9-1.8-1.9c-0.6,0-1.2,0.3-1.5,0.8l0-6.4
		c0.3,0.5,0.9,0.8,1.5,0.8c1,0,1.8-0.8,1.8-1.9c0-0.4-0.1-0.7-0.3-1.1h-3.8l0,11.5H42z"/>
	<polygon points="43.7,29.5 43.7,13.9 25.2,13.9 25.2,14.7 42.9,14.7 42.9,28.7 14.2,28.7 14.2,16.4 13.3,16.4 13.3,29.5 	"/>
	<circle fill="none" stroke="#000000" stroke-width="0.75" cx="28.1" cy="20.9" r="3.7"/>
</g>
<g class="shadowGroup3">
	<path d="M4.1,8.6h1.5v2.1L8,9.9l0.4,1L5.9,12l1.4,2.7L6,15.4l-1.1-2.3l-1,2.3l-1.3-0.8L3.9,12l-2.5-0.9L1.8,10L4,10.6L4.1,8.6z"/>
	<path d="M11.8,8.6h1.5v2.1l2.4-0.8l0.4,1L13.6,12l1.4,2.7l-1.4,0.7l-1.1-2.3l-1,2.3l-1.3-0.8l1.3-2.6l-2.5-0.9L9.5,10l2.3,0.6
		L11.8,8.6z"/>
	<path d="M19.5,8.6H21v2.1l2.4-0.8l0.4,1L21.4,12l1.4,2.7l-1.4,0.7l-1.1-2.3l-1,2.3L18,14.6l1.3-2.6l-2.5-0.9l0.3-1.1l2.3,0.6
		L19.5,8.6z"/>
	<rect x="1.4" y="15.8" width="7" height="0.8"/>
	<rect x="23.2" y="24.7" width="8.6" height="0.8"/>
	<rect x="26.3" y="15" width="14.9" height="0.8"/>
	<path d="M41.2,27.3V15.7l-3.5,0c-0.2,0.3-0.4,0.8-0.4,1.2c0,1.1,0.8,1.9,1.9,1.9c0.4,0,0.7-0.2,1.1-0.3v5.3
		c-0.3-0.2-0.7-0.3-1.1-0.3c-1.1,0-1.9,0.8-1.9,1.9c0,0.4,0.2,0.7,0.3,1.1H17.8c0.2-0.3,0.3-0.7,0.3-1.1c0-1.1-0.8-1.9-1.8-1.9
		c-0.6,0-1.2,0.3-1.5,0.8l0-6.4c0.3,0.5,0.9,0.8,1.5,0.8c1,0,1.8-0.8,1.8-1.9c0-0.4-0.1-0.7-0.3-1.1H14l0,11.5L41.2,27.3z"/>
	<polygon points="42.8,28.9 42.8,13.3 24.4,13.3 24.4,14.1 42,14.1 42,28.1 13.3,28.1 13.3,15.8 12.4,15.7 12.4,28.9 	"/>
	<circle fill="none" stroke="#000000" stroke-width="0.75" cx="27.3" cy="20.3" r="3.7"/>
</g>
<g>
	<path class="fillColor" d="M3.4,7.9h1.5V10l2.4-0.8l0.4,1l-2.5,1.1L6.7,14l-1.4,0.7l-1.1-2.3l-1,2.3L1.9,14l1.3-2.6l-2.5-0.9l0.3-1.1L3.3,10L3.4,7.9z
		"/>
	<path class="fillColor" d="M11.1,7.9h1.5V10L15,9.2l0.4,1l-2.5,1.1l1.4,2.7L13,14.8l-1.1-2.3l-1,2.3L9.6,14l1.3-2.6l-2.5-0.9l0.3-1.1L11,10L11.1,7.9z
		"/>
	<path class="fillColor" d="M18.8,7.9h1.5V10l2.4-0.8l0.4,1l-2.5,1.1l1.4,2.7l-1.4,0.7l-1.1-2.3l-1,2.3L17.3,14l1.3-2.6l-2.5-0.9l0.3-1.1l2.3,0.6
		L18.8,7.9z"/>
	<rect class="fillColor" x="0.7" y="15.2" width="7" height="0.8"/>
	<rect class="fillColor" x="22.5" y="24.1" width="8.6" height="0.8"/>
	<rect class="fillColor" x="25.6" y="14.4" width="14.9" height="0.8"/>
	<path class="fillColor" d="M40.5,26.7V15.1H37c-0.2,0.3-0.4,0.8-0.4,1.2c0,1.1,0.8,1.9,1.9,1.9c0.4,0,0.7-0.2,1.1-0.3v5.3c-0.3-0.2-0.7-0.3-1.1-0.3
		c-1.1,0-1.9,0.8-1.9,1.9c0,0.4,0.2,0.7,0.3,1.1l-19.8,0c0.2-0.3,0.3-0.7,0.3-1.1c0-1.1-0.8-1.9-1.8-1.9c-0.6,0-1.2,0.3-1.5,0.8
		l0-6.4c0.3,0.5,0.9,0.8,1.5,0.8c1,0,1.8-0.8,1.8-1.9c0-0.4-0.1-0.7-0.3-1.1l-3.8,0l0,11.5L40.5,26.7z"/>
	<polygon class="fillColor" points="42.1,28.3 42.1,12.7 23.7,12.7 23.7,13.5 41.3,13.5 41.3,27.5 12.6,27.5 12.6,15.1 11.7,15.1 11.7,28.3 	"/>
	<circle class="strokeColor" fill="none" stroke="#000000" stroke-width="0.75" cx="26.6" cy="19.7" r="3.7"/>
</g>
</svg>
