<?xml version="1.0" encoding="utf-8"?>
<!-- Generator: Adobe Illustrator 18.0.0, SVG Export Plug-In . SVG Version: 6.00 Build 0)  -->
<!DOCTYPE svg PUBLIC "-//W3C//DTD SVG 1.1//EN" "http://www.w3.org/Graphics/SVG/1.1/DTD/svg11.dtd">
<svg version="1.1" id="Layer_1" xmlns="http://www.w3.org/2000/svg" xmlns:xlink="http://www.w3.org/1999/xlink" x="0px" y="0px"
	 viewBox="0 0 45 45" enable-background="new 0 0 45 45" xml:space="preserve">
	 <style type="text/css">
			@import "../default/default/svg.css";
	</style>
	 <script type="text/javascript">
         <![CDATA[
             if(window.parent && window.parent.Wincor && window.parent.Wincor.UI && window.parent.Wincor.UI.Content) {
                 let styleRes = window.parent.Wincor.UI.Content.StyleResourceResolver;
                 if(styleRes) {
                 	let style = document.getElementsByTagName("style")[0];
                 	if(style.innerHTML) {
                    	style.innerHTML = style.innerHTML.replace("default/svg.css", styleRes.type() + "svg.css");
                    }
                    else {
                    	style.textContent = style.textContent.replace("default/svg.css", styleRes.type() + "svg.css");
                    }
                    styleRes = null;
                 }
             }
         ]]>
    </script>	
<g class="shadowGroup1">
	<g>
		<polyline fill="none" stroke="#000000" stroke-miterlimit="10" points="36.3,25.9 31.8,21.3 27.2,25.9 		"/>
	</g>
	<g>
		<path d="M20.2,29.9c3.2-0.6,5.9,2.1,5.3,5.3c-0.3,1.8-1.8,3.2-3.5,3.5c-3.2,0.6-5.9-2.1-5.3-5.3C17,31.6,18.4,30.2,20.2,29.9z"/>
	</g>
	<g>
		<path d="M22.5,40.6c-1.3,0.1,2.1,1.7,3.5,1.7c2.5,0,4.5-2,4.5-4.5c0-1.9-1.3-3.6-3-4.2C27.4,37.3,25.8,40.5,22.5,40.6z"/>
	</g>
	<g>
		<path fill="none" stroke="#000000" stroke-miterlimit="10" d="M20,28c4.4-0.7,8.1,3,7.4,7.4c-0.4,2.6-2.6,4.8-5.2,5.2
			c-4.4,0.7-8.1-3-7.4-7.4C15.2,30.6,17.4,28.4,20,28z"/>
	</g>
	<g>
		<path fill="none" stroke="#000000" stroke-miterlimit="10" d="M27,31.6c3.1,0.5,5.5,3.1,5.5,6.3c0,3.5-2.9,6.4-6.4,6.4
			c-2.6,0-4.9-1.6-5.8-3.8"/>
	</g>
	<g>
		<path d="M20.2,5.3c3.2-0.6,5.9,2.1,5.3,5.3c-0.3,1.8-1.8,3.2-3.5,3.5c-3.2,0.6-5.9-2.1-5.3-5.3C17,7,18.4,5.6,20.2,5.3z"/>
	</g>
	<g>
		<path d="M22.5,16c-1.3,0.1,2.1,1.7,3.5,1.7c2.5,0,4.5-2,4.5-4.5c0-1.9-1.3-3.6-3-4.2C27.4,12.7,25.8,15.8,22.5,16z"/>
	</g>
	<g>
		<path fill="none" stroke="#000000" stroke-miterlimit="10" d="M20,3.4c4.4-0.7,8.1,3,7.4,7.4c-0.4,2.6-2.6,4.8-5.2,5.2
			c-4.4,0.7-8.1-3-7.4-7.4C15.2,5.9,17.4,3.8,20,3.4z"/>
	</g>
	<g>
		<path fill="none" stroke="#000000" stroke-miterlimit="10" d="M27,7c3.1,0.5,5.5,3.1,5.5,6.3c0,3.5-2.9,6.4-6.4,6.4
			c-2.6,0-4.9-1.6-5.8-3.8"/>
	</g>
	<g>
		<rect x="31.2" y="21.5" width="1" height="10"/>
	</g>
	<g>
		<polyline fill="none" stroke="#000000" stroke-miterlimit="10" points="10.1,22.7 14.6,27.3 19.2,22.7 		"/>
	</g>
	<g>
		<rect x="14.2" y="16.3" width="1" height="11"/>
	</g>
</g>
<g class="shadowGroup2">
	<g>
		<polyline fill="none" stroke="#000000" stroke-miterlimit="10" points="35.7,24.8 31.2,20.2 26.6,24.8 		"/>
	</g>
	<g>
		<path d="M19.6,28.8c3.2-0.6,5.9,2.1,5.3,5.3c-0.3,1.8-1.8,3.2-3.5,3.5c-3.2,0.6-5.9-2.1-5.3-5.3C16.4,30.5,17.8,29.1,19.6,28.8z"
			/>
	</g>
	<g>
		<path d="M21.9,39.5c-1.3,0.1,2.1,1.7,3.5,1.7c2.5,0,4.5-2,4.5-4.5c0-1.9-1.3-3.6-3-4.2C26.8,36.2,25.2,39.4,21.9,39.5z"/>
	</g>
	<g>
		<path fill="none" stroke="#000000" stroke-miterlimit="10" d="M19.4,26.9c4.4-0.7,8.1,3,7.4,7.4c-0.4,2.6-2.6,4.8-5.2,5.2
			c-4.4,0.7-8.1-3-7.4-7.4C14.6,29.5,16.8,27.3,19.4,26.9z"/>
	</g>
	<g>
		<path fill="none" stroke="#000000" stroke-miterlimit="10" d="M26.4,30.5c3.1,0.5,5.5,3.1,5.5,6.3c0,3.5-2.9,6.4-6.4,6.4
			c-2.6,0-4.9-1.6-5.8-3.8"/>
	</g>
	<g>
		<path d="M19.6,4.2c3.2-0.6,5.9,2.1,5.3,5.3c-0.3,1.8-1.8,3.2-3.5,3.5c-3.2,0.6-5.9-2.1-5.3-5.3C16.4,5.9,17.8,4.5,19.6,4.2z"/>
	</g>
	<g>
		<path d="M21.9,14.9c-1.3,0.1,2.1,1.7,3.5,1.7c2.5,0,4.5-2,4.5-4.5c0-1.9-1.3-3.6-3-4.2C26.8,11.6,25.2,14.7,21.9,14.9z"/>
	</g>
	<g>
		<path fill="none" stroke="#000000" stroke-miterlimit="10" d="M19.4,2.3c4.4-0.7,8.1,3,7.4,7.4c-0.4,2.6-2.6,4.8-5.2,5.2
			c-4.4,0.7-8.1-3-7.4-7.4C14.6,4.8,16.8,2.7,19.4,2.3z"/>
	</g>
	<g>
		<path fill="none" stroke="#000000" stroke-miterlimit="10" d="M26.4,5.9c3.1,0.5,5.5,3.1,5.5,6.3c0,3.5-2.9,6.4-6.4,6.4
			c-2.6,0-4.9-1.6-5.8-3.8"/>
	</g>
	<g>
		<rect x="30.6" y="20.4" width="1" height="10"/>
	</g>
	<g>
		<polyline fill="none" stroke="#000000" stroke-miterlimit="10" points="9.5,21.6 14,26.2 18.6,21.6 		"/>
	</g>
	<g>
		<rect x="13.6" y="15.2" width="1" height="11"/>
	</g>
</g>
<g class="shadowGroup3">
	<g>
		<polyline fill="none" stroke="#000000" stroke-miterlimit="10" points="35.2,24.1 30.7,19.5 26.1,24.1 		"/>
	</g>
	<g>
		<path d="M19.1,28.1c3.2-0.6,5.9,2.1,5.3,5.3c-0.3,1.8-1.8,3.2-3.5,3.5c-3.2,0.6-5.9-2.1-5.3-5.3C15.9,29.8,17.3,28.4,19.1,28.1z"
			/>
	</g>
	<g>
		<path d="M21.4,38.8c-1.3,0.1,2.1,1.7,3.5,1.7c2.5,0,4.5-2,4.5-4.5c0-1.9-1.3-3.6-3-4.2C26.3,35.5,24.7,38.7,21.4,38.8z"/>
	</g>
	<g>
		<path fill="none" stroke="#000000" stroke-miterlimit="10" d="M18.9,26.2c4.4-0.7,8.1,3,7.4,7.4c-0.4,2.6-2.6,4.8-5.2,5.2
			c-4.4,0.7-8.1-3-7.4-7.4C14.1,28.8,16.3,26.6,18.9,26.2z"/>
	</g>
	<g>
		<path fill="none" stroke="#000000" stroke-miterlimit="10" d="M25.9,29.8c3.1,0.5,5.5,3.1,5.5,6.3c0,3.5-2.9,6.4-6.4,6.4
			c-2.6,0-4.9-1.6-5.8-3.8"/>
	</g>
	<g>
		<path d="M19.1,3.5c3.2-0.6,5.9,2.1,5.3,5.3c-0.3,1.8-1.8,3.2-3.5,3.5c-3.2,0.6-5.9-2.1-5.3-5.3C15.9,5.2,17.3,3.8,19.1,3.5z"/>
	</g>
	<g>
		<path d="M21.4,14.2c-1.3,0.1,2.1,1.7,3.5,1.7c2.5,0,4.5-2,4.5-4.5c0-1.9-1.3-3.6-3-4.2C26.3,10.9,24.7,14,21.4,14.2z"/>
	</g>
	<g>
		<path fill="none" stroke="#000000" stroke-miterlimit="10" d="M18.9,1.6c4.4-0.7,8.1,3,7.4,7.4c-0.4,2.6-2.6,4.8-5.2,5.2
			c-4.4,0.7-8.1-3-7.4-7.4C14.1,4.1,16.3,2,18.9,1.6z"/>
	</g>
	<g>
		<path fill="none" stroke="#000000" stroke-miterlimit="10" d="M25.9,5.2c3.1,0.5,5.5,3.1,5.5,6.3c0,3.5-2.9,6.4-6.4,6.4
			c-2.6,0-4.9-1.6-5.8-3.8"/>
	</g>
	<g>
		<rect x="30.1" y="19.7" width="1" height="10"/>
	</g>
	<g>
		<polyline fill="none" stroke="#000000" stroke-miterlimit="10" points="9,20.9 13.5,25.5 18.1,20.9 		"/>
	</g>
	<g>
		<rect x="13.1" y="14.5" width="1" height="11"/>
	</g>
</g>
<g>
	<g>
		<polyline class="strokeColor" fill="none" stroke="#000000" stroke-miterlimit="10" points="34.9,23.2 30.4,18.6 25.8,23.2 		"/>
	</g>
	<g>
		<path class="fillColor" d="M18.8,27.2c3.2-0.6,5.9,2.1,5.3,5.3c-0.3,1.8-1.8,3.2-3.5,3.5c-3.2,0.6-5.9-2.1-5.3-5.3C15.6,28.9,17,27.5,18.8,27.2z"/>
	</g>
	<g>
		<path class="fillColor" d="M21.1,37.9c-1.3,0.1,2.1,1.7,3.5,1.7c2.5,0,4.5-2,4.5-4.5c0-1.9-1.3-3.6-3-4.2C26,34.6,24.4,37.8,21.1,37.9z"/>
	</g>
	<g>
		<path class="strokeColor" fill="none" stroke="#000000" stroke-miterlimit="10" d="M18.6,25.3c4.4-0.7,8.1,3,7.4,7.4c-0.4,2.6-2.6,4.8-5.2,5.2
			c-4.4,0.7-8.1-3-7.4-7.4C13.8,27.9,16,25.7,18.6,25.3z"/>
	</g>
	<g>
		<path class="strokeColor" fill="none" stroke="#000000" stroke-miterlimit="10" d="M25.6,28.9c3.1,0.5,5.5,3.1,5.5,6.3c0,3.5-2.9,6.4-6.4,6.4
			c-2.6,0-4.9-1.6-5.8-3.8"/>
	</g>
	<g>
		<path class="fillColor" d="M18.8,2.6C22,2,24.7,4.7,24.1,7.9c-0.3,1.8-1.8,3.2-3.5,3.5c-3.2,0.6-5.9-2.1-5.3-5.3C15.6,4.3,17,2.9,18.8,2.6z"/>
	</g>
	<g>
		<path class="fillColor" d="M21.1,13.3c-1.3,0.1,2.1,1.7,3.5,1.7c2.5,0,4.5-2,4.5-4.5c0-1.9-1.3-3.6-3-4.2C26,10,24.4,13.1,21.1,13.3z"/>
	</g>
	<g>
		<path class="strokeColor" fill="none" stroke="#000000" stroke-miterlimit="10" d="M18.6,0.7C23,0,26.7,3.7,26,8.1c-0.4,2.6-2.6,4.8-5.2,5.2
			c-4.4,0.7-8.1-3-7.4-7.4C13.8,3.2,16,1.1,18.6,0.7z"/>
	</g>
	<g>
		<path class="strokeColor" fill="none" stroke="#000000" stroke-miterlimit="10" d="M25.6,4.3c3.1,0.5,5.5,3.1,5.5,6.3c0,3.5-2.9,6.4-6.4,6.4
			c-2.6,0-4.9-1.6-5.8-3.8"/>
	</g>
	<g>
		<rect class="fillColor" x="29.8" y="18.8" width="1" height="10"/>
	</g>
	<g>
		<polyline class="strokeColor" fill="none" stroke="#000000" stroke-miterlimit="10" points="8.7,20 13.2,24.6 17.8,20 		"/>
	</g>
	<g>
		<rect class="fillColor" x="12.8" y="13.6" width="1" height="11"/>
	</g>
</g>
</svg>
