<?xml version="1.0" encoding="utf-8"?>
<!-- Generator: Adobe Illustrator 18.0.0, SVG Export Plug-In . SVG Version: 6.00 Build 0)  -->
<!DOCTYPE svg PUBLIC "-//W3C//DTD SVG 1.1//EN" "http://www.w3.org/Graphics/SVG/1.1/DTD/svg11.dtd">
<svg version="1.1" id="Ebene_1" xmlns="http://www.w3.org/2000/svg" xmlns:xlink="http://www.w3.org/1999/xlink" x="0px" y="0px"
	 viewBox="0 0 45 45" enable-background="new 0 0 45 45" xml:space="preserve">
	 <style type="text/css">
			@import "../default/default/svg.css";
	</style>
	 <script type="text/javascript">
         <![CDATA[
             if(window.parent && window.parent.Wincor && window.parent.Wincor.UI && window.parent.Wincor.UI.Content) {
                 let styleRes = window.parent.Wincor.UI.Content.StyleResourceResolver;
                 if(styleRes) {
                 	let style = document.getElementsByTagName("style")[0];
                 	if(style.innerHTML) {
                    	style.innerHTML = style.innerHTML.replace("default/svg.css", styleRes.type() + "svg.css");
                    }
                    else {
                    	style.textContent = style.textContent.replace("default/svg.css", styleRes.type() + "svg.css");
                    }
                    styleRes = null;
                 }
             }
         ]]>
    </script>	
<g class="shadowGroup1">
	<polygon points="9,3.1 9,17.5 13.8,17.5 13.8,16.5 10,16.5 10,4 36.8,4 36.8,16.5 16.6,16.5 16.6,17.5 37.7,17.5 37.7,3.1 	"/>
	<path d="M23.9,7c-1.8,0-3.4,1.5-3.4,3.4s1.5,3.4,3.4,3.4c1.8,0,3.4-1.5,3.4-3.4S25.7,7,23.9,7z M23.9,12.9c-1.5,0-2.5-1.2-2.5-2.5
		s1.2-2.5,2.5-2.5c1.5-0.1,2.5,1.1,2.5,2.4S25.3,12.9,23.9,12.9z"/>
	<path d="M35.8,5H10.9v10.6h2.9v-3c-0.3-0.3-0.6-0.5-1.2-0.5c-0.3,0-0.5,0.1-0.7,0.2v-4c0.2,0.1,0.5,0.2,0.7,0.2
		c1,0,1.7-0.7,1.7-1.7c0-0.3-0.1-0.5-0.2-0.7h18.4c-0.1,0.2-0.2,0.5-0.2,0.7c0,1,0.7,1.7,1.7,1.7c0.3,0,0.5-0.1,0.7-0.2v4
		c-0.2-0.1-0.5-0.2-0.7-0.2c-1,0-1.7,0.7-1.7,1.7c0,0.3,0.1,0.5,0.2,0.7H16.6v1h19.2C35.8,15.5,35.8,5,35.8,5z"/>
	<polygon points="33,30 36.8,30 36.8,42.4 10,42.4 10,30 30.1,30 30.1,29.1 9,29.1 9,43.4 37.7,43.4 37.7,29.1 33,29.1 	"/>
	<path d="M20.5,36.3c0,1.8,1.5,3.4,3.4,3.4c1.8,0,3.4-1.5,3.4-3.4s-1.5-3.4-3.4-3.4C22,32.9,20.5,34.4,20.5,36.3z M26.4,36.3
		c0,1.5-1.2,2.5-2.5,2.5c-1.5,0-2.5-1.2-2.5-2.5c0-1.4,1.2-2.5,2.5-2.5C25.3,33.6,26.4,34.8,26.4,36.3z"/>
	<path d="M14.3,39.8c0-1-0.7-1.7-1.7-1.7c-0.3,0-0.5,0.1-0.7,0.2v-4c0.2,0.1,0.5,0.2,0.7,0.2c1,0,1.7-0.7,1.7-1.7
		c0-0.3-0.1-0.5-0.2-0.7H30v-1H10.9v10.6h24.9V31.1H33V34h-0.1c0.3,0.4,0.7,0.5,1.3,0.5c0.3,0,0.5-0.1,0.7-0.2v4
		c-0.2-0.1-0.5-0.2-0.7-0.2c-1,0-1.7,0.7-1.7,1.7c0,0.3,0.1,0.5,0.2,0.7H14.2C14.2,40.4,14.3,40.1,14.3,39.8z"/>
	<polyline fill="none" stroke="#000000" stroke-miterlimit="10" points="10.9,21.7 15.3,26.2 19.6,21.7 	"/>
	<polyline fill="none" stroke="#000000" stroke-miterlimit="10" points="35.8,25.3 31.5,21 27.1,25.3 	"/>
	<rect x="31" y="21.7" width="1" height="12.5"/>
	<rect x="14.7" y="12.9" width="1" height="12.5"/>
</g>
<g class="shadowGroup2">
	<polygon points="8.1,2.4 8.1,16.8 12.9,16.8 12.9,15.8 9.1,15.8 9.1,3.3 35.9,3.3 35.9,15.8 15.8,15.8 15.8,16.8 36.9,16.8 
		36.9,2.4 	"/>
	<path d="M23,6.3c-1.8,0-3.4,1.5-3.4,3.4s1.5,3.4,3.4,3.4c1.8,0,3.4-1.5,3.4-3.4S24.8,6.3,23,6.3z M23,12.2c-1.5,0-2.5-1.2-2.5-2.5
		s1.2-2.5,2.5-2.5c1.5-0.1,2.5,1.1,2.5,2.4S24.5,12.2,23,12.2z"/>
	<path d="M35,4.3H10v10.6h2.9v-3c-0.3-0.3-0.6-0.5-1.2-0.5c-0.3,0-0.5,0.1-0.7,0.2v-4c0.2,0.1,0.5,0.2,0.7,0.2c1,0,1.7-0.7,1.7-1.7
		c0-0.3-0.1-0.5-0.2-0.7h18.4c-0.1,0.2-0.2,0.5-0.2,0.7c0,1,0.7,1.7,1.7,1.7c0.3,0,0.5-0.1,0.7-0.2v4c-0.2-0.1-0.5-0.2-0.7-0.2
		c-1,0-1.7,0.7-1.7,1.7c0,0.3,0.1,0.5,0.2,0.7H15.8v1H35V4.3z"/>
	<polygon points="32.1,29.3 35.9,29.3 35.9,41.7 9.1,41.7 9.1,29.3 29.2,29.3 29.2,28.3 8.1,28.3 8.1,42.6 36.9,42.6 36.9,28.3 
		32.1,28.3 	"/>
	<path d="M19.6,35.5c0,1.8,1.5,3.4,3.4,3.4c1.8,0,3.4-1.5,3.4-3.4s-1.5-3.4-3.4-3.4C21.2,32.1,19.6,33.6,19.6,35.5z M25.5,35.5
		c0,1.5-1.2,2.5-2.5,2.5c-1.5,0-2.5-1.2-2.5-2.5S21.6,33,23,33C24.5,32.9,25.5,34.1,25.5,35.5z"/>
	<path d="M13.4,39c0-1-0.7-1.7-1.7-1.7c-0.3,0-0.5,0.1-0.7,0.2v-4c0.2,0.1,0.5,0.2,0.7,0.2c1,0,1.7-0.7,1.7-1.7
		c0-0.3-0.1-0.5-0.2-0.7h15.9v-1H10v10.6h25V30.3h-2.9v2.9H32c0.3,0.4,0.7,0.5,1.3,0.5c0.3,0,0.5-0.1,0.7-0.2v4
		c-0.2-0.1-0.5-0.2-0.7-0.2c-1,0-1.7,0.7-1.7,1.7c0,0.3,0.1,0.5,0.2,0.7H13.3C13.3,39.7,13.4,39.4,13.4,39z"/>
	<polyline fill="none" stroke="#000000" stroke-miterlimit="10" points="10,21 14.4,25.5 18.7,21 	"/>
	<polyline fill="none" stroke="#000000" stroke-miterlimit="10" points="35,24.6 30.6,20.3 26.3,24.6 	"/>
	<rect x="30.1" y="21" width="1" height="12.5"/>
	<rect x="13.9" y="12.2" width="1" height="12.5"/>
</g>
<g class="shadowGroup3">
	<polygon points="7.5,1.7 7.5,16.1 12.3,16.1 12.3,15.2 8.5,15.2 8.5,2.7 35.3,2.7 35.3,15.2 15.2,15.2 15.2,16.1 36.3,16.1 
		36.3,1.7 	"/>
	<path d="M22.4,5.6C20.6,5.6,19,7.1,19,9s1.5,3.4,3.4,3.4c1.8,0,3.4-1.5,3.4-3.4S24.2,5.6,22.4,5.6z M22.4,11.6
		c-1.5,0-2.5-1.2-2.5-2.5s1.2-2.5,2.5-2.5c1.5-0.1,2.5,1.1,2.5,2.4S23.9,11.6,22.4,11.6z"/>
	<path d="M34.4,3.6h-25v10.6h2.9v-3c-0.3-0.3-0.6-0.5-1.2-0.5c-0.3,0-0.5,0.1-0.7,0.2v-4c0.2,0.1,0.5,0.2,0.7,0.2
		c1,0,1.7-0.7,1.7-1.7c0-0.3-0.1-0.5-0.2-0.7H31c-0.1,0.2-0.2,0.5-0.2,0.7c0,1,0.7,1.7,1.7,1.7c0.3,0,0.5-0.1,0.7-0.2v4
		c-0.2-0.1-0.5-0.2-0.7-0.2c-1,0-1.7,0.7-1.7,1.7c0,0.3,0.1,0.5,0.2,0.7H15.2v1h19.2V3.6z"/>
	<polygon points="31.5,28.6 35.3,28.6 35.3,41 8.5,41 8.5,28.6 28.6,28.6 28.6,27.7 7.5,27.7 7.5,42 36.3,42 36.3,27.7 31.5,27.7 	
		"/>
	<path d="M19,34.9c0,1.8,1.5,3.4,3.4,3.4c1.8,0,3.4-1.5,3.4-3.4s-1.5-3.4-3.4-3.4C20.6,31.5,19,33,19,34.9z M24.9,34.9
		c0,1.5-1.2,2.5-2.5,2.5c-1.5,0-2.5-1.2-2.5-2.5s1.2-2.5,2.5-2.5C23.9,32.2,24.9,33.4,24.9,34.9z"/>
	<path d="M12.8,38.4c0-1-0.7-1.7-1.7-1.7c-0.3,0-0.5,0.1-0.7,0.2v-4c0.2,0.1,0.5,0.2,0.7,0.2c1,0,1.7-0.7,1.7-1.7
		c0-0.3-0.1-0.5-0.2-0.7h15.9v-1H9.4v10.6h24.9V29.7h-2.9v2.9h-0.1c0.3,0.4,0.7,0.5,1.3,0.5c0.3,0,0.5-0.1,0.7-0.2v4
		c-0.2-0.1-0.5-0.2-0.7-0.2c-1,0-1.7,0.7-1.7,1.7c0,0.3,0.1,0.5,0.2,0.7H12.7C12.7,39,12.8,38.7,12.8,38.4z"/>
	<polyline fill="none" stroke="#000000" stroke-miterlimit="10" points="9.4,20.4 13.8,24.8 18.1,20.4 	"/>
	<polyline fill="none" stroke="#000000" stroke-miterlimit="10" points="34.4,24 30,19.6 25.7,24 	"/>
	<rect x="29.5" y="20.4" width="1" height="12.5"/>
	<rect x="13.3" y="11.6" width="1" height="12.5"/>
</g>
<g>
	<path class="fillColor" d="M21.6,4.9c-1.8,0-3.4,1.5-3.4,3.4s1.5,3.4,3.4,3.4c1.8,0,3.4-1.5,3.4-3.4S23.4,4.9,21.6,4.9z M21.6,10.8
		c-1.5,0-2.5-1.2-2.5-2.5s1.2-2.5,2.5-2.5c1.5-0.1,2.5,1.1,2.5,2.4S23.1,10.8,21.6,10.8z"/>
	<path class="fillColor" d="M33.6,2.9H8.7v10.6h2.9v-3C11.3,10.2,11,10,10.4,10c-0.3,0-0.5,0.1-0.7,0.2v-4c0.2,0.1,0.5,0.2,0.7,0.2
		c1,0,1.7-0.7,1.7-1.7c0-0.3-0.1-0.5-0.2-0.7h18.4c-0.1,0.2-0.2,0.5-0.2,0.7c0,1,0.7,1.7,1.7,1.7c0.3,0,0.5-0.1,0.7-0.2v4
		C32.3,10.1,32,10,31.8,10c-1,0-1.7,0.7-1.7,1.7c0,0.3,0.1,0.5,0.2,0.7H14.4v1h19.2V2.9z"/>
	<polygon class="fillColor" points="30.7,27.9 34.6,27.9 34.6,40.3 7.7,40.3 7.7,27.9 27.9,27.9 27.9,26.9 6.8,26.9 6.8,41.2 35.5,41.2 35.5,26.9 
		30.7,26.9 	"/>
	<path class="fillColor" d="M18.2,34.1c0,1.8,1.5,3.4,3.4,3.4c1.8,0,3.4-1.5,3.4-3.4s-1.5-3.4-3.4-3.4C19.8,30.7,18.2,32.2,18.2,34.1z M24.2,34.1
		c0,1.5-1.2,2.5-2.5,2.5c-1.5,0-2.5-1.2-2.5-2.5c0-1.4,1.2-2.5,2.5-2.5C23.1,31.5,24.2,32.7,24.2,34.1z"/>
	<path class="fillColor" d="M12.1,37.6c0-1-0.7-1.7-1.7-1.7c-0.3,0-0.5,0.1-0.7,0.2v-4c0.2,0.1,0.5,0.2,0.7,0.2c1,0,1.7-0.7,1.7-1.7
		c0-0.3-0.1-0.5-0.2-0.7h15.9v-1H8.7v10.6h24.9V28.9h-2.9v2.9h-0.1c0.3,0.4,0.7,0.5,1.3,0.5c0.3,0,0.5-0.1,0.7-0.2v4
		c-0.2-0.1-0.5-0.2-0.7-0.2c-1,0-1.7,0.7-1.7,1.7c0,0.3,0.1,0.5,0.2,0.7H12C12,38.3,12.1,38,12.1,37.6z"/>
	<polyline class="strokeColor" fill="none" stroke="#000000" stroke-miterlimit="10" points="8.7,19.6 13,24.1 17.4,19.6 	"/>
	<polyline class="strokeColor" fill="none" stroke="#000000" stroke-miterlimit="10" points="33.6,23.2 29.3,18.9 24.9,23.2 	"/>
	<rect class="fillColor" x="28.7" y="19.6" width="1" height="12.5"/>
	<rect class="fillColor" x="12.5" y="10.8" width="1" height="12.5"/>
	<polygon class="fillColor" points="6.8,1 6.8,15.4 11.6,15.4 11.6,14.4 7.7,14.4 7.7,1.9 34.6,1.9 34.6,14.4 14.4,14.4 14.4,15.4 35.5,15.4 35.5,1 	
		"/>
</g>
</svg>
