<?xml version="1.0" encoding="utf-8"?>
<!-- Generator: Adobe Illustrator 18.0.0, SVG Export Plug-In . SVG Version: 6.00 Build 0)  -->
<!DOCTYPE svg PUBLIC "-//W3C//DTD SVG 1.1//EN" "http://www.w3.org/Graphics/SVG/1.1/DTD/svg11.dtd">
<svg version="1.1" id="Ebene_1" xmlns="http://www.w3.org/2000/svg" xmlns:xlink="http://www.w3.org/1999/xlink" x="0px" y="0px"
	 viewBox="0 0 45 45" enable-background="new 0 0 45 45" xml:space="preserve">
<style type="text/css">
			@import "../default/default/svg.css";
	</style>
	 <script type="text/javascript">
         <![CDATA[
             if(window.parent && window.parent.Wincor && window.parent.Wincor.UI && window.parent.Wincor.UI.Content) {
                 let styleRes = window.parent.Wincor.UI.Content.StyleResourceResolver;
                 if(styleRes) {
                 	let style = document.getElementsByTagName("style")[0];
                 	if(style.innerHTML) {
                    	style.innerHTML = style.innerHTML.replace("default/svg.css", styleRes.type() + "svg.css");
                    }
                    else {
                    	style.textContent = style.textContent.replace("default/svg.css", styleRes.type() + "svg.css");
                    }
                    styleRes = null;
                 }
             }
         ]]>
    </script>	

<g class="shadowGroup1">
	<g>
		<path d="M23.2,27.8c1.3,0,2.2,1.1,2.2,2.2c0,1.2-1.1,2.2-2.2,2.2c-1.3,0-2.2-1.1-2.2-2.2C20.9,28.8,22,27.8,23.2,27.8 M23.2,27.1
			c-1.6,0-2.8,1.3-2.8,2.8c0,1.6,1.3,2.8,2.8,2.8s2.8-1.3,2.8-2.8C26,28.4,24.8,27.1,23.2,27.1L23.2,27.1z"/>
		<path d="M34,40.2c-2.6,0-4.8-2.1-4.8-4.8s2.1-4.8,4.8-4.8c2.6,0,4.8,2.1,4.8,4.8C38.8,38.1,36.8,40.2,34,40.2z M34,31.4
			c-2.1,0-3.9,1.7-3.9,3.9s1.7,3.9,3.9,3.9c2.2,0,3.9-1.7,3.9-3.9C38,33.1,36.3,31.4,34,31.4z"/>
		<path d="M37.4,42.7c-1.9,0-3.6-1.2-4.5-2.8l0.9-0.4c0.7,1.5,2.1,2.3,3.6,2.3c2.1,0,3.9-1.7,3.9-3.9c0-2-1.5-3.6-3.3-3.8l0.2-1
			c2.3,0.3,4.2,2.3,4.2,4.7C42.3,40.6,40.1,42.7,37.4,42.7z"/>
		<circle cx="34" cy="35.4" r="2.2"/>
		<path d="M35.6,39.3c-0.9,0,1.3,1,2.1,1c1.5,0,2.6-1.2,2.6-2.6c0-1.2-0.8-2.1-1.7-2.4C38.4,37.5,37.4,39.3,35.6,39.3z"/>
		<g>
			<polygon points="10.7,24.8 29.7,24.8 29.7,24 9.9,24 9.9,36.4 28.1,36.4 28.1,35.6 10.7,35.6 			"/>
			<polygon points="29.2,24 29.2,24.8 34.7,24.8 34.7,29.5 35.6,29.5 35.6,24 			"/>
		</g>
		<g>
			<path d="M31.4,26.2c-0.2,0.2-0.5,0.6-0.5,1c0,0.9,0.8,1.5,1.5,1.5c0.3,0,0.7-0.1,0.9-0.3v1.2h0.9v-4h-4.8v0.7h2V26.2z"/>
			<path d="M11.5,25.6v9.3h16.6v-0.7H14.2c0.2-0.2,0.3-0.5,0.3-0.9c0-0.9-0.8-1.5-1.5-1.5c-0.3,0-0.7,0.1-0.9,0.3v-3.7
				c0.2,0.1,0.5,0.2,0.8,0.2c0.9,0,1.5-0.8,1.5-1.5c0-0.2-0.1-0.5-0.2-0.8h15.5v-0.7L11.5,25.6z"/>
			<polygon points="29.3,24 29.2,24 29.2,24.8 29.3,24.8 34.7,24.8 34.7,29.5 35.6,29.5 35.6,24 			"/>
			<polygon points="9.9,24 9.9,36.4 10.7,35.6 10.7,24.8 29.7,24.8 29.7,24 			"/>
		</g>
	</g>
	<g>
		<path d="M27.8,17.7l-4.4,3.8v-10h-0.8v9.9L18,17.7l-0.5,0.6L23,23l5.3-4.7L27.8,17.7z"/>
		<rect x="12.4" y="7.6" width="21.4" height="0.6"/>
		<rect x="12.4" y="9.8" width="21.4" height="0.6"/>
		<rect x="12.4" y="4.9" width="4.8" height="0.6"/>
		<rect x="28.9" y="4.9" width="4.8" height="0.6"/>
		<rect x="26.1" y="13.2" width="7.6" height="0.6"/>
		<polygon points="10.3,2.8 10.3,15.9 22.1,15.9 22.1,15.2 11.1,15.2 11.1,3.6 35.1,3.6 35.1,15.2 24.1,15.2 24.1,15.9 35.8,15.9 
			35.8,2.8 		"/>
	</g>
</g>
<g class="shadowGroup2">
	<g>
		<path d="M22.5,27c1.3,0,2.2,1.1,2.2,2.2c0,1.2-1.1,2.2-2.2,2.2c-1.3,0-2.2-1.1-2.2-2.2C20.2,28,21.3,27,22.5,27 M22.5,26.3
			c-1.6,0-2.8,1.3-2.8,2.8c0,1.6,1.3,2.8,2.8,2.8s2.8-1.3,2.8-2.8C25.3,27.6,24.1,26.3,22.5,26.3L22.5,26.3z"/>
		<path d="M33.3,39.4c-2.6,0-4.8-2.1-4.8-4.8s2.1-4.8,4.8-4.8c2.6,0,4.8,2.1,4.8,4.8C38.1,37.3,36.1,39.4,33.3,39.4z M33.3,30.6
			c-2.1,0-3.9,1.7-3.9,3.9s1.7,3.9,3.9,3.9c2.2,0,3.9-1.7,3.9-3.9C37.3,32.3,35.6,30.6,33.3,30.6z"/>
		<path d="M36.7,41.9c-1.9,0-3.6-1.2-4.5-2.8l0.9-0.4c0.7,1.5,2.1,2.3,3.6,2.3c2.1,0,3.9-1.7,3.9-3.9c0-2-1.5-3.6-3.3-3.8l0.2-1
			c2.3,0.3,4.2,2.3,4.2,4.7C41.6,39.8,39.4,41.9,36.7,41.9z"/>
		<circle cx="33.3" cy="34.6" r="2.2"/>
		<path d="M34.9,38.5c-0.9,0,1.3,1,2.1,1c1.5,0,2.6-1.2,2.6-2.6c0-1.2-0.8-2.1-1.7-2.4C37.7,36.7,36.7,38.5,34.9,38.5z"/>
		<g>
			<polygon points="10,24 29,24 29,23.2 9.2,23.2 9.2,35.6 27.4,35.6 27.4,34.8 10,34.8 			"/>
			<polygon points="28.5,23.2 28.5,24 34,24 34,28.7 34.9,28.7 34.9,23.2 			"/>
		</g>
		<g>
			<path d="M30.7,25.4c-0.2,0.2-0.5,0.6-0.5,1c0,0.9,0.8,1.5,1.5,1.5c0.3,0,0.7-0.1,0.9-0.3v1.2h0.9v-4h-4.8v0.7h2V25.4z"/>
			<path d="M10.8,24.8v9.3h16.6v-0.7H13.5c0.2-0.2,0.3-0.5,0.3-0.9c0-0.9-0.8-1.5-1.5-1.5c-0.3,0-0.7,0.1-0.9,0.3v-3.7
				c0.2,0.1,0.5,0.2,0.8,0.2c0.9,0,1.5-0.8,1.5-1.5c0-0.2-0.1-0.5-0.2-0.8H29v-0.7H10.8z"/>
			<polygon points="28.6,23.2 28.5,23.2 28.5,24 28.6,24 34,24 34,28.7 34.9,28.7 34.9,23.2 			"/>
			<polygon points="9.2,23.2 9.2,35.6 10,34.8 10,24 29,24 29,23.2 			"/>
		</g>
	</g>
	<g>
		<path d="M27.1,16.9l-4.4,3.8v-10h-0.8v9.9l-4.6-3.8l-0.5,0.6l5.6,4.7l5.3-4.7L27.1,16.9z"/>
		<rect x="11.7" y="6.8" width="21.4" height="0.6"/>
		<rect x="11.7" y="9" width="21.4" height="0.6"/>
		<rect x="11.7" y="4.1" width="4.8" height="0.6"/>
		<rect x="28.2" y="4.1" width="4.8" height="0.6"/>
		<rect x="25.4" y="12.4" width="7.6" height="0.6"/>
		<polygon points="9.6,2 9.6,15.1 21.4,15.1 21.4,14.4 10.4,14.4 10.4,2.8 34.4,2.8 34.4,14.4 23.4,14.4 23.4,15.1 35.1,15.1 
			35.1,2 		"/>
	</g>
</g>
<g class="shadowGroup3">
	<g>
		<path d="M21.6,26.2c1.3,0,2.2,1.1,2.2,2.2c0,1.2-1.1,2.2-2.2,2.2c-1.3,0-2.2-1.1-2.2-2.2C19.3,27.2,20.4,26.2,21.6,26.2
			 M21.6,25.5c-1.6,0-2.8,1.3-2.8,2.8c0,1.6,1.3,2.8,2.8,2.8s2.8-1.3,2.8-2.8C24.4,26.8,23.2,25.5,21.6,25.5L21.6,25.5z"/>
		<path d="M32.4,38.6c-2.6,0-4.8-2.1-4.8-4.8s2.1-4.8,4.8-4.8c2.6,0,4.8,2.1,4.8,4.8C37.2,36.5,35.2,38.6,32.4,38.6z M32.4,29.8
			c-2.1,0-3.9,1.7-3.9,3.9s1.7,3.9,3.9,3.9s3.9-1.7,3.9-3.9C36.4,31.5,34.7,29.8,32.4,29.8z"/>
		<path d="M35.8,41.1c-1.9,0-3.6-1.2-4.5-2.8l0.9-0.4c0.7,1.5,2.1,2.3,3.6,2.3c2.1,0,3.9-1.7,3.9-3.9c0-2-1.5-3.6-3.3-3.8l0.2-1
			c2.3,0.3,4.2,2.3,4.2,4.7C40.7,39,38.5,41.1,35.8,41.1z"/>
		<circle cx="32.4" cy="33.8" r="2.2"/>
		<path d="M34,37.7c-0.9,0,1.3,1,2.1,1c1.5,0,2.6-1.2,2.6-2.6c0-1.2-0.8-2.1-1.7-2.4C36.8,35.9,35.8,37.7,34,37.7z"/>
		<g>
			<polygon points="9.1,23.2 28.1,23.2 28.1,22.4 8.3,22.4 8.3,34.8 26.5,34.8 26.5,34 9.1,34 			"/>
			<polygon points="27.6,22.4 27.6,23.2 33.1,23.2 33.1,27.9 34,27.9 34,22.4 			"/>
		</g>
		<g>
			<path d="M29.8,24.6c-0.2,0.2-0.5,0.6-0.5,1c0,0.9,0.8,1.5,1.5,1.5c0.3,0,0.7-0.1,0.9-0.3V28h0.9v-4h-4.8v0.7h2V24.6z"/>
			<path d="M9.9,24v9.3h16.6v-0.7H12.6c0.2-0.2,0.3-0.5,0.3-0.9c0-0.9-0.8-1.5-1.5-1.5c-0.3,0-0.7,0.1-0.9,0.3v-3.7
				c0.2,0.1,0.5,0.2,0.8,0.2c0.9,0,1.5-0.8,1.5-1.5c0-0.2-0.1-0.5-0.2-0.8h15.5V24L9.9,24z"/>
			<polygon points="27.7,22.4 27.6,22.4 27.6,23.2 27.7,23.2 33.1,23.2 33.1,27.9 34,27.9 34,22.4 			"/>
			<polygon points="8.3,22.4 8.3,34.8 9.1,34 9.1,23.2 28.1,23.2 28.1,22.4 			"/>
		</g>
	</g>
	<g>
		<path d="M26.2,16.1l-4.4,3.8v-10h-0.8v9.9L16.4,16l-0.5,0.6l5.6,4.7l5.3-4.7L26.2,16.1z"/>
		<rect x="10.8" y="6" width="21.4" height="0.6"/>
		<rect x="10.8" y="8.2" width="21.4" height="0.6"/>
		<rect x="10.8" y="3.3" width="4.8" height="0.6"/>
		<rect x="27.3" y="3.3" width="4.8" height="0.6"/>
		<rect x="24.5" y="11.6" width="7.6" height="0.6"/>
		<polygon points="8.7,1.2 8.7,14.3 20.5,14.3 20.5,13.6 9.5,13.6 9.5,2 33.5,2 33.5,13.6 22.5,13.6 22.5,14.3 34.2,14.3 34.2,1.2 
					"/>
	</g>
</g>
<g>
	<g>
		<path class="fillColor" d="M20.8,25.4c1.3,0,2.2,1.1,2.2,2.2c0,1.2-1.1,2.2-2.2,2.2c-1.3,0-2.2-1.1-2.2-2.2C18.5,26.4,19.6,25.4,20.8,25.4
			 M20.8,24.7c-1.6,0-2.8,1.3-2.8,2.8c0,1.6,1.3,2.8,2.8,2.8s2.8-1.3,2.8-2.8C23.6,26,22.4,24.7,20.8,24.7L20.8,24.7z"/>
		<path class="fillColor" d="M31.6,37.8c-2.6,0-4.8-2.1-4.8-4.8s2.1-4.8,4.8-4.8c2.6,0,4.8,2.1,4.8,4.8C36.4,35.7,34.4,37.8,31.6,37.8z M31.6,29
			c-2.1,0-3.9,1.7-3.9,3.9s1.7,3.9,3.9,3.9s3.9-1.7,3.9-3.9C35.6,30.7,33.9,29,31.6,29z"/>
		<path class="fillColor" d="M35,40.3c-1.9,0-3.6-1.2-4.5-2.8l0.9-0.4c0.7,1.5,2.1,2.3,3.6,2.3c2.1,0,3.9-1.7,3.9-3.9c0-2-1.5-3.6-3.3-3.8l0.2-1
			C38.1,31,40,33,40,35.4C39.9,38.2,37.7,40.3,35,40.3z"/>
		<circle class="fillColor" cx="31.6" cy="33" r="2.2"/>
		<path class="fillColor" d="M33.2,36.9c-0.9,0,1.3,1,2.1,1c1.5,0,2.6-1.2,2.6-2.6c0-1.2-0.8-2.1-1.7-2.4C36,35.1,35,36.9,33.2,36.9z"/>
		<g>
			<polygon class="fillColor" points="8.3,22.4 27.3,22.4 27.3,21.6 7.5,21.6 7.5,34 25.7,34 25.7,33.2 8.3,33.2 			"/>
			<polygon class="fillColor" points="26.8,21.6 26.8,22.4 32.3,22.4 32.3,27.1 33.2,27.1 33.2,21.6 			"/>
		</g>
		<g>
			<path class="fillColor" d="M29,23.8c-0.2,0.2-0.5,0.6-0.5,1c0,0.9,0.8,1.5,1.5,1.5c0.3,0,0.7-0.1,0.9-0.3v1.2h0.9v-4H27v0.7h2V23.8z"/>
			<path class="fillColor" d="M9.1,23.2v9.3h16.6v-0.7H11.8c0.2-0.2,0.3-0.5,0.3-0.9c0-0.9-0.8-1.5-1.5-1.5c-0.3,0-0.7,0.1-0.9,0.3V26
				c0.2,0.1,0.5,0.2,0.8,0.2c0.9,0,1.5-0.8,1.5-1.5c0-0.2-0.1-0.5-0.2-0.8h15.5v-0.7L9.1,23.2z"/>
			<polygon class="fillColor" points="26.9,21.6 26.8,21.6 26.8,22.4 26.9,22.4 32.3,22.4 32.3,27.1 33.2,27.1 33.2,21.6 			"/>
			<polygon class="fillColor" points="7.5,21.6 7.5,34 8.3,33.2 8.3,22.4 27.3,22.4 27.3,21.6 			"/>
		</g>
	</g>
	<g>
		<path class="fillColor" d="M25.4,15.3L21,19.1v-10h-0.8V19l-4.6-3.8L15,15.9l5.6,4.7l5.3-4.7L25.4,15.3z"/>
		<rect class="fillColor" x="10" y="5.2" width="21.4" height="0.6"/>
		<rect class="fillColor" x="10" y="7.4" width="21.4" height="0.6"/>
		<rect class="fillColor" x="10" y="2.5" width="4.8" height="0.6"/>
		<rect class="fillColor" x="26.5" y="2.5" width="4.8" height="0.6"/>
		<rect class="fillColor" x="23.7" y="10.8" width="7.6" height="0.6"/>
		<polygon class="fillColor" points="7.9,0.4 7.9,13.5 19.7,13.5 19.7,12.8 8.7,12.8 8.7,1.2 32.7,1.2 32.7,12.8 21.7,12.8 21.7,13.5 33.4,13.5 
			33.4,0.4 		"/>
	</g>
</g>
</svg>
