<?xml version="1.0" encoding="utf-8"?>
<!-- Generator: Adobe Illustrator 18.0.0, SVG Export Plug-In . SVG Version: 6.00 Build 0)  -->
<!DOCTYPE svg PUBLIC "-//W3C//DTD SVG 1.1//EN" "http://www.w3.org/Graphics/SVG/1.1/DTD/svg11.dtd">
<svg version="1.1" id="Ebene_1" xmlns="http://www.w3.org/2000/svg" xmlns:xlink="http://www.w3.org/1999/xlink" x="0px" y="0px"
	 viewBox="0 0 45 45" enable-background="new 0 0 45 45" xml:space="preserve">
	  <style type="text/css">
			@import "../default/default/svg.css";
	</style>
	 <script type="text/javascript">
         <![CDATA[
             if(window.parent && window.parent.Wincor && window.parent.Wincor.UI && window.parent.Wincor.UI.Content) {
                 let styleRes = window.parent.Wincor.UI.Content.StyleResourceResolver;
                 if(styleRes) {
                 	let style = document.getElementsByTagName("style")[0];
                 	if(style.innerHTML) {
                    	style.innerHTML = style.innerHTML.replace("default/svg.css", styleRes.type() + "svg.css");
                    }
                    else {
                    	style.textContent = style.textContent.replace("default/svg.css", styleRes.type() + "svg.css");
                    }
                    styleRes = null;
                 }
             }
         ]]>
    </script>
<g class="shadowGroup1">
	<path fill="none" stroke="#000000" stroke-miterlimit="10" d="M43.36,36.538c-0.001,2.096-1.716,3.81-3.812,3.809L7.285,40.334
		c-2.096-0.001-3.81-1.716-3.809-3.812l0.01-25.594c0.001-2.096,1.716-3.81,3.812-3.809l32.263,0.013
		c2.096,0.001,3.81,1.716,3.809,3.812L43.36,36.538z"/>
	<path d="M23.428,11.317l7.748,0.003l1.397,0.89l10.67,0.004l0.001-1.27l-10.288-0.004l-1.397-0.89l-6.097-0.002l0.001-2.858
		l-3.811-0.002l-0.001,2.858l-5.144-0.002l-0.191,0.19c-0.254,0.317-0.699,0.635-0.826,0.698c-0.508-0.064-2.985-0.065-9.653-0.004
		c-1.08,0-1.969-0.001-2.35-0.001l-0.001,1.27c0.381,0,1.27,0.001,2.35,0.001c2.921,0.001,9.018-0.06,9.526,0.004
		c0.572,0.064,1.207-0.381,1.715-0.888l1.969,0.001c-2.478,1.65-3.431,4.381-3.432,5.143l-0.001,2.413l-12.13-0.005l-0.001,1.27
		l12.067,0.005l0,0.127c0,0.762,0.508,1.334,1.015,1.906c0.444,0.508,0.889,1.017,0.888,1.588c0,0.508-0.318,0.825-0.763,1.27
		s-0.953,0.952-1.08,1.714L3.48,26.741l-0.001,1.27l12.067,0.005l-0.001,1.905c-0.001,2.096,1.332,4.256,3.554,5.59l-2.096-0.001
		c-0.508-0.508-1.143-0.953-1.714-0.89c-0.445,0.063-6.605-0.003-9.526-0.004c-1.08,0-1.969-0.001-2.35-0.001l-0.001,1.27
		c0.381,0,1.27,0.001,2.35,0.001c6.668,0.066,9.145,0.067,9.653,0.004c0.191,0.064,0.571,0.381,0.825,0.699l0.19,0.191l5.144,0.002
		l-0.001,3.557l3.811,0.002l0.001-3.557l6.097,0.002l1.398-0.889l10.288,0.004l0.001-1.27l-10.606-0.004l-1.398,0.889l-2.858-0.001
		c2.287-1.523,3.495-3.936,3.495-5.27l0.001-2.223l11.495,0.005l0.001-1.27l-11.622-0.005c-0.19-0.953-0.825-1.715-1.269-2.287
		c-0.19-0.254-0.508-0.635-0.508-0.699c0-0.826,0.318-1.08,0.699-1.46c0.445-0.381,1.017-0.889,1.144-2.159l11.495,0.005l0.001-1.27
		l-12.702-0.005l0,0.635c0,1.207-0.318,1.461-0.763,1.841c-0.508,0.444-1.08,0.952-1.144,2.349c0,0.572,0.381,1.016,0.825,1.525
		c0.508,0.635,1.079,1.334,1.079,2.096l-0.001,2.858c-0.001,1.334-2.225,5.27-6.544,5.269c-4.636-0.002-7.112-3.242-7.111-5.592
		l0.001-2.858c0-0.445,0.254-0.699,0.763-1.143c0.508-0.508,1.144-1.143,1.144-2.222s-0.698-1.842-1.206-2.477
		c-0.317-0.381-0.698-0.762-0.698-1.08l0.002-3.811C16.884,15.696,18.664,11.315,23.428,11.317z"/>
</g>
<g class="shadowGroup2">
	<path fill="none" stroke="#000000" stroke-miterlimit="10" d="M42.688,36.124c-0.001,2.096-1.716,3.81-3.812,3.809L6.613,39.92
		c-2.096-0.001-3.81-1.716-3.809-3.812l0.01-25.594c0.001-2.096,1.716-3.81,3.812-3.809l32.263,0.013
		c2.096,0.001,3.81,1.716,3.809,3.812L42.688,36.124z"/>
	<path d="M22.756,10.903l7.748,0.003l1.397,0.89L42.57,11.8l0.001-1.27l-10.288-0.004l-1.397-0.89l-6.097-0.002l0.001-2.858
		l-3.811-0.002l-0.001,2.858L15.834,9.63l-0.191,0.19c-0.254,0.317-0.699,0.635-0.826,0.698c-0.508-0.064-2.985-0.065-9.653-0.004
		c-1.08,0-1.969-0.001-2.35-0.001l-0.001,1.27c0.381,0,1.27,0.001,2.35,0.001c2.921,0.001,9.018-0.06,9.526,0.004
		c0.572,0.064,1.207-0.381,1.715-0.888l1.969,0.001c-2.478,1.65-3.431,4.381-3.432,5.143l-0.001,2.413l-12.13-0.005l-0.001,1.27
		l12.067,0.005l0,0.127c0,0.762,0.508,1.334,1.015,1.906c0.444,0.508,0.889,1.017,0.888,1.588c0,0.508-0.318,0.825-0.763,1.27
		c-0.445,0.444-0.953,0.952-1.08,1.714l-12.13-0.005l-0.001,1.27l12.067,0.005l-0.001,1.905c-0.001,2.096,1.332,4.256,3.554,5.59
		l-2.096-0.001c-0.508-0.508-1.143-0.953-1.714-0.89c-0.445,0.063-6.605-0.003-9.526-0.004c-1.08,0-1.969-0.001-2.35-0.001
		l-0.001,1.27c0.381,0,1.27,0.001,2.35,0.001c6.668,0.066,9.145,0.067,9.653,0.004c0.191,0.064,0.571,0.381,0.825,0.699l0.19,0.191
		l5.144,0.002l-0.001,3.557l3.811,0.002l0.001-3.557l6.097,0.002l1.398-0.889l10.288,0.004l0.001-1.27l-10.606-0.004l-1.398,0.889
		l-2.858-0.001c2.287-1.523,3.495-3.936,3.495-5.27l0.001-2.223l11.495,0.005l0.001-1.27l-11.622-0.005
		c-0.19-0.953-0.825-1.715-1.269-2.287c-0.19-0.254-0.508-0.635-0.508-0.699c0-0.826,0.318-1.08,0.699-1.46
		c0.445-0.381,1.017-0.889,1.144-2.159l11.495,0.005l0.001-1.27l-12.702-0.005l0,0.635c0,1.207-0.318,1.461-0.763,1.841
		c-0.508,0.444-1.08,0.952-1.144,2.349c0,0.572,0.381,1.016,0.825,1.525c0.508,0.635,1.079,1.334,1.079,2.096l-0.001,2.858
		c-0.001,1.334-2.225,5.27-6.544,5.269c-4.636-0.002-7.112-3.242-7.111-5.592l0.001-2.858c0-0.445,0.254-0.699,0.763-1.143
		c0.508-0.508,1.144-1.143,1.144-2.222c0-1.08-0.698-1.842-1.206-2.477c-0.317-0.381-0.698-0.762-0.698-1.08l0.002-3.811
		C16.213,15.283,17.993,10.901,22.756,10.903z"/>
</g>
<g class="shadowGroup3">
	<path fill="none" stroke="#000000" stroke-miterlimit="10" d="M42.246,35.599c-0.001,2.096-1.716,3.81-3.812,3.809L6.171,39.396
		c-2.096-0.001-3.81-1.716-3.809-3.812l0.01-25.594c0.001-2.096,1.716-3.81,3.812-3.809l32.263,0.013
		c2.096,0.001,3.81,1.716,3.809,3.812L42.246,35.599z"/>
	<path d="M22.314,10.378l7.748,0.003l1.397,0.89l10.67,0.004l0.001-1.27L31.84,10.001l-1.397-0.89l-6.097-0.002l0.001-2.858
		L20.537,6.25l-0.001,2.858l-5.144-0.002l-0.191,0.19c-0.254,0.317-0.699,0.635-0.826,0.698C13.867,9.93,11.39,9.929,4.722,9.99
		c-1.08,0-1.969-0.001-2.35-0.001l-0.001,1.27c0.381,0,1.27,0.001,2.35,0.001c2.921,0.001,9.018-0.06,9.526,0.004
		c0.572,0.064,1.207-0.381,1.715-0.888l1.969,0.001c-2.478,1.65-3.431,4.381-3.432,5.143l-0.001,2.413l-12.13-0.005l-0.001,1.27
		l12.067,0.005l0,0.127c0,0.762,0.508,1.334,1.015,1.906c0.444,0.508,0.889,1.017,0.888,1.588c0,0.508-0.318,0.825-0.763,1.27
		c-0.445,0.444-0.953,0.952-1.08,1.714l-12.13-0.005l-0.001,1.27l12.067,0.005l-0.001,1.905c-0.001,2.096,1.332,4.256,3.554,5.59
		l-2.096-0.001c-0.508-0.508-1.143-0.953-1.714-0.89c-0.445,0.063-6.605-0.003-9.526-0.004c-1.08,0-1.969-0.001-2.35-0.001
		l-0.001,1.27c0.381,0,1.27,0.001,2.35,0.001c6.668,0.066,9.145,0.067,9.653,0.004c0.191,0.064,0.571,0.381,0.825,0.699l0.19,0.191
		l5.144,0.002l-0.001,3.557l3.811,0.002l0.001-3.557l6.097,0.002l1.398-0.889l10.288,0.004l0.001-1.27L31.45,33.69l-1.398,0.889
		l-2.858-0.001c2.287-1.523,3.495-3.936,3.495-5.27l0.001-2.223l11.495,0.005l0.001-1.27l-11.622-0.005
		c-0.19-0.953-0.825-1.715-1.269-2.287c-0.19-0.254-0.508-0.635-0.508-0.699c0-0.826,0.318-1.08,0.699-1.46
		c0.445-0.381,1.017-0.889,1.144-2.159l11.495,0.005l0.001-1.27l-12.702-0.005l0,0.635c0,1.207-0.318,1.461-0.763,1.841
		c-0.508,0.444-1.08,0.952-1.144,2.349c0,0.572,0.381,1.016,0.825,1.525c0.508,0.635,1.079,1.334,1.079,2.096l-0.001,2.858
		c-0.001,1.334-2.225,5.27-6.544,5.269c-4.636-0.002-7.112-3.242-7.111-5.592l0.001-2.858c0-0.445,0.254-0.699,0.763-1.143
		c0.508-0.508,1.144-1.143,1.144-2.222c0-1.08-0.698-1.842-1.206-2.477c-0.317-0.381-0.698-0.762-0.698-1.08l0.002-3.811
		C15.771,14.758,17.551,10.376,22.314,10.378z"/>
</g>
<g>
	<path class="strokeColor" fill="none" stroke="#000000" stroke-miterlimit="10" d="M41.746,35.162c-0.001,2.096-1.716,3.81-3.812,3.809L5.671,38.958
		c-2.096-0.001-3.81-1.716-3.809-3.812l0.01-25.594c0.001-2.096,1.716-3.81,3.812-3.809l32.263,0.013
		c2.096,0.001,3.81,1.716,3.809,3.812L41.746,35.162z"/>
	<path class="fillColor" d="M21.814,9.941l7.748,0.003l1.397,0.89l10.67,0.004l0.001-1.27L31.34,9.564l-1.397-0.89l-6.097-0.002l0.001-2.858
		l-3.811-0.002L20.036,8.67l-5.144-0.002l-0.191,0.19c-0.254,0.317-0.699,0.635-0.826,0.698c-0.508-0.064-2.985-0.065-9.653-0.004
		c-1.08,0-1.969-0.001-2.35-0.001l-0.001,1.27c0.381,0,1.27,0.001,2.35,0.001c2.921,0.001,9.018-0.06,9.526,0.004
		c0.572,0.064,1.207-0.381,1.715-0.888l1.969,0.001C14.954,11.589,14,14.32,14,15.082l-0.001,2.413l-12.13-0.005l-0.001,1.27
		l12.067,0.005l0,0.127c0,0.762,0.508,1.334,1.015,1.906c0.444,0.508,0.889,1.017,0.888,1.588c0,0.508-0.318,0.825-0.763,1.27
		c-0.445,0.444-0.953,0.952-1.08,1.714l-12.13-0.005l-0.001,1.27l12.067,0.005l-0.001,1.905c-0.001,2.096,1.332,4.256,3.554,5.59
		l-2.096-0.001c-0.508-0.508-1.143-0.953-1.714-0.89c-0.445,0.063-6.605-0.003-9.526-0.004c-1.08,0-1.969-0.001-2.35-0.001
		l-0.001,1.27c0.381,0,1.27,0.001,2.35,0.001c6.668,0.066,9.145,0.067,9.653,0.004c0.191,0.064,0.571,0.381,0.825,0.699l0.19,0.191
		l5.144,0.002l-0.001,3.557l3.811,0.002l0.001-3.557l6.097,0.002l1.398-0.889l10.288,0.004l0.001-1.27L30.95,33.252l-1.398,0.889
		l-2.858-0.001c2.287-1.523,3.495-3.936,3.495-5.27l0.001-2.223l11.495,0.005l0.001-1.27l-11.622-0.005
		c-0.19-0.953-0.825-1.715-1.269-2.287c-0.19-0.254-0.508-0.635-0.508-0.699c0-0.826,0.318-1.08,0.699-1.46
		c0.445-0.381,1.017-0.889,1.144-2.159l11.495,0.005l0.001-1.27l-12.702-0.005l0,0.635c0,1.207-0.318,1.461-0.763,1.841
		c-0.508,0.444-1.08,0.952-1.144,2.349c0,0.572,0.381,1.016,0.825,1.525c0.508,0.635,1.079,1.334,1.079,2.096l-0.001,2.858
		c-0.001,1.334-2.225,5.27-6.544,5.269c-4.636-0.002-7.112-3.242-7.111-5.592l0.001-2.858c0-0.445,0.254-0.699,0.763-1.143
		c0.508-0.508,1.144-1.143,1.144-2.222c0-1.08-0.698-1.842-1.206-2.477c-0.317-0.381-0.698-0.762-0.698-1.08l0.002-3.811
		C15.271,14.32,17.051,9.939,21.814,9.941z"/>
</g>
</svg>
