<?xml version="1.0" encoding="utf-8"?>
<!-- Generator: Adobe Illustrator 18.0.0, SVG Export Plug-In . SVG Version: 6.00 Build 0)  -->
<!DOCTYPE svg PUBLIC "-//W3C//DTD SVG 1.1//EN" "http://www.w3.org/Graphics/SVG/1.1/DTD/svg11.dtd">
<svg version="1.1" id="Ebene_1" xmlns="http://www.w3.org/2000/svg" xmlns:xlink="http://www.w3.org/1999/xlink" x="0px" y="0px"
	 viewBox="0 0 45 45" enable-background="new 0 0 45 45" xml:space="preserve">
	 <style type="text/css">
			@import "../default/default/svg.css";
	</style>
	 <script type="text/javascript">
         <![CDATA[
             if(window.parent && window.parent.Wincor && window.parent.Wincor.UI && window.parent.Wincor.UI.Content) {
                 let styleRes = window.parent.Wincor.UI.Content.StyleResourceResolver;
                 if(styleRes) {
                 	let style = document.getElementsByTagName("style")[0];
                 	if(style.innerHTML) {
                    	style.innerHTML = style.innerHTML.replace("default/svg.css", styleRes.type() + "svg.css");
                    }
                    else {
                    	style.textContent = style.textContent.replace("default/svg.css", styleRes.type() + "svg.css");
                    }
                    styleRes = null;
                 }
             }
         ]]>
    </script>	
<g class="shadowGroup1">
	<g>
		<polyline fill="none" stroke="#000000" stroke-miterlimit="10" points="17.4,14.6 24.7,22.2 32.3,14.3 		"/>
		<line fill="none" stroke="#000000" stroke-miterlimit="10" x1="24.9" y1="3.3" x2="24.9" y2="21.6"/>
	</g>
	<g>
		<path fill="none" stroke="#000000" stroke-miterlimit="10" d="M37.2,43.5H12.9c-1.1,0-2-0.9-2-2V27.3c0-1.1,0.9-2,2-2h24.3
			c1.1,0,2,0.9,2,2v14.2C39.2,42.6,38.3,43.5,37.2,43.5z M39.2,31.2H28.7c-0.5,0-0.9-0.4-0.9-0.9v-5h-4.7v5c0,0.5-0.4,0.9-0.9,0.9
			H10.9v5.6h11.2c0.5,0,0.9,0.4,0.9,0.9v5.8h4.8v-5.8c0-0.5,0.4-0.9,0.9-0.9h10.5V31.2z M27.9,35.6v-3.1c0-0.4-0.3-0.7-0.7-0.7h-3.6
			c-0.4,0-0.7,0.3-0.7,0.7v3.1c0,0.4,0.3,0.7,0.7,0.7h3.6C27.6,36.3,27.9,36,27.9,35.6z"/>
	</g>
</g>
<g class="shadowGroup2">
	<g>
		<polyline fill="none" stroke="#000000" stroke-miterlimit="10" points="16.7,14.1 24,21.7 31.6,13.9 		"/>
		<line fill="none" stroke="#000000" stroke-miterlimit="10" x1="24.2" y1="2.9" x2="24.2" y2="21.2"/>
	</g>
	<g>
		<path fill="none" stroke="#000000" stroke-miterlimit="10" d="M36.5,43H12.2c-1.1,0-2-0.9-2-2V26.8c0-1.1,0.9-2,2-2h24.3
			c1.1,0,2,0.9,2,2V41C38.5,42.1,37.6,43,36.5,43z M38.5,30.7H28c-0.5,0-0.9-0.4-0.9-0.9v-5h-4.7v5c0,0.5-0.4,0.9-0.9,0.9H10.2v5.6
			h11.2c0.5,0,0.9,0.4,0.9,0.9V43H27v-5.8c0-0.5,0.4-0.9,0.9-0.9h10.5v-5.6H38.5z M27.2,35.1V32c0-0.4-0.3-0.7-0.7-0.7h-3.6
			c-0.4,0-0.7,0.3-0.7,0.7v3.1c0,0.4,0.3,0.7,0.7,0.7h3.6C26.9,35.8,27.2,35.5,27.2,35.1z"/>
	</g>
</g>
<g class="shadowGroup3">
	<g>
		<polyline fill="none" stroke="#000000" stroke-miterlimit="10" points="16.2,13.5 23.5,21.1 31.1,13.3 		"/>
		<line fill="none" stroke="#000000" stroke-miterlimit="10" x1="23.7" y1="2.2" x2="23.7" y2="20.5"/>
	</g>
	<g>
		<path fill="none" stroke="#000000" stroke-miterlimit="10" d="M36,42.4H11.7c-1.1,0-2-0.9-2-2V26.2c0-1.1,0.9-2,2-2H36
			c1.1,0,2,0.9,2,2v14.2C38,41.5,37.1,42.4,36,42.4z M38,30.1H27.5c-0.5,0-0.9-0.4-0.9-0.9v-5h-4.7v5c0,0.5-0.4,0.9-0.9,0.9H9.7v5.6
			h11.2c0.5,0,0.9,0.4,0.9,0.9v5.8h4.7v-5.8c0-0.5,0.4-0.9,0.9-0.9h10.5v-5.6H38z M26.7,34.5v-3.1c0-0.4-0.3-0.7-0.7-0.7h-3.6
			c-0.4,0-0.7,0.3-0.7,0.7v3.1c0,0.4,0.3,0.7,0.7,0.7H26C26.4,35.2,26.7,34.9,26.7,34.5z"/>
	</g>
</g>
<g>
	<g>
		<polyline class="strokeColor" fill="none" stroke="#000000" stroke-miterlimit="10" points="15.6,12.7 22.9,20.4 30.6,12.5 		"/>
		<line class="strokeColor" fill="none" stroke="#000000" stroke-miterlimit="10" x1="23.1" y1="1.5" x2="23.1" y2="19.8"/>
	</g>
	<g>
		<path class="strokeColor" fill="none" stroke="#000000" stroke-miterlimit="10" d="M35.5,41.7H11.1c-1.1,0-2-0.9-2-2V25.4c0-1.1,0.9-2,2-2h24.3
			c1.1,0,2,0.9,2,2v14.2C37.5,40.8,36.6,41.7,35.5,41.7z M37.5,29.4H27c-0.5,0-0.9-0.4-0.9-0.9v-5h-4.7v5c0,0.5-0.4,0.9-0.9,0.9H9.1
			v5.5h11.2c0.5,0,0.9,0.4,0.9,0.9v5.8h4.7v-5.7c0-0.5,0.4-0.9,0.9-0.9h10.5v-5.6H37.5z M26.2,33.7v-3.1c0-0.4-0.4-0.7-0.8-0.7h-3.6
			c-0.4,0-0.7,0.3-0.7,0.7v3.1c0,0.4,0.3,0.7,0.7,0.7h3.6C25.8,34.4,26.2,34.1,26.2,33.7z"/>
	</g>
</g>
</svg>
