<?xml version="1.0" encoding="utf-8"?>
<!-- Generator: Adobe Illustrator 18.0.0, SVG Export Plug-In . SVG Version: 6.00 Build 0)  -->
<!DOCTYPE svg PUBLIC "-//W3C//DTD SVG 1.1//EN" "http://www.w3.org/Graphics/SVG/1.1/DTD/svg11.dtd">
<svg version="1.1" id="Ebene_1" xmlns="http://www.w3.org/2000/svg" xmlns:xlink="http://www.w3.org/1999/xlink" x="0px" y="0px"
	 viewBox="0 0 45 45" enable-background="new 0 0 45 45" xml:space="preserve">
<style type="text/css">
			@import "../default/default/svg.css";
	</style>
	 <script type="text/javascript">
         <![CDATA[
             if(window.parent && window.parent.Wincor && window.parent.Wincor.UI && window.parent.Wincor.UI.Content) {
                 let styleRes = window.parent.Wincor.UI.Content.StyleResourceResolver;
                 if(styleRes) {
                 	let style = document.getElementsByTagName("style")[0];
                 	if(style.innerHTML) {
                    	style.innerHTML = style.innerHTML.replace("default/svg.css", styleRes.type() + "svg.css");
                    }
                    else {
                    	style.textContent = style.textContent.replace("default/svg.css", styleRes.type() + "svg.css");
                    }
                    styleRes = null;
                 }
             }
         ]]>
    </script>	
<g class="shadowGroup1">
	<g>
		<path fill="none" stroke="#000000" stroke-width="0.75" stroke-miterlimit="10" d="M37.8,20.7c0,1.3-1,2.3-2.3,2.3H15.9
			c-1.3,0-2.3-1-2.3-2.3V5c0-1.3,1-2.3,2.3-2.3h19.6c1.3,0,2.3,1,2.3,2.3V20.7z"/>
		<path d="M25.8,5.5h4.8L31.3,6h6.4V5.3h-6.3l-0.8-0.6h-3.8V3h-2.3v1.7h-3.1l-0.1,0.1C21.2,5,21,5.1,20.8,5.1c-0.2,0-1.8,0-6,0
			c-0.7,0-1.1,0-1.4,0v0.8c0.2,0,0.8,0,1.4,0c1.8,0,5.5,0,5.8,0c0.3,0,0.8-0.2,1-0.6h1.1c-1.6,1-2.1,2.7-2.1,3.1v1.4h-7.3v0.8h7.3
			v0.1c0,0.6,0.2,0.8,0.7,1.1c0.2,0.2,0.6,0.7,0.6,0.9c0,0.2-0.1,0.6-0.6,0.8c-0.2,0.2-0.6,0.7-0.7,1h-7.3v0.8h7.3v1.1
			c0,1.3,0.8,2.5,2.2,3.3h-1.3c-0.2-0.2-0.7-0.6-1-0.6c-0.2,0-4,0-5.8,0c-0.7,0-1.1,0-1.4,0V20c0.2,0,0.8,0,1.4,0c4,0,5.5,0,6,0
			c0.1,0,0.3,0.2,0.6,0.3l0.1,0.1h3.1v2.2h2.3v-2.2h3.8l0.9-0.6h6.3v-0.8h-6.4l-0.9,0.6h-1.7c1.4-0.9,2.1-2.4,2.1-3.2v-1.3h7v-0.8
			h-7.1c-0.1-0.6-0.6-1-0.8-1.4c-0.1-0.1-0.2-0.3-0.2-0.3c0-0.6,0.1-0.7,0.3-0.9s0.7-0.6,0.7-1.3h7V9.6H30v0.3
			c0,0.8-0.1,0.9-0.6,1.1c-0.2,0.2-0.7,0.7-0.7,1.4c0,0.3,0.2,0.7,0.6,0.9c0.2,0.3,0.7,0.8,0.7,1.3v1.7c0,0.8-1.3,3.2-4,3.2
			c-2.9,0-4.4-1.9-4.4-3.3v-1.7c0-0.2,0.1-0.3,0.6-0.7c0.2-0.2,0.7-0.7,0.7-1.4c0-0.7-0.3-1.1-0.8-1.6c-0.2-0.2-0.3-0.6-0.3-0.7V7.9
			C21.8,8.1,22.9,5.5,25.8,5.5z"/>
	</g>
	<polyline fill="none" stroke="#000000" stroke-miterlimit="10" points="18.5,36.9 25.9,44.5 33.5,36.7 	"/>
	<line fill="none" stroke="#000000" stroke-miterlimit="10" x1="26" y1="25.6" x2="26" y2="43.9"/>
</g>
<g class="shadowGroup2">
	<g>
		<path fill="none" stroke="#000000" stroke-width="0.75" stroke-miterlimit="10" d="M37.3,19.9c0,1.3-1,2.3-2.3,2.3H15.4
			c-1.3,0-2.3-1-2.3-2.3V4.3c0-1.3,1-2.3,2.3-2.3H35c1.3,0,2.3,1,2.3,2.3V19.9z"/>
		<path d="M25.3,4.7H30l0.8,0.6h6.4V4.5h-6.3L30.1,4h-3.8V2.3H24V4h-3.1l-0.1,0.1c-0.1,0.2-0.3,0.3-0.6,0.3s-1.8,0-6,0
			c-0.7,0-1.1,0-1.4,0v0.8c0.2,0,0.8,0,1.4,0c1.8,0,5.5,0,5.8,0c0.3,0,0.8-0.2,1-0.6h1.1c-1.6,1-2.1,2.7-2.1,3.1v1.4h-7.3v0.8h7.3
			v0.1c0,0.6,0.2,0.8,0.7,1.1c0.2,0.2,0.6,0.7,0.6,0.9c0,0.2-0.1,0.6-0.6,0.8c-0.2,0.2-0.6,0.7-0.7,1h-7.3v0.8h7.3v1.1
			c0,1.3,0.8,2.5,2.2,3.3h-1.3c-0.2-0.2-0.7-0.6-1-0.6c-0.2,0-4,0-5.8,0c-0.7,0-1.1,0-1.4,0v0.8c0.2,0,0.8,0,1.4,0c4,0,5.5,0,6,0
			c0.1,0,0.3,0.2,0.6,0.3l0.1,0.1h3.1v2.2h2.3v-2.2H30l0.9-0.6h6.3v-0.8h-6.4l-0.9,0.6h-1.7c1.4-0.9,2.1-2.4,2.1-3.2v-1.3h7v-0.8
			h-7.1c-0.1-0.6-0.6-1-0.8-1.4c-0.1-0.1-0.2-0.3-0.2-0.3c0-0.6,0.1-0.7,0.3-0.9c0.2-0.2,0.7-0.6,0.7-1.3h7V8.8h-7.8v0.3
			c0,0.8-0.1,0.9-0.6,1.1c-0.2,0.2-0.7,0.7-0.7,1.4c0,0.3,0.2,0.7,0.6,0.9c0.2,0.3,0.7,0.8,0.7,1.3v1.7c0,0.8-1.3,3.2-4,3.2
			c-2.9,0-4.4-1.9-4.4-3.3v-1.7c0-0.2,0.1-0.3,0.6-0.7c0.2-0.2,0.7-0.7,0.7-1.4c0-0.7-0.3-1.1-0.8-1.6c-0.2-0.2-0.3-0.6-0.3-0.7V7.2
			C21.3,7.4,22.4,4.7,25.3,4.7z"/>
	</g>
	<polyline fill="none" stroke="#000000" stroke-miterlimit="10" points="18.1,36.1 25.4,43.8 33,35.9 	"/>
	<line fill="none" stroke="#000000" stroke-miterlimit="10" x1="25.5" y1="24.9" x2="25.5" y2="43.2"/>
</g>
<g class="shadowGroup3">
	<g>
		<path fill="none" stroke="#000000" stroke-width="0.75" stroke-miterlimit="10" d="M36.9,19.2c0,1.3-1,2.3-2.3,2.3H14.9
			c-1.3,0-2.3-1-2.3-2.3V3.6c0-1.3,1-2.3,2.3-2.3h19.6c1.3,0,2.3,1,2.3,2.3V19.2z"/>
		<path d="M24.8,4.1h4.8l0.8,0.6h6.4V3.8h-6.3l-0.8-0.6h-3.8V1.6h-2.3v1.7h-3.1l-0.1,0.1c-0.1,0.2-0.3,0.3-0.6,0.3c-0.2,0-1.8,0-6,0
			c-0.7,0-1.1,0-1.4,0v0.8c0.2,0,0.8,0,1.4,0c1.8,0,5.5,0,5.8,0c0.3,0,0.8-0.2,1-0.6h1.1c-1.6,1-2.1,2.7-2.1,3.1v1.4h-7.3v0.8h7.3
			v0.1c0,0.6,0.2,0.8,0.7,1.1c0.2,0.2,0.6,0.7,0.6,0.9c0,0.2-0.1,0.6-0.6,0.8c-0.2,0.2-0.6,0.7-0.7,1h-7.3v0.8h7.3V15
			c0,1.3,0.8,2.5,2.2,3.3h-1.3c-0.2-0.2-0.7-0.6-1-0.6c-0.2,0-4,0-5.8,0c-0.7,0-1.1,0-1.4,0v0.8c0.2,0,0.8,0,1.4,0c4,0,5.5,0,6,0
			c0.1,0,0.3,0.2,0.6,0.3l0.1,0.1h3.1v2.2h2.3V19h3.8l0.9-0.6h6.3v-0.8h-6.4l-0.9,0.6h-1.7c1.4-0.9,2.1-2.4,2.1-3.2v-1.3h7v-0.8
			h-7.1c-0.1-0.6-0.6-1-0.8-1.4c-0.1-0.1-0.2-0.3-0.2-0.3c0-0.6,0.1-0.7,0.3-0.9s0.7-0.6,0.7-1.3h7V8.2H29v0.3
			c0,0.8-0.1,0.9-0.6,1.1c-0.2,0.2-0.7,0.7-0.7,1.4c0,0.3,0.2,0.7,0.6,0.9c0.2,0.3,0.7,0.8,0.7,1.3v1.7c0,0.8-1.3,3.2-4,3.2
			c-2.9,0-4.4-1.9-4.4-3.3v-1.7c0-0.2,0.1-0.3,0.6-0.7c0.2-0.2,0.7-0.7,0.7-1.4c0-0.7-0.3-1.1-0.8-1.6c-0.2-0.2-0.3-0.6-0.3-0.7V6.5
			C20.8,6.7,21.9,4.1,24.8,4.1z"/>
	</g>
	<polyline fill="none" stroke="#000000" stroke-miterlimit="10" points="17.6,35.5 24.9,43.1 32.5,35.2 	"/>
	<line fill="none" stroke="#000000" stroke-miterlimit="10" x1="25" y1="24.2" x2="25" y2="42.5"/>
</g>
<g>
	<g>
		<path class="strokeColor" fill="none" stroke="#000000" stroke-width="0.75" stroke-miterlimit="10" d="M36.4,18.6c0,1.3-1,2.3-2.3,2.3H14.4
			c-1.3,0-2.3-1-2.3-2.3V3c0-1.3,1-2.3,2.3-2.3H34c1.3,0,2.3,1,2.3,2.3V18.6z"/>
		<path class="fillColor" d="M24.3,3.4H29L29.8,4h6.4V3.2h-6.3l-0.8-0.6h-3.8V1h-2.3v1.7H20l-0.1,0.1c-0.1,0.2-0.3,0.3-0.6,0.3s-1.8,0-6,0
			c-0.7,0-1.1,0-1.4,0v0.8c0.2,0,0.8,0,1.4,0c1.8,0,5.5,0,5.8,0c0.3,0,0.8-0.2,1-0.6h1.1c-1.6,1-2.1,2.7-2.1,3.1v1.4h-7.3v0.8h7.3
			v0.1c0,0.6,0.2,0.8,0.7,1.1c0.2,0.2,0.6,0.7,0.6,0.9c0,0.2-0.1,0.6-0.6,0.8c-0.2,0.2-0.6,0.7-0.7,1h-7.3v0.8h7.3v1.1
			c0,1.3,0.8,2.5,2.2,3.3H20c-0.2-0.2-0.7-0.6-1-0.6c-0.2,0-4,0-5.8,0c-0.7,0-1.1,0-1.4,0V18c0.2,0,0.8,0,1.4,0c4,0,5.5,0,6,0
			c0.1,0,0.3,0.2,0.6,0.3l0.1,0.1h3.1v2.2h2.3v-2.2H29l0.9-0.6h6.3v-0.8h-6.4l-0.9,0.6h-1.7c1.4-0.9,2.1-2.4,2.1-3.2v-1.3h7v-0.8
			h-7.1c-0.1-0.6-0.6-1-0.8-1.4c-0.1-0.1-0.2-0.3-0.2-0.3c0-0.6,0.1-0.7,0.3-0.9s0.7-0.6,0.7-1.3h7V7.6h-7.8v0.3
			c0,0.8-0.1,0.9-0.6,1.1c-0.2,0.2-0.7,0.7-0.7,1.4c0,0.3,0.2,0.7,0.6,0.9c0.2,0.3,0.7,0.8,0.7,1.3v1.7c0,0.8-1.3,3.2-4,3.2
			c-2.9,0-4.4-1.9-4.4-3.3v-1.7c0-0.2,0.1-0.3,0.6-0.7c0.2-0.2,0.7-0.7,0.7-1.4c0-0.7-0.3-1.1-0.8-1.6c-0.2-0.2-0.3-0.6-0.3-0.7V5.9
			C20.3,6.1,21.4,3.4,24.3,3.4z"/>
	</g>
	<polyline class="strokeColor" fill="none" stroke="#000000" stroke-miterlimit="10" points="17.1,34.9 24.4,42.5 32,34.6 	"/>
	<line class="strokeColor" fill="none" stroke="#000000" stroke-miterlimit="10" x1="24.5" y1="23.6" x2="24.5" y2="41.9"/>
</g>
</svg>
