<?xml version="1.0" encoding="utf-8"?>
<!-- Generator: Adobe Illustrator 18.0.0, SVG Export Plug-In . SVG Version: 6.00 Build 0)  -->
<!DOCTYPE svg PUBLIC "-//W3C//DTD SVG 1.1//EN" "http://www.w3.org/Graphics/SVG/1.1/DTD/svg11.dtd">
<svg version="1.1" id="Ebene_1" xmlns="http://www.w3.org/2000/svg" xmlns:xlink="http://www.w3.org/1999/xlink" x="0px" y="0px"
	 viewBox="0 0 45 45" enable-background="new 0 0 45 45" xml:space="preserve">
<style type="text/css">
			@import "../default/default/svg.css";
	</style>
	 <script type="text/javascript">
         <![CDATA[
             if(window.parent && window.parent.Wincor && window.parent.Wincor.UI && window.parent.Wincor.UI.Content) {
                 let styleRes = window.parent.Wincor.UI.Content.StyleResourceResolver;
                 if(styleRes) {
                 	let style = document.getElementsByTagName("style")[0];
                 	if(style.innerHTML) {
                    	style.innerHTML = style.innerHTML.replace("default/svg.css", styleRes.type() + "svg.css");
                    }
                    else {
                    	style.textContent = style.textContent.replace("default/svg.css", styleRes.type() + "svg.css");
                    }
                    styleRes = null;
                 }
             }
         ]]>
    </script>	
<g class="shadowGroup1">
	<path fill="none" stroke="#000000" stroke-width="0.75" stroke-miterlimit="10" d="M36.8,38.7c0,1.3-1,2.3-2.3,2.3H14.8
		c-1.3,0-2.3-1-2.3-2.3V23.1c0-1.3,1-2.3,2.3-2.3h19.6c1.3,0,2.3,1,2.3,2.3L36.8,38.7L36.8,38.7z"/>
	<path d="M24.7,23.5h4.8l0.8,0.6h6.4v-0.8h-6.3l-0.8-0.6h-3.8V21h-2.3v1.7h-3.1l-0.1,0.1c-0.1,0.2-0.3,0.3-0.6,0.3c-0.2,0-1.8,0-6,0
		c-0.7,0-1.1,0-1.4,0v0.8c0.2,0,0.8,0,1.4,0c1.8,0,5.5,0,5.8,0c0.3,0,0.8-0.2,1-0.6h1.1c-1.6,1-2.1,2.7-2.1,3.1v1.5h-7.3v0.8h7.3
		v0.1c0,0.6,0.2,0.8,0.7,1.1c0.2,0.2,0.6,0.7,0.6,0.9s-0.1,0.6-0.6,0.8c-0.2,0.2-0.6,0.7-0.7,1h-7.3v0.8h7.3v1.1
		c0,1.3,0.8,2.5,2.2,3.3h-1.3c-0.2-0.2-0.7-0.6-1-0.6c-0.2,0-4,0-5.8,0c-0.7,0-1.1,0-1.4,0V38c0.2,0,0.8,0,1.4,0c4,0,5.5,0,6,0
		c0.1,0,0.3,0.2,0.6,0.3l0.1,0.1h3.1v2.2h2.3v-2.2h3.8l0.9-0.6h6.3V37h-6.4l-0.9,0.6h-1.7c1.4-0.9,2.1-2.4,2.1-3.2v-1.3h7v-0.8h-7.1
		c-0.1-0.6-0.6-1-0.8-1.4c-0.1-0.1-0.2-0.3-0.2-0.3c0-0.6,0.1-0.7,0.3-0.9s0.7-0.6,0.7-1.3h7v-0.8h-7.8v0.3c0,0.8-0.1,0.9-0.6,1.1
		c-0.2,0.2-0.7,0.7-0.7,1.4c0,0.3,0.2,0.7,0.6,0.9c0.2,0.3,0.7,0.8,0.7,1.3v1.7c0,0.8-1.3,3.2-4,3.2c-2.9,0-4.4-1.9-4.4-3.3v-1.7
		c0-0.2,0.1-0.3,0.6-0.7c0.2-0.2,0.7-0.7,0.7-1.4c0-0.7-0.3-1.1-0.8-1.6c-0.2-0.2-0.3-0.6-0.3-0.7v-2.2
		C20.7,26.2,21.8,23.5,24.7,23.5z"/>
	<g>
		<g>
			<g>
				<polygon points="35.6,10.8 28.3,10.9 28.3,11.7 35.6,11.7 				"/>
				<polygon points="28.8,4 19.4,18.1 20.4,18.6 29.8,4.5 				"/>
				<polygon points="20.7,10.9 17.4,11 17.4,7.9 16.6,7.9 16.6,11 13.4,11 13.4,12.1 16.6,12.1 16.6,14.8 17.4,14.8 17.4,12.1 
					20.7,12 				"/>
			</g>
		</g>
	</g>
</g>
<g class="shadowGroup2">
	<path fill="none" stroke="#000000" stroke-width="0.75" stroke-miterlimit="10" d="M36.1,38.1c0,1.3-1,2.3-2.3,2.3H14.1
		c-1.3,0-2.3-1-2.3-2.3V22.5c0-1.3,1-2.3,2.3-2.3h19.6c1.3,0,2.3,1,2.3,2.3L36.1,38.1L36.1,38.1z"/>
	<path d="M24,22.9h4.8l0.8,0.6H36v-0.8h-6.3l-0.8-0.6h-3.8v-1.7h-2.3v1.7h-3.1l-0.1,0.1c-0.1,0.2-0.3,0.3-0.6,0.3c-0.2,0-1.8,0-6,0
		c-0.7,0-1.1,0-1.4,0v0.8c0.2,0,0.8,0,1.4,0c1.8,0,5.5,0,5.8,0c0.3,0,0.8-0.2,1-0.6h1.1c-1.6,1-2.1,2.7-2.1,3.1v1.5h-7.3v0.8h7.3
		v0.1c0,0.6,0.2,0.8,0.7,1.1c0.2,0.2,0.6,0.7,0.6,0.9S20,30.8,19.5,31c-0.2,0.2-0.6,0.7-0.7,1h-7.3v0.8h7.3v1.1
		c0,1.3,0.8,2.5,2.2,3.3h-1.3c-0.2-0.2-0.7-0.6-1-0.6c-0.2,0-4,0-5.8,0c-0.7,0-1.1,0-1.4,0v0.8c0.2,0,0.8,0,1.4,0c4,0,5.5,0,6,0
		c0.1,0,0.3,0.2,0.6,0.3l0.1,0.1h3.1V40H25v-2.2h3.8l0.9-0.6H36v-0.8h-6.4L28.7,37H27c1.4-0.9,2.1-2.4,2.1-3.2v-1.3h7v-0.8H29
		c-0.1-0.6-0.6-1-0.8-1.4C28.1,30.2,28,30,28,30c0-0.6,0.1-0.7,0.3-0.9s0.7-0.6,0.7-1.3h7V27h-7.8v0.3c0,0.8-0.1,0.9-0.6,1.1
		c-0.2,0.2-0.7,0.7-0.7,1.4c0,0.3,0.2,0.7,0.6,0.9c0.2,0.3,0.7,0.8,0.7,1.3v1.7c0,0.8-1.3,3.2-4,3.2c-2.9,0-4.4-1.9-4.4-3.3v-1.7
		c0-0.2,0.1-0.3,0.6-0.7c0.2-0.2,0.7-0.7,0.7-1.4c0-0.7-0.3-1.1-0.8-1.6C20.1,28,20,27.6,20,27.5v-2.2C20,25.6,21.1,22.9,24,22.9z"
		/>
	<g>
		<g>
			<g>
				<polygon points="34.9,10.3 27.6,10.3 27.6,11.1 34.9,11.1 				"/>
				<polygon points="28.1,3.4 18.7,17.5 19.7,18.1 29.1,4 				"/>
				<polygon points="20.1,10.4 16.8,10.4 16.7,7.4 15.9,7.4 15.9,10.4 12.8,10.4 12.8,11.5 15.9,11.5 16,14.2 16.8,14.2 16.8,11.5 
					20.1,11.5 				"/>
			</g>
		</g>
	</g>
</g>
<g class="shadowGroup3">
	<path fill="none" stroke="#000000" stroke-width="0.75" stroke-miterlimit="10" d="M35.5,37.4c0,1.3-1,2.3-2.3,2.3H13.5
		c-1.3,0-2.3-1-2.3-2.3V21.8c0-1.3,1-2.3,2.3-2.3h19.6c1.3,0,2.3,1,2.3,2.3L35.5,37.4L35.5,37.4z"/>
	<path d="M23.4,22.2h4.8l0.8,0.6h6.4V22h-6.3l-0.8-0.6h-3.8v-1.7h-2.3v1.7h-3.1L19,21.5c-0.1,0.2-0.3,0.3-0.6,0.3c-0.2,0-1.8,0-6,0
		c-0.7,0-1.1,0-1.4,0v0.8c0.2,0,0.8,0,1.4,0c1.8,0,5.5,0,5.8,0c0.3,0,0.8-0.2,1-0.6h1.1c-1.6,1-2.1,2.7-2.1,3.1v1.5h-7.3v0.8h7.3
		v0.1c0,0.6,0.2,0.8,0.7,1.1c0.2,0.2,0.6,0.7,0.6,0.9s-0.1,0.6-0.6,0.8c-0.2,0.2-0.6,0.7-0.7,1h-7.3v0.8h7.3v1.1
		c0,1.3,0.8,2.5,2.2,3.3h-1.3c-0.2-0.2-0.7-0.6-1-0.6c-0.2,0-4,0-5.8,0c-0.7,0-1.1,0-1.4,0v0.8c0.2,0,0.8,0,1.4,0c4,0,5.5,0,6,0
		c0.1,0,0.3,0.2,0.6,0.3l0.1,0.1h3.1v2.2h2.3v-2.2h3.8l0.9-0.6h6.3v-0.8H29l-0.9,0.6h-1.7c1.4-0.9,2.1-2.4,2.1-3.2v-1.3h7V31h-7.1
		c-0.1-0.6-0.6-1-0.8-1.4c-0.1-0.1-0.2-0.3-0.2-0.3c0-0.6,0.1-0.7,0.3-0.9s0.7-0.6,0.7-1.3h7v-0.8h-7.8v0.3c0,0.8-0.1,0.9-0.6,1.1
		c-0.2,0.2-0.7,0.7-0.7,1.4c0,0.3,0.2,0.7,0.6,0.9c0.2,0.3,0.7,0.8,0.7,1.3V33c0,0.8-1.3,3.2-4,3.2c-2.9,0-4.4-1.9-4.4-3.3v-1.7
		c0-0.2,0.1-0.3,0.6-0.7c0.2-0.2,0.7-0.7,0.7-1.4c0-0.7-0.3-1.1-0.8-1.6c-0.2-0.2-0.3-0.6-0.3-0.7v-2.2
		C19.4,24.9,20.5,22.2,23.4,22.2z"/>
	<g>
		<g>
			<g>
				<polygon points="34.3,9.5 27.1,9.6 27.1,10.4 34.4,10.4 				"/>
				<polygon points="27.6,2.7 18.2,16.8 19.1,17.4 28.5,3.3 				"/>
				<polygon points="19.5,9.6 16.2,9.7 16.2,6.6 15.3,6.6 15.4,9.7 12.2,9.7 12.2,10.8 15.4,10.8 15.4,13.5 16.2,13.5 16.2,10.8 
					19.5,10.8 				"/>
			</g>
		</g>
	</g>
</g>
<g>
	<path class="strokeColor" fill="none" stroke="#000000" stroke-width="0.75" stroke-miterlimit="10" d="M34.9,36.8c0,1.3-1,2.3-2.3,2.3H12.9
		c-1.3,0-2.3-1-2.3-2.3V21.2c0-1.3,1-2.3,2.3-2.3h19.6c1.3,0,2.3,1,2.3,2.3L34.9,36.8L34.9,36.8z"/>
	<path class="fillColor" d="M22.8,21.6h4.8l0.8,0.6h6.4v-0.8h-6.3l-0.8-0.6h-3.8v-1.7h-2.3v1.7h-3.1l-0.1,0.1c-0.1,0.2-0.3,0.3-0.6,0.3
		c-0.2,0-1.8,0-6,0c-0.7,0-1.1,0-1.4,0V22c0.2,0,0.8,0,1.4,0c1.8,0,5.5,0,5.8,0c0.3,0,0.8-0.2,1-0.6h1.1c-1.6,1-2.1,2.7-2.1,3.1V26
		h-7.3v0.8h7.3v0.1c0,0.6,0.2,0.8,0.7,1.1c0.2,0.2,0.6,0.7,0.6,0.9s-0.1,0.6-0.6,0.8c-0.2,0.2-0.6,0.7-0.7,1h-7.3v0.8h7.3v1.1
		c0,1.3,0.8,2.5,2.2,3.3h-1.3c-0.2-0.2-0.7-0.6-1-0.6c-0.2,0-4,0-5.8,0c-0.7,0-1.1,0-1.4,0v0.8c0.2,0,0.8,0,1.4,0c4,0,5.5,0,6,0
		c0.1,0,0.3,0.2,0.6,0.3l0.1,0.1h3.1v2.2h2.3v-2.2h3.8l0.9-0.6h6.3v-0.8h-6.4l-0.9,0.6h-1.7c1.4-0.9,2.1-2.4,2.1-3.2v-1.3h7v-0.8
		h-7.1c-0.1-0.6-0.6-1-0.8-1.4c-0.1-0.1-0.2-0.3-0.2-0.3c0-0.6,0.1-0.7,0.3-0.9s0.7-0.6,0.7-1.3h7v-0.8H27V26c0,0.8-0.1,0.9-0.6,1.1
		c-0.2,0.2-0.7,0.7-0.7,1.4c0,0.3,0.2,0.7,0.6,0.9c0.2,0.3,0.7,0.8,0.7,1.3v1.7c0,0.8-1.3,3.2-4,3.2c-2.9,0-4.4-1.9-4.4-3.3v-1.7
		c0-0.2,0.1-0.3,0.6-0.7c0.2-0.2,0.7-0.7,0.7-1.4c0-0.7-0.3-1.1-0.8-1.6c-0.2-0.2-0.3-0.6-0.3-0.7V24C18.8,24.3,19.9,21.6,22.8,21.6
		z"/>
	<g>
		<g>
			<g>
				<polygon class="fillColor" points="33.7,8.9 26.4,9 26.4,9.8 33.7,9.7 				"/>
				<polygon class="fillColor" points="26.9,2.1 17.5,16.2 18.5,16.7 27.9,2.6 				"/>
				<polygon class="fillColor" points="18.8,9 15.5,9 15.5,6 14.7,6 14.7,9 11.5,9.1 11.5,10.2 14.7,10.1 14.7,12.9 15.6,12.9 15.5,10.1 18.8,10.1 
									"/>
			</g>
		</g>
	</g>
</g>
</svg>
