<?xml version="1.0" encoding="utf-8"?>
<!-- Generator: Adobe Illustrator 17.1.0, SVG Export Plug-In . SVG Version: 6.00 Build 0)  -->
<!DOCTYPE svg PUBLIC "-//W3C//DTD SVG 1.1//EN" "http://www.w3.org/Graphics/SVG/1.1/DTD/svg11.dtd">
<svg version="1.1" id="Layer_1" xmlns="http://www.w3.org/2000/svg" xmlns:xlink="http://www.w3.org/1999/xlink" x="0px" y="0px"
	 viewBox="0 0 45 45" enable-background="new 0 0 45 45" xml:space="preserve">

    <style type="text/css">
                @import "../default/default/svg.css";
        </style>
         <script type="text/javascript">
              <![CDATA[
                  if(window.parent && window.parent.Wincor && window.parent.Wincor.UI && window.parent.Wincor.UI.Content) {
                      let styleRes = window.parent.Wincor.UI.Content.StyleResourceResolver;
                      if(styleRes) {
                        let style = document.getElementsByTagName("style")[0];
                        if(style.innerHTML) {
                            style.innerHTML = style.innerHTML.replace("default/svg.css", styleRes.type() + "svg.css");
                        }
                        else {
                            style.textContent = style.textContent.replace("default/svg.css", styleRes.type() + "svg.css");
                        }
                        styleRes = null;
                      }
                  }
              ]]>
         </script>

<g class="shadowGroup1">
	<path d="M32.7,33.3L23,43.1V18.5h-1V43l-9.7-9.7L11.6,34l10.9,11l10.9-10.9L32.7,33.3z"/>
	<path d="M20.3,8.8c1.6,0,2.9,1.3,2.9,2.9s-1.3,2.9-2.9,2.9s-2.9-1.3-2.9-2.9C17.4,10.2,18.8,8.8,20.3,8.8 M20.3,8
		c-2.1,0-3.7,1.6-3.7,3.7s1.6,3.7,3.7,3.7s3.7-1.6,3.7-3.7S22.4,8,20.3,8L20.3,8z"/>
	<polygon points="17.2,19 4.2,19 4.2,5 35.2,5 35.2,11 36.2,11 36.2,4 3.2,4 3.2,19.8 17.2,19.9 	"/>
	<path d="M34.4,24.8c-3.4,0-6.2-2.8-6.2-6.2s2.8-6.2,6.2-6.2s6.2,2.8,6.2,6.2C40.6,22,37.8,24.8,34.4,24.8z M34.4,13.6
		c-2.8,0-5,2.2-5,5s2.2,5,5,5s5-2.2,5-5S37.1,13.6,34.4,13.6z"/>
	<path d="M38.8,28c-2.4,0-4.7-1.5-5.7-3.7l1.1-0.5c0.8,1.8,2.6,3,4.6,3c2.8,0,5-2.2,5-5c0-2.5-1.8-4.6-4.3-4.9l0.2-1.2
		c3,0.4,5.3,3.1,5.3,6.1C45,25.2,42.2,28,38.8,28z"/>
	<circle cx="34.4" cy="18.7" r="2.9"/>
	<path d="M5.2,6v12h12v-1h-4l0,0H8.8c0.2-0.3,0.4-0.7,0.4-1.1c0-1-0.9-1.9-1.9-1.9c-0.4,0-0.8,0.1-1.1,0.4V9.6
		c0.3,0.1,0.6,0.2,0.9,0.2c1,0,1.9-0.9,1.9-1.9C9,7.6,8.9,7.3,8.8,7h21.8c-0.2,0.3-0.4,0.7-0.4,1.1c0,1,0.9,1.9,1.9,1.9
		c0.4,0,0.8-0.1,1.1-0.4V11h1V6H5.2z"/>
	<path d="M36.3,23.8c-1,0,1.6,1.2,2.6,1.2c1.9,0,3.4-1.5,3.4-3.4c0-1.5-0.9-2.7-2.2-3.2C40,21.3,38.8,23.7,36.3,23.8z"/>
</g>
<g class="shadowGroup2">
	<path d="M31.7,32.3L22,42.1V17.5h-1V42l-9.7-9.7L10.6,33l10.9,11l10.9-10.9L31.7,32.3z"/>
	<path d="M19.3,7.8c1.6,0,2.9,1.3,2.9,2.9s-1.3,2.9-2.9,2.9s-2.9-1.3-2.9-2.9C16.4,9.2,17.8,7.8,19.3,7.8 M19.3,7
		c-2.1,0-3.7,1.6-3.7,3.7s1.6,3.7,3.7,3.7s3.7-1.6,3.7-3.7S21.4,7,19.3,7L19.3,7z"/>
	<polygon points="16.2,18 3.2,18 3.2,4 34.2,4 34.2,10 35.2,10 35.2,3 2.2,3 2.2,18.9 16.2,18.9 	"/>
	<path d="M4.2,5v12h12v-1h-4l0,0H7.8c0.2-0.3,0.4-0.7,0.4-1.1c0-1-0.9-1.9-1.9-1.9c-0.4,0-0.8,0.1-1.1,0.4V8.6
		c0.3,0.1,0.6,0.2,0.9,0.2c1,0,1.9-0.9,1.9-1.9C8,6.6,7.9,6.3,7.8,6h21.8c-0.2,0.3-0.4,0.7-0.4,1.1c0,1,0.9,1.9,1.9,1.9
		c0.4,0,0.8-0.1,1.1-0.4V10h1V5H4.2z"/>
	<path d="M33.4,23.8c-3.4,0-6.2-2.8-6.2-6.2s2.8-6.2,6.2-6.2s6.2,2.8,6.2,6.2C39.6,21,36.8,23.8,33.4,23.8z M33.4,12.6
		c-2.8,0-5,2.2-5,5s2.2,5,5,5s5-2.2,5-5S36.1,12.6,33.4,12.6z"/>
	<path d="M37.8,27c-2.4,0-4.7-1.5-5.7-3.7l1.1-0.5c0.8,1.8,2.6,3,4.6,3c2.8,0,5-2.2,5-5c0-2.5-1.8-4.6-4.3-4.9l0.2-1.2
		c3,0.4,5.3,3.1,5.3,6.1C44,24.2,41.2,27,37.8,27z"/>
	<circle cx="33.4" cy="17.7" r="2.9"/>
	<path d="M35.3,22.8c-1,0,1.6,1.2,2.6,1.2c1.9,0,3.4-1.5,3.4-3.4c0-1.5-0.9-2.7-2.2-3.2C39,20.3,37.8,22.7,35.3,22.8z"/>
</g>
<g class="shadowGroup3">
	<path d="M30.7,31.3L21,41.1V16.5h-1V41l-9.7-9.7L9.6,32l10.9,11l10.9-10.9L30.7,31.3z"/>
	<path d="M18.3,6.8c1.6,0,2.9,1.3,2.9,2.9s-1.3,2.9-2.9,2.9s-2.9-1.3-2.9-2.9C15.4,8.2,16.8,6.8,18.3,6.8 M18.3,6
		c-2.1,0-3.7,1.6-3.7,3.7s1.6,3.7,3.7,3.7S22,11.8,22,9.7S20.4,6,18.3,6L18.3,6z"/>
	<polygon points="15.2,17 2.2,17 2.2,3 33.2,3 33.2,9 34.2,9 34.2,2 1.2,2 1.2,17.9 15.2,17.9 	"/>
	<path d="M3.2,4v12h12v-1h-4l0,0H6.8c0.2-0.3,0.4-0.7,0.4-1.1c0-1-0.9-1.9-1.9-1.9c-0.4,0-0.8,0.1-1.1,0.4V7.6
		c0.3,0.1,0.6,0.2,0.9,0.2c1,0,1.9-0.9,1.9-1.9C7,5.6,6.9,5.3,6.8,5h21.8c-0.2,0.3-0.4,0.7-0.4,1.1c0,1,0.9,1.9,1.9,1.9
		c0.4,0,0.8-0.1,1.1-0.4V9h1V4H3.2z"/>
	<path d="M32.4,22.8c-3.4,0-6.2-2.8-6.2-6.2s2.8-6.2,6.2-6.2s6.2,2.8,6.2,6.2C38.6,20,35.8,22.8,32.4,22.8z M32.4,11.6
		c-2.8,0-5,2.2-5,5s2.2,5,5,5s5-2.2,5-5S35.1,11.6,32.4,11.6z"/>
	<path d="M36.8,26c-2.4,0-4.7-1.5-5.7-3.7l1.1-0.5c0.8,1.8,2.6,3,4.6,3c2.8,0,5-2.2,5-5c0-2.5-1.8-4.6-4.3-4.9l0.2-1.2
		c3,0.4,5.3,3.1,5.3,6.1C43,23.2,40.2,26,36.8,26z"/>
	<circle cx="32.4" cy="16.7" r="2.9"/>
	<path d="M34.3,21.8c-1,0,1.6,1.2,2.6,1.2c1.9,0,3.4-1.5,3.4-3.4c0-1.5-0.9-2.7-2.2-3.2C38,19.3,36.8,21.7,34.3,21.8z"/>
</g>
<g>
	<path class="fillColor" d="M29.7,30.3L20,40.1V15.5h-1V40l-9.7-9.7L8.6,31l10.9,11l10.9-10.9L29.7,30.3z"/>
	<path class="fillColor" d="M17.1,5.8c1.6,0,2.9,1.3,2.9,2.9s-1.3,2.9-2.9,2.9s-2.9-1.3-2.9-2.9C14.2,7.2,15.6,5.8,17.1,5.8 M17.1,5
		c-2.1,0-3.7,1.6-3.7,3.7s1.6,3.7,3.7,3.7s3.7-1.6,3.7-3.7C20.8,6.6,19.2,5,17.1,5L17.1,5z"/>
	<polygon class="fillColor" points="14,16 1,16 1,2 32,2 32,8 33,8 33,1 0,1 0,16.9 14,16.9 	"/>
	<path class="fillColor" d="M2,3v12h12v-1h-4H5.6C5.9,13.7,6,13.3,6,12.9c0-1-0.9-1.9-1.9-1.9c-0.4,0-0.8,0.1-1.1,0.4V6.6
		c0.3,0.1,0.6,0.2,0.9,0.2c1,0,1.9-0.9,1.9-1.9c0-0.3-0.1-0.6-0.2-0.9h21.8C27.2,4.3,27,4.7,27,5.1c0,1,0.9,1.9,1.9,1.9
		c0.4,0,0.8-0.1,1.1-0.4V8h1V3H2z"/>
	<path class="fillColor" d="M31.2,21.8c-3.4,0-6.2-2.8-6.2-6.2s2.8-6.2,6.2-6.2s6.2,2.8,6.2,6.2S34.6,21.8,31.2,21.8z M31.2,10.6
		c-2.8,0-5,2.2-5,5s2.2,5,5,5s5-2.2,5-5S33.9,10.6,31.2,10.6z"/>
	<path class="fillColor" d="M35.6,25c-2.4,0-4.7-1.5-5.7-3.7l1.1-0.5c0.8,1.8,2.6,3,4.6,3c2.8,0,5-2.2,5-5c0-2.5-1.8-4.6-4.3-4.9
		l0.2-1.2c3,0.4,5.3,3.1,5.3,6.1C41.8,22.2,39,25,35.6,25z"/>
	<circle class="fillColor" cx="31.2" cy="15.7" r="2.9"/>
	<path class="fillColor" d="M33.1,20.8c-1,0,1.6,1.2,2.6,1.2c1.9,0,3.4-1.5,3.4-3.4c0-1.5-0.9-2.7-2.2-3.2
		C36.8,18.3,35.6,20.7,33.1,20.8z"/>
</g>
</svg>
