<?xml version="1.0" encoding="utf-8"?>
<!-- Generator: Adobe Illustrator 18.0.0, SVG Export Plug-In . SVG Version: 6.00 Build 0)  -->
<!DOCTYPE svg PUBLIC "-//W3C//DTD SVG 1.1//EN" "http://www.w3.org/Graphics/SVG/1.1/DTD/svg11.dtd">
<svg version="1.1" id="Layer_1" xmlns="http://www.w3.org/2000/svg" xmlns:xlink="http://www.w3.org/1999/xlink" x="0px" y="0px"
	 viewBox="0 0 45 45" enable-background="new 0 0 45 45" xml:space="preserve">
	<style type="text/css">
			@import "../default/default/svg.css";
	</style>
	 <script type="text/javascript">
         <![CDATA[
             if(window.parent && window.parent.Wincor && window.parent.Wincor.UI && window.parent.Wincor.UI.Content) {
                 let styleRes = window.parent.Wincor.UI.Content.StyleResourceResolver;
                 if(styleRes) {
                 	let style = document.getElementsByTagName("style")[0];
                   	style.innerHTML = style.innerHTML.replace("default/svg.css", styleRes.type() + "svg.css");
                    styleRes = null;
                 }
             }
         ]]>
    </script>
<g class="shadowGroup1">
	<polygon fill="none" stroke="#000000" stroke-miterlimit="10" points="36.9,21.2 36.9,37 14.1,32.3 14.1,17.5 	"/>
	<polyline fill="none" stroke="#000000" stroke-miterlimit="10" points="30.5,20.1 30.5,11.2 14.1,17.4 	"/>
</g>
<g class="shadowGroup2">
	<polygon fill="none" stroke="#000000" stroke-miterlimit="10" points="35.9,20.2 35.9,36 13.1,31.3 13.1,16.5 	"/>
	<polyline fill="none" stroke="#000000" stroke-miterlimit="10" points="29.5,19.1 29.5,10.2 13.1,16.4 	"/>
</g>
<g class="shadowGroup3">
	<polygon fill="none" stroke="#000000" stroke-miterlimit="10" points="34.9,19.2 34.9,35 12.1,30.3 12.1,15.5 	"/>
	<polyline fill="none" stroke="#000000" stroke-miterlimit="10" points="28.5,18.1 28.5,9.2 12.1,15.4 	"/>
</g>
<g>
	<polygon class="strokeColor03" stroke-miterlimit="10" points="33.9,18.2 33.9,34 11.1,29.3 11.1,14.5 	"/>
	<polyline class="strokeColor03" stroke-miterlimit="10" points="27.5,17.1 27.5,8.2 11.1,14.4 	"/>
</g>
<g id="warningCircle" style="display:none">
    <g class="shadowGroup1">
        <ellipse fill="none" stroke="#000000" stroke-width="2" stroke-miterlimit="10" cx="25.2" cy="23.4" rx="18.8" ry="18.8"/>
        <line fill="none" stroke="#000000" stroke-width="2" stroke-miterlimit="10" x1="38.5" y1="10.1" x2="12" y2="36.7"/>
    </g>
    <g class="shadowGroup2">
        <ellipse fill="none" stroke="#000000" stroke-width="2" stroke-miterlimit="10" cx="24.5" cy="22.5" rx="18.8" ry="18.8"/>
        <line fill="none" stroke="#000000" stroke-width="2" stroke-miterlimit="10" x1="37.8" y1="9.2" x2="11.3" y2="35.8"/>
    </g>
    <g class="shadowGroup3">
        <ellipse fill="none" stroke="#000000" stroke-width="2" stroke-miterlimit="10" cx="23.5" cy="21.6" rx="18.8" ry="18.8"/>
        <line fill="none" stroke="#000000" stroke-width="2" stroke-miterlimit="10" x1="36.8" y1="8.3" x2="10.3" y2="34.9"/>
    </g>
    <g>
        <ellipse class="strokeColor09" stroke-width="2" stroke-miterlimit="10" cx="22.5" cy="20.8" rx="18.8" ry="18.8"/>
        <line class="strokeColor09" stroke-width="2" stroke-miterlimit="10" x1="35.8" y1="7.5" x2="9.3" y2="34.1"/>
    </g>
</g>

    <script type="text/javascript">
        <![CDATA[
            let attr = this.frameElement.attributes['data-warning-circle'];
            if(attr && attr.value === "true") {
                document.getElementById("warningCircle").style.display = "block";
            }
        ]]>
    </script>

</svg>
