<?xml version="1.0" encoding="utf-8"?>
<!-- Generator: Adobe Illustrator 18.0.0, SVG Export Plug-In . SVG Version: 6.00 Build 0)  -->
<!DOCTYPE svg PUBLIC "-//W3C//DTD SVG 1.1//EN" "http://www.w3.org/Graphics/SVG/1.1/DTD/svg11.dtd">
<svg version="1.1" id="Layer_1" xmlns="http://www.w3.org/2000/svg" xmlns:xlink="http://www.w3.org/1999/xlink" x="0px" y="0px"
	 viewBox="0 0 45 45" enable-background="new 0 0 45 45" xml:space="preserve">
	<style type="text/css">
			@import "../default/default/svg.css";
	</style>
	 <script type="text/javascript">
         <![CDATA[
             if(window.parent && window.parent.Wincor && window.parent.Wincor.UI && window.parent.Wincor.UI.Content) {
                 let styleRes = window.parent.Wincor.UI.Content.StyleResourceResolver;
                 if(styleRes) {
                 	let style = document.getElementsByTagName("style")[0];
                   	style.innerHTML = style.innerHTML.replace("default/svg.css", styleRes.type() + "svg.css");
                    styleRes = null;
                 }
             }
         ]]>
    </script>
<g class="shadowGroup1">
	<path  d="M40.4,15H10.6v18.9h29.8V15z M38.8,15.6L25.4,25.8L12.1,15.6H38.8z M11.2,15.8L22,24
		l-10.8,8.8V15.8z M11.8,33.2l10.7-8.7l2.9,2.2l2.9-2.2l10.9,8.7H11.8z M39.8,32.8l-11-8.8l11-8.3V32.8z"/>
</g>
<g class="shadowGroup2">
	<path  d="M39.4,14H9.6v18.9h29.8V14z M37.8,14.6L24.4,24.8L11.1,14.6H37.8z M10.2,14.8L21,23l-10.8,8.8
		V14.8z M10.8,32.2l10.7-8.7l2.9,2.2l2.9-2.2l10.9,8.7H10.8z M38.8,31.8l-11-8.8l11-8.3V31.8z"/>
</g>
<g class="shadowGroup3">
	<path  d="M38.4,13H8.6v18.9h29.8V13z M36.8,13.6L23.4,23.8L10.1,13.6H36.8z M9.2,13.8L20,22L9.2,30.8
		V13.8z M9.8,31.2l10.7-8.7l2.9,2.2l2.9-2.2l10.9,8.7C37.2,31.2,9.8,31.2,9.8,31.2z M37.8,30.8l-11-8.8l11-8.3V30.8z"/>
</g>
<g>
	<path class="fillColor03" d="M37.4,12H7.6v18.9h29.8V12z M35.8,12.6L22.4,22.8L9.1,12.6H35.8z M8.2,12.8L19,21L8.2,29.8V12.8z M8.8,30.2
		l10.7-8.7l2.9,2.2l2.9-2.2l10.9,8.7C36.2,30.2,8.8,30.2,8.8,30.2z M36.8,29.8l-11-8.8l11-8.3V29.8z"/>
</g>

<g id="warningCircle" style="display:none">
    <g class="shadowGroup1">
        <ellipse fill="none" stroke="#000000" stroke-width="2" stroke-miterlimit="10" cx="25.2" cy="23.4" rx="18.8" ry="18.8"/>
        <line fill="none" stroke="#000000" stroke-width="2" stroke-miterlimit="10" x1="38.5" y1="10.1" x2="12" y2="36.7"/>
    </g>
    <g class="shadowGroup2">
        <ellipse fill="none" stroke="#000000" stroke-width="2" stroke-miterlimit="10" cx="24.5" cy="22.5" rx="18.8" ry="18.8"/>
        <line fill="none" stroke="#000000" stroke-width="2" stroke-miterlimit="10" x1="37.8" y1="9.2" x2="11.3" y2="35.8"/>
    </g>
    <g class="shadowGroup3">
        <ellipse fill="none" stroke="#000000" stroke-width="2" stroke-miterlimit="10" cx="23.5" cy="21.6" rx="18.8" ry="18.8"/>
        <line fill="none" stroke="#000000" stroke-width="2" stroke-miterlimit="10" x1="36.8" y1="8.3" x2="10.3" y2="34.9"/>
    </g>
    <g>
        <ellipse class="strokeColor09" stroke-width="2" stroke-miterlimit="10" cx="22.5" cy="20.8" rx="18.8" ry="18.8"/>
        <line class="strokeColor09" stroke-width="2" stroke-miterlimit="10" x1="35.8" y1="7.5" x2="9.3" y2="34.1"/>
    </g>
</g>

    <script type="text/javascript">
        <![CDATA[
            let attr = this.frameElement.attributes['data-warning-circle'];
            if(attr && attr.value === "true") {
                document.getElementById("warningCircle").style.display = "block";
            }
        ]]>
    </script>

</svg>
