<?xml version="1.0" encoding="utf-8"?>
<!-- Generator: Adobe Illustrator 18.0.0, SVG Export Plug-In . SVG Version: 6.00 Build 0)  -->
<!DOCTYPE svg PUBLIC "-//W3C//DTD SVG 1.1//EN" "http://www.w3.org/Graphics/SVG/1.1/DTD/svg11.dtd">
<svg version="1.1" id="Layer_1" xmlns="http://www.w3.org/2000/svg" xmlns:xlink="http://www.w3.org/1999/xlink" x="0px" y="0px"
	 viewBox="0 0 45 45" enable-background="new 0 0 45 45" xml:space="preserve">
	<style type="text/css">
			@import "../default/default/svg.css";
	</style>
	 <script type="text/javascript">
         <![CDATA[
             if(window.parent && window.parent.Wincor && window.parent.Wincor.UI && window.parent.Wincor.UI.Content) {
                 let styleRes = window.parent.Wincor.UI.Content.StyleResourceResolver;
                 if(styleRes) {
                 	let style = document.getElementsByTagName("style")[0];
                   	style.innerHTML = style.innerHTML.replace("default/svg.css", styleRes.type() + "svg.css");
                    styleRes = null;
                 }
             }
         ]]>
    </script>
<g class="shadowGroup1">
	<path  d="M33.2,29.1l-7.3,7.3V19.9h-0.8v16.6l-7.3-7.3l-0.5,0.5l8.2,8.2l8.2-8.2L33.2,29.1z"/>
	<polygon  points="11.6,10.1 11.6,24.4 24.4,24.4 24.4,23.6 12.4,23.6 12.4,10.9 38.6,10.9 38.6,23.6
		26.6,23.6 26.6,24.4 39.4,24.4 39.4,10.1 	"/>
	<polygon  points="25.5,17.9 11.8,11.2 12.2,10.3 25.5,16.8 38.6,10.3 39.1,11.2 	"/>
</g>
<g class="shadowGroup2">
	<path  d="M32.2,28.1l-7.3,7.3V18.9h-0.8v16.6l-7.3-7.3l-0.5,0.5l8.2,8.2l8.2-8.2L32.2,28.1z"/>
	<polygon  points="10.6,9.1 10.6,23.4 23.4,23.4 23.4,22.6 11.4,22.6 11.4,9.9 37.6,9.9 37.6,22.6
		25.6,22.6 25.6,23.4 38.4,23.4 38.4,9.1 	"/>
	<polygon  points="24.5,16.9 10.8,10.2 11.2,9.3 24.5,15.8 37.6,9.3 38.1,10.2 	"/>
</g>
<g class="shadowGroup3">
	<path  d="M31.2,27.1l-7.3,7.3V17.9h-0.8v16.6l-7.3-7.3l-0.5,0.5l8.2,8.2l8.2-8.2L31.2,27.1z"/>
	<polygon  points="9.6,8.1 9.6,22.4 22.4,22.4 22.4,21.6 10.4,21.6 10.4,8.9 36.6,8.9 36.6,21.6
		24.6,21.6 24.6,22.4 37.4,22.4 37.4,8.1 	"/>
	<polygon  points="23.5,15.9 9.8,9.2 10.2,8.3 23.5,14.8 36.6,8.3 37.1,9.2 	"/>
</g>
<g>
	<path class="fillColor" d="M30.2,26.1l-7.3,7.3V16.9h-0.8v16.6l-7.3-7.3l-0.5,0.5l8.2,8.2l8.2-8.2L30.2,26.1z"/>
	<polygon class="fillColor" points="8.6,7.1 8.6,21.4 21.4,21.4 21.4,20.6 9.4,20.6 9.4,7.9 35.6,7.9 35.6,20.6 23.6,20.6 23.6,21.4 
		36.4,21.4 36.4,7.1 	"/>
	<polygon class="fillColor" points="22.5,14.9 8.8,8.2 9.2,7.3 22.5,13.8 35.6,7.3 36.1,8.2 	"/>
</g>
</svg>
