<?xml version="1.0" encoding="utf-8"?>
<!-- Generator: Adobe Illustrator 23.0.2, SVG Export Plug-In . SVG Version: 6.00 Build 0)  -->
<svg version="1.1" id="Layer_1" xmlns="http://www.w3.org/2000/svg" xmlns:xlink="http://www.w3.org/1999/xlink" x="0px" y="0px"
	 viewBox="0 0 513.5 394.5" enable-background="new 0 0 513.5 394.5" xml:space="preserve">
<g>
	<path fill="#490E67" d="M222,149.4v5.6l-9.7,125.8l9.7-4.1c41.3-6.3,69.6-42.7,69.6-127.3c0-74.4-22.8-106.6-34.8-96.7
		c-30.5-11.7-43.4,40.7-35.2,86.8C222,142,222,146.8,222,149.4z"/>
	<path fill="#004987" d="M145.8,227.5H69.6V71.3h76.2c42,0,76.2,35,76.2,78.1c0-36.9,13.1-70.6,34.8-96.7C230,20.5,190.2,0,145.8,0
		H0v298.8h145.8c27.9,0,54-8.1,76.2-22.1V149.4C222,192.5,187.8,227.5,145.8,227.5z"/>
	<path fill="#AA182C" d="M366.5,0c-43.9,0.4-83.2,20.8-109.7,52.7c21.7,26.1,34.8,59.8,34.8,96.7c0-43.9,35.4-79.4,78.5-78.1
		c41.5,1.3,73.9,37.2,73.9,79.7v147.8h69.6v-147C513.5,68.9,447.4-0.7,366.5,0z"/>
	<path fill="#AA182C" d="M222,276.7v22.1h69.6V149.4C291.5,203.2,263.7,250.4,222,276.7z"/>
</g>
<g>
	<g>
		<path fill="#004987" d="M83.6,352.3c-10.8,0-18.9,9.1-18.9,21.1s8.5,21.1,19.7,21.1c6.6,0,11.6-2.3,16.2-7.6l0.4-0.4l-4.4-4
			l-0.4,0.4c-3.4,3.7-7.1,5.4-11.7,5.4c-6.8,0-11.9-4.8-12.9-12h30.3v-0.5c0.1-0.9,0.1-1.6,0.1-2.1
			C102.1,360.9,94.7,352.3,83.6,352.3z M71.6,370.5c1-7.2,5.8-12.1,11.8-12.1c7.5,0,10.9,6.1,11.6,12.1H71.6z M52.1,393.6h6.8v-38.9
			h-6.8V393.6z M194.8,393.6h6.8V337h-6.8V393.6z M127.8,352.3c-5.7,0-10.3,2.5-14.1,7.6V337h-6.8v56.6h6.8v-6.4
			c3.7,4.8,8.5,7.2,14.1,7.2c9.1,0,18.9-7.4,18.9-21v-0.2C146.6,359.7,136.9,352.3,127.8,352.3z M139.7,373.5
			c0,8.6-5.3,14.6-13,14.6c-6.6,0-13.3-5.5-13.3-14.7v-0.2c0-7,5.1-14.6,13.3-14.6c7.5,0,13,6.2,13,14.7V373.5z M18.6,339.2H0v54.3
			h18.6c16.3,0,28.1-11.4,28.1-27.2v-0.2C46.7,350.6,34.9,339.2,18.6,339.2z M39.6,366.6c0,12-8.6,20.4-21,20.4H7v-41h11.6
			c12.3,0,21,8.4,21,20.5V366.6z M170.8,352.3c-11.5,0-20.6,9.3-20.6,21.1v0.2c0,11.7,9,20.9,20.4,20.9c11.6,0,20.7-9.3,20.7-21.1
			v-0.2C191.3,361.5,182.3,352.3,170.8,352.3z M184.4,373.6c0,8.3-5.8,14.6-13.6,14.6c-7.6,0-13.6-6.5-13.6-14.7v-0.2
			c0-8.4,5.8-14.7,13.5-14.7s13.7,6.5,13.7,14.8L184.4,373.6L184.4,373.6z M436.4,352.3c-11.5,0-20.6,9.3-20.6,21.1v0.2
			c0,11.7,9,20.9,20.4,20.9c11.6,0,20.7-9.3,20.7-21.1v-0.2C456.9,361.5,447.9,352.3,436.4,352.3z M449.9,373.6
			c0,8.3-5.8,14.6-13.6,14.6c-7.6,0-13.6-6.5-13.6-14.7v-0.2c0-8.4,5.8-14.7,13.5-14.7s13.7,6.5,13.7,14.8V373.6z M405,359.6
			c-3.7-4.8-8.5-7.2-14.1-7.2c-9.1,0-18.9,7.4-18.9,21v0.2c0,13.6,9.7,20.9,18.9,20.9c5.7,0,10.3-2.5,14.1-7.6v6.7h6.8V337H405
			V359.6z M405.2,373.4c0,7-5.1,14.7-13.3,14.7c-7.5,0-13-6.2-13-14.7v-0.2c0-8.6,5.3-14.6,13-14.6c6.6,0,13.3,5.5,13.3,14.6V373.4z
			 M468,361.6v-8.5h-6.8v40.4h6.8v-16.2c0-10.6,5.8-17.5,14.7-17.5h1v-7.4h-0.5C476.8,352.2,471.3,355.6,468,361.6z M507.1,342.9
			c1.8,0,3.2,0.3,5.4,1l0.7,0.2v-6.2l-0.4-0.1c-2-0.7-3.8-1-6.5-1c-3.6,0-6.6,1.1-8.6,3.2c-2.3,2.3-3.5,6-3.5,10.5v2.9H489v6.2h5.3
			v34.1h6.8v-34.1h12.1v-6.1H501v-2.6C500.9,345.3,502.9,342.9,507.1,342.9z M307.1,380.9l-31.9-41.6h-6.3v54.3h6.8V351l32.6,42.4
			l0.2,0.2h5.5v-54.3h-6.8v41.6H307.1z M373.3,353.2h-7.8L354.4,368l-11.1-14.8h-7.9l14.9,19.9l-15.5,20.6h7.8l11.7-15.7l11.6,15.7
			h8L358.3,373L373.3,353.2z M239.1,359.6c-3.7-4.8-8.5-7.2-14.1-7.2c-9.1,0-18.9,7.4-18.9,21v0.2c0,13.6,9.7,20.9,18.9,20.9
			c5.7,0,10.3-2.5,14.1-7.6v6.7h6.8V337h-6.8V359.6z M239.3,373.4c0,7-5.1,14.7-13.3,14.7c-7.5,0-13-6.2-13-14.7v-0.2
			c0-8.6,5.3-14.6,13-14.6c6.6,0,13.3,5.5,13.3,14.6V373.4z M323.3,393.6h6.8v-40.4h-6.8V393.6z M55.6,339.8c-2.3,0-4.2,1.9-4.2,4.3
			s1.9,4.3,4.2,4.3s4.2-1.9,4.2-4.3S57.9,339.8,55.6,339.8z M327,339.8c-2.3,0-4.2,1.9-4.2,4.3s1.9,4.3,4.2,4.3s4.2-1.9,4.2-4.3
			S329.3,339.8,327,339.8z"/>
	</g>
</g>
</svg>
