<?xml version="1.0" encoding="utf-8"?>
<!-- Generator: Adobe Illustrator 21.1.0, SVG Export Plug-In . SVG Version: 6.00 Build 0)  -->
<svg version="1.1" id="dn-wordmark-logo-white" xmlns="http://www.w3.org/2000/svg" xmlns:xlink="http://www.w3.org/1999/xlink" x="0px" y="0px"
	 viewBox="0 0 450 187" style="enable-background:new 0 0 450 187;" xml:space="preserve">
<title>DN_Wordmark_logo_PMS</title>
<path fill="#FFFFFF" d="M2.3,91.2h446.5v6.3H2.3V91.2z"/>
<path fill="#FFFFFF" d="M28.5,2.6H2.4v73.1h26.1c23.1,0,40-15.4,40-36.6v-0.2C68.5,17.9,51.6,2.6,28.5,2.6z M59.4,39.1v0.2
	c0,16.8-12.7,28.5-30.9,28.5H11.1V10.5h17.4C46.7,10.5,59.4,22.3,59.4,39.1z M80.5,2.6h8.7v73.1h-8.7V2.6z M159.4,67.9h-46.2V42.7
	h40.9V35h-40.9V10.4h45.7V2.6h-54.4v73.1h54.9V67.9z M231.1,55.7v-0.2c0-8.6-5.2-14.4-15.8-17.6c5.4-2.4,11.6-7.2,11.6-16.8v-0.2
	c0.1-4.4-1.7-8.6-4.9-11.7c-4.4-4.2-11.4-6.5-19.7-6.5h-32v73.1h33.4C220.7,75.7,231.1,68,231.1,55.7z M222.3,55.1
	c0,7.9-7,12.9-18.2,12.9h-25V42.7h23.5c12.8,0,19.8,4.4,19.8,12.3V55.1z M218.1,22.2c0,7.9-6.5,12.9-17.1,12.9h-22V10.3h22.6
	c10.3,0,16.4,4.4,16.4,11.7V22.2z M275.5,76.9c21.6,0,38.5-16.6,38.5-37.8V39c0-21.4-16.4-37.6-38.2-37.6
	c-21.6,0-38.5,16.6-38.5,37.8v0.2C237.2,60.8,253.6,76.9,275.5,76.9z M246.3,39.1v-0.2c0-16.9,12.5-29.7,29.2-29.7
	c16.5,0,29.3,13.2,29.3,29.9v0.2c0,16.9-12.5,29.7-29.2,29.7C259.2,69,246.3,55.9,246.3,39.1z M374.2,67.8h-41.7V2.6h-8.8v73.1h50.5
	V67.8z M410.3,2.6h-26.1v73.1h26.1c23.2,0,40-15.4,40-36.6v-0.2C450.3,17.9,433.4,2.6,410.3,2.6z M441.1,39.1v0.2
	c0,16.8-12.7,28.5-30.9,28.5h-17.4V10.5h17.4C428.4,10.5,441.1,22.3,441.1,39.1z"/>
<path fill="#FFFFFF" d="M57.5,171.1l-47-58.1H2.4v73.2h8.5v-59.5l47.9,59.2l0.3,0.3H66V113h-8.5V171.1z M80.6,113h8.7v73.1h-8.7V113z
	 M164.8,113h-10.3l-22.7,29.7L108.9,113H98.6l27.8,35.8l-28.9,37.3h10.1l23.9-31.3l23.9,31.3h10.4L137,148.8L164.8,113z M198,113
	h-26.1v73.1H198c23.2,0,40-15.4,40-36.6v-0.2C237.9,128.3,221.1,113,198,113z M228.9,149.6v0.2c0,16.8-12.7,28.5-30.9,28.5h-17.4
	v-57.3H198C216.2,120.9,228.9,132.7,228.9,149.6L228.9,149.6z M282.1,111.8c-21.6,0-38.5,16.6-38.5,37.8v0.2
	c0,21.4,16.4,37.6,38.2,37.6c21.6,0,38.5-16.6,38.5-37.8v-0.2C320.3,127.9,303.9,111.8,282.1,111.8z M311.3,149.6v0.2
	c0,16.9-12.5,29.7-29.2,29.7c-16.5,0-29.3-13.2-29.3-29.9v-0.2c0-16.9,12.5-29.7,29.2-29.7C298.3,119.7,311.3,132.8,311.3,149.6z
	 M386.4,135v-0.2c0.2-5.4-2-10.6-5.9-14.5c-4.8-4.7-12.4-7.3-21.4-7.3h-32.4v73.1h8.7v-28.3h21.1l21.7,28.3h10.8l-23-29.8
	C379,153.9,386.4,146.2,386.4,135z M377.5,135.1v0.2c0,9-7.5,14.9-19.1,14.9h-22.8v-29.3h23C370.5,120.9,377.6,126.2,377.5,135.1
	L377.5,135.1z M394.5,186.2h8.8v-31.8h40.5v-7.8h-40.5v-25.7h45.3V113h-54.1V186.2z"/>
</svg>
