<?xml version="1.0" encoding="utf-8"?>
<!-- Generator: Adobe Illustrator 17.1.0, SVG Export Plug-In . SVG Version: 6.00 Build 0)  -->
<!DOCTYPE svg PUBLIC "-//W3C//DTD SVG 1.1//EN" "http://www.w3.org/Graphics/SVG/1.1/DTD/svg11.dtd">
<svg version="1.1" id="Layer_1" xmlns="http://www.w3.org/2000/svg" xmlns:xlink="http://www.w3.org/1999/xlink" x="0px" y="0px"
	 viewBox="0 0 200 300" enable-background="new 0 0 200 300" xml:space="preserve">
	<style type="text/css">
			@import "../default/default/svg.css";
	</style>
	 <script type="text/javascript">
         <![CDATA[
             if(window.parent && window.parent.Wincor && window.parent.Wincor.UI && window.parent.Wincor.UI.Content) {
                 let styleRes = window.parent.Wincor.UI.Content.StyleResourceResolver;
                 if(styleRes) {
                 	let style = document.getElementsByTagName("style")[0];
                   	style.innerHTML = style.innerHTML.replace("default/svg.css", styleRes.type() + "svg.css");
                    styleRes = null;
                 }
             }
         ]]>
    </script>
    <polygon fill="#FFFFFF" points="200,300 200,0 0,0 0,300 "/>
    <text transform="matrix(1 0 0 1 13 24.0982)" fill="#646464" font-size="13">BANK</text>
    <text id="headline" transform="matrix(1 0 0 1 13 73.6481)" fill="#646464" font-size="13"> </text>
    <text transform="matrix(1 0 0 1 13 45)" ><tspan id="date" x="0" y="0" fill="#646464" font-size="10"> </tspan><tspan x="0" y="13" fill="#646464" font-size="10"> </tspan></text>
    <rect x="24" y="123" fill="#D7D7D7" width="154" height="4"/>
    <rect x="14" y="113" fill="#D7D7D7" width="17" height="4"/>
    <rect x="32" y="113" fill="#D7D7D7" width="17" height="4"/>
    <rect x="160" y="99" fill="#D7D7D7" width="18" height="4"/>
    <rect x="14" y="137" fill="#D7D7D7" width="101" height="4"/>
    <rect x="14" y="130" fill="#D7D7D7" width="164" height="4"/>
    <line fill="none" stroke="#A5A5A5" stroke-miterlimit="10" stroke-dasharray="2,2" x1="13" y1="86.5" x2="178" y2="86.5"/>
    <rect x="24" y="144" fill="#D7D7D7" width="154" height="4"/>
    <rect x="14" y="151" fill="#D7D7D7" width="164" height="4"/>
    <rect x="14" y="158" fill="#D7D7D7" width="164" height="4"/>
    <rect x="14" y="165" fill="#D7D7D7" width="164" height="4"/>
    <rect x="14" y="172" fill="#D7D7D7" width="164" height="4"/>
    <rect x="14" y="179" fill="#D7D7D7" width="164" height="4"/>
    <rect x="14" y="186" fill="#D7D7D7" width="130" height="4"/>
    <rect x="24" y="196" fill="#D7D7D7" width="46" height="4"/>
    <rect x="107" y="203" fill="#D7D7D7" width="49" height="4"/>
    <rect x="157" y="203" fill="#D7D7D7" width="21" height="4"/>
    <rect x="107" y="210" fill="#D7D7D7" width="49" height="4"/>
    <rect x="157" y="210" fill="#D7D7D7" width="21" height="4"/>
    <rect x="107" y="217" fill="#D7D7D7" width="49" height="4"/>
    <rect x="157" y="217" fill="#D7D7D7" width="21" height="4"/>
    <rect x="107" y="224" fill="#D7D7D7" width="49" height="4"/>
    <rect x="157" y="224" fill="#D7D7D7" width="21" height="4"/>
    <rect x="107" y="231" fill="#D7D7D7" width="49" height="4"/>
    <rect x="24" y="203" fill="#D7D7D7" width="82" height="4"/>
    <rect x="24" y="210" fill="#D7D7D7" width="82" height="4"/>
    <rect x="24" y="217" fill="#D7D7D7" width="82" height="4"/>
    <rect x="24" y="224" fill="#D7D7D7" width="82" height="4"/>
    <rect x="24" y="231" fill="#D7D7D7" width="82" height="4"/>
    <rect x="157" y="231" fill="#D7D7D7" width="21" height="4"/>
    <rect x="14" y="278" fill="#D7D7D7" width="33" height="4"/>
    <rect x="55" y="278" fill="#D7D7D7" width="33" height="4"/>
    <rect x="96" y="278" fill="#D7D7D7" width="33" height="4"/>
    <rect x="14" y="271" fill="#D7D7D7" width="33" height="4"/>
    <rect x="55" y="271" fill="#D7D7D7" width="33" height="4"/>
    <rect x="96" y="271" fill="#D7D7D7" width="33" height="4"/>
    <rect x="163" y="278" fill="#D7D7D7" width="13" height="4"/>
    <line fill="none" stroke="#A5A5A5" stroke-miterlimit="10" stroke-dasharray="2,2" x1="13" y1="53.5" x2="178" y2="53.5"/>
    <line fill="none" stroke="#D7D7D7" stroke-miterlimit="10" stroke-dasharray="2,2" x1="14" y1="264.5" x2="178.5" y2="264.5"/>

    <script type="text/javascript">
        <![CDATA[
            // try to get some info
            if(window.parent && window.parent.Wincor && window.parent.Wincor.UI && window.parent.Wincor.UI.Content) {
                let vm = window.parent.Wincor.UI.Content.ViewModelContainer.getById("flexMain");
                if(vm && vm.bankingContext && vm.bankingContext.dateTime) {
                    let dateTime = vm.bankingContext.dateTime;
                    let ko = window.parent.require('knockout');
                    document.getElementById("date").textContent = dateTime.date !== void 0 ? dateTime.date : "Date";
                    let text = ko.unwrap(vm.getLabel("GUI_[#VIEW_KEY#]_Headline", "DOCUMENT"));
                    document.getElementById("headline").textContent = text ? text.substring(0, 25) : "DOCUMENT";
                }
            }
        ]]>
    </script>
</svg>
