<?xml version="1.0" encoding="utf-8"?>
<!-- Generator: Adobe Illustrator 18.0.0, SVG Export Plug-In . SVG Version: 6.00 Build 0)  -->
<!DOCTYPE svg PUBLIC "-//W3C//DTD SVG 1.1//EN" "http://www.w3.org/Graphics/SVG/1.1/DTD/svg11.dtd">
<svg version="1.1" id="Layer_1" xmlns="http://www.w3.org/2000/svg" xmlns:xlink="http://www.w3.org/1999/xlink" x="0px" y="0px"
	 viewBox="0 0 498 300" enable-background="new 0 0 498 300" xml:space="preserve">
<g id="Ebene_2">
	<polygon fill="#FFFFFF" stroke="#275C68" stroke-miterlimit="10" points="244.655,3.838 61.761,127.068 61.582,295.768 
		430.379,295.768 430.581,126.969 	"/>
</g>
<polyline opacity="0.5" fill="none" stroke="#275C68"  points="61.761,127.068 244.586,3.511
	430.581,126.969 "/>
<polyline fill="#FFFFFF" stroke="#275C68" points="61.642,127.068 244.655,3.838 430.823,127.068 "/>
<rect x="72.394" y="150" opacity="0.2"  width="347.697" height="130"/>
<polyline fill="#FFFFFF" stroke="#275C68" points="63,126.625 219.373,214.849 63.582,295.768 "/>
<polyline fill="#FFFFFF" stroke="#275C68" points="429.816,126.401 280.772,216.65 429,295.768 "/>
<path fill="#FFFFFF" stroke="#275C68" d="M62.125,295.156c0,0,144.178-82.421,163.145-92.565
	c13.806-7.864,23.659-7.898,34.914-0.622c11.278,7.271,159.441,86.562,169.648,93.187"/>
<g id="Ebene_3">
	<line fill="none" stroke="#275C68" x1="62.466" y1="126.513" x2="429.816" y2="126.401"/>
</g>
</svg>
