<?xml version="1.0" encoding="utf-8"?>
<!-- Generator: Adobe Illustrator 18.0.0, SVG Export Plug-In . SVG Version: 6.00 Build 0)  -->
<!DOCTYPE svg PUBLIC "-//W3C//DTD SVG 1.1//EN" "http://www.w3.org/Graphics/SVG/1.1/DTD/svg11.dtd">
<svg version="1.1" id="Ebene_1" xmlns="http://www.w3.org/2000/svg" xmlns:xlink="http://www.w3.org/1999/xlink" x="0px" y="0px"
	 viewBox="0 0 300 498" enable-background="new 0 0 300 498" xml:space="preserve">
<polygon fill="#FFFFFF" stroke="#275C68" stroke-miterlimit="10" points="295.967,238.742 172.406,56.072 3.706,56.2 4.375,424.996 
	173.174,424.892 "/>
<polyline opacity="0.5" fill="none" stroke="#275C68"  points="172.406,56.072 296.294,238.673
	173.174,424.892 "/>
<polyline fill="#FFFFFF" stroke="#275C68" points="172.406,55.953 295.967,238.742 173.076,425.134 "/>
<polyline fill="#FFFFFF" stroke="#275C68" points="172.851,57.311 84.911,213.843 3.709,58.2 "/>
<polyline fill="#FFFFFF" stroke="#275C68" points="173.74,424.125 83.221,275.246 4.372,423.617 "/>
<path fill="#FFFFFF" stroke="#275C68" d="M4.318,56.741c0,0,82.682,144.028,92.86,162.977c7.889,13.792,7.941,23.645,0.685,34.913
	c-7.251,11.291-86.272,159.598-92.878,169.817"/>
<line fill="none" stroke="#275C68" x1="172.962" y1="56.776" x2="173.74" y2="424.125"/>
</svg>
