<?xml version="1.0" encoding="utf-8"?>
<!-- Generator: Adobe Illustrator 18.0.0, SVG Export Plug-In . SVG Version: 6.00 Build 0)  -->
<!DOCTYPE svg PUBLIC "-//W3C//DTD SVG 1.1//EN" "http://www.w3.org/Graphics/SVG/1.1/DTD/svg11.dtd">
<svg version="1.1" id="Layer" xmlns="http://www.w3.org/2000/svg" xmlns:xlink="http://www.w3.org/1999/xlink" x="0px" y="0px"
	 viewBox="0 0 45 45" enable-background="new 0 0 45 45" xml:space="preserve">
	<style type="text/css">
			@import "../default/default/svg.css";
	</style>
	 <script type="text/javascript">
         <![CDATA[
             if(window.parent && window.parent.Wincor && window.parent.Wincor.UI && window.parent.Wincor.UI.Content) {
                 let styleRes = window.parent.Wincor.UI.Content.StyleResourceResolver;
                 if(styleRes) {
                 	let style = document.getElementsByTagName("style")[0];
                   	style.innerHTML = style.innerHTML.replace("default/svg.css", styleRes.type() + "svg.css");
                    styleRes = null;
                 }
             }
         ]]>
    </script>
<g>
	<path class="shadowGroup1"  d="M22,27.9c-1.7-0.3-3-1.7-3-3.4c0-1.9,1.6-3.5,3.5-3.5c0.9,0,1.8,0.4,2.4,1h1.3
		c-0.8-1.2-2.2-2-3.7-2C20,20,18,22,18,24.5c0,2.3,1.7,4.2,4,4.4V27.9z"/>
	<polygon class="shadowGroup1"  points="40,29 40,34 4,34 4,17 40,17 40,22 41,22 41,16 3,16 3,35 41,35 41,29
			"/>
	<rect x="16" y="30" class="shadowGroup1"  width="13" height="1"/>
	<rect x="27" y="27" class="shadowGroup1"  width="15" height="1"/>
	<rect x="23" y="25" class="shadowGroup1"  width="23" height="1"/>
	<rect x="25" y="23" class="shadowGroup1"  width="19" height="1"/>
	<path class="shadowGroup1"  d="M5,18v15h34v-4h-0.7c-0.4-0.4-0.9-0.6-1.6-0.6c-1.3,0-2.3,1-2.3,2.3
		c0,0.5,0.1,0.9,0.4,1.3H9.2c0.2-0.4,0.4-0.8,0.4-1.3c0-1.3-1-2.3-2.3-2.3c-0.5,0-0.9,0.1-1.3,0.4v-6.6c0.4,0.2,0.8,0.4,1.3,0.4
		c1.3,0,2.3-1,2.3-2.3c0-0.5-0.1-0.9-0.4-1.3h25.6c-0.2,0.4-0.4,0.8-0.4,1.3c0,1.3,1,2.3,2.3,2.3c0.6,0,1.2-0.2,1.6-0.6H39v-4H5z"/>
</g>
<g>
	<path class="shadowGroup2"  d="M21,26.9c-1.7-0.3-3-1.7-3-3.4c0-1.9,1.6-3.5,3.5-3.5c0.9,0,1.8,0.4,2.4,1h1.3
		c-0.8-1.2-2.2-2-3.7-2C19,19,17,21,17,23.5c0,2.3,1.7,4.2,4,4.4V26.9z"/>
	<polygon class="shadowGroup2"  points="39,28 39,33 3,33 3,16 39,16 39,21 40,21 40,15 2,15 2,34 40,34 40,28
			"/>
	<rect x="15" y="29" class="shadowGroup2"  width="13" height="1"/>
	<rect x="26" y="26" class="shadowGroup2"  width="15" height="1"/>
	<rect x="22" y="24" class="shadowGroup2"  width="23" height="1"/>
	<rect x="24" y="22" class="shadowGroup2"  width="19" height="1"/>
	<path class="shadowGroup2"  d="M4,17v15h34v-4h-0.7c-0.4-0.4-0.9-0.6-1.6-0.6c-1.3,0-2.3,1-2.3,2.3
		c0,0.5,0.1,0.9,0.4,1.3H8.2c0.2-0.4,0.4-0.8,0.4-1.3c0-1.3-1-2.3-2.3-2.3c-0.5,0-0.9,0.1-1.3,0.4v-6.6c0.4,0.2,0.8,0.4,1.3,0.4
		c1.3,0,2.3-1,2.3-2.3c0-0.5-0.1-0.9-0.4-1.3h25.6c-0.2,0.4-0.4,0.8-0.4,1.3c0,1.3,1,2.3,2.3,2.3c0.6,0,1.2-0.2,1.6-0.6H38v-4H4z"/>
</g>
<g>
	<path class="shadowGroup3"  d="M20,25.9c-1.7-0.3-3-1.7-3-3.4c0-1.9,1.6-3.5,3.5-3.5c0.9,0,1.8,0.4,2.4,1h1.3
		c-0.8-1.2-2.2-2-3.7-2C18,18,16,20,16,22.5c0,2.3,1.7,4.2,4,4.4V25.9z"/>
	<polygon class="shadowGroup3"  points="38,27 38,32 2,32 2,15 38,15 38,20 39,20 39,14 1,14 1,33 39,33 39,27
			"/>
	<rect x="14" y="28" class="shadowGroup3"  width="13" height="1"/>
	<rect x="25" y="25" class="shadowGroup3"  width="15" height="1"/>
	<rect x="21" y="23" class="shadowGroup3"  width="23" height="1"/>
	<rect x="23" y="21" class="shadowGroup3"  width="19" height="1"/>
	<path class="shadowGroup3"  d="M3,16v15h34v-4h-0.7c-0.4-0.4-0.9-0.6-1.6-0.6c-1.3,0-2.3,1-2.3,2.3
		c0,0.5,0.1,0.9,0.4,1.3H7.2c0.2-0.4,0.4-0.8,0.4-1.3c0-1.3-1-2.3-2.3-2.3c-0.5,0-0.9,0.1-1.3,0.4v-6.6c0.4,0.2,0.8,0.4,1.3,0.4
		c1.3,0,2.3-1,2.3-2.3c0-0.5-0.1-0.9-0.4-1.3h25.6c-0.2,0.4-0.4,0.8-0.4,1.3c0,1.3,1,2.3,2.3,2.3c0.6,0,1.2-0.2,1.6-0.6H37v-4H3z"/>
</g>
<g>
	<path class="fillColor" d="M19,24.9c-1.7-0.3-3-1.7-3-3.4c0-1.9,1.6-3.5,3.5-3.5c0.9,0,1.8,0.4,2.4,1h1.3c-0.8-1.2-2.2-2-3.7-2
		C17,17,15,19,15,21.5c0,2.3,1.7,4.2,4,4.4V24.9z"/>
	<polygon class="fillColor" points="37,26 37,31 1,31 1,14 37,14 37,19 38,19 38,13 0,13 0,32 38,32 38,26 	"/>
	<rect x="13" y="27" class="fillColor" width="13" height="1"/>
	<rect x="24" y="24" class="fillColor" width="15" height="1"/>
	<rect x="20" y="22" class="fillColor" width="23" height="1"/>
	<rect x="22" y="20" class="fillColor" width="19" height="1"/>
	<path class="fillColor" d="M2,15v15h34v-4h-0.7c-0.4-0.4-0.9-0.6-1.6-0.6c-1.3,0-2.3,1-2.3,2.3c0,0.5,0.1,0.9,0.4,1.3H6.2
		c0.2-0.4,0.4-0.8,0.4-1.3c0-1.3-1-2.3-2.3-2.3c-0.5,0-0.9,0.1-1.3,0.4v-6.6c0.4,0.2,0.8,0.4,1.3,0.4c1.3,0,2.3-1,2.3-2.3
		c0-0.5-0.1-0.9-0.4-1.3h25.6c-0.2,0.4-0.4,0.8-0.4,1.3c0,1.3,1,2.3,2.3,2.3c0.6,0,1.2-0.2,1.6-0.6H36v-4H2z"/>
</g>
</svg>
