<?xml version="1.0" encoding="utf-8"?>
<!-- Generator: Adobe Illustrator 21.1.0, SVG Export Plug-In . SVG Version: 6.00 Build 0)  -->
<svg version="1.1" id="flip-image" xmlns="http://www.w3.org/2000/svg" xmlns:xlink="http://www.w3.org/1999/xlink" x="0px" y="0px"
	 viewBox="0 0 45 45" style="enable-background:new 0 0 45 45;" xml:space="preserve">

    <style type="text/css">
        @import "../default/default/svg.css";
    </style>
    <script  type="text/javascript">
        <![CDATA[
                 if(window.parent && window.parent.Wincor && window.parent.Wincor.UI && window.parent.Wincor.UI.Content) {
                     let styleRes = window.parent.Wincor.UI.Content.StyleResourceResolver;
                     if(styleRes) {
                        let style = document.getElementsByTagName("style")[0];
                        if(style.innerHTML) {
                            style.innerHTML = style.innerHTML.replace("default/svg.css", styleRes.type() + "svg.css");
                        }
                        else {
                            style.textContent = style.textContent.replace("default/svg.css", styleRes.type() + "svg.css");
                        }
                        styleRes = null;
                     }
                 }
            ]]>
    </script>
<g class="shadowGroup1">
	<rect x="5.5" y="36.5" style="fill:none;stroke:#000000;stroke-width:1;stroke-miterlimit:10;" width="11.9" height="5.4"/>
	<line style="fill:none;stroke:#000000;stroke-width:1;stroke-miterlimit:10;" x1="10.9" y1="5.7" x2="10.9" y2="30.4"/>
	<path d="M10.9,30.4"/>
	<line style="fill:none;stroke:#000000;stroke-width:1;stroke-miterlimit:10;" x1="16" y1="25.7" x2="10.9" y2="30.4"/>
	<line style="fill:none;stroke:#000000;stroke-width:1;stroke-miterlimit:10;" x1="10.9" y1="30.4" x2="5.5" y2="25.7"/>
	<path style="fill:none;stroke:#000000;stroke-width:1;stroke-miterlimit:10;" d="M16,25.7"/>
	<path style="fill:none;stroke:#000000;stroke-width:1;stroke-miterlimit:10;" d="M5.5,25.7"/>
	<line style="fill:none;stroke:#000000;stroke-width:1;stroke-miterlimit:10;" x1="34.9" y1="14.9" x2="34.9" y2="36.1"/>
	<line style="fill:none;stroke:#000000;stroke-width:1;stroke-miterlimit:10;" x1="34.9" y1="20.1" x2="34.9" y2="44.1"/>
	<path style="fill:none;stroke:#000000;stroke-width:1;stroke-miterlimit:10;" d="M35,41.5"/>
	<line style="fill:none;stroke:#000000;stroke-width:1;stroke-miterlimit:10;" x1="40" y1="20.4" x2="34.9" y2="14.9"/>
	<line style="fill:none;stroke:#000000;stroke-width:1;stroke-miterlimit:10;" x1="34.9" y1="14.9" x2="29.5" y2="20.4"/>
	<path style="fill:none;stroke:#000000;stroke-width:1;stroke-miterlimit:10;" d="M40,18.7"/>
	<path style="fill:none;stroke:#000000;stroke-width:1;stroke-miterlimit:10;" d="M29.5,20.4"/>
	<line style="fill:none;stroke:#000000;stroke-width:1;stroke-miterlimit:10;" x1="10.9" y1="5" x2="10.9" y2="29"/>
	<rect x="28.5" y="3.8" style="fill:none;stroke:#000000;stroke-width:1;stroke-miterlimit:10;" width="11.9" height="5.4"/>
	<line style="fill:none;stroke:#000000;stroke-width:1;stroke-miterlimit:10;" x1="11.5" y1="5" x2="11.5" y2="29"/>
	<line style="fill:none;stroke:#000000;stroke-width:1;stroke-miterlimit:10;" x1="34.5" y1="16.1" x2="34.5" y2="44.1"/>
	<line style="fill:none;stroke:#000000;stroke-width:1;stroke-miterlimit:10;" x1="11.5" y1="29" x2="15.7" y2="25"/>
	<line style="fill:none;stroke:#000000;stroke-width:1;stroke-miterlimit:10;" x1="34.5" y1="16.1" x2="30.1" y2="20.8"/>
</g>
<g class="shadowGroup2">
	<rect x="4.5" y="35.5" style="fill:none;stroke:#000000;stroke-width:1;stroke-miterlimit:10;" width="11.9" height="5.4"/>
	<line style="fill:none;stroke:#000000;stroke-width:1;stroke-miterlimit:10;" x1="9.9" y1="4.7" x2="9.9" y2="29.4"/>
	<path d="M9.9,29.4"/>
	<line style="fill:none;stroke:#000000;stroke-width:1;stroke-miterlimit:10;" x1="15" y1="24.7" x2="9.9" y2="29.4"/>
	<line style="fill:none;stroke:#000000;stroke-width:1;stroke-miterlimit:10;" x1="9.9" y1="29.4" x2="4.5" y2="24.7"/>
	<path style="fill:none;stroke:#000000;stroke-width:1;stroke-miterlimit:10;" d="M15,24.7"/>
	<path style="fill:none;stroke:#000000;stroke-width:1;stroke-miterlimit:10;" d="M4.5,24.7"/>
	<line style="fill:none;stroke:#000000;stroke-width:1;stroke-miterlimit:10;" x1="33.9" y1="13.9" x2="33.9" y2="35.1"/>
	<line style="fill:none;stroke:#000000;stroke-width:1;stroke-miterlimit:10;" x1="33.9" y1="19.1" x2="33.9" y2="43.1"/>
	<path style="fill:none;stroke:#000000;stroke-width:1;stroke-miterlimit:10;" d="M34,40.5"/>
	<line style="fill:none;stroke:#000000;stroke-width:1;stroke-miterlimit:10;" x1="39" y1="19.4" x2="33.9" y2="13.9"/>
	<line style="fill:none;stroke:#000000;stroke-width:1;stroke-miterlimit:10;" x1="33.9" y1="13.9" x2="28.5" y2="19.4"/>
	<path style="fill:none;stroke:#000000;stroke-width:1;stroke-miterlimit:10;" d="M39,17.7"/>
	<path style="fill:none;stroke:#000000;stroke-width:1;stroke-miterlimit:10;" d="M28.5,19.4"/>
	<line style="fill:none;stroke:#000000;stroke-width:1;stroke-miterlimit:10;" x1="9.9" y1="4" x2="9.9" y2="28"/>
	<rect x="27.5" y="2.8" style="fill:none;stroke:#000000;stroke-width:1;stroke-miterlimit:10;" width="11.9" height="5.4"/>
	<line style="fill:none;stroke:#000000;stroke-width:1;stroke-miterlimit:10;" x1="10.5" y1="4" x2="10.5" y2="28"/>
	<line style="fill:none;stroke:#000000;stroke-width:1;stroke-miterlimit:10;" x1="33.5" y1="15.1" x2="33.5" y2="43.1"/>
	<line style="fill:none;stroke:#000000;stroke-width:1;stroke-miterlimit:10;" x1="10.5" y1="28" x2="14.7" y2="24"/>
	<line style="fill:none;stroke:#000000;stroke-width:1;stroke-miterlimit:10;" x1="33.5" y1="15.1" x2="29.1" y2="19.8"/>
</g>
<g class="shadowGroup3">
	<rect x="3.5" y="34.5" style="fill:none;stroke:#000000;stroke-width:1;stroke-miterlimit:10;" width="11.9" height="5.4"/>
	<line style="fill:none;stroke:#000000;stroke-width:1;stroke-miterlimit:10;" x1="8.9" y1="3.7" x2="8.9" y2="28.4"/>
	<path style="fill:none;stroke:#000000;stroke-width:1;stroke-miterlimit:10;" d="M8.9,28.4"/>
	<line style="fill:none;stroke:#000000;stroke-width:1;stroke-miterlimit:10;" x1="14" y1="23.7" x2="8.9" y2="28.4"/>
	<line style="fill:none;stroke:#000000;stroke-width:1;stroke-miterlimit:10;" x1="8.9" y1="28.4" x2="3.5" y2="23.7"/>
	<path style="fill:none;stroke:#000000;stroke-width:1;stroke-miterlimit:10;" d="M14,23.7"/>
	<path d="M3.5,23.7"/>
	<line style="fill:none;stroke:#000000;stroke-width:1;stroke-miterlimit:10;" x1="32.9" y1="12.9" x2="32.9" y2="34.1"/>
	<line style="fill:none;stroke:#000000;stroke-width:1;stroke-miterlimit:10;" x1="32.9" y1="18.1" x2="32.9" y2="42.1"/>
	<path style="fill:none;stroke:#000000;stroke-width:1;stroke-miterlimit:10;" d="M33,39.5"/>
	<line style="fill:none;stroke:#000000;stroke-width:1;stroke-miterlimit:10;" x1="38" y1="18.4" x2="32.9" y2="12.9"/>
	<line style="fill:none;stroke:#000000;stroke-width:1;stroke-miterlimit:10;" x1="32.9" y1="12.9" x2="27.5" y2="18.4"/>
	<path style="fill:none;stroke:#000000;stroke-width:1;stroke-miterlimit:10;" d="M38,16.7"/>
	<path style="fill:none;stroke:#000000;stroke-width:1;stroke-miterlimit:10;" d="M27.5,18.4"/>
	<line style="fill:none;stroke:#000000;stroke-width:1;stroke-miterlimit:10;" x1="8.9" y1="3" x2="8.9" y2="27"/>
	<rect x="26.5" y="1.8" style="fill:none;stroke:#000000;stroke-width:1;stroke-miterlimit:10;" width="11.9" height="5.4"/>
	<line style="fill:none;stroke:#000000;stroke-width:1;stroke-miterlimit:10;" x1="9.5" y1="3" x2="9.5" y2="27"/>
	<line style="fill:none;stroke:#000000;stroke-width:1;stroke-miterlimit:10;" x1="32.5" y1="14.1" x2="32.5" y2="42.1"/>
	<line style="fill:none;stroke:#000000;stroke-width:1;stroke-miterlimit:10;" x1="9.5" y1="27" x2="13.7" y2="23"/>
	<line style="fill:none;stroke:#000000;stroke-width:1;stroke-miterlimit:10;" x1="32.5" y1="14.1" x2="28.1" y2="18.8"/>
</g>
<g>
	<rect x="2.5" y="33.5" class="strokeColor" style="stroke-width:1;stroke-miterlimit:10;" width="11.9" height="5.4"/>
	<line class="strokeColor" style="stroke-width:1;stroke-miterlimit:10;" x1="7.9" y1="2.7" x2="7.9" y2="27.4"/>
	<path class="strokeColor" style="stroke-width:1;stroke-miterlimit:10;" d="M7.9,27.4"/>
	<line class="strokeColor" style="stroke-width:1;stroke-miterlimit:10;" x1="13" y1="22.7" x2="7.9" y2="27.4"/>
	<line class="strokeColor" style="stroke-width:1;stroke-miterlimit:10;" x1="7.9" y1="27.4" x2="2.5" y2="22.7"/>
	<path class="strokeColor" style="stroke-width:1;stroke-miterlimit:10;" d="M13,22.7"/>
	<path d="M2.5,22.7"/>
	<line class="strokeColor" style="stroke-width:1;stroke-miterlimit:10;" x1="31.9" y1="11.9" x2="31.9" y2="33.1"/>
	<line class="strokeColor" style="stroke-width:1;stroke-miterlimit:10;" x1="31.9" y1="17.1" x2="31.9" y2="41.1"/>
	<path class="strokeColor" style="stroke-width:1;stroke-miterlimit:10;" d="M32,38.5"/>
	<line class="strokeColor" style="stroke-width:1;stroke-miterlimit:10;" x1="37" y1="17.4" x2="31.9" y2="11.9"/>
	<line class="strokeColor" style="stroke-width:1;stroke-miterlimit:10;" x1="31.9" y1="11.9" x2="26.5" y2="17.4"/>
	<path class="strokeColor" style="stroke-width:1;stroke-miterlimit:10;" d="M37,15.7"/>
	<path class="strokeColor" style="stroke-width:1;stroke-miterlimit:10;" d="M26.5,17.4"/>
	<line class="strokeColor" style="stroke-width:1;stroke-miterlimit:10;" x1="7.9" y1="2" x2="7.9" y2="26"/>
	<rect x="25.5" y="0.8" class="strokeColor" style="stroke-width:1;stroke-miterlimit:10;" width="11.9" height="5.4"/>
	<line class="strokeColor" style="stroke-width:1;stroke-miterlimit:10;" x1="8.5" y1="2" x2="8.5" y2="26"/>
	<line class="strokeColor" style="stroke-width:1;stroke-miterlimit:10;" x1="31.5" y1="13.1" x2="31.5" y2="41.1"/>
	<line class="strokeColor" style="stroke-width:1;stroke-miterlimit:10;" x1="8.5" y1="26" x2="12.7" y2="22"/>
	<line class="strokeColor" style="stroke-width:1;stroke-miterlimit:10;" x1="31.5" y1="13.1" x2="27.1" y2="17.8"/>
</g>
</svg>
