<?xml version="1.0" encoding="utf-8"?>
<!-- Generator: Adobe Illustrator 23.0.2, SVG Export Plug-In . SVG Version: 6.00 Build 0)  -->
<svg version="1.1" id="gesture-double-tap" xmlns="http://www.w3.org/2000/svg" xmlns:xlink="http://www.w3.org/1999/xlink" x="0px" y="0px"
	 viewBox="0 0 45 45" enable-background="new 0 0 45 45" xml:space="preserve">

    <style type="text/css">
		@import "../default/default/svg.css";
	</style>
	<script  type="text/javascript">
	<![CDATA[
				 if(window.parent && window.parent.Wincor && window.parent.Wincor.UI && window.parent.Wincor.UI.Content) {
					 let styleRes = window.parent.Wincor.UI.Content.StyleResourceResolver;
					 if(styleRes) {
						let style = document.getElementsByTagName("style")[0];
						style.innerHTML = style.innerHTML.replace("default/svg.css", styleRes.type() + "svg.css");
						styleRes = null;
					 }
				 }
		]]>
</script>
<g class="shadowGroup1">
	<path d="M31.7,24.4c-0.4,0-0.7,0.2-1,0.4c0-1.4-0.9-2.4-2.1-2.3c-0.6,0-1.1,0.3-1.6,0.8c-0.2-1.1-1-1.7-2-1.7
		c-0.6,0-1.2,0.4-1.6,0.9l0.1-9.2c0-2.4-1.2-2.6-1.8-2.6c-1.3,0.1-2.1,1.3-2.3,2.9l-0.8,15.7c-0.1,0.3,0.2,0.5,0.4,0.5
		c0.2,0,0.5-0.4,0.5-0.6l0.8-15.7c0.1-0.8,0.5-1.7,1.3-1.8c0.2,0,1,0,1,1.7l0.1,11.2c0,0.2,0.2,0.5,0.5,0.5c0.2,0,0.4-0.3,0.5-0.6
		c0.1-0.9,0.8-1.7,1.6-1.8c0.8-0.1,1.3,0.6,1.3,1.6l-0.1,1.1c-0.1,0.3,0.2,0.5,0.4,0.5c0.2,0,0.5-0.2,0.5-0.6
		c0.1-0.9,0.8-1.7,1.6-1.8c0.8-0.1,1.3,0.6,1.3,1.6l-0.1,1.7c-0.1,0.3,0.2,0.5,0.4,0.5c0.2,0,0.5-0.2,0.5-0.6c0-0.6,0.5-1.1,1-1.2
		c0.5,0,0.8,0.5,0.8,1.1L32,34c-0.2,2.4-0.7,3.7-1.3,5.1c-0.4,1-0.8,2-1.1,3.5l-10.2,0.8c-0.3-2.7-1.2-5.8-2.7-9.5
		c-0.2-0.4-0.3-0.8-0.5-1.2c-0.4-1-0.4-2.3,0.1-3.2c0.2-0.4,0.6-1,1.3-1c0.2,0,0.5-0.2,0.5-0.6c0.1-0.3-0.2-0.5-0.4-0.5
		c-0.9,0.1-1.6,0.7-2.2,1.6c-0.7,1.3-0.8,3-0.2,4.4c0.1,0.4,0.3,0.8,0.5,1.1c1.4,3.5,2.2,6.7,2.4,9.4c0,0.2,0.2,0.4,0.4,0.4l11-0.8
		c0.2,0,0.5-0.2,0.5-0.5c0.3-1.6,0.8-2.7,1.2-3.7c0.5-1.4,1.1-2.8,1.4-5.4l0.6-7.4C33.4,25.3,32.7,24.3,31.7,24.4z"/>
	<path class="strokeColor04" stroke-miterlimit="10" d="M28,15.7"/>
	<line class="strokeColor04" stroke-miterlimit="10" x1="18.5" y1="7" x2="18.5" y2="7"/>
	<line class="strokeColor04" stroke-miterlimit="10" x1="16.2" y1="8.6" x2="16.2" y2="8.6"/>
	<line class="strokeColor04" stroke-miterlimit="10" x1="19.7" y1="14.8" x2="19.7" y2="14.8"/>
	<path class="strokeColor04" style="stroke-linecap:round;stroke-linejoin:round;" d="M27.5,19.9c0.9-1.4,1.4-3.2,1.3-5c-0.2-4.4-3.6-7.9-7.4-7.6c-3.9,0.2-6.8,4-6.6,8.4c0.1,1.9,0.8,3.6,1.8,4.9"/>
	<path class="strokeColor04" style="stroke-linecap:round;stroke-linejoin:round;" d="M29.5,21.4c1.2-1.9,1.9-4.1,1.7-6.6C31,9,26.4,4.6,21.1,4.8c-5.3,0.3-9.3,5.2-9,11c0.1,2.5,1,4.7,2.4,6.4"/>
</g>
<g class="shadowGroup2">
	<path d="M30.7,23.4c-0.4,0-0.7,0.2-1,0.4c0-1.4-0.9-2.4-2.1-2.3c-0.6,0-1.1,0.3-1.6,0.8c-0.2-1.1-1-1.7-2-1.7
		c-0.6,0-1.2,0.4-1.6,0.9l0.1-9.2c0-2.4-1.2-2.6-1.8-2.6c-1.3,0.1-2.1,1.3-2.3,2.9l-0.8,15.7c-0.1,0.3,0.2,0.5,0.4,0.5
		c0.2,0,0.5-0.4,0.5-0.6l0.8-15.7c0.1-0.8,0.5-1.7,1.3-1.8c0.2,0,1,0,1,1.7l0.1,11.2c0,0.2,0.2,0.5,0.5,0.5c0.2,0,0.4-0.3,0.5-0.6
		c0.1-0.9,0.8-1.7,1.6-1.8c0.8-0.1,1.3,0.6,1.3,1.6l-0.1,1.1c-0.1,0.3,0.2,0.5,0.4,0.5c0.2,0,0.5-0.2,0.5-0.6
		c0.1-0.9,0.8-1.7,1.6-1.8c0.8-0.1,1.3,0.6,1.3,1.6l-0.1,1.7c-0.1,0.3,0.2,0.5,0.4,0.5c0.2,0,0.5-0.2,0.5-0.6c0-0.6,0.5-1.1,1-1.2
		c0.5,0,0.8,0.5,0.8,1.1L31,33c-0.2,2.4-0.7,3.7-1.3,5.1c-0.4,1-0.8,2-1.1,3.5l-10.2,0.8c-0.3-2.7-1.2-5.8-2.7-9.5
		c-0.2-0.4-0.3-0.8-0.5-1.2c-0.4-1-0.4-2.3,0.1-3.2c0.2-0.4,0.6-1,1.3-1c0.2,0,0.5-0.2,0.5-0.6c0.1-0.3-0.2-0.5-0.4-0.5
		c-0.9,0.1-1.6,0.7-2.2,1.6c-0.7,1.3-0.8,3-0.2,4.4c0.1,0.4,0.3,0.8,0.5,1.1c1.4,3.5,2.2,6.7,2.4,9.4c0,0.2,0.2,0.4,0.4,0.4l11-0.8
		c0.2,0,0.5-0.2,0.5-0.5c0.3-1.6,0.8-2.7,1.2-3.7c0.5-1.4,1.1-2.8,1.4-5.4l0.6-7.4C32.4,24.3,31.7,23.3,30.7,23.4z"/>
	<path class="strokeColor04" stroke-miterlimit="10" d="M27,14.7"/>
	<line class="strokeColor04" stroke-miterlimit="10" x1="17.5" y1="6" x2="17.5" y2="6"/>
	<line class="strokeColor04" stroke-miterlimit="10" x1="15.2" y1="7.6" x2="15.2" y2="7.6"/>
	<line class="strokeColor04" stroke-miterlimit="10" x1="18.7" y1="13.8" x2="18.7" y2="13.8"/>
	<path class="strokeColor04" style="stroke-linecap:round;stroke-linejoin:round;" d="M26.5,18.9c0.9-1.4,1.4-3.2,1.3-5c-0.2-4.4-3.6-7.9-7.4-7.6c-3.9,0.2-6.8,4-6.6,8.4c0.1,1.9,0.8,3.6,1.8,4.9"/>
	<path class="strokeColor04" style="stroke-linecap:round;stroke-linejoin:round;" d="M28.5,20.4c1.2-1.9,1.9-4.1,1.7-6.6C30,8,25.4,3.6,20.1,3.8c-5.3,0.3-9.3,5.2-9,11c0.1,2.5,1,4.7,2.4,6.4"/>
</g>
<g class="shadowGroup3">
	<path d="M29.7,22.4c-0.4,0-0.7,0.2-1,0.4c0-1.4-0.9-2.4-2.1-2.3c-0.6,0-1.1,0.3-1.6,0.8c-0.2-1.1-1-1.7-2-1.7
		c-0.6,0-1.2,0.4-1.6,0.9l0.1-9.2c0-2.4-1.2-2.6-1.8-2.6c-1.3,0.1-2.1,1.3-2.3,2.9l-0.8,15.7c-0.1,0.3,0.2,0.5,0.4,0.5
		c0.2,0,0.5-0.4,0.5-0.6l0.8-15.7c0.1-0.8,0.5-1.7,1.3-1.8c0.2,0,1,0,1,1.7l0.1,11.2c0,0.2,0.2,0.5,0.5,0.5c0.2,0,0.4-0.3,0.5-0.6
		c0.1-0.9,0.8-1.7,1.6-1.8c0.8-0.1,1.3,0.6,1.3,1.6l-0.1,1.1c-0.1,0.3,0.2,0.5,0.4,0.5c0.2,0,0.5-0.2,0.5-0.6
		c0.1-0.9,0.8-1.7,1.6-1.8c0.8-0.1,1.3,0.6,1.3,1.6l-0.1,1.7c-0.1,0.3,0.2,0.5,0.4,0.5c0.2,0,0.5-0.2,0.5-0.6c0-0.6,0.5-1.1,1-1.2
		c0.5,0,0.8,0.5,0.8,1.1L30,32c-0.2,2.4-0.7,3.7-1.3,5.1c-0.4,1-0.8,2-1.1,3.5l-10.2,0.8c-0.3-2.7-1.2-5.8-2.7-9.5
		c-0.2-0.4-0.3-0.8-0.5-1.2c-0.4-1-0.4-2.3,0.1-3.2c0.2-0.4,0.6-1,1.3-1c0.2,0,0.5-0.2,0.5-0.6c0.1-0.3-0.2-0.5-0.4-0.5
		c-0.9,0.1-1.6,0.7-2.2,1.6c-0.7,1.3-0.8,3-0.2,4.4c0.1,0.4,0.3,0.8,0.5,1.1c1.4,3.5,2.2,6.7,2.4,9.4c0,0.2,0.2,0.4,0.4,0.4l11-0.8
		c0.2,0,0.5-0.2,0.5-0.5c0.3-1.6,0.8-2.7,1.2-3.7c0.5-1.4,1.1-2.8,1.4-5.4l0.6-7.4C31.4,23.3,30.7,22.3,29.7,22.4z"/>
	<path class="strokeColor04" stroke-miterlimit="10" d="M26,13.7"/>
	<line class="strokeColor04" stroke-miterlimit="10" x1="16.5" y1="5" x2="16.5" y2="5"/>
	<line class="strokeColor04" stroke-miterlimit="10" x1="14.2" y1="6.6" x2="14.2" y2="6.6"/>
	<line class="strokeColor04" stroke-miterlimit="10" x1="17.7" y1="12.8" x2="17.7" y2="12.8"/>
	<path class="strokeColor04" style="stroke-linecap:round;stroke-linejoin:round;" d="M25.5,17.9c0.9-1.4,1.4-3.2,1.3-5c-0.2-4.4-3.6-7.9-7.4-7.6c-3.9,0.2-6.8,4-6.6,8.4c0.1,1.9,0.8,3.6,1.8,4.9"/>
	<path class="strokeColor04" style="stroke-linecap:round;stroke-linejoin:round;" d="M27.5,19.4c1.2-1.9,1.9-4.1,1.7-6.6C29,7,24.4,2.6,19.1,2.8c-5.3,0.3-9.3,5.2-9,11c0.1,2.5,1,4.7,2.4,6.4"/>
</g>
<g>
	<path class="fillColor" d="M28.7,21.4c-0.4,0-0.7,0.2-1,0.4c0-1.4-0.9-2.4-2.1-2.3c-0.6,0-1.1,0.3-1.6,0.8c-0.2-1.1-1-1.7-2-1.7
		c-0.6,0-1.2,0.4-1.6,0.9l0.1-9.2c0-2.4-1.2-2.6-1.8-2.6c-1.3,0.1-2.1,1.3-2.3,2.9l-0.8,15.7c-0.1,0.3,0.2,0.5,0.4,0.5
		s0.5-0.4,0.5-0.6l0.8-15.7c0.1-0.8,0.5-1.7,1.3-1.8c0.2,0,1,0,1,1.7l0.1,11.2c0,0.2,0.2,0.5,0.5,0.5c0.2,0,0.4-0.3,0.5-0.6
		c0.1-0.9,0.8-1.7,1.6-1.8c0.8-0.1,1.3,0.6,1.3,1.6l-0.1,1.1c-0.1,0.3,0.2,0.5,0.4,0.5c0.2,0,0.5-0.2,0.5-0.6
		c0.1-0.9,0.8-1.7,1.6-1.8c0.8-0.1,1.3,0.6,1.3,1.6l-0.1,1.7c-0.1,0.3,0.2,0.5,0.4,0.5c0.2,0,0.5-0.2,0.5-0.6c0-0.6,0.5-1.1,1-1.2
		c0.5,0,0.8,0.5,0.8,1.1L29,31c-0.2,2.4-0.7,3.7-1.3,5.1c-0.4,1-0.8,2-1.1,3.5l-10.2,0.8c-0.3-2.7-1.2-5.8-2.7-9.5
		c-0.2-0.4-0.3-0.8-0.5-1.2c-0.4-1-0.4-2.3,0.1-3.2c0.2-0.4,0.6-1,1.3-1c0.2,0,0.5-0.2,0.5-0.6c0.1-0.3-0.2-0.5-0.4-0.5
		c-0.9,0.1-1.6,0.7-2.2,1.6c-0.7,1.3-0.8,3-0.2,4.4c0.1,0.4,0.3,0.8,0.5,1.1c1.4,3.5,2.2,6.7,2.4,9.4c0,0.2,0.2,0.4,0.4,0.4l11-0.8
		c0.2,0,0.5-0.2,0.5-0.5c0.3-1.6,0.8-2.7,1.2-3.7c0.5-1.4,1.1-2.8,1.4-5.4l0.6-7.4C30.4,22.3,29.7,21.3,28.7,21.4z"/>
	<path class="strokeColor" stroke-miterlimit="10" d="M25,12.7"/>
	<line class="strokeColor"  stroke-miterlimit="10" x1="15.5" y1="4" x2="15.5" y2="4"/>
	<line class="strokeColor"  stroke-miterlimit="10" x1="13.2" y1="5.6" x2="13.2" y2="5.6"/>
	<line class="strokeColor"  stroke-miterlimit="10" x1="16.7" y1="11.8" x2="16.7" y2="11.8"/>
	<path class="strokeColor" style="stroke-linecap:round;stroke-linejoin:round;" d="M24.5,16.9c0.9-1.4,1.4-3.2,1.3-5c-0.2-4.4-3.6-7.9-7.4-7.6c-3.9,0.2-6.8,4-6.6,8.4c0.1,1.9,0.8,3.6,1.8,4.9"/>
	<path class="strokeColor" style="stroke-linecap:round;stroke-linejoin:round;" d="M26.5,18.4c1.2-1.9,1.9-4.1,1.7-6.6C28,6,23.4,1.6,18.1,1.8c-5.3,0.3-9.3,5.2-9,11c0.1,2.5,1,4.7,2.4,6.4"/>
</g>
</svg>
