<?xml version="1.0" encoding="utf-8"?>
<!-- Generator: Adobe Illustrator 17.1.0, SVG Export Plug-In . SVG Version: 6.00 Build 0)  -->
<!DOCTYPE svg PUBLIC "-//W3C//DTD SVG 1.1//EN" "http://www.w3.org/Graphics/SVG/1.1/DTD/svg11.dtd">
<svg version="1.1" id="Layer_1" xmlns="http://www.w3.org/2000/svg" xmlns:xlink="http://www.w3.org/1999/xlink" x="0px" y="0px"
	 viewBox="0 0 88 44" enable-background="new 0 0 88 44" xml:space="preserve">
<path fill="#FFFFFF" d="M87,1v42H1V1H87 M88,0H0v44h88V0L88,0z"/>
<g>
	<path fill="#FFFFFF" d="M34,13.5h0.6v6.2H34V13.5z"/>
	<path fill="#FFFFFF" d="M38.8,19.9c-0.4,0-0.8-0.1-1.1-0.2c-0.3-0.1-0.6-0.4-0.9-0.6s-0.5-0.6-0.6-1c-0.1-0.4-0.2-0.9-0.2-1.4
		s0.1-1,0.2-1.4c0.2-0.4,0.4-0.7,0.6-1c0.3-0.3,0.6-0.5,0.9-0.6c0.3-0.1,0.7-0.2,1.1-0.2c0.2,0,0.4,0,0.6,0c0.2,0,0.4,0.1,0.5,0.1
		s0.3,0.1,0.4,0.1c0.1,0,0.2,0.1,0.2,0.1l-0.2,0.5c-0.1-0.1-0.3-0.2-0.6-0.3s-0.5-0.1-0.9-0.1c-0.4,0-0.7,0.1-1,0.2
		c-0.3,0.1-0.5,0.3-0.7,0.6c-0.2,0.2-0.3,0.5-0.4,0.9s-0.1,0.7-0.1,1.1c0,0.4,0,0.8,0.1,1.1s0.2,0.6,0.4,0.9s0.4,0.4,0.7,0.5
		c0.3,0.1,0.6,0.2,1,0.2c0.4,0,0.7,0,1-0.1c0.3-0.1,0.5-0.2,0.6-0.2l0.2,0.5c0,0-0.1,0.1-0.2,0.1c-0.1,0-0.2,0.1-0.4,0.1
		c-0.2,0-0.3,0.1-0.5,0.1C39.3,19.8,39.1,19.9,38.8,19.9z"/>
	<path fill="#FFFFFF" d="M47.3,16.6c0,0.5-0.1,1-0.2,1.4s-0.4,0.7-0.6,1s-0.6,0.5-0.9,0.6c-0.4,0.1-0.7,0.2-1.1,0.2
		s-0.8-0.1-1.1-0.2c-0.4-0.1-0.7-0.3-0.9-0.6c-0.3-0.3-0.5-0.6-0.6-1c-0.2-0.4-0.2-0.9-0.2-1.4c0-0.5,0.1-1,0.2-1.4
		c0.2-0.4,0.4-0.7,0.6-1c0.3-0.3,0.6-0.5,0.9-0.6c0.4-0.1,0.7-0.2,1.1-0.2s0.8,0.1,1.1,0.2c0.4,0.1,0.7,0.3,0.9,0.6s0.5,0.6,0.6,1
		C47.2,15.6,47.3,16.1,47.3,16.6z M46.6,16.6c0-0.4-0.1-0.8-0.2-1.1s-0.3-0.6-0.5-0.9c-0.2-0.2-0.4-0.4-0.7-0.5
		c-0.3-0.1-0.6-0.2-0.9-0.2s-0.7,0.1-0.9,0.2c-0.3,0.1-0.5,0.3-0.7,0.5c-0.2,0.2-0.4,0.5-0.5,0.9c-0.1,0.3-0.2,0.7-0.2,1.1
		s0.1,0.8,0.2,1.1c0.1,0.3,0.3,0.6,0.5,0.9c0.2,0.2,0.4,0.4,0.7,0.5s0.6,0.2,0.9,0.2s0.7-0.1,0.9-0.2c0.3-0.1,0.5-0.3,0.7-0.5
		c0.2-0.2,0.4-0.5,0.5-0.9S46.6,17,46.6,16.6z"/>
	<path fill="#FFFFFF" d="M52.9,19.7c-0.1-0.2-0.3-0.5-0.4-0.7c-0.2-0.3-0.4-0.6-0.6-0.9c-0.2-0.3-0.4-0.6-0.7-1
		c-0.2-0.3-0.5-0.7-0.7-1c-0.2-0.3-0.5-0.6-0.7-0.9c-0.2-0.3-0.4-0.5-0.6-0.7v5.3h-0.6v-6.2h0.5c0.3,0.3,0.6,0.7,1,1.2
		s0.7,0.9,1,1.4s0.7,0.9,0.9,1.4s0.5,0.8,0.7,1.2v-5.1h0.6v6.2H52.9z"/>
	<path fill="#FFFFFF" d="M15.7,24.2c0.9,0,1.5,0.2,2,0.5c0.4,0.3,0.6,0.8,0.6,1.4c0,0.4-0.1,0.7-0.2,0.9c-0.1,0.2-0.3,0.5-0.5,0.6
		c-0.2,0.2-0.5,0.3-0.9,0.3c-0.3,0.1-0.7,0.1-1.1,0.1h-0.8v2.4h-0.6v-6.1c0.2-0.1,0.5-0.1,0.8-0.1S15.4,24.2,15.7,24.2z M15.7,24.8
		c-0.2,0-0.4,0-0.6,0c-0.2,0-0.3,0-0.4,0v2.8h0.8c0.3,0,0.6,0,0.9-0.1c0.3,0,0.5-0.1,0.7-0.2c0.2-0.1,0.3-0.2,0.4-0.4
		s0.2-0.4,0.2-0.7c0-0.3-0.1-0.5-0.2-0.7c-0.1-0.2-0.3-0.3-0.4-0.4s-0.4-0.2-0.6-0.2C16.2,24.8,15.9,24.8,15.7,24.8z"/>
	<path fill="#FFFFFF" d="M23,30v0.5h-3.5v-6.2H20V30H23z"/>
	<path fill="#FFFFFF" d="M28.4,30.5c-0.1-0.3-0.2-0.6-0.3-0.9c-0.1-0.3-0.2-0.6-0.3-0.8h-3c-0.1,0.3-0.2,0.5-0.3,0.8
		c-0.1,0.3-0.2,0.6-0.3,0.9h-0.6c0.2-0.6,0.5-1.3,0.7-1.8c0.2-0.6,0.4-1.1,0.6-1.6c0.2-0.5,0.4-1,0.6-1.4s0.4-0.9,0.6-1.4h0.5
		c0.2,0.5,0.4,0.9,0.6,1.4c0.2,0.5,0.4,0.9,0.6,1.4c0.2,0.5,0.4,1,0.6,1.6c0.2,0.6,0.4,1.2,0.7,1.8H28.4z M26.2,25
		c-0.2,0.5-0.4,1-0.7,1.6s-0.4,1.1-0.7,1.7h2.7c-0.2-0.6-0.5-1.2-0.7-1.7S26.5,25.5,26.2,25z"/>
	<path fill="#FFFFFF" d="M32.5,30.7c-0.4,0-0.8-0.1-1.1-0.2c-0.3-0.1-0.6-0.4-0.9-0.6s-0.5-0.6-0.6-1s-0.2-0.9-0.2-1.4
		c0-0.5,0.1-1,0.2-1.4c0.2-0.4,0.4-0.7,0.6-1c0.3-0.3,0.6-0.5,0.9-0.6c0.3-0.1,0.7-0.2,1.1-0.2c0.2,0,0.4,0,0.6,0
		c0.2,0,0.4,0.1,0.5,0.1s0.3,0.1,0.4,0.1c0.1,0,0.2,0.1,0.2,0.1l-0.2,0.5c-0.1-0.1-0.3-0.2-0.6-0.3s-0.5-0.1-0.9-0.1
		c-0.4,0-0.7,0.1-1,0.2c-0.3,0.1-0.5,0.3-0.7,0.6c-0.2,0.2-0.3,0.5-0.4,0.9s-0.1,0.7-0.1,1.1c0,0.4,0,0.8,0.1,1.1s0.2,0.6,0.4,0.9
		c0.2,0.2,0.4,0.4,0.7,0.5c0.3,0.1,0.6,0.2,1,0.2c0.4,0,0.7,0,1-0.1c0.3-0.1,0.5-0.2,0.6-0.2l0.2,0.5c0,0-0.1,0.1-0.2,0.1
		c-0.1,0-0.2,0.1-0.4,0.1c-0.2,0-0.3,0.1-0.5,0.1C33,30.6,32.7,30.7,32.5,30.7z"/>
	<path fill="#FFFFFF" d="M35.4,30.5v-6.2H39v0.5h-3V27h2.7v0.5H36V30h3.2v0.5H35.4z"/>
	<path fill="#FFFFFF" d="M44.4,24.3H45v6.2h-0.6v-3H41v3h-0.6v-6.2H41V27h3.4V24.3z"/>
	<path fill="#FFFFFF" d="M52.2,27.4c0,0.5-0.1,1-0.2,1.4s-0.4,0.7-0.6,1c-0.3,0.3-0.6,0.5-0.9,0.6c-0.4,0.1-0.7,0.2-1.1,0.2
		c-0.4,0-0.8-0.1-1.1-0.2c-0.4-0.1-0.7-0.3-0.9-0.6c-0.3-0.3-0.5-0.6-0.6-1s-0.2-0.9-0.2-1.4c0-0.5,0.1-1,0.2-1.4
		c0.2-0.4,0.4-0.7,0.6-1c0.3-0.3,0.6-0.5,0.9-0.6c0.4-0.1,0.7-0.2,1.1-0.2c0.4,0,0.8,0.1,1.1,0.2c0.4,0.1,0.7,0.3,0.9,0.6
		c0.3,0.3,0.5,0.6,0.6,1C52.1,26.4,52.2,26.9,52.2,27.4z M51.5,27.4c0-0.4-0.1-0.8-0.2-1.1c-0.1-0.3-0.3-0.6-0.5-0.9
		c-0.2-0.2-0.4-0.4-0.7-0.5c-0.3-0.1-0.6-0.2-0.9-0.2c-0.3,0-0.7,0.1-0.9,0.2c-0.3,0.1-0.5,0.3-0.7,0.5s-0.4,0.5-0.5,0.9
		C47,26.6,47,27,47,27.4s0.1,0.8,0.2,1.1c0.1,0.3,0.3,0.6,0.5,0.9c0.2,0.2,0.4,0.4,0.7,0.5c0.3,0.1,0.6,0.2,0.9,0.2
		c0.3,0,0.7-0.1,0.9-0.2c0.3-0.1,0.5-0.3,0.7-0.5c0.2-0.2,0.4-0.5,0.5-0.9C51.5,28.2,51.5,27.8,51.5,27.4z"/>
	<path fill="#FFFFFF" d="M57.1,30v0.5h-3.5v-6.2h0.6V30H57.1z"/>
	<path fill="#FFFFFF" d="M63,27.4c0,0.5-0.1,1-0.3,1.4c-0.2,0.4-0.4,0.7-0.7,1c-0.3,0.3-0.7,0.5-1.1,0.6c-0.4,0.1-0.9,0.2-1.4,0.2
		c-0.3,0-0.5,0-0.8,0c-0.3,0-0.5-0.1-0.7-0.1v-6c0.2-0.1,0.5-0.1,0.7-0.1c0.3,0,0.5,0,0.8,0c0.5,0,1,0.1,1.4,0.2
		c0.4,0.1,0.8,0.3,1.1,0.6c0.3,0.3,0.5,0.6,0.7,1S63,26.9,63,27.4z M58.7,30c0,0,0.1,0,0.3,0c0.1,0,0.4,0,0.7,0
		c0.4,0,0.8-0.1,1.2-0.2s0.6-0.3,0.8-0.5c0.2-0.2,0.4-0.5,0.5-0.8c0.1-0.3,0.2-0.7,0.2-1.1c0-0.4-0.1-0.8-0.2-1.1
		c-0.1-0.3-0.3-0.6-0.5-0.8c-0.2-0.2-0.5-0.4-0.8-0.5c-0.3-0.1-0.7-0.2-1.2-0.2c-0.3,0-0.6,0-0.7,0c-0.1,0-0.2,0-0.3,0V30z"/>
	<path fill="#FFFFFF" d="M64.4,30.5v-6.2H68v0.5h-3V27h2.7v0.5H65V30h3.2v0.5H64.4z"/>
	<path fill="#FFFFFF" d="M73.5,26.2c0,0.5-0.1,0.8-0.4,1.1c-0.2,0.3-0.6,0.5-1,0.6c0.1,0.1,0.2,0.3,0.4,0.5c0.2,0.2,0.3,0.4,0.5,0.7
		s0.3,0.5,0.5,0.8c0.2,0.3,0.3,0.5,0.4,0.8h-0.7c-0.1-0.2-0.3-0.5-0.4-0.7c-0.1-0.2-0.3-0.5-0.5-0.7c-0.2-0.2-0.3-0.4-0.4-0.6
		c-0.1-0.2-0.3-0.4-0.4-0.5c-0.2,0-0.4,0-0.6,0h-1v2.5h-0.6v-6.1c0.2-0.1,0.5-0.1,0.8-0.1s0.6,0,0.8,0c0.9,0,1.5,0.2,1.9,0.5
		C73.3,25,73.5,25.5,73.5,26.2z M71,24.8c-0.2,0-0.4,0-0.6,0c-0.2,0-0.3,0-0.4,0v2.7h0.8c0.3,0,0.5,0,0.8,0c0.3,0,0.5-0.1,0.7-0.2
		c0.2-0.1,0.3-0.2,0.4-0.4c0.1-0.2,0.2-0.4,0.2-0.7c0-0.3-0.1-0.5-0.2-0.7c-0.1-0.2-0.2-0.3-0.4-0.4s-0.4-0.2-0.6-0.2
		C71.5,24.8,71.3,24.8,71,24.8z"/>
</g>
<g>
</g>
<g>
</g>
<g>
</g>
<g>
</g>
<g>
</g>
<g>
</g>
</svg>
