<?xml version="1.0" encoding="utf-8"?>
<!-- Generator: Adobe Illustrator 20.1.0, SVG Export Plug-In . SVG Version: 6.00 Build 0)  -->
<svg version="1.1" id="identity-card-silhouette-back" xmlns="http://www.w3.org/2000/svg" xmlns:xlink="http://www.w3.org/1999/xlink" x="0px" y="0px"
	 viewBox="0 0 539.1 350.4" style="enable-background:new 0 0 539.1 350.4;" xml:space="preserve">
<g>
	<g>
		<path fill="#FFFFFF" d="M524.2,0H14.9C6.7,0,0,6.7,0,14.9v320.6c0,8.2,6.7,14.9,14.9,14.9h509.3c8.2,0,14.9-6.7,14.9-14.9V14.9
			C539.1,6.7,532.4,0,524.2,0z M474.5,271.9H258c-0.1,0-0.2-0.1-202.4-0.9v-38.8c202.2,0.2,202.6-0.2,203.1-0.2h215.1
			c0.4,0,0.8,0.4,0.8,0.8V271.9z M474.5,180.3c0,8.2-6.7,14.9-14.9,14.9h-187c-8.2,0-14.9-6.7-14.9-14.9v-10.2
			c0-8.2,6.7-14.9,14.9-14.9h187c8.2,0,14.9,6.7,14.9,14.9V180.3z M474.5,103.6c0,8.2-6.7,14.9-14.9,14.9h-187
			c-8.2,0-14.9-6.7-14.9-14.9V93.5c0-8.2,6.7-14.9,14.9-14.9h187c8.2,0,14.9,6.7,14.9,14.9V103.6z"/>
	</g>
</g>
</svg>
