<?xml version="1.0" encoding="utf-8"?>
<!-- Generator: Adobe Illustrator 20.1.0, SVG Export Plug-In . SVG Version: 6.00 Build 0)  -->
<svg version="1.1" id="identity-card-silhouette" xmlns="http://www.w3.org/2000/svg" xmlns:xlink="http://www.w3.org/1999/xlink" x="0px" y="0px"
	 viewBox="0 0 539.1 350.4" style="enable-background:new 0 0 539.1 350.4;" xml:space="preserve">
<g>
	<g>
		<path fill="#FFFFFF" d="M524.2,0H14.9C6.7,0,0,6.7,0,14.9v320.6c0,8.2,6.7,14.9,14.9,14.9h509.3c8.2,0,14.9-6.7,14.9-14.9V14.9
			C539,6.7,532.4,0,524.2,0z M208.1,257c0,8.2-6.7,14.9-14.9,14.9h-6.1c0.1-1,0.1-27.7,0.1-27.7c0-16.4-13.3-29.8-29.7-29.8h-42.3
			c-16.4,0-29.8,13.3-29.8,29.8c0,0,0.1,26.7,0.1,27.7h-6c-8.2,0-14.9-6.7-14.9-14.9V93.5c0-8.2,6.7-14.9,14.9-14.9h113.8
			c8.2,0,14.9,6.7,14.9,14.9L208.1,257L208.1,257z M474.5,257c0,8.2-6.7,14.9-14.9,14.9h-187c-8.2,0-14.9-6.7-14.9-14.9v-10.2
			c0-8.2,6.7-14.9,14.9-14.9h187c8.2,0,14.9,6.7,14.9,14.9V257z M474.5,180.3c0,8.2-6.7,14.9-14.9,14.9h-187
			c-8.2,0-14.9-6.7-14.9-14.9v-10.1c0-8.2,6.7-14.9,14.9-14.9h187c8.2,0,14.9,6.7,14.9,14.9V180.3z M474.5,103.7
			c0,8.2-6.7,14.9-14.9,14.9h-187c-8.2,0-14.9-6.7-14.9-14.9V93.5c0-8.2,6.7-14.9,14.9-14.9h187c8.2,0,14.9,6.7,14.9,14.9V103.7z"/>
		<circle fill="#FFFFFF" cx="136.3" cy="151.1" r="45.5"/>
	</g>
</g>
</svg>
