<?xml version="1.0" encoding="utf-8"?>
<!-- Generator: Adobe Illustrator 22.0.1, SVG Export Plug-In . SVG Version: 6.00 Build 0)  -->
<svg version="1.1" id="language-flags" xmlns="http://www.w3.org/2000/svg" xmlns:xlink="http://www.w3.org/1999/xlink" x="0px" y="0px"
	 viewBox="0 0 45 45" style="enable-background:new 0 0 45 45;" xml:space="preserve">
<style type="text/css">
	@import "../default/default/svg.css";
</style>
<script  type="text/javascript">
	<![CDATA[
             if(window.parent && window.parent.Wincor && window.parent.Wincor.UI && window.parent.Wincor.UI.Content) {
                 let styleRes = window.parent.Wincor.UI.Content.StyleResourceResolver;
                 if(styleRes) {
                 	let style = document.getElementsByTagName("style")[0];
                   	style.innerHTML = style.innerHTML.replace("default/svg.css", styleRes.type() + "svg.css");
                    styleRes = null;
                 }
             }

		
		]]>
</script>

<g class="shadowGroup1">
    <path style="fill:none;stroke:#000000;stroke-miterlimit:10;" d="M17.7,3.5c-0.2-0.2-0.4-0.2-0.6,0c-0.1,0.1-0.2,0.1-0.3,0.3c-1.3,1.1-2.3,1.7-3.2,1.7c-0.3,0-0.7-0.1-0.9-0.3
	c-0.8-0.6-1.4-1-2.1-1.3S9.1,3.4,8.3,3.4c-0.6,0-1.1,0.1-1.6,0.3c-0.5,0.1-1,0.4-1.5,0.7C4.7,4.7,4.4,5,4.1,5.2
	C3.8,5.4,3.5,5.5,3.3,5.7C3.1,5.9,3,6.2,3,6.6v11.3c0,0.4,0.1,0.7,0.3,0.9c0.1,0.1,0.3,0.1,0.3,0.1s0.3,0,0.3-0.1
	c0.6-0.6,1.4-1.1,2.3-1.6c1.3-0.2-1-0.7,2.5-0.7c0.4,0,0.8,0.1,1.1,0.2s0.7,0.3,0.9,0.4c0.3,0.2,0.6,0.4,1,0.7l0.3,0.2
	c0.5,0.4,1,0.5,1.6,0.5c1,0,2.2-0.6,3.8-1.8c0.1,0,0.1-0.1,0.2-0.1c0.3-0.2,0.3-0.5,0.3-0.9V4.3C18,4,17.8,3.7,17.7,3.5z"/>
    <line style="fill:none;stroke:#000000;stroke-linecap:round;stroke-miterlimit:10;" x1="4" y1="4.3" x2="4" y2="33.5"/>
    <path style="fill:none;stroke:#000000;stroke-miterlimit:10;" d="M28.5,15.7v12c0,0.4,0.1,0.7,0.4,0.9c0.1,0.1,0.1,0.1,0.2,0.1c1.5,1.2,3,1.9,4.1,1.9c0.6,0,1.2-0.2,1.7-0.5
        l0.3-0.2c0.5-0.3,0.8-0.6,1.1-0.7c0.3-0.2,0.5-0.3,1-0.4c0.4-0.1,0.8-0.2,1.2-0.2c0.7,0,1.5,0.2,2.6,0.7c1,0.4,1.8,1,2.4,1.6
        c0.1,0.1,0.2,0.1,0.4,0.1c0.1,0,0.3,0,0.4-0.1c0.3-0.2,0.4-0.5,0.4-0.9V18.2c0-0.4-0.1-0.6-0.4-0.8c-0.3-0.2-0.5-0.4-0.8-0.7
        c-0.3-0.2-0.7-0.5-1.2-0.8c-0.5-0.3-1.1-0.6-1.6-0.8s-1.2-0.3-1.6-0.3c-0.8,0-1.5,0.2-2.3,0.5c-0.7,0.3-1.4,0.8-2.3,1.3
        c-0.3,0.2-0.6,0.3-1.1,0.3c-0.9,0-2-0.6-3.4-1.7c-0.2-0.1-0.3-0.2-0.4-0.3c-0.2-0.2-0.5-0.2-0.6,0C28.6,15.1,28.5,15.4,28.5,15.7z"
        />
    <line style="fill:none;stroke:#000000;stroke-linecap:round;stroke-miterlimit:10;" x1="44.5" y1="14.5" x2="44.5" y2="43.5"/>
    <line style="fill:none;stroke:#000000;stroke-linecap:round;stroke-miterlimit:10;" x1="27.9" y1="3.2" x2="11.1" y2="41.9"/>
</g>

<g class="shadowGroup2">
    <path style="fill:none;stroke:#000000;stroke-miterlimit:10;" d="M18.7,4.5c-0.2-0.2-0.4-0.2-0.6,0c-0.1,0.1-0.2,0.1-0.3,0.3c-1.3,1.1-2.3,1.7-3.2,1.7c-0.3,0-0.7-0.1-0.9-0.3
	c-0.8-0.6-1.4-1-2.1-1.3s-1.4-0.5-2.1-0.5c-0.6,0-1.1,0.1-1.7,0.3C7.2,4.8,6.7,5.1,6.2,5.4S5.4,6,5.1,6.2C4.8,6.4,4.5,6.5,4.3,6.7
	C4.1,6.9,4,7.2,4,7.6v11.3c0,0.4,0.1,0.7,0.3,0.9c0.1,0.1,0.3,0.1,0.3,0.1s0.3,0,0.3-0.1c0.6-0.6,1.4-1.1,2.3-1.6
	c0.9-0.4,1.7-0.7,2.5-0.7c0.4,0,0.8,0.1,1.1,0.2c0.3,0.1,0.7,0.3,0.9,0.4c0.3,0.2,0.6,0.4,1,0.7l0.3,0.2c0.5,0.4,1,0.5,1.6,0.5
	c1,0,2.2-0.6,3.8-1.8c0.1,0,0.1-0.1,0.2-0.1c0.3-0.2,0.3-0.5,0.3-0.9V5.3C19,5,18.8,4.7,18.7,4.5z"/>
    <line style="fill:none;stroke:#000000;stroke-linecap:round;stroke-miterlimit:10;" x1="3" y1="3.2" x2="3" y2="32.5"/>
    <path style="fill:none;stroke:#000000;stroke-miterlimit:10;" d="M27.5,14.7v12c0,0.4,0.1,0.7,0.4,0.9c0.1,0.1,0.1,0.1,0.2,0.1c1.5,1.2,3,1.9,4.1,1.9c0.6,0,1.2-0.2,1.7-0.5
        l0.3-0.2c0.5-0.3,0.8-0.6,1.1-0.7c0.3-0.2,0.5-0.3,1-0.4c0.4-0.1,0.8-0.2,1.2-0.2c0.7,0,1.5,0.2,2.6,0.7c1,0.4,1.8,1,2.4,1.6
        c0.1,0.1,0.2,0.1,0.4,0.1c0.1,0,0.3,0,0.4-0.1c0.3-0.2,0.4-0.5,0.4-0.9V17.2c0-0.4-0.1-0.6-0.4-0.8c-0.3-0.2-0.5-0.4-0.8-0.7
        c-0.3-0.2-0.7-0.5-1.2-0.8c-0.5-0.3-1.1-0.6-1.6-0.8s-1.2-0.3-1.6-0.3c-0.8,0-1.5,0.2-2.3,0.5c-0.7,0.3-1.4,0.8-2.3,1.3
        c-0.4,0.2-0.6,0.3-1.2,0.3c-0.9,0-2-0.6-3.4-1.7c-0.2-0.1-0.3-0.2-0.4-0.3c-0.2-0.2-0.5-0.2-0.6,0C27.6,14.1,27.5,14.4,27.5,14.7z"
        />
    <line style="fill:none;stroke:#000000;stroke-linecap:round;stroke-miterlimit:10;" x1="43.5" y1="13.5" x2="43.5" y2="42.5"/>
    <line style="fill:none;stroke:#000000;stroke-linecap:round;stroke-miterlimit:10;" x1="27.9" y1="2.2" x2="11.1" y2="40.9"/>
</g>


    
<g class="shadowGroup3">
    <path style="fill:none;stroke:#000000;stroke-miterlimit:10;" d="M16.7,2.5c-0.2-0.2-0.4-0.2-0.6,0c-0.1,0.1-0.2,0.1-0.3,0.3c-1.3,1.1-2.3,1.7-3.2,1.7c-0.3,0-0.7-0.1-0.9-0.3
	c-0.8-0.6-1.4-1-2.1-1.3C8.7,2.6,8,2.4,7.3,2.4c-0.5,0-1,0.1-1.5,0.3c-0.4,0.1-1,0.4-1.5,0.7S3.4,4,3.1,4.2C2.8,4.4,2.5,4.5,2.3,4.7
	C2.1,4.9,2,5.2,2,5.6v11.3c0,0.4,0.1,0.7,0.3,0.9c0.1,0.1,0.3,0.1,0.3,0.1s0.3,0,0.3-0.1c0.6-0.6,1.4-1.1,2.3-1.6
	c0.9-0.4,1.7-0.7,2.5-0.7c0.4,0,0.8,0.1,1.1,0.2c0.3,0.1,0.7,0.3,0.9,0.4c0.3,0.2,0.6,0.4,1,0.7l0.3,0.2c0.5,0.4,1,0.5,1.6,0.5
	c1,0,2.2-0.6,3.8-1.8c0.1,0,0.1-0.1,0.2-0.1c0.3-0.2,0.3-0.5,0.3-0.9V3.3C17,3,16.8,2.7,16.7,2.5z"/>
    <line style="fill:none;stroke:#000000;stroke-linecap:round;stroke-miterlimit:10;" x1="2" y1="2.5" x2="2" y2="31.5"/>
    <path style="fill:none;stroke:#000000;stroke-miterlimit:10;" d="M26.5,13.7v12c0,0.4,0.1,0.7,0.4,0.9c0.1,0.1,0.1,0.1,0.2,0.1c1.5,1.2,3,1.9,4.1,1.9c0.6,0,1.2-0.2,1.7-0.5
        l0.3-0.2c0.5-0.3,0.8-0.6,1.1-0.7c0.3-0.2,0.5-0.3,1-0.4c0.4-0.1,0.8-0.2,1.2-0.2c0.7,0,1.5,0.2,2.6,0.7c1,0.4,1.8,1,2.4,1.6
        c0.1,0.1,0.2,0.1,0.4,0.1c0.1,0,0.3,0,0.4-0.1c0.3-0.2,0.4-0.5,0.4-0.9V16.2c0-0.4-0.1-0.6-0.4-0.8c-0.3-0.2-0.5-0.4-0.8-0.7
        c-0.3-0.2-0.7-0.5-1.2-0.8c-0.5-0.3-1.1-0.6-1.6-0.8s-1.2-0.3-1.6-0.3c-0.8,0-1.5,0.2-2.3,0.5c-0.7,0.3-1.4,0.8-2.3,1.3
        c-0.3,0.2-0.5,0.3-1,0.3c-0.9,0-2-0.6-3.4-1.7c-0.2-0.1-0.3-0.2-0.4-0.3c-0.2-0.2-0.5-0.2-0.6,0C26.6,13.1,26.5,13.4,26.5,13.7z"/>
    <line style="fill:none;stroke:#000000;stroke-linecap:round;stroke-miterlimit:10;" x1="42.5" y1="12.5" x2="42.5" y2="41.5"/>
    <line style="fill:none;stroke:#000000;stroke-linecap:round;stroke-miterlimit:10;" x1="27.9" y1="1.2" x2="11.1" y2="40"/>
</g>


<g>
    <path class="strokeColor" d="M15.7,1.6c-0.2-0.2-0.4-0.2-0.6,0c-0.1,0.1-0.2,0.1-0.3,0.3c-1.3,1.1-2.3,1.7-3.2,1.7c-0.3,0-0.7-0.1-0.9-0.3
	C9.8,2.7,9.1,2.3,8.5,2S7,1.5,6.3,1.5c-0.5,0-1,0.1-1.5,0.3C4.3,1.9,3.8,2.2,3.2,2.5S2.4,3.1,2.1,3.3C1.8,3.5,1.5,3.6,1.3,3.8
	C1.1,4,1,4.3,1,4.7V16c0,0.4,0.1,0.7,0.3,0.9C1.4,17,1.6,17,1.7,17c0.1,0,0.3,0,0.3-0.1c0.6-0.6,1.4-1.1,2.3-1.6
	c0.9-0.4,1.7-0.7,2.5-0.7c0.4,0,0.8,0.1,1.1,0.2c0.3,0.1,0.7,0.3,0.9,0.4c0.3,0.2,0.6,0.4,1,0.7l0.3,0.2c0.5,0.4,1,0.5,1.6,0.5
	c1,0,2.2-0.6,3.8-1.8c0.1,0,0.1-0.1,0.2-0.1c0.3-0.2,0.3-0.5,0.3-0.9V2.4C16,2.1,15.8,1.8,15.7,1.6z"/>
    <line class="strokeColor" style="stroke-linecap:round;stroke-miterlimit:10;" x1="1" y1="1" x2="1" y2="30"/>
    <path class="strokeColor" d="M25.5,12.8v12c0,0.4,0.1,0.7,0.4,0.9c0.1,0.1,0.1,0.1,0.2,0.1c1.5,1.2,3,1.9,4.1,1.9c0.6,0,1.2-0.2,1.7-0.5l0.3-0.2
        c0.5-0.3,0.8-0.6,1.1-0.7c0.3-0.2,0.5-0.3,1-0.4c0.4-0.1,0.8-0.2,1.2-0.2c0.7,0,1.5,0.2,2.6,0.7c1,0.4,1.8,1,2.4,1.6
        c0.1,0.1,0.2,0.1,0.4,0.1c0.1,0,0.3,0,0.4-0.1c0.3-0.2,0.4-0.5,0.4-0.9V15.3c0-0.4-0.1-0.6-0.4-0.8c-0.3-0.2-0.5-0.4-0.8-0.7
        c-0.3-0.2-0.7-0.5-1.2-0.8c-0.5-0.3-1.1-0.6-1.6-0.8s-1.2-0.3-1.6-0.3c-0.8,0-1.5,0.2-2.3,0.5c-0.7,0.3-1.4,0.8-2.3,1.3
        c-0.3,0.2-0.5,0.3-1,0.3c-0.9,0-2-0.6-3.4-1.7c-0.2-0.1-0.3-0.2-0.4-0.3c-0.2-0.2-0.5-0.2-0.6,0C25.6,12.2,25.5,12.5,25.5,12.8z"/>
    <line class="strokeColor" style="stroke-linecap:round;stroke-miterlimit:10;" x1="41.5" y1="12" x2="41.5" y2="41"/>
    <line class="strokeColor" style="stroke-linecap:round;stroke-miterlimit:10;" x1="27.9" y1="0.3" x2="11.1" y2="39"/>
</g>

</svg>
