<?xml version="1.0" encoding="utf-8"?>
<!-- Generator: Adobe Illustrator 18.0.0, SVG Export Plug-In . SVG Version: 6.00 Build 0)  -->
<!DOCTYPE svg PUBLIC "-//W3C//DTD SVG 1.1//EN" "http://www.w3.org/Graphics/SVG/1.1/DTD/svg11.dtd">
<svg version="1.1" id="Layer_1" xmlns="http://www.w3.org/2000/svg" xmlns:xlink="http://www.w3.org/1999/xlink" x="0px" y="0px"
	 viewBox="0 0 45 45" enable-background="new 0 0 45 45" xml:space="preserve">
	<style type="text/css">
			@import "../default/default/svg.css";
	</style>
	 <script type="text/javascript">
         <![CDATA[
             if(window.parent && window.parent.Wincor && window.parent.Wincor.UI && window.parent.Wincor.UI.Content) {
                 let styleRes = window.parent.Wincor.UI.Content.StyleResourceResolver;
                 if(styleRes) {
                 	let style = document.getElementsByTagName("style")[0];
                   	style.innerHTML = style.innerHTML.replace("default/svg.css", styleRes.type() + "svg.css");
                    styleRes = null;
                 }
             }
         ]]>
    </script>

<g class="shadowGroup1">
	<circle fill="none" stroke="#000000" stroke-miterlimit="10" cx="25.5" cy="23.9" r="18.7"/>
	<path fill="none" stroke="#000000" stroke-miterlimit="10" d="M24.5,5.2c0,0-9.8,6.5-9.8,18.7c0,12.8,9.8,18.7,9.8,18.7"/>
	<path fill="none" stroke="#000000" stroke-miterlimit="10" d="M26.5,42.6c0,0,9.8-5.9,9.8-18.7c0-12.8-9.8-18.7-9.8-18.7"/>
	<line fill="none" stroke="#000000" stroke-miterlimit="10" x1="6.8" y1="23.9" x2="44.2" y2="23.9"/>
	<line fill="none" stroke="#000000" stroke-miterlimit="10" x1="8.8" y1="15" x2="42.2" y2="15"/>
	<line fill="none" stroke="#000000" stroke-miterlimit="10" x1="8.8" y1="32.8" x2="42.2" y2="32.8"/>
	<line fill="none" stroke="#000000" stroke-miterlimit="10" x1="25.5" y1="5.2" x2="25.5" y2="42.6"/>
</g>
<g class="shadowGroup2">
	<circle fill="none" stroke="#000000" stroke-miterlimit="10" cx="23.7" cy="23.1" r="18.7"/>
	<path fill="none" stroke="#000000" stroke-miterlimit="10" d="M22.7,4.4c0,0-9.8,6.5-9.8,18.7c0,12.8,9.8,18.7,9.8,18.7"/>
	<path fill="none" stroke="#000000" stroke-miterlimit="10" d="M24.7,41.8c0,0,9.8-5.9,9.8-18.7c0-12.8-9.8-18.7-9.8-18.7"/>
	<line fill="none" stroke="#000000" stroke-miterlimit="10" x1="5" y1="23.1" x2="42.4" y2="23.1"/>
	<line fill="none" stroke="#000000" stroke-miterlimit="10" x1="7" y1="14.2" x2="40.4" y2="14.2"/>
	<line fill="none" stroke="#000000" stroke-miterlimit="10" x1="7" y1="32" x2="40.4" y2="32"/>
	<line fill="none" stroke="#000000" stroke-miterlimit="10" x1="23.7" y1="4.4" x2="23.7" y2="41.8"/>
</g>
<g class="shadowGroup3">
	<circle fill="none" stroke="#000000" stroke-miterlimit="10" cx="22.7" cy="22.1" r="18.7"/>
	<path fill="none" stroke="#000000" stroke-miterlimit="10" d="M21.7,3.4c0,0-9.8,6.5-9.8,18.7c0,12.8,9.8,18.7,9.8,18.7"/>
	<path fill="none" stroke="#000000" stroke-miterlimit="10" d="M23.7,40.8c0,0,9.8-5.9,9.8-18.7c0-12.8-9.8-18.7-9.8-18.7"/>
	<line fill="none" stroke="#000000" stroke-miterlimit="10" x1="4" y1="22.1" x2="41.4" y2="22.1"/>
	<line fill="none" stroke="#000000" stroke-miterlimit="10" x1="6" y1="13.2" x2="39.4" y2="13.2"/>
	<line fill="none" stroke="#000000" stroke-miterlimit="10" x1="6" y1="31" x2="39.4" y2="31"/>
	<line fill="none" stroke="#000000" stroke-miterlimit="10" x1="22.7" y1="3.4" x2="22.7" y2="40.8"/>
</g>
<g>
	<circle class="strokeColor" stroke-miterlimit="10" cx="21.7" cy="21.1" r="18.7"/>
	<path class="strokeColor" stroke-miterlimit="10" d="M20.7,2.4c0,0-9.8,6.5-9.8,18.7c0,12.8,9.8,18.7,9.8,18.7"/>
	<path class="strokeColor" stroke-miterlimit="10" d="M22.7,39.8c0,0,9.8-5.9,9.8-18.7c0-12.8-9.8-18.7-9.8-18.7"/>
	<line class="strokeColor" stroke-miterlimit="10" x1="3" y1="21.1" x2="40.4" y2="21.1"/>
	<line class="strokeColor" stroke-miterlimit="10" x1="5" y1="12.2" x2="38.4" y2="12.2"/>
	<line class="strokeColor" stroke-miterlimit="10" x1="5" y1="30" x2="38.4" y2="30"/>
	<line class="strokeColor" stroke-miterlimit="10" x1="21.7" y1="2.4" x2="21.7" y2="39.8"/>
</g>
</svg>
