<?xml version="1.0" encoding="utf-8"?>
<!-- Generator: Adobe Illustrator 23.0.2, SVG Export Plug-In . SVG Version: 6.00 Build 0)  -->
<svg version="1.1" id="magnify-glass" xmlns="http://www.w3.org/2000/svg" xmlns:xlink="http://www.w3.org/1999/xlink" x="0px" y="0px"
     viewBox="0 0 45 45" enable-background="new 0 0 45 45" xml:space="preserve">

    <style type="text/css">
        @import "../default/default/svg.css";
    </style>

    <script type="text/javascript">
        <![CDATA[
             if(window.parent && window.parent.Wincor && window.parent.Wincor.UI && window.parent.Wincor.UI.Content) {
                 let styleRes = window.parent.Wincor.UI.Content.StyleResourceResolver;
                 if(styleRes) {
                    let style = document.getElementsByTagName("style")[0];
                    style.innerHTML = style.innerHTML.replace("default/svg.css", styleRes.type() + "svg.css");
                    styleRes = null;
                 }
             }
            ]]>
    </script>
    <g class="shadowGroup1">
        <path fill="none" stroke="#000000" stroke-width="0.75" d="M29.5,5.5c-8.2,0-14.8,7-14.8,15.5c0,3.1,0.9,6.1,2.4,7.5h-0.7v3.3
            c-1.4-0.2-2.6,0-3.2,0.7l-7,7.3c-1,1-1,3,0,4.2l1,0.3c1,1,3.1-1.9,4.1-3.1l5.8-6.1c0.3-0.3-0.3-1-0.2-1.4l0.3-1.7h2.6
            c2.7,3,6.1,4.5,10,4.5c8.2,0,14.8-7,14.8-15.5S37.9,5.5,29.5,5.5z"/>
        <path fill="none" stroke="#000000" stroke-width="0.75" d="M41.4,20.9c-1-2.6-4.8-7.3-11.7-7.3c-7.3,0-11.1,4.7-11.7,7.3
            c-0.5,0.9,0,1.7,1,2.1c1,0.3,1.7-0.3,2.2-0.9c0,0,0-0.3,0.2-0.5c0.7,3.8,4.3,6.5,8.3,6.5c4.3,0,7.5-3,8.3-6.5
            c0.2,0.3,0.2,0.5,0.2,0.5c0.2,0.5,1,1.2,1.5,1.2c0.2,0,0.2,0,0.5,0C41.4,22.6,41.9,21.8,41.4,20.9z M29.7,27c-3.7,0-6.8-2.4-7-7.2
            c0.7-0.9,2-1.7,3.6-2.4c-0.5,0.9-1,1.7-1,2.6c0,2.4,2,4.2,4.6,4.2s4.6-1.7,4.6-4.2c0-0.9-0.5-2.1-1-2.6c1.7,0.5,2.7,1.4,3.7,2.4
            C36.5,25.1,33.4,27,29.7,27z"/>
    </g>
    <g class="shadowGroup1">
        <path fill="none" stroke="#000000" stroke-width="0.75" d="M27.8,3.8c-8.2,0-14.8,7-14.8,15.5c0,3.1,0.9,6.1,2.4,7.5h-0.7v3.3
            c-1.4-0.2-2.6,0-3.2,0.7l-7,7.3c-1,1-1,3,0,4.2l1,0.3c1,1,3.1-1.9,4.1-3.1l5.8-6.1c0.3-0.3-0.3-1-0.2-1.4l0.3-1.7h2.6
            c2.7,3,6.1,4.5,10,4.5c8.2,0,14.8-7,14.8-15.5S36.2,3.8,27.8,3.8z"/>
        <path fill="none" stroke="#000000" stroke-width="0.75" d="M39.7,19.1c-1-2.6-4.8-7.3-11.7-7.3c-7.3,0-11.1,4.7-11.7,7.3
            c-0.5,0.9,0,1.7,1,2.1c1,0.3,1.7-0.3,2.2-0.9c0,0,0-0.3,0.2-0.5c0.7,3.8,4.3,6.5,8.3,6.5c4.3,0,7.5-3,8.3-6.5
            c0.2,0.3,0.2,0.5,0.2,0.5c0.2,0.5,1,1.2,1.5,1.2c0.2,0,0.2,0,0.5,0C39.7,20.9,40.2,20,39.7,19.1z M28,25.3c-3.7,0-6.8-2.4-7-7.2
            c0.7-0.9,2-1.7,3.6-2.4c-0.5,0.9-1,1.7-1,2.6c0,2.4,2,4.2,4.6,4.2s4.6-1.7,4.6-4.2c0-0.9-0.5-2.1-1-2.6c1.7,0.5,2.7,1.4,3.7,2.4
            C34.8,23.3,31.7,25.3,28,25.3z"/>
    </g>
    <g class="shadowGroup3">
        <path fill="none" stroke="#000000" stroke-width="0.75" d="M26.1,2c-8.2,0-14.8,7-14.8,15.5c0,3.1,0.9,6.1,2.4,7.5H13v3.3
            c-1.4-0.2-2.6,0-3.2,0.7l-7,7.3c-1,1-1,3,0,4.2l1,0.3c1,1,3.1-1.9,4.1-3.1l5.8-6.1c0.3-0.3-0.3-1-0.2-1.4l0.3-1.7h2.6
            c2.7,3,6.1,4.5,10,4.5c8.2,0,14.8-7,14.8-15.5S34.5,2,26.1,2z"/>
        <path fill="none" stroke="#000000" stroke-width="0.75" d="M38,17.4c-1-2.6-4.8-7.3-11.7-7.3c-7.3,0-11.1,4.7-11.7,7.3
            c-0.5,0.9,0,1.7,1,2.1c1,0.3,1.7-0.3,2.2-0.9c0,0,0-0.3,0.2-0.5c0.7,3.8,4.3,6.5,8.3,6.5c4.3,0,7.5-3,8.3-6.5
            c0.2,0.3,0.2,0.5,0.2,0.5c0.2,0.5,1,1.2,1.5,1.2c0.2,0,0.2,0,0.5,0C38,19.1,38.5,18.3,38,17.4z M26.1,23.5c-3.7,0-6.8-2.4-7-7.2
            c0.7-0.9,2-1.7,3.6-2.4c-0.5,0.9-1,1.7-1,2.6c0,2.4,2,4.2,4.6,4.2s4.6-1.7,4.6-4.2c0-0.9-0.5-2.1-1-2.6c1.7,0.5,2.7,1.4,3.7,2.4
            C33.1,21.6,30,23.5,26.1,23.5z"/>
    </g>
    <g>
        <path class="strokeColor" d="M24.4,0.3c-8.2,0-15,7-15,15.5c0,3.1,0.9,6.1,2.4,8.4h-1.4v2.4c-0.5-0.2-1.7,0-2.4,0.7l-7,7.3c-1,1-1,3,0,4.2l1,0.3
            c1,1,3.1-1.9,4.1-3.1L12,30c0.3-0.3-0.3-1-0.2-1.4l0.3-0.9h2.6c2.7,2.1,6.1,3.7,10,3.7c8.2,0,14.8-7,14.8-15.5S32.8,0.3,24.4,0.3z"
            />
        <path id="loopEye" class="strokeColor" d="M36.3,16.5c-1-2.6-4.8-7.3-11.7-7.3c-7.3,0-11.1,4.7-11.7,7.3c-0.5,0.9,0,1.7,1,2.1c1,0.3,1.7-0.3,2.2-0.9
            c0,0,0-0.3,0.2-0.5c0.7,3.8,4.3,6.5,8.3,6.5c4.3,0,7.5-3,8.3-6.5c0.2,0.3,0.2,0.5,0.2,0.5c0.2,0.5,1,1.2,1.5,1.2c0.2,0,0.2,0,0.5,0
            C36.3,18.3,36.8,17.4,36.3,16.5z M24.4,21.8c-3.7,0-6.8-2.4-7-7.2c0.7-0.9,2-1.7,3.6-2.4c-0.5,0.9-1,1.7-1,2.6c0,2.4,2,4.2,4.6,4.2
            s4.6-1.7,4.6-4.2c0-0.9-0.5-2.1-1-2.6c1.7,0.5,2.7,1.4,3.7,2.4C31.4,19.8,28.3,21.8,24.4,21.8z"/>
    </g>
    <script type="text/javascript">
        <![CDATA[
                const INTERVAL = 1000;
                let _intervalId = -1;
                document.magnifyGlassClick = function() {
                    let loopEye = document.getElementById("loopEye");
                    if(_intervalId === -1) {
                        _intervalId = setInterval(() => {
                            if(loopEye.style.opacity === "1") {
                                loopEye.style.opacity = "0";
                            } else {
                                loopEye.style.opacity = "1";
                            }
                        }, INTERVAL);
                    } else {
                        loopEye.style.opacity = "1";
                        clearInterval(_intervalId);
                        _intervalId = -1;
                    }
                }

                document.magnifyGlassOff = function() {
                    if(_intervalId !== -1) {
                        clearInterval(_intervalId);
                        _intervalId = -1;
                        let loopEye = document.getElementById("loopEye");
                        loopEye.style.opacity = "1";
                    }
                }

            ]]>
    </script>
</svg>
