<?xml version="1.0" encoding="utf-8"?>
<!-- Generator: Adobe Illustrator 18.0.0, SVG Export Plug-In . SVG Version: 6.00 Build 0)  -->
<!DOCTYPE svg PUBLIC "-//W3C//DTD SVG 1.1//EN" "http://www.w3.org/Graphics/SVG/1.1/DTD/svg11.dtd">
<svg version="1.1" id="Layer_1" xmlns="http://www.w3.org/2000/svg" xmlns:xlink="http://www.w3.org/1999/xlink" x="0px" y="0px"
	 viewBox="0 0 45 45" enable-background="new 0 0 45 45" xml:space="preserve">
	<style type="text/css">
			@import "../default/default/svg.css";
	</style>
	 <script type="text/javascript">
         <![CDATA[
             if(window.parent && window.parent.Wincor && window.parent.Wincor.UI && window.parent.Wincor.UI.Content) {
                 let styleRes = window.parent.Wincor.UI.Content.StyleResourceResolver;
                 if(styleRes) {
                 	let style = document.getElementsByTagName("style")[0];
                   	style.innerHTML = style.innerHTML.replace("default/svg.css", styleRes.type() + "svg.css");
                    styleRes = null;
                 }
             }
         ]]>
    </script>
<g class="shadowGroup1">
	<rect x="4.5" y="10.5" fill="none" stroke="#000000" stroke-miterlimit="10" width="40" height="27"/>
	<line fill="none" stroke="#000000" stroke-miterlimit="10" x1="4.5" y1="18.5" x2="22" y2="18.5"/>
	<line fill="none" stroke="#000000" stroke-miterlimit="10" x1="4.5" y1="22.5" x2="22" y2="22.5"/>
	<line fill="none" stroke="#000000" stroke-miterlimit="10" x1="4.5" y1="26.5" x2="22" y2="26.5"/>
	<line fill="none" stroke="#000000" stroke-miterlimit="10" x1="4" y1="30.5" x2="15" y2="30.5"/>
	<line fill="none" stroke="#000000" stroke-miterlimit="10" x1="44.5" y1="18.5" x2="27" y2="18.5"/>
	<line fill="none" stroke="#000000" stroke-miterlimit="10" x1="44.5" y1="22.5" x2="27" y2="22.5"/>
	<line fill="none" stroke="#000000" stroke-miterlimit="10" x1="44.5" y1="26.5" x2="27" y2="26.5"/>
	<line fill="none" stroke="#000000" stroke-miterlimit="10" x1="45" y1="30.5" x2="35" y2="30.5"/>
</g>
<g class="shadowGroup2">
	<rect x="3.5" y="9.5" fill="none" stroke="#000000" stroke-miterlimit="10" width="40" height="27"/>
	<line fill="none" stroke="#000000" stroke-miterlimit="10" x1="3.5" y1="17.5" x2="21" y2="17.5"/>
	<line fill="none" stroke="#000000" stroke-miterlimit="10" x1="3.5" y1="21.5" x2="21" y2="21.5"/>
	<line fill="none" stroke="#000000" stroke-miterlimit="10" x1="3.5" y1="25.5" x2="21" y2="25.5"/>
	<line fill="none" stroke="#000000" stroke-miterlimit="10" x1="3" y1="29.5" x2="14" y2="29.5"/>
	<line fill="none" stroke="#000000" stroke-miterlimit="10" x1="43.5" y1="17.5" x2="26" y2="17.5"/>
	<line fill="none" stroke="#000000" stroke-miterlimit="10" x1="43.5" y1="21.5" x2="26" y2="21.5"/>
	<line fill="none" stroke="#000000" stroke-miterlimit="10" x1="43.5" y1="25.5" x2="26" y2="25.5"/>
	<line fill="none" stroke="#000000" stroke-miterlimit="10" x1="44" y1="29.5" x2="34" y2="29.5"/>
</g>
<g class="shadowGroup3">
	<rect x="2.5" y="8.5" fill="none" stroke="#000000" stroke-miterlimit="10" width="40" height="27"/>
	<line fill="none" stroke="#000000" stroke-miterlimit="10" x1="2.5" y1="16.5" x2="20" y2="16.5"/>
	<line fill="none" stroke="#000000" stroke-miterlimit="10" x1="2.5" y1="20.5" x2="20" y2="20.5"/>
	<line fill="none" stroke="#000000" stroke-miterlimit="10" x1="2.5" y1="24.5" x2="20" y2="24.5"/>
	<line fill="none" stroke="#000000" stroke-miterlimit="10" x1="2" y1="28.5" x2="13" y2="28.5"/>
	<line fill="none" stroke="#000000" stroke-miterlimit="10" x1="42.5" y1="16.5" x2="25" y2="16.5"/>
	<line fill="none" stroke="#000000" stroke-miterlimit="10" x1="42.5" y1="20.5" x2="25" y2="20.5"/>
	<line fill="none" stroke="#000000" stroke-miterlimit="10" x1="42.5" y1="24.5" x2="25" y2="24.5"/>
	<line fill="none" stroke="#000000" stroke-miterlimit="10" x1="43" y1="28.5" x2="33" y2="28.5"/>
</g>
<g>
	<rect x="1.5" y="7.5" class="strokeColor" stroke-miterlimit="10" width="40" height="27"/>
	<line class="strokeColor" stroke-miterlimit="10" x1="1.5" y1="15.5" x2="19" y2="15.5"/>
	<line class="strokeColor" stroke-miterlimit="10" x1="1.5" y1="19.5" x2="19" y2="19.5"/>
	<line class="strokeColor" stroke-miterlimit="10" x1="1.5" y1="23.5" x2="19" y2="23.5"/>
	<line class="strokeColor" stroke-miterlimit="10" x1="1" y1="27.5" x2="12" y2="27.5"/>
	<line class="strokeColor" stroke-miterlimit="10" x1="41.5" y1="15.5" x2="24" y2="15.5"/>
	<line class="strokeColor" stroke-miterlimit="10" x1="41.5" y1="19.5" x2="24" y2="19.5"/>
	<line class="strokeColor" stroke-miterlimit="10" x1="41.5" y1="23.5" x2="24" y2="23.5"/>
	<line class="strokeColor" stroke-miterlimit="10" x1="42" y1="27.5" x2="32" y2="27.5"/>
</g>
</svg>
