<?xml version="1.0" encoding="utf-8"?>
<!-- Generator: Adobe Illustrator 18.0.0, SVG Export Plug-In . SVG Version: 6.00 Build 0)  -->
<!DOCTYPE svg PUBLIC "-//W3C//DTD SVG 1.1//EN" "http://www.w3.org/Graphics/SVG/1.1/DTD/svg11.dtd">
<svg version="1.1" id="Layer_1" xmlns="http://www.w3.org/2000/svg" xmlns:xlink="http://www.w3.org/1999/xlink" x="0px" y="0px"
	 viewBox="0 0 45 45" enable-background="new 0 0 45 45" xml:space="preserve">
	<style type="text/css">
			@import "../default/default/svg.css";
	</style>
	 <script type="text/javascript">
         <![CDATA[
             if(window.parent && window.parent.Wincor && window.parent.Wincor.UI && window.parent.Wincor.UI.Content) {
                 let styleRes = window.parent.Wincor.UI.Content.StyleResourceResolver;
                 if(styleRes) {
                 	let style = document.getElementsByTagName("style")[0];
                   	style.innerHTML = style.innerHTML.replace("default/svg.css", styleRes.type() + "svg.css");
                    styleRes = null;
                 }
             }
         ]]>
    </script>
<g class="shadowGroup1">
	<polygon  points="34,42 7,42 7,7 34,7 34,15 33,15 33,8 8,8 8,41 33,41 33,33 34,33 	"/>
	<circle  cx="34.5" cy="24" r="3"/>
	<path fill="none" stroke="#000000" stroke-miterlimit="10"  d="M25,24c1.7,3.5,5.3,6.5,9.5,6.5
		s7.8-3,9.5-6.5l0,0c-1.7-3.5-5.3-6.5-9.5-6.5S26.7,20.5,25,24z"/>
</g>
<g class="shadowGroup2">
	<polygon  points="33,41 6,41 6,6 33,6 33,14 32,14 32,7 7,7 7,40 32,40 32,32 33,32 	"/>
	<circle  cx="33.5" cy="23" r="3"/>
	<path fill="none" stroke="#000000" stroke-miterlimit="10"  d="M24,23c1.7,3.5,5.3,6.5,9.5,6.5
		s7.8-3,9.5-6.5l0,0c-1.7-3.5-5.3-6.5-9.5-6.5S25.7,19.5,24,23z"/>
</g>
<g class="shadowGroup3">
	<polygon  points="32,40 5,40 5,5 32,5 32,13 31,13 31,6 6,6 6,39 31,39 31,31 32,31 	"/>
	<circle  cx="32.5" cy="22" r="3"/>
	<path fill="none" stroke="#000000" stroke-miterlimit="10"  d="M23,22c1.7,3.5,5.3,6.5,9.5,6.5
		s7.8-3,9.5-6.5l0,0c-1.7-3.5-5.3-6.5-9.5-6.5S24.7,18.5,23,22z"/>
</g>
<g>
	<polygon class="fillColor" points="31,39 4,39 4,4 31,4 31,12 30,12 30,5 5,5 5,38 30,38 30,30 31,30 	"/>
	<circle class="fillColor" cx="31.5" cy="21" r="3"/>
	<path class="strokeColor" stroke-miterlimit="10" d="M22,21c1.7,3.5,5.3,6.5,9.5,6.5s7.8-3,9.5-6.5l0,0
		c-1.7-3.5-5.3-6.5-9.5-6.5S23.7,17.5,22,21z"/>
</g>
</svg>
