<?xml version="1.0" encoding="utf-8"?>
<!-- Generator: Adobe Illustrator 18.0.0, SVG Export Plug-In . SVG Version: 6.00 Build 0)  -->
<!DOCTYPE svg PUBLIC "-//W3C//DTD SVG 1.1//EN" "http://www.w3.org/Graphics/SVG/1.1/DTD/svg11.dtd">
<svg version="1.1" id="Ebene_1" xmlns="http://www.w3.org/2000/svg" xmlns:xlink="http://www.w3.org/1999/xlink" x="0px" y="0px"
	 viewBox="0 0 45 45" enable-background="new 0 0 45 45" xml:space="preserve">
 <style type="text/css">
			@import "../default/default/svg.css";
	</style>
	 <script type="text/javascript">
         <![CDATA[
             if(window.parent && window.parent.Wincor && window.parent.Wincor.UI && window.parent.Wincor.UI.Content) {
                 let styleRes = window.parent.Wincor.UI.Content.StyleResourceResolver;
                 if(styleRes) {
                 	let style = document.getElementsByTagName("style")[0];
                 	if(style.innerHTML) {
                    	style.innerHTML = style.innerHTML.replace("default/svg.css", styleRes.type() + "svg.css");
                    }
                    else {
                    	style.textContent = style.textContent.replace("default/svg.css", styleRes.type() + "svg.css");
                    }
                    styleRes = null;
                 }
             }
         ]]>
    </script>
<g class="shadowGroup1">
	<path fill="none" stroke="#000000" stroke-miterlimit="10" d="M8.195,25.802c-1.781-0.152-3.571,0.716-4.508,2.373
		c-1.281,2.266-0.482,5.141,1.785,6.421c2.266,1.281,5.141,0.482,6.421-1.785c0.434-0.768,0.623-1.604,0.604-2.426"/>
	<circle cx="7.93" cy="30.415" r="3.284"/>
	<path fill="none" stroke="#000000" stroke-miterlimit="10" d="M34.603,33.885c-0.002,1.787,1.014,3.498,2.744,4.292
		c2.365,1.085,5.163,0.047,6.248-2.319c1.085-2.365,0.047-5.163-2.319-6.248c-0.801-0.367-1.651-0.486-2.468-0.398"/>
	<circle cx="39.222" cy="33.762" r="3.284"/>
	<polygon points="22.968,29.661 26.992,29.661 26.992,30.575 22.694,30.575 	"/>
	<polygon points="26.992,16.858 26.717,17.773 37.965,17.773 37.965,33.318 21.779,33.318 21.505,34.233 21.505,34.233 
		38.879,34.233 38.879,16.858 	"/>
	<path d="M24.98,21.705L28.82,9.543l-0.914-0.274L26.717,13.2H7.788v17.375H21.23l-2.652,8.413l0.914,0.274l3.383-10.791
		c2.378-0.274,3.475-2.012,3.475-3.841C26.351,23.717,25.986,22.254,24.98,21.705z M23.334,23.808L23.334,23.808
		c-1.097-0.549-1.829-1.646-1.829-2.835c0-1.737,1.463-3.201,3.201-3.201c0.183,0,0.366,0,0.549,0.091L23.334,23.808z M8.702,29.661
		V14.115h17.649l-0.274,0.914H9.617v13.717h12.162l0.091-0.183l-0.366,1.189v-0.091H8.702z M22.694,26.003h-3.018v0.914h2.652
		l-0.274,0.914h-8.596c0.274-0.366,0.366-0.732,0.366-1.189c0-1.189-0.914-2.103-2.103-2.103c-0.457,0-0.823,0.183-1.189,0.366
		V18.87c0.366,0.274,0.732,0.366,1.189,0.366c1.189,0,2.103-0.914,2.103-2.103c0-0.457-0.183-0.823-0.366-1.189h12.345l-0.274,1.006
		c-0.274-0.091-0.549-0.091-0.823-0.091c-2.286,0-4.115,1.829-4.115,4.115c0,1.737,1.006,3.109,2.469,3.749L22.694,26.003z
		 M23.242,27.283l1.372-4.389c0.549,0.366,0.823,1.372,0.823,1.737C25.437,25.729,24.705,27.192,23.242,27.283z"/>
	<path d="M26.443,18.687l-0.366,0.914h6.767c-0.183,0.366-0.366,0.732-0.366,1.189c0,1.189,0.914,2.103,2.012,2.103
		c0.64,0,1.28-0.366,1.646-0.914v7.133c-0.366-0.549-1.006-0.914-1.646-0.914c-1.097,0-2.012,0.914-2.012,2.103
		c0,0.457,0.091,0.823,0.366,1.189H22.328l-0.274,0.914h14.997V18.687H26.443z"/>
</g>
<g class="shadowGroup2">
	<path fill="none" stroke="#000000" stroke-miterlimit="10" d="M7.649,24.948c-1.781-0.152-3.571,0.716-4.508,2.373
		c-1.281,2.266-0.482,5.141,1.785,6.421c2.266,1.281,5.141,0.482,6.421-1.785c0.434-0.768,0.623-1.604,0.604-2.426"/>
	<circle cx="7.383" cy="29.561" r="3.284"/>
	<path fill="none" stroke="#000000" stroke-miterlimit="10" d="M34.057,33.032c-0.002,1.787,1.014,3.498,2.744,4.292
		c2.365,1.085,5.163,0.047,6.248-2.319c1.085-2.365,0.047-5.163-2.319-6.248c-0.801-0.367-1.651-0.486-2.468-0.398"/>
	<circle cx="38.676" cy="32.908" r="3.284"/>
	<polygon points="22.422,28.807 26.445,28.807 26.445,29.722 22.147,29.722 	"/>
	<polygon points="26.445,16.005 26.171,16.919 37.419,16.919 37.419,32.465 21.233,32.465 20.959,33.38 20.959,33.38 38.333,33.38 
		38.333,16.005 	"/>
	<path d="M24.434,20.852l3.841-12.162L27.36,8.415l-1.189,3.932H7.242v17.375h13.443l-2.652,8.413l0.914,0.274l3.383-10.791
		c2.378-0.274,3.475-2.012,3.475-3.841C25.805,22.863,25.439,21.4,24.434,20.852z M22.788,22.955L22.788,22.955
		c-1.097-0.549-1.829-1.646-1.829-2.835c0-1.737,1.463-3.201,3.201-3.201c0.183,0,0.366,0,0.549,0.091L22.788,22.955z M8.156,28.807
		V13.262h17.649l-0.274,0.914H9.071v13.717h12.162l0.091-0.183l-0.366,1.189v-0.091H8.156z M22.147,25.149H19.13v0.914h2.652
		l-0.274,0.914h-8.596c0.274-0.366,0.366-0.732,0.366-1.189c0-1.189-0.914-2.103-2.103-2.103c-0.457,0-0.823,0.183-1.189,0.366
		v-6.035c0.366,0.274,0.732,0.366,1.189,0.366c1.189,0,2.103-0.914,2.103-2.103c0-0.457-0.183-0.823-0.366-1.189h12.345
		l-0.274,1.006c-0.274-0.091-0.549-0.091-0.823-0.091c-2.286,0-4.115,1.829-4.115,4.115c0,1.737,1.006,3.109,2.469,3.749
		L22.147,25.149z M22.696,26.43l1.372-4.389c0.549,0.366,0.823,1.372,0.823,1.737C24.891,24.875,24.159,26.338,22.696,26.43z"/>
	<path d="M25.897,17.834l-0.366,0.914h6.767c-0.183,0.366-0.366,0.732-0.366,1.189c0,1.189,0.914,2.103,2.012,2.103
		c0.64,0,1.28-0.366,1.646-0.914v7.133c-0.366-0.549-1.006-0.914-1.646-0.914c-1.097,0-2.012,0.914-2.012,2.103
		c0,0.457,0.091,0.823,0.366,1.189H21.782l-0.274,0.914h14.997V17.834H25.897z"/>
</g>
<g class="shadowGroup3">
	<path fill="none" stroke="#000000" stroke-miterlimit="10" d="M6.904,24.282c-1.781-0.152-3.571,0.716-4.508,2.373
		c-1.281,2.266-0.482,5.141,1.785,6.421c2.266,1.281,5.141,0.482,6.421-1.785c0.434-0.768,0.623-1.604,0.604-2.426"/>
	<circle cx="6.638" cy="28.895" r="3.284"/>
	<path fill="none" stroke="#000000" stroke-miterlimit="10" d="M33.312,32.366c-0.002,1.787,1.014,3.498,2.744,4.292
		c2.365,1.085,5.163,0.047,6.248-2.319c1.085-2.365,0.047-5.163-2.319-6.248c-0.801-0.367-1.651-0.486-2.468-0.398"/>
	<circle cx="37.931" cy="32.242" r="3.284"/>
	<polygon points="21.677,28.141 25.7,28.141 25.7,29.056 21.402,29.056 	"/>
	<polygon points="25.7,15.339 25.426,16.253 36.674,16.253 36.674,31.799 20.488,31.799 20.214,32.714 20.214,32.714 37.588,32.714 
		37.588,15.339 	"/>
	<path d="M23.689,20.186l3.841-12.162l-0.914-0.274l-1.189,3.932H6.497v17.375h13.443l-2.652,8.413l0.914,0.274l3.383-10.791
		c2.378-0.274,3.475-2.012,3.475-3.841C25.06,22.197,24.695,20.734,23.689,20.186z M22.043,22.289L22.043,22.289
		c-1.097-0.549-1.829-1.646-1.829-2.835c0-1.737,1.463-3.201,3.201-3.201c0.183,0,0.366,0,0.549,0.091L22.043,22.289z M7.411,28.141
		V12.596H25.06l-0.274,0.914H8.326v13.717h12.162l0.091-0.183l-0.366,1.189v-0.091H7.411z M21.402,24.484h-3.018v0.914h2.652
		l-0.274,0.914h-8.596c0.274-0.366,0.366-0.732,0.366-1.189c0-1.189-0.914-2.103-2.103-2.103c-0.457,0-0.823,0.183-1.189,0.366
		v-6.035c0.366,0.274,0.732,0.366,1.189,0.366c1.189,0,2.103-0.914,2.103-2.103c0-0.457-0.183-0.823-0.366-1.189h12.345
		l-0.274,1.006c-0.274-0.091-0.549-0.091-0.823-0.091c-2.286,0-4.115,1.829-4.115,4.115c0,1.737,1.006,3.109,2.469,3.749
		L21.402,24.484z M21.951,25.764l1.372-4.389c0.549,0.366,0.823,1.372,0.823,1.737C24.146,24.209,23.414,25.672,21.951,25.764z"/>
	<path d="M25.152,17.168l-0.366,0.914h6.767c-0.183,0.366-0.366,0.732-0.366,1.189c0,1.189,0.914,2.103,2.012,2.103
		c0.64,0,1.28-0.366,1.646-0.914v7.133c-0.366-0.549-1.006-0.914-1.646-0.914c-1.097,0-2.012,0.914-2.012,2.103
		c0,0.457,0.091,0.823,0.366,1.189H21.037l-0.274,0.914h14.997V17.168H25.152z"/>
</g>
<g>
	<path class="strokeColor" fill="none" stroke="#000000" stroke-miterlimit="10" d="M6.081,23.429C4.3,23.277,2.51,24.145,1.573,25.803
		c-1.281,2.266-0.482,5.141,1.785,6.421c2.266,1.281,5.141,0.482,6.421-1.785c0.434-0.768,0.623-1.604,0.604-2.426"/>
	<circle class="fillColor" cx="5.815" cy="28.042" r="3.284"/>
	<path class="strokeColor" fill="none" stroke="#000000" stroke-miterlimit="10" d="M32.489,31.513c-0.002,1.787,1.014,3.498,2.744,4.292
		c2.365,1.085,5.163,0.047,6.248-2.319c1.085-2.365,0.047-5.163-2.319-6.248c-0.801-0.367-1.651-0.486-2.468-0.398"/>
	<circle class="fillColor" cx="37.108" cy="31.389" r="3.284"/>
	<polygon class="fillColor" points="20.854,27.288 24.877,27.288 24.877,28.202 20.579,28.202 	"/>
	<polygon class="fillColor" points="24.877,14.486 24.603,15.4 35.851,15.4 35.851,30.946 19.665,30.946 19.391,31.86 19.391,31.86 36.765,31.86 
		36.765,14.486 	"/>
	<path class="fillColor" d="M22.865,19.332L26.706,7.17l-0.914-0.274l-1.189,3.932H5.674v17.375h13.443l-2.652,8.413l0.914,0.274l3.383-10.791
		c2.378-0.274,3.475-2.012,3.475-3.841C24.237,21.344,23.871,19.881,22.865,19.332z M21.219,21.435L21.219,21.435
		c-1.097-0.549-1.829-1.646-1.829-2.835c0-1.737,1.463-3.201,3.201-3.201c0.183,0,0.366,0,0.549,0.091L21.219,21.435z M6.588,27.288
		V11.742h17.649l-0.274,0.914H7.503v13.717h12.162l0.091-0.183l-0.366,1.189v-0.091H6.588z M20.579,23.63h-3.018v0.914h2.652
		l-0.274,0.914h-8.596c0.274-0.366,0.366-0.732,0.366-1.189c0-1.189-0.914-2.103-2.103-2.103c-0.457,0-0.823,0.183-1.189,0.366
		v-6.035c0.366,0.274,0.732,0.366,1.189,0.366c1.189,0,2.103-0.914,2.103-2.103c0-0.457-0.183-0.823-0.366-1.189h12.345
		l-0.274,1.006c-0.274-0.091-0.549-0.091-0.823-0.091c-2.286,0-4.115,1.829-4.115,4.115c0,1.737,1.006,3.109,2.469,3.749
		L20.579,23.63z M21.128,24.91l1.372-4.389c0.549,0.366,0.823,1.372,0.823,1.737C23.323,23.356,22.591,24.819,21.128,24.91z"/>
	<path class="fillColor" d="M24.329,16.315l-0.366,0.914h6.767c-0.183,0.366-0.366,0.732-0.366,1.189c0,1.189,0.914,2.103,2.012,2.103
		c0.64,0,1.28-0.366,1.646-0.914v7.133c-0.366-0.549-1.006-0.914-1.646-0.914c-1.097,0-2.012,0.914-2.012,2.103
		c0,0.457,0.091,0.823,0.366,1.189H20.214l-0.274,0.914h14.997V16.315H24.329z"/>
</g>
</svg>
