<?xml version="1.0" encoding="utf-8"?>
<!-- Generator: Adobe Illustrator 18.0.0, SVG Export Plug-In . SVG Version: 6.00 Build 0)  -->
<!DOCTYPE svg PUBLIC "-//W3C//DTD SVG 1.1//EN" "http://www.w3.org/Graphics/SVG/1.1/DTD/svg11.dtd">
<svg version="1.1" id="Ebene_1" xmlns="http://www.w3.org/2000/svg" xmlns:xlink="http://www.w3.org/1999/xlink" x="0px" y="0px"
	 viewBox="0 0 45 45" enable-background="new 0 0 45 45" xml:space="preserve">
	 <style type="text/css">
			@import "../default/default/svg.css";
	</style>
	 <script type="text/javascript">
         <![CDATA[
             if(window.parent && window.parent.Wincor && window.parent.Wincor.UI && window.parent.Wincor.UI.Content) {
                 let styleRes = window.parent.Wincor.UI.Content.StyleResourceResolver;
                 if(styleRes) {
                 	let style = document.getElementsByTagName("style")[0];
                 	if(style.innerHTML) {
                    	style.innerHTML = style.innerHTML.replace("default/svg.css", styleRes.type() + "svg.css");
                    }
                    else {
                    	style.textContent = style.textContent.replace("default/svg.css", styleRes.type() + "svg.css");
                    }
                    styleRes = null;
                 }
             }
         ]]>
    </script>
<g class="shadowGroup1">
	<path fill="#000000" d="M22.156,33.239c1.172,2.023,3.356,3.387,5.862,3.385c3.737-0.004,6.764-3.036,6.76-6.774
		c-0.004-3.737-3.036-6.764-6.774-6.76c-1.405,0.001-2.709,0.431-3.79,1.165L22.156,33.239z"/>
	<path fill="none" stroke="#000000" stroke-miterlimit="10" d="M21.364,35.8c1.661,1.916,4.104,3.136,6.839,3.143
		c5.019,0.013,9.098-4.045,9.111-9.063c0.013-5.019-4.045-9.098-9.063-9.111c-1.312-0.003-2.557,0.277-3.685,0.774"/>
	<g>
		<path fill="#000000" d="M23.792,14.348c-1.17-2.025-3.352-3.39-5.859-3.39c-3.737,0-6.767,3.03-6.767,6.767
			c0,3.737,3.03,6.767,6.767,6.767c1.405,0,2.709-0.428,3.791-1.161L23.792,14.348z"/>
		<path fill="none" stroke="#000000" stroke-miterlimit="10" d="M24.815,11.762c-1.666-1.912-4.112-3.125-6.847-3.125
			c-5.019,0-9.088,4.069-9.088,9.088c0,5.019,4.069,9.088,9.088,9.088c1.312,0,2.556-0.284,3.683-0.784"/>
		
			<rect x="21.768" y="6.812" transform="matrix(-0.9751 -0.2216 0.2216 -0.9751 39.03 50.1909)" fill="#000000" width="1.125" height="32.188"/>
	</g>
</g>
<g class="shadowGroup2">
	<path fill="#000000" d="M21.46,32.342c1.172,2.023,3.356,3.387,5.862,3.385c3.737-0.004,6.764-3.036,6.76-6.774
		c-0.004-3.737-3.036-6.764-6.774-6.76c-1.405,0.001-2.709,0.431-3.79,1.165L21.46,32.342z"/>
	<path fill="none" stroke="#000000" stroke-miterlimit="10" d="M20.669,34.904c1.661,1.916,4.104,3.136,6.839,3.143
		c5.019,0.013,9.098-4.045,9.111-9.063c0.013-5.019-4.045-9.098-9.063-9.111c-1.312-0.003-2.557,0.277-3.685,0.774"/>
	<g>
		<path fill="#000000" d="M23.097,13.451c-1.17-2.025-3.352-3.39-5.859-3.39c-3.737,0-6.767,3.03-6.767,6.767
			c0,3.737,3.03,6.767,6.767,6.767c1.405,0,2.709-0.428,3.791-1.161L23.097,13.451z"/>
		<path fill="none" stroke="#000000" stroke-miterlimit="10" d="M24.12,10.865c-1.666-1.912-4.112-3.125-6.847-3.125
			c-5.019,0-9.088,4.069-9.088,9.088c0,5.019,4.069,9.088,9.088,9.088c1.312,0,2.556-0.284,3.683-0.784"/>
		
			<rect x="21.073" y="5.915" transform="matrix(-0.9751 -0.2216 0.2216 -0.9751 37.8557 48.2657)" fill="##000000" width="1.125" height="32.188"/>
	</g>
</g>
<g class="shadowGroup3">
	<path fill="#000000" d="M20.765,31.405c1.172,2.023,3.356,3.387,5.862,3.385c3.737-0.004,6.764-3.036,6.76-6.774
		c-0.004-3.737-3.036-6.764-6.774-6.76c-1.405,0.001-2.709,0.431-3.79,1.165L20.765,31.405z"/>
	<path fill="none" stroke="#000000" stroke-miterlimit="10" d="M19.973,33.966c1.661,1.916,4.104,3.136,6.839,3.143
		c5.019,0.013,9.098-4.045,9.111-9.063c0.013-5.019-4.045-9.098-9.063-9.111c-1.312-0.003-2.557,0.277-3.685,0.774"/>
	<g>
		<path fill="#000000" d="M22.402,12.513c-1.17-2.025-3.352-3.39-5.859-3.39c-3.737,0-6.767,3.03-6.767,6.767
			c0,3.737,3.03,6.767,6.767,6.767c1.405,0,2.709-0.428,3.791-1.161L22.402,12.513z"/>
		<path fill="none" stroke="#000000" stroke-miterlimit="10" d="M23.425,9.928c-1.666-1.912-4.112-3.125-6.847-3.125
			c-5.019,0-9.088,4.069-9.088,9.088c0,5.019,4.069,9.088,9.088,9.088c1.312,0,2.556-0.284,3.683-0.784"/>
		
			<rect x="20.378" y="4.978" transform="matrix(-0.9751 -0.2216 0.2216 -0.9751 36.6904 46.2599)" fill="#000000" width="1.125" height="32.188"/>
	</g>
</g>
<g>
	<path class="fillColor" d="M20.07,30.624c1.172,2.023,3.356,3.387,5.862,3.385c3.737-0.004,6.764-3.036,6.76-6.774
		c-0.004-3.737-3.036-6.764-6.774-6.76c-1.405,0.001-2.709,0.431-3.79,1.165L20.07,30.624z"/>
	<path class="strokeColor" stroke-width="1.5" fill="none" stroke="#231F20" stroke-miterlimit="10" d="M19.278,33.185c1.661,1.916,4.104,3.136,6.839,3.143
		c5.019,0.013,9.098-4.045,9.111-9.063c0.013-5.019-4.045-9.098-9.063-9.111c-1.312-0.003-2.557,0.277-3.685,0.774"/>
	<g>
		<path class="fillColor" d="M21.707,11.733c-1.17-2.025-3.352-3.39-5.859-3.39c-3.737,0-6.767,3.03-6.767,6.767
			c0,3.737,3.03,6.767,6.767,6.767c1.405,0,2.709-0.428,3.791-1.161L21.707,11.733z"/>
		<path class="strokeColor" stroke-width="1.5" fill="none" stroke="#231F20" stroke-miterlimit="10" d="M22.73,9.147c-1.666-1.912-4.112-3.125-6.847-3.125
			c-5.019,0-9.088,4.069-9.088,9.088c0,5.019,4.069,9.088,9.088,9.088c1.312,0,2.556-0.284,3.683-0.784"/>
		
			<rect class="fillColor" x="19.683" y="4.197" transform="matrix(-0.9751 -0.2216 0.2216 -0.9751 35.4904 44.5637)" width="1.125" height="32.188"/>
	</g>
</g>
</svg>
