<?xml version="1.0" encoding="utf-8"?>
<!-- Generator: Adobe Illustrator 23.0.2, SVG Export Plug-In . SVG Version: 6.00 Build 0)  -->
<svg version="1.1" id="Layer_1" xmlns="http://www.w3.org/2000/svg" xmlns:xlink="http://www.w3.org/1999/xlink" x="0px" y="0px"
	 viewBox="0 0 45 45" enable-background="new 0 0 45 45" xml:space="preserve">
	<style type="text/css">
			@import "../default/default/svg.css";
	</style>
	<script type="text/javascript">
		<![CDATA[
			 if(window.parent && window.parent.Wincor && window.parent.Wincor.UI && window.parent.Wincor.UI.Content) {
				 let styleRes = window.parent.Wincor.UI.Content.StyleResourceResolver;
				 if(styleRes) {
					let style = document.getElementsByTagName("style")[0];
					style.innerHTML = style.innerHTML.replace("default/svg.css", styleRes.type() + "svg.css");
					styleRes = null;
				 }
			 }
		]]>
	</script>
	<g class="shadowGroup1">
		<path fill="none" stroke="#000000" stroke-miterlimit="10" d="M32.3,10.4l4.2-3.1l3.3,3.3l-3.2,4.1c1.1,1.6,1.8,3.4,2.2,5.3v0.1
			l5.2,0.8v4.6l-5.2,0.7c-0.4,1.9-1.1,3.7-2.2,5.3v0.1l3.1,4.2L36.4,39l-4.1-3.2c-1.6,1.1-3.4,1.8-5.3,2.2h-0.1l-0.7,5.2h-4.7
			L20.8,38c-1.9-0.4-3.7-1.1-5.3-2.2h-0.1l-4.2,3l-3.3-3.3l3.2-4.1c-1.1-1.6-1.8-3.4-2.2-5.3v-0.1l-5.2-0.8v-4.7l5.2-0.7
			c0.4-1.9,1.1-3.7,2.2-5.3v-0.1l-3-4.1L11.4,7l4.1,3.2c1.6-1.1,3.4-1.8,5.3-2.2h0.1l0.8-5.2h4.6L27,8.1C28.9,8.6,30.7,9.3,32.3,10.4
			L32.3,10.4z"/>
		<circle fill="none" stroke="#000000" stroke-miterlimit="10" cx="23.9" cy="23" r="10.6"/>
	</g>
	<g class="shadowGroup2">
		<path fill="none" stroke="#000000" stroke-miterlimit="10" d="M31.3,9.4l4.2-3.1l3.3,3.3l-3.2,4.1c1.1,1.6,1.8,3.4,2.2,5.3v0.1
			l5.2,0.8v4.6l-5.2,0.7c-0.4,1.9-1.1,3.7-2.2,5.3v0.1l3.1,4.2l-3.3,3.3l-4.1-3.2c-1.6,1.1-3.4,1.8-5.3,2.2h-0.1l-0.8,5.2h-4.7
			l-0.7-5.2c-1.9-0.4-3.7-1.1-5.3-2.2h-0.1l-4.2,3l-3.3-3.3l3.2-4.1c-1.1-1.6-1.8-3.4-2.2-5.3v-0.1l-5.2-0.8v-4.7l5.2-0.7
			c0.4-1.9,1.1-3.7,2.2-5.3v-0.1L7,9.4l3.3-3.3l4.1,3.2c1.6-1.1,3.4-1.8,5.3-2.2h0.1L20.6,2h4.6l0.7,5.2C27.9,7.6,29.7,8.3,31.3,9.4
			L31.3,9.4z"/>
		<circle fill="none" stroke="#000000" stroke-miterlimit="10" cx="22.9" cy="22.1" r="10.6"/>
	</g>
	<g class="shadowGroup3">
		<path fill="none" stroke="#000000" stroke-miterlimit="10" d="M29.9,8.6l4.2-3.1l3.3,3.3l-3.2,4.1c1.1,1.6,1.8,3.4,2.2,5.3v0.1
			l5.2,0.8v4.6l-5.2,0.7c-0.4,1.9-1.1,3.7-2.2,5.3v0.1l3.1,4.2L34,37.3l-4.1-3.2c-1.6,1.1-3.4,1.8-5.3,2.2h-0.1l-0.8,5.2H19l-0.7-5.2
			c-1.9-0.4-3.7-1.1-5.3-2.2h-0.1l-4.2,3l-3.3-3.3l3.2-4.1c-1.1-1.6-1.8-3.4-2.2-5.3v-0.1l-5.2-0.8v-4.7l5.3-0.6
			c0.4-1.9,1.1-3.7,2.2-5.3v-0.1l-3-4.1L9,5.4l4.1,3.2c1.6-1.1,3.4-1.8,5.3-2.2h0.1l0.8-5.2h4.6l0.7,5.2C26.5,6.8,28.3,7.6,29.9,8.6
			L29.9,8.6z"/>
		<circle fill="none" stroke="#000000" stroke-miterlimit="10" cx="21.5" cy="21.4" r="10.6"/>
	</g>
	<g>
		<path class="strokeColor" d="M28.9,7.6l4.2-3.1l3.3,3.3l-3.2,4.1c1.1,1.6,1.8,3.4,2.2,5.3v0.1l5.2,0.8v4.6l-5.2,0.7c-0.4,1.9-1.1,3.7-2.2,5.3v0.1
			l3.1,4.2L33,36.3l-4.1-3.1c-1.6,1.1-3.4,1.8-5.3,2.2h-0.1l-0.8,5.2H18l-0.7-5.2c-1.9-0.4-3.7-1.1-5.3-2.2h-0.1l-4.2,3L4.4,33
			l3.2-4.1c-1.1-1.6-1.8-3.4-2.2-5.3v-0.1l-5.2-0.8V18l5.3-0.7c0.4-1.9,1.1-3.7,2.2-5.3v-0.1l-3-4.1L8,4.4l4.1,3.2
			c1.6-1.1,3.4-1.8,5.3-2.2h0.1l0.8-5.2h4.6l0.7,5.2C25.5,5.8,27.3,6.6,28.9,7.6L28.9,7.6z"/>
		<circle class="strokeColor" cx="20.5" cy="20.5" r="10.6"/>
	</g>
</svg>
