<?xml version="1.0" encoding="utf-8"?>
<!-- Generator: Adobe Illustrator 18.0.0, SVG Export Plug-In . SVG Version: 6.00 Build 0)  -->
<!DOCTYPE svg PUBLIC "-//W3C//DTD SVG 1.1//EN" "http://www.w3.org/Graphics/SVG/1.1/DTD/svg11.dtd">
<svg version="1.1" id="Ebene_1" xmlns="http://www.w3.org/2000/svg" xmlns:xlink="http://www.w3.org/1999/xlink" x="0px" y="0px"
	 viewBox="0 0 45 45" enable-background="new 0 0 45 45" xml:space="preserve">
<style type="text/css">
			@import "../default/default/svg.css";
	</style>
	 <script type="text/javascript">
         <![CDATA[
             if(window.parent && window.parent.Wincor && window.parent.Wincor.UI && window.parent.Wincor.UI.Content) {
                 let styleRes = window.parent.Wincor.UI.Content.StyleResourceResolver;
                 if(styleRes) {
                 	let style = document.getElementsByTagName("style")[0];
                 	if(style.innerHTML) {
                    	style.innerHTML = style.innerHTML.replace("default/svg.css", styleRes.type() + "svg.css");
                    }
                    else {
                    	style.textContent = style.textContent.replace("default/svg.css", styleRes.type() + "svg.css");
                    }
                    styleRes = null;
                 }
             }
         ]]>
    </script>	
<g class="shadowGroup1">
	<ellipse fill="none" stroke="#000000" stroke-width="0.75" stroke-miterlimit="10" cx="18.4" cy="11.2" rx="5.6" ry="6.2"/>
	<circle fill="none" stroke="#000000" stroke-width="0.75" stroke-miterlimit="10" cx="27.5" cy="27" r="4.1"/>
	<path fill="none" stroke="#000000" stroke-width="0.75" stroke-miterlimit="10" d="M29.7,21.5L31,20l1.5,1l-0.8,1.8
		c0.5,0.5,1,1.1,1.3,1.9l0,0l2-0.1l0.4,1.8L33.6,27c0,0.7-0.1,1.5-0.4,2.2l0,0l1.5,1.3l-1,1.5l-1.8-0.8c-0.5,0.5-1.1,1-1.9,1.3l0,0
		l0.1,2L28.3,35l-0.7-1.9c-0.7,0-1.5-0.1-2.2-0.4l0,0l-1.3,1.5l-1.5-1l0.8-1.8c-0.5-0.5-1-1.1-1.3-1.9l0,0l-2,0.1l-0.4-1.8l2-0.7
		c0-0.7,0.1-1.5,0.4-2.2l0,0l-1.5-1.3l1-1.5l1.8,0.8c0.5-0.5,1.1-1,1.9-1.3l0,0l-0.1-2l1.8-0.4l0.7,1.9
		C28.2,21.1,28.9,21.2,29.7,21.5L29.7,21.5z"/>
	<g>
		<path fill="none" stroke="#000000" stroke-width="0.75" stroke-miterlimit="10" d="M28.1,18.1c0-0.1,0-1.6-1.3-2.2
			c-2.8-1.4-3.8,0.2-4.6,1.3c-1.2,1.9-3.3,3.8-7.4,0.3c-2.2-1.5-4.1,0.3-4.6,1.6C8.5,23.6,8.6,36,8.6,36h17.7"/>
	</g>
</g>
<g class="shadowGroup2">
	<ellipse fill="none" stroke="#000000" stroke-width="0.75" stroke-miterlimit="10" cx="18.1" cy="10.7" rx="5.6" ry="6.2"/>
	<circle fill="none" stroke="#000000" stroke-width="0.75" stroke-miterlimit="10" cx="27.2" cy="26.6" r="4.1"/>
	<path fill="none" stroke="#000000" stroke-width="0.75" stroke-miterlimit="10" d="M29.4,21l1.3-1.5l1.5,1l-0.8,1.8
		c0.5,0.5,1,1.1,1.3,1.9l0,0l2-0.1l0.4,1.8l-1.9,0.7c0,0.7-0.1,1.5-0.4,2.2l0,0l1.5,1.3l-1,1.5l-1.8-0.8c-0.5,0.5-1.1,1-1.9,1.3l0,0
		l0.1,2L28,34.5l-0.7-1.9c-0.7,0-1.5-0.1-2.2-0.4l0,0l-1.3,1.5l-1.5-1l0.8-1.8c-0.5-0.5-1-1.1-1.3-1.9l0,0l-2,0.1l-0.4-1.8l2-0.7
		c0-0.7,0.1-1.5,0.4-2.2l0,0l-1.5-1.3l1-1.5l1.8,0.8c0.5-0.5,1.1-1,1.9-1.3l0,0l-0.1-2l1.8-0.4l0.7,1.9C27.9,20.6,28.6,20.8,29.4,21
		L29.4,21z"/>
	<g>
		<path fill="none" stroke="#000000" stroke-width="0.75" stroke-miterlimit="10" d="M27.8,17.6c0-0.1,0-1.6-1.3-2.2
			c-2.8-1.4-3.8,0.2-4.6,1.3c-1.2,1.9-3.3,3.8-7.4,0.3c-2.2-1.5-4.1,0.3-4.6,1.6c-1.7,4.5-1.6,16.9-1.6,16.9H26"/>
	</g>
</g>
<g class="shadowGroup3">
	<ellipse fill="none" stroke="#000000" stroke-width="0.75" stroke-miterlimit="10" cx="17.7" cy="10.2" rx="5.6" ry="6.2"/>
	<circle fill="none" stroke="#000000" stroke-width="0.75" stroke-miterlimit="10" cx="26.8" cy="26.1" r="4.1"/>
	<path fill="none" stroke="#000000" stroke-width="0.75" stroke-miterlimit="10" d="M29,20.5l1.3-1.5l1.5,1L31,21.8
		c0.5,0.5,1,1.1,1.3,1.9l0,0l2-0.1l0.4,1.8L32.8,26c0,0.7-0.1,1.5-0.4,2.2l0,0l1.5,1.3l-1,1.5l-1.8-0.8c-0.5,0.5-1.1,1-1.9,1.3l0,0
		l0.1,2L27.6,34l-0.7-1.9c-0.7,0-1.5-0.1-2.2-0.4l0,0l-1.3,1.5l-1.5-1l0.8-1.8c-0.5-0.5-1-1.1-1.3-1.9l0,0l-2,0.1l-0.4-1.8l2-0.7
		c0-0.7,0.1-1.5,0.4-2.2l0,0l-1.5-1.3l1-1.5l1.8,0.8c0.5-0.5,1.1-1,1.9-1.3l0,0l-0.1-2l1.8-0.4l0.7,1.9C27.4,20.1,28.2,20.3,29,20.5
		L29,20.5z"/>
	<g>
		<path fill="none" stroke="#000000" stroke-width="0.75" stroke-miterlimit="10" d="M27.4,17.1c0-0.1,0-1.6-1.3-2.2
			c-2.8-1.4-3.8,0.2-4.6,1.3c-1.2,1.9-3.3,3.8-7.4,0.3c-2.2-1.5-4.1,0.3-4.6,1.6c-1.7,4.5-1.6,16.9-1.6,16.9h17.7"/>
	</g>
</g>
<g>
	<ellipse class="strokeColor" fill="none" stroke="#000000" stroke-width="0.75" stroke-miterlimit="10" cx="17.3" cy="9.8" rx="5.6" ry="6.2"/>
	<circle class="strokeColor" fill="none" stroke="#000000" stroke-width="0.75" stroke-miterlimit="10" cx="26.4" cy="25.7" r="4.1"/>
	<path class="strokeColor" fill="none" stroke="#000000" stroke-width="0.75" stroke-miterlimit="10" d="M28.6,20.1l1.3-1.5l1.5,1l-0.8,1.8
		c0.5,0.5,1,1.1,1.3,1.9l0,0l2-0.1l0.4,1.8l-1.9,0.7c0,0.7-0.1,1.5-0.4,2.2l0,0l1.5,1.3l-1,1.5l-1.8-0.8c-0.5,0.5-1.1,1-1.9,1.3l0,0
		l0.1,2l-1.8,0.4l-0.7-1.9c-0.7,0-1.5-0.1-2.2-0.4l0,0l-1.3,1.5l-1.5-1l0.8-1.8c-0.5-0.5-1-1.1-1.3-1.9l0,0l-2,0.1l-0.4-1.8l2-0.7
		c0-0.7,0.1-1.5,0.4-2.2l0,0l-1.5-1.3l1-1.5l1.8,0.8c0.5-0.5,1.1-1,1.9-1.3l0,0l-0.1-2l1.8-0.4l0.7,1.9
		C27.1,19.7,27.8,19.9,28.6,20.1L28.6,20.1z"/>
	<g>
		<path class="strokeColor" fill="none" stroke="#000000" stroke-width="0.75" stroke-miterlimit="10" d="M27,16.7c0-0.1,0-1.6-1.3-2.2
			c-2.8-1.4-3.8,0.2-4.6,1.3c-1.2,1.9-3.3,3.8-7.4,0.3c-2.2-1.5-4.1,0.3-4.6,1.6c-1.7,4.5-1.6,16.9-1.6,16.9h17.7"/>
	</g>
</g>
</svg>
