<?xml version="1.0" encoding="utf-8"?>
<!-- Generator: Adobe Illustrator 23.0.2, SVG Export Plug-In . SVG Version: 6.00 Build 0)  -->
<svg version="1.1" id="receipt" xmlns="http://www.w3.org/2000/svg" xmlns:xlink="http://www.w3.org/1999/xlink" x="0px" y="0px"
	 viewBox="0 0 23 45" enable-background="new 0 0 23 45" xml:space="preserve">
    <style type="text/css">
        @import "../default/default/svg.css";
    </style>

	<script type="text/javascript">
	<![CDATA[
		 if(window.parent && window.parent.Wincor && window.parent.Wincor.UI && window.parent.Wincor.UI.Content) {
			 let styleRes = window.parent.Wincor.UI.Content.StyleResourceResolver;
			 if(styleRes) {
				let style = document.getElementsByTagName("style")[0];
				style.innerHTML = style.innerHTML.replace("default/svg.css", styleRes.type() + "svg.css");
				styleRes = null;
			 }
		 }
	]]>
	</script>
	<polygon fill="#FFFFFF" points="22.8,45 22.8,0 0.2,0 0.2,45 "/>
	<text transform="matrix(1 0 0 1 2 3.615)" fill="#646464" font-family="'ArialMT'" font-size="1.95px">BANK</text>
	<text id="date" transform="matrix(1 0 0 1 2.2 7)" fill="#646464" font-family="'ArialMT'" font-size="1.5px">Date</text>
	<text id="time" transform="matrix(0.5 0 0 1 2.2 10)" fill="#646464" font-family="'ArialMT'" font-size="3px">Time</text>
	<text id="headline" transform="matrix(1 0 0 1 2.2 13.0724)" fill="#646464" font-family="'ArialMT'" font-size="1.95px"> </text>
	<rect x="2.2" y="17.3" fill="#A5A5A5" width="11.4" height="0.6"/>
	<rect x="15.3" y="17.3" fill="#A5A5A5" width="5.6" height="0.6"/>
	<rect x="2.2" y="19.5" fill="#A5A5A5" width="11.4" height="0.6"/>
	<rect x="15.3" y="19.5" fill="#A5A5A5" width="5.6" height="0.6"/>
	<rect x="2.2" y="21.8" fill="#A5A5A5" width="11.4" height="0.6"/>
	<rect x="15.3" y="21.8" fill="#A5A5A5" width="5.6" height="0.6"/>
	<rect x="2.2" y="24" fill="#A5A5A5" width="11.4" height="0.6"/>
	<rect x="15.3" y="24" fill="#A5A5A5" width="5.6" height="0.6"/>
	<rect x="2.2" y="26.3" fill="#A5A5A5" width="11.4" height="0.6"/>
	<rect x="15.3" y="26.3" fill="#A5A5A5" width="5.6" height="0.6"/>
	<rect x="2.2" y="28.5" fill="#A5A5A5" width="11.4" height="0.6"/>
	<rect x="15.3" y="28.5" fill="#A5A5A5" width="5.6" height="0.6"/>
	<rect x="2.2" y="30.8" fill="#A5A5A5" width="11.4" height="0.6"/>
	<rect x="15.3" y="30.8" fill="#A5A5A5" width="5.6" height="0.6"/>
	<rect x="2.2" y="33" fill="#A5A5A5" width="11.4" height="0.6"/>
	<rect x="8.4" y="41.9" fill="#646464" width="6.3" height="0.6"/>
	<rect x="2.2" y="41.9" fill="#646464" width="1.5" height="0.6"/>
	<rect x="4.3" y="41.9" fill="#646464" width="1.5" height="0.6"/>
	<rect x="19" y="41.9" fill="#646464" width="0.8" height="0.6"/>
	<rect x="15.3" y="33" fill="#A5A5A5" width="5.6" height="0.6"/>
	<line fill="none" stroke="#646464" stroke-miterlimit="10" stroke-dasharray="10,8" x1="2.2" y1="15.1" x2="20.8" y2="15.1"/>
	<line fill="none" stroke="#646464" stroke-miterlimit="10" stroke-dasharray="10,8" x1="2.2" y1="40.9" x2="20.8" y2="40.9"/>
	<script type="text/javascript">
		<![CDATA[
			// try to get some info
			if(window.parent && window.parent.Wincor && window.parent.Wincor.UI && window.parent.Wincor.UI.Content) {
				let vm = window.parent.Wincor.UI.Content.ViewModelContainer.getById("flexMain");
				if(vm && vm.bankingContext && vm.bankingContext.dateTime) {
					let dateTime = vm.bankingContext.dateTime;
					let ko = window.parent.require('knockout');
					document.getElementById("date").textContent = dateTime.date !== void 0 ? dateTime.date : "Date";
					document.getElementById("time").textContent = `${dateTime.time !== void 0 ? dateTime.time : "Time"} ${dateTime.meridiem !== void 0 ? dateTime.meridiem : ""}`;
					let text = ko.unwrap(vm.getLabel("GUI_[#VIEW_KEY#]_Headline", "RECEIPT"));
					document.getElementById("headline").textContent = text ? text.substring(0, 25) : "RECEIPT";
				}
			}
		]]>
	</script>
</svg>
