<?xml version="1.0" encoding="utf-8"?>
<!-- Generator: Adobe Illustrator 17.1.0, SVG Export Plug-In . SVG Version: 6.00 Build 0)  -->
<!DOCTYPE svg PUBLIC "-//W3C//DTD SVG 1.1//EN" "http://www.w3.org/Graphics/SVG/1.1/DTD/svg11.dtd">
<svg version="1.1" id="Layer_1" xmlns="http://www.w3.org/2000/svg" xmlns:xlink="http://www.w3.org/1999/xlink" x="0px" y="0px"
	 viewBox="0 0 45 45" enable-background="new 0 0 45 45" xml:space="preserve">

	<style type="text/css">
			@import "../default/default/svg.css";
	</style>
	 <script type="text/javascript">
         <![CDATA[
             if(window.parent && window.parent.Wincor && window.parent.Wincor.UI && window.parent.Wincor.UI.Content) {
                 let styleRes = window.parent.Wincor.UI.Content.StyleResourceResolver;
                 if(styleRes) {
                 	let style = document.getElementsByTagName("style")[0];
                   	style.innerHTML = style.innerHTML.replace("default/svg.css", styleRes.type() + "svg.css");
                    styleRes = null;
                 }
             }
         ]]>
    </script>

    <g class="shadowGroup1">
        <path fill="none" stroke="#000000" stroke-miterlimit="10" d="M29.8,12.2c4,1.3,7.3,4.3,8.8,8.6c2.6,7.3-1.2,15.2-8.5,17.8
            s-15.2-1.2-17.8-8.5s1.2-15.2,8.5-17.8"/>
        <polyline fill="none" stroke="#000000" stroke-miterlimit="10" points="31.4,20.1 29.8,12.2 37.6,10.6 	"/>
    </g>
    <g class="shadowGroup2">
        <path fill="none" stroke="#000000" stroke-miterlimit="10" d="M28.8,11.2c4,1.3,7.3,4.3,8.8,8.6c2.6,7.3-1.2,15.2-8.5,17.8
            s-15.2-1.2-17.8-8.5s1.2-15.2,8.5-17.8"/>
        <polyline fill="none" stroke="#000000" stroke-miterlimit="10" points="30.4,19.1 28.8,11.2 36.6,9.6 	"/>
    </g>
    <g class="shadowGroup3">
        <path fill="none" stroke="#000000" stroke-miterlimit="10" d="M27.8,10.2c4,1.3,7.3,4.3,8.8,8.6c2.6,7.3-1.2,15.2-8.5,17.8
            s-15.2-1.2-17.8-8.5s1.2-15.2,8.5-17.8"/>
        <polyline fill="none" stroke="#000000" stroke-miterlimit="10" points="29.4,18.1 27.8,10.2 35.6,8.6 	"/>
    </g>
    <g>
        <path id="path1" class="strokeColor" stroke-miterlimit="10" d="M26.8,9.2c4,1.3,7.3,4.3,8.8,8.6c2.6,7.3-1.2,15.2-8.5,17.8
            s-15.2-1.2-17.8-8.5s1.2-15.2,8.5-17.8"/>
        <polyline id="line1" class="strokeColor" stroke-miterlimit="10" points="28.4,17.1 26.8,9.2 34.6,7.6 	"/>
    </g>


    <script type="text/javascript">
        <![CDATA[
            let id = this.frameElement && this.frameElement.parentElement ? this.frameElement.parentElement.id : "";
            if(id === "buttonCorrect" || id === "buttonCorrectPopup") {
                document.getElementById("path1").setAttribute("class", "strokeColor02");
                document.getElementById("line1").setAttribute("class", "strokeColor02");
            }
        ]]>
    </script>

</svg>
