<?xml version="1.0" encoding="utf-8"?>
<!-- Generator: Adobe Illustrator 17.1.0, SVG Export Plug-In . SVG Version: 6.00 Build 0)  -->
<!DOCTYPE svg PUBLIC "-//W3C//DTD SVG 1.1//EN" "http://www.w3.org/Graphics/SVG/1.1/DTD/svg11.dtd">
<svg version="1.1" id="Layer_1" xmlns="http://www.w3.org/2000/svg" xmlns:xlink="http://www.w3.org/1999/xlink" x="0px" y="0px"
	 viewBox="0 0 390 170" enable-background="new 0 0 390 170" xml:space="preserve">
    <style type="text/css">
        @import "../default/default/svg.css";
    </style>
    <g>
        <rect x="2.5" y="2.5" fill="#DAE8ED" width="385" height="165"/>
        <path id="valueColor01" fill="#95BDD4" d="M385,5v160H5V5H385 M390,0H0v170h390V0L390,0z"/>
    </g>
    <rect id="valueColor02" fill="#95BDD4" x="0" y="154.1" width="390" height="15.8"/>
    <g>
        <defs>
            <polygon id="SVGID_1_" points="390,170 0,169.9 0,0 390,0"/>
        </defs>
        <clipPath id="SVGID_2_">
            <use xlink:href="#SVGID_1_" overflow="visible"/>
        </clipPath>
        <g opacity="0.6" clip-path="url(#SVGID_2_)">
            <polyline fill="none" stroke="#95BDD4" stroke-width="0.5" stroke-miterlimit="10" points="-11.1,6.5 -11.1,6.5 11.6,-16.2
                34.3,6.5 34.3,6.5 57,-16.2 79.6,6.5 79.6,6.5 102.3,-16.2 125,6.5 125,6.5 147.7,-16.2 170.4,6.5 170.4,6.5 193.1,-16.2
                215.8,6.5 215.8,6.5 238.5,-16.2 261.2,6.5 261.2,6.5 283.9,-16.2 306.6,6.5 306.6,6.5 329.3,-16.2 352,6.5 352,6.5 374.7,-16.2
                397.4,6.5 397.4,6.5 		"/>
            <polyline fill="none" stroke="#95BDD4" stroke-width="0.5" stroke-miterlimit="10" points="-11.1,12.9 -11.1,12.9 11.6,-9.8
                34.3,12.9 34.3,12.9 57,-9.8 79.6,12.9 79.6,12.9 102.3,-9.8 125,12.9 125,12.9 147.7,-9.8 170.4,12.9 170.4,12.9 193.1,-9.8
                215.8,12.9 215.8,12.9 238.5,-9.8 261.2,12.9 261.2,12.9 283.9,-9.8 306.6,12.9 306.6,12.9 329.3,-9.8 352,12.9 352,12.9
                374.7,-9.8 397.4,12.9 397.4,12.9 		"/>
            <polyline fill="none" stroke="#95BDD4" stroke-width="0.5" stroke-miterlimit="10" points="-11.1,19.4 -11.1,19.4 11.6,-3.3
                34.3,19.4 34.3,19.4 57,-3.3 79.6,19.4 79.6,19.4 102.3,-3.3 125,19.4 125,19.4 147.7,-3.3 170.4,19.4 170.4,19.4 193.1,-3.3
                215.8,19.4 215.8,19.4 238.5,-3.3 261.2,19.4 261.2,19.4 283.9,-3.3 306.6,19.4 306.6,19.4 329.3,-3.3 352,19.4 352,19.4
                374.7,-3.3 397.4,19.4 397.4,19.4 		"/>
            <polyline fill="none" stroke="#95BDD4" stroke-width="0.5" stroke-miterlimit="10" points="-11.1,25.9 -11.1,25.9 11.6,3.2
                34.3,25.9 34.3,25.9 57,3.2 79.6,25.9 79.6,25.9 102.3,3.2 125,25.9 125,25.9 147.7,3.2 170.4,25.9 170.4,25.9 193.1,3.2
                215.8,25.9 215.8,25.9 238.5,3.2 261.2,25.9 261.2,25.9 283.9,3.2 306.6,25.9 306.6,25.9 329.3,3.2 352,25.9 352,25.9 374.7,3.2
                397.4,25.9 397.4,25.9 		"/>
            <polyline fill="none" stroke="#95BDD4" stroke-width="0.5" stroke-miterlimit="10" points="-11.1,32.3 -11.1,32.3 11.6,9.6
                34.3,32.3 34.3,32.3 57,9.6 79.6,32.3 79.6,32.3 102.3,9.6 125,32.3 125,32.3 147.7,9.6 170.4,32.3 170.4,32.3 193.1,9.6
                215.8,32.3 215.8,32.3 238.5,9.6 261.2,32.3 261.2,32.3 283.9,9.6 306.6,32.3 306.6,32.3 329.3,9.6 352,32.3 352,32.3 374.7,9.6
                397.4,32.3 397.4,32.3 		"/>
            <polyline fill="none" stroke="#95BDD4" stroke-width="0.5" stroke-miterlimit="10" points="-11.1,38.8 -11.1,38.8 11.6,16.1
                34.3,38.8 34.3,38.8 57,16.1 79.6,38.8 79.6,38.8 102.3,16.1 125,38.8 125,38.8 147.7,16.1 170.4,38.8 170.4,38.8 193.1,16.1
                215.8,38.8 215.8,38.8 238.5,16.1 261.2,38.8 261.2,38.8 283.9,16.1 306.6,38.8 306.6,38.8 329.3,16.1 352,38.8 352,38.8
                374.7,16.1 397.4,38.8 397.4,38.8 		"/>
            <polyline fill="none" stroke="#95BDD4" stroke-width="0.5" stroke-miterlimit="10" points="-11.1,45.2 -11.1,45.2 11.6,22.5
                34.3,45.2 34.3,45.2 57,22.5 79.6,45.2 79.6,45.2 102.3,22.5 125,45.2 125,45.2 147.7,22.5 170.4,45.2 170.4,45.2 193.1,22.5
                215.8,45.2 215.8,45.2 238.5,22.5 261.2,45.2 261.2,45.2 283.9,22.5 306.6,45.2 306.6,45.2 329.3,22.5 352,45.2 352,45.2
                374.7,22.5 397.4,45.2 397.4,45.2 		"/>
            <polyline fill="none" stroke="#95BDD4" stroke-width="0.5" stroke-miterlimit="10" points="-11.1,51.7 -11.1,51.7 11.6,29
                34.3,51.7 34.3,51.7 57,29 79.6,51.7 79.6,51.7 102.3,29 125,51.7 125,51.7 147.7,29 170.4,51.7 170.4,51.7 193.1,29 215.8,51.7
                215.8,51.7 238.5,29 261.2,51.7 261.2,51.7 283.9,29 306.6,51.7 306.6,51.7 329.3,29 352,51.7 352,51.7 374.7,29 397.4,51.7
                397.4,51.7 		"/>
            <polyline fill="none" stroke="#95BDD4" stroke-width="0.5" stroke-miterlimit="10" points="-11.1,58.2 -11.1,58.2 11.6,35.5
                34.3,58.2 34.3,58.2 57,35.5 79.6,58.2 79.6,58.2 102.3,35.5 125,58.2 125,58.2 147.7,35.5 170.4,58.2 170.4,58.2 193.1,35.5
                215.8,58.2 215.8,58.2 238.5,35.5 261.2,58.2 261.2,58.2 283.9,35.5 306.6,58.2 306.6,58.2 329.3,35.5 352,58.2 352,58.2
                374.7,35.5 397.4,58.2 397.4,58.2 		"/>
            <polyline fill="none" stroke="#95BDD4" stroke-width="0.5" stroke-miterlimit="10" points="-11.1,64.6 -11.1,64.6 11.6,41.9
                34.3,64.6 34.3,64.6 57,41.9 79.6,64.6 79.6,64.6 102.3,41.9 125,64.6 125,64.6 147.7,41.9 170.4,64.6 170.4,64.6 193.1,41.9
                215.8,64.6 215.8,64.6 238.5,41.9 261.2,64.6 261.2,64.6 283.9,41.9 306.6,64.6 306.6,64.6 329.3,41.9 352,64.6 352,64.6
                374.7,41.9 397.4,64.6 397.4,64.6 		"/>
            <polyline fill="none" stroke="#95BDD4" stroke-width="0.5" stroke-miterlimit="10" points="-11.1,71.1 -11.1,71.1 11.6,48.4
                34.3,71.1 34.3,71.1 57,48.4 79.6,71.1 79.6,71.1 102.3,48.4 125,71.1 125,71.1 147.7,48.4 170.4,71.1 170.4,71.1 193.1,48.4
                215.8,71.1 215.8,71.1 238.5,48.4 261.2,71.1 261.2,71.1 283.9,48.4 306.6,71.1 306.6,71.1 329.3,48.4 352,71.1 352,71.1
                374.7,48.4 397.4,71.1 397.4,71.1 		"/>
            <polyline fill="none" stroke="#95BDD4" stroke-width="0.5" stroke-miterlimit="10" points="-11.1,77.5 -11.1,77.5 11.6,54.8
                34.3,77.5 34.3,77.5 57,54.8 79.6,77.5 79.6,77.5 102.3,54.8 125,77.5 125,77.5 147.7,54.8 170.4,77.5 170.4,77.5 193.1,54.8
                215.8,77.5 215.8,77.5 238.5,54.8 261.2,77.5 261.2,77.5 283.9,54.8 306.6,77.5 306.6,77.5 329.3,54.8 352,77.5 352,77.5
                374.7,54.8 397.4,77.5 397.4,77.5 		"/>
            <polyline fill="none" stroke="#95BDD4" stroke-width="0.5" stroke-miterlimit="10" points="-11.1,84 -11.1,84 11.6,61.3 34.3,84
                34.3,84 57,61.3 79.6,84 79.6,84 102.3,61.3 125,84 125,84 147.7,61.3 170.4,84 170.4,84 193.1,61.3 215.8,84 215.8,84
                238.5,61.3 261.2,84 261.2,84 283.9,61.3 306.6,84 306.6,84 329.3,61.3 352,84 352,84 374.7,61.3 397.4,84 397.4,84 		"/>
            <polyline fill="none" stroke="#95BDD4" stroke-width="0.5" stroke-miterlimit="10" points="-11.1,90.5 -11.1,90.5 11.6,67.8
                34.3,90.5 34.3,90.5 57,67.8 79.6,90.5 79.6,90.5 102.3,67.8 125,90.5 125,90.5 147.7,67.8 170.4,90.5 170.4,90.5 193.1,67.8
                215.8,90.5 215.8,90.5 238.5,67.8 261.2,90.5 261.2,90.5 283.9,67.8 306.6,90.5 306.6,90.5 329.3,67.8 352,90.5 352,90.5
                374.7,67.8 397.4,90.5 397.4,90.5 		"/>
            <polyline fill="none" stroke="#95BDD4" stroke-width="0.5" stroke-miterlimit="10" points="-11.1,96.9 -11.1,96.9 11.6,74.2
                34.3,96.9 34.3,96.9 57,74.2 79.6,96.9 79.6,96.9 102.3,74.2 125,96.9 125,96.9 147.7,74.2 170.4,96.9 170.4,96.9 193.1,74.2
                215.8,96.9 215.8,96.9 238.5,74.2 261.2,96.9 261.2,96.9 283.9,74.2 306.6,96.9 306.6,96.9 329.3,74.2 352,96.9 352,96.9
                374.7,74.2 397.4,96.9 397.4,96.9 		"/>
            <polyline fill="none" stroke="#95BDD4" stroke-width="0.5" stroke-miterlimit="10" points="-11.1,103.4 -11.1,103.4 11.6,80.7
                34.3,103.4 34.3,103.4 57,80.7 79.6,103.4 79.6,103.4 102.3,80.7 125,103.4 125,103.4 147.7,80.7 170.4,103.4 170.4,103.4
                193.1,80.7 215.8,103.4 215.8,103.4 238.5,80.7 261.2,103.4 261.2,103.4 283.9,80.7 306.6,103.4 306.6,103.4 329.3,80.7
                352,103.4 352,103.4 374.7,80.7 397.4,103.4 397.4,103.4 		"/>
            <polyline fill="none" stroke="#95BDD4" stroke-width="0.5" stroke-miterlimit="10" points="-11.1,109.8 -11.1,109.8 11.6,87.1
                34.3,109.8 34.3,109.8 57,87.1 79.6,109.8 79.6,109.8 102.3,87.1 125,109.8 125,109.8 147.7,87.1 170.4,109.8 170.4,109.8
                193.1,87.1 215.8,109.8 215.8,109.8 238.5,87.1 261.2,109.8 261.2,109.8 283.9,87.1 306.6,109.8 306.6,109.8 329.3,87.1
                352,109.8 352,109.8 374.7,87.1 397.4,109.8 397.4,109.8 		"/>
            <polyline fill="none" stroke="#95BDD4" stroke-width="0.5" stroke-miterlimit="10" points="-11.1,116.3 -11.1,116.3 11.6,93.6
                34.3,116.3 34.3,116.3 57,93.6 79.6,116.3 79.6,116.3 102.3,93.6 125,116.3 125,116.3 147.7,93.6 170.4,116.3 170.4,116.3
                193.1,93.6 215.8,116.3 215.8,116.3 238.5,93.6 261.2,116.3 261.2,116.3 283.9,93.6 306.6,116.3 306.6,116.3 329.3,93.6
                352,116.3 352,116.3 374.7,93.6 397.4,116.3 397.4,116.3 		"/>
            <polyline fill="none" stroke="#95BDD4" stroke-width="0.5" stroke-miterlimit="10" points="-11.1,122.8 -11.1,122.8 11.6,100.1
                34.3,122.8 34.3,122.8 57,100.1 79.6,122.8 79.6,122.8 102.3,100.1 125,122.8 125,122.8 147.7,100.1 170.4,122.8 170.4,122.8
                193.1,100.1 215.8,122.8 215.8,122.8 238.5,100.1 261.2,122.8 261.2,122.8 283.9,100.1 306.6,122.8 306.6,122.8 329.3,100.1
                352,122.8 352,122.8 374.7,100.1 397.4,122.8 397.4,122.8 		"/>
            <polyline fill="none" stroke="#95BDD4" stroke-width="0.5" stroke-miterlimit="10" points="-11.1,129.2 -11.1,129.2 11.6,106.5
                34.3,129.2 34.3,129.2 57,106.5 79.6,129.2 79.6,129.2 102.3,106.5 125,129.2 125,129.2 147.7,106.5 170.4,129.2 170.4,129.2
                193.1,106.5 215.8,129.2 215.8,129.2 238.5,106.5 261.2,129.2 261.2,129.2 283.9,106.5 306.6,129.2 306.6,129.2 329.3,106.5
                352,129.2 352,129.2 374.7,106.5 397.4,129.2 397.4,129.2 		"/>
            <polyline fill="none" stroke="#95BDD4" stroke-width="0.5" stroke-miterlimit="10" points="-11.1,135.7 -11.1,135.7 11.6,113
                34.3,135.7 34.3,135.7 57,113 79.6,135.7 79.6,135.7 102.3,113 125,135.7 125,135.7 147.7,113 170.4,135.7 170.4,135.7 193.1,113
                215.8,135.7 215.8,135.7 238.5,113 261.2,135.7 261.2,135.7 283.9,113 306.6,135.7 306.6,135.7 329.3,113 352,135.7 352,135.7
                374.7,113 397.4,135.7 397.4,135.7 		"/>
            <polyline fill="none" stroke="#95BDD4" stroke-width="0.5" stroke-miterlimit="10" points="-11.1,142.1 -11.1,142.1 11.6,119.4
                34.3,142.1 34.3,142.1 57,119.4 79.6,142.1 79.6,142.1 102.3,119.4 125,142.1 125,142.1 147.7,119.4 170.4,142.1 170.4,142.1
                193.1,119.4 215.8,142.1 215.8,142.1 238.5,119.4 261.2,142.1 261.2,142.1 283.9,119.4 306.6,142.1 306.6,142.1 329.3,119.4
                352,142.1 352,142.1 374.7,119.4 397.4,142.1 397.4,142.1 		"/>
            <polyline fill="none" stroke="#95BDD4" stroke-width="0.5" stroke-miterlimit="10" points="-11.1,148.6 -11.1,148.6 11.6,125.9
                34.3,148.6 34.3,148.6 57,125.9 79.6,148.6 79.6,148.6 102.3,125.9 125,148.6 125,148.6 147.7,125.9 170.4,148.6 170.4,148.6
                193.1,125.9 215.8,148.6 215.8,148.6 238.5,125.9 261.2,148.6 261.2,148.6 283.9,125.9 306.6,148.6 306.6,148.6 329.3,125.9
                352,148.6 352,148.6 374.7,125.9 397.4,148.6 397.4,148.6 		"/>
            <polyline fill="none" stroke="#95BDD4" stroke-width="0.5" stroke-miterlimit="10" points="-11.1,155.1 -11.1,155.1 11.6,132.4
                34.3,155.1 34.3,155.1 57,132.4 79.6,155.1 79.6,155.1 102.3,132.4 125,155.1 125,155.1 147.7,132.4 170.4,155.1 170.4,155.1
                193.1,132.4 215.8,155.1 215.8,155.1 238.5,132.4 261.2,155.1 261.2,155.1 283.9,132.4 306.6,155.1 306.6,155.1 329.3,132.4
                352,155.1 352,155.1 374.7,132.4 397.4,155.1 397.4,155.1 		"/>
            <polyline fill="none" stroke="#95BDD4" stroke-width="0.5" stroke-miterlimit="10" points="-11.1,161.5 -11.1,161.5 11.6,138.8
                34.3,161.5 34.3,161.5 57,138.8 79.6,161.5 79.6,161.5 102.3,138.8 125,161.5 125,161.5 147.7,138.8 170.4,161.5 170.4,161.5
                193.1,138.8 215.8,161.5 215.8,161.5 238.5,138.8 261.2,161.5 261.2,161.5 283.9,138.8 306.6,161.5 306.6,161.5 329.3,138.8
                352,161.5 352,161.5 374.7,138.8 397.4,161.5 397.4,161.5 		"/>
            <polyline fill="none" stroke="#95BDD4" stroke-width="0.5" stroke-miterlimit="10" points="-11.1,168 -11.1,168 11.6,145.3
                34.3,168 34.3,168 57,145.3 79.6,168 79.6,168 102.3,145.3 125,168 125,168 147.7,145.3 170.4,168 170.4,168 193.1,145.3
                215.8,168 215.8,168 238.5,145.3 261.2,168 261.2,168 283.9,145.3 306.6,168 306.6,168 329.3,145.3 352,168 352,168 374.7,145.3
                397.4,168 397.4,168 		"/>
            <polyline fill="none" stroke="#95BDD4" stroke-width="0.5" stroke-miterlimit="10" points="-11.1,174.4 -11.1,174.4 11.6,151.7
                34.3,174.4 34.3,174.4 57,151.7 79.6,174.4 79.6,174.4 102.3,151.7 125,174.4 125,174.4 147.7,151.7 170.4,174.4 170.4,174.4
                193.1,151.7 215.8,174.4 215.8,174.4 238.5,151.7 261.2,174.4 261.2,174.4 283.9,151.7 306.6,174.4 306.6,174.4 329.3,151.7
                352,174.4 352,174.4 374.7,151.7 397.4,174.4 397.4,174.4 		"/>
            <polyline fill="none" stroke="#95BDD4" stroke-width="0.5" stroke-miterlimit="10" points="-11.1,180.9 -11.1,180.9 11.6,158.2
                34.3,180.9 34.3,180.9 57,158.2 79.6,180.9 79.6,180.9 102.3,158.2 125,180.9 125,180.9 147.7,158.2 170.4,180.9 170.4,180.9
                193.1,158.2 215.8,180.9 215.8,180.9 238.5,158.2 261.2,180.9 261.2,180.9 283.9,158.2 306.6,180.9 306.6,180.9 329.3,158.2
                352,180.9 352,180.9 374.7,158.2 397.4,180.9 397.4,180.9 		"/>
            <polyline fill="none" stroke="#95BDD4" stroke-width="0.5" stroke-miterlimit="10" points="-11.1,187.4 -11.1,187.4 11.6,164.7
                34.3,187.4 34.3,187.4 57,164.7 79.6,187.4 79.6,187.4 102.3,164.7 125,187.4 125,187.4 147.7,164.7 170.4,187.4 170.4,187.4
                193.1,164.7 215.8,187.4 215.8,187.4 238.5,164.7 261.2,187.4 261.2,187.4 283.9,164.7 306.6,187.4 306.6,187.4 329.3,164.7
                352,187.4 352,187.4 374.7,164.7 397.4,187.4 397.4,187.4 		"/>
        </g>
    </g>
    <path d="M19.4,157.6l-1.5,8.1h-0.4l0.5-3h-1.2l0.1-0.4h1.2l0.3-1.4h-1.2l0.1-0.4h1.2l0.5-2.9H19.4z M19.2,165.7l1.5-8.1H21l-0.5,2.9
        h1.2l-0.1,0.4h-1.2l-0.3,1.4h1.2l-0.1,0.4h-1.2l-0.6,3H19.2z"/>
    <path d="M31.8,161.9c0,1,0.2,3.1-1.7,3.1c-1.8,0-1.7-2-1.7-3.1c0-1.4-0.1-3.1,1.7-3.1C32,158.8,31.8,161.2,31.8,161.9z M29.1,161.9
        c0,2.4,0.4,2.5,1,2.5c0.7,0,1-0.3,1-2.5c0-2.3-0.4-2.5-1-2.5C29,159.3,29.1,160.7,29.1,161.9z"/>
    <path d="M35.3,159.6l-1.1,0.4l-0.2-0.5l1.9-0.7v5.6h1.3v0.5h-3.4v-0.5h1.5V159.6z"/>
    <path d="M39.2,164.3l2.2-2.9c0.3-0.4,0.5-0.6,0.5-1.1c0-0.6-0.4-1-1-1c-0.7,0-1.1,0.6-1.2,1.2l-0.6-0.1c0.1-1,0.7-1.7,1.8-1.7
        c0.9,0,1.6,0.6,1.6,1.5c0,0.6-0.3,1-0.6,1.5l-2,2.5h2.6v0.5h-3.3V164.3z"/>
    <path d="M45.3,161.2l1.8-1.8h-2.5v-0.5h3.3v0.5l-1.7,1.7c0.9,0,1.7,0.5,1.7,1.5c0,0.8-0.4,1.4-1.1,1.8c-0.5,0.3-1.1,0.5-2.2,0.5
        v-0.6c1,0,1.4-0.1,1.7-0.3c0.5-0.3,1-0.8,1-1.4c0-0.8-0.7-1-1.3-1c-0.2,0-0.5,0-0.7,0.1V161.2z"/>
    <path d="M50,163.4l0.9-4.6l0.6,0.2l-0.8,3.9h1.6v-3.1H53v3.1h0.5v0.5H53v1.5h-0.6v-1.5H50z"/>
    <path d="M55.6,158.9h3.1v0.5h-2.5v1.8c0.3-0.1,0.6-0.2,0.9-0.2c0.9,0,1.6,0.6,1.6,1.6c0,0.8-0.4,1.4-1.1,1.8
        c-0.5,0.3-1.1,0.5-2.3,0.5v-0.6c0.7,0,1.4,0,1.8-0.3c0.5-0.3,0.9-0.8,0.9-1.5c0-0.6-0.4-1-1.1-1c-0.4,0-0.7,0.1-1,0.3h-0.4V158.9z"
        />
    <path d="M63.6,159.8c-0.3-0.2-0.6-0.5-1-0.5c-1.1,0-1.2,1.4-1.2,2.2c0.4-0.3,0.7-0.5,1.2-0.5c1.1,0,1.5,0.9,1.5,1.9
        c0,1.1-0.6,2-1.7,2c-1.5,0-1.6-1.9-1.6-3c0-1.2,0.2-3.2,1.8-3.2c0.5,0,1,0.2,1.3,0.5L63.6,159.8z M62.5,164.4c0.7,0,1.1-0.6,1.1-1.4
        c0-0.7-0.2-1.4-1-1.4c-0.4,0-0.8,0.3-1.1,0.6C61.5,164.1,62,164.4,62.5,164.4z"/>
    <path d="M69,159.4h-2.5v-0.5h3.3l-2.7,6.1l-0.5-0.2L69,159.4z"/>
    <path d="M75,163.3c0,1-0.8,1.6-1.7,1.6c-1,0-1.7-0.6-1.7-1.6c0-0.8,0.5-1.2,1.2-1.6c-0.5-0.3-1-0.8-1-1.5c0-0.9,0.6-1.5,1.5-1.5
        s1.5,0.7,1.5,1.5c0,0.7-0.5,1.1-1,1.5C74.5,162.1,75,162.5,75,163.3z M72.2,163.4c0,0.6,0.5,1,1.1,1c0.6,0,1.1-0.4,1.1-1
        c0-0.7-0.6-1-1.1-1.3C72.8,162.4,72.2,162.6,72.2,163.4z M74.2,160.3c0-0.5-0.3-1-0.9-1c-0.6,0-0.9,0.4-0.9,1c0,0.6,0.5,0.8,0.9,1.1
        C73.7,161.1,74.2,160.9,74.2,160.3z"/>
    <path d="M77.6,163.9c0.3,0.3,0.6,0.5,1,0.5c1.1,0,1.2-1.4,1.2-2.2c-0.4,0.3-0.7,0.5-1.2,0.5c-1.1,0-1.5-0.9-1.5-1.9
        c0-1.1,0.6-2,1.7-2c1.6,0,1.6,1.9,1.6,3c0,1.2-0.2,3.2-1.8,3.2c-0.5,0-1-0.2-1.3-0.5L77.6,163.9z M78.7,159.3
        c-0.7,0-1.1,0.6-1.1,1.4c0,0.7,0.2,1.4,1,1.4c0.4,0,0.8-0.3,1.1-0.6C79.8,159.7,79.3,159.3,78.7,159.3z"/>
    <path d="M112.6,161.9c0,1,0.2,3.1-1.7,3.1c-1.8,0-1.7-2-1.7-3.1c0-1.4-0.1-3.1,1.7-3.1C112.8,158.8,112.6,161.2,112.6,161.9z
         M109.9,161.9c0,2.4,0.4,2.5,1,2.5c0.7,0,1-0.3,1-2.5c0-2.3-0.4-2.5-1-2.5C109.8,159.3,109.9,160.7,109.9,161.9z"/>
    <path d="M116.1,159.6L115,160l-0.2-0.5l1.9-0.7v5.6h1.3v0.5h-3.4v-0.5h1.5V159.6z"/>
    <path d="M120,164.3l2.2-2.9c0.3-0.4,0.5-0.6,0.5-1.1c0-0.6-0.4-1-1-1c-0.7,0-1.1,0.6-1.2,1.2l-0.6-0.1c0.1-1,0.7-1.7,1.8-1.7
        c0.9,0,1.6,0.6,1.6,1.5c0,0.6-0.3,1-0.6,1.5l-2,2.5h2.6v0.5H120V164.3z"/>
    <path d="M126.1,161.2l1.8-1.8h-2.5v-0.5h3.3v0.5l-1.7,1.7c0.9,0,1.7,0.5,1.7,1.5c0,0.8-0.4,1.4-1.1,1.8c-0.5,0.3-1.1,0.5-2.2,0.5
        v-0.6c1,0,1.4-0.1,1.7-0.3c0.5-0.3,1-0.8,1-1.4c0-0.8-0.7-1-1.3-1c-0.2,0-0.5,0-0.7,0.1V161.2z"/>
    <path d="M130.8,163.4l0.9-4.6l0.6,0.2l-0.8,3.9h1.6v-3.1h0.6v3.1h0.5v0.5h-0.5v1.5h-0.6v-1.5H130.8z"/>
    <path d="M136.4,158.9h3.1v0.5h-2.5v1.8c0.3-0.1,0.6-0.2,0.9-0.2c0.9,0,1.6,0.6,1.6,1.6c0,0.8-0.4,1.4-1.1,1.8
        c-0.5,0.3-1.1,0.5-2.3,0.5v-0.6c0.7,0,1.4,0,1.8-0.3c0.5-0.3,0.9-0.8,0.9-1.5c0-0.6-0.4-1-1.1-1c-0.4,0-0.7,0.1-1,0.3h-0.4V158.9z"
        />
    <path d="M144.4,159.8c-0.3-0.2-0.6-0.5-1-0.5c-1.1,0-1.2,1.4-1.2,2.2c0.4-0.3,0.7-0.5,1.2-0.5c1.1,0,1.5,0.9,1.5,1.9
        c0,1.1-0.6,2-1.7,2c-1.5,0-1.6-1.9-1.6-3c0-1.2,0.2-3.2,1.8-3.2c0.5,0,1,0.2,1.3,0.5L144.4,159.8z M143.3,164.4
        c0.7,0,1.1-0.6,1.1-1.4c0-0.7-0.2-1.4-1-1.4c-0.4,0-0.8,0.3-1.1,0.6C142.3,164.1,142.8,164.4,143.3,164.4z"/>
    <path d="M149.8,159.4h-2.5v-0.5h3.3l-2.7,6.1l-0.5-0.2L149.8,159.4z"/>
    <path d="M155.8,163.3c0,1-0.8,1.6-1.7,1.6c-1,0-1.7-0.6-1.7-1.6c0-0.8,0.5-1.2,1.2-1.6c-0.5-0.3-1-0.8-1-1.5c0-0.9,0.6-1.5,1.5-1.5
        s1.5,0.7,1.5,1.5c0,0.7-0.5,1.1-1,1.5C155.3,162.1,155.8,162.5,155.8,163.3z M153,163.4c0,0.6,0.5,1,1.1,1c0.6,0,1.1-0.4,1.1-1
        c0-0.7-0.6-1-1.1-1.3C153.6,162.4,153,162.6,153,163.4z M155,160.3c0-0.5-0.3-1-0.9-1c-0.6,0-0.9,0.4-0.9,1c0,0.6,0.5,0.8,0.9,1.1
        C154.6,161.1,155,160.9,155,160.3z"/>
    <path d="M158.4,163.9c0.3,0.3,0.6,0.5,1,0.5c1.1,0,1.2-1.4,1.2-2.2c-0.4,0.3-0.7,0.5-1.2,0.5c-1.1,0-1.5-0.9-1.5-1.9
        c0-1.1,0.6-2,1.7-2c1.6,0,1.6,1.9,1.6,3c0,1.2-0.2,3.2-1.8,3.2c-0.5,0-1-0.2-1.3-0.5L158.4,163.9z M159.5,159.3
        c-0.7,0-1.1,0.6-1.1,1.4c0,0.7,0.2,1.4,1,1.4c0.4,0,0.8-0.3,1.1-0.6C160.6,159.7,160.1,159.3,159.5,159.3z"/>
    <path d="M166.6,161.9c0,1,0.2,3.1-1.7,3.1c-1.8,0-1.7-2-1.7-3.1c0-1.4-0.1-3.1,1.7-3.1C166.8,158.8,166.6,161.2,166.6,161.9z
         M163.9,161.9c0,2.4,0.4,2.5,1,2.5c0.7,0,1-0.3,1-2.5c0-2.3-0.4-2.5-1-2.5C163.8,159.3,163.9,160.7,163.9,161.9z"/>
    <path d="M170.1,159.6L169,160l-0.2-0.5l1.9-0.7v5.6h1.3v0.5h-3.4v-0.5h1.5V159.6z"/>
    <path d="M174,164.3l2.2-2.9c0.3-0.4,0.5-0.6,0.5-1.1c0-0.6-0.4-1-1-1c-0.7,0-1.1,0.6-1.2,1.2l-0.6-0.1c0.1-1,0.7-1.7,1.8-1.7
        c0.9,0,1.6,0.6,1.6,1.5c0,0.6-0.3,1-0.6,1.5l-2,2.5h2.6v0.5H174V164.3z"/>
    <path d="M180.1,161.2l1.8-1.8h-2.5v-0.5h3.3v0.5l-1.7,1.7c0.9,0,1.7,0.5,1.7,1.5c0,0.8-0.4,1.4-1.1,1.8c-0.5,0.3-1.1,0.5-2.2,0.5
        v-0.6c1,0,1.4-0.1,1.7-0.3c0.5-0.3,1-0.8,1-1.4c0-0.8-0.7-1-1.3-1c-0.2,0-0.5,0-0.7,0.1V161.2z"/>
    <path d="M184.8,163.4l0.9-4.6l0.6,0.2l-0.8,3.9h1.6v-3.1h0.6v3.1h0.5v0.5h-0.5v1.5h-0.6v-1.5H184.8z"/>
    <path d="M231.3,161.9c0,1,0.2,3.1-1.7,3.1c-1.8,0-1.7-2-1.7-3.1c0-1.4-0.1-3.1,1.7-3.1C231.6,158.8,231.3,161.2,231.3,161.9z
         M228.6,161.9c0,2.4,0.4,2.5,1,2.5c0.7,0,1-0.3,1-2.5c0-2.3-0.4-2.5-1-2.5C228.5,159.3,228.6,160.7,228.6,161.9z"/>
    <path d="M234.9,159.6l-1.1,0.4l-0.2-0.5l1.9-0.7v5.6h1.3v0.5h-3.4v-0.5h1.5V159.6z"/>
    <path d="M238.8,164.3l2.2-2.9c0.3-0.4,0.5-0.6,0.5-1.1c0-0.6-0.4-1-1-1c-0.7,0-1.1,0.6-1.2,1.2l-0.6-0.1c0.1-1,0.7-1.7,1.8-1.7
        c0.9,0,1.6,0.6,1.6,1.5c0,0.6-0.3,1-0.6,1.5l-2,2.5h2.6v0.5h-3.3V164.3z"/>
    <path d="M244.9,161.2l1.8-1.8h-2.5v-0.5h3.3v0.5l-1.7,1.7c0.9,0,1.7,0.5,1.7,1.5c0,0.8-0.4,1.4-1.1,1.8c-0.5,0.3-1.1,0.5-2.2,0.5
        v-0.6c1,0,1.4-0.1,1.7-0.3c0.5-0.3,1-0.8,1-1.4c0-0.8-0.7-1-1.3-1c-0.2,0-0.5,0-0.7,0.1V161.2z"/>
    <path d="M18.7,34.5h0.6l0.1,4.7H19l-0.1-3.9h0l-0.8,2.3l-0.8-2.3h0l-0.1,3.9h-0.5l0.1-4.7h0.6l0.7,2L18.7,34.5z"/>
    <path d="M21.6,38.2l-0.3,1.1l-0.5-0.2l1.1-3.6h0.6l1.1,3.6l-0.5,0.2l-0.3-1.1H21.6z M22.3,36.1l-0.5,1.7h1L22.3,36.1z"/>
    <path d="M25.5,39.3L25.1,39l1.1-1.8l-1-1.6l0.4-0.2l0.9,1.4l0.9-1.4l0.4,0.2l-1,1.6l1.1,1.8l-0.4,0.2l-1-1.6L25.5,39.3z"/>
    <path d="M35.5,34.5h0.6l0.1,4.7h-0.5l-0.1-3.9h0l-0.8,2.3l-0.8-2.3h0L34,39.2h-0.5l0.1-4.7h0.6l0.7,2L35.5,34.5z"/>
    <path d="M38.4,35.5V38c0,0.5,0.2,0.8,0.6,0.8c0.6,0,0.7-0.3,0.7-0.8v-2.5h0.5v2.7c0,0.5-0.3,1-1.1,1c-0.8,0-1.1-0.5-1.1-1v-2.7H38.4
        z"/>
    <path d="M42.5,38c0.1,0.4,0.3,0.8,0.8,0.8c0.4,0,0.7-0.2,0.7-0.6c0-0.4-0.4-0.6-0.7-0.7c-0.5-0.2-1-0.4-1-1.1c0-0.6,0.5-1,1.1-1
        c0.6,0,1,0.4,1.1,0.9l-0.4,0.1c-0.1-0.4-0.3-0.6-0.7-0.6c-0.3,0-0.6,0.2-0.6,0.5c0,0.3,0.2,0.4,0.5,0.6l0.8,0.3
        c0.3,0.2,0.5,0.5,0.5,0.9c0,0.7-0.5,1.1-1.2,1.1c-0.7,0-1.1-0.4-1.2-1.1L42.5,38z"/>
    <path d="M47.2,36h-1v-0.4h2.5V36h-1v3.2h-0.5V36z"/>
    <path d="M50.7,35.5h2.3V36h-1.8v1.1h1.5v0.4h-1.5v1.3h1.8v0.4h-2.3V35.5z"/>
    <path d="M54.8,35.5H56c0.6,0,1.1,0.3,1.1,1c0,0.4-0.3,0.9-0.7,1l0.9,1.5l-0.4,0.2L56,37.6h-0.7v1.6h-0.5V35.5z M55.9,37.2
        c0.5,0,0.8-0.3,0.8-0.7c0-0.3-0.2-0.6-0.6-0.6h-0.8v1.2H55.9z"/>
    <path d="M59.2,36.2L59.2,36.2l-0.1,3h-0.5l0.1-3.6h0.6l0.7,1.6l0.7-1.6h0.6l0.1,3.6H61l-0.1-3h0l-0.8,1.9L59.2,36.2z"/>
    <path d="M63.6,38.2l-0.3,1.1l-0.5-0.2l1.1-3.6h0.6l1.1,3.6l-0.5,0.2l-0.3-1.1H63.6z M64.3,36.1l-0.5,1.7h1L64.3,36.1z"/>
    <path d="M67.2,35.5h0.6l1.4,3.1l0,0l0-0.9v-2.1h0.5v3.6h-0.6l-1.4-3.1l0,0l0,1v2.1h-0.5V35.5z"/>
    <path d="M71.4,35.5H72l1.4,3.1l0,0l0-0.9v-2.1h0.5v3.6h-0.6l-1.4-3.1l0,0l0,1v2.1h-0.5V35.5z"/>
    <path d="M16.9,42.9h0.5v2h1.4v-2h0.5v4.7h-0.5v-2.3h-1.4v2.3h-0.5V42.9z"/>
    <path d="M21.3,43.9h2.3v0.4h-1.8v1.1h1.5v0.4h-1.5v1.3h1.8v0.4h-2.3V43.9z"/>
    <path d="M25.7,47.2h0.5v-2.8h-0.5v-0.4h1.5v0.4h-0.5v2.8h0.5v0.4h-1.5V47.2z"/>
    <path d="M29.4,43.9H30l1.4,3.1l0,0l0-0.9v-2.1h0.5v3.6h-0.6l-1.4-3.1l0,0l0,1v2.1h-0.5V43.9z"/>
    <path d="M35.4,44.4h-1.7v-0.4h2.5l-1.9,3.2h2v0.4h-2.7L35.4,44.4z"/>
    <path d="M38.3,45.5h1.6V46h-1.6V45.5z"/>
    <path d="M42,42.9h0.6l1.4,3.9l0,0l0-1v-2.9h0.5v4.7h-0.6l-1.4-3.9l0,0l0,1.1v2.9H42V42.9z"/>
    <path d="M46.7,47.2h0.5v-2.8h-0.5v-0.4h1.5v0.4h-0.5v2.8h0.5v0.4h-1.5V47.2z"/>
    <path d="M50.7,47.7l-0.4-0.2l1.1-1.8l-1-1.6l0.4-0.2l0.9,1.4l0.9-1.4l0.4,0.2l-1,1.6l1.1,1.8l-0.4,0.2l-1-1.6L50.7,47.7z"/>
    <path d="M54.6,43.9h1.2c1,0,1.5,0.4,1.5,1.8c0,1.1-0.2,1.9-1.5,1.9h-1.2v-0.4H55v-2.8h-0.4V43.9z M55.4,47.2h0.5
        c0.6,0,0.9-0.4,0.9-1.4c0-1.1-0.3-1.4-0.9-1.4h-0.5V47.2z"/>
    <path d="M61.4,45.8c0,0.3,0,1.9-1.3,1.9c-0.6,0-1.3-0.4-1.3-1.9c0-1.5,0.7-1.9,1.3-1.9C60.6,43.9,61.4,44.3,61.4,45.8z M59.3,45.8
        c0,0.5,0.1,1.4,0.8,1.4s0.8-0.9,0.8-1.4c0-0.5-0.1-1.4-0.8-1.4S59.3,45.2,59.3,45.8z"/>
    <path d="M63.2,43.9h1.2c0.6,0,1.1,0.3,1.1,1c0,0.4-0.3,0.9-0.7,1l0.9,1.5l-0.4,0.2L64.3,46h-0.7v1.6h-0.5V43.9z M64.3,45.6
        c0.5,0,0.8-0.3,0.8-0.7c0-0.3-0.2-0.6-0.6-0.6h-0.8v1.2H64.3z"/>
    <path d="M67.6,43.9h2.3v0.4h-1.8v1.1h1.5v0.4h-1.5v1.7h-0.5V43.9z"/>
    <path d="M71.9,45.5h1.6V46h-1.6V45.5z"/>
    <path d="M75.9,42.9h1.3c0.5,0,1,0.4,1,1.2c0,0.6-0.2,1.1-0.8,1.3l1,2l-0.4,0.2l-1.1-2.2h-0.5v2.1h-0.5V42.9z M76.4,45.1H77
        c0.4,0,0.7-0.3,0.7-0.9c0-0.6-0.3-0.8-0.8-0.8h-0.6V45.1z"/>
    <path d="M80.3,47.2h0.5v-2.8h-0.5v-0.4h1.5v0.4h-0.5v2.8h0.5v0.4h-1.5V47.2z"/>
    <path d="M84,43.9h0.6L86,47l0,0l0-0.9v-2.1h0.5v3.6h-0.6l-1.4-3.1l0,0l0,1v2.1H84V43.9z"/>
    <path d="M90.7,47.3c-0.3,0.2-0.7,0.4-1.1,0.4c-1.1,0-1.4-1-1.4-1.9c0-0.9,0.3-1.9,1.4-1.9c0.5,0,0.9,0.3,1.2,0.7l-0.4,0.3
        c-0.2-0.3-0.4-0.5-0.8-0.5c-0.7,0-0.8,0.9-0.8,1.5c0,0.6,0.1,1.4,0.9,1.4c0.2,0,0.5-0.1,0.7-0.2v-1h-0.9v-0.4h1.3V47.3z"/>
    <path d="M97.7,43.5l-0.9,0.3l-0.1-0.4l1.5-0.6v4.3h1v0.4h-2.6v-0.4h1.2V43.5z"/>
    <path d="M16.8,51.7v-0.4H18c0.9,0,1.5,0.4,1.5,2.3c0,1-0.1,2.3-1.5,2.3h-1.2v-0.4h0.4v-3.8H16.8z M17.6,55.6H18c0.6,0,1-0.1,1-1.9
        c0-1.8-0.5-1.9-0.9-1.9h-0.5V55.6z"/>
    <path d="M21.5,53.9H23v0.4h-1.6V53.9z"/>
    <path d="M25.7,53.2l1.4-1.4h-1.9v-0.4h2.6v0.4l-1.3,1.3c0.7,0,1.4,0.4,1.4,1.2c0,0.6-0.3,1.1-0.8,1.4c-0.4,0.2-0.8,0.4-1.7,0.4v-0.4
        c0.8,0,1.1-0.1,1.3-0.2c0.4-0.2,0.7-0.6,0.7-1.1c0-0.6-0.5-0.8-1-0.8c-0.2,0-0.4,0-0.5,0.1V53.2z"/>
    <path d="M29.9,53.2l1.4-1.4h-1.9v-0.4h2.6v0.4l-1.3,1.3c0.7,0,1.4,0.4,1.4,1.2c0,0.6-0.3,1.1-0.8,1.4c-0.4,0.2-0.8,0.4-1.7,0.4v-0.4
        c0.8,0,1.1-0.1,1.3-0.2c0.4-0.2,0.7-0.6,0.7-1.1c0-0.6-0.5-0.8-1-0.8c-0.2,0-0.4,0-0.5,0.1V53.2z"/>
    <path d="M34.7,51.9l-0.9,0.3l-0.1-0.4l1.5-0.6v4.3h1V56h-2.6v-0.4h1.2V51.9z"/>
    <path d="M40.4,53.7c0,0.7,0.1,2.4-1.3,2.4s-1.3-1.6-1.3-2.4c0-1.1-0.1-2.4,1.3-2.4C40.5,51.3,40.4,53.1,40.4,53.7z M38.2,53.7
        c0,1.8,0.3,2,0.8,2c0.5,0,0.8-0.2,0.8-2c0-1.8-0.3-2-0.8-2C38.2,51.7,38.2,52.7,38.2,53.7z"/>
    <path d="M44.1,52.1c-0.2-0.2-0.4-0.3-0.7-0.3c-0.8,0-0.9,1.1-0.9,1.7c0.3-0.2,0.6-0.4,0.9-0.4c0.9,0,1.2,0.7,1.2,1.5
        c0,0.8-0.4,1.5-1.3,1.5c-1.2,0-1.3-1.5-1.3-2.3c0-1,0.1-2.5,1.4-2.5c0.4,0,0.8,0.1,1,0.4L44.1,52.1z M43.3,55.6
        c0.6,0,0.8-0.5,0.8-1.1c0-0.5-0.2-1.1-0.8-1.1c-0.3,0-0.6,0.2-0.9,0.5C42.4,55.4,42.8,55.6,43.3,55.6z"/>
    <path d="M51.2,56h-0.5v-4.7h1c0.8,0,1.3,0.4,1.3,1.2c0,0.9-0.5,1.4-1.1,1.4h-0.7V56z M51.2,53.5l0.7,0c0.4,0,0.7-0.3,0.7-0.9
        c0-0.6-0.3-0.8-0.8-0.8h-0.5V53.5z"/>
    <path d="M55.2,55l-0.3,1.1l-0.5-0.2l1.1-3.6h0.6l1.1,3.6l-0.5,0.2L56.5,55H55.2z M55.9,52.9l-0.5,1.7h1L55.9,52.9z"/>
    <path d="M58.8,52.3H60c1,0,1.5,0.4,1.5,1.8c0,1.1-0.2,1.9-1.5,1.9h-1.2v-0.4h0.4v-2.8h-0.4V52.3z M59.6,55.6h0.5
        c0.6,0,0.9-0.4,0.9-1.4c0-1.1-0.3-1.4-0.9-1.4h-0.5V55.6z"/>
    <path d="M63,52.3h1.2c1,0,1.5,0.4,1.5,1.8c0,1.1-0.2,1.9-1.5,1.9H63v-0.4h0.4v-2.8H63V52.3z M63.8,55.6h0.5c0.6,0,0.9-0.4,0.9-1.4
        c0-1.1-0.3-1.4-0.9-1.4h-0.5V55.6z"/>
    <path d="M67.5,52.3h2.3v0.4h-1.8v1.1h1.5v0.4h-1.5v1.3h1.8V56h-2.3V52.3z"/>
    <path d="M71.6,52.3h1.2c0.6,0,1.1,0.3,1.1,1c0,0.4-0.3,0.9-0.7,1l0.9,1.5l-0.4,0.2l-0.9-1.7h-0.7V56h-0.5V52.3z M72.7,54
        c0.5,0,0.8-0.3,0.8-0.7c0-0.3-0.2-0.6-0.6-0.6h-0.8V54H72.7z"/>
    <path d="M75.6,56v-0.4H76v-2.8h-0.4v-0.4h1.1c0.9,0,1.3,0.4,1.3,1c0,0.3-0.1,0.6-0.4,0.8c0.4,0.1,0.6,0.5,0.6,0.9c0,0.7-0.4,1-1.2,1
        H75.6z M77,53.9c0.4,0,0.6-0.3,0.6-0.6c0-0.4-0.3-0.6-0.6-0.6h-0.5v1.1H77z M77,55.6c0.4,0,0.8-0.1,0.8-0.6c0-0.4-0.2-0.7-0.7-0.7
        h-0.7v1.2H77z"/>
    <path d="M82.4,54.2c0,0.3,0,1.9-1.3,1.9c-0.6,0-1.3-0.4-1.3-1.9c0-1.5,0.7-1.9,1.3-1.9C81.6,52.3,82.4,52.7,82.4,54.2z M80.3,54.2
        c0,0.5,0.1,1.4,0.8,1.4s0.8-0.9,0.8-1.4c0-0.5-0.1-1.4-0.8-1.4S80.3,53.6,80.3,54.2z"/>
    <path d="M84.2,52.3h1.2c0.6,0,1.1,0.3,1.1,1c0,0.4-0.3,0.9-0.7,1l0.9,1.5l-0.4,0.2l-0.9-1.7h-0.7V56h-0.5V52.3z M85.3,54
        c0.5,0,0.8-0.3,0.8-0.7c0-0.3-0.2-0.6-0.6-0.6h-0.8V54H85.3z"/>
    <path d="M88.2,52.3h0.6l1.4,3.1l0,0l0-0.9v-2.1h0.5V56h-0.6l-1.4-3.1l0,0l0,1V56h-0.5V52.3z"/>
    <path d="M355.2,16.8c0,1,0.2,3.1-1.7,3.1s-1.7-2-1.7-3.1c0-1.4-0.1-3.1,1.7-3.1C355.4,13.7,355.2,16.1,355.2,16.8z M352.5,16.8
        c0,2.4,0.4,2.5,1,2.5c0.7,0,1-0.3,1-2.5c0-2.3-0.4-2.5-1-2.5C352.4,14.3,352.5,15.6,352.5,16.8z"/>
    <path d="M358.7,14.5l-1.1,0.4l-0.2-0.5l1.9-0.7v5.6h1.3v0.5h-3.4v-0.5h1.5V14.5z"/>
    <path d="M362.6,19.2l2.2-2.9c0.3-0.4,0.5-0.6,0.5-1.1c0-0.6-0.4-1-1-1c-0.7,0-1.1,0.6-1.2,1.2l-0.6-0.1c0.1-1,0.7-1.7,1.8-1.7
        c0.9,0,1.6,0.6,1.6,1.5c0,0.6-0.3,1-0.6,1.5l-2,2.5h2.6v0.5h-3.3V19.2z"/>
    <path d="M368.7,16.1l1.8-1.8H368v-0.5h3.3v0.5l-1.7,1.7c0.9,0,1.7,0.5,1.7,1.5c0,0.8-0.4,1.4-1.1,1.8c-0.5,0.3-1.1,0.5-2.2,0.5v-0.6
        c1,0,1.4-0.1,1.7-0.3c0.5-0.3,1-0.8,1-1.4c0-0.8-0.7-1-1.3-1c-0.2,0-0.5,0-0.7,0.1V16.1z"/>
    <line fill="none" stroke="#000000" stroke-width="0.75" stroke-miterlimit="10" x1="211" y1="42.9" x2="295.9" y2="42.9"/>
    <line fill="none" stroke="#000000" stroke-width="0.75" stroke-miterlimit="10" x1="16.5" y1="79.6" x2="273.4" y2="79.6"/>
    <line fill="none" stroke="#000000" stroke-width="0.75" stroke-miterlimit="10" x1="16.5" y1="99.6" x2="372.4" y2="99.6"/>
    <line fill="none" stroke="#000000" stroke-width="0.75" stroke-miterlimit="10" x1="16.5" y1="139.2" x2="372.4" y2="139.2"/>
    <g>
        <g>
            <path fill="#0000B3" d="M220.2,34.4c-5.9-4.6,6.8-11.9,9.8-14.7c-2.1,1.9-2.3,5.7-2.7,8.5c-0.7,4.3-1.1,8.5-2,12.7
                c-0.5,2.5-2.8,11.1-6.3,8.1c-2.5-2.1-0.5-5.7,0.9-7.7c3.6-5.2,9.1-8.9,14-12.7c0.4-0.3,0-0.6-0.4-0.5c-3.7,1.1-5.5,4.7-6.2,8.3
                c-0.1,0.4,0.6,0.2,0.8,0.1c1.7-1.1,3.2-2.3,4.4-4c0.3-0.4,0.6-0.8,0.8-1.2c1.1-1.1,1.2-1.5,0.1-1.1c-0.7,2-0.9,4.1-1.3,6.2
                c-0.1,0.5,0.7,0.2,0.9,0.1c2-1.6,3.4-3.5,4.8-5.6c0.7-1.1,1.7-4,1.5-0.8c-0.1,2.1-0.6,4.2-1,6.3c-0.1,0.5,0.8,0.2,0.9,0
                c0.9-1.2,1.7-2.5,2.5-3.7c1.9-3,1.7-3.1,1.8-1.3c0.1,2.3,0.4,4.6,1.8,6.6c1.8,2.6,5.1-0.6,6.3-1.9c0.4-0.4-0.5-0.5-0.8-0.2
                c-5.5,6.1-6.4-3.1-6.2-6.6c0-0.4-0.7-0.2-0.9-0.1c-1.9,1.8-3.1,3.9-4.5,6c1.3-2,1.2-5.5,1-7.8c0-0.4-0.8-0.1-0.9,0.1
                c-1.7,2.2-3.2,4.7-4.9,6.9c-1.8,2.2-0.9,0-0.7-1.2c0.3-1.5,0.7-2.9,1.2-4.4c0.1-0.4-0.8-0.2-0.9,0c-1,1.7-2,3.2-3.2,4.7
                c-1.2,1.4-3.1,3.5-1.5-0.5c0.7-1.8,2.1-3.3,3.6-4.5c-0.5,0.4-1,0.8-1.6,1.2c-3.1,2.4-6.2,4.9-9,7.7c-3.7,3.7-8.7,10.1-2,13.5
                c0.2,0.1,0.6,0,0.8-0.1c8.5-7.7,5.3-21.8,9.4-31.7c0.2-0.5-0.7-0.3-0.8-0.1c-3,3.2-16.9,10.7-10.2,15.9
                C219.8,35.1,220.6,34.7,220.2,34.4L220.2,34.4z"/>
        </g>
    </g>
    <g>
        <g>
            <path fill="#0000B3" d="M261.7,25.3c4-4.1,4.1,4.2,3.5,6.4c-0.8,2.7-2.8,4.8-5.6,5.3c-2.7,0.5,0.7-0.1,0.9-0.1
                c1.6-0.3,3.2-0.1,4.7,0.2c2.7,0.4,5.3,1.7,7.6,3.1c0.3,0.2,1.1-0.2,0.9-0.4c-4.9-3-10.5-4.5-16.1-2.7c-0.3,0.1-0.7,0.4-0.1,0.4
                c5.4,0,9-3.8,9.1-9.1c0.1-4.1-2.8-6.2-5.8-3.1C260.5,25.6,261.5,25.5,261.7,25.3L261.7,25.3z"/>
        </g>
    </g>
    <g>
        <g>
            <path fill="#0000B3" d="M274.5,24.8c-1.8,3.8-2.9,9.9,0.5,13.1c0.2,0.2,0.6,0.1,0.8-0.1c2.5-2.3,3.7-5.3,3.5-8.7
                c-0.1-1.4-0.3-2.7-1.7-3c-1-0.2-2,0.2-2.9,0.7c-0.6,0.3-0.1,0.8,0.4,0.5c3.4-1.6,3.3,2.1,3.1,4.2c-0.2,2.4-1.6,4.5-3.3,6.1
                c0.3,0,0.6-0.1,0.8-0.1c-3.2-3.1-2.2-9-0.4-12.6C275.7,24.4,274.7,24.5,274.5,24.8L274.5,24.8z"/>
        </g>
    </g>
    <g>
        <g>
            <path fill="#0000B3" d="M282.5,19.5c-0.8,2.5-1.3,5.1-0.9,7.7c0.1,0.4,0.6,0.2,0.8,0.1c2.1-1.5,3.3-3,3.7-5.6
                c0.1-0.5-0.9-0.3-1,0.1c-0.4,1.5-0.5,3-0.9,4.4c-0.1,0.5,0.7,0.3,0.9,0.1c0.8-0.9,1.9-2,3.3-1.6c1,0.3,1.7,1.6,2.1,2.5
                c0.2,0.4,1.2,0.2,1-0.3c-0.6-1.2-1.4-2.8-2.9-3c-1.8-0.2-3.1,0.9-4.2,2.1c0.3,0,0.6,0.1,0.9,0.1c0.4-1.5,0.5-3,0.9-4.4
                c-0.3,0-0.7,0-1,0.1c-0.4,2.4-1.5,3.7-3.4,5.1c0.3,0,0.5,0.1,0.8,0.1c-0.4-2.5,0.1-5,0.9-7.4C283.6,19.1,282.7,19.1,282.5,19.5
                L282.5,19.5z"/>
        </g>
    </g>
    <g>
        <g>
            <path fill="#0000B3" d="M279.5,22.1c5.6-1,11-2.6,16.5-4c0.6-0.2,0.4-0.9-0.2-0.7c-5.5,1.4-10.9,3-16.5,4
                C278.7,21.5,278.9,22.2,279.5,22.1L279.5,22.1z"/>
        </g>
    </g>
    <g>
        <g>
            <path fill="#0000B3" d="M196.6,135.9c-0.3,0-0.8,0-1.1,0.2c0.7-1.3,1.6-2.4,2.7-3.3c1.1-1.1,2.4-1.9,3.8-2.5c3-1.4,5.2,0,5.2,2.8
                c0,2.6-2.7,4.9-4.5,6.4c-0.9,0.7,0.4-0.9,0.8-1.6c0.8-1.6,1.7-3.1,2.6-4.6c1.1-1.7,2.4-3.2,4-4.4c4.8-3.6,5.5,3,5,5.1
                c-0.7,3.2-3.2,6.1-5.4,8.4c-3.1,3.2-1.6-2.3-1.1-4.3c2-6.7,9.5-17.2,17.5-15.5c5.3,1.1,6.8,6.6,4.7,10.9c-2.4,5-7.4,8.9-11.7,12.3
                c-7.4,5.8-15.7,10.9-24.1,15c-0.6,0.3-0.1,0.7,0.4,0.5c7.1-3.5,13.9-7.6,20.3-12.2c6.3-4.4,14.7-10.2,16.9-18
                c1.8-6.4-6.2-10.9-11.6-8.7c-6.9,2.9-16.4,13.7-13.8,21.8c0.1,0.3,0.6,0.1,0.8,0c4.4-2.5,12.3-12.6,5.8-16.5
                c-5.6-3.3-11.2,9.4-12.6,12.6c-0.2,0.4,0.6,0.3,0.8,0.2c2.8-1.9,9.3-7.7,4.6-11c-4.3-3-10.3,4-12.4,6.7c-0.1,0.1,0,0.2,0.1,0.3
                c1.4,0.6,0.8,0,2.3,0C196.9,136.4,197.2,135.8,196.6,135.9L196.6,135.9z"/>
        </g>
    </g>
    <g>
        <g>
            <path fill="#0000B3" d="M238.9,135.6c-0.3-0.4,2.5-0.8,2.9-0.8c1.3-0.2,2.6-0.3,3.9-0.6c0.4-0.1,0.8-0.6,0.2-0.4
                c-2.1,0.4-4.1,0.6-6.2,1c-0.4,0.1-2.3,0.5-1.7,1.2C238.2,136.2,239.1,135.8,238.9,135.6L238.9,135.6z"/>
        </g>
    </g>
    <g>
        <g>
            <path fill="#0000B3" d="M250.2,133.7c1.6-3.9,3.9-7,7.2-9.7c3.7-2.8,2.8,4.3,2.6,5.1c-0.3,1.4-0.9,2.9-1.4,4.2
                c-0.1,0.3,0.8,0.1,0.9-0.1c0.9-1.2,1.7-2.4,2.5-3.7c1-1.5,4.4-4.5,3.6-0.6c-0.4,1.9-1.4,3.6-2.5,5.1c0-0.9,0.2-1.8,0.5-2.7
                c0.4-1.2,1.1-2.3,1.9-3.3c3.1-4.2,9.8-4,11.8,0.7c0.8,1.8,0.2,4-0.4,5.7c-2.8,8.4-10.8,16-17.3,21.8c-0.4,0.3,0.6,0.3,0.8,0.1
                c7-6.2,17-15.3,18.2-25.1c0.5-3.9-3.3-7.4-7.2-6.9c-5.4,0.7-9.2,5.4-9.3,10.8c0,0.3,0.8-0.1,0.9-0.1c2.9-3,4-6.5,4-10.7
                c0-0.2-0.7,0-0.8,0c-3.1,1.9-4.8,4.7-6.8,7.7c1.9-2.9,2.7-6.7,0.5-9.9c-0.1-0.2-0.6,0-0.7,0.1c-4.8,2.6-8.1,6.4-10.1,11.5
                C249.1,134.1,250.1,134,250.2,133.7L250.2,133.7z"/>
        </g>
    </g>
    <g>
        <g>
            <path fill="#0000B3" d="M283.4,133c7-2.6,17.5-7,18.9-15.4c0-0.2-0.2-0.2-0.3-0.2c-4.7,0.1-13.1,7-6.6,10.7
                c2.3,1.4,5.8-0.2,7.7-1.6c1.9-1.4,3.7-3,5.3-4.7c0.9-0.9,1.2-2.6,0.3-0.7c-0.6,1.2-0.3,2.9-0.6,4.2c0,0.2,0.2,0.2,0.3,0.2
                c17.2,1.2,34.6,0,51.8,1.6c0.3,0,1.1-0.4,0.6-0.5c-9.7-0.9-19.4-1-29.1-1c-5.1,0-10.2-0.1-15.3-0.2c-0.6,0-7.3,0-7.1-1
                c0.4-1.7,0.2-3.1,1.1-4.7c0.2-0.3-0.8-0.1-0.9,0.1c-2.4,2.7-4.9,5.3-8,7.2c-3.3,2.1-8.3,0.8-7.3-3.4c0.5-2.3,3.4-4.3,5.4-5.2
                c3.3-1.6,0.1,3.8-0.2,4.3c-1.4,2-3.5,3.5-5.4,4.8c-3.3,2.2-7,3.8-10.8,5.2C282.4,132.8,283,133.1,283.4,133L283.4,133z"/>
        </g>
    </g>
    <g>
        <g>
            <path fill="#0000B3" d="M299,119.9c12.2-2.9,24.7-3.1,37.1-4.1c0.3,0,1-0.5,0.4-0.4c-12.6,1-25.2,1.3-37.6,4.2
                C298.3,119.7,298.4,120.1,299,119.9L299,119.9z"/>
        </g>
    </g>
    <g>
        <g>
            <path fill="#0000B3" d="M288,75.5c1.5-5,4.2-9.4,7.1-13.7c-0.3,0-0.6,0-0.9,0c-0.1,5-1.7,9.8-2.7,14.7c-0.1,0.5,0.9,0.3,1-0.1
                c0.9-4.9,2.6-9.7,2.7-14.7c0-0.5-0.8-0.3-0.9,0c-2.9,4.4-5.7,8.8-7.1,13.9C286.8,76,287.8,75.9,288,75.5L288,75.5z"/>
        </g>
    </g>
    <g>
        <g>
            <path fill="#0000B3" d="M307.1,62.5c-1.2-2.5-3.5-1.9-5.2-0.2c-2.4,2.4-3.6,5.5-3.2,8.8c0.3,2.3,1.8,3.2,3.9,2.1
                c2.6-1.5,4.2-4.8,5-7.5c0.1-0.3-0.9-0.2-1,0.1c-0.7,2.2-1.8,4.3-3.3,6c-0.5,0.6-1.3,1.4-2.1,1.4c-0.9,0-1.3-1.3-1.4-2
                c-0.5-2.5,0.2-4.6,1.4-6.7c0.5-0.9,1.2-1.8,2-2.5c1.3-1.2,2.3-0.7,3,0.7C306.3,63.1,307.2,62.8,307.1,62.5L307.1,62.5z"/>
        </g>
    </g>
    <g>
        <g>
            <path fill="#0000B3" d="M315.5,62.5c-4.1-4.3-9.8,6.7-6.6,10.3c1.3,1.5,3.3,0,4.3-1.1c1.9-2.1,3.4-5.1,3.7-7.9c0-0.1-0.9,0-1,0.3
                c-0.2,1.6-3.6,10.7-6,8.5c-1.5-1.4-1.1-4.4-0.5-6.1c0.7-1.8,3-6,5.2-3.7C314.8,63,315.6,62.7,315.5,62.5L315.5,62.5z"/>
        </g>
    </g>
    <g>
        <g>
            <path fill="#0000B3" d="M316.8,70.6c-1,2.8-2.3,5.4-3.6,8c-0.2,0.5,0.7,0.5,0.9,0.1c1.3-2.6,2.6-5.2,3.6-8
                C317.9,70.2,316.9,70.2,316.8,70.6L316.8,70.6z"/>
        </g>
    </g>
    <g>
        <g>
            <path fill="#0000B3" d="M322.6,63.2c-0.3,0.9-0.8,1.7-0.4,2.7c0.1,0.2,0.5,0.1,0.7,0c1.3-0.4,2.6-1.2,2.9-2.6
                c0.2-1.3-1.2-2.1-2.3-2.2c0,0.1,0,0.2,0,0.3c-0.3,0.2,0.4,0,0.5,0c0.5-0.1,0.9-0.1,1.4-0.2c0.6-0.1,0.8-0.1,1.1,0.6
                c0.2,0.5,0.3,0.7,0.7,1.1c0.2,0.1,0.5,0,0.7-0.1c1.4-0.7,1.7-1,2.4-2.4c0,0,0-0.1,0-0.1c-0.3-0.3-0.6-0.7-1-0.7
                c-0.4,0-0.9,0.3-1.3,0.2c-0.2-0.1-1.1,0.3-0.8,0.4c0.6,0.2,1.4-0.3,1.9,0.1c0.4,0.3-0.2,1.3-0.4,1.5c-0.3,0.4-1,0.6-1.4,0.8
                c0.2,0,0.5-0.1,0.7-0.1c-0.7-0.5-0.7-1.3-1.3-1.8c-0.2-0.2-0.8,0-1,0c-0.9,0.1-2.1,0.1-2.8,0.5c-0.2,0.1-0.3,0.3,0,0.3
                c0.9,0.1,1.7,0.6,2,1.5c0.3,1.3-1.2,2.3-2.2,2.6c0.2,0,0.4,0,0.7,0c-0.4-0.9,0.1-1.7,0.4-2.6C323.6,62.8,322.7,62.9,322.6,63.2
                L322.6,63.2z"/>
        </g>
    </g>
    <g>
        <g>
            <path fill="#0000B3" d="M322.1,68.7c4.6-0.8,9.2-1.7,13.8-2.2c0.5,0,0.8-0.6,0.1-0.5c-4.6,0.5-9.2,1.4-13.8,2.2
                C321.8,68.3,321.4,68.8,322.1,68.7L322.1,68.7z"/>
        </g>
    </g>
    <g>
        <g>
            <path fill="#0000B3" d="M56.8,88.6c-1.4,1.3-3.8,4.8-2.3,6.8c1.3,1.7,3.5,1.2,4.9,0c1.3-1,2.8-3.5,1.4-4.9
                c-0.6-0.7-1.8-0.5-2.6-0.4c0.1,0.3,0.2,0.4,0.4,0.3c1-0.3,2-0.7,3-1c1-0.3,2.7-0.8,2.8,0.7c0.1,1.1,0,1.7-0.4,2.6
                c-0.1,0.3,0.8,0,0.9-0.1c1.4-1.4,2.7-3,4.5-3.9c-0.3,0-0.5,0-0.8,0c-0.9,6.2,5.8,4.3,6.7-0.1c0.1-0.3-0.7-0.1-0.8,0
                c-1.7,1.1-3.1,2.8-0.9,4.1c1.8,1.1,4.4,0.7,6.1-0.3c0.6-0.3-0.3-0.4-0.6-0.2c-2.8,1.4-8.5-0.6-4.1-3.4c-0.3,0-0.5,0-0.8,0
                c-0.3,1.4-1,2.5-2.2,3.3c-2.7,1.7-2.8-2.1-2.6-3.5c0-0.3-0.7-0.1-0.8,0c-2,0.9-3.4,2.6-4.9,4.1c0.3,0,0.6-0.1,0.9-0.1
                c0.6-1.3,0.4-2.6,0.4-4c0-0.1-0.2-0.1-0.3-0.1c-2.6,0.1-5,1.1-7.5,1.8c-0.4,0.1-0.6,0.5,0,0.4c4-0.8,3.1,2.9,1.2,4.7
                c-2.4,2.2-3.8-0.8-3.4-2.7c0.3-1.5,1.2-3,2.3-4C58,88.3,57,88.4,56.8,88.6L56.8,88.6z"/>
        </g>
    </g>
    <g>
        <g>
            <path fill="#0000B3" d="M97.9,77.9c0.1-0.7,0.2-1.2,0-1.9c0-0.1-0.1-0.1-0.2-0.1c-3,0.2-4.5,2.4-5.6,5c-1.7,4.1-1.9,8.6-3.5,12.7
                c-0.1,0.1,0.8,0,1-0.2c1.1-2.4,2.8-4.3,5.2-5.6c-0.3,0-0.6,0.1-0.8,0.1c-0.1,3.5-1.4,6.8-1.9,10.2c0,0.2,0.8-0.1,0.8-0.1
                c3.1-2,4.3-5.8,6.2-8.8c-0.3,0.1-0.6,0.1-1,0.2c-0.3,1-2.8,7.6,0.5,6.7c2.8-0.7,3.9-4.5,4.3-6.9c0-0.1-0.9,0-1,0.2
                c-1.1,2-1.5,3.9-0.8,6.1c0.1,0.2,0.8-0.1,0.9-0.2c2.3-1.7,3.6-4.3,5.3-6.5c-0.3,0.1-0.6,0.1-1,0.2c0.4,2.2,0.3,4.2-0.4,6.4
                c-0.1,0.2,0.9,0,1-0.2c1-2,2.1-3.9,4-5.2c-0.3,0-0.6,0.1-0.8,0.1c-0.2,1.8,0.6,3.5,0.4,5.3c0,0.1,0.6,0,0.6,0
                c1.5-0.5,2.5-1.3,3.7-2.4c0.2-0.2-0.7-0.1-0.9,0.1c-1,1-1.7,1.7-3.1,2.1c0.2,0,0.4,0,0.6,0c0.2-1.8-0.6-3.5-0.4-5.3
                c0-0.2-0.8,0.1-0.8,0.1c-2,1.4-3.2,3.2-4.3,5.4c0.3-0.1,0.6-0.1,1-0.2c0.6-2.2,0.8-4.2,0.4-6.5c0-0.2-0.9,0.1-1,0.2
                c-1.7,2.2-3,4.7-5.2,6.4c0.3-0.1,0.6-0.1,0.9-0.2c-0.7-2.1-0.3-4,0.7-6c-0.3,0.1-0.6,0.1-1,0.2c-0.4,2.2-1.1,4.6-2.9,6.2
                c-0.9,0.8-1.1-1.1-1.1-1.5c0-1.6,0.6-3.3,1.2-4.9c0.1-0.2-0.8,0-1,0.2c-1.7,2.9-3,6.7-5.9,8.6c0.3,0,0.6-0.1,0.8-0.1
                c0.5-3.4,1.8-6.7,1.9-10.2c0-0.2-0.8,0.1-0.8,0.1c-2.5,1.3-4.2,3.2-5.4,5.8c0.3-0.1,0.6-0.1,1-0.2c1.1-2.9,1.6-6.1,2.4-9
                c0.4-1.7,1-3.4,1.8-5c0.7-1.4,3.6-4.6,3.2-1.2C96.9,78.3,97.8,78.2,97.9,77.9L97.9,77.9z"/>
        </g>
    </g>
    <g>
        <g>
            <path fill="#0000B3" d="M119.8,90.1c0.3-2.1-0.5-2.5-2.3-1.4c-2.5,1.5-3.4,4.9-2.8,7.6c0,0.2,0.5,0.1,0.7,0.1
                c6.3-3,8.4-12,10.1-18c0.1-0.4-0.8-0.1-0.9,0.1c-2.8,4.5-5.6,10.2-3.8,15.6c0.1,0.2,0.5,0.1,0.7,0.1c3.3-1.5,4.4-4.9,5.2-8.2
                c-0.3,0.1-0.6,0.1-1,0.2c1.2,2.3,0,5,0.8,7.6c0.1,0.2,0.4,0.1,0.5,0.1c2.9-0.6,4.4-2.7,4.6-5.6c0-0.4-0.7-0.2-0.9,0
                c-2,2.1-3.3,4.5-2.4,7.4c0,0.1,0.2,0.1,0.3,0.1c2.8-0.1,5-1.3,7-3.2c0.4-0.4-0.5-0.4-0.8-0.2c-0.7,0.7-5.1,4.3-5.8,2.2
                c-0.8-2.3,1-4.7,2.4-6.2c-0.3,0-0.6,0-0.9,0c-0.1,2.4-1.2,4.4-3.7,5c0.2,0,0.4,0.1,0.5,0.1c-0.7-2.5,0.5-5.2-0.8-7.6
                c-0.2-0.3-0.9-0.1-1,0.2c-0.7,2.9-1.6,6.3-4.6,7.7c0.2,0,0.4,0,0.7,0.1c-1.8-5.3,1-10.9,3.7-15.3c-0.3,0-0.6,0-0.9,0.1
                c-1.6,5.7-3.6,14.7-9.5,17.5c0.2,0,0.4,0,0.7,0.1c-0.3-1.5-0.2-2.9,0.3-4.3c0.4-1.1,3.2-4.2,2.8-1.5
                C118.7,90.6,119.7,90.4,119.8,90.1L119.8,90.1z"/>
        </g>
    </g>
    <g>
        <g>
            <path fill="#0000B3" d="M138.7,89.5c-2-0.1-5.1,1.7-5.1,4c0,2.1,2.4,2.4,3.8,1.4c2.4-1.8,3.6-5,4.8-7.6c1-2.4,2.4-5.4,2.5-8.1
                c0-0.4-0.7-0.1-0.9,0c-7.4,5.7-6.5,16.4-7.3,24.7c0,0.4,0.9,0.2,1-0.1c0.8-8.2-0.2-18.8,7.1-24.4c-0.3,0-0.6,0-0.9,0
                c-0.1,3-1.7,6.3-2.9,9c-0.8,1.8-1.8,3.7-3,5.3c-0.8,1-2.2,2.1-3.2,0.4c-1-1.8,2.4-4,3.7-3.9C138.7,90.1,139.4,89.5,138.7,89.5
                L138.7,89.5z"/>
        </g>
    </g>
    <g>
        <g>
            <path fill="#0000B3" d="M151.5,93.7c2.5-0.8,4.5-2.5,5.4-5c0.1-0.3-0.4-0.2-0.5-0.2c-2.2,0.7-7.2,5.7-3.4,7.3
                c3.4,1.5,6.9-4.9,8.1-7c0.2-0.4-0.7-0.3-0.8-0.1c-1.9,2.1-3.5,4.6-2.6,7.5c0.1,0.3,0.6,0.1,0.8,0c2.9-1.6,4.8-4.4,6.5-7.1
                c0.2-0.4-0.7-0.3-0.8-0.1c-1.6,1.7-2.9,3.6-2,5.9c0.1,0.3,0.6,0.1,0.8,0c2.7-1.7,4.1-4.6,6.7-6.3c-0.3,0-0.5-0.1-0.8-0.1
                c-0.5,1.3-0.4,2.7-0.6,4.1c-0.1,0.4,0.6,0.1,0.8,0.1c1.9-1,3.5-2.2,5.2-3.6c-0.3,0-0.6-0.1-0.8-0.1c-0.9,1.7-1.3,3.4,0.7,4.4
                c0.2,0.1,0.6,0,0.8-0.2c2-1.9,2.8-5.9-1.1-4.8c-0.1,0-0.7,0.3-0.3,0.5c1.9,0.7,3.6,0.4,5.5-0.1c0.8-0.2,1.5-0.4,2.3-0.6
                c1.5-0.4,0.7,1.3,0.5,1.8c-0.6,1.9-2.1,3.4-3.6,4.6c0.3,0,0.6,0.1,0.8,0.1c5-7.4,15.9-3,22.7-1.3c0.3,0.1,1.1-0.4,0.6-0.5
                c-7.4-1.8-18.9-6.1-24.2,1.8c-0.3,0.4,0.7,0.2,0.8,0.1c2.3-1.8,4-4.1,4.2-7.1c0-0.2-0.3-0.2-0.4-0.2c-2.8,0.4-5.8,2.1-8.6,1
                c-0.1,0.2-0.2,0.3-0.3,0.5c2.4-0.7,1.9,1.5,1.3,2.8c-0.2,0.4-0.5,1.2-1.2,0.7c-1-0.8-0.1-2.5,0.3-3.3c0.2-0.4-0.7-0.2-0.8-0.1
                c-1.6,1.3-3.2,2.5-5,3.4c0.3,0,0.5,0.1,0.8,0.1c0.2-1.4,0.1-2.8,0.6-4.1c0.1-0.3-0.7-0.1-0.8-0.1c-2.6,1.8-4,4.7-6.7,6.3
                c0.3,0,0.5,0,0.8,0c-0.8-2.2,0.4-4,1.8-5.5c-0.3,0-0.6-0.1-0.8-0.1c-1.6,2.6-3.4,5.3-6.2,6.8c0.3,0,0.5,0,0.8,0
                c-0.8-2.7,0.6-5.1,2.4-7.1c-0.3,0-0.6-0.1-0.8-0.1c-1.1,2.2-2.5,4.3-4.4,5.9c-1.6,1.3-2.8,0.8-3.2-0.5c-0.2-0.8,0.4-1.7,0.8-2.3
                c0.7-1.1,1.9-2.5,3.2-2.8c-0.2-0.1-0.4-0.1-0.5-0.2c-0.8,2.2-2.5,3.7-4.8,4.5C150.4,93.5,151,93.8,151.5,93.7L151.5,93.7z"/>
        </g>
    </g>
    <g>
        <g>
            <path fill="#0000B3" d="M211.4,93.9c12,0.8,24-0.8,35.9-2c13.5-1.4,27.2-1.6,40.7-1.8c14.5-0.2,29.1,0,43.6,0.5
                c12.9,0.5,25.8,1.8,38.7,0.9c0.8-0.1,1.1-1.1,0.1-1.1c-13.4,0.9-26.8-0.5-40.2-1C317.5,89,304.8,88.9,292,89
                c-13.1,0.1-26.2,0.2-39.3,1.3c-13.6,1.1-27.1,3.5-40.8,2.5C211.2,92.8,210.4,93.9,211.4,93.9L211.4,93.9z"/>
        </g>
    </g>
    <g>
        <g>
            <path fill="#0000B3" d="M13.2,90.8c11.1-0.2,22.2-2.2,33.2-0.3c0.4,0.1,1.7-0.5,0.9-0.6c-11.1-2-22.3,0.1-33.5,0.3
                C13.4,90.2,12.2,90.8,13.2,90.8L13.2,90.8z"/>
        </g>
    </g>
    <rect id="valueColor03" x="16" y="16" fill="#95BDD4" width="35.2" height="16.2"/>
    <rect id="valueColor04" x="53.8" y="16" fill="#95BDD4" width="58.2" height="16.2"/>
    <g>
        <g>
            <path fill="#0000B3" d="M111.9,73.6c-2-1.3-5.9-2.7-1.9-5.5c1.3-0.9,2.9-1.5,4.3-2.3c2.3-1.2,4.2-2.5,5.6-4.7
                c0.3-0.4-0.7-0.2-0.8-0.1c-1.6,1.2-2.4,3.7-3.2,5.5c-1.7,3.8-3.2,7.7-5.2,11.3c-2.4,4.3-6.2,8.2-10.4,3.5c-3.5-3.8,3.2-6.5,6-7.9
                c2.5-1.2,7.1-4.2,8.4-0.4c2.2,6.3,5.8-3.2,3.1-3.1c5.4-0.2,17.6-3.7,17.5-10.6c0-0.2-0.5-0.1-0.5-0.1c-6.5,1.3-8.5,8.9-11.3,14
                c-0.2,0.4,0.7,0.2,0.9,0c1-1.2,7.9-6.6,6-1.9c-0.6,1.6-0.7,2.6-0.6,4.3c0,0.2,0.4,0.1,0.5,0.1c1.3-0.4,2.2-0.9,3.3-1.8
                c0.4-0.3,2.5-2.6,2.5-2.6c1-1-0.4,3.1-0.6,3.6c-0.1,0.4,0.7,0.1,0.8,0.1c1.2-0.7,2.1-1.4,3.1-2.4c1.9-1.8,1.7-2.8,1.4-0.1
                c-0.2,1.6,1.1,2.6,2.3,3.3c3.3,1.8,8.4,1,11.9,0.3c0.6-0.1,0.5-0.6-0.1-0.5c-4.5,1-15.7,1.7-12.2-5.9c0.2-0.4-0.8-0.1-0.9,0
                c-1.4,1.2-2.7,2.5-4,3.7c-1.7,1.6,0.3-3.4,0.4-3.7c0.1-0.3-0.7-0.1-0.8-0.1c-1.1,0.7-2,1.5-2.9,2.5c-0.9,2-2.1,2.2-3.6,0.5
                c0.2-1.4,1.1-2.8,1.5-4.2c0.1-0.2-0.2-0.2-0.3-0.2c-2.1-0.1-3.9,0.4-5.5,1.8c-0.8,0.6-1.5,1.3-2.2,2.1c-0.2,0.2-0.1,0.3,0.4,0.3
                c0.9-1.7,1.7-3.5,2.6-5.3c0.7-1.5,1.6-2.8,2.5-4.2c0.9-1.7,2.3-2.3,4.2-1.9c-0.3,1.4-1.6,2.5-2.6,3.3c-3.6,3.1-9.5,4.9-14.2,5
                c-0.1,0-0.9,0.2-0.6,0.5c1.1,0.7,1.1,1.8,1,3c-0.5,3.9-2.7-2.2-2.9-3c0-0.2-0.4-0.2-0.5-0.1c-5.8,2-12.7,4.2-16.7,9.2
                c-0.1,0.1,0,0.1,0,0.2c5.2,8,10.5,5.1,14.5-2.1c2.2-4.1,3.8-8.5,5.7-12.7c0.4-0.8,0.8-1.6,1.3-2.4c0.2-0.3,0.4-0.5,0.6-0.8
                c-1.4,1.3-3.2,2.7-4.8,3.6c-2.9,1.8-5.9,2.8-8.3,5.4c0,0.1,0,0.1,0,0.2c1.3,1.5,2.9,2.5,4.5,3.6C111.4,74.2,112.3,73.8,111.9,73.6
                L111.9,73.6z"/>
        </g>
    </g>
    <g>
        <g>
            <path fill="#0000B3" d="M169.3,57.1c-4.9,4.9-7.2,11.6-9.1,18.1c-0.2,0.8,1.2,0.8,1.4,0.2c1.8-6.4,4.1-13.1,8.9-17.9
                C171.1,56.9,169.7,56.6,169.3,57.1L169.3,57.1z"/>
        </g>
    </g>
    <g>
        <g>
            <path fill="#0000B3" d="M164.2,59.6c10.6-3.8,10.5,7.1,6.8,13.5c-2.5,4.3-7,7.2-12.1,6.5c-5.8-0.7-10.8-6.2-0.3-8.1
                c4.1-0.8,8.4-1,12.5-1.1c1.2,0,7.4-0.8,6.2,1.2c-0.8,1.2-1.2,2.6-1.4,4c-0.2,1.5,0.9,2,2.2,1.6c3.3-0.9,5.6-8.4,1.9-6.1
                c-0.5,0.3,0.2,0.4,0.5,0.3c4.5-1.8,9.4-0.5,13.8-2.6c0.1,0,0.4-0.2,0.3-0.3c-5.5-4.2-15.3,3.9-7.4,8.2c3.9,2.1,9.7,0.4,13.6-0.8
                c4.9-1.4,9.6-3.5,14.1-5.8c0.6-0.3-0.3-0.4-0.6-0.2c-6.7,3.5-21.5,11.5-28.2,5.1c-1.2-1.1-1.3-2.5-0.9-3.9
                c0.8-0.8,1.5-1.5,2.3-2.3c4.2-1.8,5.1-1.5,2.7,1c-2.4,0.4-5,0.1-7.4,0.6c-2.1,0.5-1.4-0.1-1.6,2.6c-0.1,0.5-3.1,6.5-4.2,3.2
                c-0.6-1.7,1.2-4.6,2.2-5.8c0.1-0.2-0.1-0.2-0.2-0.2c-6.2-0.3-12.5,0-18.7,0.8c-3,0.4-7.3,0.9-8.7,4c-1.5,3.2,4.9,4.9,6.8,5.2
                c2.7,0.5,5.4-0.2,7.8-1.3c5.2-2.6,8.6-9.2,8.4-15c-0.2-6.1-6.2-6.1-10.6-4.6C163.2,59.5,163.8,59.7,164.2,59.6L164.2,59.6z"/>
        </g>
    </g>
    <script type="text/javascript">
        <![CDATA[
            let id = this.frameElement.id;
            let color;
            switch(id) {
                case "1": color = "#DA542E"; break;
                case "2": color = "#a9c783"; break;
                case "3": color = "#28a5e1"; break;
                case "4": color = "#95BDD4"; break;
            }
            document.getElementById("valueColor01").setAttribute("fill", color);
            document.getElementById("valueColor02").setAttribute("fill", color);
            document.getElementById("valueColor03").setAttribute("fill", color);
            document.getElementById("valueColor04").setAttribute("fill", color);
        ]]>
    </script>
</svg>