<?xml version="1.0" encoding="utf-8"?>
<!-- Generator: Adobe Illustrator 17.1.0, SVG Export Plug-In . SVG Version: 6.00 Build 0)  -->
<!DOCTYPE svg PUBLIC "-//W3C//DTD SVG 1.1//EN" "http://www.w3.org/Graphics/SVG/1.1/DTD/svg11.dtd">
<svg version="1.1" id="Layer_1" xmlns="http://www.w3.org/2000/svg" xmlns:xlink="http://www.w3.org/1999/xlink" x="0px" y="0px"
	 viewBox="0 0 180 110" enable-background="new 0 0 180 110" xml:space="preserve">
<rect id="BG_8_" x="1" y="3" fill="#FFFFFF" width="177" height="102"/>
<rect id="BG_1_" x="3" y="4" fill="#C8E8CC" width="174" height="100"/>
<rect x="39" y="4" fill="#337733" width="100" height="100"/>
<circle opacity="0.3" fill="#FFFFFF"  cx="90" cy="49.1" r="33.1"/>
<g>
	<text transform="matrix(1 0 0 1 41.0001 94.4786)" fill="#FFFFFF" font-size="8">BANK</text>
</g>
<rect x="41" y="96" fill="#114411" width="80" height="4"/>
<rect x="7" y="11" fill="#436EB3" fill-opacity="0" width="21" height="13"/>
<rect x="96.8" y="5" fill="none" width="81.2" height="27.6"/>
<text transform="matrix(1.0048 0 0 1 157 32.5244)" fill="#29282C" font-size="33.0686">$</text>
<rect x="1" y="85.4" fill="none" width="47.8" height="19.6"/>
<text transform="matrix(1 0 0 1 4 100)" fill="#29282C" font-size="20">$</text>
<path opacity="0.3" d="M1,2v104h178V2H1z M178,105H2V3h176V105z"/>
<path opacity="0.5" d="M2,3v102h176V3H2z M177,104H3V4h174V104z"/>
<path opacity="0.1" d="M0,1v106h180V1H0z M179,106H1V2h178V106z"/>
</svg>
