<?xml version="1.0" encoding="utf-8"?>
<!-- Generator: Adobe Illustrator 23.0.2, SVG Export Plug-In . SVG Version: 6.00 Build 0)  -->
<svg version="1.1" id="Layer_1" xmlns="http://www.w3.org/2000/svg" xmlns:xlink="http://www.w3.org/1999/xlink" x="0px" y="0px"
	 viewBox="0 0 174 394" enable-background="new 0 0 174 394" xml:space="preserve">
    <style type="text/css">
        @import "../default/default/svg.css";
    </style>

	<path opacity="0.6" d="M167.5,7.2v380H7.5V7.2H167.5 M172.5,2.2H2.5v390h170V2.2L172.5,2.2z"/>
	<path opacity="0.2" d="M168.5,8.2v380H8.5V8.2H168.5 M173.5,3.2H3.5v390h170V3.2L173.5,3.2z"/>
	<path opacity="0.1" d="M169,9v380H9V9H169 M174,4H4v390h170V4L174,4z"/>
	<path id="valueColor01" d="M166.5,6.2v380H6.5V6.2H166.5 M171.5,1.2H1.5v390h170V1.2L171.5,1.2z"/>
	<rect x="4" y="3.7" fill="#DAE8ED" width="165" height="385"/>
	<rect id="valueColor02" x="1.6" y="1.2" width="15.8" height="390"/>
	<g>
		<g>
			<defs>
				<polygon id="SVGID_1_" points="1.5,391.2 1.6,1.2 171.5,1.2 171.5,391.2 			"/>
			</defs>
			<clipPath id="SVGID_2_">
				<use xlink:href="#SVGID_1_"  overflow="visible"/>
			</clipPath>
			<g opacity="0.6" clip-path="url(#SVGID_2_)">
				<polyline fill="none" stroke="#95BDD4" stroke-width="0.5" stroke-miterlimit="10" points="165,-9.9 165,-9.9 187.7,12.8
					165,35.5 165,35.5 187.7,58.2 165,80.8 165,80.8 187.7,103.5 165,126.2 165,126.2 187.7,148.9 165,171.6 165,171.6 187.7,194.3
					165,217 165,217 187.7,239.7 165,262.4 165,262.4 187.7,285.1 165,307.8 165,307.8 187.7,330.5 165,353.2 165,353.2 187.7,375.9
					165,398.6 165,398.6 			"/>
				<polyline fill="none" stroke="#95BDD4" stroke-width="0.5" stroke-miterlimit="10" points="158.6,-9.9 158.6,-9.9 181.3,12.8
					158.6,35.5 158.6,35.5 181.3,58.2 158.6,80.8 158.6,80.8 181.3,103.5 158.6,126.2 158.6,126.2 181.3,148.9 158.6,171.6
					158.6,171.6 181.3,194.3 158.6,217 158.6,217 181.3,239.7 158.6,262.4 158.6,262.4 181.3,285.1 158.6,307.8 158.6,307.8
					181.3,330.5 158.6,353.2 158.6,353.2 181.3,375.9 158.6,398.6 158.6,398.6 			"/>
				<polyline fill="none" stroke="#95BDD4" stroke-width="0.5" stroke-miterlimit="10" points="152.1,-9.9 152.1,-9.9 174.8,12.8
					152.1,35.5 152.1,35.5 174.8,58.2 152.1,80.8 152.1,80.8 174.8,103.5 152.1,126.2 152.1,126.2 174.8,148.9 152.1,171.6
					152.1,171.6 174.8,194.3 152.1,217 152.1,217 174.8,239.7 152.1,262.4 152.1,262.4 174.8,285.1 152.1,307.8 152.1,307.8
					174.8,330.5 152.1,353.2 152.1,353.2 174.8,375.9 152.1,398.6 152.1,398.6 			"/>
				<polyline fill="none" stroke="#95BDD4" stroke-width="0.5" stroke-miterlimit="10" points="145.6,-9.9 145.6,-9.9 168.3,12.8
					145.6,35.5 145.6,35.5 168.3,58.2 145.6,80.8 145.6,80.8 168.3,103.5 145.6,126.2 145.6,126.2 168.3,148.9 145.6,171.6
					145.6,171.6 168.3,194.3 145.6,217 145.6,217 168.3,239.7 145.6,262.4 145.6,262.4 168.3,285.1 145.6,307.8 145.6,307.8
					168.3,330.5 145.6,353.2 145.6,353.2 168.3,375.9 145.6,398.6 145.6,398.6 			"/>
				<polyline fill="none" stroke="#95BDD4" stroke-width="0.5" stroke-miterlimit="10" points="139.2,-9.9 139.2,-9.9 161.9,12.8
					139.2,35.5 139.2,35.5 161.9,58.2 139.2,80.8 139.2,80.8 161.9,103.5 139.2,126.2 139.2,126.2 161.9,148.9 139.2,171.6
					139.2,171.6 161.9,194.3 139.2,217 139.2,217 161.9,239.7 139.2,262.4 139.2,262.4 161.9,285.1 139.2,307.8 139.2,307.8
					161.9,330.5 139.2,353.2 139.2,353.2 161.9,375.9 139.2,398.6 139.2,398.6 			"/>
				<polyline fill="none" stroke="#95BDD4" stroke-width="0.5" stroke-miterlimit="10" points="132.7,-9.9 132.7,-9.9 155.4,12.8
					132.7,35.5 132.7,35.5 155.4,58.2 132.7,80.8 132.7,80.8 155.4,103.5 132.7,126.2 132.7,126.2 155.4,148.9 132.7,171.6
					132.7,171.6 155.4,194.3 132.7,217 132.7,217 155.4,239.7 132.7,262.4 132.7,262.4 155.4,285.1 132.7,307.8 132.7,307.8
					155.4,330.5 132.7,353.2 132.7,353.2 155.4,375.9 132.7,398.6 132.7,398.6 			"/>
				<polyline fill="none" stroke="#95BDD4" stroke-width="0.5" stroke-miterlimit="10" points="126.3,-9.9 126.3,-9.9 149,12.8
					126.3,35.5 126.3,35.5 149,58.2 126.3,80.8 126.3,80.8 149,103.5 126.3,126.2 126.3,126.2 149,148.9 126.3,171.6 126.3,171.6
					149,194.3 126.3,217 126.3,217 149,239.7 126.3,262.4 126.3,262.4 149,285.1 126.3,307.8 126.3,307.8 149,330.5 126.3,353.2
					126.3,353.2 149,375.9 126.3,398.6 126.3,398.6 			"/>
				<polyline fill="none" stroke="#95BDD4" stroke-width="0.5" stroke-miterlimit="10" points="119.8,-9.9 119.8,-9.9 142.5,12.8
					119.8,35.5 119.8,35.5 142.5,58.2 119.8,80.8 119.8,80.8 142.5,103.5 119.8,126.2 119.8,126.2 142.5,148.9 119.8,171.6
					119.8,171.6 142.5,194.3 119.8,217 119.8,217 142.5,239.7 119.8,262.4 119.8,262.4 142.5,285.1 119.8,307.8 119.8,307.8
					142.5,330.5 119.8,353.2 119.8,353.2 142.5,375.9 119.8,398.6 119.8,398.6 			"/>
				<polyline fill="none" stroke="#95BDD4" stroke-width="0.5" stroke-miterlimit="10" points="113.3,-9.9 113.3,-9.9 136,12.8
					113.3,35.5 113.3,35.5 136,58.2 113.3,80.8 113.3,80.8 136,103.5 113.3,126.2 113.3,126.2 136,148.9 113.3,171.6 113.3,171.6
					136,194.3 113.3,217 113.3,217 136,239.7 113.3,262.4 113.3,262.4 136,285.1 113.3,307.8 113.3,307.8 136,330.5 113.3,353.2
					113.3,353.2 136,375.9 113.3,398.6 113.3,398.6 			"/>
				<polyline fill="none" stroke="#95BDD4" stroke-width="0.5" stroke-miterlimit="10" points="106.9,-9.9 106.9,-9.9 129.6,12.8
					106.9,35.5 106.9,35.5 129.6,58.2 106.9,80.8 106.9,80.8 129.6,103.5 106.9,126.2 106.9,126.2 129.6,148.9 106.9,171.6
					106.9,171.6 129.6,194.3 106.9,217 106.9,217 129.6,239.7 106.9,262.4 106.9,262.4 129.6,285.1 106.9,307.8 106.9,307.8
					129.6,330.5 106.9,353.2 106.9,353.2 129.6,375.9 106.9,398.6 106.9,398.6 			"/>
				<polyline fill="none" stroke="#95BDD4" stroke-width="0.5" stroke-miterlimit="10" points="100.4,-9.9 100.4,-9.9 123.1,12.8
					100.4,35.5 100.4,35.5 123.1,58.2 100.4,80.8 100.4,80.8 123.1,103.5 100.4,126.2 100.4,126.2 123.1,148.9 100.4,171.6
					100.4,171.6 123.1,194.3 100.4,217 100.4,217 123.1,239.7 100.4,262.4 100.4,262.4 123.1,285.1 100.4,307.8 100.4,307.8
					123.1,330.5 100.4,353.2 100.4,353.2 123.1,375.9 100.4,398.6 100.4,398.6 			"/>
				<polyline fill="none" stroke="#95BDD4" stroke-width="0.5" stroke-miterlimit="10" points="94,-9.9 94,-9.9 116.7,12.8 94,35.5
					94,35.5 116.7,58.2 94,80.8 94,80.8 116.7,103.5 94,126.2 94,126.2 116.7,148.9 94,171.6 94,171.6 116.7,194.3 94,217 94,217
					116.7,239.7 94,262.4 94,262.4 116.7,285.1 94,307.8 94,307.8 116.7,330.5 94,353.2 94,353.2 116.7,375.9 94,398.6 94,398.6
					"/>
				<polyline fill="none" stroke="#95BDD4" stroke-width="0.5" stroke-miterlimit="10" points="87.5,-9.9 87.5,-9.9 110.2,12.8
					87.5,35.5 87.5,35.5 110.2,58.2 87.5,80.8 87.5,80.8 110.2,103.5 87.5,126.2 87.5,126.2 110.2,148.9 87.5,171.6 87.5,171.6
					110.2,194.3 87.5,217 87.5,217 110.2,239.7 87.5,262.4 87.5,262.4 110.2,285.1 87.5,307.8 87.5,307.8 110.2,330.5 87.5,353.2
					87.5,353.2 110.2,375.9 87.5,398.6 87.5,398.6 			"/>
				<polyline fill="none" stroke="#95BDD4" stroke-width="0.5" stroke-miterlimit="10" points="81,-9.9 81,-9.9 103.7,12.8 81,35.5
					81,35.5 103.7,58.2 81,80.8 81,80.8 103.7,103.5 81,126.2 81,126.2 103.7,148.9 81,171.6 81,171.6 103.7,194.3 81,217 81,217
					103.7,239.7 81,262.4 81,262.4 103.7,285.1 81,307.8 81,307.8 103.7,330.5 81,353.2 81,353.2 103.7,375.9 81,398.6 81,398.6
					"/>
				<polyline fill="none" stroke="#95BDD4" stroke-width="0.5" stroke-miterlimit="10" points="74.6,-9.9 74.6,-9.9 97.3,12.8
					74.6,35.5 74.6,35.5 97.3,58.2 74.6,80.8 74.6,80.8 97.3,103.5 74.6,126.2 74.6,126.2 97.3,148.9 74.6,171.6 74.6,171.6
					97.3,194.3 74.6,217 74.6,217 97.3,239.7 74.6,262.4 74.6,262.4 97.3,285.1 74.6,307.8 74.6,307.8 97.3,330.5 74.6,353.2
					74.6,353.2 97.3,375.9 74.6,398.6 74.6,398.6 			"/>
				<polyline fill="none" stroke="#95BDD4" stroke-width="0.5" stroke-miterlimit="10" points="68.1,-9.9 68.1,-9.9 90.8,12.8
					68.1,35.5 68.1,35.5 90.8,58.2 68.1,80.8 68.1,80.8 90.8,103.5 68.1,126.2 68.1,126.2 90.8,148.9 68.1,171.6 68.1,171.6
					90.8,194.3 68.1,217 68.1,217 90.8,239.7 68.1,262.4 68.1,262.4 90.8,285.1 68.1,307.8 68.1,307.8 90.8,330.5 68.1,353.2
					68.1,353.2 90.8,375.9 68.1,398.6 68.1,398.6 			"/>
				<polyline fill="none" stroke="#95BDD4" stroke-width="0.5" stroke-miterlimit="10" points="61.7,-9.9 61.7,-9.9 84.4,12.8
					61.7,35.5 61.7,35.5 84.4,58.2 61.7,80.8 61.7,80.8 84.4,103.5 61.7,126.2 61.7,126.2 84.4,148.9 61.7,171.6 61.7,171.6
					84.4,194.3 61.7,217 61.7,217 84.4,239.7 61.7,262.4 61.7,262.4 84.4,285.1 61.7,307.8 61.7,307.8 84.4,330.5 61.7,353.2
					61.7,353.2 84.4,375.9 61.7,398.6 61.7,398.6 			"/>
				<polyline fill="none" stroke="#95BDD4" stroke-width="0.5" stroke-miterlimit="10" points="55.2,-9.9 55.2,-9.9 77.9,12.8
					55.2,35.5 55.2,35.5 77.9,58.2 55.2,80.8 55.2,80.8 77.9,103.5 55.2,126.2 55.2,126.2 77.9,148.9 55.2,171.6 55.2,171.6
					77.9,194.3 55.2,217 55.2,217 77.9,239.7 55.2,262.4 55.2,262.4 77.9,285.1 55.2,307.8 55.2,307.8 77.9,330.5 55.2,353.2
					55.2,353.2 77.9,375.9 55.2,398.6 55.2,398.6 			"/>
				<polyline fill="none" stroke="#95BDD4" stroke-width="0.5" stroke-miterlimit="10" points="48.7,-9.9 48.7,-9.9 71.4,12.8
					48.7,35.5 48.7,35.5 71.4,58.2 48.7,80.8 48.7,80.8 71.4,103.5 48.7,126.2 48.7,126.2 71.4,148.9 48.7,171.6 48.7,171.6
					71.4,194.3 48.7,217 48.7,217 71.4,239.7 48.7,262.4 48.7,262.4 71.4,285.1 48.7,307.8 48.7,307.8 71.4,330.5 48.7,353.2
					48.7,353.2 71.4,375.9 48.7,398.6 48.7,398.6 			"/>
				<polyline fill="none" stroke="#95BDD4" stroke-width="0.5" stroke-miterlimit="10" points="42.3,-9.9 42.3,-9.9 65,12.8
					42.3,35.5 42.3,35.5 65,58.2 42.3,80.8 42.3,80.8 65,103.5 42.3,126.2 42.3,126.2 65,148.9 42.3,171.6 42.3,171.6 65,194.3
					42.3,217 42.3,217 65,239.7 42.3,262.4 42.3,262.4 65,285.1 42.3,307.8 42.3,307.8 65,330.5 42.3,353.2 42.3,353.2 65,375.9
					42.3,398.6 42.3,398.6 			"/>
				<polyline fill="none" stroke="#95BDD4" stroke-width="0.5" stroke-miterlimit="10" points="35.8,-9.9 35.8,-9.9 58.5,12.8
					35.8,35.5 35.8,35.5 58.5,58.2 35.8,80.8 35.8,80.8 58.5,103.5 35.8,126.2 35.8,126.2 58.5,148.9 35.8,171.6 35.8,171.6
					58.5,194.3 35.8,217 35.8,217 58.5,239.7 35.8,262.4 35.8,262.4 58.5,285.1 35.8,307.8 35.8,307.8 58.5,330.5 35.8,353.2
					35.8,353.2 58.5,375.9 35.8,398.6 35.8,398.6 			"/>
				<polyline fill="none" stroke="#95BDD4" stroke-width="0.5" stroke-miterlimit="10" points="29.4,-9.9 29.4,-9.9 52.1,12.8
					29.4,35.5 29.4,35.5 52.1,58.2 29.4,80.8 29.4,80.8 52.1,103.5 29.4,126.2 29.4,126.2 52.1,148.9 29.4,171.6 29.4,171.6
					52.1,194.3 29.4,217 29.4,217 52.1,239.7 29.4,262.4 29.4,262.4 52.1,285.1 29.4,307.8 29.4,307.8 52.1,330.5 29.4,353.2
					29.4,353.2 52.1,375.9 29.4,398.6 29.4,398.6 			"/>
				<polyline fill="none" stroke="#95BDD4" stroke-width="0.5" stroke-miterlimit="10" points="22.9,-9.9 22.9,-9.9 45.6,12.8
					22.9,35.5 22.9,35.5 45.6,58.2 22.9,80.8 22.9,80.8 45.6,103.5 22.9,126.2 22.9,126.2 45.6,148.9 22.9,171.6 22.9,171.6
					45.6,194.3 22.9,217 22.9,217 45.6,239.7 22.9,262.4 22.9,262.4 45.6,285.1 22.9,307.8 22.9,307.8 45.6,330.5 22.9,353.2
					22.9,353.2 45.6,375.9 22.9,398.6 22.9,398.6 			"/>
				<polyline fill="none" stroke="#95BDD4" stroke-width="0.5" stroke-miterlimit="10" points="16.4,-9.9 16.4,-9.9 39.1,12.8
					16.4,35.5 16.4,35.5 39.1,58.2 16.4,80.8 16.4,80.8 39.1,103.5 16.4,126.2 16.4,126.2 39.1,148.9 16.4,171.6 16.4,171.6
					39.1,194.3 16.4,217 16.4,217 39.1,239.7 16.4,262.4 16.4,262.4 39.1,285.1 16.4,307.8 16.4,307.8 39.1,330.5 16.4,353.2
					16.4,353.2 39.1,375.9 16.4,398.6 16.4,398.6 			"/>
				<polyline fill="none" stroke="#95BDD4" stroke-width="0.5" stroke-miterlimit="10" points="10,-9.9 10,-9.9 32.7,12.8 10,35.5
					10,35.5 32.7,58.2 10,80.8 10,80.8 32.7,103.5 10,126.2 10,126.2 32.7,148.9 10,171.6 10,171.6 32.7,194.3 10,217 10,217
					32.7,239.7 10,262.4 10,262.4 32.7,285.1 10,307.8 10,307.8 32.7,330.5 10,353.2 10,353.2 32.7,375.9 10,398.6 10,398.6 			"/>
				<polyline fill="none" stroke="#95BDD4" stroke-width="0.5" stroke-miterlimit="10" points="3.5,-9.9 3.5,-9.9 26.2,12.8
					3.5,35.5 3.5,35.5 26.2,58.2 3.5,80.8 3.5,80.8 26.2,103.5 3.5,126.2 3.5,126.2 26.2,148.9 3.5,171.6 3.5,171.6 26.2,194.3
					3.5,217 3.5,217 26.2,239.7 3.5,262.4 3.5,262.4 26.2,285.1 3.5,307.8 3.5,307.8 26.2,330.5 3.5,353.2 3.5,353.2 26.2,375.9
					3.5,398.6 3.5,398.6 			"/>
				<polyline fill="none" stroke="#95BDD4" stroke-width="0.5" stroke-miterlimit="10" points="-2.9,-9.9 -2.9,-9.9 19.8,12.8
					-2.9,35.5 -2.9,35.5 19.8,58.2 -2.9,80.8 -2.9,80.8 19.8,103.5 -2.9,126.2 -2.9,126.2 19.8,148.9 -2.9,171.6 -2.9,171.6
					19.8,194.3 -2.9,217 -2.9,217 19.8,239.7 -2.9,262.4 -2.9,262.4 19.8,285.1 -2.9,307.8 -2.9,307.8 19.8,330.5 -2.9,353.2
					-2.9,353.2 19.8,375.9 -2.9,398.6 -2.9,398.6 			"/>
				<polyline fill="none" stroke="#95BDD4" stroke-width="0.5" stroke-miterlimit="10" points="-9.4,-9.9 -9.4,-9.9 13.3,12.8
					-9.4,35.5 -9.4,35.5 13.3,58.2 -9.4,80.8 -9.4,80.8 13.3,103.5 -9.4,126.2 -9.4,126.2 13.3,148.9 -9.4,171.6 -9.4,171.6
					13.3,194.3 -9.4,217 -9.4,217 13.3,239.7 -9.4,262.4 -9.4,262.4 13.3,285.1 -9.4,307.8 -9.4,307.8 13.3,330.5 -9.4,353.2
					-9.4,353.2 13.3,375.9 -9.4,398.6 -9.4,398.6 			"/>
				<polyline fill="none" stroke="#95BDD4" stroke-width="0.5" stroke-miterlimit="10" points="-15.9,-9.9 -15.9,-9.9 6.8,12.8
					-15.9,35.5 -15.9,35.5 6.8,58.2 -15.9,80.8 -15.9,80.8 6.8,103.5 -15.9,126.2 -15.9,126.2 6.8,148.9 -15.9,171.6 -15.9,171.6
					6.8,194.3 -15.9,217 -15.9,217 6.8,239.7 -15.9,262.4 -15.9,262.4 6.8,285.1 -15.9,307.8 -15.9,307.8 6.8,330.5 -15.9,353.2
					-15.9,353.2 6.8,375.9 -15.9,398.6 -15.9,398.6 			"/>
			</g>
		</g>
	</g>
	<path d="M13.9,20.6l-8.1-1.5v-0.4l3,0.5V18l0.4,0.2v1.2l1.4,0.3v-1.2l0.4,0.1v1.2l2.9,0.5V20.6z M5.8,20.4l8.1,1.5v0.3L11,21.7v1.2
		l-0.4-0.1v-1.2l-1.4-0.3v1.2l-0.4-0.1v-1.2l-3-0.6V20.4z"/>
	<path d="M9.6,33c-1,0-3.1,0.2-3.1-1.7c0-1.8,2-1.7,3.1-1.7c1.4,0,3.1-0.1,3.1,1.7C12.7,33.2,10.3,33,9.6,33z M9.6,30.3
		c-2.4,0-2.5,0.4-2.5,1c0,0.7,0.3,1,2.5,1c2.3,0,2.5-0.4,2.5-1C12.2,30.2,10.8,30.3,9.6,30.3z"/>
	<path d="M11.9,36.5l-0.4-1.1l0.5-0.2l0.7,1.9H7.2v1.3H6.6V35h0.5v1.5H11.9z"/>
	<path d="M7.2,40.4l2.9,2.2c0.3,0.3,0.6,0.6,1.1,0.6c0.6,0,1-0.4,1-1c0-0.7-0.6-1.1-1.2-1.2l0.1-0.6c1,0.1,1.7,0.7,1.7,1.8
		c0,0.9-0.6,1.6-1.5,1.6c-0.6,0-1-0.3-1.5-0.6l-2.5-2v2.6H6.6v-3.3L7.2,40.4L7.2,40.4z"/>
	<path d="M10.3,46.5l1.8,1.8v-2.5h0.5v3.3h-0.5l-1.7-1.7c0,0.9-0.5,1.7-1.5,1.7c-0.8,0-1.4-0.4-1.8-1.1c-0.3-0.5-0.5-1.1-0.5-2.2h0.6
		c0,1,0.1,1.4,0.3,1.7c0.3,0.5,0.8,1,1.4,1c0.8,0,1-0.7,1-1.3c0-0.2,0-0.5-0.1-0.7H10.3z"/>
	<path d="M8.1,51.2l4.6,0.9l-0.2,0.6l-3.9-0.8v1.6h3.1v0.6h-3v0.5H8.1v-0.5H6.6v-0.6h1.5V51.2z"/>
	<path d="M12.6,56.8v3.1h-0.5v-2.5h-1.8c0.1,0.3,0.2,0.6,0.2,0.9c0,0.9-0.6,1.6-1.6,1.6c-0.8,0-1.4-0.4-1.8-1.1
		c-0.3-0.5-0.5-1.1-0.5-2.3h0.6c0,0.7,0,1.4,0.3,1.8c0.3,0.5,0.8,0.9,1.5,0.9c0.6,0,1-0.4,1-1.1c0-0.4-0.1-0.7-0.3-1v-0.4L12.6,56.8
		L12.6,56.8z"/>
	<path d="M11.7,64.8c0.2-0.3,0.5-0.6,0.5-1c0-1.1-1.4-1.2-2.2-1.2c0.3,0.4,0.5,0.8,0.5,1.2c0,1.2-1,1.6-2,1.6c-1.1,0-2-0.6-2-1.7
		c0-1.5,1.9-1.6,3-1.6c1.2,0,3.2,0.2,3.2,1.8c0,0.5-0.2,1-0.5,1.3L11.7,64.8z M7.1,63.7c0,0.7,0.6,1.1,1.4,1.1c0.7,0,1.4-0.2,1.4-1
		c0-0.4-0.3-0.8-0.6-1.1C7.4,62.7,7.1,63.2,7.1,63.7z"/>
	<path d="M12.1,70.2v-2.5h0.5V71l-6.1-2.7l0.2-0.5L12.1,70.2z"/>
	<path d="M8.2,76.2c-1,0-1.6-0.8-1.6-1.7c0-1,0.6-1.7,1.6-1.7c0.8,0,1.2,0.5,1.6,1.2c0.3-0.5,0.8-1,1.5-1c0.9,0,1.5,0.6,1.5,1.5
		S12.1,76,11.3,76c-0.7,0-1.1-0.5-1.5-1C9.4,75.7,9,76.2,8.2,76.2z M8.1,73.4c-0.6,0-1,0.5-1,1.1s0.4,1.1,1,1.1c0.7,0,1-0.6,1.3-1.1
		C9.1,74,8.9,73.4,8.1,73.4z M11.2,75.4c0.5,0,1-0.3,1-0.9s-0.4-0.9-1-0.9s-0.8,0.5-1.1,0.9C10.4,74.9,10.6,75.4,11.2,75.4z"/>
	<path d="M7.6,78.8c-0.3,0.3-0.5,0.6-0.5,1c0,1.1,1.4,1.2,2.2,1.2c-0.3-0.4-0.5-0.7-0.5-1.2c0-1.1,0.9-1.5,1.9-1.5c1.1,0,2,0.6,2,1.7
		c0,1.6-1.9,1.6-3,1.6c-1.2,0-3.2-0.2-3.2-1.8c0-0.5,0.2-1,0.5-1.3L7.6,78.8z M12.2,79.9c0-0.7-0.6-1.1-1.4-1.1c-0.7,0-1.4,0.2-1.4,1
		c0,0.4,0.3,0.8,0.6,1.1C11.8,81,12.2,80.5,12.2,79.9z"/>
	<path d="M9.6,113.8c-1,0-3.1,0.2-3.1-1.7c0-1.8,2-1.7,3.1-1.7c1.4,0,3.1-0.1,3.1,1.7C12.7,114,10.3,113.8,9.6,113.8z M9.6,111.1
		c-2.4,0-2.5,0.4-2.5,1c0,0.7,0.3,1,2.5,1c2.3,0,2.5-0.4,2.5-1C12.2,111,10.8,111.1,9.6,111.1z"/>
	<path d="M11.9,117.3l-0.4-1.1L12,116l0.7,1.9H7.2v1.3H6.6v-3.4h0.5v1.5C7.1,117.3,11.9,117.3,11.9,117.3z"/>
	<path d="M7.2,121.2l2.9,2.2c0.4,0.3,0.6,0.5,1.1,0.5c0.6,0,1-0.4,1-1c0-0.7-0.6-1.1-1.2-1.2l0.1-0.6c1,0.1,1.7,0.7,1.7,1.8
		c0,0.9-0.6,1.6-1.5,1.6c-0.6,0-1-0.3-1.5-0.6l-2.5-2v2.6H6.6v-3.3H7.2z"/>
	<path d="M10.3,127.3l1.8,1.8v-2.5h0.5v3.3h-0.5l-1.7-1.7c0,0.9-0.5,1.7-1.5,1.7c-0.8,0-1.4-0.4-1.8-1.1c-0.3-0.5-0.5-1.1-0.5-2.2
		h0.6c0,1,0.1,1.4,0.3,1.7c0.3,0.5,0.8,1,1.4,1c0.8,0,1-0.7,1-1.3c0-0.2,0-0.5-0.1-0.7C9.8,127.3,10.3,127.3,10.3,127.3z"/>
	<path d="M8.1,132l4.6,0.9l-0.2,0.6l-3.9-0.8v1.6h3.1v0.6h-3v0.5H8.1v-0.5H6.6v-0.6h1.5V132z"/>
	<path d="M12.6,137.6v3.1h-0.5v-2.5h-1.8c0.1,0.3,0.2,0.6,0.2,0.9c0,0.9-0.6,1.6-1.6,1.6c-0.8,0-1.4-0.4-1.8-1.1
		c-0.3-0.5-0.5-1.1-0.5-2.3h0.6c0,0.7,0,1.4,0.3,1.8c0.3,0.5,0.8,0.9,1.5,0.9c0.6,0,1-0.4,1-1.1c0-0.4-0.1-0.7-0.3-1v-0.4h2.9V137.6z
		"/>
	<path d="M11.7,145.6c0.2-0.3,0.5-0.6,0.5-1c0-1.1-1.4-1.2-2.2-1.2c0.3,0.4,0.5,0.7,0.5,1.2c0,1.2-1,1.6-2,1.6c-1.1,0-2-0.6-2-1.7
		c0-1.5,1.9-1.6,3-1.6c1.2,0,3.2,0.2,3.2,1.8c0,0.5-0.2,1-0.5,1.3L11.7,145.6z M7.1,144.5c0,0.7,0.6,1.1,1.4,1.1c0.7,0,1.4-0.2,1.4-1
		c0-0.4-0.3-0.8-0.6-1.1C7.4,143.5,7.1,144,7.1,144.5z"/>
	<path d="M12.1,151v-2.5h0.5v3.3l-6.1-2.7l0.2-0.5L12.1,151z"/>
	<path d="M8.2,157c-1,0-1.6-0.8-1.6-1.7c0-1,0.6-1.7,1.6-1.7c0.8,0,1.2,0.5,1.6,1.2c0.3-0.5,0.8-1,1.5-1c0.9,0,1.5,0.6,1.5,1.5
		s-0.7,1.5-1.5,1.5c-0.7,0-1.1-0.5-1.5-1C9.4,156.5,9,157,8.2,157z M8.1,154.2c-0.6,0-1,0.5-1,1.1s0.4,1.1,1,1.1c0.7,0,1-0.6,1.3-1.1
		C9.1,154.8,8.9,154.2,8.1,154.2z M11.2,156.2c0.5,0,1-0.3,1-0.9c0-0.6-0.4-0.9-1-0.9s-0.8,0.5-1.1,0.9
		C10.4,155.8,10.6,156.2,11.2,156.2z"/>
	<path d="M7.6,159.6c-0.3,0.3-0.5,0.6-0.5,1c0,1.1,1.4,1.2,2.2,1.2c-0.3-0.4-0.5-0.7-0.5-1.2c0-1.1,0.9-1.5,1.9-1.5
		c1.1,0,2,0.6,2,1.7c0,1.6-1.9,1.6-3,1.6c-1.2,0-3.2-0.2-3.2-1.8c0-0.5,0.2-1,0.5-1.3L7.6,159.6z M12.2,160.7c0-0.7-0.6-1.1-1.4-1.1
		c-0.7,0-1.4,0.2-1.4,1c0,0.4,0.3,0.8,0.6,1.1C11.8,161.8,12.2,161.3,12.2,160.7z"/>
	<path d="M9.6,167.8c-1,0-3.1,0.2-3.1-1.7c0-1.8,2-1.7,3.1-1.7c1.4,0,3.1-0.1,3.1,1.7C12.7,168,10.3,167.8,9.6,167.8z M9.6,165.1
		c-2.4,0-2.5,0.4-2.5,1c0,0.7,0.3,1,2.5,1c2.3,0,2.5-0.4,2.5-1C12.2,165,10.8,165.1,9.6,165.1z"/>
	<path d="M11.9,171.3l-0.4-1.1L12,170l0.7,1.9H7.2v1.3H6.6v-3.4h0.5v1.5H11.9z"/>
	<path d="M7.2,175.2l2.9,2.2c0.4,0.3,0.6,0.5,1.1,0.5c0.6,0,1-0.4,1-1c0-0.7-0.6-1.1-1.2-1.2l0.1-0.6c1,0.1,1.7,0.7,1.7,1.8
		c0,0.9-0.6,1.6-1.5,1.6c-0.6,0-1-0.3-1.5-0.6l-2.5-2v2.6H6.6v-3.3H7.2z"/>
	<path d="M10.3,181.3l1.8,1.8v-2.5h0.5v3.3h-0.5l-1.7-1.7c0,0.9-0.5,1.7-1.5,1.7c-0.8,0-1.4-0.4-1.8-1.1c-0.3-0.5-0.5-1.1-0.5-2.2
		h0.6c0,1,0.1,1.4,0.3,1.7c0.3,0.5,0.8,1,1.4,1c0.8,0,1-0.7,1-1.3c0-0.2,0-0.5-0.1-0.7L10.3,181.3L10.3,181.3z"/>
	<path d="M8.1,186l4.6,0.9l-0.2,0.6l-3.9-0.8v1.6h3.1v0.6h-3v0.5H8.1v-0.5H6.6v-0.6h1.5V186z"/>
	<path d="M9.6,232.5c-1,0-3.1,0.2-3.1-1.7c0-1.8,2-1.7,3.1-1.7c1.4,0,3.1-0.1,3.1,1.7C12.7,232.8,10.3,232.5,9.6,232.5z M9.6,229.8
		c-2.4,0-2.5,0.4-2.5,1c0,0.7,0.3,1,2.5,1c2.3,0,2.5-0.4,2.5-1C12.2,229.7,10.8,229.8,9.6,229.8z"/>
	<path d="M11.9,236.1l-0.4-1.1l0.5-0.2l0.7,1.9H7.2v1.3H6.6v-3.4h0.5v1.5H11.9z"/>
	<path d="M7.2,240l2.9,2.2c0.4,0.3,0.6,0.5,1.1,0.5c0.6,0,1-0.4,1-1c0-0.7-0.6-1.1-1.2-1.2l0.1-0.6c1,0.1,1.7,0.7,1.7,1.8
		c0,0.9-0.6,1.6-1.5,1.6c-0.6,0-1-0.3-1.5-0.6l-2.5-2v2.6H6.6V240H7.2z"/>
	<path d="M10.3,246.1l1.8,1.8v-2.5h0.5v3.3h-0.5l-1.7-1.7c0,0.9-0.5,1.7-1.5,1.7c-0.8,0-1.4-0.4-1.8-1.1c-0.3-0.5-0.5-1.1-0.5-2.2
		h0.6c0,1,0.1,1.4,0.3,1.7c0.3,0.5,0.8,1,1.4,1c0.8,0,1-0.7,1-1.3c0-0.2,0-0.5-0.1-0.7H10.3z"/>
	<path d="M137,19.9v0.6l-4.7,0.1v-0.4l3.9-0.1l0,0l-2.3-0.8l2.3-0.8l0,0l-3.9-0.1v-0.5L137,18v0.6l-2,0.7L137,19.9z"/>
	<path d="M133.3,22.8l-1.1-0.3l0.2-0.5l3.6,1.1v0.6l-3.6,1.1l-0.2-0.5l1.1-0.3V22.8z M135.4,23.5l-1.7-0.5v1L135.4,23.5z"/>
	<path d="M132.2,26.7l0.2-0.4l1.8,1.1l1.6-1l0.2,0.4l-1.4,0.9l1.4,0.9l-0.2,0.4l-1.6-1l-1.8,1.1l-0.2-0.4l1.6-1L132.2,26.7z"/>
	<path d="M137,36.7v0.6l-4.7,0.1v-0.5l3.9-0.1l0,0l-2.3-0.8l2.3-0.8l0,0l-3.9-0.1v-0.5l4.7,0.1v0.6l-2,0.7L137,36.7z"/>
	<path d="M136,39.6h-2.5c-0.5,0-0.8,0.2-0.8,0.6c0,0.6,0.3,0.7,0.8,0.7h2.5v0.5h-2.7c-0.5,0-1-0.3-1-1.1s0.5-1.1,1-1.1h2.7V39.6z"/>
	<path d="M133.5,43.7c-0.4,0.1-0.8,0.3-0.8,0.8c0,0.4,0.2,0.7,0.6,0.7c0.4,0,0.6-0.4,0.7-0.7c0.2-0.5,0.4-1,1.1-1c0.6,0,1,0.5,1,1.1
		s-0.4,1-0.9,1.1l-0.1-0.4c0.4-0.1,0.6-0.3,0.6-0.7c0-0.3-0.2-0.6-0.5-0.6s-0.4,0.2-0.6,0.5l-0.3,0.8c-0.2,0.3-0.5,0.5-0.9,0.5
		c-0.7,0-1.1-0.5-1.1-1.2s0.4-1.1,1.1-1.2L133.5,43.7z"/>
	<path d="M135.5,48.4v-1h0.4v2.5h-0.4v-1h-3.2v-0.5H135.5z"/>
	<path d="M136,51.9v2.3h-0.5v-1.8h-1.1v1.5H134v-1.5h-1.3v1.8h-0.4v-2.3H136z"/>
	<path d="M136,56v1.2c0,0.6-0.3,1.1-1,1.1c-0.4,0-0.9-0.3-1-0.7l-1.5,0.9l-0.2-0.4l1.7-0.9v-0.7h-1.6V56C132.4,56,136,56,136,56z
		 M134.3,57.1c0,0.5,0.3,0.8,0.7,0.8c0.3,0,0.6-0.2,0.6-0.6v-0.8h-1.2v0.6H134.3z"/>
	<path d="M135.3,60.4L135.3,60.4l-3-0.1v-0.5l3.6,0.1v0.6l-1.6,0.7l1.6,0.7v0.6l-3.6,0.1v-0.4l3-0.1l0,0l-1.9-0.8L135.3,60.4z"/>
	<path d="M133.3,64.8l-1.1-0.3l0.2-0.5l3.6,1.1v0.6l-3.6,1.1l-0.2-0.5l1.1-0.3V64.8z M135.4,65.5l-1.7-0.5v1L135.4,65.5z"/>
	<path d="M136,68.4V69l-3.1,1.4l0,0h0.9h2.1v0.5h-3.6v-0.6l3.1-1.4l0,0h-1h-2.1v-0.5H136z"/>
	<path d="M136,72.6v0.6l-3.1,1.4l0,0h0.9h2.1v0.5h-3.6v-0.6l3.1-1.4l0,0h-1h-2.1v-0.5H136z"/>
	<path d="M128.6,18.1v0.5h-2V20h2v0.5h-4.7V20h2.3v-1.4h-2.3v-0.5H128.6z"/>
	<path d="M127.6,22.5v2.3h-0.4V23h-1.1v1.5h-0.4V23h-1.3v1.8H124v-2.3H127.6z"/>
	<path d="M124.3,26.9v0.5h2.8v-0.5h0.4v1.5h-0.4v-0.5h-2.8v0.5h-0.4v-1.5H124.3z"/>
	<path d="M127.6,30.6v0.6l-3.1,1.4l0,0h0.9h2.1v0.5h-3.6v-0.6l3.1-1.4l0,0h-1h-2.1v-0.5H127.6z"/>
	<path d="M127.1,36.6v-1.7h0.4v2.5l-3.2-1.9v2h-0.4v-2.7L127.1,36.6z"/>
	<path d="M126,39.5v1.6h-0.5v-1.6H126z"/>
	<path d="M128.6,43.2v0.6l-3.9,1.4l0,0h1h2.9v0.5h-4.7v-0.6l3.9-1.4l0,0h-1.1h-2.9v-0.5H128.6z"/>
	<path d="M124.3,47.9v0.5h2.8v-0.5h0.4v1.5h-0.4v-0.5h-2.8v0.5h-0.4v-1.5H124.3z"/>
	<path d="M123.8,51.9l0.2-0.4l1.8,1.1l1.6-1l0.2,0.4l-1.4,0.9l1.4,0.9l-0.2,0.4l-1.6-1l-1.8,1.1l-0.2-0.4l1.6-1L123.8,51.9z"/>
	<path d="M127.6,55.8V57c0,1-0.4,1.5-1.8,1.5c-1.1,0-1.9-0.2-1.9-1.5v-1.2h0.4v0.4h2.8v-0.4H127.6z M124.3,56.6v0.5
		c0,0.6,0.4,0.9,1.4,0.9c1.1,0,1.4-0.3,1.4-0.9v-0.5H124.3z"/>
	<path d="M125.7,62.5c-0.3,0-1.9,0-1.9-1.3c0-0.6,0.4-1.3,1.9-1.3s1.9,0.7,1.9,1.3S127.2,62.5,125.7,62.5z M125.7,60.4
		c-0.5,0-1.4,0.1-1.4,0.8s0.9,0.8,1.4,0.8s1.4-0.1,1.4-0.8S126.3,60.4,125.7,60.4z"/>
	<path d="M127.6,64.4v1.2c0,0.6-0.3,1.1-1,1.1c-0.4,0-0.9-0.3-1-0.7l-1.5,0.9l-0.2-0.4l1.7-0.9v-0.7H124v-0.5H127.6z M125.9,65.5
		c0,0.5,0.3,0.8,0.7,0.8c0.3,0,0.6-0.2,0.6-0.6v-0.8H126L125.9,65.5L125.9,65.5z"/>
	<path d="M127.6,68.8v2.3h-0.4v-1.8h-1.1v1.5h-0.4v-1.5H124v-0.5H127.6z"/>
	<path d="M126,73.1v1.6h-0.5v-1.6H126z"/>
	<path d="M128.6,77.1v1.3c0,0.5-0.4,1-1.2,1c-0.6,0-1.1-0.2-1.3-0.8l-2,1l-0.2-0.4l2.2-1.1v-0.5H124v-0.5H128.6z M126.4,77.6v0.6
		c0,0.4,0.3,0.7,0.9,0.7s0.8-0.3,0.8-0.8v-0.6h-1.7C126.4,77.5,126.4,77.6,126.4,77.6z"/>
	<path d="M124.3,81.5V82h2.8v-0.5h0.4V83h-0.4v-0.5h-2.8V83h-0.4v-1.5H124.3z"/>
	<path d="M127.6,85.2v0.6l-3.1,1.4l0,0h0.9h2.1v0.5h-3.6v-0.6l3.1-1.4l0,0h-1h-2.1v-0.5H127.6z"/>
	<path d="M124.2,91.9c-0.2-0.3-0.4-0.7-0.4-1.1c0-1.1,1-1.4,1.9-1.4s1.9,0.3,1.9,1.4c0,0.5-0.3,0.9-0.7,1.2l-0.3-0.4
		c0.3-0.2,0.5-0.4,0.5-0.8c0-0.7-0.9-0.8-1.5-0.8s-1.4,0.1-1.4,0.9c0,0.2,0.1,0.5,0.2,0.7h1v-0.9h0.4V92L124.2,91.9L124.2,91.9z"/>
	<path d="M128,98.9l-0.3-0.9l0.4-0.1l0.6,1.5h-4.3v1H124v-2.6h0.4V99L128,98.9L128,98.9z"/>
	<path d="M119.8,18h0.4v1.2c0,0.9-0.4,1.5-2.3,1.5c-1,0-2.3-0.1-2.3-1.5V18h0.4v0.4h3.8V18z M115.9,18.8v0.4c0,0.6,0.1,1,1.9,1
		s1.9-0.5,1.9-0.9v-0.5H115.9z"/>
	<path d="M117.6,22.7v1.5h-0.4v-1.6h0.4V22.7z"/>
	<path d="M118.3,26.9l1.4,1.4v-1.9h0.4V29h-0.4l-1.3-1.3c0,0.7-0.4,1.4-1.2,1.4c-0.6,0-1.1-0.3-1.4-0.8c-0.2-0.4-0.4-0.8-0.4-1.7h0.4
		c0,0.8,0.1,1.1,0.2,1.3c0.2,0.4,0.6,0.7,1.1,0.7c0.6,0,0.8-0.5,0.8-1c0-0.2,0-0.4-0.1-0.5h0.5V26.9z"/>
	<path d="M118.3,31.1l1.4,1.4v-1.9h0.4v2.6h-0.4l-1.3-1.3c0,0.7-0.4,1.4-1.2,1.4c-0.6,0-1.1-0.3-1.4-0.8c-0.2-0.4-0.4-0.8-0.4-1.7
		h0.4c0,0.8,0.1,1.1,0.2,1.3c0.2,0.4,0.6,0.7,1.1,0.7c0.6,0,0.8-0.5,0.8-1c0-0.2,0-0.4-0.1-0.5h0.5V31.1z"/>
	<path d="M119.6,35.9l-0.3-0.9l0.4-0.1l0.6,1.5H116v1h-0.5v-2.6h0.4V36h3.7V35.9z"/>
	<path d="M117.8,41.6c-0.7,0-2.4,0.1-2.4-1.3s1.6-1.3,2.4-1.3c1.1,0,2.4-0.1,2.4,1.3C120.2,41.7,118.4,41.6,117.8,41.6z M117.8,39.4
		c-1.8,0-2,0.3-2,0.8s0.2,0.8,2,0.8s2-0.3,2-0.8C119.8,39.4,118.8,39.4,117.8,39.4z"/>
	<path d="M119.4,45.3c0.2-0.2,0.3-0.4,0.3-0.7c0-0.8-1.1-0.9-1.7-0.9c0.2,0.3,0.4,0.6,0.4,0.9c0,0.9-0.7,1.2-1.5,1.2
		s-1.5-0.4-1.5-1.3c0-1.2,1.5-1.3,2.3-1.3c1,0,2.5,0.1,2.5,1.4c0,0.4-0.1,0.8-0.4,1L119.4,45.3z M115.9,44.5c0,0.6,0.5,0.8,1.1,0.8
		c0.5,0,1.1-0.2,1.1-0.8c0-0.3-0.2-0.6-0.5-0.9C116.1,43.6,115.9,44,115.9,44.5z"/>
	<path d="M115.5,52.4v-0.5h4.7v1c0,0.8-0.4,1.3-1.2,1.3c-0.9,0-1.4-0.5-1.4-1.1v-0.7H115.5z M118,52.4v0.7c0,0.4,0.3,0.7,0.9,0.7
		s0.8-0.3,0.8-0.8v-0.5H118C118,52.5,118,52.4,118,52.4z"/>
	<path d="M116.5,56.4l-1.1-0.3l0.2-0.5l3.6,1.1v0.6l-3.6,1.1l-0.2-0.5l1.1-0.3V56.4z M118.6,57.1l-1.7-0.5v1L118.6,57.1z"/>
	<path d="M119.2,60v1.2c0,1-0.4,1.5-1.8,1.5c-1.1,0-1.9-0.2-1.9-1.5V60h0.4v0.4h2.8V60H119.2z M115.9,60.8v0.5c0,0.6,0.4,0.9,1.4,0.9
		c1.1,0,1.4-0.3,1.4-0.9v-0.5H115.9z"/>
	<path d="M119.2,64.2v1.2c0,1-0.4,1.5-1.8,1.5c-1.1,0-1.9-0.2-1.9-1.5v-1.2h0.4v0.4h2.8v-0.4H119.2z M115.9,65v0.5
		c0,0.6,0.4,0.9,1.4,0.9c1.1,0,1.4-0.3,1.4-0.9V65C118.7,65,115.9,65,115.9,65z"/>
	<path d="M119.2,68.7V71h-0.4v-1.8h-1.1v1.5h-0.4v-1.5H116V71h-0.5v-2.3H119.2z"/>
	<path d="M119.2,72.8V74c0,0.6-0.3,1.1-1,1.1c-0.4,0-0.9-0.3-1-0.7l-1.5,0.9l-0.2-0.4l1.7-0.9v-0.7h-1.7v-0.5H119.2z M117.5,73.9
		c0,0.5,0.3,0.8,0.7,0.8c0.3,0,0.6-0.2,0.6-0.6v-0.8h-1.3V73.9z"/>
	<path d="M115.5,76.8h0.4v0.4h2.8v-0.4h0.4v1.1c0,0.9-0.4,1.3-1,1.3c-0.3,0-0.6-0.1-0.8-0.4c-0.1,0.4-0.5,0.6-0.9,0.6
		c-0.7,0-1-0.4-1-1.2L115.5,76.8L115.5,76.8z M117.6,78.2c0,0.4,0.3,0.6,0.6,0.6c0.4,0,0.6-0.3,0.6-0.6v-0.5h-1.1L117.6,78.2
		L117.6,78.2z M115.9,78.2c0,0.4,0.1,0.8,0.6,0.8c0.4,0,0.7-0.2,0.7-0.7v-0.7H116L115.9,78.2L115.9,78.2z"/>
	<path d="M117.3,83.5c-0.3,0-1.9,0-1.9-1.3c0-0.6,0.4-1.3,1.9-1.3s1.9,0.7,1.9,1.3C119.2,82.8,118.8,83.5,117.3,83.5z M117.3,81.4
		c-0.5,0-1.4,0.1-1.4,0.8s0.9,0.8,1.4,0.8s1.4-0.1,1.4-0.8S117.9,81.4,117.3,81.4z"/>
	<path d="M119.2,85.4v1.2c0,0.6-0.3,1.1-1,1.1c-0.4,0-0.9-0.3-1-0.7l-1.5,0.9l-0.2-0.4l1.7-0.9v-0.7h-1.7v-0.5H119.2z M117.5,86.5
		c0,0.5,0.3,0.8,0.7,0.8c0.3,0,0.6-0.2,0.6-0.6v-0.8h-1.3V86.5z"/>
	<path d="M119.2,89.4V90l-3.1,1.4l0,0h0.9h2.1v0.5h-3.6v-0.6l3.1-1.4l0,0h-1h-2.1v-0.5H119.2z"/>
	<path d="M154.7,356.4c-1,0-3.1,0.2-3.1-1.7s2-1.7,3.1-1.7c1.4,0,3.1-0.1,3.1,1.7C157.8,356.6,155.4,356.4,154.7,356.4z M154.7,353.6
		c-2.4,0-2.5,0.4-2.5,1c0,0.7,0.3,1,2.5,1c2.3,0,2.5-0.4,2.5-1C157.2,353.6,155.9,353.6,154.7,353.6z"/>
	<path d="M157,359.9l-0.4-1.1l0.5-0.2l0.7,1.9h-5.6v1.3h-0.5v-3.4h0.5v1.5L157,359.9L157,359.9z"/>
	<path d="M152.3,363.8l2.9,2.2c0.4,0.3,0.6,0.5,1.1,0.5c0.6,0,1-0.4,1-1c0-0.7-0.6-1.1-1.2-1.2l0.1-0.6c1,0.1,1.7,0.7,1.7,1.8
		c0,0.9-0.6,1.6-1.5,1.6c-0.6,0-1-0.3-1.5-0.6l-2.5-2v2.6h-0.5v-3.3H152.3z"/>
	<path d="M155.4,369.9l1.8,1.8v-2.5h0.5v3.3h-0.5l-1.7-1.7c0,0.9-0.5,1.7-1.5,1.7c-0.8,0-1.4-0.4-1.8-1.1c-0.3-0.5-0.5-1.1-0.5-2.2
		h0.6c0,1,0.1,1.4,0.3,1.7c0.3,0.5,0.8,1,1.4,1c0.8,0,1-0.7,1-1.3c0-0.2,0-0.5-0.1-0.7L155.4,369.9L155.4,369.9z"/>
	<line fill="none" stroke="#000000" stroke-width="0.75" stroke-miterlimit="10" x1="128.6" y1="212.2" x2="128.6" y2="297.1"/>
	<line fill="none" stroke="#000000" stroke-width="0.75" stroke-miterlimit="10" x1="91.9" y1="17.7" x2="91.9" y2="274.6"/>
	<line fill="none" stroke="#000000" stroke-width="0.75" stroke-miterlimit="10" x1="71.9" y1="17.7" x2="71.9" y2="373.6"/>
	<line fill="none" stroke="#000000" stroke-width="0.75" stroke-miterlimit="10" x1="32.3" y1="17.7" x2="32.3" y2="373.6"/>
	<g>
		<g>
			<path fill="#0000B3" d="M137.3,221.1c3.2-4,7.5,1.8,9.3,4c0.9,1.1,1.8,2.2,2.6,3.3c0.4,0.5,0.8,1,1.2,1.4c0.7,0.9,1.1,0.6,1.4,0.8
				c-6.1-2.5-13.3-2.4-19.7-3.6c-3.7-0.7-7.3-1.9-10.1-4.5c-2.6-2.3,4-3.6,5.6-2.9c1.6,0.7,3.1,2,4.4,3.1c4.1,3.6,7.3,8.1,10.6,12.3
				c0.2,0.3,1,0,0.9-0.3c-1-3.6-4.8-5.3-8.2-5.9c-0.2,0-1,0.1-0.7,0.5c1.4,2.1,3,3.7,5.1,5.2c1.1,0.8,3.1,0.9,0.4,0.1
				c-1.5-0.4-3.1-0.6-4.7-0.9c-0.2,0-1,0.1-0.7,0.5c1.6,2,3.5,3.4,5.6,4.8c0.3,0.2,4,2,1.4,1.9c-2-0.1-4.2-0.6-6.2-0.9
				c-0.2,0-1.1,0.2-0.7,0.5c1.2,0.9,2.5,1.7,3.7,2.5c1.4,0.9,4.1,2.1,1.8,2.2c-1.7,0.1-3.7,0.2-5.3,1c-3.7,1.8-2.6,4.3,0.1,6.7
				c0.3,0.3,1.2-0.1,0.9-0.4c-1.4-1.3-5.2-4.3,0.2-6.1c1.8-0.6,4-0.6,5.9-0.5c0.2,0,0.9-0.2,0.6-0.5c-1.4-1.5-4.2-4.3-6.3-4.6
				c2.5,0.4,5,0.9,7.5,0.7c0.2,0,0.8-0.3,0.4-0.6c-2.2-1.7-4.7-3.2-6.9-4.9c-3.4-2.8,3.8-0.2,4.9,0.2c0.3,0.1,1.1-0.3,0.7-0.5
				c-1.7-1-3.2-2-4.8-3.2c-0.5-0.4-1.8-2.5-2.4-2.7c1.9,0.4,3.7,1.5,5.2,2.7c0.8,0.6,3.1,3.2,1.4,1c-2.7-3.6-5.6-7.1-8.8-10.2
				c-3.9-3.8-10-7.6-13.3-1.1c0,0.1-0.1,0.2,0,0.2c7.7,8.4,21.9,5.4,31.6,9.4c0.2,0.1,1.2-0.1,0.8-0.5c-3.4-3.2-10.9-17.2-16.5-10.1
				C136.1,221.4,137.1,221.4,137.3,221.1L137.3,221.1z"/>
		</g>
	</g>
	<g>
		<g>
			<path fill="#0000B3" d="M145.7,262.6c3.5,3.4-1.1,4.8-4.2,4.3c-4.2-0.7-6.9-4-6.8-8.2c-0.3,0.1-0.6,0.2-1,0.3
				c1.7,5.4,0.2,10.7-2.6,15.4c-0.2,0.3,0.7,0.2,0.9,0c2.9-4.8,4.5-10.2,2.7-15.7c-0.1-0.3-1,0-1,0.3c0,5.4,4.3,8.6,9.5,8.6
				c3.4,0,6.6-2.2,3.5-5.3C146.4,262,145.5,262.4,145.7,262.6L145.7,262.6z"/>
		</g>
	</g>
	<g>
		<g>
			<path fill="#0000B3" d="M147,275.9c-4-1.9-10.2-3-13.7,0.6c-0.1,0.1-0.1,0.2,0,0.3c2,2.2,5,3.8,8.1,3.6c1.2-0.1,2.7-0.2,3.8-0.9
				c1-0.7,0.1-2.7-0.3-3.4c-0.2-0.4-1.1-0.1-1,0.3c0.4,0.8,0.6,1.3,0.6,2.3c0,1.5-3.6,1.2-4.3,1.1s-7-2.3-5.3-3.6
				c2.9-2.4,8.3-1.1,11.4,0.4C146.6,276.6,147.5,276.1,147,275.9L147,275.9z"/>
		</g>
	</g>
	<g>
		<g>
			<path fill="#0000B3" d="M152.2,283.9c-2.5-0.8-5.1-1.4-7.8-0.9c-0.2,0-0.7,0.3-0.5,0.6c1.5,2.1,3,3.3,5.6,3.7
				c0.4,0.1,1-0.5,0.4-0.7c-1.5-0.4-3-0.5-4.4-0.9c-0.3-0.1-1.1,0.2-0.6,0.6c0.9,0.8,1.8,1.7,1.8,3c0.1,1.4-1.5,2.2-2.6,2.6
				c-0.6,0.3-0.1,0.8,0.4,0.6c1.3-0.6,2.6-1.4,3-2.8c0.5-1.6-0.9-3-2-4c-0.2,0.2-0.4,0.4-0.6,0.6c1.5,0.4,3,0.5,4.4,0.9
				c0.1-0.2,0.3-0.5,0.4-0.7c-2.4-0.4-3.7-1.5-5.1-3.4c-0.2,0.2-0.3,0.4-0.5,0.6c2.5-0.4,4.9,0.1,7.3,0.9
				C152.1,284.7,152.8,284.1,152.2,283.9L152.2,283.9z"/>
		</g>
	</g>
	<g>
		<g>
			<path fill="#0000B3" d="M149.3,280.8c1,5.6,2.6,11,4,16.5c0.1,0.5,1.1,0.2,1-0.3c-1.4-5.5-3-10.9-4-16.5
				C150.1,280,149.2,280.3,149.3,280.8L149.3,280.8z"/>
		</g>
	</g>
	<g>
		<g>
			<path fill="#0000B3" d="M35.8,197.6c-0.1-2.3,4.8,4.5,5.2,5.5c0.6,1.3,0.8,2.9,0.2,4.2c-1.7,3.8-6.9-1.2-7.9-2.3
				c-1-1.1-3.1-2.2-0.7-1c1.5,0.7,3,1.5,4.4,2.4c1.5,0.9,2.9,2,4.2,3.2c2,1.9,3.9,6.9-1.6,7.1c-3.4,0.1-7-2.9-9.4-5
				c-0.8-0.7-1.5-1.5-2.1-2.4c-0.2-0.3,4.4,0.1,5,0.3c6.4,1.9,13.4,7.4,15.5,13.9c2.1,6.5-4.6,11.5-10.3,8.7
				c-4.8-2.3-8.5-6.9-11.7-11c-6.1-7.6-11.4-16.2-15.6-25c-0.2-0.4-1.1-0.1-1,0.3c3.4,7.1,7.6,13.9,12.1,20.3
				c4.1,5.9,10.7,15.9,18.6,17c6.8,0.9,10.6-6.5,8.2-12.3c-2.8-6.6-14-15.3-21.7-12.8c-0.2,0.1-0.5,0.2-0.4,0.5
				c2.5,4.4,10.6,10.7,15.8,7.1c6.9-4.8-8.3-12.3-11.2-13.6c-0.2-0.1-1.1,0.1-0.8,0.4c2.2,3.1,6.3,7.9,10.6,5.3
				c5.2-3.2-3.4-11.2-5.5-12.8c-0.3-0.2-0.8-0.1-0.9,0.2c-0.6,1.6,0,0,0.1,2C34.9,198.2,35.8,198,35.8,197.6L35.8,197.6z"/>
		</g>
	</g>
	<g>
		<g>
			<path fill="#0000B3" d="M36.1,239.7c-0.4,0.4-0.4,0.1-0.2,0.5c0.1,0.2,0.1,0.5,0.2,0.7c0.1,0.6,0.2,1.3,0.3,1.9
				c0.2,1.4,0.4,2.9,0.7,4.3c0.1,0.3,1,0,1-0.3c-0.4-2.1-0.5-4.3-1-6.5c-0.2-0.9-0.8-1.5-1.6-0.8C34.9,239.9,35.9,239.8,36.1,239.7
				L36.1,239.7z"/>
		</g>
	</g>
	<g>
		<g>
			<path fill="#0000B3" d="M37.3,251.1c3,1.2,5.5,2.8,7.8,5c1.5,1.4,6,6.2-1,5.7c-1.9-0.1-3.9-1-5.6-1.7c-0.2-0.1-1.1,0.2-0.8,0.4
				c2.4,1.7,4.9,3.2,7.1,5.2c-0.2,0.6-0.4,1.1-0.6,1.7c-1.9-0.3-3.6-0.9-5.3-1.9c-3.1-1.8,2.8,0.2,3.8,1c3.3,2.4,4.2,6.2,2.5,9.8
				c-2,4.1-6.5,2.9-9.6,1.5c-7.8-3.4-14.6-10.4-20.2-16.7c-0.2-0.2-1.1,0.1-0.9,0.4c6.2,7,15.3,16.9,25.1,18.1
				c3.5,0.4,5.7-1.7,7.2-4.7c3-6.1-5.3-11.2-10.3-11.3c-0.1,0-0.9,0.2-0.7,0.4c3.1,2.9,6.6,4,10.8,4c0.1,0,0.8-0.2,0.7-0.4
				c-1-1.7-2.3-2.9-3.9-4.2c-1.2-0.9-2.5-1.7-3.7-2.5c-1.4-0.9,1.7,0.8,2.2,1c2.8,0.8,5.1,0.5,7.4-1.1c0,0,0.1-0.1,0.1-0.2
				c-2.6-4.7-6.4-8-11.4-9.9C37.8,250.6,37,251,37.3,251.1L37.3,251.1z"/>
		</g>
	</g>
	<g>
		<g>
			<path fill="#0000B3" d="M38.2,284.5c2.6,7,6.9,17.4,15.3,18.7c0.2,0,0.8-0.1,0.8-0.4c-0.1-3.4-6-11.9-10-7.6
				c-2.8,3.2-1.3,6.7,0.9,9.7c1.3,1.9,3.1,3.4,4.7,5c2,1.8,0.1,0,0.8,0.1c-1.4-0.3-2.8-0.3-4.2-0.6c-0.2,0-0.8,0.1-0.8,0.3
				c-1.2,17.3-0.1,34.6-1.6,51.9c0,0.4,0.9,0.2,1-0.1c0.8-9,1-18.1,1-27.2c0-5.1,0-10.2,0.2-15.3c0.1-2.5,0.2-5,0.3-7.6
				c0.2-2.7,2.9-1.3,4.7-0.4c0.2,0.1,1.1-0.2,0.8-0.4c-3-2.7-5.9-5.4-7.8-9.1c-1.3-2.5-0.9-8.4,3.9-6.4c2.1,0.9,3.6,3.3,4.5,5.2
				c1.6,3.3-2.3,0.9-3.5,0.1c-1.7-1.2-3-2.9-4.2-4.5c-2.6-3.5-4.5-7.8-6-11.9C39.1,284,38.1,284.2,38.2,284.5L38.2,284.5z"/>
		</g>
	</g>
	<g>
		<g>
			<path fill="#0000B3" d="M51.3,300.2c2.9,12.3,3.1,24.8,4.1,37.3c0,0.2,1,0,1-0.3c-1-12.5-1.3-25.1-4.1-37.3
				C52.2,299.7,51.2,300,51.3,300.2L51.3,300.2z"/>
		</g>
	</g>
	<g>
		<g>
			<path fill="#0000B3" d="M95.7,289c5,1.5,9.4,4.2,13.7,7.1c0.2-0.2,0.4-0.4,0.5-0.6c-5-0.1-9.8-1.7-14.7-2.7
				c-0.5-0.1-1,0.6-0.3,0.7c4.9,0.9,9.7,2.6,14.7,2.7c0.2,0,1-0.3,0.5-0.6c-4.4-2.9-8.8-5.7-13.9-7.2C95.8,288.2,95.1,288.8,95.7,289
				L95.7,289z"/>
		</g>
	</g>
	<g>
		<g>
			<path fill="#0000B3" d="M109,308c2.7-1.3,2-3.4,0-5.2c-2.4-2.1-5.3-3.2-8.5-2.8c-1.9,0.2-3.9,1.5-2.6,3.5c1.6,2.5,4.7,4.1,7.5,4.9
				c0.3,0.1,1.1-0.4,0.6-0.5c-2.2-0.7-4.3-1.8-6-3.4c-1.3-1.2-2.6-3.3-0.2-3.9c2.7-0.7,5.1,0.3,7.3,1.8c1.6,1.1,4.4,3.7,1.5,5.1
				C108,307.9,108.6,308.2,109,308L109,308z"/>
		</g>
	</g>
	<g>
		<g>
			<path fill="#0000B3" d="M109.3,316.2c2.4-2.3-0.9-4.8-2.9-5.8c-2.3-1.2-5.2-1.5-7.5-0.2c-2.1,1.2-0.5,3.1,0.8,4.2
				c2,1.7,4.8,3,7.5,3.3c0.2,0,1.1-0.3,0.6-0.4c-2.1-0.2-4.1-1.2-5.9-2.3c-1.2-0.7-3.5-2.2-3.1-3.9c0.3-1.4,2.9-1.5,3.9-1.4
				c1.2,0.2,2.4,0.7,3.4,1.3c1.8,1,4.3,3.2,2.2,5.2C108.2,316.5,109.1,316.4,109.3,316.2L109.3,316.2z"/>
		</g>
	</g>
	<g>
		<g>
			<path fill="#0000B3" d="M101.1,318.1c-2.7-0.9-5.3-2.2-7.9-3.5c-0.4-0.2-1.2,0.3-0.7,0.6c2.6,1.3,5.3,2.6,8.1,3.6
				C101,318.9,101.7,318.3,101.1,318.1L101.1,318.1z"/>
		</g>
	</g>
	<g>
		<g>
			<path fill="#0000B3" d="M108.8,324c-1.2-0.4-2-0.9-3.2-0.4c-0.1,0-0.4,0.1-0.3,0.3c0.5,1.4,1.5,2.8,3.1,2.6
				c1.3-0.1,2.1-1.2,2.3-2.4c-0.3,0.1-0.6,0.1-1,0.2c0.3,0.6,0.3,1.6,0.3,2.2c0.1,0.7,0.2,1.1-0.6,1.4c-0.4,0.2-0.7,0.4-1,0.8v0.1
				c0.7,1.3,1,1.6,2.3,2.3c0.2,0.1,0.6,0,0.8-0.2c0.3-0.3,0.6-0.5,0.7-0.9c0.1-0.5-0.3-0.9-0.2-1.4c0.1-0.3-0.9-0.1-1,0.2
				c-0.3,0.8,0.5,1.4-0.3,2.1c0.3-0.1,0.5-0.1,0.8-0.2c-0.7-0.4-1.3-0.5-1.7-1.3c-0.7-1.3,0.6-1,1.1-1.8c0.4-0.5,0.2-1,0.1-1.6
				s0-1.5-0.3-2c-0.1-0.2-0.9,0-1,0.2c-0.1,0.9-0.6,2.1-1.7,1.8c-1-0.3-1.5-1.5-1.8-2.4c-0.1,0.1-0.2,0.2-0.3,0.3
				c0.6-0.3,1.5,0.3,2.1,0.5C108.2,324.5,109.1,324.1,108.8,324L108.8,324z"/>
		</g>
	</g>
	<g>
		<g>
			<path fill="#0000B3" d="M102.6,323.5c0.8,4.6,1.7,9.2,2.2,13.8c0,0.3,1,0.1,1-0.3c-0.5-4.6-1.4-9.2-2.2-13.8
				C103.5,322.9,102.5,323.1,102.6,323.5L102.6,323.5z"/>
		</g>
	</g>
	<g>
		<g>
			<path fill="#0000B3" d="M83.3,58.2c-1.5-1.7-3.9-2.9-6.2-2.6c-2,0.3-2.8,2.5-1.9,4.1c0.8,1.5,2.7,2.6,4.4,2.5
				c2.1-0.1,2.2-2.1,1.9-3.7c-0.3,0.1-0.6,0.2-1,0.3c0.7,2.4,1.7,4.7,1.8,7.2c0.2-0.1,0.5-0.2,0.7-0.4c-1.3,0.1-2.5,0.3-3.8-0.3
				c-0.2-0.1-1.1,0.2-0.8,0.4c1.5,1.4,3,2.8,3.9,4.6c0.3-0.1,0.5-0.2,0.8-0.4c-1.7-0.2-4.1-0.3-4.7,1.7c-0.7,2.3,2.3,4.1,4.1,4.5
				c0.1,0,0.9-0.1,0.8-0.4c-0.9-1.5-2.1-2.6-3.8-1.6c-2.2,1.2-1.7,4.9-0.8,6.6c0.2,0.3,1.1,0,1-0.3c-0.7-1.3-0.8-2.5-0.7-3.9
				c0.1-0.6,0.3-1.2,0.7-1.8c1-1.6,2.4,0.9,2.7,1.2c0.3-0.1,0.5-0.2,0.8-0.4c-2.9-0.6-6.3-6.1-0.6-5.3c0.1,0,0.9-0.1,0.8-0.4
				c-0.9-1.9-2.5-3.3-4-4.7c-0.3,0.1-0.6,0.3-0.8,0.4c1.4,0.6,2.7,0.4,4.2,0.4c0.2,0,0.7-0.1,0.7-0.4c-0.1-2.5-1.1-4.8-1.8-7.2
				c-0.1-0.3-1,0-1,0.3c0.3,1.5,0.2,3.5-1.9,2.7c-1.3-0.1-2.3-1.1-2.8-2.1c-1-1.9,0.9-3.4,2.8-2.9c1.4,0.4,2.6,1.2,3.6,2.3
				C82.6,58.8,83.5,58.4,83.3,58.2L83.3,58.2z"/>
		</g>
	</g>
	<g>
		<g>
			<path fill="#0000B3" d="M93,98.7c1,0.1,1.4,0.2,2.3,0c0.1,0,0.5-0.1,0.4-0.3c-0.2-3.2-3.7-4.6-6.3-5.4c-3.6-1.2-7.6-1.6-11.1-3
				c-0.2-0.1-1,0.3-0.9,0.3c2.5,1.2,4.3,2.8,5.6,5.3c0.3-0.1,0.5-0.2,0.8-0.3c-3.5-0.1-6.7-1.4-10.1-1.9c-0.1,0-1,0.1-0.9,0.3
				c2,3,5.7,4.3,8.7,6.1c0.3-0.1,0.6-0.2,0.9-0.3c-1.7-0.6-6-2.4-7.5-0.3c-1.6,2.2,5.7,4.3,6.7,4.5c0.2,0,1-0.3,0.9-0.3
				c-2.2-1.2-4.3-1.4-6.7-0.7c0,0-0.4,0.1-0.3,0.2c1.7,2.3,4.3,3.6,6.4,5.3c0.2-0.1,0.4-0.2,0.6-0.3c-2.1,0.4-4.1,0.2-6.1-0.4
				c-0.2-0.1-1,0.3-0.9,0.3c2.1,1.1,3.9,2.2,5.3,4.1c0.3-0.1,0.6-0.2,0.9-0.3c-1.8-0.2-3.5,0.6-5.3,0.4c-0.1,0-1,0.1-0.9,0.3
				c0.5,1.4,1.3,2.4,2.3,3.4c0.2,0.2,1-0.2,0.9-0.3c-1-1-1.8-2-2.2-3.4c-0.3,0.1-0.6,0.2-0.9,0.3c1.8,0.2,3.5-0.6,5.3-0.4
				c0.1,0,1-0.1,0.9-0.3c-1.3-2-3.2-3.1-5.3-4.2c-0.3,0.1-0.6,0.2-0.9,0.3c2.2,0.7,4.4,0.8,6.7,0.4c0.1,0,0.7-0.2,0.6-0.3
				c-1.2-1-2.5-1.8-3.8-2.7c-0.6-0.4-1.2-0.9-1.7-1.4c0.5-1,1.1-1.4,2-1c0.8,0.2,1.5,0.5,2.2,0.9c0.3-0.1,0.6-0.2,0.9-0.3
				c-2.2-0.4-4.6-1.1-6.2-2.9c-2.4-2.8,4.6-0.8,5.3-0.5c0.2,0.1,1-0.2,0.9-0.3c-2.9-1.8-6.7-3-8.7-6c-0.3,0.1-0.6,0.2-0.9,0.3
				c3.5,0.5,6.8,1.8,10.3,1.9c0.1,0,0.9-0.1,0.8-0.3c-1.3-2.4-3.2-4.1-5.7-5.3c-0.3,0.1-0.6,0.2-0.9,0.3c3.1,1.2,6.5,1.7,9.6,2.5
				c2.9,0.8,7.5,2.1,7.7,5.8c0.1-0.1,0.3-0.2,0.4-0.3c-0.5,0.1-1,0.1-1.5,0C93.6,98.4,92.8,98.7,93,98.7L93,98.7z"/>
		</g>
	</g>
	<g>
		<g>
			<path fill="#0000B3" d="M81,120.7c1.7,0.3,3.3,0.2,2-2c-1.5-2.5-5.1-3.3-7.7-2.7c-0.1,0-0.7,0.2-0.5,0.4c2.9,6.2,12,8.2,17.9,10
				c0.2,0.1,1.1-0.2,0.7-0.5c-4.6-2.9-10.4-5.6-15.9-3.8c-0.1,0-0.5,0.2-0.4,0.4c1.1,2.4,3.2,3.5,5.5,4.3c0.4,0.2,0.9,0.3,1.4,0.4
				c2.1,0.6-2,0.3-2.1,0.3c-1.4-0.1-2.6-0.1-4,0.3c-0.1,0-0.5,0.2-0.4,0.4c0.6,2.8,2.8,4.2,5.6,4.3c0.1,0,0.9-0.2,0.6-0.5
				c-2.2-2.1-4.7-3.3-7.7-2.3c-0.2,0.1-0.4,0.1-0.4,0.4c0.1,2.7,1.2,4.6,3.1,6.5c0.2,0.2,1.2-0.1,0.9-0.4c-1.2-1.2-2.1-2.5-2.7-4.2
				c-0.5-1.4-0.6-2.5,2-2c1.5,0.3,2.8,1.4,3.9,2.4c0.2-0.2,0.4-0.3,0.6-0.5c-1.7-0.1-3-0.6-4.1-1.8c-2.1-2.3,1.2-2.2,2.7-2
				c1.4,0.2,2.5,0,3.8-0.7c0.2-0.1,0.3-0.3,0-0.4c-1.7-0.4-3.3-0.9-4.9-1.7c-0.8-0.4-1.3-0.9-1.9-1.5c-1.7-1.7,0.6-1.7,1.9-1.7
				c4.2-0.1,8.3,2.2,11.8,4.3c0.2-0.2,0.5-0.3,0.7-0.5c-5.8-1.7-14.7-3.7-17.6-9.7c-0.2,0.1-0.4,0.3-0.5,0.4c2.1-0.4,4,0,5.7,1.2
				c0.5,0.4,0.9,0.9,1.3,1.4c1.4,1.8,0.1,1.2-0.6,1.1C81.3,120.2,80.5,120.7,81,120.7L81,120.7z"/>
		</g>
	</g>
	<g>
		<g>
			<path fill="#0000B3" d="M82.2,139.7c0.1-2-2.2-5.2-4.5-4.6c-2.1,0.5-2.3,2.4-1,3.9c2,2.3,5.4,3.5,8.1,4.6c2.2,0.9,4.9,2,7.3,2.1
				c0.2,0,0.9-0.2,0.6-0.5c-5.7-7.4-16.5-6.5-24.8-7.3c-0.4,0-1,0.5-0.4,0.5c8.2,0.8,18.7-0.1,24.3,7.1c0.2-0.2,0.4-0.3,0.6-0.5
				c-3.5-0.1-7.6-2.2-10.7-3.7c-1.7-0.8-3.5-1.8-4.6-3.3c-1.2-1.5,0.6-2.9,2.2-1.8c1.1,0.8,2,2.2,1.9,3.6
				C81.2,140.2,82.2,140,82.2,139.7L82.2,139.7z"/>
		</g>
	</g>
	<g>
		<g>
			<path fill="#0000B3" d="M77.5,152.6c0.8,2.4,2.4,4.3,4.9,5.2c0.2,0.1,1,0,0.9-0.4c-0.7-2.4-4.8-6-7.3-3.8
				c-3.1,2.9,4.5,7.3,6.4,8.3c0.2,0.1,1.1-0.2,0.8-0.4c-2.2-2.1-4.8-3.4-7.8-2.6c-0.1,0-0.5,0.2-0.4,0.4c1.6,2.9,4.4,4.7,7.1,6.4
				c0.2,0.1,1.1-0.2,0.8-0.4c-1.8-1.7-3.9-2.8-6.3-1.9c-0.2,0.1-0.4,0.2-0.3,0.4c1.7,2.7,4.6,4.1,6.3,6.7c0.3-0.1,0.6-0.3,0.8-0.4
				c-1.4-0.5-2.8-0.4-4.2-0.7c-0.1,0-0.9,0.1-0.8,0.4c1,1.9,2.2,3.5,3.5,5.1c0.3-0.1,0.6-0.3,0.8-0.4c-1.9-1-4-1.2-5,0.9v0.1
				c1.6,1.8,6.6,3,5.4-1c-0.1-0.4-0.9-0.1-1,0.2c-1.2,3,0.5,6,1,9c0.2-0.1,0.4-0.3,0.7-0.4c-2.9-0.2-5-1.8-6.7-4
				c-0.3,0.1-0.6,0.3-0.8,0.4c7.6,5.1,3.2,16.3,1.5,23.3c-0.1,0.4,0.9,0.2,1-0.1c1.8-7.2,6.1-18.4-1.7-23.7c-0.2-0.1-1.1,0.1-0.8,0.4
				c1.8,2.4,4.2,4,7.2,4.2c0.2,0,0.7-0.1,0.7-0.4c-0.4-2.9-2.1-5.9-1-8.8c-0.3,0.1-0.6,0.1-1,0.2c0.5,1.8-0.6,2.1-2.1,1.4
				c-0.4-0.2-0.7-0.5-1.1-0.8c0.5-0.4,1-0.8,1.4-1.2c0.5,0.1,1.1,0.4,1.5,0.7c0.2,0.1,1.1-0.1,0.8-0.4c-1.3-1.6-2.5-3.2-3.5-5
				c-0.3,0.1-0.5,0.3-0.8,0.4c1.3,0.2,2.7,0.1,4,0.6c0.2,0.1,1.1-0.1,0.8-0.4c-1.1-1.6-2.6-2.7-4-3.9c-0.7-0.6-1.4-1.3-2-2.1
				c1-0.4,1.9-0.3,2.7,0.3c0.6,0.4,1.2,0.8,1.7,1.4c0.3-0.1,0.6-0.3,0.8-0.4c-1.9-1.2-3.7-2.5-5.3-4.1c-0.3-0.3-0.6-0.7-0.9-1.1
				c0.8-1,1.7-1.1,2.7-0.4c1.1,0.5,2.1,1.3,3,2.1c0.3-0.1,0.6-0.3,0.8-0.4c-2.4-1.3-5.4-3-6.6-5.6c-0.4-0.8-0.3-2.6,1.2-2.4
				c0.8,0.1,1.7,0.8,2.3,1.3c0.9,0.7,1.9,1.8,2.2,2.9c0.3-0.1,0.6-0.2,0.9-0.4c-2.3-0.8-3.9-2.7-4.7-5
				C78.4,152,77.4,152.3,77.5,152.6L77.5,152.6z"/>
		</g>
	</g>
	<g>
		<g>
			<path fill="#0000B3" d="M77.4,212.9c-0.8,12,0.8,24,2,35.9c1.5,14.1,1.6,28.3,1.8,42.5c0.2,13.3,0,26.7-0.4,40
				c-0.5,13.4-1.9,27-1,40.4c0.1,0.8,1.5,0.5,1.5-0.1c-0.9-12.8,0.4-25.7,0.9-38.5c0.5-13.9,0.7-27.9,0.5-41.9
				c-0.1-12.5-0.3-25.1-1.3-37.5c-1.1-13.6-3.5-27.2-2.5-40.9C78.9,212,77.4,212.2,77.4,212.9L77.4,212.9z"/>
		</g>
	</g>
	<g>
		<g>
			<path fill="#0000B3" d="M80.3,14.9c0.2,11.1,2.3,22.2,0.3,33.3C80.5,48.6,82,48.4,82,48c2-11.1-0.1-22.3-0.3-33.5
				C81.7,14.2,80.3,14.4,80.3,14.9L80.3,14.9z"/>
		</g>
	</g>
	<rect id="valueColor03" x="139.2" y="17.2" width="16.2" height="35.2"/>
	<rect id="valueColor04" x="139.2" y="55" width="16.2" height="58.2"/>
	<g>
		<g>
			<path fill="#0000B3" d="M98.2,112.8c1-1.5,2.5-4.7,4.3-2.6c1.3,1.5,2.1,3.5,3,5.3c1.1,2.3,2.5,4.2,4.7,5.5
				c0.2,0.1,1.1-0.1,0.8-0.4c-1.3-1.8-4.2-2.6-6.1-3.4c-3.9-1.7-7.8-3.2-11.4-5.3c-3.2-1.9-7.1-5-4.5-9c0.6-0.9,1.5-1.6,2.3-2.3
				c1.9-1.6,3.1,1,4.1,2.2c2.3,3.2,3.8,7.1,5.1,10.8c1.2,3.4-4.8,2.1-3.9,5c0.5,1.7,3.7,1.3,4.9,0.8c1.2-0.5,0-0.2,0.3,1.7
				c0.4,2.9,1.5,5.8,2.7,8.5c1.4,3.1,3.8,6.8,7.6,6.8c0.2,0,0.7-0.1,0.7-0.4c-1.3-6.3-8.9-8.3-13.9-11c-0.2-0.1-1.1,0.2-0.8,0.4
				c1.4,1.1,7.3,8.4,2.8,6.6c-1.6-0.6-2.8-0.8-4.5-0.6c-0.1,0-0.6,0.2-0.6,0.4c0.7,2,1.9,3.2,3.4,4.7c3.3,3,0.5,1.3-2,0.7
				c-0.1,0-0.9,0.1-0.8,0.4c0.7,1.2,1.4,2.1,2.4,3.1c0.7,0.8,3.9,2.6,1.7,1.9c-1-0.3-2.6-0.1-3.4,0.7c-3.3,3-2.4,9.3-1.6,13.2
				c0.1,0.3,1,0.1,1-0.3c-0.8-3.8-2-15.7,5.2-12.4c0.2,0.1,1.1-0.1,0.8-0.4c-0.9-1.1-1.8-2.1-2.8-3c-3.1-3.1-0.8-2.1,2-1
				c0.2,0.1,1.1-0.1,0.8-0.4c-0.9-1.4-2-2.4-3.2-3.6c-3.5-3.2,1.5-2.5,3.7-1.8c0.2,0.1,0.8,0,0.9-0.3c0.1-1.5-0.1-2.4-0.8-3.8
				c-0.3-0.4-0.5-0.9-0.9-1.3c-1-1.5-1.9-1.5-3.1-2.1c3.8,2.1,7.9,3.4,11,6.6c2.7,2.7,0.7,3.7-1.7,1.3c-1.5-1.5-2.5-3.6-3.4-5.5
				c-1.4-3.1-2.4-6.5-2.5-9.9c0-0.3-0.8,0-0.9,0.1c-1.2,0.9-2.3,1-3.4,0.4c0.2-2.1,1.4-3.2,3.6-3c0.1,0,0.5-0.2,0.4-0.4
				c-1.9-5.7-4.1-12.5-9-16.4c-0.2-0.2-0.6-0.1-0.7,0c-2.6,1.7-5.9,4-5.2,7.5c0.7,3.3,5.1,5.4,7.7,6.8c4,2.1,8.3,3.6,12.4,5.5
				c0.7,0.4,1.5,0.7,2.1,1.2c1.7,1.2-1.5-2.6-1.8-3c-2.2-3.1-3-6.6-5.9-9.2c-0.2-0.2-0.7-0.1-0.8,0.1c-1.5,1.3-2.5,2.9-3.6,4.5
				C97,113.1,98,113,98.2,112.8L98.2,112.8z"/>
		</g>
	</g>
	<g>
		<g>
			<path fill="#0000B3" d="M114.9,170.7c-4.9-5-11.7-7.3-18.2-9.2c-0.7-0.2-1.7,0.8-0.8,1c6.3,1.8,13,4,17.8,8.8
				C114,171.9,115.4,171.3,114.9,170.7L114.9,170.7z"/>
		</g>
	</g>
	<g>
		<g>
			<path fill="#0000B3" d="M111.6,165.3c1.6,4.4,1.4,9.4-4.5,9.6c-3.9,0.2-7.9-2-10.8-4.5c-3.2-2.7-4.7-6.7-4.2-10.8
				c0.2-1.7,0.8-3.3,1.7-4.9c2.5-4.3,4.8,1,5.3,2.3c1.2,3.3,1.2,7.3,1.5,10.7c0.2,3.1,0.3,6.3,0.2,9.5c0,1.3,0.7,2.3-0.5,1.5
				c-0.8-0.5-1.6-0.8-2.5-1.1c-1.1-0.4-2.9-0.6-3.8,0.4c-1.7,2.1,2.9,4.8,4.4,4.9c1.3,0.1,3.4,0.1,2.3-1.7c-0.2-0.3-1.1,0-1,0.3
				c1.8,4.5,0.5,9.4,2.6,13.8c0.1,0.3,0.8,0,0.9-0.1c4.2-5.5-3.6-13.8-8.3-7.2c-2.5,3.5-0.9,9.2,0,12.9c1.4,5.2,3.6,10.2,6.1,15
				c0.2,0.3,1.1,0,1-0.3c-3.6-6.9-7.1-14.7-7.3-22.6c-0.1-2.1,0.4-4,1.6-5.7c3.3-4.6,6.5,1.4,7.1,3.9c-0.2-1.2,0,4-0.6,2.7
				s-0.6-2.8-0.8-4.2c-0.3-2.9-0.2-5.6-1.2-8.4c-0.3,0.1-0.6,0.2-1,0.3c-1.1,1-2.1,1-3.2,0c-0.8-0.7-1.3-1.5-1.6-2.4
				c-1.1-2.7,6,1.1,5.8,0.9c0.2,0.2,0.9,0,0.9-0.3c0.2-3.7,1.5-28.2-5.6-26.9c-6.1,1.1-6,10.8-3.3,14.9c3,4.5,9.1,8.2,14.7,7.6
				c5.9-0.6,6.9-5.2,5.1-10.3C112.5,164.8,111.5,165.1,111.6,165.3L111.6,165.3z"/>
		</g>
	</g>
	<script type="text/javascript">
		<![CDATA[
			let attr = this.frameElement.attributes['data-cheque-no'];
			let color;
			attr = attr && attr.value ? attr : { value: '2'}
			switch(attr.value) {
				case "1": color = "#DA542E"; break;
				case "2": color = "#a9c783"; break;
				case "3": color = "#28a5e1"; break;
				case "4": color = "#95BDD4"; break;
			}
			document.getElementById("valueColor01").setAttribute("fill", color);
			document.getElementById("valueColor02").setAttribute("fill", color);
			document.getElementById("valueColor03").setAttribute("fill", color);
			document.getElementById("valueColor04").setAttribute("fill", color);
		]]>
	</script>
</svg>
