<?xml version="1.0" encoding="utf-8"?>
<!-- Generator: Adobe Illustrator 23.0.2, SVG Export Plug-In . SVG Version: 6.00 Build 0)  -->
<svg version="1.1" id="single-cheque-generic-long-side-back" xmlns="http://www.w3.org/2000/svg" xmlns:xlink="http://www.w3.org/1999/xlink" x="0px" y="0px"
	 viewBox="0 0 390 170" enable-background="new 0 0 390 170" xml:space="preserve">
<g>
	<rect x="2.5" y="2.5" fill="#DAE8ED" width="385" height="165"/>
	<path id="valueColor01" fill="#95BDD4" d="M385,5v160H5V5H385 M390,0H0v170h390V0L390,0z"/>
</g>
<rect id="valueColor02" y="154.1" fill="#95BDD4" width="390" height="15.8"/>
<path d="M19.4,157.6l-1.5,8.1h-0.4l0.5-3h-1.2l0.1-0.4h1.2l0.3-1.4h-1.2l0.1-0.4h1.2l0.5-2.9L19.4,157.6L19.4,157.6z M19.2,165.7
	l1.5-8.1H21l-0.5,2.9h1.2l-0.1,0.4h-1.2l-0.3,1.4h1.2l-0.1,0.4H20l-0.6,3L19.2,165.7L19.2,165.7z"/>
<path d="M31.8,161.9c0,1,0.2,3.1-1.7,3.1c-1.8,0-1.7-2-1.7-3.1c0-1.4-0.1-3.1,1.7-3.1C32,158.8,31.8,161.2,31.8,161.9z M29.1,161.9
	c0,2.4,0.4,2.5,1,2.5c0.7,0,1-0.3,1-2.5c0-2.3-0.4-2.5-1-2.5C29,159.3,29.1,160.7,29.1,161.9z"/>
<path d="M35.3,159.6l-1.1,0.4l-0.2-0.5l1.9-0.7v5.6h1.3v0.5h-3.4v-0.5h1.5V159.6z"/>
<path d="M39.2,164.3l2.2-2.9c0.3-0.4,0.5-0.6,0.5-1.1c0-0.6-0.4-1-1-1c-0.7,0-1.1,0.6-1.2,1.2l-0.6-0.1c0.1-1,0.7-1.7,1.8-1.7
	c0.9,0,1.6,0.6,1.6,1.5c0,0.6-0.3,1-0.6,1.5l-2,2.5h2.6v0.5h-3.3V164.3z"/>
<path d="M45.3,161.2l1.8-1.8h-2.5v-0.5h3.3v0.5l-1.7,1.7c0.9,0,1.7,0.5,1.7,1.5c0,0.8-0.4,1.4-1.1,1.8c-0.5,0.3-1.1,0.5-2.2,0.5
	v-0.6c1,0,1.4-0.1,1.7-0.3c0.5-0.3,1-0.8,1-1.4c0-0.8-0.7-1-1.3-1c-0.2,0-0.5,0-0.7,0.1V161.2z"/>
<path d="M50,163.4l0.9-4.6l0.6,0.2l-0.8,3.9h1.6v-3.1H53v3.1h0.5v0.5H53v1.5h-0.6v-1.5L50,163.4L50,163.4z"/>
<path d="M55.6,158.9h3.1v0.5h-2.5v1.8c0.3-0.1,0.6-0.2,0.9-0.2c0.9,0,1.6,0.6,1.6,1.6c0,0.8-0.4,1.4-1.1,1.8
	c-0.5,0.3-1.1,0.5-2.3,0.5v-0.6c0.7,0,1.4,0,1.8-0.3c0.5-0.3,0.9-0.8,0.9-1.5c0-0.6-0.4-1-1.1-1c-0.4,0-0.7,0.1-1,0.3h-0.4
	L55.6,158.9L55.6,158.9z"/>
<path d="M63.6,159.8c-0.3-0.2-0.6-0.5-1-0.5c-1.1,0-1.2,1.4-1.2,2.2c0.4-0.3,0.7-0.5,1.2-0.5c1.1,0,1.5,0.9,1.5,1.9
	c0,1.1-0.6,2-1.7,2c-1.5,0-1.6-1.9-1.6-3c0-1.2,0.2-3.2,1.8-3.2c0.5,0,1,0.2,1.3,0.5L63.6,159.8z M62.5,164.4c0.7,0,1.1-0.6,1.1-1.4
	c0-0.7-0.2-1.4-1-1.4c-0.4,0-0.8,0.3-1.1,0.6C61.5,164.1,62,164.4,62.5,164.4z"/>
<path d="M69,159.4h-2.5v-0.5h3.3l-2.7,6.1l-0.5-0.2L69,159.4z"/>
<path d="M75,163.3c0,1-0.8,1.6-1.7,1.6c-1,0-1.7-0.6-1.7-1.6c0-0.8,0.5-1.2,1.2-1.6c-0.5-0.3-1-0.8-1-1.5c0-0.9,0.6-1.5,1.5-1.5
	s1.5,0.7,1.5,1.5c0,0.7-0.5,1.1-1,1.5C74.5,162.1,75,162.5,75,163.3z M72.2,163.4c0,0.6,0.5,1,1.1,1s1.1-0.4,1.1-1
	c0-0.7-0.6-1-1.1-1.3C72.8,162.4,72.2,162.6,72.2,163.4z M74.2,160.3c0-0.5-0.3-1-0.9-1s-0.9,0.4-0.9,1s0.5,0.8,0.9,1.1
	C73.7,161.1,74.2,160.9,74.2,160.3z"/>
<path d="M77.6,163.9c0.3,0.3,0.6,0.5,1,0.5c1.1,0,1.2-1.4,1.2-2.2c-0.4,0.3-0.7,0.5-1.2,0.5c-1.1,0-1.5-0.9-1.5-1.9
	c0-1.1,0.6-2,1.7-2c1.6,0,1.6,1.9,1.6,3c0,1.2-0.2,3.2-1.8,3.2c-0.5,0-1-0.2-1.3-0.5L77.6,163.9z M78.7,159.3
	c-0.7,0-1.1,0.6-1.1,1.4c0,0.7,0.2,1.4,1,1.4c0.4,0,0.8-0.3,1.1-0.6C79.8,159.7,79.3,159.3,78.7,159.3z"/>
<path d="M112.6,161.9c0,1,0.2,3.1-1.7,3.1c-1.8,0-1.7-2-1.7-3.1c0-1.4-0.1-3.1,1.7-3.1C112.8,158.8,112.6,161.2,112.6,161.9z
	 M109.9,161.9c0,2.4,0.4,2.5,1,2.5c0.7,0,1-0.3,1-2.5c0-2.3-0.4-2.5-1-2.5C109.8,159.3,109.9,160.7,109.9,161.9z"/>
<path d="M116.1,159.6L115,160l-0.2-0.5l1.9-0.7v5.6h1.3v0.5h-3.4v-0.5h1.5C116.1,164.4,116.1,159.6,116.1,159.6z"/>
<path d="M120,164.3l2.2-2.9c0.3-0.4,0.5-0.6,0.5-1.1c0-0.6-0.4-1-1-1c-0.7,0-1.1,0.6-1.2,1.2l-0.6-0.1c0.1-1,0.7-1.7,1.8-1.7
	c0.9,0,1.6,0.6,1.6,1.5c0,0.6-0.3,1-0.6,1.5l-2,2.5h2.6v0.5H120V164.3z"/>
<path d="M126.1,161.2l1.8-1.8h-2.5v-0.5h3.3v0.5l-1.7,1.7c0.9,0,1.7,0.5,1.7,1.5c0,0.8-0.4,1.4-1.1,1.8c-0.5,0.3-1.1,0.5-2.2,0.5
	v-0.6c1,0,1.4-0.1,1.7-0.3c0.5-0.3,1-0.8,1-1.4c0-0.8-0.7-1-1.3-1c-0.2,0-0.5,0-0.7,0.1C126.1,161.7,126.1,161.2,126.1,161.2z"/>
<path d="M130.8,163.4l0.9-4.6l0.6,0.2l-0.8,3.9h1.6v-3.1h0.6v3.1h0.5v0.5h-0.5v1.5h-0.6v-1.5L130.8,163.4L130.8,163.4z"/>
<path d="M136.4,158.9h3.1v0.5H137v1.8c0.3-0.1,0.6-0.2,0.9-0.2c0.9,0,1.6,0.6,1.6,1.6c0,0.8-0.4,1.4-1.1,1.8
	c-0.5,0.3-1.1,0.5-2.3,0.5v-0.6c0.7,0,1.4,0,1.8-0.3c0.5-0.3,0.9-0.8,0.9-1.5c0-0.6-0.4-1-1.1-1c-0.4,0-0.7,0.1-1,0.3h-0.4v-2.9
	L136.4,158.9L136.4,158.9z"/>
<path d="M144.4,159.8c-0.3-0.2-0.6-0.5-1-0.5c-1.1,0-1.2,1.4-1.2,2.2c0.4-0.3,0.7-0.5,1.2-0.5c1.1,0,1.5,0.9,1.5,1.9
	c0,1.1-0.6,2-1.7,2c-1.5,0-1.6-1.9-1.6-3c0-1.2,0.2-3.2,1.8-3.2c0.5,0,1,0.2,1.3,0.5L144.4,159.8z M143.3,164.4
	c0.7,0,1.1-0.6,1.1-1.4c0-0.7-0.2-1.4-1-1.4c-0.4,0-0.8,0.3-1.1,0.6C142.3,164.1,142.8,164.4,143.3,164.4z"/>
<path d="M149.8,159.4h-2.5v-0.5h3.3l-2.7,6.1l-0.5-0.2L149.8,159.4z"/>
<path d="M155.8,163.3c0,1-0.8,1.6-1.7,1.6c-1,0-1.7-0.6-1.7-1.6c0-0.8,0.5-1.2,1.2-1.6c-0.5-0.3-1-0.8-1-1.5c0-0.9,0.6-1.5,1.5-1.5
	s1.5,0.7,1.5,1.5c0,0.7-0.5,1.1-1,1.5C155.3,162.1,155.8,162.5,155.8,163.3z M153,163.4c0,0.6,0.5,1,1.1,1s1.1-0.4,1.1-1
	c0-0.7-0.6-1-1.1-1.3C153.6,162.4,153,162.6,153,163.4z M155,160.3c0-0.5-0.3-1-0.9-1c-0.6,0-0.9,0.4-0.9,1s0.5,0.8,0.9,1.1
	C154.6,161.1,155,160.9,155,160.3z"/>
<path d="M158.4,163.9c0.3,0.3,0.6,0.5,1,0.5c1.1,0,1.2-1.4,1.2-2.2c-0.4,0.3-0.7,0.5-1.2,0.5c-1.1,0-1.5-0.9-1.5-1.9
	c0-1.1,0.6-2,1.7-2c1.6,0,1.6,1.9,1.6,3c0,1.2-0.2,3.2-1.8,3.2c-0.5,0-1-0.2-1.3-0.5L158.4,163.9z M159.5,159.3
	c-0.7,0-1.1,0.6-1.1,1.4c0,0.7,0.2,1.4,1,1.4c0.4,0,0.8-0.3,1.1-0.6C160.6,159.7,160.1,159.3,159.5,159.3z"/>
<path d="M166.6,161.9c0,1,0.2,3.1-1.7,3.1c-1.8,0-1.7-2-1.7-3.1c0-1.4-0.1-3.1,1.7-3.1C166.8,158.8,166.6,161.2,166.6,161.9z
	 M163.9,161.9c0,2.4,0.4,2.5,1,2.5c0.7,0,1-0.3,1-2.5c0-2.3-0.4-2.5-1-2.5C163.8,159.3,163.9,160.7,163.9,161.9z"/>
<path d="M170.1,159.6L169,160l-0.2-0.5l1.9-0.7v5.6h1.3v0.5h-3.4v-0.5h1.5V159.6z"/>
<path d="M174,164.3l2.2-2.9c0.3-0.4,0.5-0.6,0.5-1.1c0-0.6-0.4-1-1-1c-0.7,0-1.1,0.6-1.2,1.2l-0.6-0.1c0.1-1,0.7-1.7,1.8-1.7
	c0.9,0,1.6,0.6,1.6,1.5c0,0.6-0.3,1-0.6,1.5l-2,2.5h2.6v0.5H174V164.3z"/>
<path d="M180.1,161.2l1.8-1.8h-2.5v-0.5h3.3v0.5l-1.7,1.7c0.9,0,1.7,0.5,1.7,1.5c0,0.8-0.4,1.4-1.1,1.8c-0.5,0.3-1.1,0.5-2.2,0.5
	v-0.6c1,0,1.4-0.1,1.7-0.3c0.5-0.3,1-0.8,1-1.4c0-0.8-0.7-1-1.3-1c-0.2,0-0.5,0-0.7,0.1V161.2z"/>
<path d="M184.8,163.4l0.9-4.6l0.6,0.2l-0.8,3.9h1.6v-3.1h0.6v3.1h0.5v0.5h-0.5v1.5h-0.6v-1.5L184.8,163.4L184.8,163.4z"/>
<path d="M231.3,161.9c0,1,0.2,3.1-1.7,3.1c-1.8,0-1.7-2-1.7-3.1c0-1.4-0.1-3.1,1.7-3.1C231.6,158.8,231.3,161.2,231.3,161.9z
	 M228.6,161.9c0,2.4,0.4,2.5,1,2.5c0.7,0,1-0.3,1-2.5c0-2.3-0.4-2.5-1-2.5C228.5,159.3,228.6,160.7,228.6,161.9z"/>
<path d="M234.9,159.6l-1.1,0.4l-0.2-0.5l1.9-0.7v5.6h1.3v0.5h-3.4v-0.5h1.5V159.6z"/>
<path d="M238.8,164.3l2.2-2.9c0.3-0.4,0.5-0.6,0.5-1.1c0-0.6-0.4-1-1-1c-0.7,0-1.1,0.6-1.2,1.2l-0.6-0.1c0.1-1,0.7-1.7,1.8-1.7
	c0.9,0,1.6,0.6,1.6,1.5c0,0.6-0.3,1-0.6,1.5l-2,2.5h2.6v0.5h-3.3V164.3z"/>
<path d="M244.9,161.2l1.8-1.8h-2.5v-0.5h3.3v0.5l-1.7,1.7c0.9,0,1.7,0.5,1.7,1.5c0,0.8-0.4,1.4-1.1,1.8c-0.5,0.3-1.1,0.5-2.2,0.5
	v-0.6c1,0,1.4-0.1,1.7-0.3c0.5-0.3,1-0.8,1-1.4c0-0.8-0.7-1-1.3-1c-0.2,0-0.5,0-0.7,0.1V161.2z"/>
<line fill="none" stroke="#000000" stroke-width="0.75" stroke-miterlimit="10" x1="16.5" y1="139.2" x2="372.4" y2="139.2"/>
<rect id="valueColor03" x="16.5" y="108" fill="#95BDD4" width="140.1" height="16.2"/>
<rect id="valueColor04" x="156.6" y="108" fill="#95BDD4" width="215.8" height="16.2"/>
<script  type="text/javascript">
	<![CDATA[
            let id = this.frameElement.id;
            let color;
            switch(id) {
                case "1": color = "#DA542E"; break;
                case "2": color = "#a9c783"; break;
                case "3": color = "#28a5e1"; break;
                case "4": color = "#95BDD4"; break;
            }
            document.getElementById("valueColor01").setAttribute("fill", color);
            document.getElementById("valueColor02").setAttribute("fill", color);
            document.getElementById("valueColor03").setAttribute("fill", color);
            document.getElementById("valueColor04").setAttribute("fill", color);
        
		
		]]>
</script>
<line fill="none" stroke="#000000" stroke-width="0.75" stroke-miterlimit="10" x1="35.5" y1="18.5" x2="35.5" y2="98.5"/>
<line fill="none" stroke="#000000" stroke-width="0.75" stroke-miterlimit="10" x1="53.8" y1="18.5" x2="53.8" y2="98.5"/>
<rect x="98.9" y="43.1" transform="matrix(0.9511 -0.309 0.309 0.9511 -8.1186 64.4123)" fill="none" width="200.8" height="29.5"/>
<text transform="matrix(0.9511 -0.309 0.309 0.9511 107.1798 99.3655)" opacity="5.000000e-02" font-size="36.0013px">S A M P L E</text>
<text transform="matrix(0.9511 -0.309 0.309 0.9511 107.1798 99.3655)" opacity="5.000000e-02" fill="none" stroke="#000000" stroke-miterlimit="10" font-size="36.0013px">S A M P L E</text>
<line fill="none" stroke="#000000" stroke-width="0.75" stroke-miterlimit="10" x1="17.5" y1="18.5" x2="17.5" y2="98.5"/>
</svg>
