<?xml version="1.0" encoding="utf-8"?>
<!-- Generator: Adobe Illustrator 21.1.0, SVG Export Plug-In . SVG Version: 6.00 Build 0)  -->
<svg version="1.1" id="Layer_1" xmlns="http://www.w3.org/2000/svg" xmlns:xlink="http://www.w3.org/1999/xlink" x="0px" y="0px"
	 viewBox="0 0 200 45" style="enable-background:new 0 0 200 45;" xml:space="preserve">
	<style type="text/css">
		@import "../default/default/svg.css";
	</style>
	<defs>
		<linearGradient id="grad1" x1="0%" y1="0%" x2="0%" y2="100%">
			  <stop offset="0%" style="stop-color:var(--color01);stop-opacity:0.3" />
			  <stop offset="100%" style="stop-color:var(--color01);stop-opacity:1" />
		</linearGradient>
    </defs>
	<script  type="text/javascript">
		<![CDATA[
			  if(window.parent && window.parent.Wincor && window.parent.Wincor.UI && window.parent.Wincor.UI.Content) {
				  let styleRes = window.parent.Wincor.UI.Content.StyleResourceResolver;
				  if(styleRes) {
					let style = document.getElementsByTagName("style")[0];
					if(style.innerHTML) {
						style.innerHTML = style.innerHTML.replace("default/svg.css", styleRes.type() + "svg.css");
					}
					else {
						style.textContent = style.textContent.replace("default/svg.css", styleRes.type() + "svg.css");
					}
					styleRes = null;
				}
			  }
			]]>
	</script>
	<g opacity="0.2">
		<linearGradient id="SVGID_1_" gradientUnits="userSpaceOnUse" x1="100" y1="44.25" x2="100" y2="0.3606">
			<stop offset="0" style="stop-color:#FFFFFF"/>
			<stop  offset="1" style="stop-color:#29282C"/>
		</linearGradient>
		<rect x="0" fill="url(#SVGID_1_)" width="200" height="45"/>
	</g>
	<linearGradient id="SVGID_2_" gradientUnits="userSpaceOnUse" x1="100" y1="44.8553" x2="100" y2="0.2366">
		<stop  offset="0" style="stop-color:#FFFFFF"/>
		<stop  offset="1" style="stop-color:#29282C"/>
	</linearGradient>
	<polygon opacity="0.2" fill="url(#SVGID_2_)" points="0,45 45.3,0 155,0 200,45 "/>
	<linearGradient id="SVGID_3_" gradientUnits="userSpaceOnUse" x1="1.017253e-05" y1="22.5" x2="45.3333" y2="22.5">
		<stop class="stopColor01"  offset="0"/>
		<stop  offset="1" style="stop-color:#29282C"/>
	</linearGradient>
	<polygon fill="url(#SVGID_3_)" points="0.7,45 0,45 0,44.3 45.3,0 "/>
	<linearGradient id="SVGID_4_" gradientUnits="userSpaceOnUse" x1="177.5" y1="44.75" x2="177.5" y2="7.703713e-02">
		<stop class="stopColor01" offset="0"/>
		<stop  offset="1" style="stop-color:#29282C"/>
	</linearGradient>
	<polygon fill="url(#SVGID_4_)" points="199.3,45 200,45 200,44.3 155,0 "/>
	<g>
		<path class="color01" d="M199,1v43H1V1H199 M200,0H0v45h200V0L200,0z"/>
	</g>
	<g>
		<polygon id="led1" fill-opacity="0.1" fill="url(#grad1)" points="131,40.3 69.5,40.3 88.7,22.5 111.9,22.5 	"/>
		<polygon id="led2" fill-opacity="0.1" fill="url(#grad1)" points="109.6,20.5 91.4,20.5 94.7,16.5 106.2,16.5 	"/>
		<polygon id="led3" fill-opacity="0.1" fill="url(#grad1)" points="103.7,14.5 97.3,14.5 98.5,12.7 102.5,12.7 	"/>
		<polygon id="led4" fill-opacity="0.1" fill="url(#grad1)" points="102.1,10.2 98.9,10.2 99.5,8.8 101.5,8.8 	"/>
	</g>

	<script type="text/javascript">
        <![CDATA[
        	let leds = [document.getElementById("led1"), document.getElementById("led2"), document.getElementById("led3"), document.getElementById("led4")];
			let i = 0;
			setInterval(() => {
				if(i < 4) {
					leds[i].setAttribute("fill-opacity", "1");
					if(i > 0) {
						leds[i - 1].setAttribute("fill-opacity", "0.1");
					}
					i++;
				} else {
					leds[i - 1].setAttribute("fill-opacity", "0.1");
					i = 0;
				}
			}, 250);
        ]]>
    </script>
</svg>
