<?xml version="1.0" encoding="utf-8"?>
<!-- Generator: Adobe Illustrator 24.1.2, SVG Export Plug-In . SVG Version: 6.00 Build 0)  -->
<svg version="1.1" id="Layer_1" xmlns="http://www.w3.org/2000/svg" xmlns:xlink="http://www.w3.org/1999/xlink" x="0px" y="0px"
	 viewBox="0 0 45 45" enable-background="new 0 0 45 45" xml:space="preserve">
	<style type="text/css">
			@import "../default/default/svg.css";
	</style>

	<script type="text/javascript">
        <![CDATA[
            if(window.parent && window.parent.Wincor && window.parent.Wincor.UI && window.parent.Wincor.UI.Content) {
                let styleRes = window.parent.Wincor.UI.Content.StyleResourceResolver;
                if(styleRes) {
                	let style = document.getElementsByTagName("style")[0];
                  	style.innerHTML = style.innerHTML.replace("default/svg.css", styleRes.type() + "svg.css");
                   styleRes = null;
                }
            }
        ]]>
   </script>

<g class="shadowGroup1">
	<line fill="none" stroke="#000000" stroke-miterlimit="10" x1="11" y1="23.2" x2="45.2" y2="23.2"/>
	<line fill="none" stroke="#000000" stroke-miterlimit="10" x1="11" y1="31.3" x2="45.2" y2="31.3"/>
	<line fill="none" stroke="#000000" stroke-miterlimit="10" x1="28.5" y1="40.7" x2="28.5" y2="31.3"/>
	<polygon  fill="#000000" stroke="#000000" stroke-miterlimit="10" points="31.2,39.9 28.5,44.2 25.8,39.9 	"/>
	<line fill="none" stroke="#000000" stroke-miterlimit="10" x1="28.5" y1="23.2" x2="28.5" y2="13.9"/>
	<polygon fill="#000000" stroke="#000000" stroke-miterlimit="10" points="31.2,14.7 28.5,10.4 25.8,14.7 	"/>
</g>
<g class="shadowGroup2">
	<line fill="none" stroke="#000000" stroke-miterlimit="10" x1="8.9" y1="21.2" x2="43" y2="21.2"/>
	<line fill="none" stroke="#000000" stroke-miterlimit="10" x1="8.9" y1="29.3" x2="43" y2="29.3"/>
	<line fill="none" stroke="#000000" stroke-miterlimit="10" x1="26.3" y1="38.7" x2="26.3" y2="29.3"/>
	<polygon fill="#000000" stroke="#000000" stroke-miterlimit="10" points="29,38 26.3,42.2 23.6,38 	"/>
	<line fill="none" stroke="#000000" stroke-miterlimit="10" x1="26.3" y1="21.2" x2="26.3" y2="11.9"/>
	<polygon  stroke="#000000" stroke-miterlimit="10" points="29,12.7 26.3,8.4 23.6,12.7 	"/>
</g>
<g class="shadowGroup3">
	<line fill="none" stroke="#000000" stroke-miterlimit="10" x1="6.7" y1="19.2" x2="40.8" y2="19.2"/>
	<line fill="none" stroke="#000000" stroke-miterlimit="10" x1="6.7" y1="27.3" x2="40.8" y2="27.3"/>
	<line fill="none" stroke="#000000" stroke-miterlimit="10" x1="24.1" y1="36.7" x2="24.1" y2="27.3"/>
	<polygon fill="#000000"  stroke="#000000" stroke-miterlimit="10" points="26.8,36 24.1,40.2 21.5,36 	"/>
	<line fill="none" stroke="#000000" stroke-miterlimit="10" x1="24.1" y1="19.2" x2="24.1" y2="10"/>
	<polygon fill="#000000" stroke="#000000" stroke-miterlimit="10" points="26.8,10.7 24.1,6.4 21.5,10.7 	"/>
</g>

<g>
	<line fill="none" class="strokeColor"  stroke-miterlimit="10" x1="4.7" y1="17.2" x2="38.8" y2="17.2"/>
	<line fill="none" class="strokeColor" stroke-miterlimit="10" x1="4.7" y1="25.3" x2="38.8" y2="25.3"/>
	<line fill="none" class="strokeColor"  stroke-miterlimit="10" x1="22.1" y1="34.6" x2="22.1" y2="25.3"/>
	<polygon class="fillColor"  stroke="#000000" stroke-miterlimit="10" points="24.8,33.9 22.1,38.2 19.4,33.9 	"/>
	<line fill="none" class="strokeColor"  stroke-miterlimit="10" x1="22.1" y1="17.2" x2="22.1" y2="7.9"/>
	<polygon class="fillColor"  stroke="#000000" stroke-miterlimit="10" points="24.8,8.6 22.1,4.4 19.4,8.6 	"/>
</g>
</svg>
