<?xml version="1.0" encoding="utf-8"?>
<!-- Generator: Adobe Illustrator 18.0.0, SVG Export Plug-In . SVG Version: 6.00 Build 0)  -->
<!DOCTYPE svg PUBLIC "-//W3C//DTD SVG 1.1//EN" "http://www.w3.org/Graphics/SVG/1.1/DTD/svg11.dtd">
<svg version="1.1" id="Layer_1" xmlns="http://www.w3.org/2000/svg" xmlns:xlink="http://www.w3.org/1999/xlink" x="0px" y="0px"
	 viewBox="0 0 45 45" enable-background="new 0 0 45 45" xml:space="preserve">
	<style type="text/css">
			@import "../default/default/svg.css";
	</style>
	 <script type="text/javascript">
         <![CDATA[
             if(window.parent && window.parent.Wincor && window.parent.Wincor.UI && window.parent.Wincor.UI.Content) {
                 let styleRes = window.parent.Wincor.UI.Content.StyleResourceResolver;
                 if(styleRes) {
                 	let style = document.getElementsByTagName("style")[0];
                   	style.innerHTML = style.innerHTML.replace("default/svg.css", styleRes.type() + "svg.css");
                    styleRes = null;
                 }
             }
         ]]>
    </script>
<g class="shadowGroup1">
	<path d="M40,13v17H4V13H40 M41,12H3v19h38V12L41,12z"/>
	<rect x="16" y="26" width="13" height="1"/>
	<polygon points="43,32 43,14 42,14 42,32 5,32 5,33 43,33 	"/>
	<polygon points="45,34 45,16 44,16 44,34 7,34 7,35 45,35 	"/>
	<path d="M22.5,17c1.9,0,3.5,1.6,3.5,3.5S24.4,24,22.5,24S19,22.4,19,20.5S20.6,17,22.5,17 M22.5,16C20,16,18,18,18,20.5
		s2,4.5,4.5,4.5s4.5-2,4.5-4.5S25,16,22.5,16L22.5,16z"/>
	<path d="M5,14v15h34V14H5z M36.7,24.4c-1.3,0-2.3,1-2.3,2.3c0,0.5,0.2,0.9,0.4,1.3H9.2c0.3-0.4,0.4-0.8,0.4-1.3
		c0-1.3-1-2.3-2.3-2.3c-0.5,0-0.9,0.2-1.3,0.4v-6.6c0.4,0.3,0.8,0.4,1.3,0.4c1.3,0,2.3-1,2.3-2.3c0-0.5-0.2-0.9-0.4-1.3h25.6
		c-0.3,0.4-0.4,0.8-0.4,1.3c0,1.3,1,2.3,2.3,2.3c0.5,0,0.9-0.2,1.3-0.4v6.6C37.6,24.6,37.2,24.4,36.7,24.4z"/>
</g>
<g class="shadowGroup2">
	<path d="M39,12v17H3V12H39 M40,11H2v19h38V11L40,11z"/>
	<rect x="15" y="25" width="13" height="1"/>
	<polygon points="42,31 42,13 41,13 41,31 4,31 4,32 42,32 	"/>
	<polygon points="44,33 44,15 43,15 43,33 6,33 6,34 44,34 	"/>
	<path d="M21.5,16c1.9,0,3.5,1.6,3.5,3.5S23.4,23,21.5,23S18,21.4,18,19.5S19.6,16,21.5,16 M21.5,15C19,15,17,17,17,19.5
		s2,4.5,4.5,4.5s4.5-2,4.5-4.5S24,15,21.5,15L21.5,15z"/>
	<path d="M4,13v15h34V13H4z M35.7,23.4c-1.3,0-2.3,1-2.3,2.3c0,0.5,0.2,0.9,0.4,1.3H8.2c0.3-0.4,0.4-0.8,0.4-1.3
		c0-1.3-1-2.3-2.3-2.3c-0.5,0-0.9,0.2-1.3,0.4v-6.6c0.4,0.3,0.8,0.4,1.3,0.4c1.3,0,2.3-1,2.3-2.3c0-0.5-0.2-0.9-0.4-1.3h25.6
		c-0.3,0.4-0.4,0.8-0.4,1.3c0,1.3,1,2.3,2.3,2.3c0.5,0,0.9-0.2,1.3-0.4v6.6C36.6,23.6,36.2,23.4,35.7,23.4z"/>
</g>
<g class="shadowGroup3">
	<path d="M38,11v17H2V11H38 M39,10H1v19h38V10L39,10z"/>
	<rect x="14" y="24" width="13" height="1"/>
	<polygon points="41,30 41,12 40,12 40,30 3,30 3,31 41,31 	"/>
	<polygon points="43,32 43,14 42,14 42,32 5,32 5,33 43,33 	"/>
	<path d="M20.5,15c1.9,0,3.5,1.6,3.5,3.5S22.4,22,20.5,22S17,20.4,17,18.5S18.6,15,20.5,15 M20.5,14C18,14,16,16,16,18.5
		s2,4.5,4.5,4.5s4.5-2,4.5-4.5S23,14,20.5,14L20.5,14z"/>
	<path d="M3,12v15h34V12H3z M34.7,22.4c-1.3,0-2.3,1-2.3,2.3c0,0.5,0.2,0.9,0.4,1.3H7.2c0.3-0.4,0.4-0.8,0.4-1.3
		c0-1.3-1-2.3-2.3-2.3c-0.5,0-0.9,0.2-1.3,0.4v-6.6c0.4,0.3,0.8,0.4,1.3,0.4c1.3,0,2.3-1,2.3-2.3c0-0.5-0.2-0.9-0.4-1.3h25.6
		c-0.3,0.4-0.4,0.8-0.4,1.3c0,1.3,1,2.3,2.3,2.3c0.5,0,0.9-0.2,1.3-0.4v6.6C35.6,22.6,35.2,22.4,34.7,22.4z"/>
</g>
<g>
	<path class="fillColor" d="M37,10v17H1V10H37 M38,9H0v19h38V9L38,9z"/>
	<rect x="13" y="23" class="fillColor" width="13" height="1"/>
	<polygon class="fillColor" points="40,29 40,11 39,11 39,29 2,29 2,30 40,30 	"/>
	<polygon class="fillColor" points="42,31 42,13 41,13 41,31 4,31 4,32 42,32 	"/>
	<path class="fillColor" d="M19.5,14c1.9,0,3.5,1.6,3.5,3.5S21.4,21,19.5,21S16,19.4,16,17.5S17.6,14,19.5,14 M19.5,13
		C17,13,15,15,15,17.5s2,4.5,4.5,4.5s4.5-2,4.5-4.5S22,13,19.5,13L19.5,13z"/>
	<path class="fillColor" d="M2,11v15h34V11H2z M33.7,21.4c-1.3,0-2.3,1-2.3,2.3c0,0.5,0.2,0.9,0.4,1.3H6.2c0.3-0.4,0.4-0.8,0.4-1.3
		c0-1.3-1-2.3-2.3-2.3c-0.5,0-0.9,0.2-1.3,0.4v-6.6c0.4,0.3,0.8,0.4,1.3,0.4c1.3,0,2.3-1,2.3-2.3c0-0.5-0.2-0.9-0.4-1.3h25.6
		c-0.3,0.4-0.4,0.8-0.4,1.3c0,1.3,1,2.3,2.3,2.3c0.5,0,0.9-0.2,1.3-0.4v6.6C34.6,21.6,34.2,21.4,33.7,21.4z"/>
</g>
</svg>
