<svg id="Layer_1" data-name="Layer 1" xmlns="http://www.w3.org/2000/svg" viewBox="0 0 531.46 131.71"><defs><style>.cls-1{fill:#114b86;}</style></defs><title>BTC-BFM</title><path class="cls-1" d="M129.9,152.69h22.32a17.94,17.94,0,0,1,13,4.4,11.27,11.27,0,0,1,3.34,8.23v.16a11.86,11.86,0,0,1-7.12,11.08c5.84,2,9.87,5.33,9.87,12.08v.14c0,8.88-7.3,13.65-18.38,13.65h-23Zm29.93,14.07c0-3.92-3.13-6.33-8.74-6.33H138.5v13.21h11.94c5.61,0,9.39-2.2,9.39-6.74ZM152.36,181H138.45v13.63H153c5.89,0,9.58-2.32,9.58-6.82v-.14c0-4.19-3.39-6.67-10.27-6.67Z" transform="translate(-129.9 -150.55)"/><path class="cls-1" d="M175.43,188.78V164.9H184v21.33c0,5.82,2.92,9.09,8,9.09s8.44-3.41,8.44-9.28V164.9h8.67v37.53h-8.67v-5.84a13.44,13.44,0,0,1-11.71,6.63C180.34,203.22,175.43,197.52,175.43,188.78Z" transform="translate(-129.9 -150.55)"/><path class="cls-1" d="M215.81,151h9.27v8.21h-9.27Zm.28,13.91h8.67v37.55h-8.67Z" transform="translate(-129.9 -150.55)"/><path class="cls-1" d="M233.57,150.55h8.67v51.88h-8.67Z" transform="translate(-129.9 -150.55)"/><path class="cls-1" d="M252.39,192.05V172.3h-4.75v-7.4h4.75V154.54H261v10.29h10.09v7.4H261V190.7a4.09,4.09,0,0,0,3.44,4.64,4,4,0,0,0,1.2,0,11.5,11.5,0,0,0,5.33-1.27v7a14.65,14.65,0,0,1-7.74,1.92C256.87,203.06,252.39,200.3,252.39,192.05Z" transform="translate(-129.9 -150.55)"/><path class="cls-1" d="M295.81,192.05V172.3h-4.63v-7.4h4.63V154.54h8.6v10.29H314.5v7.4H304.41V190.7a4.09,4.09,0,0,0,3.44,4.64,4,4,0,0,0,1.2,0,11.5,11.5,0,0,0,5.33-1.27v7a14.65,14.65,0,0,1-7.74,1.92C300.29,203.06,295.81,200.3,295.81,192.05Z" transform="translate(-129.9 -150.55)"/><path class="cls-1" d="M317.28,183.89v-.16a20,20,0,1,1,40-.14v.14a19.61,19.61,0,0,1-19.72,19.5h-.4a19.4,19.4,0,0,1-19.88-18.91C317.28,184.17,317.28,184,317.28,183.89Zm31.41,0v-.16a11.59,11.59,0,0,0-11.09-12.07h-.5a11.27,11.27,0,0,0-11.31,11.22c0,.24,0,.48,0,.72v.14a11.6,11.6,0,0,0,11.17,12h.26a11.24,11.24,0,0,0,11.47-11C348.71,184.44,348.71,184.17,348.69,183.89Z" transform="translate(-129.9 -150.55)"/><path class="cls-1" d="M376.19,177.72v-.14a25.18,25.18,0,0,1,24.61-25.73h.89a26,26,0,0,1,19.54,7.74l-5.52,6.54A20,20,0,0,0,401.8,160c-9.39,0-16.34,7.77-16.34,17.5v.14c0,9.74,7,17.62,16.41,17.62,6.1,0,10-2.32,14.28-6.4l5.61,5.68a25.65,25.65,0,0,1-20.17,8.81,25,25,0,0,1-25.41-24.51C376.17,178.47,376.18,178.1,376.19,177.72Z" transform="translate(-129.9 -150.55)"/><path class="cls-1" d="M422.88,183.89v-.16a20,20,0,1,1,40-.14v.14a19.61,19.61,0,0,1-19.72,19.5h-.31a19.41,19.41,0,0,1-20-18.81Zm31.41,0v-.16a11.59,11.59,0,0,0-11.1-12.07h-.49a11.27,11.27,0,0,0-11.34,11.2c0,.24,0,.49,0,.74v.14a11.6,11.6,0,0,0,11.17,12h.31a11.23,11.23,0,0,0,11.44-11c0-.26,0-.53,0-.8Z" transform="translate(-129.9 -150.55)"/><path class="cls-1" d="M467.29,164.9H476v5.87a13.65,13.65,0,0,1,11.73-6.54c8.47,0,13.36,5.7,13.36,14.37v23.83h-8.58V181.11c0-5.82-2.92-9.16-8-9.16s-8.47,3.48-8.47,9.27v21.19h-8.67Z" transform="translate(-129.9 -150.55)"/><path class="cls-1" d="M507.1,164.9h8.67v5.87a13.57,13.57,0,0,1,11.73-6.54c8.46,0,13.35,5.7,13.35,14.37v23.83h-8.6V181.11c0-5.82-2.92-9.16-8-9.16s-8.46,3.48-8.46,9.27v21.19H507.1Z" transform="translate(-129.9 -150.55)"/><path class="cls-1" d="M544.86,183.8v-.14c0-10.74,7.61-19.55,18.34-19.55,11.94,0,18,9.28,18,20.2a12.69,12.69,0,0,1-.14,2.31H553.51a10.48,10.48,0,0,0,10.8,9.65,13.7,13.7,0,0,0,10.16-4.48l5.17,4.48a19,19,0,0,1-15.35,6.95,18.73,18.73,0,0,1-19.43-18Q544.83,184.51,544.86,183.8ZM572.68,181c-.56-5.54-3.82-9.88-9.5-9.88-5.27,0-9,4.06-9.74,9.88Z" transform="translate(-129.9 -150.55)"/><path class="cls-1" d="M585,183.89v-.16a19.37,19.37,0,0,1,19.1-19.62h.44a19.06,19.06,0,0,1,15,6.47l-5.4,5.77a12.83,12.83,0,0,0-9.67-4.63,11.31,11.31,0,0,0-10.92,11.68v.33a11.35,11.35,0,0,0,10.65,12h.57a13.21,13.21,0,0,0,9.74-4.63l5.24,5.17A19.68,19.68,0,0,1,585,183.91Z" transform="translate(-129.9 -150.55)"/><path class="cls-1" d="M626.56,192.05V172.3H621.8v-7.4h4.76V154.54h8.71v10.29h10.09v7.4H635.27V190.7a4.09,4.09,0,0,0,3.44,4.64,4,4,0,0,0,1.2,0,11.5,11.5,0,0,0,5.33-1.27v7a14.65,14.65,0,0,1-7.74,1.92C631,203.06,626.56,200.3,626.56,192.05Z" transform="translate(-129.9 -150.55)"/><path class="cls-1" d="M656.72,192.63h0a4.63,4.63,0,0,1,4.63,4.63v.38a4.63,4.63,0,0,1-4.63,4.63h0a4.63,4.63,0,0,1-4.64-4.63v-.38A4.63,4.63,0,0,1,656.72,192.63Z" transform="translate(-129.9 -150.55)"/><path class="cls-1" d="M159.36,231.69h22.3a17.91,17.91,0,0,1,13,4.41,11.24,11.24,0,0,1,3.36,8.23v.16a11.88,11.88,0,0,1-7.12,11.08c5.82,2,9.88,5.33,9.88,12.08v.14c0,8.88-7.33,13.65-18.41,13.65h-23Zm29.91,14.08c0-3.92-3.11-6.33-8.74-6.33H168v13.21H179.9c5.61,0,9.27-2.32,9.27-6.74Zm-7.44,14.28H167.92V273.7h14.49c5.91,0,9.59-2.32,9.59-6.84v-.14c.05-4.19-3.29-6.67-10.17-6.67Z" transform="translate(-129.9 -150.55)"/><path class="cls-1" d="M205,267.79V243.91h8.61v21.28c0,5.82,2.92,9.09,8,9.09s8.46-3.41,8.46-9.27V243.82h8.78v37.6h-8.67v-5.84a13.46,13.46,0,0,1-11.73,6.61C209.88,282.21,205,276.53,205,267.79Z" transform="translate(-129.9 -150.55)"/><path class="cls-1" d="M245.35,230h9.27v8.18h-9.27Zm.27,13.91h8.67v37.53h-8.67Z" transform="translate(-129.9 -150.55)"/><path class="cls-1" d="M263.1,229.56h8.67v51.86H263.1Z" transform="translate(-129.9 -150.55)"/><path class="cls-1" d="M283.36,271.06V251.28h-4.63v-7.39h4.63V233.6H292v10.29h10.08v7.39H292v18.55a4.08,4.08,0,0,0,3.43,4.64,4,4,0,0,0,1.2,0,11.45,11.45,0,0,0,5.33-1.28v7a14.94,14.94,0,0,1-7.74,1.9C287.84,282.07,283.36,279.31,283.36,271.06Z" transform="translate(-129.9 -150.55)"/><path class="cls-1" d="M328.36,251.28h-4.77V244.1h4.77v-2.76a12.78,12.78,0,0,1,3-9.27,11.25,11.25,0,0,1,8.39-3,23.32,23.32,0,0,1,6.95,1v7.3a15.5,15.5,0,0,0-5.05-.92c-3.27,0-5,1.85-5,5.68v2.06h10v7.09h-9.83v30.14h-8.58Z" transform="translate(-129.9 -150.55)"/><path class="cls-1" d="M347.53,262.87v-.16a20,20,0,0,1,40-.14h0v.14a19.62,19.62,0,0,1-19.68,19.55h-.42a19.41,19.41,0,0,1-19.91-18.89C347.54,263.2,347.53,263,347.53,262.87Zm31.42,0v-.16a11.61,11.61,0,0,0-11.1-12.07h-.5A11.27,11.27,0,0,0,356,261.83c0,.25,0,.5,0,.74v.14a11.6,11.6,0,0,0,11.14,12h.31a11.23,11.23,0,0,0,11.47-11c0-.29,0-.57,0-.86Z" transform="translate(-129.9 -150.55)"/><path class="cls-1" d="M391.86,243.91h8.67v8.46c2.32-5.61,6.67-9.46,13.28-9.27v9.11h-.49c-7.53,0-12.79,4.89-12.79,14.86v14.35h-8.67Z" transform="translate(-129.9 -150.55)"/><path class="cls-1" d="M435.16,231.69h9.28l15.13,23.51,15.14-23.51H484v49.73h-8.67V245.77L459.62,269.2h-.3L443.76,246v35.4h-8.6Z" transform="translate(-129.9 -150.55)"/><path class="cls-1" d="M488.11,262.87v-.16a20,20,0,0,1,40-.14v.14a19.6,19.6,0,0,1-19.67,19.55H508a19.41,19.41,0,0,1-19.88-18.92C488.11,263.19,488.11,263,488.11,262.87Zm31.41,0v-.16a11.59,11.59,0,0,0-11.09-12.07h-.5a11.28,11.28,0,0,0-11.31,11.23c0,.24,0,.48,0,.71v.14a11.6,11.6,0,0,0,11.14,12h.29a11.26,11.26,0,0,0,11.47-11.06c0-.27,0-.54,0-.81Z" transform="translate(-129.9 -150.55)"/><path class="cls-1" d="M532.53,243.91h8.67v8.46c2.32-5.61,6.68-9.46,13.28-9.27v9.11H554c-7.54,0-12.8,4.89-12.8,14.86v14.35h-8.67Z" transform="translate(-129.9 -150.55)"/><path class="cls-1" d="M557.17,262.87v-.16c0-10.71,7.61-19.54,18.34-19.54,11.94,0,18,9.39,18,20.19a12.75,12.75,0,0,1-.14,2.32H565.73a10.48,10.48,0,0,0,10.8,9.53,13.67,13.67,0,0,0,10.18-4.48l5,4.48a19,19,0,0,1-15.35,7A18.7,18.7,0,0,1,557.17,264Q557.16,263.43,557.17,262.87ZM585,260.09c-.56-5.54-3.82-9.87-9.53-9.87-5.26,0-9,4.05-9.73,9.87Z" transform="translate(-129.9 -150.55)"/><path class="cls-1" d="M602.82,271.64h0a4.63,4.63,0,0,1,4.63,4.63v.51a4.63,4.63,0,0,1-4.63,4.64h0a4.64,4.64,0,0,1-4.64-4.64v-.34a4.64,4.64,0,0,1,4.47-4.8Z" transform="translate(-129.9 -150.55)"/></svg>