<?xml version="1.0" encoding="utf-8"?>
<!-- Generator: Adobe Illustrator 23.0.2, SVG Export Plug-In . SVG Version: 6.00 Build 0)  -->
<svg version="1.1" id="Layer_1" xmlns="http://www.w3.org/2000/svg" xmlns:xlink="http://www.w3.org/1999/xlink" x="0px" y="0px"
	 viewBox="0 0 215.4 92" enable-background="new 0 0 215.4 92" xml:space="preserve">
<g opacity="0.2">
	<g>
		<g>
			
				<linearGradient id="SVGID_1_" gradientUnits="userSpaceOnUse" x1="108.05" y1="1511.6746" x2="108.05" y2="1453.7813" gradientTransform="matrix(1 0 0 1 0 -1437.1111)">
				<stop  offset="0" style="stop-color:#FFFFFF"/>
				<stop  offset="1" style="stop-color:#29282C"/>
			</linearGradient>
			<path fill="url(#SVGID_1_)" d="M16.3,31.2c0-8.3,6.8-15,15-15h153.5c8.3,0,15,6.8,15,15v29.4c0,8.3-6.8,15-15,15H31.3
				c-8.3,0-15-6.8-15-15V31.2z"/>
		</g>
	</g>
</g>
<linearGradient id="SVGID_2_" gradientUnits="userSpaceOnUse" x1="107.65" y1="1512.4731" x2="107.65" y2="1453.6177" gradientTransform="matrix(1 0 0 1 0 -1437.1111)">
	<stop  offset="0" style="stop-color:#FFFFFF"/>
	<stop  offset="1" style="stop-color:#29282C"/>
</linearGradient>
<polygon opacity="0.2" fill="url(#SVGID_2_)" points="23.8,75.6 61.7,16.2 153.8,16.2 191.5,75.6 "/>
<polygon points="24.3,76.7 23.8,76.7 23.8,75.8 61.7,16.2 "/>
<polygon points="190.9,76.7 191.5,76.7 191.5,75.8 153.8,16.2 "/>
<path fill="none" class="slotFrameColor" color="#000000" stroke-width="18" stroke-miterlimit="10" d="M190.4,83H25c-8.8,0-16-7.2-16-16V25
	c0-8.8,7.2-16,16-16h165.4c8.8,0,16,7.2,16,16v42C206.4,75.8,199.2,83,190.4,83z"/>
</svg>
